# Blender 5.0.1
# www.blender.org
mtllib Wing.mtl
o Untitled.001
v -1.950000 0.280000 0.075000
v -1.950000 0.280000 -0.510000
v -1.950000 0.670000 0.075000
v -1.950000 0.670000 -0.510000
v -1.755000 0.085000 0.075000
v -1.755000 0.085000 -0.510000
v -1.755000 0.280000 0.465000
v -1.755000 0.280000 0.075000
v -1.755000 0.280000 -0.510000
v -1.755000 0.280000 -0.705000
v -1.755000 0.670000 0.465000
v -1.755000 0.670000 0.075000
v -1.755000 0.670000 -0.510000
v -1.755000 0.670000 -0.705000
v -1.755000 0.865000 0.075000
v -1.755000 0.865000 -0.510000
v -1.560000 0.085000 0.270000
v -1.560000 0.085000 0.075000
v -1.560000 0.085000 -0.510000
v -1.560000 0.085000 -0.705000
v -1.560000 0.280000 0.660000
v -1.560000 0.280000 0.465000
v -1.560000 0.280000 0.270000
v -1.560000 0.280000 0.075000
v -1.560000 0.280000 -0.510000
v -1.560000 0.280000 -0.705000
v -1.560000 0.280000 -0.900000
v -1.560000 0.670000 0.660000
v -1.560000 0.670000 0.465000
v -1.560000 0.670000 0.270000
v -1.560000 0.670000 0.075000
v -1.560000 0.670000 -0.510000
v -1.560000 0.670000 -0.705000
v -1.560000 0.670000 -0.900000
v -1.560000 0.865000 0.270000
v -1.560000 0.865000 0.075000
v -1.560000 0.865000 -0.510000
v -1.560000 0.865000 -0.705000
v -1.365000 0.670000 0.465000
v -1.365000 0.670000 0.270000
v -1.365000 0.865000 0.465000
v -1.365000 0.865000 0.270000
v -1.170000 0.085000 0.465000
v -1.170000 0.085000 0.270000
v -1.170000 0.280000 0.855000
v -1.170000 0.280000 0.660000
v -1.170000 0.280000 0.465000
v -1.170000 0.280000 0.270000
v -1.170000 0.670000 0.855000
v -1.170000 0.670000 0.660000
v -1.170000 0.670000 0.465000
v -1.170000 0.865000 0.660000
v -1.170000 0.865000 0.465000
v -0.975000 0.085000 0.660000
v -0.975000 0.085000 0.465000
v -0.975000 0.280000 0.660000
v -0.975000 0.280000 0.465000
v 0.195000 0.280000 0.465000
v 0.195000 0.280000 0.075000
v 0.195000 0.670000 0.465000
v 0.195000 0.670000 0.075000
v 0.390000 0.085000 0.465000
v 0.390000 0.085000 0.075000
v 0.390000 0.280000 0.660000
v 0.390000 0.280000 0.465000
v 0.390000 0.280000 0.075000
v 0.390000 0.280000 -0.120000
v 0.390000 0.670000 0.660000
v 0.390000 0.670000 0.465000
v 0.390000 0.670000 0.075000
v 0.390000 0.670000 -0.120000
v 0.390000 0.865000 0.465000
v 0.390000 0.865000 0.075000
v 0.585000 0.085000 0.660000
v 0.585000 0.085000 0.465000
v 0.585000 0.085000 0.075000
v 0.585000 0.085000 -0.120000
v 0.585000 0.280000 0.855000
v 0.585000 0.280000 0.660000
v 0.585000 0.280000 0.465000
v 0.585000 0.280000 0.075000
v 0.585000 0.280000 -0.120000
v 0.585000 0.280000 -0.315000
v 0.585000 0.670000 0.855000
v 0.585000 0.670000 0.660000
v 0.585000 0.670000 0.465000
v 0.585000 0.670000 0.075000
v 0.585000 0.670000 -0.120000
v 0.585000 0.670000 -0.315000
v 0.585000 0.865000 0.660000
v 0.585000 0.865000 0.465000
v 0.585000 0.865000 0.075000
v 0.585000 0.865000 -0.120000
v 0.780000 0.085000 -0.120000
v 0.780000 0.085000 -0.315000
v 0.780000 0.280000 -0.120000
v 0.780000 0.280000 -0.315000
v 0.780000 0.280000 -0.510000
v 0.780000 0.670000 -0.120000
v 0.780000 0.670000 -0.315000
v 0.780000 0.670000 -0.510000
v 0.780000 0.865000 -0.120000
v 0.780000 0.865000 -0.315000
v 0.975000 0.085000 -0.315000
v 0.975000 0.085000 -0.510000
v 0.975000 0.280000 -0.315000
v 0.975000 0.280000 -0.510000
v 0.975000 0.280000 -0.705000
v 0.975000 0.670000 -0.315000
v 0.975000 0.670000 -0.510000
v 0.975000 0.670000 -0.705000
v 0.975000 0.865000 -0.315000
v 0.975000 0.865000 -0.510000
v 1.170000 0.085000 -0.510000
v 1.170000 0.085000 -0.705000
v 1.170000 0.280000 -0.510000
v 1.170000 0.280000 -0.705000
v 1.170000 0.280000 -0.900000
v 1.170000 0.670000 -0.510000
v 1.170000 0.670000 -0.705000
v 1.170000 0.670000 -0.900000
v 1.170000 0.865000 -0.510000
v 1.170000 0.865000 -0.705000
v -1.170000 0.085000 -0.510000
v -1.170000 0.085000 -0.705000
v -1.170000 0.280000 -0.510000
v -1.170000 0.280000 -0.705000
v -1.170000 0.280000 -0.900000
v -1.170000 0.670000 -0.510000
v -1.170000 0.670000 -0.705000
v -1.170000 0.670000 -0.900000
v -1.170000 0.865000 -0.510000
v -1.170000 0.865000 -0.705000
v -0.975000 0.085000 -0.315000
v -0.975000 0.085000 -0.510000
v -0.975000 0.280000 -0.315000
v -0.975000 0.280000 -0.510000
v -0.975000 0.280000 -0.705000
v -0.975000 0.670000 -0.315000
v -0.975000 0.670000 -0.510000
v -0.975000 0.670000 -0.705000
v -0.975000 0.865000 -0.315000
v -0.975000 0.865000 -0.510000
v -0.780000 0.085000 -0.120000
v -0.780000 0.085000 -0.315000
v -0.780000 0.280000 -0.120000
v -0.780000 0.280000 -0.315000
v -0.780000 0.280000 -0.510000
v -0.780000 0.670000 -0.120000
v -0.780000 0.670000 -0.315000
v -0.780000 0.670000 -0.510000
v -0.780000 0.865000 -0.120000
v -0.780000 0.865000 -0.315000
v -0.585000 0.085000 0.660000
v -0.585000 0.085000 0.465000
v -0.585000 0.085000 0.075000
v -0.585000 0.085000 -0.120000
v -0.585000 0.280000 0.855000
v -0.585000 0.280000 0.660000
v -0.585000 0.280000 0.465000
v -0.585000 0.280000 0.075000
v -0.585000 0.280000 -0.120000
v -0.585000 0.280000 -0.315000
v -0.585000 0.670000 0.855000
v -0.585000 0.670000 0.660000
v -0.585000 0.670000 0.465000
v -0.585000 0.670000 0.075000
v -0.585000 0.670000 -0.120000
v -0.585000 0.670000 -0.315000
v -0.585000 0.865000 0.660000
v -0.585000 0.865000 0.465000
v -0.585000 0.865000 0.075000
v -0.585000 0.865000 -0.120000
v -0.390000 0.085000 0.465000
v -0.390000 0.085000 0.075000
v -0.390000 0.280000 0.660000
v -0.390000 0.280000 0.465000
v -0.390000 0.280000 0.075000
v -0.390000 0.280000 -0.120000
v -0.390000 0.670000 0.660000
v -0.390000 0.670000 0.465000
v -0.390000 0.670000 0.075000
v -0.390000 0.670000 -0.120000
v -0.390000 0.865000 0.465000
v -0.390000 0.865000 0.075000
v -0.195000 0.280000 0.465000
v -0.195000 0.280000 0.075000
v -0.195000 0.670000 0.465000
v -0.195000 0.670000 0.075000
v 0.975000 0.085000 0.660000
v 0.975000 0.085000 0.465000
v 0.975000 0.280000 0.660000
v 0.975000 0.280000 0.465000
v 1.170000 0.085000 0.465000
v 1.170000 0.085000 0.270000
v 1.170000 0.280000 0.855000
v 1.170000 0.280000 0.660000
v 1.170000 0.280000 0.465000
v 1.170000 0.280000 0.270000
v 1.170000 0.670000 0.855000
v 1.170000 0.670000 0.660000
v 1.170000 0.670000 0.465000
v 1.170000 0.865000 0.660000
v 1.170000 0.865000 0.465000
v 1.365000 0.670000 0.465000
v 1.365000 0.670000 0.270000
v 1.365000 0.865000 0.465000
v 1.365000 0.865000 0.270000
v 1.560000 0.085000 0.270000
v 1.560000 0.085000 0.075000
v 1.560000 0.085000 -0.510000
v 1.560000 0.085000 -0.705000
v 1.560000 0.280000 0.660000
v 1.560000 0.280000 0.465000
v 1.560000 0.280000 0.270000
v 1.560000 0.280000 0.075000
v 1.560000 0.280000 -0.510000
v 1.560000 0.280000 -0.705000
v 1.560000 0.280000 -0.900000
v 1.560000 0.670000 0.660000
v 1.560000 0.670000 0.465000
v 1.560000 0.670000 0.270000
v 1.560000 0.670000 0.075000
v 1.560000 0.670000 -0.510000
v 1.560000 0.670000 -0.705000
v 1.560000 0.670000 -0.900000
v 1.560000 0.865000 0.270000
v 1.560000 0.865000 0.075000
v 1.560000 0.865000 -0.510000
v 1.560000 0.865000 -0.705000
v 1.755000 0.085000 0.075000
v 1.755000 0.085000 -0.510000
v 1.755000 0.280000 0.465000
v 1.755000 0.280000 0.075000
v 1.755000 0.280000 -0.510000
v 1.755000 0.280000 -0.705000
v 1.755000 0.670000 0.465000
v 1.755000 0.670000 0.075000
v 1.755000 0.670000 -0.510000
v 1.755000 0.670000 -0.705000
v 1.755000 0.865000 0.075000
v 1.755000 0.865000 -0.510000
v 1.950000 0.280000 0.075000
v 1.950000 0.280000 -0.510000
v 1.950000 0.670000 0.075000
v 1.950000 0.670000 -0.510000
v -1.170000 0.280000 0.855000
v -1.170000 0.670000 0.855000
v -0.585000 0.280000 0.855000
v -0.585000 0.670000 0.855000
v 0.585000 0.280000 0.855000
v 0.585000 0.670000 0.855000
v 1.170000 0.280000 0.855000
v 1.170000 0.670000 0.855000
v -1.560000 0.280000 0.660000
v -1.560000 0.670000 0.660000
v -1.170000 0.280000 0.660000
v -1.170000 0.670000 0.660000
v -1.170000 0.865000 0.660000
v -0.975000 0.085000 0.660000
v -0.975000 0.280000 0.660000
v -0.585000 0.085000 0.660000
v -0.585000 0.280000 0.660000
v -0.585000 0.670000 0.660000
v -0.585000 0.865000 0.660000
v -0.390000 0.280000 0.660000
v -0.390000 0.670000 0.660000
v 0.390000 0.280000 0.660000
v 0.390000 0.670000 0.660000
v 0.585000 0.085000 0.660000
v 0.585000 0.280000 0.660000
v 0.585000 0.670000 0.660000
v 0.585000 0.865000 0.660000
v 0.975000 0.085000 0.660000
v 0.975000 0.280000 0.660000
v 1.170000 0.280000 0.660000
v 1.170000 0.670000 0.660000
v 1.170000 0.865000 0.660000
v 1.560000 0.280000 0.660000
v 1.560000 0.670000 0.660000
v -1.755000 0.280000 0.465000
v -1.755000 0.670000 0.465000
v -1.560000 0.280000 0.465000
v -1.560000 0.670000 0.465000
v -1.365000 0.670000 0.465000
v -1.365000 0.865000 0.465000
v -1.170000 0.085000 0.465000
v -1.170000 0.280000 0.465000
v -1.170000 0.670000 0.465000
v -1.170000 0.865000 0.465000
v -0.975000 0.085000 0.465000
v -0.975000 0.280000 0.465000
v -0.585000 0.085000 0.465000
v -0.585000 0.280000 0.465000
v -0.585000 0.670000 0.465000
v -0.585000 0.865000 0.465000
v -0.390000 0.085000 0.465000
v -0.390000 0.280000 0.465000
v -0.390000 0.670000 0.465000
v -0.390000 0.865000 0.465000
v -0.195000 0.280000 0.465000
v -0.195000 0.670000 0.465000
v 0.195000 0.280000 0.465000
v 0.195000 0.670000 0.465000
v 0.390000 0.085000 0.465000
v 0.390000 0.280000 0.465000
v 0.390000 0.670000 0.465000
v 0.390000 0.865000 0.465000
v 0.585000 0.085000 0.465000
v 0.585000 0.280000 0.465000
v 0.585000 0.670000 0.465000
v 0.585000 0.865000 0.465000
v 0.975000 0.085000 0.465000
v 0.975000 0.280000 0.465000
v 1.170000 0.085000 0.465000
v 1.170000 0.280000 0.465000
v 1.170000 0.670000 0.465000
v 1.170000 0.865000 0.465000
v 1.365000 0.670000 0.465000
v 1.365000 0.865000 0.465000
v 1.560000 0.280000 0.465000
v 1.560000 0.670000 0.465000
v 1.755000 0.280000 0.465000
v 1.755000 0.670000 0.465000
v -1.560000 0.085000 0.270000
v -1.560000 0.280000 0.270000
v -1.560000 0.670000 0.270000
v -1.560000 0.865000 0.270000
v -1.365000 0.670000 0.270000
v -1.365000 0.865000 0.270000
v -1.170000 0.085000 0.270000
v -1.170000 0.280000 0.270000
v 1.170000 0.085000 0.270000
v 1.170000 0.280000 0.270000
v 1.365000 0.670000 0.270000
v 1.365000 0.865000 0.270000
v 1.560000 0.085000 0.270000
v 1.560000 0.280000 0.270000
v 1.560000 0.670000 0.270000
v 1.560000 0.865000 0.270000
v -1.950000 0.280000 0.075000
v -1.950000 0.670000 0.075000
v -1.755000 0.085000 0.075000
v -1.755000 0.280000 0.075000
v -1.755000 0.670000 0.075000
v -1.755000 0.865000 0.075000
v -1.560000 0.085000 0.075000
v -1.560000 0.280000 0.075000
v -1.560000 0.670000 0.075000
v -1.560000 0.865000 0.075000
v 1.560000 0.085000 0.075000
v 1.560000 0.280000 0.075000
v 1.560000 0.670000 0.075000
v 1.560000 0.865000 0.075000
v 1.755000 0.085000 0.075000
v 1.755000 0.280000 0.075000
v 1.755000 0.670000 0.075000
v 1.755000 0.865000 0.075000
v 1.950000 0.280000 0.075000
v 1.950000 0.670000 0.075000
v -0.585000 0.085000 0.075000
v -0.585000 0.280000 0.075000
v -0.585000 0.670000 0.075000
v -0.585000 0.865000 0.075000
v -0.390000 0.085000 0.075000
v -0.390000 0.280000 0.075000
v -0.390000 0.670000 0.075000
v -0.390000 0.865000 0.075000
v -0.195000 0.280000 0.075000
v -0.195000 0.670000 0.075000
v 0.195000 0.280000 0.075000
v 0.195000 0.670000 0.075000
v 0.390000 0.085000 0.075000
v 0.390000 0.280000 0.075000
v 0.390000 0.670000 0.075000
v 0.390000 0.865000 0.075000
v 0.585000 0.085000 0.075000
v 0.585000 0.280000 0.075000
v 0.585000 0.670000 0.075000
v 0.585000 0.865000 0.075000
v -0.780000 0.085000 -0.120000
v -0.780000 0.280000 -0.120000
v -0.780000 0.670000 -0.120000
v -0.780000 0.865000 -0.120000
v -0.585000 0.085000 -0.120000
v -0.585000 0.280000 -0.120000
v -0.585000 0.670000 -0.120000
v -0.585000 0.865000 -0.120000
v -0.390000 0.280000 -0.120000
v -0.390000 0.670000 -0.120000
v 0.390000 0.280000 -0.120000
v 0.390000 0.670000 -0.120000
v 0.585000 0.085000 -0.120000
v 0.585000 0.280000 -0.120000
v 0.585000 0.670000 -0.120000
v 0.585000 0.865000 -0.120000
v 0.780000 0.085000 -0.120000
v 0.780000 0.280000 -0.120000
v 0.780000 0.670000 -0.120000
v 0.780000 0.865000 -0.120000
v -0.975000 0.085000 -0.315000
v -0.975000 0.280000 -0.315000
v -0.975000 0.670000 -0.315000
v -0.975000 0.865000 -0.315000
v -0.780000 0.085000 -0.315000
v -0.780000 0.280000 -0.315000
v -0.780000 0.670000 -0.315000
v -0.780000 0.865000 -0.315000
v -0.585000 0.280000 -0.315000
v -0.585000 0.670000 -0.315000
v 0.585000 0.280000 -0.315000
v 0.585000 0.670000 -0.315000
v 0.780000 0.085000 -0.315000
v 0.780000 0.280000 -0.315000
v 0.780000 0.670000 -0.315000
v 0.780000 0.865000 -0.315000
v 0.975000 0.085000 -0.315000
v 0.975000 0.280000 -0.315000
v 0.975000 0.670000 -0.315000
v 0.975000 0.865000 -0.315000
v -1.950000 0.280000 -0.510000
v -1.950000 0.670000 -0.510000
v -1.755000 0.085000 -0.510000
v -1.755000 0.280000 -0.510000
v -1.755000 0.670000 -0.510000
v -1.755000 0.865000 -0.510000
v -1.560000 0.085000 -0.510000
v -1.560000 0.280000 -0.510000
v -1.560000 0.670000 -0.510000
v -1.560000 0.865000 -0.510000
v -1.170000 0.085000 -0.510000
v -1.170000 0.280000 -0.510000
v -1.170000 0.670000 -0.510000
v -1.170000 0.865000 -0.510000
v -0.975000 0.085000 -0.510000
v -0.975000 0.280000 -0.510000
v -0.975000 0.670000 -0.510000
v -0.975000 0.865000 -0.510000
v -0.780000 0.280000 -0.510000
v -0.780000 0.670000 -0.510000
v 0.780000 0.280000 -0.510000
v 0.780000 0.670000 -0.510000
v 0.975000 0.085000 -0.510000
v 0.975000 0.280000 -0.510000
v 0.975000 0.670000 -0.510000
v 0.975000 0.865000 -0.510000
v 1.170000 0.085000 -0.510000
v 1.170000 0.280000 -0.510000
v 1.170000 0.670000 -0.510000
v 1.170000 0.865000 -0.510000
v 1.560000 0.085000 -0.510000
v 1.560000 0.280000 -0.510000
v 1.560000 0.670000 -0.510000
v 1.560000 0.865000 -0.510000
v 1.755000 0.085000 -0.510000
v 1.755000 0.280000 -0.510000
v 1.755000 0.670000 -0.510000
v 1.755000 0.865000 -0.510000
v 1.950000 0.280000 -0.510000
v 1.950000 0.670000 -0.510000
v -1.755000 0.280000 -0.705000
v -1.755000 0.670000 -0.705000
v -1.560000 0.085000 -0.705000
v -1.560000 0.280000 -0.705000
v -1.560000 0.670000 -0.705000
v -1.560000 0.865000 -0.705000
v -1.170000 0.085000 -0.705000
v -1.170000 0.280000 -0.705000
v -1.170000 0.670000 -0.705000
v -1.170000 0.865000 -0.705000
v -0.975000 0.280000 -0.705000
v -0.975000 0.670000 -0.705000
v 0.975000 0.280000 -0.705000
v 0.975000 0.670000 -0.705000
v 1.170000 0.085000 -0.705000
v 1.170000 0.280000 -0.705000
v 1.170000 0.670000 -0.705000
v 1.170000 0.865000 -0.705000
v 1.560000 0.085000 -0.705000
v 1.560000 0.280000 -0.705000
v 1.560000 0.670000 -0.705000
v 1.560000 0.865000 -0.705000
v 1.755000 0.280000 -0.705000
v 1.755000 0.670000 -0.705000
v -1.560000 0.280000 -0.900000
v -1.560000 0.670000 -0.900000
v -1.170000 0.280000 -0.900000
v -1.170000 0.670000 -0.900000
v 1.170000 0.280000 -0.900000
v 1.170000 0.670000 -0.900000
v 1.560000 0.280000 -0.900000
v 1.560000 0.670000 -0.900000
v -0.975000 0.085000 0.660000
v -0.585000 0.085000 0.660000
v 0.585000 0.085000 0.660000
v 0.975000 0.085000 0.660000
v -1.170000 0.085000 0.465000
v -0.975000 0.085000 0.465000
v -0.585000 0.085000 0.465000
v -0.390000 0.085000 0.465000
v 0.390000 0.085000 0.465000
v 0.585000 0.085000 0.465000
v 0.975000 0.085000 0.465000
v 1.170000 0.085000 0.465000
v -1.560000 0.085000 0.270000
v -1.170000 0.085000 0.270000
v 1.170000 0.085000 0.270000
v 1.560000 0.085000 0.270000
v -1.755000 0.085000 0.075000
v -1.560000 0.085000 0.075000
v -0.585000 0.085000 0.075000
v -0.390000 0.085000 0.075000
v 0.390000 0.085000 0.075000
v 0.585000 0.085000 0.075000
v 1.560000 0.085000 0.075000
v 1.755000 0.085000 0.075000
v -0.780000 0.085000 -0.120000
v -0.585000 0.085000 -0.120000
v 0.585000 0.085000 -0.120000
v 0.780000 0.085000 -0.120000
v -0.975000 0.085000 -0.315000
v -0.780000 0.085000 -0.315000
v 0.780000 0.085000 -0.315000
v 0.975000 0.085000 -0.315000
v -1.755000 0.085000 -0.510000
v -1.560000 0.085000 -0.510000
v -1.170000 0.085000 -0.510000
v -0.975000 0.085000 -0.510000
v 0.975000 0.085000 -0.510000
v 1.170000 0.085000 -0.510000
v 1.560000 0.085000 -0.510000
v 1.755000 0.085000 -0.510000
v -1.560000 0.085000 -0.705000
v -1.170000 0.085000 -0.705000
v 1.170000 0.085000 -0.705000
v 1.560000 0.085000 -0.705000
v -1.170000 0.280000 0.855000
v -0.585000 0.280000 0.855000
v 0.585000 0.280000 0.855000
v 1.170000 0.280000 0.855000
v -1.560000 0.280000 0.660000
v -1.170000 0.280000 0.660000
v -0.975000 0.280000 0.660000
v -0.585000 0.280000 0.660000
v -0.390000 0.280000 0.660000
v 0.390000 0.280000 0.660000
v 0.585000 0.280000 0.660000
v 0.975000 0.280000 0.660000
v 1.170000 0.280000 0.660000
v 1.560000 0.280000 0.660000
v -1.755000 0.280000 0.465000
v -1.560000 0.280000 0.465000
v -1.170000 0.280000 0.465000
v -0.975000 0.280000 0.465000
v -0.585000 0.280000 0.465000
v -0.390000 0.280000 0.465000
v -0.195000 0.280000 0.465000
v 0.195000 0.280000 0.465000
v 0.390000 0.280000 0.465000
v 0.585000 0.280000 0.465000
v 0.975000 0.280000 0.465000
v 1.170000 0.280000 0.465000
v 1.560000 0.280000 0.465000
v 1.755000 0.280000 0.465000
v -1.560000 0.280000 0.270000
v -1.170000 0.280000 0.270000
v 1.170000 0.280000 0.270000
v 1.560000 0.280000 0.270000
v -1.950000 0.280000 0.075000
v -1.755000 0.280000 0.075000
v -1.560000 0.280000 0.075000
v -0.585000 0.280000 0.075000
v -0.390000 0.280000 0.075000
v -0.195000 0.280000 0.075000
v 0.195000 0.280000 0.075000
v 0.390000 0.280000 0.075000
v 0.585000 0.280000 0.075000
v 1.560000 0.280000 0.075000
v 1.755000 0.280000 0.075000
v 1.950000 0.280000 0.075000
v -0.780000 0.280000 -0.120000
v -0.585000 0.280000 -0.120000
v -0.390000 0.280000 -0.120000
v 0.390000 0.280000 -0.120000
v 0.585000 0.280000 -0.120000
v 0.780000 0.280000 -0.120000
v -0.975000 0.280000 -0.315000
v -0.780000 0.280000 -0.315000
v -0.585000 0.280000 -0.315000
v 0.585000 0.280000 -0.315000
v 0.780000 0.280000 -0.315000
v 0.975000 0.280000 -0.315000
v -1.950000 0.280000 -0.510000
v -1.755000 0.280000 -0.510000
v -1.560000 0.280000 -0.510000
v -1.170000 0.280000 -0.510000
v -0.975000 0.280000 -0.510000
v -0.780000 0.280000 -0.510000
v 0.780000 0.280000 -0.510000
v 0.975000 0.280000 -0.510000
v 1.170000 0.280000 -0.510000
v 1.560000 0.280000 -0.510000
v 1.755000 0.280000 -0.510000
v 1.950000 0.280000 -0.510000
v -1.755000 0.280000 -0.705000
v -1.560000 0.280000 -0.705000
v -1.170000 0.280000 -0.705000
v -0.975000 0.280000 -0.705000
v 0.975000 0.280000 -0.705000
v 1.170000 0.280000 -0.705000
v 1.560000 0.280000 -0.705000
v 1.755000 0.280000 -0.705000
v -1.560000 0.280000 -0.900000
v -1.170000 0.280000 -0.900000
v 1.170000 0.280000 -0.900000
v 1.560000 0.280000 -0.900000
v -1.170000 0.670000 0.855000
v -0.585000 0.670000 0.855000
v 0.585000 0.670000 0.855000
v 1.170000 0.670000 0.855000
v -1.560000 0.670000 0.660000
v -1.170000 0.670000 0.660000
v -0.585000 0.670000 0.660000
v -0.390000 0.670000 0.660000
v 0.390000 0.670000 0.660000
v 0.585000 0.670000 0.660000
v 1.170000 0.670000 0.660000
v 1.560000 0.670000 0.660000
v -1.755000 0.670000 0.465000
v -1.560000 0.670000 0.465000
v -1.365000 0.670000 0.465000
v -1.170000 0.670000 0.465000
v -0.585000 0.670000 0.465000
v -0.390000 0.670000 0.465000
v -0.195000 0.670000 0.465000
v 0.195000 0.670000 0.465000
v 0.390000 0.670000 0.465000
v 0.585000 0.670000 0.465000
v 1.170000 0.670000 0.465000
v 1.365000 0.670000 0.465000
v 1.560000 0.670000 0.465000
v 1.755000 0.670000 0.465000
v -1.560000 0.670000 0.270000
v -1.365000 0.670000 0.270000
v 1.365000 0.670000 0.270000
v 1.560000 0.670000 0.270000
v -1.950000 0.670000 0.075000
v -1.755000 0.670000 0.075000
v -1.560000 0.670000 0.075000
v -0.585000 0.670000 0.075000
v -0.390000 0.670000 0.075000
v -0.195000 0.670000 0.075000
v 0.195000 0.670000 0.075000
v 0.390000 0.670000 0.075000
v 0.585000 0.670000 0.075000
v 1.560000 0.670000 0.075000
v 1.755000 0.670000 0.075000
v 1.950000 0.670000 0.075000
v -0.780000 0.670000 -0.120000
v -0.585000 0.670000 -0.120000
v -0.390000 0.670000 -0.120000
v 0.390000 0.670000 -0.120000
v 0.585000 0.670000 -0.120000
v 0.780000 0.670000 -0.120000
v -0.975000 0.670000 -0.315000
v -0.780000 0.670000 -0.315000
v -0.585000 0.670000 -0.315000
v 0.585000 0.670000 -0.315000
v 0.780000 0.670000 -0.315000
v 0.975000 0.670000 -0.315000
v -1.950000 0.670000 -0.510000
v -1.755000 0.670000 -0.510000
v -1.560000 0.670000 -0.510000
v -1.170000 0.670000 -0.510000
v -0.975000 0.670000 -0.510000
v -0.780000 0.670000 -0.510000
v 0.780000 0.670000 -0.510000
v 0.975000 0.670000 -0.510000
v 1.170000 0.670000 -0.510000
v 1.560000 0.670000 -0.510000
v 1.755000 0.670000 -0.510000
v 1.950000 0.670000 -0.510000
v -1.755000 0.670000 -0.705000
v -1.560000 0.670000 -0.705000
v -1.170000 0.670000 -0.705000
v -0.975000 0.670000 -0.705000
v 0.975000 0.670000 -0.705000
v 1.170000 0.670000 -0.705000
v 1.560000 0.670000 -0.705000
v 1.755000 0.670000 -0.705000
v -1.560000 0.670000 -0.900000
v -1.170000 0.670000 -0.900000
v 1.170000 0.670000 -0.900000
v 1.560000 0.670000 -0.900000
v -1.170000 0.865000 0.660000
v -0.585000 0.865000 0.660000
v 0.585000 0.865000 0.660000
v 1.170000 0.865000 0.660000
v -1.365000 0.865000 0.465000
v -1.170000 0.865000 0.465000
v -0.585000 0.865000 0.465000
v -0.390000 0.865000 0.465000
v 0.390000 0.865000 0.465000
v 0.585000 0.865000 0.465000
v 1.170000 0.865000 0.465000
v 1.365000 0.865000 0.465000
v -1.560000 0.865000 0.270000
v -1.365000 0.865000 0.270000
v 1.365000 0.865000 0.270000
v 1.560000 0.865000 0.270000
v -1.755000 0.865000 0.075000
v -1.560000 0.865000 0.075000
v -0.585000 0.865000 0.075000
v -0.390000 0.865000 0.075000
v 0.390000 0.865000 0.075000
v 0.585000 0.865000 0.075000
v 1.560000 0.865000 0.075000
v 1.755000 0.865000 0.075000
v -0.780000 0.865000 -0.120000
v -0.585000 0.865000 -0.120000
v 0.585000 0.865000 -0.120000
v 0.780000 0.865000 -0.120000
v -0.975000 0.865000 -0.315000
v -0.780000 0.865000 -0.315000
v 0.780000 0.865000 -0.315000
v 0.975000 0.865000 -0.315000
v -1.755000 0.865000 -0.510000
v -1.560000 0.865000 -0.510000
v -1.170000 0.865000 -0.510000
v -0.975000 0.865000 -0.510000
v 0.975000 0.865000 -0.510000
v 1.170000 0.865000 -0.510000
v 1.560000 0.865000 -0.510000
v 1.755000 0.865000 -0.510000
v -1.560000 0.865000 -0.705000
v -1.170000 0.865000 -0.705000
v 1.170000 0.865000 -0.705000
v 1.560000 0.865000 -0.705000
vn -1.0000 -0.0000 -0.0000
vn 1.0000 -0.0000 -0.0000
vn -0.0000 -0.0000 1.0000
vn -0.0000 -0.0000 -1.0000
vn -0.0000 -1.0000 -0.0000
vn -0.0000 1.0000 -0.0000
vt 0.974609 0.500000
vt 0.970703 0.500000
s 1
usemtl palette.025
f 3/1/1 2/1/1 1/1/1
f 4/1/1 2/1/1 3/1/1
f 8/2/1 6/2/1 5/2/1
f 9/2/1 6/2/1 8/2/1
f 11/1/1 8/1/1 7/1/1
f 12/1/1 8/1/1 11/1/1
f 13/1/1 10/1/1 9/1/1
f 14/1/1 10/1/1 13/1/1
f 15/2/1 13/2/1 12/2/1
f 16/2/1 13/2/1 15/2/1
f 23/2/1 18/2/1 17/2/1
f 24/2/1 18/2/1 23/2/1
f 25/2/1 20/2/1 19/2/1
f 26/2/1 20/2/1 25/2/1
f 28/1/1 22/1/1 21/1/1
f 29/1/1 22/1/1 28/1/1
f 33/1/1 27/1/1 26/1/1
f 34/1/1 27/1/1 33/1/1
f 35/2/1 31/2/1 30/2/1
f 36/2/1 31/2/1 35/2/1
f 37/2/1 33/2/1 32/2/1
f 38/2/1 33/2/1 37/2/1
f 41/2/1 40/2/1 39/2/1
f 42/2/1 40/2/1 41/2/1
f 47/2/1 44/2/1 43/2/1
f 48/2/1 44/2/1 47/2/1
f 49/1/1 46/1/1 45/1/1
f 50/1/1 46/1/1 49/1/1
f 52/2/1 51/2/1 50/2/1
f 53/2/1 51/2/1 52/2/1
f 56/2/1 55/2/1 54/2/1
f 57/2/1 55/2/1 56/2/1
f 60/1/1 59/1/1 58/1/1
f 61/1/1 59/1/1 60/1/1
f 65/2/1 63/2/1 62/2/1
f 66/2/1 63/2/1 65/2/1
f 68/1/1 65/1/1 64/1/1
f 69/1/1 65/1/1 68/1/1
f 70/1/1 67/1/1 66/1/1
f 71/1/1 67/1/1 70/1/1
f 72/2/1 70/2/1 69/2/1
f 73/2/1 70/2/1 72/2/1
f 79/2/1 75/2/1 74/2/1
f 80/2/1 75/2/1 79/2/1
f 81/2/1 77/2/1 76/2/1
f 82/2/1 77/2/1 81/2/1
f 84/1/1 79/1/1 78/1/1
f 85/1/1 79/1/1 84/1/1
f 88/1/1 83/1/1 82/1/1
f 89/1/1 83/1/1 88/1/1
f 90/2/1 86/2/1 85/2/1
f 91/2/1 86/2/1 90/2/1
f 92/2/1 88/2/1 87/2/1
f 93/2/1 88/2/1 92/2/1
f 96/2/1 95/2/1 94/2/1
f 97/2/1 95/2/1 96/2/1
f 100/1/1 98/1/1 97/1/1
f 101/1/1 98/1/1 100/1/1
f 102/2/1 100/2/1 99/2/1
f 103/2/1 100/2/1 102/2/1
f 106/2/1 105/2/1 104/2/1
f 107/2/1 105/2/1 106/2/1
f 110/1/1 108/1/1 107/1/1
f 111/1/1 108/1/1 110/1/1
f 112/2/1 110/2/1 109/2/1
f 113/2/1 110/2/1 112/2/1
f 116/2/1 115/2/1 114/2/1
f 117/2/1 115/2/1 116/2/1
f 120/1/1 118/1/1 117/1/1
f 121/1/1 118/1/1 120/1/1
f 122/2/1 120/2/1 119/2/1
f 123/2/1 120/2/1 122/2/1
f 124/2/2 125/2/2 126/2/2
f 126/2/2 125/2/2 127/2/2
f 127/1/2 128/1/2 130/1/2
f 130/1/2 128/1/2 131/1/2
f 129/2/2 130/2/2 132/2/2
f 132/2/2 130/2/2 133/2/2
f 134/2/2 135/2/2 136/2/2
f 136/2/2 135/2/2 137/2/2
f 137/1/2 138/1/2 140/1/2
f 140/1/2 138/1/2 141/1/2
f 139/2/2 140/2/2 142/2/2
f 142/2/2 140/2/2 143/2/2
f 144/2/2 145/2/2 146/2/2
f 146/2/2 145/2/2 147/2/2
f 147/1/2 148/1/2 150/1/2
f 150/1/2 148/1/2 151/1/2
f 149/2/2 150/2/2 152/2/2
f 152/2/2 150/2/2 153/2/2
f 154/2/2 155/2/2 159/2/2
f 159/2/2 155/2/2 160/2/2
f 156/2/2 157/2/2 161/2/2
f 161/2/2 157/2/2 162/2/2
f 158/1/2 159/1/2 164/1/2
f 164/1/2 159/1/2 165/1/2
f 162/1/2 163/1/2 168/1/2
f 168/1/2 163/1/2 169/1/2
f 165/2/2 166/2/2 170/2/2
f 170/2/2 166/2/2 171/2/2
f 167/2/2 168/2/2 172/2/2
f 172/2/2 168/2/2 173/2/2
f 174/2/2 175/2/2 177/2/2
f 177/2/2 175/2/2 178/2/2
f 176/1/2 177/1/2 180/1/2
f 180/1/2 177/1/2 181/1/2
f 178/1/2 179/1/2 182/1/2
f 182/1/2 179/1/2 183/1/2
f 181/2/2 182/2/2 184/2/2
f 184/2/2 182/2/2 185/2/2
f 186/1/2 187/1/2 188/1/2
f 188/1/2 187/1/2 189/1/2
f 190/2/2 191/2/2 192/2/2
f 192/2/2 191/2/2 193/2/2
f 194/2/2 195/2/2 198/2/2
f 198/2/2 195/2/2 199/2/2
f 196/1/2 197/1/2 200/1/2
f 200/1/2 197/1/2 201/1/2
f 201/2/2 202/2/2 203/2/2
f 203/2/2 202/2/2 204/2/2
f 205/2/2 206/2/2 207/2/2
f 207/2/2 206/2/2 208/2/2
f 209/2/2 210/2/2 215/2/2
f 215/2/2 210/2/2 216/2/2
f 211/2/2 212/2/2 217/2/2
f 217/2/2 212/2/2 218/2/2
f 213/1/2 214/1/2 220/1/2
f 220/1/2 214/1/2 221/1/2
f 218/1/2 219/1/2 225/1/2
f 225/1/2 219/1/2 226/1/2
f 222/2/2 223/2/2 227/2/2
f 227/2/2 223/2/2 228/2/2
f 224/2/2 225/2/2 229/2/2
f 229/2/2 225/2/2 230/2/2
f 231/2/2 232/2/2 234/2/2
f 234/2/2 232/2/2 235/2/2
f 233/1/2 234/1/2 237/1/2
f 237/1/2 234/1/2 238/1/2
f 235/1/2 236/1/2 239/1/2
f 239/1/2 236/1/2 240/1/2
f 238/2/2 239/2/2 241/2/2
f 241/2/2 239/2/2 242/2/2
f 243/1/2 244/1/2 245/1/2
f 245/1/2 244/1/2 246/1/2
f 249/1/3 248/1/3 247/1/3
f 250/1/3 248/1/3 249/1/3
f 253/1/3 252/1/3 251/1/3
f 254/1/3 252/1/3 253/1/3
f 257/1/3 256/1/3 255/1/3
f 258/1/3 256/1/3 257/1/3
f 262/2/3 261/2/3 260/2/3
f 263/2/3 261/2/3 262/2/3
f 264/2/3 259/2/3 258/2/3
f 265/2/3 259/2/3 264/2/3
f 266/1/3 264/1/3 263/1/3
f 267/1/3 264/1/3 266/1/3
f 271/1/3 269/1/3 268/1/3
f 272/1/3 269/1/3 271/1/3
f 274/2/3 271/2/3 270/2/3
f 275/2/3 271/2/3 274/2/3
f 277/2/3 273/2/3 272/2/3
f 278/2/3 273/2/3 277/2/3
f 279/1/3 277/1/3 276/1/3
f 280/1/3 277/1/3 279/1/3
f 283/1/3 282/1/3 281/1/3
f 284/1/3 282/1/3 283/1/3
f 289/2/3 286/2/3 285/2/3
f 290/2/3 286/2/3 289/2/3
f 291/2/3 288/2/3 287/2/3
f 292/2/3 288/2/3 291/2/3
f 297/2/3 294/2/3 293/2/3
f 298/2/3 294/2/3 297/2/3
f 299/2/3 296/2/3 295/2/3
f 300/2/3 296/2/3 299/2/3
f 301/1/3 299/1/3 298/1/3
f 302/1/3 299/1/3 301/1/3
f 306/1/3 304/1/3 303/1/3
f 307/1/3 304/1/3 306/1/3
f 309/2/3 306/2/3 305/2/3
f 310/2/3 306/2/3 309/2/3
f 311/2/3 308/2/3 307/2/3
f 312/2/3 308/2/3 311/2/3
f 315/2/3 314/2/3 313/2/3
f 316/2/3 314/2/3 315/2/3
f 319/2/3 318/2/3 317/2/3
f 320/2/3 318/2/3 319/2/3
f 323/1/3 322/1/3 321/1/3
f 324/1/3 322/1/3 323/1/3
f 329/2/3 328/2/3 327/2/3
f 330/2/3 328/2/3 329/2/3
f 331/2/3 326/2/3 325/2/3
f 332/2/3 326/2/3 331/2/3
f 337/2/3 334/2/3 333/2/3
f 338/2/3 334/2/3 337/2/3
f 339/2/3 336/2/3 335/2/3
f 340/2/3 336/2/3 339/2/3
f 344/1/3 342/1/3 341/1/3
f 345/1/3 342/1/3 344/1/3
f 347/2/3 344/2/3 343/2/3
f 348/2/3 344/2/3 347/2/3
f 349/2/3 346/2/3 345/2/3
f 350/2/3 346/2/3 349/2/3
f 355/2/3 352/2/3 351/2/3
f 356/2/3 352/2/3 355/2/3
f 357/2/3 354/2/3 353/2/3
f 358/2/3 354/2/3 357/2/3
f 359/1/3 357/1/3 356/1/3
f 360/1/3 357/1/3 359/1/3
f 361/2/4 362/2/4 365/2/4
f 365/2/4 362/2/4 366/2/4
f 363/2/4 364/2/4 367/2/4
f 367/2/4 364/2/4 368/2/4
f 366/1/4 367/1/4 369/1/4
f 369/1/4 367/1/4 370/1/4
f 371/1/4 372/1/4 374/1/4
f 374/1/4 372/1/4 375/1/4
f 373/2/4 374/2/4 377/2/4
f 377/2/4 374/2/4 378/2/4
f 375/2/4 376/2/4 379/2/4
f 379/2/4 376/2/4 380/2/4
f 381/2/4 382/2/4 385/2/4
f 385/2/4 382/2/4 386/2/4
f 383/2/4 384/2/4 387/2/4
f 387/2/4 384/2/4 388/2/4
f 386/1/4 387/1/4 389/1/4
f 389/1/4 387/1/4 390/1/4
f 391/1/4 392/1/4 394/1/4
f 394/1/4 392/1/4 395/1/4
f 393/2/4 394/2/4 397/2/4
f 397/2/4 394/2/4 398/2/4
f 395/2/4 396/2/4 399/2/4
f 399/2/4 396/2/4 400/2/4
f 401/2/4 402/2/4 405/2/4
f 405/2/4 402/2/4 406/2/4
f 403/2/4 404/2/4 407/2/4
f 407/2/4 404/2/4 408/2/4
f 406/1/4 407/1/4 409/1/4
f 409/1/4 407/1/4 410/1/4
f 411/1/4 412/1/4 414/1/4
f 414/1/4 412/1/4 415/1/4
f 413/2/4 414/2/4 417/2/4
f 417/2/4 414/2/4 418/2/4
f 415/2/4 416/2/4 419/2/4
f 419/2/4 416/2/4 420/2/4
f 421/1/4 422/1/4 424/1/4
f 424/1/4 422/1/4 425/1/4
f 423/2/4 424/2/4 427/2/4
f 427/2/4 424/2/4 428/2/4
f 425/2/4 426/2/4 429/2/4
f 429/2/4 426/2/4 430/2/4
f 431/2/4 432/2/4 435/2/4
f 435/2/4 432/2/4 436/2/4
f 433/2/4 434/2/4 437/2/4
f 437/2/4 434/2/4 438/2/4
f 436/1/4 437/1/4 439/1/4
f 439/1/4 437/1/4 440/1/4
f 441/1/4 442/1/4 444/1/4
f 444/1/4 442/1/4 445/1/4
f 443/2/4 444/2/4 447/2/4
f 447/2/4 444/2/4 448/2/4
f 445/2/4 446/2/4 449/2/4
f 449/2/4 446/2/4 450/2/4
f 451/2/4 452/2/4 455/2/4
f 455/2/4 452/2/4 456/2/4
f 453/2/4 454/2/4 457/2/4
f 457/2/4 454/2/4 458/2/4
f 456/1/4 457/1/4 459/1/4
f 459/1/4 457/1/4 460/1/4
f 461/1/4 462/1/4 464/1/4
f 464/1/4 462/1/4 465/1/4
f 463/2/4 464/2/4 467/2/4
f 467/2/4 464/2/4 468/2/4
f 465/2/4 466/2/4 469/2/4
f 469/2/4 466/2/4 470/2/4
f 468/1/4 469/1/4 471/1/4
f 471/1/4 469/1/4 472/1/4
f 473/1/4 474/1/4 476/1/4
f 476/1/4 474/1/4 477/1/4
f 475/2/4 476/2/4 479/2/4
f 479/2/4 476/2/4 480/2/4
f 477/2/4 478/2/4 481/2/4
f 481/2/4 478/2/4 482/2/4
f 480/1/4 481/1/4 483/1/4
f 483/1/4 481/1/4 484/1/4
f 485/1/4 486/1/4 487/1/4
f 487/1/4 486/1/4 488/1/4
f 489/1/4 490/1/4 491/1/4
f 491/1/4 490/1/4 492/1/4
f 498/2/5 494/2/5 493/2/5
f 499/2/5 494/2/5 498/2/5
f 502/2/5 496/2/5 495/2/5
f 503/2/5 496/2/5 502/2/5
f 506/2/5 500/2/5 499/2/5
f 506/2/5 498/2/5 497/2/5
f 506/2/5 499/2/5 498/2/5
f 507/2/5 504/2/5 503/2/5
f 507/2/5 503/2/5 502/2/5
f 507/2/5 502/2/5 501/2/5
f 510/2/5 506/2/5 505/2/5
f 511/2/5 500/2/5 506/2/5
f 511/2/5 506/2/5 510/2/5
f 512/2/5 500/2/5 511/2/5
f 513/2/5 508/2/5 507/2/5
f 513/2/5 507/2/5 501/2/5
f 514/2/5 508/2/5 513/2/5
f 515/2/5 508/2/5 514/2/5
f 517/2/5 510/2/5 509/2/5
f 517/2/5 511/2/5 510/2/5
f 518/2/5 511/2/5 517/2/5
f 519/2/5 516/2/5 515/2/5
f 519/2/5 515/2/5 514/2/5
f 520/2/5 516/2/5 519/2/5
f 521/2/5 517/2/5 509/2/5
f 522/2/5 517/2/5 521/2/5
f 523/2/5 516/2/5 520/2/5
f 524/2/5 516/2/5 523/2/5
f 525/2/5 521/2/5 509/2/5
f 526/2/5 521/2/5 525/2/5
f 527/2/5 521/2/5 526/2/5
f 528/2/5 521/2/5 527/2/5
f 529/2/5 516/2/5 524/2/5
f 530/2/5 516/2/5 529/2/5
f 531/2/5 516/2/5 530/2/5
f 532/2/5 516/2/5 531/2/5
f 533/2/5 527/2/5 526/2/5
f 534/2/5 527/2/5 533/2/5
f 535/2/5 531/2/5 530/2/5
f 536/2/5 531/2/5 535/2/5
f 542/1/5 538/1/5 537/1/5
f 543/1/5 538/1/5 542/1/5
f 544/1/5 538/1/5 543/1/5
f 547/1/5 540/1/5 539/1/5
f 548/1/5 540/1/5 547/1/5
f 549/1/5 540/1/5 548/1/5
f 552/1/5 542/1/5 541/1/5
f 552/1/5 543/1/5 542/1/5
f 553/1/5 543/1/5 552/1/5
f 554/1/5 543/1/5 553/1/5
f 555/1/5 545/1/5 544/1/5
f 556/1/5 545/1/5 555/1/5
f 559/1/5 547/1/5 546/1/5
f 560/1/5 547/1/5 559/1/5
f 561/1/5 549/1/5 548/1/5
f 561/1/5 550/1/5 549/1/5
f 562/1/5 550/1/5 561/1/5
f 563/1/5 550/1/5 562/1/5
f 565/1/5 552/1/5 551/1/5
f 565/1/5 553/1/5 552/1/5
f 566/1/5 553/1/5 565/1/5
f 567/1/5 564/1/5 563/1/5
f 567/1/5 563/1/5 562/1/5
f 568/1/5 564/1/5 567/1/5
f 570/1/5 565/1/5 551/1/5
f 571/1/5 565/1/5 570/1/5
f 573/1/5 557/1/5 556/1/5
f 574/1/5 557/1/5 573/1/5
f 575/1/5 559/1/5 558/1/5
f 576/1/5 559/1/5 575/1/5
f 578/1/5 564/1/5 568/1/5
f 579/1/5 564/1/5 578/1/5
f 582/1/5 573/1/5 572/1/5
f 583/1/5 573/1/5 582/1/5
f 584/1/5 577/1/5 576/1/5
f 585/1/5 577/1/5 584/1/5
f 588/1/5 582/1/5 581/1/5
f 589/1/5 582/1/5 588/1/5
f 590/1/5 586/1/5 585/1/5
f 591/1/5 586/1/5 590/1/5
f 593/1/5 570/1/5 569/1/5
f 594/1/5 570/1/5 593/1/5
f 597/1/5 588/1/5 587/1/5
f 598/1/5 588/1/5 597/1/5
f 599/1/5 592/1/5 591/1/5
f 600/1/5 592/1/5 599/1/5
f 603/1/5 580/1/5 579/1/5
f 604/1/5 580/1/5 603/1/5
f 605/1/5 595/1/5 594/1/5
f 606/1/5 595/1/5 605/1/5
f 607/1/5 597/1/5 596/1/5
f 608/1/5 597/1/5 607/1/5
f 609/1/5 601/1/5 600/1/5
f 610/1/5 601/1/5 609/1/5
f 611/1/5 603/1/5 602/1/5
f 612/1/5 603/1/5 611/1/5
f 613/1/5 607/1/5 606/1/5
f 614/1/5 607/1/5 613/1/5
f 615/1/5 611/1/5 610/1/5
f 616/1/5 611/1/5 615/1/5
f 617/1/6 618/1/6 622/1/6
f 622/1/6 618/1/6 623/1/6
f 619/1/6 620/1/6 626/1/6
f 626/1/6 620/1/6 627/1/6
f 621/1/6 622/1/6 630/1/6
f 630/1/6 622/1/6 631/1/6
f 631/1/6 622/1/6 632/1/6
f 623/1/6 624/1/6 633/1/6
f 633/1/6 624/1/6 634/1/6
f 625/1/6 626/1/6 637/1/6
f 637/1/6 626/1/6 638/1/6
f 627/1/6 628/1/6 639/1/6
f 639/1/6 628/1/6 640/1/6
f 640/1/6 628/1/6 641/1/6
f 629/1/6 630/1/6 643/1/6
f 630/1/6 631/1/6 643/1/6
f 643/1/6 631/1/6 644/1/6
f 641/1/6 642/1/6 645/1/6
f 640/1/6 641/1/6 645/1/6
f 645/1/6 642/1/6 646/1/6
f 629/1/6 643/1/6 648/1/6
f 648/1/6 643/1/6 649/1/6
f 634/1/6 635/1/6 651/1/6
f 651/1/6 635/1/6 652/1/6
f 636/1/6 637/1/6 653/1/6
f 653/1/6 637/1/6 654/1/6
f 646/1/6 642/1/6 656/1/6
f 656/1/6 642/1/6 657/1/6
f 650/1/6 651/1/6 660/1/6
f 660/1/6 651/1/6 661/1/6
f 654/1/6 655/1/6 662/1/6
f 662/1/6 655/1/6 663/1/6
f 659/1/6 660/1/6 666/1/6
f 666/1/6 660/1/6 667/1/6
f 663/1/6 664/1/6 668/1/6
f 668/1/6 664/1/6 669/1/6
f 647/1/6 648/1/6 671/1/6
f 671/1/6 648/1/6 672/1/6
f 665/1/6 666/1/6 675/1/6
f 675/1/6 666/1/6 676/1/6
f 669/1/6 670/1/6 677/1/6
f 677/1/6 670/1/6 678/1/6
f 657/1/6 658/1/6 681/1/6
f 681/1/6 658/1/6 682/1/6
f 672/1/6 673/1/6 683/1/6
f 683/1/6 673/1/6 684/1/6
f 674/1/6 675/1/6 685/1/6
f 685/1/6 675/1/6 686/1/6
f 678/1/6 679/1/6 687/1/6
f 687/1/6 679/1/6 688/1/6
f 680/1/6 681/1/6 689/1/6
f 689/1/6 681/1/6 690/1/6
f 684/1/6 685/1/6 691/1/6
f 691/1/6 685/1/6 692/1/6
f 688/1/6 689/1/6 693/1/6
f 693/1/6 689/1/6 694/1/6
f 695/2/6 696/2/6 700/2/6
f 700/2/6 696/2/6 701/2/6
f 697/2/6 698/2/6 704/2/6
f 704/2/6 698/2/6 705/2/6
f 701/2/6 702/2/6 708/2/6
f 699/2/6 700/2/6 708/2/6
f 700/2/6 701/2/6 708/2/6
f 705/2/6 706/2/6 709/2/6
f 704/2/6 705/2/6 709/2/6
f 703/2/6 704/2/6 709/2/6
f 707/2/6 708/2/6 712/2/6
f 708/2/6 702/2/6 713/2/6
f 712/2/6 708/2/6 713/2/6
f 713/2/6 702/2/6 714/2/6
f 709/2/6 710/2/6 715/2/6
f 703/2/6 709/2/6 715/2/6
f 715/2/6 710/2/6 716/2/6
f 716/2/6 710/2/6 717/2/6
f 711/2/6 712/2/6 719/2/6
f 712/2/6 713/2/6 719/2/6
f 719/2/6 713/2/6 720/2/6
f 717/2/6 718/2/6 721/2/6
f 716/2/6 717/2/6 721/2/6
f 721/2/6 718/2/6 722/2/6
f 711/2/6 719/2/6 723/2/6
f 723/2/6 719/2/6 724/2/6
f 722/2/6 718/2/6 725/2/6
f 725/2/6 718/2/6 726/2/6
f 711/2/6 723/2/6 727/2/6
f 727/2/6 723/2/6 728/2/6
f 728/2/6 723/2/6 729/2/6
f 729/2/6 723/2/6 730/2/6
f 726/2/6 718/2/6 731/2/6
f 731/2/6 718/2/6 732/2/6
f 732/2/6 718/2/6 733/2/6
f 733/2/6 718/2/6 734/2/6
f 728/2/6 729/2/6 735/2/6
f 735/2/6 729/2/6 736/2/6
f 732/2/6 733/2/6 737/2/6
f 737/2/6 733/2/6 738/2/6
