# Blender 5.0.1
# www.blender.org
mtllib CrescentMoon.mtl
o Untitled.001
v -1.800000 0.300000 1.000000
v -1.800000 0.300000 0.600000
v -1.800000 0.700000 1.000000
v -1.800000 0.700000 0.600000
v -1.600000 0.100000 1.000000
v -1.600000 0.100000 0.600000
v -1.600000 0.300000 1.200000
v -1.600000 0.300000 1.000000
v -1.600000 0.300000 0.600000
v -1.600000 0.300000 0.400000
v -1.600000 0.700000 1.200000
v -1.600000 0.700000 1.000000
v -1.600000 0.700000 0.600000
v -1.600000 0.700000 0.400000
v -1.600000 0.900000 1.000000
v -1.600000 0.900000 0.600000
v -1.400000 0.100000 1.200000
v -1.400000 0.100000 1.000000
v -1.400000 0.300000 1.400000
v -1.400000 0.300000 1.200000
v -1.400000 0.300000 1.000000
v -1.400000 0.700000 1.400000
v -1.400000 0.700000 1.200000
v -1.400000 0.700000 1.000000
v -1.400000 0.900000 1.200000
v -1.400000 0.900000 1.000000
v -1.200000 0.100000 1.400000
v -1.200000 0.100000 1.200000
v -1.200000 0.300000 1.600000
v -1.200000 0.300000 1.400000
v -1.200000 0.300000 1.200000
v -1.200000 0.700000 1.600000
v -1.200000 0.700000 1.400000
v -1.200000 0.700000 1.200000
v -1.200000 0.900000 1.400000
v -1.200000 0.900000 1.200000
v -0.800000 0.100000 1.600000
v -0.800000 0.100000 1.400000
v -0.800000 0.300000 1.800000
v -0.800000 0.300000 1.600000
v -0.800000 0.300000 1.400000
v -0.800000 0.700000 1.800000
v -0.800000 0.700000 1.600000
v -0.800000 0.700000 1.400000
v -0.800000 0.900000 1.600000
v -0.800000 0.900000 1.400000
v -0.400000 0.100000 1.800000
v -0.400000 0.100000 1.600000
v -0.400000 0.300000 2.000000
v -0.400000 0.300000 1.800000
v -0.400000 0.300000 1.600000
v -0.400000 0.700000 2.000000
v -0.400000 0.700000 1.800000
v -0.400000 0.700000 1.600000
v -0.400000 0.900000 1.800000
v -0.400000 0.900000 1.600000
v 0.000000 0.100000 1.000000
v 0.000000 0.100000 0.800000
v 0.000000 0.300000 1.000000
v 0.000000 0.300000 0.800000
v 0.000000 0.300000 0.600000
v 0.000000 0.700000 1.000000
v 0.000000 0.700000 0.800000
v 0.000000 0.700000 0.600000
v 0.000000 0.900000 1.000000
v 0.000000 0.900000 0.800000
v 0.200000 0.100000 0.800000
v 0.200000 0.100000 0.600000
v 0.200000 0.300000 0.800000
v 0.200000 0.300000 0.600000
v 0.200000 0.300000 0.400000
v 0.200000 0.700000 0.800000
v 0.200000 0.700000 0.600000
v 0.200000 0.700000 0.400000
v 0.200000 0.900000 0.800000
v 0.200000 0.900000 0.600000
v 0.400000 0.100000 0.600000
v 0.400000 0.100000 0.400000
v 0.400000 0.300000 0.600000
v 0.400000 0.300000 0.400000
v 0.400000 0.300000 0.200000
v 0.400000 0.300000 -1.400000
v 0.400000 0.300000 -1.600000
v 0.400000 0.700000 0.600000
v 0.400000 0.700000 0.400000
v 0.400000 0.700000 0.200000
v 0.400000 0.700000 -1.400000
v 0.400000 0.700000 -1.600000
v 0.400000 0.900000 0.600000
v 0.400000 0.900000 0.400000
v 0.600000 0.100000 0.400000
v 0.600000 0.100000 0.200000
v 0.600000 0.100000 -1.400000
v 0.600000 0.100000 -1.600000
v 0.600000 0.300000 0.400000
v 0.600000 0.300000 0.200000
v 0.600000 0.300000 -0.000000
v 0.600000 0.300000 -0.800000
v 0.600000 0.300000 -1.400000
v 0.600000 0.300000 -1.600000
v 0.600000 0.300000 -1.800000
v 0.600000 0.700000 0.400000
v 0.600000 0.700000 0.200000
v 0.600000 0.700000 -0.000000
v 0.600000 0.700000 -0.800000
v 0.600000 0.700000 -1.400000
v 0.600000 0.700000 -1.600000
v 0.600000 0.700000 -1.800000
v 0.600000 0.900000 0.400000
v 0.600000 0.900000 0.200000
v 0.600000 0.900000 -1.400000
v 0.600000 0.900000 -1.600000
v 0.800000 0.100000 0.200000
v 0.800000 0.100000 -0.000000
v 0.800000 0.100000 -0.800000
v 0.800000 0.100000 -1.400000
v 0.800000 0.300000 0.200000
v 0.800000 0.300000 -0.000000
v 0.800000 0.300000 -0.800000
v 0.800000 0.300000 -1.400000
v 0.800000 0.700000 0.200000
v 0.800000 0.700000 -0.000000
v 0.800000 0.700000 -0.800000
v 0.800000 0.700000 -1.400000
v 0.800000 0.900000 0.200000
v 0.800000 0.900000 -0.000000
v 0.800000 0.900000 -0.800000
v 0.800000 0.900000 -1.400000
v 1.000000 0.100000 -0.000000
v 1.000000 0.100000 -0.800000
v 1.000000 0.300000 -0.000000
v 1.000000 0.300000 -0.800000
v 1.000000 0.700000 -0.000000
v 1.000000 0.700000 -0.800000
v 1.000000 0.900000 -0.000000
v 1.000000 0.900000 -0.800000
v -1.400000 0.100000 0.800000
v -1.400000 0.100000 0.600000
v -1.400000 0.300000 0.800000
v -1.400000 0.300000 0.600000
v -1.400000 0.300000 0.400000
v -1.400000 0.700000 0.800000
v -1.400000 0.700000 0.600000
v -1.400000 0.700000 0.400000
v -1.400000 0.900000 0.800000
v -1.400000 0.900000 0.600000
v -0.800000 0.100000 1.000000
v -0.800000 0.100000 0.800000
v -0.800000 0.300000 1.000000
v -0.800000 0.300000 0.800000
v -0.800000 0.300000 0.600000
v -0.800000 0.700000 1.000000
v -0.800000 0.700000 0.800000
v -0.800000 0.700000 0.600000
v -0.800000 0.900000 1.000000
v -0.800000 0.900000 0.800000
v 0.400000 0.100000 1.800000
v 0.400000 0.100000 1.600000
v 0.400000 0.300000 2.000000
v 0.400000 0.300000 1.800000
v 0.400000 0.300000 1.600000
v 0.400000 0.700000 2.000000
v 0.400000 0.700000 1.800000
v 0.400000 0.700000 1.600000
v 0.400000 0.900000 1.800000
v 0.400000 0.900000 1.600000
v 0.800000 0.100000 1.600000
v 0.800000 0.100000 1.400000
v 0.800000 0.300000 1.800000
v 0.800000 0.300000 1.600000
v 0.800000 0.300000 1.400000
v 0.800000 0.700000 1.800000
v 0.800000 0.700000 1.600000
v 0.800000 0.700000 1.400000
v 0.800000 0.900000 1.600000
v 0.800000 0.900000 1.400000
v 1.000000 0.100000 -1.400000
v 1.000000 0.100000 -1.600000
v 1.000000 0.300000 -1.400000
v 1.000000 0.300000 -1.600000
v 1.000000 0.300000 -1.800000
v 1.000000 0.700000 -1.400000
v 1.000000 0.700000 -1.600000
v 1.000000 0.700000 -1.800000
v 1.000000 0.900000 -1.400000
v 1.000000 0.900000 -1.600000
v 1.200000 0.100000 1.400000
v 1.200000 0.100000 1.200000
v 1.200000 0.100000 -1.200000
v 1.200000 0.100000 -1.400000
v 1.200000 0.300000 1.600000
v 1.200000 0.300000 1.400000
v 1.200000 0.300000 1.200000
v 1.200000 0.300000 -1.200000
v 1.200000 0.300000 -1.400000
v 1.200000 0.300000 -1.600000
v 1.200000 0.700000 1.600000
v 1.200000 0.700000 1.400000
v 1.200000 0.700000 1.200000
v 1.200000 0.700000 -1.200000
v 1.200000 0.700000 -1.400000
v 1.200000 0.700000 -1.600000
v 1.200000 0.900000 1.400000
v 1.200000 0.900000 1.200000
v 1.200000 0.900000 -1.200000
v 1.200000 0.900000 -1.400000
v 1.400000 0.100000 1.200000
v 1.400000 0.100000 0.800000
v 1.400000 0.100000 -0.800000
v 1.400000 0.100000 -1.200000
v 1.400000 0.300000 1.400000
v 1.400000 0.300000 1.200000
v 1.400000 0.300000 0.800000
v 1.400000 0.300000 -0.800000
v 1.400000 0.300000 -1.200000
v 1.400000 0.300000 -1.400000
v 1.400000 0.700000 1.400000
v 1.400000 0.700000 1.200000
v 1.400000 0.700000 0.800000
v 1.400000 0.700000 -0.800000
v 1.400000 0.700000 -1.200000
v 1.400000 0.700000 -1.400000
v 1.400000 0.900000 1.200000
v 1.400000 0.900000 0.800000
v 1.400000 0.900000 -0.800000
v 1.400000 0.900000 -1.200000
v 1.600000 0.100000 0.800000
v 1.600000 0.100000 0.400000
v 1.600000 0.100000 -0.400000
v 1.600000 0.100000 -0.800000
v 1.600000 0.300000 1.200000
v 1.600000 0.300000 0.800000
v 1.600000 0.300000 0.400000
v 1.600000 0.300000 -0.400000
v 1.600000 0.300000 -0.800000
v 1.600000 0.300000 -1.200000
v 1.600000 0.700000 1.200000
v 1.600000 0.700000 0.800000
v 1.600000 0.700000 0.400000
v 1.600000 0.700000 -0.400000
v 1.600000 0.700000 -0.800000
v 1.600000 0.700000 -1.200000
v 1.600000 0.900000 0.800000
v 1.600000 0.900000 0.400000
v 1.600000 0.900000 -0.400000
v 1.600000 0.900000 -0.800000
v 1.800000 0.100000 0.400000
v 1.800000 0.100000 -0.400000
v 1.800000 0.300000 0.800000
v 1.800000 0.300000 0.400000
v 1.800000 0.300000 -0.400000
v 1.800000 0.300000 -0.800000
v 1.800000 0.700000 0.800000
v 1.800000 0.700000 0.400000
v 1.800000 0.700000 -0.400000
v 1.800000 0.700000 -0.800000
v 1.800000 0.900000 0.400000
v 1.800000 0.900000 -0.400000
v 2.000000 0.300000 0.400000
v 2.000000 0.300000 -0.400000
v 2.000000 0.700000 0.400000
v 2.000000 0.700000 -0.400000
v -0.400000 0.300000 2.000000
v -0.400000 0.700000 2.000000
v 0.400000 0.300000 2.000000
v 0.400000 0.700000 2.000000
v -0.800000 0.300000 1.800000
v -0.800000 0.700000 1.800000
v -0.400000 0.100000 1.800000
v -0.400000 0.300000 1.800000
v -0.400000 0.700000 1.800000
v -0.400000 0.900000 1.800000
v 0.400000 0.100000 1.800000
v 0.400000 0.300000 1.800000
v 0.400000 0.700000 1.800000
v 0.400000 0.900000 1.800000
v 0.800000 0.300000 1.800000
v 0.800000 0.700000 1.800000
v -1.200000 0.300000 1.600000
v -1.200000 0.700000 1.600000
v -0.800000 0.100000 1.600000
v -0.800000 0.300000 1.600000
v -0.800000 0.700000 1.600000
v -0.800000 0.900000 1.600000
v -0.400000 0.100000 1.600000
v -0.400000 0.300000 1.600000
v -0.400000 0.700000 1.600000
v -0.400000 0.900000 1.600000
v 0.400000 0.100000 1.600000
v 0.400000 0.300000 1.600000
v 0.400000 0.700000 1.600000
v 0.400000 0.900000 1.600000
v 0.800000 0.100000 1.600000
v 0.800000 0.300000 1.600000
v 0.800000 0.700000 1.600000
v 0.800000 0.900000 1.600000
v 1.200000 0.300000 1.600000
v 1.200000 0.700000 1.600000
v -1.400000 0.300000 1.400000
v -1.400000 0.700000 1.400000
v -1.200000 0.100000 1.400000
v -1.200000 0.300000 1.400000
v -1.200000 0.700000 1.400000
v -1.200000 0.900000 1.400000
v -0.800000 0.100000 1.400000
v -0.800000 0.300000 1.400000
v -0.800000 0.700000 1.400000
v -0.800000 0.900000 1.400000
v 0.800000 0.100000 1.400000
v 0.800000 0.300000 1.400000
v 0.800000 0.700000 1.400000
v 0.800000 0.900000 1.400000
v 1.200000 0.100000 1.400000
v 1.200000 0.300000 1.400000
v 1.200000 0.700000 1.400000
v 1.200000 0.900000 1.400000
v 1.400000 0.300000 1.400000
v 1.400000 0.700000 1.400000
v -1.600000 0.300000 1.200000
v -1.600000 0.700000 1.200000
v -1.400000 0.100000 1.200000
v -1.400000 0.300000 1.200000
v -1.400000 0.700000 1.200000
v -1.400000 0.900000 1.200000
v -1.200000 0.100000 1.200000
v -1.200000 0.300000 1.200000
v -1.200000 0.700000 1.200000
v -1.200000 0.900000 1.200000
v 1.200000 0.100000 1.200000
v 1.200000 0.300000 1.200000
v 1.200000 0.700000 1.200000
v 1.200000 0.900000 1.200000
v 1.400000 0.100000 1.200000
v 1.400000 0.300000 1.200000
v 1.400000 0.700000 1.200000
v 1.400000 0.900000 1.200000
v 1.600000 0.300000 1.200000
v 1.600000 0.700000 1.200000
v -1.800000 0.300000 1.000000
v -1.800000 0.700000 1.000000
v -1.600000 0.100000 1.000000
v -1.600000 0.300000 1.000000
v -1.600000 0.700000 1.000000
v -1.600000 0.900000 1.000000
v -1.400000 0.100000 1.000000
v -1.400000 0.300000 1.000000
v -1.400000 0.700000 1.000000
v -1.400000 0.900000 1.000000
v 1.400000 0.100000 0.800000
v 1.400000 0.300000 0.800000
v 1.400000 0.700000 0.800000
v 1.400000 0.900000 0.800000
v 1.600000 0.100000 0.800000
v 1.600000 0.300000 0.800000
v 1.600000 0.700000 0.800000
v 1.600000 0.900000 0.800000
v 1.800000 0.300000 0.800000
v 1.800000 0.700000 0.800000
v 1.600000 0.100000 0.400000
v 1.600000 0.300000 0.400000
v 1.600000 0.700000 0.400000
v 1.600000 0.900000 0.400000
v 1.800000 0.100000 0.400000
v 1.800000 0.300000 0.400000
v 1.800000 0.700000 0.400000
v 1.800000 0.900000 0.400000
v 2.000000 0.300000 0.400000
v 2.000000 0.700000 0.400000
v 0.600000 0.300000 -0.800000
v 0.600000 0.700000 -0.800000
v 0.800000 0.100000 -0.800000
v 0.800000 0.300000 -0.800000
v 0.800000 0.700000 -0.800000
v 0.800000 0.900000 -0.800000
v 1.000000 0.100000 -0.800000
v 1.000000 0.300000 -0.800000
v 1.000000 0.700000 -0.800000
v 1.000000 0.900000 -0.800000
v 0.400000 0.300000 -1.400000
v 0.400000 0.700000 -1.400000
v 0.600000 0.100000 -1.400000
v 0.600000 0.300000 -1.400000
v 0.600000 0.700000 -1.400000
v 0.600000 0.900000 -1.400000
v 0.800000 0.100000 -1.400000
v 0.800000 0.300000 -1.400000
v 0.800000 0.700000 -1.400000
v 0.800000 0.900000 -1.400000
v -0.800000 0.100000 1.000000
v -0.800000 0.300000 1.000000
v -0.800000 0.700000 1.000000
v -0.800000 0.900000 1.000000
v 0.000000 0.100000 1.000000
v 0.000000 0.300000 1.000000
v 0.000000 0.700000 1.000000
v 0.000000 0.900000 1.000000
v -1.400000 0.100000 0.800000
v -1.400000 0.300000 0.800000
v -1.400000 0.700000 0.800000
v -1.400000 0.900000 0.800000
v -0.800000 0.100000 0.800000
v -0.800000 0.300000 0.800000
v -0.800000 0.700000 0.800000
v -0.800000 0.900000 0.800000
v 0.000000 0.100000 0.800000
v 0.000000 0.300000 0.800000
v 0.000000 0.700000 0.800000
v 0.000000 0.900000 0.800000
v 0.200000 0.100000 0.800000
v 0.200000 0.300000 0.800000
v 0.200000 0.700000 0.800000
v 0.200000 0.900000 0.800000
v -1.800000 0.300000 0.600000
v -1.800000 0.700000 0.600000
v -1.600000 0.100000 0.600000
v -1.600000 0.300000 0.600000
v -1.600000 0.700000 0.600000
v -1.600000 0.900000 0.600000
v -1.400000 0.100000 0.600000
v -1.400000 0.300000 0.600000
v -1.400000 0.700000 0.600000
v -1.400000 0.900000 0.600000
v -0.800000 0.300000 0.600000
v -0.800000 0.700000 0.600000
v 0.000000 0.300000 0.600000
v 0.000000 0.700000 0.600000
v 0.200000 0.100000 0.600000
v 0.200000 0.300000 0.600000
v 0.200000 0.700000 0.600000
v 0.200000 0.900000 0.600000
v 0.400000 0.100000 0.600000
v 0.400000 0.300000 0.600000
v 0.400000 0.700000 0.600000
v 0.400000 0.900000 0.600000
v -1.600000 0.300000 0.400000
v -1.600000 0.700000 0.400000
v -1.400000 0.300000 0.400000
v -1.400000 0.700000 0.400000
v 0.200000 0.300000 0.400000
v 0.200000 0.700000 0.400000
v 0.400000 0.100000 0.400000
v 0.400000 0.300000 0.400000
v 0.400000 0.700000 0.400000
v 0.400000 0.900000 0.400000
v 0.600000 0.100000 0.400000
v 0.600000 0.300000 0.400000
v 0.600000 0.700000 0.400000
v 0.600000 0.900000 0.400000
v 0.400000 0.300000 0.200000
v 0.400000 0.700000 0.200000
v 0.600000 0.100000 0.200000
v 0.600000 0.300000 0.200000
v 0.600000 0.700000 0.200000
v 0.600000 0.900000 0.200000
v 0.800000 0.100000 0.200000
v 0.800000 0.300000 0.200000
v 0.800000 0.700000 0.200000
v 0.800000 0.900000 0.200000
v 0.600000 0.300000 -0.000000
v 0.600000 0.700000 -0.000000
v 0.800000 0.100000 -0.000000
v 0.800000 0.300000 -0.000000
v 0.800000 0.700000 -0.000000
v 0.800000 0.900000 -0.000000
v 1.000000 0.100000 -0.000000
v 1.000000 0.300000 -0.000000
v 1.000000 0.700000 -0.000000
v 1.000000 0.900000 -0.000000
v 1.600000 0.100000 -0.400000
v 1.600000 0.300000 -0.400000
v 1.600000 0.700000 -0.400000
v 1.600000 0.900000 -0.400000
v 1.800000 0.100000 -0.400000
v 1.800000 0.300000 -0.400000
v 1.800000 0.700000 -0.400000
v 1.800000 0.900000 -0.400000
v 2.000000 0.300000 -0.400000
v 2.000000 0.700000 -0.400000
v 1.400000 0.100000 -0.800000
v 1.400000 0.300000 -0.800000
v 1.400000 0.700000 -0.800000
v 1.400000 0.900000 -0.800000
v 1.600000 0.100000 -0.800000
v 1.600000 0.300000 -0.800000
v 1.600000 0.700000 -0.800000
v 1.600000 0.900000 -0.800000
v 1.800000 0.300000 -0.800000
v 1.800000 0.700000 -0.800000
v 1.200000 0.100000 -1.200000
v 1.200000 0.300000 -1.200000
v 1.200000 0.700000 -1.200000
v 1.200000 0.900000 -1.200000
v 1.400000 0.100000 -1.200000
v 1.400000 0.300000 -1.200000
v 1.400000 0.700000 -1.200000
v 1.400000 0.900000 -1.200000
v 1.600000 0.300000 -1.200000
v 1.600000 0.700000 -1.200000
v 1.000000 0.100000 -1.400000
v 1.000000 0.300000 -1.400000
v 1.000000 0.700000 -1.400000
v 1.000000 0.900000 -1.400000
v 1.200000 0.100000 -1.400000
v 1.200000 0.300000 -1.400000
v 1.200000 0.700000 -1.400000
v 1.200000 0.900000 -1.400000
v 1.400000 0.300000 -1.400000
v 1.400000 0.700000 -1.400000
v 0.400000 0.300000 -1.600000
v 0.400000 0.700000 -1.600000
v 0.600000 0.100000 -1.600000
v 0.600000 0.300000 -1.600000
v 0.600000 0.700000 -1.600000
v 0.600000 0.900000 -1.600000
v 1.000000 0.100000 -1.600000
v 1.000000 0.300000 -1.600000
v 1.000000 0.700000 -1.600000
v 1.000000 0.900000 -1.600000
v 1.200000 0.300000 -1.600000
v 1.200000 0.700000 -1.600000
v 0.600000 0.300000 -1.800000
v 0.600000 0.700000 -1.800000
v 1.000000 0.300000 -1.800000
v 1.000000 0.700000 -1.800000
v -0.400000 0.100000 1.800000
v 0.400000 0.100000 1.800000
v -0.800000 0.100000 1.600000
v -0.400000 0.100000 1.600000
v 0.400000 0.100000 1.600000
v 0.800000 0.100000 1.600000
v -1.200000 0.100000 1.400000
v -0.800000 0.100000 1.400000
v 0.800000 0.100000 1.400000
v 1.200000 0.100000 1.400000
v -1.400000 0.100000 1.200000
v -1.200000 0.100000 1.200000
v 1.200000 0.100000 1.200000
v 1.400000 0.100000 1.200000
v -1.600000 0.100000 1.000000
v -1.400000 0.100000 1.000000
v -0.800000 0.100000 1.000000
v 0.000000 0.100000 1.000000
v -1.400000 0.100000 0.800000
v -0.800000 0.100000 0.800000
v 0.000000 0.100000 0.800000
v 0.200000 0.100000 0.800000
v 1.400000 0.100000 0.800000
v 1.600000 0.100000 0.800000
v -1.600000 0.100000 0.600000
v -1.400000 0.100000 0.600000
v 0.200000 0.100000 0.600000
v 0.400000 0.100000 0.600000
v 0.400000 0.100000 0.400000
v 0.600000 0.100000 0.400000
v 1.600000 0.100000 0.400000
v 1.800000 0.100000 0.400000
v 0.600000 0.100000 0.200000
v 0.800000 0.100000 0.200000
v 0.800000 0.100000 -0.000000
v 1.000000 0.100000 -0.000000
v 1.600000 0.100000 -0.400000
v 1.800000 0.100000 -0.400000
v 0.800000 0.100000 -0.800000
v 1.000000 0.100000 -0.800000
v 1.400000 0.100000 -0.800000
v 1.600000 0.100000 -0.800000
v 1.200000 0.100000 -1.200000
v 1.400000 0.100000 -1.200000
v 0.600000 0.100000 -1.400000
v 0.800000 0.100000 -1.400000
v 1.000000 0.100000 -1.400000
v 1.200000 0.100000 -1.400000
v 0.600000 0.100000 -1.600000
v 1.000000 0.100000 -1.600000
v -0.400000 0.300000 2.000000
v 0.400000 0.300000 2.000000
v -0.800000 0.300000 1.800000
v -0.400000 0.300000 1.800000
v 0.400000 0.300000 1.800000
v 0.800000 0.300000 1.800000
v -1.200000 0.300000 1.600000
v -0.800000 0.300000 1.600000
v -0.400000 0.300000 1.600000
v 0.400000 0.300000 1.600000
v 0.800000 0.300000 1.600000
v 1.200000 0.300000 1.600000
v -1.400000 0.300000 1.400000
v -1.200000 0.300000 1.400000
v -0.800000 0.300000 1.400000
v 0.800000 0.300000 1.400000
v 1.200000 0.300000 1.400000
v 1.400000 0.300000 1.400000
v -1.600000 0.300000 1.200000
v -1.400000 0.300000 1.200000
v -1.200000 0.300000 1.200000
v 1.200000 0.300000 1.200000
v 1.400000 0.300000 1.200000
v 1.600000 0.300000 1.200000
v -1.800000 0.300000 1.000000
v -1.600000 0.300000 1.000000
v -1.400000 0.300000 1.000000
v -0.800000 0.300000 1.000000
v 0.000000 0.300000 1.000000
v -1.400000 0.300000 0.800000
v -0.800000 0.300000 0.800000
v 0.000000 0.300000 0.800000
v 0.200000 0.300000 0.800000
v 1.400000 0.300000 0.800000
v 1.600000 0.300000 0.800000
v 1.800000 0.300000 0.800000
v -1.800000 0.300000 0.600000
v -1.600000 0.300000 0.600000
v -1.400000 0.300000 0.600000
v -0.800000 0.300000 0.600000
v 0.000000 0.300000 0.600000
v 0.200000 0.300000 0.600000
v 0.400000 0.300000 0.600000
v -1.600000 0.300000 0.400000
v -1.400000 0.300000 0.400000
v 0.200000 0.300000 0.400000
v 0.400000 0.300000 0.400000
v 0.600000 0.300000 0.400000
v 1.600000 0.300000 0.400000
v 1.800000 0.300000 0.400000
v 2.000000 0.300000 0.400000
v 0.400000 0.300000 0.200000
v 0.600000 0.300000 0.200000
v 0.800000 0.300000 0.200000
v 0.600000 0.300000 -0.000000
v 0.800000 0.300000 -0.000000
v 1.000000 0.300000 -0.000000
v 1.600000 0.300000 -0.400000
v 1.800000 0.300000 -0.400000
v 2.000000 0.300000 -0.400000
v 0.600000 0.300000 -0.800000
v 0.800000 0.300000 -0.800000
v 1.000000 0.300000 -0.800000
v 1.400000 0.300000 -0.800000
v 1.600000 0.300000 -0.800000
v 1.800000 0.300000 -0.800000
v 1.200000 0.300000 -1.200000
v 1.400000 0.300000 -1.200000
v 1.600000 0.300000 -1.200000
v 0.400000 0.300000 -1.400000
v 0.600000 0.300000 -1.400000
v 0.800000 0.300000 -1.400000
v 1.000000 0.300000 -1.400000
v 1.200000 0.300000 -1.400000
v 1.400000 0.300000 -1.400000
v 0.400000 0.300000 -1.600000
v 0.600000 0.300000 -1.600000
v 1.000000 0.300000 -1.600000
v 1.200000 0.300000 -1.600000
v 0.600000 0.300000 -1.800000
v 1.000000 0.300000 -1.800000
v -0.400000 0.700000 2.000000
v 0.400000 0.700000 2.000000
v -0.800000 0.700000 1.800000
v -0.400000 0.700000 1.800000
v 0.400000 0.700000 1.800000
v 0.800000 0.700000 1.800000
v -1.200000 0.700000 1.600000
v -0.800000 0.700000 1.600000
v -0.400000 0.700000 1.600000
v 0.400000 0.700000 1.600000
v 0.800000 0.700000 1.600000
v 1.200000 0.700000 1.600000
v -1.400000 0.700000 1.400000
v -1.200000 0.700000 1.400000
v -0.800000 0.700000 1.400000
v 0.800000 0.700000 1.400000
v 1.200000 0.700000 1.400000
v 1.400000 0.700000 1.400000
v -1.600000 0.700000 1.200000
v -1.400000 0.700000 1.200000
v -1.200000 0.700000 1.200000
v 1.200000 0.700000 1.200000
v 1.400000 0.700000 1.200000
v 1.600000 0.700000 1.200000
v -1.800000 0.700000 1.000000
v -1.600000 0.700000 1.000000
v -1.400000 0.700000 1.000000
v -0.800000 0.700000 1.000000
v 0.000000 0.700000 1.000000
v -1.400000 0.700000 0.800000
v -0.800000 0.700000 0.800000
v 0.000000 0.700000 0.800000
v 0.200000 0.700000 0.800000
v 1.400000 0.700000 0.800000
v 1.600000 0.700000 0.800000
v 1.800000 0.700000 0.800000
v -1.800000 0.700000 0.600000
v -1.600000 0.700000 0.600000
v -1.400000 0.700000 0.600000
v -0.800000 0.700000 0.600000
v 0.000000 0.700000 0.600000
v 0.200000 0.700000 0.600000
v 0.400000 0.700000 0.600000
v -1.600000 0.700000 0.400000
v -1.400000 0.700000 0.400000
v 0.200000 0.700000 0.400000
v 0.400000 0.700000 0.400000
v 0.600000 0.700000 0.400000
v 1.600000 0.700000 0.400000
v 1.800000 0.700000 0.400000
v 2.000000 0.700000 0.400000
v 0.400000 0.700000 0.200000
v 0.600000 0.700000 0.200000
v 0.800000 0.700000 0.200000
v 0.600000 0.700000 -0.000000
v 0.800000 0.700000 -0.000000
v 1.000000 0.700000 -0.000000
v 1.600000 0.700000 -0.400000
v 1.800000 0.700000 -0.400000
v 2.000000 0.700000 -0.400000
v 0.600000 0.700000 -0.800000
v 0.800000 0.700000 -0.800000
v 1.000000 0.700000 -0.800000
v 1.400000 0.700000 -0.800000
v 1.600000 0.700000 -0.800000
v 1.800000 0.700000 -0.800000
v 1.200000 0.700000 -1.200000
v 1.400000 0.700000 -1.200000
v 1.600000 0.700000 -1.200000
v 0.400000 0.700000 -1.400000
v 0.600000 0.700000 -1.400000
v 0.800000 0.700000 -1.400000
v 1.000000 0.700000 -1.400000
v 1.200000 0.700000 -1.400000
v 1.400000 0.700000 -1.400000
v 0.400000 0.700000 -1.600000
v 0.600000 0.700000 -1.600000
v 1.000000 0.700000 -1.600000
v 1.200000 0.700000 -1.600000
v 0.600000 0.700000 -1.800000
v 1.000000 0.700000 -1.800000
v -0.400000 0.900000 1.800000
v 0.400000 0.900000 1.800000
v -0.800000 0.900000 1.600000
v -0.400000 0.900000 1.600000
v 0.400000 0.900000 1.600000
v 0.800000 0.900000 1.600000
v -1.200000 0.900000 1.400000
v -0.800000 0.900000 1.400000
v 0.800000 0.900000 1.400000
v 1.200000 0.900000 1.400000
v -1.400000 0.900000 1.200000
v -1.200000 0.900000 1.200000
v 1.200000 0.900000 1.200000
v 1.400000 0.900000 1.200000
v -1.600000 0.900000 1.000000
v -1.400000 0.900000 1.000000
v -0.800000 0.900000 1.000000
v 0.000000 0.900000 1.000000
v -1.400000 0.900000 0.800000
v -0.800000 0.900000 0.800000
v 0.000000 0.900000 0.800000
v 0.200000 0.900000 0.800000
v 1.400000 0.900000 0.800000
v 1.600000 0.900000 0.800000
v -1.600000 0.900000 0.600000
v -1.400000 0.900000 0.600000
v 0.200000 0.900000 0.600000
v 0.400000 0.900000 0.600000
v 0.400000 0.900000 0.400000
v 0.600000 0.900000 0.400000
v 1.600000 0.900000 0.400000
v 1.800000 0.900000 0.400000
v 0.600000 0.900000 0.200000
v 0.800000 0.900000 0.200000
v 0.800000 0.900000 -0.000000
v 1.000000 0.900000 -0.000000
v 1.600000 0.900000 -0.400000
v 1.800000 0.900000 -0.400000
v 0.800000 0.900000 -0.800000
v 1.000000 0.900000 -0.800000
v 1.400000 0.900000 -0.800000
v 1.600000 0.900000 -0.800000
v 1.200000 0.900000 -1.200000
v 1.400000 0.900000 -1.200000
v 0.600000 0.900000 -1.400000
v 0.800000 0.900000 -1.400000
v 1.000000 0.900000 -1.400000
v 1.200000 0.900000 -1.400000
v 0.600000 0.900000 -1.600000
v 1.000000 0.900000 -1.600000
vn -1.0000 -0.0000 -0.0000
vn 1.0000 -0.0000 -0.0000
vn -0.0000 -0.0000 1.0000
vn -0.0000 -0.0000 -1.0000
vn -0.0000 -1.0000 -0.0000
vn -0.0000 1.0000 -0.0000
vt 0.478516 0.500000
vt 0.482422 0.500000
s 1
usemtl palette.027
f 3/1/1 2/1/1 1/1/1
f 4/1/1 2/1/1 3/1/1
f 8/2/1 6/2/1 5/2/1
f 9/2/1 6/2/1 8/2/1
f 11/1/1 8/1/1 7/1/1
f 12/1/1 8/1/1 11/1/1
f 13/1/1 10/1/1 9/1/1
f 14/1/1 10/1/1 13/1/1
f 15/2/1 13/2/1 12/2/1
f 16/2/1 13/2/1 15/2/1
f 20/2/1 18/2/1 17/2/1
f 21/2/1 18/2/1 20/2/1
f 22/1/1 20/1/1 19/1/1
f 23/1/1 20/1/1 22/1/1
f 25/2/1 24/2/1 23/2/1
f 26/2/1 24/2/1 25/2/1
f 30/2/1 28/2/1 27/2/1
f 31/2/1 28/2/1 30/2/1
f 32/1/1 30/1/1 29/1/1
f 33/1/1 30/1/1 32/1/1
f 35/2/1 34/2/1 33/2/1
f 36/2/1 34/2/1 35/2/1
f 40/2/1 38/2/1 37/2/1
f 41/2/1 38/2/1 40/2/1
f 42/1/1 40/1/1 39/1/1
f 43/1/1 40/1/1 42/1/1
f 45/2/1 44/2/1 43/2/1
f 46/2/1 44/2/1 45/2/1
f 50/2/1 48/2/1 47/2/1
f 51/2/1 48/2/1 50/2/1
f 52/1/1 50/1/1 49/1/1
f 53/1/1 50/1/1 52/1/1
f 55/2/1 54/2/1 53/2/1
f 56/2/1 54/2/1 55/2/1
f 59/2/1 58/2/1 57/2/1
f 60/2/1 58/2/1 59/2/1
f 63/1/1 61/1/1 60/1/1
f 64/1/1 61/1/1 63/1/1
f 65/2/1 63/2/1 62/2/1
f 66/2/1 63/2/1 65/2/1
f 69/2/1 68/2/1 67/2/1
f 70/2/1 68/2/1 69/2/1
f 73/1/1 71/1/1 70/1/1
f 74/1/1 71/1/1 73/1/1
f 75/2/1 73/2/1 72/2/1
f 76/2/1 73/2/1 75/2/1
f 79/2/1 78/2/1 77/2/1
f 80/2/1 78/2/1 79/2/1
f 85/1/1 81/1/1 80/1/1
f 86/1/1 81/1/1 85/1/1
f 87/1/1 83/1/1 82/1/1
f 88/1/1 83/1/1 87/1/1
f 89/2/1 85/2/1 84/2/1
f 90/2/1 85/2/1 89/2/1
f 95/2/1 92/2/1 91/2/1
f 96/2/1 92/2/1 95/2/1
f 99/2/1 94/2/1 93/2/1
f 100/2/1 94/2/1 99/2/1
f 103/1/1 97/1/1 96/1/1
f 104/1/1 97/1/1 103/1/1
f 105/1/1 99/1/1 98/1/1
f 106/1/1 99/1/1 105/1/1
f 107/1/1 101/1/1 100/1/1
f 108/1/1 101/1/1 107/1/1
f 109/2/1 103/2/1 102/2/1
f 110/2/1 103/2/1 109/2/1
f 111/2/1 107/2/1 106/2/1
f 112/2/1 107/2/1 111/2/1
f 117/2/1 114/2/1 113/2/1
f 118/2/1 114/2/1 117/2/1
f 119/2/1 116/2/1 115/2/1
f 120/2/1 116/2/1 119/2/1
f 122/1/1 119/1/1 118/1/1
f 123/1/1 119/1/1 122/1/1
f 125/2/1 122/2/1 121/2/1
f 126/2/1 122/2/1 125/2/1
f 127/2/1 124/2/1 123/2/1
f 128/2/1 124/2/1 127/2/1
f 131/2/1 130/2/1 129/2/1
f 132/2/1 130/2/1 131/2/1
f 135/2/1 134/2/1 133/2/1
f 136/2/1 134/2/1 135/2/1
f 137/2/2 138/2/2 139/2/2
f 139/2/2 138/2/2 140/2/2
f 140/1/2 141/1/2 143/1/2
f 143/1/2 141/1/2 144/1/2
f 142/2/2 143/2/2 145/2/2
f 145/2/2 143/2/2 146/2/2
f 147/2/2 148/2/2 149/2/2
f 149/2/2 148/2/2 150/2/2
f 150/1/2 151/1/2 153/1/2
f 153/1/2 151/1/2 154/1/2
f 152/2/2 153/2/2 155/2/2
f 155/2/2 153/2/2 156/2/2
f 157/2/2 158/2/2 160/2/2
f 160/2/2 158/2/2 161/2/2
f 159/1/2 160/1/2 162/1/2
f 162/1/2 160/1/2 163/1/2
f 163/2/2 164/2/2 165/2/2
f 165/2/2 164/2/2 166/2/2
f 167/2/2 168/2/2 170/2/2
f 170/2/2 168/2/2 171/2/2
f 169/1/2 170/1/2 172/1/2
f 172/1/2 170/1/2 173/1/2
f 173/2/2 174/2/2 175/2/2
f 175/2/2 174/2/2 176/2/2
f 177/2/2 178/2/2 179/2/2
f 179/2/2 178/2/2 180/2/2
f 180/1/2 181/1/2 183/1/2
f 183/1/2 181/1/2 184/1/2
f 182/2/2 183/2/2 185/2/2
f 185/2/2 183/2/2 186/2/2
f 187/2/2 188/2/2 192/2/2
f 192/2/2 188/2/2 193/2/2
f 189/2/2 190/2/2 194/2/2
f 194/2/2 190/2/2 195/2/2
f 191/1/2 192/1/2 197/1/2
f 197/1/2 192/1/2 198/1/2
f 195/1/2 196/1/2 201/1/2
f 201/1/2 196/1/2 202/1/2
f 198/2/2 199/2/2 203/2/2
f 203/2/2 199/2/2 204/2/2
f 200/2/2 201/2/2 205/2/2
f 205/2/2 201/2/2 206/2/2
f 207/2/2 208/2/2 212/2/2
f 212/2/2 208/2/2 213/2/2
f 209/2/2 210/2/2 214/2/2
f 214/2/2 210/2/2 215/2/2
f 211/1/2 212/1/2 217/1/2
f 217/1/2 212/1/2 218/1/2
f 215/1/2 216/1/2 221/1/2
f 221/1/2 216/1/2 222/1/2
f 218/2/2 219/2/2 223/2/2
f 223/2/2 219/2/2 224/2/2
f 220/2/2 221/2/2 225/2/2
f 225/2/2 221/2/2 226/2/2
f 227/2/2 228/2/2 232/2/2
f 232/2/2 228/2/2 233/2/2
f 229/2/2 230/2/2 234/2/2
f 234/2/2 230/2/2 235/2/2
f 231/1/2 232/1/2 237/1/2
f 237/1/2 232/1/2 238/1/2
f 235/1/2 236/1/2 241/1/2
f 241/1/2 236/1/2 242/1/2
f 238/2/2 239/2/2 243/2/2
f 243/2/2 239/2/2 244/2/2
f 240/2/2 241/2/2 245/2/2
f 245/2/2 241/2/2 246/2/2
f 247/2/2 248/2/2 250/2/2
f 250/2/2 248/2/2 251/2/2
f 249/1/2 250/1/2 253/1/2
f 253/1/2 250/1/2 254/1/2
f 251/1/2 252/1/2 255/1/2
f 255/1/2 252/1/2 256/1/2
f 254/2/2 255/2/2 257/2/2
f 257/2/2 255/2/2 258/2/2
f 259/1/2 260/1/2 261/1/2
f 261/1/2 260/1/2 262/1/2
f 265/1/3 264/1/3 263/1/3
f 266/1/3 264/1/3 265/1/3
f 270/1/3 268/1/3 267/1/3
f 271/1/3 268/1/3 270/1/3
f 273/2/3 270/2/3 269/2/3
f 274/2/3 270/2/3 273/2/3
f 275/2/3 272/2/3 271/2/3
f 276/2/3 272/2/3 275/2/3
f 277/1/3 275/1/3 274/1/3
f 278/1/3 275/1/3 277/1/3
f 282/1/3 280/1/3 279/1/3
f 283/1/3 280/1/3 282/1/3
f 285/2/3 282/2/3 281/2/3
f 286/2/3 282/2/3 285/2/3
f 287/2/3 284/2/3 283/2/3
f 288/2/3 284/2/3 287/2/3
f 293/2/3 290/2/3 289/2/3
f 294/2/3 290/2/3 293/2/3
f 295/2/3 292/2/3 291/2/3
f 296/2/3 292/2/3 295/2/3
f 297/1/3 295/1/3 294/1/3
f 298/1/3 295/1/3 297/1/3
f 302/1/3 300/1/3 299/1/3
f 303/1/3 300/1/3 302/1/3
f 305/2/3 302/2/3 301/2/3
f 306/2/3 302/2/3 305/2/3
f 307/2/3 304/2/3 303/2/3
f 308/2/3 304/2/3 307/2/3
f 313/2/3 310/2/3 309/2/3
f 314/2/3 310/2/3 313/2/3
f 315/2/3 312/2/3 311/2/3
f 316/2/3 312/2/3 315/2/3
f 317/1/3 315/1/3 314/1/3
f 318/1/3 315/1/3 317/1/3
f 322/1/3 320/1/3 319/1/3
f 323/1/3 320/1/3 322/1/3
f 325/2/3 322/2/3 321/2/3
f 326/2/3 322/2/3 325/2/3
f 327/2/3 324/2/3 323/2/3
f 328/2/3 324/2/3 327/2/3
f 333/2/3 330/2/3 329/2/3
f 334/2/3 330/2/3 333/2/3
f 335/2/3 332/2/3 331/2/3
f 336/2/3 332/2/3 335/2/3
f 337/1/3 335/1/3 334/1/3
f 338/1/3 335/1/3 337/1/3
f 342/1/3 340/1/3 339/1/3
f 343/1/3 340/1/3 342/1/3
f 345/2/3 342/2/3 341/2/3
f 346/2/3 342/2/3 345/2/3
f 347/2/3 344/2/3 343/2/3
f 348/2/3 344/2/3 347/2/3
f 353/2/3 350/2/3 349/2/3
f 354/2/3 350/2/3 353/2/3
f 355/2/3 352/2/3 351/2/3
f 356/2/3 352/2/3 355/2/3
f 357/1/3 355/1/3 354/1/3
f 358/1/3 355/1/3 357/1/3
f 363/2/3 360/2/3 359/2/3
f 364/2/3 360/2/3 363/2/3
f 365/2/3 362/2/3 361/2/3
f 366/2/3 362/2/3 365/2/3
f 367/1/3 365/1/3 364/1/3
f 368/1/3 365/1/3 367/1/3
f 372/1/3 370/1/3 369/1/3
f 373/1/3 370/1/3 372/1/3
f 375/2/3 372/2/3 371/2/3
f 376/2/3 372/2/3 375/2/3
f 377/2/3 374/2/3 373/2/3
f 378/2/3 374/2/3 377/2/3
f 382/1/3 380/1/3 379/1/3
f 383/1/3 380/1/3 382/1/3
f 385/2/3 382/2/3 381/2/3
f 386/2/3 382/2/3 385/2/3
f 387/2/3 384/2/3 383/2/3
f 388/2/3 384/2/3 387/2/3
f 389/2/4 390/2/4 393/2/4
f 393/2/4 390/2/4 394/2/4
f 391/2/4 392/2/4 395/2/4
f 395/2/4 392/2/4 396/2/4
f 397/2/4 398/2/4 401/2/4
f 401/2/4 398/2/4 402/2/4
f 399/2/4 400/2/4 403/2/4
f 403/2/4 400/2/4 404/2/4
f 402/1/4 403/1/4 406/1/4
f 406/1/4 403/1/4 407/1/4
f 405/2/4 406/2/4 409/2/4
f 409/2/4 406/2/4 410/2/4
f 407/2/4 408/2/4 411/2/4
f 411/2/4 408/2/4 412/2/4
f 413/1/4 414/1/4 416/1/4
f 416/1/4 414/1/4 417/1/4
f 415/2/4 416/2/4 419/2/4
f 419/2/4 416/2/4 420/2/4
f 417/2/4 418/2/4 421/2/4
f 421/2/4 418/2/4 422/2/4
f 420/1/4 421/1/4 423/1/4
f 423/1/4 421/1/4 424/1/4
f 425/1/4 426/1/4 428/1/4
f 428/1/4 426/1/4 429/1/4
f 427/2/4 428/2/4 431/2/4
f 431/2/4 428/2/4 432/2/4
f 429/2/4 430/2/4 433/2/4
f 433/2/4 430/2/4 434/2/4
f 435/1/4 436/1/4 437/1/4
f 437/1/4 436/1/4 438/1/4
f 439/1/4 440/1/4 442/1/4
f 442/1/4 440/1/4 443/1/4
f 441/2/4 442/2/4 445/2/4
f 445/2/4 442/2/4 446/2/4
f 443/2/4 444/2/4 447/2/4
f 447/2/4 444/2/4 448/2/4
f 449/1/4 450/1/4 452/1/4
f 452/1/4 450/1/4 453/1/4
f 451/2/4 452/2/4 455/2/4
f 455/2/4 452/2/4 456/2/4
f 453/2/4 454/2/4 457/2/4
f 457/2/4 454/2/4 458/2/4
f 459/1/4 460/1/4 462/1/4
f 462/1/4 460/1/4 463/1/4
f 461/2/4 462/2/4 465/2/4
f 465/2/4 462/2/4 466/2/4
f 463/2/4 464/2/4 467/2/4
f 467/2/4 464/2/4 468/2/4
f 469/2/4 470/2/4 473/2/4
f 473/2/4 470/2/4 474/2/4
f 471/2/4 472/2/4 475/2/4
f 475/2/4 472/2/4 476/2/4
f 474/1/4 475/1/4 477/1/4
f 477/1/4 475/1/4 478/1/4
f 479/2/4 480/2/4 483/2/4
f 483/2/4 480/2/4 484/2/4
f 481/2/4 482/2/4 485/2/4
f 485/2/4 482/2/4 486/2/4
f 484/1/4 485/1/4 487/1/4
f 487/1/4 485/1/4 488/1/4
f 489/2/4 490/2/4 493/2/4
f 493/2/4 490/2/4 494/2/4
f 491/2/4 492/2/4 495/2/4
f 495/2/4 492/2/4 496/2/4
f 494/1/4 495/1/4 497/1/4
f 497/1/4 495/1/4 498/1/4
f 499/2/4 500/2/4 503/2/4
f 503/2/4 500/2/4 504/2/4
f 501/2/4 502/2/4 505/2/4
f 505/2/4 502/2/4 506/2/4
f 504/1/4 505/1/4 507/1/4
f 507/1/4 505/1/4 508/1/4
f 509/1/4 510/1/4 512/1/4
f 512/1/4 510/1/4 513/1/4
f 511/2/4 512/2/4 515/2/4
f 515/2/4 512/2/4 516/2/4
f 513/2/4 514/2/4 517/2/4
f 517/2/4 514/2/4 518/2/4
f 516/1/4 517/1/4 519/1/4
f 519/1/4 517/1/4 520/1/4
f 521/1/4 522/1/4 523/1/4
f 523/1/4 522/1/4 524/1/4
f 528/2/5 526/2/5 525/2/5
f 529/2/5 526/2/5 528/2/5
f 532/2/5 528/2/5 527/2/5
f 532/2/5 530/2/5 529/2/5
f 532/2/5 529/2/5 528/2/5
f 533/2/5 530/2/5 532/2/5
f 536/2/5 532/2/5 531/2/5
f 536/2/5 534/2/5 533/2/5
f 536/2/5 533/2/5 532/2/5
f 537/2/5 534/2/5 536/2/5
f 540/2/5 536/2/5 535/2/5
f 540/2/5 538/2/5 537/2/5
f 540/2/5 537/2/5 536/2/5
f 541/2/5 538/2/5 540/2/5
f 542/2/5 538/2/5 541/2/5
f 543/2/5 540/2/5 539/2/5
f 543/2/5 541/2/5 540/2/5
f 544/2/5 541/2/5 543/2/5
f 545/2/5 538/2/5 542/2/5
f 546/2/5 538/2/5 545/2/5
f 547/2/5 538/2/5 546/2/5
f 549/2/5 543/2/5 539/2/5
f 550/2/5 543/2/5 549/2/5
f 551/2/5 548/2/5 547/2/5
f 551/2/5 547/2/5 546/2/5
f 552/2/5 548/2/5 551/2/5
f 553/2/5 548/2/5 552/2/5
f 554/2/5 548/2/5 553/2/5
f 555/2/5 548/2/5 554/2/5
f 557/2/5 556/2/5 555/2/5
f 557/2/5 555/2/5 554/2/5
f 558/2/5 556/2/5 557/2/5
f 559/2/5 556/2/5 558/2/5
f 560/2/5 556/2/5 559/2/5
f 561/2/5 556/2/5 560/2/5
f 562/2/5 556/2/5 561/2/5
f 564/2/5 561/2/5 560/2/5
f 565/2/5 561/2/5 564/2/5
f 566/2/5 561/2/5 565/2/5
f 567/2/5 564/2/5 563/2/5
f 567/2/5 565/2/5 564/2/5
f 568/2/5 565/2/5 567/2/5
f 570/2/5 567/2/5 563/2/5
f 571/2/5 567/2/5 570/2/5
f 572/2/5 567/2/5 571/2/5
f 573/2/5 570/2/5 569/2/5
f 573/2/5 571/2/5 570/2/5
f 574/2/5 571/2/5 573/2/5
f 578/1/5 576/1/5 575/1/5
f 579/1/5 576/1/5 578/1/5
f 582/1/5 578/1/5 577/1/5
f 583/1/5 578/1/5 582/1/5
f 584/1/5 580/1/5 579/1/5
f 585/1/5 580/1/5 584/1/5
f 588/1/5 582/1/5 581/1/5
f 589/1/5 582/1/5 588/1/5
f 590/1/5 586/1/5 585/1/5
f 591/1/5 586/1/5 590/1/5
f 594/1/5 588/1/5 587/1/5
f 595/1/5 588/1/5 594/1/5
f 596/1/5 592/1/5 591/1/5
f 597/1/5 592/1/5 596/1/5
f 600/1/5 594/1/5 593/1/5
f 601/1/5 594/1/5 600/1/5
f 605/1/5 603/1/5 602/1/5
f 606/1/5 603/1/5 605/1/5
f 608/1/5 598/1/5 597/1/5
f 609/1/5 598/1/5 608/1/5
f 611/1/5 600/1/5 599/1/5
f 612/1/5 600/1/5 611/1/5
f 613/1/5 605/1/5 604/1/5
f 614/1/5 605/1/5 613/1/5
f 615/1/5 607/1/5 606/1/5
f 616/1/5 607/1/5 615/1/5
f 618/1/5 613/1/5 612/1/5
f 619/1/5 613/1/5 618/1/5
f 620/1/5 617/1/5 616/1/5
f 621/1/5 617/1/5 620/1/5
f 623/1/5 610/1/5 609/1/5
f 624/1/5 610/1/5 623/1/5
f 626/1/5 622/1/5 621/1/5
f 627/1/5 622/1/5 626/1/5
f 629/1/5 628/1/5 627/1/5
f 630/1/5 628/1/5 629/1/5
f 633/1/5 625/1/5 624/1/5
f 634/1/5 625/1/5 633/1/5
f 636/1/5 631/1/5 630/1/5
f 637/1/5 631/1/5 636/1/5
f 639/1/5 633/1/5 632/1/5
f 640/1/5 633/1/5 639/1/5
f 642/1/5 639/1/5 638/1/5
f 643/1/5 639/1/5 642/1/5
f 645/1/5 636/1/5 635/1/5
f 646/1/5 636/1/5 645/1/5
f 648/1/5 642/1/5 641/1/5
f 649/1/5 642/1/5 648/1/5
f 650/1/5 645/1/5 644/1/5
f 651/1/5 645/1/5 650/1/5
f 652/1/5 648/1/5 647/1/5
f 653/1/5 648/1/5 652/1/5
f 654/1/5 652/1/5 651/1/5
f 655/1/5 652/1/5 654/1/5
f 656/1/6 657/1/6 659/1/6
f 659/1/6 657/1/6 660/1/6
f 658/1/6 659/1/6 663/1/6
f 663/1/6 659/1/6 664/1/6
f 660/1/6 661/1/6 665/1/6
f 665/1/6 661/1/6 666/1/6
f 662/1/6 663/1/6 669/1/6
f 669/1/6 663/1/6 670/1/6
f 666/1/6 667/1/6 671/1/6
f 671/1/6 667/1/6 672/1/6
f 668/1/6 669/1/6 675/1/6
f 675/1/6 669/1/6 676/1/6
f 672/1/6 673/1/6 677/1/6
f 677/1/6 673/1/6 678/1/6
f 674/1/6 675/1/6 681/1/6
f 681/1/6 675/1/6 682/1/6
f 683/1/6 684/1/6 686/1/6
f 686/1/6 684/1/6 687/1/6
f 678/1/6 679/1/6 689/1/6
f 689/1/6 679/1/6 690/1/6
f 680/1/6 681/1/6 692/1/6
f 692/1/6 681/1/6 693/1/6
f 685/1/6 686/1/6 694/1/6
f 694/1/6 686/1/6 695/1/6
f 687/1/6 688/1/6 696/1/6
f 696/1/6 688/1/6 697/1/6
f 693/1/6 694/1/6 699/1/6
f 699/1/6 694/1/6 700/1/6
f 697/1/6 698/1/6 701/1/6
f 701/1/6 698/1/6 702/1/6
f 690/1/6 691/1/6 704/1/6
f 704/1/6 691/1/6 705/1/6
f 702/1/6 703/1/6 707/1/6
f 707/1/6 703/1/6 708/1/6
f 708/1/6 709/1/6 710/1/6
f 710/1/6 709/1/6 711/1/6
f 705/1/6 706/1/6 714/1/6
f 714/1/6 706/1/6 715/1/6
f 711/1/6 712/1/6 717/1/6
f 717/1/6 712/1/6 718/1/6
f 713/1/6 714/1/6 720/1/6
f 720/1/6 714/1/6 721/1/6
f 719/1/6 720/1/6 723/1/6
f 723/1/6 720/1/6 724/1/6
f 716/1/6 717/1/6 726/1/6
f 726/1/6 717/1/6 727/1/6
f 722/1/6 723/1/6 729/1/6
f 729/1/6 723/1/6 730/1/6
f 725/1/6 726/1/6 731/1/6
f 731/1/6 726/1/6 732/1/6
f 728/1/6 729/1/6 733/1/6
f 733/1/6 729/1/6 734/1/6
f 732/1/6 733/1/6 735/1/6
f 735/1/6 733/1/6 736/1/6
f 737/2/6 738/2/6 740/2/6
f 740/2/6 738/2/6 741/2/6
f 739/2/6 740/2/6 744/2/6
f 741/2/6 742/2/6 744/2/6
f 740/2/6 741/2/6 744/2/6
f 744/2/6 742/2/6 745/2/6
f 743/2/6 744/2/6 748/2/6
f 745/2/6 746/2/6 748/2/6
f 744/2/6 745/2/6 748/2/6
f 748/2/6 746/2/6 749/2/6
f 747/2/6 748/2/6 752/2/6
f 749/2/6 750/2/6 752/2/6
f 748/2/6 749/2/6 752/2/6
f 752/2/6 750/2/6 753/2/6
f 753/2/6 750/2/6 754/2/6
f 751/2/6 752/2/6 755/2/6
f 752/2/6 753/2/6 755/2/6
f 755/2/6 753/2/6 756/2/6
f 754/2/6 750/2/6 757/2/6
f 757/2/6 750/2/6 758/2/6
f 758/2/6 750/2/6 759/2/6
f 751/2/6 755/2/6 761/2/6
f 761/2/6 755/2/6 762/2/6
f 759/2/6 760/2/6 763/2/6
f 758/2/6 759/2/6 763/2/6
f 763/2/6 760/2/6 764/2/6
f 764/2/6 760/2/6 765/2/6
f 765/2/6 760/2/6 766/2/6
f 766/2/6 760/2/6 767/2/6
f 767/2/6 768/2/6 769/2/6
f 766/2/6 767/2/6 769/2/6
f 769/2/6 768/2/6 770/2/6
f 770/2/6 768/2/6 771/2/6
f 771/2/6 768/2/6 772/2/6
f 772/2/6 768/2/6 773/2/6
f 773/2/6 768/2/6 774/2/6
f 772/2/6 773/2/6 776/2/6
f 776/2/6 773/2/6 777/2/6
f 777/2/6 773/2/6 778/2/6
f 775/2/6 776/2/6 779/2/6
f 776/2/6 777/2/6 779/2/6
f 779/2/6 777/2/6 780/2/6
f 775/2/6 779/2/6 782/2/6
f 782/2/6 779/2/6 783/2/6
f 783/2/6 779/2/6 784/2/6
f 781/2/6 782/2/6 785/2/6
f 782/2/6 783/2/6 785/2/6
f 785/2/6 783/2/6 786/2/6
