# Blender 5.0.1
# www.blender.org
mtllib Shuriken.mtl
o Untitled.001
v -2.794349 0.460000 -0.003345
v -2.747762 0.460000 -0.177212
v -2.794349 0.820000 -0.003345
v -2.747762 0.820000 -0.177212
v -2.620483 0.280000 0.043243
v -2.573895 0.280000 -0.130624
v -2.620483 0.460000 0.043243
v -2.573895 0.460000 -0.130624
v -2.527308 0.460000 -0.304491
v -2.620483 0.820000 0.043243
v -2.573895 0.820000 -0.130624
v -2.527308 0.820000 -0.304491
v -2.620483 1.000000 0.043243
v -2.573895 1.000000 -0.130624
v -2.493203 0.460000 0.263697
v -2.446616 0.460000 0.089830
v -2.493203 0.820000 0.263697
v -2.446616 0.820000 0.089830
v -2.179575 0.460000 -0.211316
v -2.132987 0.460000 -0.385183
v -2.179575 0.820000 -0.211316
v -2.132987 0.820000 -0.385183
v -2.052295 0.280000 0.009138
v -2.005708 0.280000 -0.164728
v -2.052295 0.460000 0.009138
v -2.005708 0.460000 -0.164728
v -1.959121 0.460000 -0.338595
v -1.912533 0.460000 -0.512462
v -2.052295 0.820000 0.009138
v -2.005708 0.820000 -0.164728
v -1.959121 0.820000 -0.338595
v -1.912533 0.820000 -0.512462
v -2.052295 1.000000 0.009138
v -2.005708 1.000000 -0.164728
v -1.831841 0.280000 -0.118141
v -1.785254 0.280000 -0.292008
v -1.831841 0.460000 -0.118141
v -1.785254 0.460000 -0.292008
v -1.831841 0.820000 -0.118141
v -1.785254 0.820000 -0.292008
v -1.831841 1.000000 -0.118141
v -1.785254 1.000000 -0.292008
v -1.564800 0.460000 -0.419287
v -1.518212 0.460000 -0.593154
v -1.564800 0.820000 -0.419287
v -1.518212 0.820000 -0.593154
v -1.437521 0.280000 -0.198833
v -1.390933 0.280000 -0.372699
v -1.437521 0.460000 -0.198833
v -1.390933 0.460000 -0.372699
v -1.344346 0.460000 -0.546566
v -1.297758 0.460000 -0.720433
v -1.437521 0.820000 -0.198833
v -1.390933 0.820000 -0.372699
v -1.344346 0.820000 -0.546566
v -1.297758 0.820000 -0.720433
v -1.437521 1.000000 -0.198833
v -1.390933 1.000000 -0.372699
v -1.217067 0.280000 -0.326112
v -1.170479 0.280000 -0.499979
v -1.217067 0.460000 -0.326112
v -1.170479 0.460000 -0.499979
v -1.123892 0.460000 -0.673845
v -1.077304 0.460000 -0.847712
v -1.217067 0.820000 -0.326112
v -1.170479 0.820000 -0.499979
v -1.123892 0.820000 -0.673845
v -1.077304 0.820000 -0.847712
v -1.217067 1.000000 -0.326112
v -1.170479 1.000000 -0.499979
v -0.996612 0.280000 -0.453391
v -0.950025 0.280000 -0.627258
v -0.996612 0.460000 -0.453391
v -0.950025 0.460000 -0.627258
v -0.903438 0.460000 -0.801125
v -0.856850 0.460000 -0.974991
v -0.996612 0.820000 -0.453391
v -0.950025 0.820000 -0.627258
v -0.903438 0.820000 -0.801125
v -0.856850 0.820000 -0.974991
v -0.996612 1.000000 -0.453391
v -0.950025 1.000000 -0.627258
v -0.776158 0.280000 -0.580670
v -0.729571 0.280000 -0.754537
v -0.776158 0.460000 -0.580670
v -0.729571 0.460000 -0.754537
v -0.682984 0.460000 -0.928404
v -0.263697 0.460000 -2.493203
v -0.776158 0.820000 -0.580670
v -0.729571 0.820000 -0.754537
v -0.682984 0.820000 -0.928404
v -0.263697 0.820000 -2.493203
v -0.776158 1.000000 -0.580670
v -0.729571 1.000000 -0.754537
v -0.555704 0.280000 -0.707950
v -0.043243 0.280000 -2.620483
v -0.974991 0.460000 0.856850
v -0.928404 0.460000 0.682983
v -0.555704 0.460000 -0.707950
v -0.089830 0.460000 -2.446616
v -0.043243 0.460000 -2.620483
v 0.003345 0.460000 -2.794349
v -0.974991 0.820000 0.856850
v -0.928404 0.820000 0.682983
v -0.555704 0.820000 -0.707950
v -0.089830 0.820000 -2.446616
v -0.043243 0.820000 -2.620483
v 0.003345 0.820000 -2.794349
v -0.555704 1.000000 -0.707950
v -0.043243 1.000000 -2.620483
v -0.754537 0.280000 0.729571
v -0.707950 0.280000 0.555704
v -0.847712 0.460000 1.077304
v -0.801125 0.460000 0.903438
v -0.754537 0.460000 0.729571
v -0.707950 0.460000 0.555704
v -0.847712 0.820000 1.077304
v -0.801125 0.820000 0.903438
v -0.754537 0.820000 0.729571
v -0.707950 0.820000 0.555704
v -0.754537 1.000000 0.729571
v -0.707950 1.000000 0.555704
v -0.627258 0.280000 0.950025
v -0.580670 0.280000 0.776158
v -0.720433 0.460000 1.297758
v -0.673845 0.460000 1.123892
v -0.627258 0.460000 0.950025
v -0.580670 0.460000 0.776158
v -0.720433 0.820000 1.297758
v -0.673845 0.820000 1.123892
v -0.627258 0.820000 0.950025
v -0.580670 0.820000 0.776158
v -0.627258 1.000000 0.950025
v -0.580670 1.000000 0.776158
v -0.499979 0.280000 1.170479
v -0.453391 0.280000 0.996612
v -0.593153 0.460000 1.518212
v -0.546566 0.460000 1.344346
v -0.499979 0.460000 1.170479
v -0.453391 0.460000 0.996612
v -0.593153 0.820000 1.518212
v -0.546566 0.820000 1.344346
v -0.499979 0.820000 1.170479
v -0.453391 0.820000 0.996612
v -0.499979 1.000000 1.170479
v -0.453391 1.000000 0.996612
v -0.372699 0.280000 1.390933
v -0.326112 0.280000 1.217067
v -0.512462 0.460000 1.912533
v -0.419287 0.460000 1.564800
v -0.372699 0.460000 1.390933
v -0.326112 0.460000 1.217067
v -0.512462 0.820000 1.912533
v -0.419287 0.820000 1.564800
v -0.372699 0.820000 1.390933
v -0.326112 0.820000 1.217066
v -0.372699 1.000000 1.390933
v -0.326112 1.000000 1.217066
v -0.292008 0.280000 1.785254
v -0.198833 0.280000 1.437521
v -0.385182 0.460000 2.132987
v -0.338595 0.460000 1.959120
v -0.292008 0.460000 1.785254
v -0.198833 0.460000 1.437521
v 0.034104 0.460000 0.568187
v 0.080692 0.460000 0.394321
v 0.267042 0.460000 -0.301146
v 0.313629 0.460000 -0.475013
v -0.385182 0.820000 2.132987
v -0.338595 0.820000 1.959120
v -0.292008 0.820000 1.785254
v -0.198833 0.820000 1.437521
v 0.034104 0.820000 0.568187
v 0.080692 0.820000 0.394321
v 0.267042 0.820000 -0.301146
v 0.313629 0.820000 -0.475013
v -0.292008 1.000000 1.785254
v -0.198833 1.000000 1.437521
v -0.164728 0.280000 2.005708
v -0.118141 0.280000 1.831841
v 0.161384 0.280000 0.788641
v 0.207971 0.280000 0.614775
v 0.487496 0.280000 -0.428425
v 0.534083 0.280000 -0.602292
v -0.304491 0.460000 2.527308
v -0.211316 0.460000 2.179574
v -0.164728 0.460000 2.005708
v -0.118141 0.460000 1.831841
v 0.161384 0.460000 0.788641
v 0.207971 0.460000 0.614775
v 0.254558 0.460000 0.440908
v 0.301146 0.460000 0.267041
v 0.394321 0.460000 -0.080692
v 0.440908 0.460000 -0.254559
v 0.487496 0.460000 -0.428425
v 0.534083 0.460000 -0.602292
v -0.304491 0.820000 2.527308
v -0.211316 0.820000 2.179574
v -0.164728 0.820000 2.005708
v -0.118141 0.820000 1.831841
v 0.161384 0.820000 0.788641
v 0.207971 0.820000 0.614775
v 0.254558 0.820000 0.440908
v 0.301146 0.820000 0.267041
v 0.394321 0.820000 -0.080692
v 0.440908 0.820000 -0.254559
v 0.487496 0.820000 -0.428425
v 0.534083 0.820000 -0.602292
v -0.164728 1.000000 2.005708
v -0.118141 1.000000 1.831841
v 0.161384 1.000000 0.788641
v 0.207971 1.000000 0.614775
v 0.487496 1.000000 -0.428425
v 0.534083 1.000000 -0.602292
v -0.130624 0.280000 2.573895
v 0.009138 0.280000 2.052295
v 0.381838 0.280000 0.661362
v 0.428425 0.280000 0.487496
v 0.614775 0.280000 -0.207971
v 0.661362 0.280000 -0.381838
v -0.177211 0.460000 2.747762
v -0.130624 0.460000 2.573895
v 0.009138 0.460000 2.052295
v 0.381838 0.460000 0.661362
v 0.428425 0.460000 0.487496
v 0.475013 0.460000 0.313629
v 0.568187 0.460000 -0.034104
v 0.614775 0.460000 -0.207971
v 0.661362 0.460000 -0.381838
v -0.177211 0.820000 2.747762
v -0.130624 0.820000 2.573895
v 0.009138 0.820000 2.052295
v 0.381838 0.820000 0.661362
v 0.428425 0.820000 0.487495
v 0.475013 0.820000 0.313629
v 0.568187 0.820000 -0.034104
v 0.614775 0.820000 -0.207971
v 0.661362 0.820000 -0.381838
v -0.130624 1.000000 2.573895
v 0.009138 1.000000 2.052295
v 0.381838 1.000000 0.661362
v 0.428425 1.000000 0.487495
v 0.614775 1.000000 -0.207971
v 0.661362 1.000000 -0.381838
v 0.602292 0.280000 0.534083
v 0.788641 0.280000 -0.161384
v 0.602292 0.460000 0.534083
v 0.788641 0.460000 -0.161384
v 0.602292 0.820000 0.534083
v 0.788641 0.820000 -0.161384
v 0.602292 1.000000 0.534083
v 0.788641 1.000000 -0.161384
v -0.788641 0.280000 0.161384
v -0.602292 0.280000 -0.534083
v -0.788641 0.460000 0.161384
v -0.602292 0.460000 -0.534083
v -0.788641 0.820000 0.161384
v -0.602292 0.820000 -0.534083
v -0.788641 1.000000 0.161383
v -0.602292 1.000000 -0.534083
v -0.661362 0.280000 0.381838
v -0.614775 0.280000 0.207971
v -0.428425 0.280000 -0.487496
v -0.381838 0.280000 -0.661362
v -0.009138 0.280000 -2.052295
v 0.130624 0.280000 -2.573895
v -0.661362 0.460000 0.381838
v -0.614775 0.460000 0.207971
v -0.568187 0.460000 0.034104
v -0.475013 0.460000 -0.313629
v -0.428425 0.460000 -0.487496
v -0.381838 0.460000 -0.661362
v -0.009138 0.460000 -2.052295
v 0.130624 0.460000 -2.573895
v 0.177211 0.460000 -2.747762
v -0.661362 0.820000 0.381838
v -0.614775 0.820000 0.207971
v -0.568187 0.820000 0.034104
v -0.475013 0.820000 -0.313629
v -0.428425 0.820000 -0.487496
v -0.381838 0.820000 -0.661362
v -0.009138 0.820000 -2.052295
v 0.130624 0.820000 -2.573895
v 0.177211 0.820000 -2.747762
v -0.661362 1.000000 0.381838
v -0.614775 1.000000 0.207971
v -0.428425 1.000000 -0.487496
v -0.381838 1.000000 -0.661362
v -0.009138 1.000000 -2.052295
v 0.130624 1.000000 -2.573895
v -0.534083 0.280000 0.602292
v -0.487496 0.280000 0.428425
v -0.207971 0.280000 -0.614775
v -0.161384 0.280000 -0.788641
v 0.118141 0.280000 -1.831841
v 0.164728 0.280000 -2.005708
v -0.534083 0.460000 0.602292
v -0.487496 0.460000 0.428425
v -0.440908 0.460000 0.254558
v -0.394321 0.460000 0.080692
v -0.301146 0.460000 -0.267042
v -0.254558 0.460000 -0.440908
v -0.207971 0.460000 -0.614775
v -0.161384 0.460000 -0.788641
v 0.118141 0.460000 -1.831841
v 0.164728 0.460000 -2.005708
v 0.211316 0.460000 -2.179575
v 0.304491 0.460000 -2.527308
v -0.534083 0.820000 0.602292
v -0.487496 0.820000 0.428425
v -0.440908 0.820000 0.254558
v -0.394321 0.820000 0.080692
v -0.301146 0.820000 -0.267042
v -0.254558 0.820000 -0.440908
v -0.207971 0.820000 -0.614775
v -0.161384 0.820000 -0.788642
v 0.118141 0.820000 -1.831841
v 0.164728 0.820000 -2.005708
v 0.211316 0.820000 -2.179575
v 0.304491 0.820000 -2.527308
v -0.534083 1.000000 0.602292
v -0.487496 1.000000 0.428425
v -0.207971 1.000000 -0.614775
v -0.161384 1.000000 -0.788642
v 0.118141 1.000000 -1.831841
v 0.164728 1.000000 -2.005708
v 0.198833 0.280000 -1.437521
v 0.292008 0.280000 -1.785254
v -0.313629 0.460000 0.475012
v -0.267041 0.460000 0.301146
v -0.080692 0.460000 -0.394321
v -0.034104 0.460000 -0.568187
v 0.198833 0.460000 -1.437521
v 0.292008 0.460000 -1.785254
v 0.338595 0.460000 -1.959121
v 0.385182 0.460000 -2.132987
v -0.313629 0.820000 0.475012
v -0.267041 0.820000 0.301146
v -0.080692 0.820000 -0.394321
v -0.034104 0.820000 -0.568187
v 0.198833 0.820000 -1.437521
v 0.292008 0.820000 -1.785254
v 0.338595 0.820000 -1.959121
v 0.385182 0.820000 -2.132987
v 0.198833 1.000000 -1.437521
v 0.292008 1.000000 -1.785254
v 0.326112 0.280000 -1.217067
v 0.372699 0.280000 -1.390933
v 0.326112 0.460000 -1.217067
v 0.372699 0.460000 -1.390933
v 0.419287 0.460000 -1.564800
v 0.512462 0.460000 -1.912533
v 0.326112 0.820000 -1.217067
v 0.372699 0.820000 -1.390933
v 0.419287 0.820000 -1.564800
v 0.512462 0.820000 -1.912533
v 0.326112 1.000000 -1.217067
v 0.372699 1.000000 -1.390933
v 0.453391 0.280000 -0.996612
v 0.499979 0.280000 -1.170479
v 0.453391 0.460000 -0.996613
v 0.499979 0.460000 -1.170479
v 0.546566 0.460000 -1.344346
v 0.593153 0.460000 -1.518212
v 0.453391 0.820000 -0.996613
v 0.499979 0.820000 -1.170479
v 0.546566 0.820000 -1.344346
v 0.593153 0.820000 -1.518212
v 0.453391 1.000000 -0.996613
v 0.499979 1.000000 -1.170479
v 0.580670 0.280000 -0.776158
v 0.627258 0.280000 -0.950025
v 0.580670 0.460000 -0.776158
v 0.627258 0.460000 -0.950025
v 0.673845 0.460000 -1.123892
v 0.720433 0.460000 -1.297758
v 0.580670 0.820000 -0.776158
v 0.627258 0.820000 -0.950025
v 0.673845 0.820000 -1.123892
v 0.720433 0.820000 -1.297758
v 0.580670 1.000000 -0.776158
v 0.627258 1.000000 -0.950025
v 0.707950 0.280000 -0.555704
v 0.754537 0.280000 -0.729571
v 0.707950 0.460000 -0.555704
v 0.754537 0.460000 -0.729571
v 0.801125 0.460000 -0.903438
v 0.847712 0.460000 -1.077304
v 0.707950 0.820000 -0.555704
v 0.754537 0.820000 -0.729571
v 0.801125 0.820000 -0.903438
v 0.847712 0.820000 -1.077304
v 0.707950 1.000000 -0.555704
v 0.754537 1.000000 -0.729571
v 0.043243 0.280000 2.620483
v 0.555704 0.280000 0.707950
v -0.003345 0.460000 2.794349
v 0.043243 0.460000 2.620483
v 0.089830 0.460000 2.446616
v 0.555704 0.460000 0.707950
v 0.928404 0.460000 -0.682984
v 0.974991 0.460000 -0.856850
v -0.003345 0.820000 2.794349
v 0.043243 0.820000 2.620483
v 0.089830 0.820000 2.446616
v 0.555704 0.820000 0.707950
v 0.928404 0.820000 -0.682984
v 0.974991 0.820000 -0.856850
v 0.043243 1.000000 2.620483
v 0.555704 1.000000 0.707950
v 0.729571 0.280000 0.754537
v 0.776158 0.280000 0.580670
v 0.263697 0.460000 2.493203
v 0.682984 0.460000 0.928404
v 0.729571 0.460000 0.754537
v 0.776158 0.460000 0.580670
v 0.263697 0.820000 2.493203
v 0.682984 0.820000 0.928404
v 0.729571 0.820000 0.754537
v 0.776158 0.820000 0.580670
v 0.729571 1.000000 0.754537
v 0.776158 1.000000 0.580670
v 0.950025 0.280000 0.627258
v 0.996612 0.280000 0.453391
v 0.856850 0.460000 0.974991
v 0.903438 0.460000 0.801124
v 0.950025 0.460000 0.627258
v 0.996612 0.460000 0.453391
v 0.856850 0.820000 0.974991
v 0.903438 0.820000 0.801124
v 0.950025 0.820000 0.627258
v 0.996612 0.820000 0.453391
v 0.950025 1.000000 0.627258
v 0.996612 1.000000 0.453391
v 1.170479 0.280000 0.499979
v 1.217067 0.280000 0.326112
v 1.077304 0.460000 0.847712
v 1.123892 0.460000 0.673845
v 1.170479 0.460000 0.499979
v 1.217067 0.460000 0.326112
v 1.077304 0.820000 0.847712
v 1.123892 0.820000 0.673845
v 1.170479 0.820000 0.499979
v 1.217067 0.820000 0.326112
v 1.170479 1.000000 0.499979
v 1.217067 1.000000 0.326112
v 1.390933 0.280000 0.372699
v 1.437521 0.280000 0.198833
v 1.297758 0.460000 0.720433
v 1.344346 0.460000 0.546566
v 1.390933 0.460000 0.372699
v 1.437521 0.460000 0.198833
v 1.297758 0.820000 0.720433
v 1.344346 0.820000 0.546566
v 1.390933 0.820000 0.372699
v 1.437521 0.820000 0.198833
v 1.390933 1.000000 0.372699
v 1.437521 1.000000 0.198833
v 1.518212 0.460000 0.593153
v 1.564800 0.460000 0.419287
v 1.518212 0.820000 0.593153
v 1.564800 0.820000 0.419287
v 1.785254 0.280000 0.292008
v 1.831841 0.280000 0.118141
v 1.785254 0.460000 0.292008
v 1.831841 0.460000 0.118141
v 1.785254 0.820000 0.292008
v 1.831841 0.820000 0.118141
v 1.785254 1.000000 0.292008
v 1.831841 1.000000 0.118141
v 2.005708 0.280000 0.164728
v 2.052295 0.280000 -0.009138
v 1.912533 0.460000 0.512462
v 1.959121 0.460000 0.338595
v 2.005708 0.460000 0.164728
v 2.052295 0.460000 -0.009138
v 1.912533 0.820000 0.512462
v 1.959121 0.820000 0.338595
v 2.005708 0.820000 0.164728
v 2.052295 0.820000 -0.009138
v 2.005708 1.000000 0.164728
v 2.052295 1.000000 -0.009138
v 2.132987 0.460000 0.385182
v 2.179575 0.460000 0.211316
v 2.132987 0.820000 0.385182
v 2.179575 0.820000 0.211316
v 2.446616 0.460000 -0.089830
v 2.493203 0.460000 -0.263697
v 2.446616 0.820000 -0.089830
v 2.493203 0.820000 -0.263697
v 2.573895 0.280000 0.130624
v 2.620483 0.280000 -0.043243
v 2.527308 0.460000 0.304491
v 2.573895 0.460000 0.130624
v 2.620483 0.460000 -0.043243
v 2.527308 0.820000 0.304491
v 2.573895 0.820000 0.130624
v 2.620483 0.820000 -0.043243
v 2.573895 1.000000 0.130624
v 2.620483 1.000000 -0.043243
v 2.747762 0.460000 0.177211
v 2.794349 0.460000 0.003345
v 2.747762 0.820000 0.177211
v 2.794349 0.820000 0.003345
v -0.177211 0.460000 2.747762
v -0.177211 0.820000 2.747762
v -0.003345 0.460000 2.794349
v -0.003345 0.820000 2.794349
v -0.304491 0.460000 2.527308
v -0.304491 0.820000 2.527308
v -0.130624 0.280000 2.573895
v -0.130624 0.460000 2.573895
v -0.130624 0.820000 2.573895
v -0.130624 1.000000 2.573895
v 0.043243 0.280000 2.620483
v 0.043243 0.460000 2.620483
v 0.043243 0.820000 2.620483
v 0.043243 1.000000 2.620483
v 0.089830 0.460000 2.446616
v 0.089830 0.820000 2.446616
v 0.263697 0.460000 2.493203
v 0.263697 0.820000 2.493203
v -0.385182 0.460000 2.132987
v -0.385182 0.820000 2.132987
v -0.211316 0.460000 2.179574
v -0.211316 0.820000 2.179574
v -0.512462 0.460000 1.912533
v -0.512462 0.820000 1.912533
v -0.338595 0.460000 1.959120
v -0.338595 0.820000 1.959120
v -0.164728 0.280000 2.005708
v -0.164728 0.460000 2.005708
v -0.164728 0.820000 2.005708
v -0.164728 1.000000 2.005708
v 0.009138 0.280000 2.052295
v 0.009138 0.460000 2.052295
v 0.009138 0.820000 2.052295
v 0.009138 1.000000 2.052295
v -0.292008 0.280000 1.785254
v -0.292008 0.460000 1.785254
v -0.292008 0.820000 1.785254
v -0.292008 1.000000 1.785254
v -0.118141 0.280000 1.831841
v -0.118141 0.460000 1.831841
v -0.118141 0.820000 1.831841
v -0.118141 1.000000 1.831841
v -0.593153 0.460000 1.518212
v -0.593153 0.820000 1.518212
v -0.419287 0.460000 1.564800
v -0.419287 0.820000 1.564800
v -0.720433 0.460000 1.297758
v -0.720433 0.820000 1.297758
v -0.546566 0.460000 1.344346
v -0.546566 0.820000 1.344346
v -0.372699 0.280000 1.390933
v -0.372699 0.460000 1.390933
v -0.372699 0.820000 1.390933
v -0.372699 1.000000 1.390933
v -0.198833 0.280000 1.437521
v -0.198833 0.460000 1.437521
v -0.198833 0.820000 1.437521
v -0.198833 1.000000 1.437521
v -0.847712 0.460000 1.077304
v -0.847712 0.820000 1.077304
v -0.673845 0.460000 1.123892
v -0.673845 0.820000 1.123892
v -0.499979 0.280000 1.170479
v -0.499979 0.460000 1.170479
v -0.499979 0.820000 1.170479
v -0.499979 1.000000 1.170479
v -0.326112 0.280000 1.217067
v -0.326112 0.460000 1.217067
v -0.326112 0.820000 1.217066
v -0.326112 1.000000 1.217066
v -0.974991 0.460000 0.856850
v -0.974991 0.820000 0.856850
v -0.801125 0.460000 0.903438
v -0.801125 0.820000 0.903438
v -0.627258 0.280000 0.950025
v -0.627258 0.460000 0.950025
v -0.627258 0.820000 0.950025
v -0.627258 1.000000 0.950025
v -0.453391 0.280000 0.996612
v -0.453391 0.460000 0.996612
v -0.453391 0.820000 0.996612
v -0.453391 1.000000 0.996612
v -2.493203 0.460000 0.263697
v -2.493203 0.820000 0.263697
v -0.928404 0.460000 0.682983
v -0.928404 0.820000 0.682983
v -0.754537 0.280000 0.729571
v -0.754537 0.460000 0.729571
v -0.754537 0.820000 0.729571
v -0.754537 1.000000 0.729571
v -0.580670 0.280000 0.776158
v -0.580670 0.460000 0.776158
v -0.580670 0.820000 0.776158
v -0.580670 1.000000 0.776158
v -2.794349 0.460000 -0.003345
v -2.794349 0.820000 -0.003345
v -2.620483 0.280000 0.043243
v -2.620483 0.460000 0.043243
v -2.620483 0.820000 0.043243
v -2.620483 1.000000 0.043243
v -2.446616 0.460000 0.089830
v -2.446616 0.820000 0.089830
v -0.707950 0.280000 0.555704
v -0.707950 0.460000 0.555704
v -0.707950 0.820000 0.555704
v -0.707950 1.000000 0.555704
v 0.682984 0.460000 0.928404
v 0.682984 0.820000 0.928404
v 0.856850 0.460000 0.974991
v 0.856850 0.820000 0.974991
v 0.555704 0.280000 0.707950
v 0.555704 0.460000 0.707950
v 0.555704 0.820000 0.707950
v 0.555704 1.000000 0.707950
v 0.729571 0.280000 0.754537
v 0.729571 0.460000 0.754537
v 0.729571 0.820000 0.754537
v 0.729571 1.000000 0.754537
v 0.903438 0.460000 0.801124
v 0.903438 0.820000 0.801124
v 1.077304 0.460000 0.847712
v 1.077304 0.820000 0.847712
v 0.776158 0.280000 0.580670
v 0.776158 0.460000 0.580670
v 0.776158 0.820000 0.580670
v 0.776158 1.000000 0.580670
v 0.950025 0.280000 0.627258
v 0.950025 0.460000 0.627258
v 0.950025 0.820000 0.627258
v 0.950025 1.000000 0.627258
v 1.123892 0.460000 0.673845
v 1.123892 0.820000 0.673845
v 1.297758 0.460000 0.720433
v 1.297758 0.820000 0.720433
v 0.996612 0.280000 0.453391
v 0.996612 0.460000 0.453391
v 0.996612 0.820000 0.453391
v 0.996612 1.000000 0.453391
v 1.170479 0.280000 0.499979
v 1.170479 0.460000 0.499979
v 1.170479 0.820000 0.499979
v 1.170479 1.000000 0.499979
v 1.344346 0.460000 0.546566
v 1.344346 0.820000 0.546566
v 1.518212 0.460000 0.593153
v 1.518212 0.820000 0.593153
v 1.217067 0.280000 0.326112
v 1.217067 0.460000 0.326112
v 1.217067 0.820000 0.326112
v 1.217067 1.000000 0.326112
v 1.390933 0.280000 0.372699
v 1.390933 0.460000 0.372699
v 1.390933 0.820000 0.372699
v 1.390933 1.000000 0.372699
v 1.564800 0.460000 0.419287
v 1.564800 0.820000 0.419287
v 1.912533 0.460000 0.512462
v 1.912533 0.820000 0.512462
v -0.475013 0.460000 -0.313629
v -0.475013 0.820000 -0.313629
v -0.301146 0.460000 -0.267042
v -0.301146 0.820000 -0.267042
v 0.394321 0.460000 -0.080692
v 0.394321 0.820000 -0.080692
v 0.568187 0.460000 -0.034104
v 0.568187 0.820000 -0.034104
v 1.437521 0.280000 0.198833
v 1.437521 0.460000 0.198833
v 1.437521 0.820000 0.198833
v 1.437521 1.000000 0.198833
v 1.785254 0.280000 0.292008
v 1.785254 0.460000 0.292008
v 1.785254 0.820000 0.292008
v 1.785254 1.000000 0.292008
v 1.959121 0.460000 0.338595
v 1.959121 0.820000 0.338595
v 2.132987 0.460000 0.385182
v 2.132987 0.820000 0.385182
v -0.602292 0.280000 -0.534083
v -0.602292 0.460000 -0.534083
v -0.602292 0.820000 -0.534083
v -0.602292 1.000000 -0.534083
v -0.428425 0.280000 -0.487496
v -0.428425 0.460000 -0.487496
v -0.428425 0.820000 -0.487496
v -0.428425 1.000000 -0.487496
v -0.254558 0.460000 -0.440908
v -0.254558 0.820000 -0.440908
v -0.080692 0.460000 -0.394321
v -0.080692 0.820000 -0.394321
v 0.267042 0.460000 -0.301146
v 0.267042 0.820000 -0.301146
v 0.440908 0.460000 -0.254559
v 0.440908 0.820000 -0.254559
v 0.614775 0.280000 -0.207971
v 0.614775 0.460000 -0.207971
v 0.614775 0.820000 -0.207971
v 0.614775 1.000000 -0.207971
v 0.788641 0.280000 -0.161384
v 0.788641 0.460000 -0.161384
v 0.788641 0.820000 -0.161384
v 0.788641 1.000000 -0.161384
v 1.831841 0.280000 0.118141
v 1.831841 0.460000 0.118141
v 1.831841 0.820000 0.118141
v 1.831841 1.000000 0.118141
v 2.005708 0.280000 0.164728
v 2.005708 0.460000 0.164728
v 2.005708 0.820000 0.164728
v 2.005708 1.000000 0.164728
v 2.179575 0.460000 0.211316
v 2.179575 0.820000 0.211316
v 2.527308 0.460000 0.304491
v 2.527308 0.820000 0.304491
v -0.381838 0.280000 -0.661362
v -0.381838 0.460000 -0.661362
v -0.381838 0.820000 -0.661362
v -0.381838 1.000000 -0.661362
v -0.207971 0.280000 -0.614775
v -0.207971 0.460000 -0.614775
v -0.207971 0.820000 -0.614775
v -0.207971 1.000000 -0.614775
v -0.034104 0.460000 -0.568187
v -0.034104 0.820000 -0.568187
v 0.313629 0.460000 -0.475013
v 0.313629 0.820000 -0.475013
v 0.487496 0.280000 -0.428425
v 0.487496 0.460000 -0.428425
v 0.487496 0.820000 -0.428425
v 0.487496 1.000000 -0.428425
v 0.661362 0.280000 -0.381838
v 0.661362 0.460000 -0.381838
v 0.661362 0.820000 -0.381838
v 0.661362 1.000000 -0.381838
v 2.052295 0.280000 -0.009138
v 2.052295 0.460000 -0.009138
v 2.052295 0.820000 -0.009138
v 2.052295 1.000000 -0.009138
v 2.573895 0.280000 0.130624
v 2.573895 0.460000 0.130624
v 2.573895 0.820000 0.130624
v 2.573895 1.000000 0.130624
v 2.747762 0.460000 0.177211
v 2.747762 0.820000 0.177211
v -0.161384 0.280000 -0.788641
v -0.161384 0.460000 -0.788641
v -0.161384 0.820000 -0.788642
v -0.161384 1.000000 -0.788642
v 0.534083 0.280000 -0.602292
v 0.534083 0.460000 -0.602292
v 0.534083 0.820000 -0.602292
v 0.534083 1.000000 -0.602292
v -0.534083 0.280000 0.602292
v -0.534083 0.460000 0.602292
v -0.534083 0.820000 0.602292
v -0.534083 1.000000 0.602292
v 0.161384 0.280000 0.788641
v 0.161384 0.460000 0.788641
v 0.161384 0.820000 0.788641
v 0.161384 1.000000 0.788641
v -2.747762 0.460000 -0.177212
v -2.747762 0.820000 -0.177212
v -2.573895 0.280000 -0.130624
v -2.573895 0.460000 -0.130624
v -2.573895 0.820000 -0.130624
v -2.573895 1.000000 -0.130624
v -2.052295 0.280000 0.009138
v -2.052295 0.460000 0.009138
v -2.052295 0.820000 0.009138
v -2.052295 1.000000 0.009138
v -0.661362 0.280000 0.381838
v -0.661362 0.460000 0.381838
v -0.661362 0.820000 0.381838
v -0.661362 1.000000 0.381838
v -0.487496 0.280000 0.428425
v -0.487496 0.460000 0.428425
v -0.487496 0.820000 0.428425
v -0.487496 1.000000 0.428425
v -0.313629 0.460000 0.475012
v -0.313629 0.820000 0.475012
v 0.034104 0.460000 0.568187
v 0.034104 0.820000 0.568187
v 0.207971 0.280000 0.614775
v 0.207971 0.460000 0.614775
v 0.207971 0.820000 0.614775
v 0.207971 1.000000 0.614775
v 0.381838 0.280000 0.661362
v 0.381838 0.460000 0.661362
v 0.381838 0.820000 0.661362
v 0.381838 1.000000 0.661362
v -2.527308 0.460000 -0.304491
v -2.527308 0.820000 -0.304491
v -2.179575 0.460000 -0.211316
v -2.179575 0.820000 -0.211316
v -2.005708 0.280000 -0.164728
v -2.005708 0.460000 -0.164728
v -2.005708 0.820000 -0.164728
v -2.005708 1.000000 -0.164728
v -1.831841 0.280000 -0.118141
v -1.831841 0.460000 -0.118141
v -1.831841 0.820000 -0.118141
v -1.831841 1.000000 -0.118141
v -0.788641 0.280000 0.161384
v -0.788641 0.460000 0.161384
v -0.788641 0.820000 0.161384
v -0.788641 1.000000 0.161383
v -0.614775 0.280000 0.207971
v -0.614775 0.460000 0.207971
v -0.614775 0.820000 0.207971
v -0.614775 1.000000 0.207971
v -0.440908 0.460000 0.254558
v -0.440908 0.820000 0.254558
v -0.267041 0.460000 0.301146
v -0.267041 0.820000 0.301146
v 0.080692 0.460000 0.394321
v 0.080692 0.820000 0.394321
v 0.254558 0.460000 0.440908
v 0.254558 0.820000 0.440908
v 0.428425 0.280000 0.487496
v 0.428425 0.460000 0.487496
v 0.428425 0.820000 0.487495
v 0.428425 1.000000 0.487495
v 0.602292 0.280000 0.534083
v 0.602292 0.460000 0.534083
v 0.602292 0.820000 0.534083
v 0.602292 1.000000 0.534083
v -2.132987 0.460000 -0.385183
v -2.132987 0.820000 -0.385183
v -1.959121 0.460000 -0.338595
v -1.959121 0.820000 -0.338595
v -1.785254 0.280000 -0.292008
v -1.785254 0.460000 -0.292008
v -1.785254 0.820000 -0.292008
v -1.785254 1.000000 -0.292008
v -1.437521 0.280000 -0.198833
v -1.437521 0.460000 -0.198833
v -1.437521 0.820000 -0.198833
v -1.437521 1.000000 -0.198833
v -0.568187 0.460000 0.034104
v -0.568187 0.820000 0.034104
v -0.394321 0.460000 0.080692
v -0.394321 0.820000 0.080692
v 0.301146 0.460000 0.267041
v 0.301146 0.820000 0.267041
v 0.475013 0.460000 0.313629
v 0.475013 0.820000 0.313629
v -1.912533 0.460000 -0.512462
v -1.912533 0.820000 -0.512462
v -1.564800 0.460000 -0.419287
v -1.564800 0.820000 -0.419287
v -1.390933 0.280000 -0.372699
v -1.390933 0.460000 -0.372699
v -1.390933 0.820000 -0.372699
v -1.390933 1.000000 -0.372699
v -1.217067 0.280000 -0.326112
v -1.217067 0.460000 -0.326112
v -1.217067 0.820000 -0.326112
v -1.217067 1.000000 -0.326112
v -1.518212 0.460000 -0.593154
v -1.518212 0.820000 -0.593154
v -1.344346 0.460000 -0.546566
v -1.344346 0.820000 -0.546566
v -1.170479 0.280000 -0.499979
v -1.170479 0.460000 -0.499979
v -1.170479 0.820000 -0.499979
v -1.170479 1.000000 -0.499979
v -0.996612 0.280000 -0.453391
v -0.996612 0.460000 -0.453391
v -0.996612 0.820000 -0.453391
v -0.996612 1.000000 -0.453391
v -1.297758 0.460000 -0.720433
v -1.297758 0.820000 -0.720433
v -1.123892 0.460000 -0.673845
v -1.123892 0.820000 -0.673845
v -0.950025 0.280000 -0.627258
v -0.950025 0.460000 -0.627258
v -0.950025 0.820000 -0.627258
v -0.950025 1.000000 -0.627258
v -0.776158 0.280000 -0.580670
v -0.776158 0.460000 -0.580670
v -0.776158 0.820000 -0.580670
v -0.776158 1.000000 -0.580670
v -1.077304 0.460000 -0.847712
v -1.077304 0.820000 -0.847712
v -0.903438 0.460000 -0.801125
v -0.903438 0.820000 -0.801125
v -0.729571 0.280000 -0.754537
v -0.729571 0.460000 -0.754537
v -0.729571 0.820000 -0.754537
v -0.729571 1.000000 -0.754537
v -0.555704 0.280000 -0.707950
v -0.555704 0.460000 -0.707950
v -0.555704 0.820000 -0.707950
v -0.555704 1.000000 -0.707950
v -0.856850 0.460000 -0.974991
v -0.856850 0.820000 -0.974991
v -0.682984 0.460000 -0.928404
v -0.682984 0.820000 -0.928404
v 0.707950 0.280000 -0.555704
v 0.707950 0.460000 -0.555704
v 0.707950 0.820000 -0.555704
v 0.707950 1.000000 -0.555704
v 2.446616 0.460000 -0.089830
v 2.446616 0.820000 -0.089830
v 2.620483 0.280000 -0.043243
v 2.620483 0.460000 -0.043243
v 2.620483 0.820000 -0.043243
v 2.620483 1.000000 -0.043243
v 2.794349 0.460000 0.003345
v 2.794349 0.820000 0.003345
v 0.580670 0.280000 -0.776158
v 0.580670 0.460000 -0.776158
v 0.580670 0.820000 -0.776158
v 0.580670 1.000000 -0.776158
v 0.754537 0.280000 -0.729571
v 0.754537 0.460000 -0.729571
v 0.754537 0.820000 -0.729571
v 0.754537 1.000000 -0.729571
v 0.928404 0.460000 -0.682984
v 0.928404 0.820000 -0.682984
v 2.493203 0.460000 -0.263697
v 2.493203 0.820000 -0.263697
v 0.453391 0.280000 -0.996612
v 0.453391 0.460000 -0.996613
v 0.453391 0.820000 -0.996613
v 0.453391 1.000000 -0.996613
v 0.627258 0.280000 -0.950025
v 0.627258 0.460000 -0.950025
v 0.627258 0.820000 -0.950025
v 0.627258 1.000000 -0.950025
v 0.801125 0.460000 -0.903438
v 0.801125 0.820000 -0.903438
v 0.974991 0.460000 -0.856850
v 0.974991 0.820000 -0.856850
v 0.326112 0.280000 -1.217067
v 0.326112 0.460000 -1.217067
v 0.326112 0.820000 -1.217067
v 0.326112 1.000000 -1.217067
v 0.499979 0.280000 -1.170479
v 0.499979 0.460000 -1.170479
v 0.499979 0.820000 -1.170479
v 0.499979 1.000000 -1.170479
v 0.673845 0.460000 -1.123892
v 0.673845 0.820000 -1.123892
v 0.847712 0.460000 -1.077304
v 0.847712 0.820000 -1.077304
v 0.198833 0.280000 -1.437521
v 0.198833 0.460000 -1.437521
v 0.198833 0.820000 -1.437521
v 0.198833 1.000000 -1.437521
v 0.372699 0.280000 -1.390933
v 0.372699 0.460000 -1.390933
v 0.372699 0.820000 -1.390933
v 0.372699 1.000000 -1.390933
v 0.546566 0.460000 -1.344346
v 0.546566 0.820000 -1.344346
v 0.720433 0.460000 -1.297758
v 0.720433 0.820000 -1.297758
v 0.419287 0.460000 -1.564800
v 0.419287 0.820000 -1.564800
v 0.593153 0.460000 -1.518212
v 0.593153 0.820000 -1.518212
v 0.118141 0.280000 -1.831841
v 0.118141 0.460000 -1.831841
v 0.118141 0.820000 -1.831841
v 0.118141 1.000000 -1.831841
v 0.292008 0.280000 -1.785254
v 0.292008 0.460000 -1.785254
v 0.292008 0.820000 -1.785254
v 0.292008 1.000000 -1.785254
v -0.009138 0.280000 -2.052295
v -0.009138 0.460000 -2.052295
v -0.009138 0.820000 -2.052295
v -0.009138 1.000000 -2.052295
v 0.164728 0.280000 -2.005708
v 0.164728 0.460000 -2.005708
v 0.164728 0.820000 -2.005708
v 0.164728 1.000000 -2.005708
v 0.338595 0.460000 -1.959121
v 0.338595 0.820000 -1.959121
v 0.512462 0.460000 -1.912533
v 0.512462 0.820000 -1.912533
v 0.211316 0.460000 -2.179575
v 0.211316 0.820000 -2.179575
v 0.385182 0.460000 -2.132987
v 0.385182 0.820000 -2.132987
v -0.263697 0.460000 -2.493203
v -0.263697 0.820000 -2.493203
v -0.089830 0.460000 -2.446616
v -0.089830 0.820000 -2.446616
v -0.043243 0.280000 -2.620483
v -0.043243 0.460000 -2.620483
v -0.043243 0.820000 -2.620483
v -0.043243 1.000000 -2.620483
v 0.130624 0.280000 -2.573895
v 0.130624 0.460000 -2.573895
v 0.130624 0.820000 -2.573895
v 0.130624 1.000000 -2.573895
v 0.304491 0.460000 -2.527308
v 0.304491 0.820000 -2.527308
v 0.003345 0.460000 -2.794349
v 0.003345 0.820000 -2.794349
v 0.177211 0.460000 -2.747762
v 0.177211 0.820000 -2.747762
v -0.130624 0.280000 2.573895
v 0.043243 0.280000 2.620483
v -0.164728 0.280000 2.005708
v 0.009138 0.280000 2.052295
v -0.292008 0.280000 1.785254
v -0.118141 0.280000 1.831841
v -0.372699 0.280000 1.390933
v -0.198833 0.280000 1.437521
v -0.499979 0.280000 1.170479
v -0.326112 0.280000 1.217067
v -0.627258 0.280000 0.950025
v -0.453391 0.280000 0.996612
v -0.754537 0.280000 0.729571
v -0.580670 0.280000 0.776158
v -2.620483 0.280000 0.043243
v -0.707950 0.280000 0.555704
v -0.534083 0.280000 0.602292
v 0.161384 0.280000 0.788641
v -2.573895 0.280000 -0.130624
v -2.052295 0.280000 0.009138
v -0.661362 0.280000 0.381838
v -0.487496 0.280000 0.428425
v 0.207971 0.280000 0.614775
v 0.381838 0.280000 0.661362
v 0.555704 0.280000 0.707950
v 0.729571 0.280000 0.754537
v -2.005708 0.280000 -0.164728
v -1.831841 0.280000 -0.118141
v -0.788641 0.280000 0.161384
v -0.614775 0.280000 0.207971
v 0.428425 0.280000 0.487496
v 0.602292 0.280000 0.534083
v 0.776158 0.280000 0.580670
v 0.950025 0.280000 0.627258
v -1.785254 0.280000 -0.292008
v -1.437521 0.280000 -0.198833
v 0.996612 0.280000 0.453391
v 1.170479 0.280000 0.499979
v -1.390933 0.280000 -0.372699
v -1.217067 0.280000 -0.326112
v 1.217067 0.280000 0.326112
v 1.390933 0.280000 0.372699
v -1.170479 0.280000 -0.499979
v -0.996612 0.280000 -0.453391
v 1.437521 0.280000 0.198833
v 1.785254 0.280000 0.292008
v -0.950025 0.280000 -0.627258
v -0.776158 0.280000 -0.580670
v -0.602292 0.280000 -0.534083
v -0.428425 0.280000 -0.487496
v 0.614775 0.280000 -0.207971
v 0.788641 0.280000 -0.161384
v 1.831841 0.280000 0.118141
v 2.005708 0.280000 0.164728
v -0.729571 0.280000 -0.754537
v -0.555704 0.280000 -0.707950
v -0.381838 0.280000 -0.661362
v -0.207971 0.280000 -0.614775
v 0.487496 0.280000 -0.428425
v 0.661362 0.280000 -0.381838
v 2.052295 0.280000 -0.009138
v 2.573895 0.280000 0.130624
v -0.161384 0.280000 -0.788641
v 0.534083 0.280000 -0.602292
v 0.707950 0.280000 -0.555704
v 2.620483 0.280000 -0.043243
v 0.580670 0.280000 -0.776158
v 0.754537 0.280000 -0.729571
v 0.453391 0.280000 -0.996612
v 0.627258 0.280000 -0.950025
v 0.326112 0.280000 -1.217067
v 0.499979 0.280000 -1.170479
v 0.198833 0.280000 -1.437521
v 0.372699 0.280000 -1.390933
v 0.118141 0.280000 -1.831841
v 0.292008 0.280000 -1.785254
v -0.009138 0.280000 -2.052295
v 0.164728 0.280000 -2.005708
v -0.043243 0.280000 -2.620483
v 0.130624 0.280000 -2.573895
v -0.177211 0.460000 2.747762
v -0.003345 0.460000 2.794349
v -0.304491 0.460000 2.527308
v -0.130624 0.460000 2.573895
v 0.043243 0.460000 2.620483
v 0.089830 0.460000 2.446616
v 0.263697 0.460000 2.493203
v -0.385182 0.460000 2.132987
v -0.211316 0.460000 2.179574
v -0.512462 0.460000 1.912533
v -0.338595 0.460000 1.959120
v -0.164728 0.460000 2.005708
v 0.009138 0.460000 2.052295
v -0.292008 0.460000 1.785254
v -0.118141 0.460000 1.831841
v -0.593153 0.460000 1.518212
v -0.419287 0.460000 1.564800
v -0.720433 0.460000 1.297758
v -0.546566 0.460000 1.344346
v -0.372699 0.460000 1.390933
v -0.198833 0.460000 1.437521
v -0.847712 0.460000 1.077304
v -0.673845 0.460000 1.123892
v -0.499979 0.460000 1.170479
v -0.326112 0.460000 1.217067
v -0.974991 0.460000 0.856850
v -0.801125 0.460000 0.903438
v -0.627258 0.460000 0.950025
v -0.453391 0.460000 0.996612
v -2.493203 0.460000 0.263697
v -0.928404 0.460000 0.682983
v -0.754537 0.460000 0.729571
v -0.580670 0.460000 0.776158
v -2.794349 0.460000 -0.003345
v -2.620483 0.460000 0.043243
v -2.446616 0.460000 0.089830
v -0.707950 0.460000 0.555704
v -0.534083 0.460000 0.602292
v 0.161384 0.460000 0.788641
v 0.682984 0.460000 0.928404
v 0.856850 0.460000 0.974991
v -2.747762 0.460000 -0.177212
v -2.573895 0.460000 -0.130624
v -2.052295 0.460000 0.009138
v -0.661362 0.460000 0.381838
v -0.487496 0.460000 0.428425
v -0.313629 0.460000 0.475012
v 0.034104 0.460000 0.568187
v 0.207971 0.460000 0.614775
v 0.381838 0.460000 0.661362
v 0.555704 0.460000 0.707950
v 0.729571 0.460000 0.754537
v 0.903438 0.460000 0.801124
v 1.077304 0.460000 0.847712
v -2.527308 0.460000 -0.304491
v -2.179575 0.460000 -0.211316
v -2.005708 0.460000 -0.164728
v -1.831841 0.460000 -0.118141
v -0.788641 0.460000 0.161384
v -0.614775 0.460000 0.207971
v -0.440908 0.460000 0.254558
v -0.267041 0.460000 0.301146
v 0.080692 0.460000 0.394321
v 0.254558 0.460000 0.440908
v 0.428425 0.460000 0.487496
v 0.602292 0.460000 0.534083
v 0.776158 0.460000 0.580670
v 0.950025 0.460000 0.627258
v 1.123892 0.460000 0.673845
v 1.297758 0.460000 0.720433
v -2.132987 0.460000 -0.385183
v -1.959121 0.460000 -0.338595
v -1.785254 0.460000 -0.292008
v -1.437521 0.460000 -0.198833
v -0.568187 0.460000 0.034104
v -0.394321 0.460000 0.080692
v 0.301146 0.460000 0.267041
v 0.475013 0.460000 0.313629
v 0.996612 0.460000 0.453391
v 1.170479 0.460000 0.499979
v 1.344346 0.460000 0.546566
v 1.518212 0.460000 0.593153
v -1.912533 0.460000 -0.512462
v -1.564800 0.460000 -0.419287
v -1.390933 0.460000 -0.372699
v -1.217067 0.460000 -0.326112
v 1.217067 0.460000 0.326112
v 1.390933 0.460000 0.372699
v 1.564800 0.460000 0.419287
v 1.912533 0.460000 0.512462
v -1.518212 0.460000 -0.593154
v -1.344346 0.460000 -0.546566
v -1.170479 0.460000 -0.499979
v -0.996612 0.460000 -0.453391
v -0.475013 0.460000 -0.313629
v -0.301146 0.460000 -0.267042
v 0.394321 0.460000 -0.080692
v 0.568187 0.460000 -0.034104
v 1.437521 0.460000 0.198833
v 1.785254 0.460000 0.292008
v 1.959121 0.460000 0.338595
v 2.132987 0.460000 0.385182
v -1.297758 0.460000 -0.720433
v -1.123892 0.460000 -0.673845
v -0.950025 0.460000 -0.627258
v -0.776158 0.460000 -0.580670
v -0.602292 0.460000 -0.534083
v -0.428425 0.460000 -0.487496
v -0.254558 0.460000 -0.440908
v -0.080692 0.460000 -0.394321
v 0.267042 0.460000 -0.301146
v 0.440908 0.460000 -0.254559
v 0.614775 0.460000 -0.207971
v 0.788641 0.460000 -0.161384
v 1.831841 0.460000 0.118141
v 2.005708 0.460000 0.164728
v 2.179575 0.460000 0.211316
v 2.527308 0.460000 0.304491
v -1.077304 0.460000 -0.847712
v -0.903438 0.460000 -0.801125
v -0.729571 0.460000 -0.754537
v -0.555704 0.460000 -0.707950
v -0.381838 0.460000 -0.661362
v -0.207971 0.460000 -0.614775
v -0.034104 0.460000 -0.568187
v 0.313629 0.460000 -0.475013
v 0.487496 0.460000 -0.428425
v 0.661362 0.460000 -0.381838
v 2.052295 0.460000 -0.009138
v 2.573895 0.460000 0.130624
v 2.747762 0.460000 0.177211
v -0.856850 0.460000 -0.974991
v -0.682984 0.460000 -0.928404
v -0.161384 0.460000 -0.788641
v 0.534083 0.460000 -0.602292
v 0.707950 0.460000 -0.555704
v 2.446616 0.460000 -0.089830
v 2.620483 0.460000 -0.043243
v 2.794349 0.460000 0.003345
v 0.580670 0.460000 -0.776158
v 0.754537 0.460000 -0.729571
v 0.928404 0.460000 -0.682984
v 2.493203 0.460000 -0.263697
v 0.453391 0.460000 -0.996613
v 0.627258 0.460000 -0.950025
v 0.801125 0.460000 -0.903438
v 0.974991 0.460000 -0.856850
v 0.326112 0.460000 -1.217067
v 0.499979 0.460000 -1.170479
v 0.673845 0.460000 -1.123892
v 0.847712 0.460000 -1.077304
v 0.198833 0.460000 -1.437521
v 0.372699 0.460000 -1.390933
v 0.546566 0.460000 -1.344346
v 0.720433 0.460000 -1.297758
v 0.419287 0.460000 -1.564800
v 0.593153 0.460000 -1.518212
v 0.118141 0.460000 -1.831841
v 0.292008 0.460000 -1.785254
v -0.009138 0.460000 -2.052295
v 0.164728 0.460000 -2.005708
v 0.338595 0.460000 -1.959121
v 0.512462 0.460000 -1.912533
v 0.211316 0.460000 -2.179575
v 0.385182 0.460000 -2.132987
v -0.263697 0.460000 -2.493203
v -0.089830 0.460000 -2.446616
v -0.043243 0.460000 -2.620483
v 0.130624 0.460000 -2.573895
v 0.304491 0.460000 -2.527308
v 0.003345 0.460000 -2.794349
v 0.177211 0.460000 -2.747762
v -0.177211 0.820000 2.747762
v -0.003345 0.820000 2.794349
v -0.304491 0.820000 2.527308
v -0.130624 0.820000 2.573895
v 0.043243 0.820000 2.620483
v 0.089830 0.820000 2.446616
v 0.263697 0.820000 2.493203
v -0.385182 0.820000 2.132987
v -0.211316 0.820000 2.179574
v -0.512462 0.820000 1.912533
v -0.338595 0.820000 1.959120
v -0.164728 0.820000 2.005708
v 0.009138 0.820000 2.052295
v -0.292008 0.820000 1.785254
v -0.118141 0.820000 1.831841
v -0.593153 0.820000 1.518212
v -0.419287 0.820000 1.564800
v -0.720433 0.820000 1.297758
v -0.546566 0.820000 1.344346
v -0.372699 0.820000 1.390933
v -0.198833 0.820000 1.437521
v -0.847712 0.820000 1.077304
v -0.673845 0.820000 1.123892
v -0.499979 0.820000 1.170479
v -0.326112 0.820000 1.217066
v -0.974991 0.820000 0.856850
v -0.801125 0.820000 0.903438
v -0.627258 0.820000 0.950025
v -0.453391 0.820000 0.996612
v -2.493203 0.820000 0.263697
v -0.928404 0.820000 0.682983
v -0.754537 0.820000 0.729571
v -0.580670 0.820000 0.776158
v -2.794349 0.820000 -0.003345
v -2.620483 0.820000 0.043243
v -2.446616 0.820000 0.089830
v -0.707950 0.820000 0.555704
v -0.534083 0.820000 0.602292
v 0.161384 0.820000 0.788641
v 0.682984 0.820000 0.928404
v 0.856850 0.820000 0.974991
v -2.747762 0.820000 -0.177212
v -2.573895 0.820000 -0.130624
v -2.052295 0.820000 0.009138
v -0.661362 0.820000 0.381838
v -0.487496 0.820000 0.428425
v -0.313629 0.820000 0.475012
v 0.034104 0.820000 0.568187
v 0.207971 0.820000 0.614775
v 0.381838 0.820000 0.661362
v 0.555704 0.820000 0.707950
v 0.729571 0.820000 0.754537
v 0.903438 0.820000 0.801124
v 1.077304 0.820000 0.847712
v -2.527308 0.820000 -0.304491
v -2.179575 0.820000 -0.211316
v -2.005708 0.820000 -0.164728
v -1.831841 0.820000 -0.118141
v -0.788641 0.820000 0.161384
v -0.614775 0.820000 0.207971
v -0.440908 0.820000 0.254558
v -0.267041 0.820000 0.301146
v 0.080692 0.820000 0.394321
v 0.254558 0.820000 0.440908
v 0.428425 0.820000 0.487495
v 0.602292 0.820000 0.534083
v 0.776158 0.820000 0.580670
v 0.950025 0.820000 0.627258
v 1.123892 0.820000 0.673845
v 1.297758 0.820000 0.720433
v -2.132987 0.820000 -0.385183
v -1.959121 0.820000 -0.338595
v -1.785254 0.820000 -0.292008
v -1.437521 0.820000 -0.198833
v -0.568187 0.820000 0.034104
v -0.394321 0.820000 0.080692
v 0.301146 0.820000 0.267041
v 0.475013 0.820000 0.313629
v 0.996612 0.820000 0.453391
v 1.170479 0.820000 0.499979
v 1.344346 0.820000 0.546566
v 1.518212 0.820000 0.593153
v -1.912533 0.820000 -0.512462
v -1.564800 0.820000 -0.419287
v -1.390933 0.820000 -0.372699
v -1.217067 0.820000 -0.326112
v 1.217067 0.820000 0.326112
v 1.390933 0.820000 0.372699
v 1.564800 0.820000 0.419287
v 1.912533 0.820000 0.512462
v -1.518212 0.820000 -0.593154
v -1.344346 0.820000 -0.546566
v -1.170479 0.820000 -0.499979
v -0.996612 0.820000 -0.453391
v -0.475013 0.820000 -0.313629
v -0.301146 0.820000 -0.267042
v 0.394321 0.820000 -0.080692
v 0.568187 0.820000 -0.034104
v 1.437521 0.820000 0.198833
v 1.785254 0.820000 0.292008
v 1.959121 0.820000 0.338595
v 2.132987 0.820000 0.385182
v -1.297758 0.820000 -0.720433
v -1.123892 0.820000 -0.673845
v -0.950025 0.820000 -0.627258
v -0.776158 0.820000 -0.580670
v -0.602292 0.820000 -0.534083
v -0.428425 0.820000 -0.487496
v -0.254558 0.820000 -0.440908
v -0.080692 0.820000 -0.394321
v 0.267042 0.820000 -0.301146
v 0.440908 0.820000 -0.254559
v 0.614775 0.820000 -0.207971
v 0.788641 0.820000 -0.161384
v 1.831841 0.820000 0.118141
v 2.005708 0.820000 0.164728
v 2.179575 0.820000 0.211316
v 2.527308 0.820000 0.304491
v -1.077304 0.820000 -0.847712
v -0.903438 0.820000 -0.801125
v -0.729571 0.820000 -0.754537
v -0.555704 0.820000 -0.707950
v -0.381838 0.820000 -0.661362
v -0.207971 0.820000 -0.614775
v -0.034104 0.820000 -0.568187
v 0.313629 0.820000 -0.475013
v 0.487496 0.820000 -0.428425
v 0.661362 0.820000 -0.381838
v 2.052295 0.820000 -0.009138
v 2.573895 0.820000 0.130624
v 2.747762 0.820000 0.177211
v -0.856850 0.820000 -0.974991
v -0.682984 0.820000 -0.928404
v -0.161384 0.820000 -0.788642
v 0.534083 0.820000 -0.602292
v 0.707950 0.820000 -0.555704
v 2.446616 0.820000 -0.089830
v 2.620483 0.820000 -0.043243
v 2.794349 0.820000 0.003345
v 0.580670 0.820000 -0.776158
v 0.754537 0.820000 -0.729571
v 0.928404 0.820000 -0.682984
v 2.493203 0.820000 -0.263697
v 0.453391 0.820000 -0.996613
v 0.627258 0.820000 -0.950025
v 0.801125 0.820000 -0.903438
v 0.974991 0.820000 -0.856850
v 0.326112 0.820000 -1.217067
v 0.499979 0.820000 -1.170479
v 0.673845 0.820000 -1.123892
v 0.847712 0.820000 -1.077304
v 0.198833 0.820000 -1.437521
v 0.372699 0.820000 -1.390933
v 0.546566 0.820000 -1.344346
v 0.720433 0.820000 -1.297758
v 0.419287 0.820000 -1.564800
v 0.593153 0.820000 -1.518212
v 0.118141 0.820000 -1.831841
v 0.292008 0.820000 -1.785254
v -0.009138 0.820000 -2.052295
v 0.164728 0.820000 -2.005708
v 0.338595 0.820000 -1.959121
v 0.512462 0.820000 -1.912533
v 0.211316 0.820000 -2.179575
v 0.385182 0.820000 -2.132987
v -0.263697 0.820000 -2.493203
v -0.089830 0.820000 -2.446616
v -0.043243 0.820000 -2.620483
v 0.130624 0.820000 -2.573895
v 0.304491 0.820000 -2.527308
v 0.003345 0.820000 -2.794349
v 0.177211 0.820000 -2.747762
v -0.130624 1.000000 2.573895
v 0.043243 1.000000 2.620483
v -0.164728 1.000000 2.005708
v 0.009138 1.000000 2.052295
v -0.292008 1.000000 1.785254
v -0.118141 1.000000 1.831841
v -0.372699 1.000000 1.390933
v -0.198833 1.000000 1.437521
v -0.499979 1.000000 1.170479
v -0.326112 1.000000 1.217066
v -0.627258 1.000000 0.950025
v -0.453391 1.000000 0.996612
v -0.754537 1.000000 0.729571
v -0.580670 1.000000 0.776158
v -2.620483 1.000000 0.043243
v -0.707950 1.000000 0.555704
v -0.534083 1.000000 0.602292
v 0.161384 1.000000 0.788641
v -2.573895 1.000000 -0.130624
v -2.052295 1.000000 0.009138
v -0.661362 1.000000 0.381838
v -0.487496 1.000000 0.428425
v 0.207971 1.000000 0.614775
v 0.381838 1.000000 0.661362
v 0.555704 1.000000 0.707950
v 0.729571 1.000000 0.754537
v -2.005708 1.000000 -0.164728
v -1.831841 1.000000 -0.118141
v -0.788641 1.000000 0.161383
v -0.614775 1.000000 0.207971
v 0.428425 1.000000 0.487495
v 0.602292 1.000000 0.534083
v 0.776158 1.000000 0.580670
v 0.950025 1.000000 0.627258
v -1.785254 1.000000 -0.292008
v -1.437521 1.000000 -0.198833
v 0.996612 1.000000 0.453391
v 1.170479 1.000000 0.499979
v -1.390933 1.000000 -0.372699
v -1.217067 1.000000 -0.326112
v 1.217067 1.000000 0.326112
v 1.390933 1.000000 0.372699
v -1.170479 1.000000 -0.499979
v -0.996612 1.000000 -0.453391
v 1.437521 1.000000 0.198833
v 1.785254 1.000000 0.292008
v -0.950025 1.000000 -0.627258
v -0.776158 1.000000 -0.580670
v -0.602292 1.000000 -0.534083
v -0.428425 1.000000 -0.487496
v 0.614775 1.000000 -0.207971
v 0.788641 1.000000 -0.161384
v 1.831841 1.000000 0.118141
v 2.005708 1.000000 0.164728
v -0.729571 1.000000 -0.754537
v -0.555704 1.000000 -0.707950
v -0.381838 1.000000 -0.661362
v -0.207971 1.000000 -0.614775
v 0.487496 1.000000 -0.428425
v 0.661362 1.000000 -0.381838
v 2.052295 1.000000 -0.009138
v 2.573895 1.000000 0.130624
v -0.161384 1.000000 -0.788642
v 0.534083 1.000000 -0.602292
v 0.707950 1.000000 -0.555704
v 2.620483 1.000000 -0.043243
v 0.580670 1.000000 -0.776158
v 0.754537 1.000000 -0.729571
v 0.453391 1.000000 -0.996613
v 0.627258 1.000000 -0.950025
v 0.326112 1.000000 -1.217067
v 0.499979 1.000000 -1.170479
v 0.198833 1.000000 -1.437521
v 0.372699 1.000000 -1.390933
v 0.118141 1.000000 -1.831841
v 0.292008 1.000000 -1.785254
v -0.009138 1.000000 -2.052295
v 0.164728 1.000000 -2.005708
v -0.043243 1.000000 -2.620483
v 0.130624 1.000000 -2.573895
vn -0.9659 -0.0000 -0.2588
vn 0.9659 -0.0000 0.2588
vn -0.2588 -0.0000 0.9659
vn 0.2588 -0.0000 -0.9659
vn -0.0000 -1.0000 -0.0000
vn -0.0000 1.0000 -0.0000
vt 0.974609 0.500000
vt 0.970703 0.500000
vt 0.982422 0.500000
s 1
usemtl palette.047
f 3/1/1 2/1/1 1/1/1
f 4/1/1 2/1/1 3/1/1
f 7/1/1 6/1/1 5/1/1
f 8/1/1 6/1/1 7/1/1
f 11/2/1 9/2/1 8/2/1
f 12/2/1 9/2/1 11/2/1
f 13/1/1 11/1/1 10/1/1
f 14/1/1 11/1/1 13/1/1
f 17/1/1 16/1/1 15/1/1
f 18/1/1 16/1/1 17/1/1
f 21/2/1 20/2/1 19/2/1
f 22/2/1 20/2/1 21/2/1
f 25/1/1 24/1/1 23/1/1
f 26/1/1 24/1/1 25/1/1
f 31/2/1 28/2/1 27/2/1
f 32/2/1 28/2/1 31/2/1
f 33/1/1 30/1/1 29/1/1
f 34/1/1 30/1/1 33/1/1
f 37/1/1 36/1/1 35/1/1
f 38/1/1 36/1/1 37/1/1
f 41/1/1 40/1/1 39/1/1
f 42/1/1 40/1/1 41/1/1
f 45/2/1 44/2/1 43/2/1
f 46/2/1 44/2/1 45/2/1
f 49/1/1 48/1/1 47/1/1
f 50/1/1 48/1/1 49/1/1
f 55/2/1 52/2/1 51/2/1
f 56/2/1 52/2/1 55/2/1
f 57/1/1 54/1/1 53/1/1
f 58/1/1 54/1/1 57/1/1
f 61/1/1 60/1/1 59/1/1
f 62/1/1 60/1/1 61/1/1
f 67/2/1 64/2/1 63/2/1
f 68/2/1 64/2/1 67/2/1
f 69/1/1 66/1/1 65/1/1
f 70/1/1 66/1/1 69/1/1
f 73/1/1 72/1/1 71/1/1
f 74/1/1 72/1/1 73/1/1
f 79/2/1 76/2/1 75/2/1
f 80/2/1 76/2/1 79/2/1
f 81/1/1 78/1/1 77/1/1
f 82/1/1 78/1/1 81/1/1
f 85/1/1 84/1/1 83/1/1
f 86/1/1 84/1/1 85/1/1
f 91/1/1 88/1/1 87/1/1
f 92/1/1 88/1/1 91/1/1
f 93/1/1 90/1/1 89/1/1
f 94/1/1 90/1/1 93/1/1
f 99/1/1 96/1/1 95/1/1
f 100/1/1 96/1/1 99/1/1
f 101/1/1 96/1/1 100/1/1
f 103/2/1 98/2/1 97/2/1
f 104/2/1 98/2/1 103/2/1
f 106/1/1 102/1/1 101/1/1
f 106/1/1 101/1/1 100/1/1
f 107/1/1 102/1/1 106/1/1
f 108/1/1 102/1/1 107/1/1
f 109/1/1 106/1/1 105/1/1
f 109/1/1 107/1/1 106/1/1
f 110/1/1 107/1/1 109/1/1
f 115/1/1 112/1/1 111/1/1
f 116/1/1 112/1/1 115/1/1
f 117/2/1 114/2/1 113/2/1
f 118/2/1 114/2/1 117/2/1
f 121/1/1 120/1/1 119/1/1
f 122/1/1 120/1/1 121/1/1
f 127/1/1 124/1/1 123/1/1
f 128/1/1 124/1/1 127/1/1
f 129/2/1 126/2/1 125/2/1
f 130/2/1 126/2/1 129/2/1
f 133/1/1 132/1/1 131/1/1
f 134/1/1 132/1/1 133/1/1
f 139/1/1 136/1/1 135/1/1
f 140/1/1 136/1/1 139/1/1
f 141/2/1 138/2/1 137/2/1
f 142/2/1 138/2/1 141/2/1
f 145/1/1 144/1/1 143/1/1
f 146/1/1 144/1/1 145/1/1
f 151/1/1 148/1/1 147/1/1
f 152/1/1 148/1/1 151/1/1
f 153/2/1 150/2/1 149/2/1
f 154/2/1 150/2/1 153/2/1
f 157/1/1 156/1/1 155/1/1
f 158/1/1 156/1/1 157/1/1
f 163/1/1 160/1/1 159/1/1
f 164/1/1 160/1/1 163/1/1
f 169/2/1 162/2/1 161/2/1
f 170/2/1 162/2/1 169/2/1
f 173/3/1 166/3/1 165/3/1
f 174/3/1 166/3/1 173/3/1
f 175/3/1 168/3/1 167/3/1
f 176/3/1 168/3/1 175/3/1
f 177/1/1 172/1/1 171/1/1
f 178/1/1 172/1/1 177/1/1
f 187/1/1 180/1/1 179/1/1
f 188/1/1 180/1/1 187/1/1
f 189/1/1 182/1/1 181/1/1
f 190/1/1 182/1/1 189/1/1
f 195/1/1 184/1/1 183/1/1
f 196/1/1 184/1/1 195/1/1
f 197/2/1 186/2/1 185/2/1
f 198/2/1 186/2/1 197/2/1
f 203/3/1 192/3/1 191/3/1
f 204/3/1 192/3/1 203/3/1
f 205/3/1 194/3/1 193/3/1
f 206/3/1 194/3/1 205/3/1
f 209/1/1 200/1/1 199/1/1
f 210/1/1 200/1/1 209/1/1
f 211/1/1 202/1/1 201/1/1
f 212/1/1 202/1/1 211/1/1
f 213/1/1 208/1/1 207/1/1
f 214/1/1 208/1/1 213/1/1
f 222/1/1 216/1/1 215/1/1
f 223/1/1 216/1/1 222/1/1
f 224/1/1 218/1/1 217/1/1
f 225/1/1 218/1/1 224/1/1
f 228/1/1 220/1/1 219/1/1
f 229/1/1 220/1/1 228/1/1
f 230/1/1 222/1/1 221/1/1
f 231/1/1 222/1/1 230/1/1
f 235/3/1 227/3/1 226/3/1
f 236/3/1 227/3/1 235/3/1
f 239/1/1 232/1/1 231/1/1
f 240/1/1 232/1/1 239/1/1
f 241/1/1 234/1/1 233/1/1
f 242/1/1 234/1/1 241/1/1
f 243/1/1 238/1/1 237/1/1
f 244/1/1 238/1/1 243/1/1
f 247/1/1 246/1/1 245/1/1
f 248/1/1 246/1/1 247/1/1
f 251/1/1 250/1/1 249/1/1
f 252/1/1 250/1/1 251/1/1
f 253/1/2 254/1/2 255/1/2
f 255/1/2 254/1/2 256/1/2
f 257/1/2 258/1/2 259/1/2
f 259/1/2 258/1/2 260/1/2
f 261/1/2 262/1/2 267/1/2
f 267/1/2 262/1/2 268/1/2
f 263/1/2 264/1/2 271/1/2
f 271/1/2 264/1/2 272/1/2
f 265/1/2 266/1/2 273/1/2
f 273/1/2 266/1/2 274/1/2
f 269/3/2 270/3/2 278/3/2
f 278/3/2 270/3/2 279/3/2
f 274/1/2 275/1/2 283/1/2
f 283/1/2 275/1/2 284/1/2
f 276/1/2 277/1/2 285/1/2
f 285/1/2 277/1/2 286/1/2
f 280/1/2 281/1/2 287/1/2
f 287/1/2 281/1/2 288/1/2
f 282/1/2 283/1/2 289/1/2
f 289/1/2 283/1/2 290/1/2
f 291/1/2 292/1/2 297/1/2
f 297/1/2 292/1/2 298/1/2
f 293/1/2 294/1/2 303/1/2
f 303/1/2 294/1/2 304/1/2
f 295/1/2 296/1/2 305/1/2
f 305/1/2 296/1/2 306/1/2
f 299/3/2 300/3/2 311/3/2
f 311/3/2 300/3/2 312/3/2
f 301/3/2 302/3/2 313/3/2
f 313/3/2 302/3/2 314/3/2
f 307/2/2 308/2/2 319/2/2
f 319/2/2 308/2/2 320/2/2
f 309/1/2 310/1/2 321/1/2
f 321/1/2 310/1/2 322/1/2
f 315/1/2 316/1/2 323/1/2
f 323/1/2 316/1/2 324/1/2
f 317/1/2 318/1/2 325/1/2
f 325/1/2 318/1/2 326/1/2
f 327/1/2 328/1/2 333/1/2
f 333/1/2 328/1/2 334/1/2
f 329/3/2 330/3/2 337/3/2
f 337/3/2 330/3/2 338/3/2
f 331/3/2 332/3/2 339/3/2
f 339/3/2 332/3/2 340/3/2
f 335/2/2 336/2/2 343/2/2
f 343/2/2 336/2/2 344/2/2
f 341/1/2 342/1/2 345/1/2
f 345/1/2 342/1/2 346/1/2
f 347/1/2 348/1/2 349/1/2
f 349/1/2 348/1/2 350/1/2
f 351/2/2 352/2/2 355/2/2
f 355/2/2 352/2/2 356/2/2
f 353/1/2 354/1/2 357/1/2
f 357/1/2 354/1/2 358/1/2
f 359/1/2 360/1/2 361/1/2
f 361/1/2 360/1/2 362/1/2
f 363/2/2 364/2/2 367/2/2
f 367/2/2 364/2/2 368/2/2
f 365/1/2 366/1/2 369/1/2
f 369/1/2 366/1/2 370/1/2
f 371/1/2 372/1/2 373/1/2
f 373/1/2 372/1/2 374/1/2
f 375/2/2 376/2/2 379/2/2
f 379/2/2 376/2/2 380/2/2
f 377/1/2 378/1/2 381/1/2
f 381/1/2 378/1/2 382/1/2
f 383/1/2 384/1/2 385/1/2
f 385/1/2 384/1/2 386/1/2
f 387/2/2 388/2/2 391/2/2
f 391/2/2 388/2/2 392/2/2
f 389/1/2 390/1/2 393/1/2
f 393/1/2 390/1/2 394/1/2
f 395/1/2 396/1/2 398/1/2
f 398/1/2 396/1/2 399/1/2
f 399/1/2 396/1/2 400/1/2
f 397/1/2 398/1/2 403/1/2
f 398/1/2 399/1/2 403/1/2
f 403/1/2 399/1/2 404/1/2
f 404/1/2 399/1/2 405/1/2
f 401/2/2 402/2/2 407/2/2
f 407/2/2 402/2/2 408/2/2
f 405/1/2 406/1/2 409/1/2
f 404/1/2 405/1/2 409/1/2
f 409/1/2 406/1/2 410/1/2
f 411/1/2 412/1/2 415/1/2
f 415/1/2 412/1/2 416/1/2
f 413/1/2 414/1/2 417/1/2
f 417/1/2 414/1/2 418/1/2
f 419/1/2 420/1/2 421/1/2
f 421/1/2 420/1/2 422/1/2
f 423/1/2 424/1/2 427/1/2
f 427/1/2 424/1/2 428/1/2
f 425/2/2 426/2/2 429/2/2
f 429/2/2 426/2/2 430/2/2
f 431/1/2 432/1/2 433/1/2
f 433/1/2 432/1/2 434/1/2
f 435/1/2 436/1/2 439/1/2
f 439/1/2 436/1/2 440/1/2
f 437/2/2 438/2/2 441/2/2
f 441/2/2 438/2/2 442/2/2
f 443/1/2 444/1/2 445/1/2
f 445/1/2 444/1/2 446/1/2
f 447/1/2 448/1/2 451/1/2
f 451/1/2 448/1/2 452/1/2
f 449/2/2 450/2/2 453/2/2
f 453/2/2 450/2/2 454/2/2
f 455/1/2 456/1/2 457/1/2
f 457/1/2 456/1/2 458/1/2
f 459/2/2 460/2/2 461/2/2
f 461/2/2 460/2/2 462/2/2
f 463/1/2 464/1/2 465/1/2
f 465/1/2 464/1/2 466/1/2
f 467/1/2 468/1/2 469/1/2
f 469/1/2 468/1/2 470/1/2
f 471/1/2 472/1/2 475/1/2
f 475/1/2 472/1/2 476/1/2
f 473/2/2 474/2/2 477/2/2
f 477/2/2 474/2/2 478/2/2
f 479/1/2 480/1/2 481/1/2
f 481/1/2 480/1/2 482/1/2
f 483/2/2 484/2/2 485/2/2
f 485/2/2 484/2/2 486/2/2
f 487/1/2 488/1/2 489/1/2
f 489/1/2 488/1/2 490/1/2
f 491/1/2 492/1/2 494/1/2
f 494/1/2 492/1/2 495/1/2
f 493/2/2 494/2/2 496/2/2
f 496/2/2 494/2/2 497/2/2
f 497/1/2 498/1/2 499/1/2
f 499/1/2 498/1/2 500/1/2
f 501/1/2 502/1/2 503/1/2
f 503/1/2 502/1/2 504/1/2
f 507/1/3 506/1/3 505/1/3
f 508/1/3 506/1/3 507/1/3
f 512/2/3 510/2/3 509/2/3
f 513/2/3 510/2/3 512/2/3
f 515/1/3 512/1/3 511/1/3
f 516/1/3 512/1/3 515/1/3
f 517/1/3 514/1/3 513/1/3
f 518/1/3 514/1/3 517/1/3
f 521/1/3 520/1/3 519/1/3
f 522/1/3 520/1/3 521/1/3
f 525/2/3 524/2/3 523/2/3
f 526/2/3 524/2/3 525/2/3
f 529/2/3 528/2/3 527/2/3
f 530/2/3 528/2/3 529/2/3
f 535/1/3 532/1/3 531/1/3
f 536/1/3 532/1/3 535/1/3
f 537/1/3 534/1/3 533/1/3
f 538/1/3 534/1/3 537/1/3
f 543/1/3 540/1/3 539/1/3
f 544/1/3 540/1/3 543/1/3
f 545/1/3 542/1/3 541/1/3
f 546/1/3 542/1/3 545/1/3
f 549/2/3 548/2/3 547/2/3
f 550/2/3 548/2/3 549/2/3
f 553/2/3 552/2/3 551/2/3
f 554/2/3 552/2/3 553/2/3
f 559/1/3 556/1/3 555/1/3
f 560/1/3 556/1/3 559/1/3
f 561/1/3 558/1/3 557/1/3
f 562/1/3 558/1/3 561/1/3
f 565/2/3 564/2/3 563/2/3
f 566/2/3 564/2/3 565/2/3
f 571/1/3 568/1/3 567/1/3
f 572/1/3 568/1/3 571/1/3
f 573/1/3 570/1/3 569/1/3
f 574/1/3 570/1/3 573/1/3
f 577/2/3 576/2/3 575/2/3
f 578/2/3 576/2/3 577/2/3
f 583/1/3 580/1/3 579/1/3
f 584/1/3 580/1/3 583/1/3
f 585/1/3 582/1/3 581/1/3
f 586/1/3 582/1/3 585/1/3
f 589/1/3 588/1/3 587/1/3
f 590/1/3 588/1/3 589/1/3
f 595/1/3 592/1/3 591/1/3
f 596/1/3 592/1/3 595/1/3
f 597/1/3 594/1/3 593/1/3
f 598/1/3 594/1/3 597/1/3
f 602/1/3 600/1/3 599/1/3
f 603/1/3 600/1/3 602/1/3
f 605/1/3 602/1/3 601/1/3
f 605/1/3 604/1/3 603/1/3
f 605/1/3 603/1/3 602/1/3
f 606/1/3 604/1/3 605/1/3
f 607/1/3 605/1/3 601/1/3
f 608/1/3 605/1/3 607/1/3
f 609/1/3 604/1/3 606/1/3
f 610/1/3 604/1/3 609/1/3
f 613/2/3 612/2/3 611/2/3
f 614/2/3 612/2/3 613/2/3
f 619/1/3 616/1/3 615/1/3
f 620/1/3 616/1/3 619/1/3
f 621/1/3 618/1/3 617/1/3
f 622/1/3 618/1/3 621/1/3
f 625/2/3 624/2/3 623/2/3
f 626/2/3 624/2/3 625/2/3
f 631/1/3 628/1/3 627/1/3
f 632/1/3 628/1/3 631/1/3
f 633/1/3 630/1/3 629/1/3
f 634/1/3 630/1/3 633/1/3
f 637/2/3 636/2/3 635/2/3
f 638/2/3 636/2/3 637/2/3
f 643/1/3 640/1/3 639/1/3
f 644/1/3 640/1/3 643/1/3
f 645/1/3 642/1/3 641/1/3
f 646/1/3 642/1/3 645/1/3
f 649/2/3 648/2/3 647/2/3
f 650/2/3 648/2/3 649/2/3
f 655/1/3 652/1/3 651/1/3
f 656/1/3 652/1/3 655/1/3
f 657/1/3 654/1/3 653/1/3
f 658/1/3 654/1/3 657/1/3
f 661/2/3 660/2/3 659/2/3
f 662/2/3 660/2/3 661/2/3
f 665/3/3 664/3/3 663/3/3
f 666/3/3 664/3/3 665/3/3
f 669/3/3 668/3/3 667/3/3
f 670/3/3 668/3/3 669/3/3
f 675/1/3 672/1/3 671/1/3
f 676/1/3 672/1/3 675/1/3
f 677/1/3 674/1/3 673/1/3
f 678/1/3 674/1/3 677/1/3
f 681/2/3 680/2/3 679/2/3
f 682/2/3 680/2/3 681/2/3
f 687/1/3 684/1/3 683/1/3
f 688/1/3 684/1/3 687/1/3
f 689/1/3 686/1/3 685/1/3
f 690/1/3 686/1/3 689/1/3
f 693/3/3 692/3/3 691/3/3
f 694/3/3 692/3/3 693/3/3
f 697/3/3 696/3/3 695/3/3
f 698/3/3 696/3/3 697/3/3
f 703/1/3 700/1/3 699/1/3
f 704/1/3 700/1/3 703/1/3
f 705/1/3 702/1/3 701/1/3
f 706/1/3 702/1/3 705/1/3
f 711/1/3 708/1/3 707/1/3
f 712/1/3 708/1/3 711/1/3
f 713/1/3 710/1/3 709/1/3
f 714/1/3 710/1/3 713/1/3
f 717/2/3 716/2/3 715/2/3
f 718/2/3 716/2/3 717/2/3
f 723/1/3 720/1/3 719/1/3
f 724/1/3 720/1/3 723/1/3
f 725/1/3 722/1/3 721/1/3
f 726/1/3 722/1/3 725/1/3
f 729/3/3 728/3/3 727/3/3
f 730/3/3 728/3/3 729/3/3
f 735/1/3 732/1/3 731/1/3
f 736/1/3 732/1/3 735/1/3
f 737/1/3 734/1/3 733/1/3
f 738/1/3 734/1/3 737/1/3
f 743/1/3 740/1/3 739/1/3
f 744/1/3 740/1/3 743/1/3
f 745/1/3 742/1/3 741/1/3
f 746/1/3 742/1/3 745/1/3
f 747/1/3 745/1/3 744/1/3
f 748/1/3 745/1/3 747/1/3
f 753/1/3 750/1/3 749/1/3
f 754/1/3 750/1/3 753/1/3
f 755/1/3 752/1/3 751/1/3
f 756/1/3 752/1/3 755/1/3
f 757/1/4 758/1/4 761/1/4
f 761/1/4 758/1/4 762/1/4
f 759/1/4 760/1/4 763/1/4
f 763/1/4 760/1/4 764/1/4
f 765/1/4 766/1/4 768/1/4
f 768/1/4 766/1/4 769/1/4
f 767/1/4 768/1/4 771/1/4
f 771/1/4 768/1/4 772/1/4
f 769/1/4 770/1/4 773/1/4
f 773/1/4 770/1/4 774/1/4
f 775/1/4 776/1/4 779/1/4
f 779/1/4 776/1/4 780/1/4
f 777/1/4 778/1/4 781/1/4
f 781/1/4 778/1/4 782/1/4
f 783/3/4 784/3/4 785/3/4
f 785/3/4 784/3/4 786/3/4
f 787/1/4 788/1/4 791/1/4
f 791/1/4 788/1/4 792/1/4
f 789/1/4 790/1/4 793/1/4
f 793/1/4 790/1/4 794/1/4
f 795/2/4 796/2/4 797/2/4
f 797/2/4 796/2/4 798/2/4
f 799/1/4 800/1/4 803/1/4
f 803/1/4 800/1/4 804/1/4
f 801/1/4 802/1/4 805/1/4
f 805/1/4 802/1/4 806/1/4
f 807/1/4 808/1/4 811/1/4
f 811/1/4 808/1/4 812/1/4
f 809/1/4 810/1/4 813/1/4
f 813/1/4 810/1/4 814/1/4
f 815/3/4 816/3/4 817/3/4
f 817/3/4 816/3/4 818/3/4
f 819/3/4 820/3/4 821/3/4
f 821/3/4 820/3/4 822/3/4
f 823/1/4 824/1/4 827/1/4
f 827/1/4 824/1/4 828/1/4
f 825/1/4 826/1/4 829/1/4
f 829/1/4 826/1/4 830/1/4
f 831/2/4 832/2/4 833/2/4
f 833/2/4 832/2/4 834/2/4
f 835/1/4 836/1/4 839/1/4
f 839/1/4 836/1/4 840/1/4
f 837/1/4 838/1/4 841/1/4
f 841/1/4 838/1/4 842/1/4
f 843/3/4 844/3/4 845/3/4
f 845/3/4 844/3/4 846/3/4
f 847/3/4 848/3/4 849/3/4
f 849/3/4 848/3/4 850/3/4
f 851/2/4 852/2/4 853/2/4
f 853/2/4 852/2/4 854/2/4
f 855/1/4 856/1/4 859/1/4
f 859/1/4 856/1/4 860/1/4
f 857/1/4 858/1/4 861/1/4
f 861/1/4 858/1/4 862/1/4
f 863/2/4 864/2/4 865/2/4
f 865/2/4 864/2/4 866/2/4
f 867/1/4 868/1/4 871/1/4
f 871/1/4 868/1/4 872/1/4
f 869/1/4 870/1/4 873/1/4
f 873/1/4 870/1/4 874/1/4
f 875/2/4 876/2/4 877/2/4
f 877/2/4 876/2/4 878/2/4
f 879/1/4 880/1/4 883/1/4
f 883/1/4 880/1/4 884/1/4
f 881/1/4 882/1/4 885/1/4
f 885/1/4 882/1/4 886/1/4
f 887/2/4 888/2/4 889/2/4
f 889/2/4 888/2/4 890/2/4
f 891/1/4 892/1/4 895/1/4
f 895/1/4 892/1/4 896/1/4
f 893/1/4 894/1/4 897/1/4
f 897/1/4 894/1/4 898/1/4
f 899/2/4 900/2/4 901/2/4
f 901/2/4 900/2/4 902/2/4
f 903/1/4 904/1/4 907/1/4
f 905/1/4 906/1/4 908/1/4
f 903/1/4 907/1/4 909/1/4
f 907/1/4 908/1/4 909/1/4
f 909/1/4 908/1/4 910/1/4
f 908/1/4 906/1/4 911/1/4
f 910/1/4 908/1/4 911/1/4
f 911/1/4 906/1/4 912/1/4
f 910/1/4 911/1/4 913/1/4
f 913/1/4 911/1/4 914/1/4
f 915/1/4 916/1/4 919/1/4
f 919/1/4 916/1/4 920/1/4
f 917/1/4 918/1/4 921/1/4
f 921/1/4 918/1/4 922/1/4
f 923/1/4 924/1/4 925/1/4
f 925/1/4 924/1/4 926/1/4
f 927/1/4 928/1/4 931/1/4
f 931/1/4 928/1/4 932/1/4
f 929/1/4 930/1/4 933/1/4
f 933/1/4 930/1/4 934/1/4
f 935/2/4 936/2/4 937/2/4
f 937/2/4 936/2/4 938/2/4
f 939/1/4 940/1/4 943/1/4
f 943/1/4 940/1/4 944/1/4
f 941/1/4 942/1/4 945/1/4
f 945/1/4 942/1/4 946/1/4
f 947/2/4 948/2/4 949/2/4
f 949/2/4 948/2/4 950/2/4
f 951/1/4 952/1/4 955/1/4
f 955/1/4 952/1/4 956/1/4
f 953/1/4 954/1/4 957/1/4
f 957/1/4 954/1/4 958/1/4
f 959/2/4 960/2/4 961/2/4
f 961/2/4 960/2/4 962/2/4
f 963/2/4 964/2/4 965/2/4
f 965/2/4 964/2/4 966/2/4
f 967/1/4 968/1/4 971/1/4
f 971/1/4 968/1/4 972/1/4
f 969/1/4 970/1/4 973/1/4
f 973/1/4 970/1/4 974/1/4
f 975/1/4 976/1/4 979/1/4
f 979/1/4 976/1/4 980/1/4
f 977/1/4 978/1/4 981/1/4
f 981/1/4 978/1/4 982/1/4
f 983/2/4 984/2/4 985/2/4
f 985/2/4 984/2/4 986/2/4
f 987/2/4 988/2/4 989/2/4
f 989/2/4 988/2/4 990/2/4
f 991/1/4 992/1/4 993/1/4
f 993/1/4 992/1/4 994/1/4
f 995/1/4 996/1/4 999/1/4
f 999/1/4 996/1/4 1000/1/4
f 997/1/4 998/1/4 1001/1/4
f 1001/1/4 998/1/4 1002/1/4
f 1000/2/4 1001/2/4 1003/2/4
f 1003/2/4 1001/2/4 1004/2/4
f 1005/1/4 1006/1/4 1007/1/4
f 1007/1/4 1006/1/4 1008/1/4
f 1012/1/5 1010/1/5 1009/1/5
f 1014/1/5 1012/1/5 1011/1/5
f 1016/1/5 1014/1/5 1013/1/5
f 1018/1/5 1016/1/5 1015/1/5
f 1020/1/5 1018/1/5 1017/1/5
f 1022/1/5 1020/1/5 1019/1/5
f 1024/1/5 1022/1/5 1021/1/5
f 1025/1/5 1020/1/5 1022/1/5
f 1025/1/5 1022/1/5 1024/1/5
f 1026/1/5 1012/1/5 1014/1/5
f 1026/1/5 1020/1/5 1025/1/5
f 1026/1/5 1014/1/5 1016/1/5
f 1026/1/5 1016/1/5 1018/1/5
f 1026/1/5 1018/1/5 1020/1/5
f 1027/1/5 1025/1/5 1024/1/5
f 1027/1/5 1024/1/5 1023/1/5
f 1028/1/5 1025/1/5 1027/1/5
f 1029/1/5 1025/1/5 1028/1/5
f 1030/1/5 1025/1/5 1029/1/5
f 1031/1/5 1012/1/5 1026/1/5
f 1032/1/5 1010/1/5 1012/1/5
f 1032/1/5 1012/1/5 1031/1/5
f 1033/1/5 1010/1/5 1032/1/5
f 1035/1/5 1029/1/5 1028/1/5
f 1036/1/5 1029/1/5 1035/1/5
f 1037/1/5 1029/1/5 1036/1/5
f 1038/1/5 1029/1/5 1037/1/5
f 1039/1/5 1034/1/5 1033/1/5
f 1039/1/5 1033/1/5 1032/1/5
f 1040/1/5 1034/1/5 1039/1/5
f 1041/1/5 1034/1/5 1040/1/5
f 1043/1/5 1037/1/5 1036/1/5
f 1044/1/5 1037/1/5 1043/1/5
f 1045/1/5 1042/1/5 1041/1/5
f 1045/1/5 1041/1/5 1040/1/5
f 1047/1/5 1037/1/5 1044/1/5
f 1048/1/5 1037/1/5 1047/1/5
f 1049/1/5 1046/1/5 1045/1/5
f 1051/1/5 1037/1/5 1048/1/5
f 1052/1/5 1037/1/5 1051/1/5
f 1053/1/5 1050/1/5 1049/1/5
f 1055/1/5 1037/1/5 1052/1/5
f 1056/1/5 1037/1/5 1055/1/5
f 1057/1/5 1037/1/5 1056/1/5
f 1060/1/5 1054/1/5 1053/1/5
f 1060/1/5 1045/1/5 1040/1/5
f 1060/1/5 1049/1/5 1045/1/5
f 1060/1/5 1053/1/5 1049/1/5
f 1061/1/5 1054/1/5 1060/1/5
f 1063/1/5 1058/1/5 1057/1/5
f 1063/1/5 1057/1/5 1056/1/5
f 1064/1/5 1058/1/5 1063/1/5
f 1065/1/5 1058/1/5 1064/1/5
f 1068/1/5 1062/1/5 1061/1/5
f 1068/1/5 1061/1/5 1060/1/5
f 1068/1/5 1060/1/5 1059/1/5
f 1069/1/5 1062/1/5 1068/1/5
f 1071/1/5 1066/1/5 1065/1/5
f 1071/1/5 1065/1/5 1064/1/5
f 1072/1/5 1070/1/5 1069/1/5
f 1072/1/5 1069/1/5 1068/1/5
f 1072/1/5 1068/1/5 1067/1/5
f 1073/1/5 1070/1/5 1072/1/5
f 1074/1/5 1070/1/5 1073/1/5
f 1075/1/5 1072/1/5 1071/1/5
f 1075/1/5 1073/1/5 1072/1/5
f 1076/1/5 1073/1/5 1075/1/5
f 1077/1/5 1075/1/5 1071/1/5
f 1078/1/5 1075/1/5 1077/1/5
f 1079/1/5 1077/1/5 1071/1/5
f 1080/1/5 1077/1/5 1079/1/5
f 1081/1/5 1079/1/5 1071/1/5
f 1082/1/5 1079/1/5 1081/1/5
f 1083/1/5 1071/1/5 1064/1/5
f 1083/1/5 1081/1/5 1071/1/5
f 1084/1/5 1081/1/5 1083/1/5
f 1085/1/5 1083/1/5 1064/1/5
f 1086/1/5 1083/1/5 1085/1/5
f 1087/1/5 1085/1/5 1064/1/5
f 1088/1/5 1085/1/5 1087/1/5
f 1092/1/5 1090/1/5 1089/1/5
f 1093/1/5 1090/1/5 1092/1/5
f 1097/2/5 1092/2/5 1091/2/5
f 1099/2/5 1097/2/5 1096/2/5
f 1100/2/5 1092/2/5 1097/2/5
f 1100/2/5 1097/2/5 1099/2/5
f 1101/2/5 1092/2/5 1100/2/5
f 1102/2/5 1099/2/5 1098/2/5
f 1102/2/5 1100/2/5 1099/2/5
f 1103/2/5 1100/2/5 1102/2/5
f 1105/2/5 1102/2/5 1098/2/5
f 1107/2/5 1105/2/5 1104/2/5
f 1108/2/5 1102/2/5 1105/2/5
f 1108/2/5 1105/2/5 1107/2/5
f 1109/2/5 1102/2/5 1108/2/5
f 1111/2/5 1107/2/5 1106/2/5
f 1111/2/5 1108/2/5 1107/2/5
f 1112/2/5 1108/2/5 1111/2/5
f 1113/2/5 1108/2/5 1112/2/5
f 1115/2/5 1111/2/5 1110/2/5
f 1115/2/5 1112/2/5 1111/2/5
f 1116/2/5 1112/2/5 1115/2/5
f 1117/2/5 1112/2/5 1116/2/5
f 1119/2/5 1115/2/5 1114/2/5
f 1119/2/5 1116/2/5 1115/2/5
f 1120/2/5 1116/2/5 1119/2/5
f 1121/2/5 1116/2/5 1120/2/5
f 1124/1/5 1119/1/5 1118/1/5
f 1124/1/5 1120/1/5 1119/1/5
f 1125/1/5 1120/1/5 1124/1/5
f 1128/1/5 1095/1/5 1094/1/5
f 1130/1/5 1123/1/5 1122/1/5
f 1131/1/5 1123/1/5 1130/1/5
f 1134/3/5 1127/3/5 1126/3/5
f 1135/3/5 1127/3/5 1134/3/5
f 1136/3/5 1127/3/5 1135/3/5
f 1137/3/5 1127/3/5 1136/3/5
f 1139/1/5 1128/1/5 1094/1/5
f 1140/2/5 1129/2/5 1128/2/5
f 1140/1/5 1128/1/5 1139/1/5
f 1141/2/5 1129/2/5 1140/2/5
f 1143/2/5 1132/2/5 1131/2/5
f 1144/2/5 1132/2/5 1143/2/5
f 1145/2/5 1132/2/5 1144/2/5
f 1148/3/5 1134/3/5 1133/3/5
f 1148/3/5 1135/3/5 1134/3/5
f 1149/3/5 1135/3/5 1148/3/5
f 1150/3/5 1135/3/5 1149/3/5
f 1151/3/5 1138/3/5 1137/3/5
f 1151/3/5 1137/3/5 1136/3/5
f 1152/3/5 1138/3/5 1151/3/5
f 1153/3/5 1138/3/5 1152/3/5
f 1155/2/5 1142/2/5 1141/2/5
f 1155/2/5 1141/2/5 1140/2/5
f 1156/2/5 1142/2/5 1155/2/5
f 1157/2/5 1142/2/5 1156/2/5
f 1159/2/5 1146/2/5 1145/2/5
f 1159/2/5 1145/2/5 1144/2/5
f 1160/2/5 1146/2/5 1159/2/5
f 1161/2/5 1146/2/5 1160/2/5
f 1163/3/5 1149/3/5 1148/3/5
f 1163/3/5 1148/3/5 1147/3/5
f 1164/3/5 1149/3/5 1163/3/5
f 1165/3/5 1154/3/5 1153/3/5
f 1165/3/5 1153/3/5 1152/3/5
f 1166/3/5 1154/3/5 1165/3/5
f 1167/2/5 1158/2/5 1157/2/5
f 1167/2/5 1157/2/5 1156/2/5
f 1168/2/5 1158/2/5 1167/2/5
f 1169/2/5 1158/2/5 1168/2/5
f 1171/2/5 1162/2/5 1161/2/5
f 1171/2/5 1161/2/5 1160/2/5
f 1172/2/5 1162/2/5 1171/2/5
f 1173/2/5 1162/2/5 1172/2/5
f 1175/2/5 1170/2/5 1169/2/5
f 1175/2/5 1169/2/5 1168/2/5
f 1176/2/5 1170/2/5 1175/2/5
f 1177/2/5 1170/2/5 1176/2/5
f 1179/2/5 1174/2/5 1173/2/5
f 1179/2/5 1173/2/5 1172/2/5
f 1180/2/5 1174/2/5 1179/2/5
f 1181/2/5 1174/2/5 1180/2/5
f 1183/3/5 1163/3/5 1147/3/5
f 1186/3/5 1154/3/5 1166/3/5
f 1187/2/5 1178/2/5 1177/2/5
f 1187/2/5 1177/2/5 1176/2/5
f 1188/2/5 1178/2/5 1187/2/5
f 1189/2/5 1178/2/5 1188/2/5
f 1191/2/5 1182/2/5 1181/2/5
f 1191/2/5 1181/2/5 1180/2/5
f 1192/2/5 1182/2/5 1191/2/5
f 1193/2/5 1182/2/5 1192/2/5
f 1195/3/5 1184/3/5 1183/3/5
f 1195/3/5 1183/3/5 1147/3/5
f 1196/3/5 1184/3/5 1195/3/5
f 1197/3/5 1184/3/5 1196/3/5
f 1200/3/5 1186/3/5 1185/3/5
f 1201/3/5 1154/3/5 1186/3/5
f 1201/3/5 1186/3/5 1200/3/5
f 1202/3/5 1154/3/5 1201/3/5
f 1203/2/5 1190/2/5 1189/2/5
f 1203/2/5 1189/2/5 1188/2/5
f 1204/2/5 1190/2/5 1203/2/5
f 1205/2/5 1190/2/5 1204/2/5
f 1207/2/5 1194/2/5 1193/2/5
f 1207/2/5 1193/2/5 1192/2/5
f 1208/2/5 1194/2/5 1207/2/5
f 1209/2/5 1194/2/5 1208/2/5
f 1211/3/5 1198/3/5 1197/3/5
f 1211/3/5 1197/3/5 1196/3/5
f 1212/3/5 1198/3/5 1211/3/5
f 1213/3/5 1198/3/5 1212/3/5
f 1214/3/5 1200/3/5 1199/3/5
f 1214/3/5 1201/3/5 1200/3/5
f 1215/3/5 1201/3/5 1214/3/5
f 1216/3/5 1201/3/5 1215/3/5
f 1217/2/5 1206/2/5 1205/2/5
f 1217/2/5 1205/2/5 1204/2/5
f 1218/2/5 1206/2/5 1217/2/5
f 1220/2/5 1209/2/5 1208/2/5
f 1221/1/5 1210/1/5 1209/1/5
f 1221/2/5 1209/2/5 1220/2/5
f 1222/3/5 1215/3/5 1214/3/5
f 1222/3/5 1213/3/5 1212/3/5
f 1222/3/5 1214/3/5 1213/3/5
f 1223/3/5 1215/3/5 1222/3/5
f 1226/1/5 1219/1/5 1218/1/5
f 1227/1/5 1219/1/5 1226/1/5
f 1229/1/5 1225/1/5 1224/1/5
f 1230/1/5 1225/1/5 1229/1/5
f 1231/1/5 1225/1/5 1230/1/5
f 1233/2/5 1229/2/5 1228/2/5
f 1233/2/5 1230/2/5 1229/2/5
f 1234/2/5 1230/2/5 1233/2/5
f 1235/2/5 1230/2/5 1234/2/5
f 1237/2/5 1233/2/5 1232/2/5
f 1237/2/5 1234/2/5 1233/2/5
f 1238/2/5 1234/2/5 1237/2/5
f 1239/2/5 1234/2/5 1238/2/5
f 1241/2/5 1237/2/5 1236/2/5
f 1241/2/5 1238/2/5 1237/2/5
f 1242/2/5 1238/2/5 1241/2/5
f 1243/2/5 1238/2/5 1242/2/5
f 1244/2/5 1241/2/5 1240/2/5
f 1244/2/5 1242/2/5 1241/2/5
f 1245/2/5 1242/2/5 1244/2/5
f 1247/2/5 1244/2/5 1240/2/5
f 1249/2/5 1247/2/5 1246/2/5
f 1250/2/5 1244/2/5 1247/2/5
f 1250/2/5 1247/2/5 1249/2/5
f 1251/2/5 1244/2/5 1250/2/5
f 1252/2/5 1249/2/5 1248/2/5
f 1252/2/5 1250/2/5 1249/2/5
f 1253/2/5 1250/2/5 1252/2/5
f 1254/1/5 1210/1/5 1221/1/5
f 1255/1/5 1210/1/5 1254/1/5
f 1257/2/5 1252/2/5 1248/2/5
f 1258/2/5 1252/2/5 1257/2/5
f 1259/1/5 1257/1/5 1256/1/5
f 1260/1/5 1257/1/5 1259/1/5
f 1261/1/6 1262/1/6 1264/1/6
f 1264/1/6 1262/1/6 1265/1/6
f 1263/2/6 1264/2/6 1269/2/6
f 1268/2/6 1269/2/6 1271/2/6
f 1269/2/6 1264/2/6 1272/2/6
f 1271/2/6 1269/2/6 1272/2/6
f 1272/2/6 1264/2/6 1273/2/6
f 1270/2/6 1271/2/6 1274/2/6
f 1271/2/6 1272/2/6 1274/2/6
f 1274/2/6 1272/2/6 1275/2/6
f 1270/2/6 1274/2/6 1277/2/6
f 1276/2/6 1277/2/6 1279/2/6
f 1277/2/6 1274/2/6 1280/2/6
f 1279/2/6 1277/2/6 1280/2/6
f 1280/2/6 1274/2/6 1281/2/6
f 1278/2/6 1279/2/6 1283/2/6
f 1279/2/6 1280/2/6 1283/2/6
f 1283/2/6 1280/2/6 1284/2/6
f 1284/2/6 1280/2/6 1285/2/6
f 1282/2/6 1283/2/6 1287/2/6
f 1283/2/6 1284/2/6 1287/2/6
f 1287/2/6 1284/2/6 1288/2/6
f 1288/2/6 1284/2/6 1289/2/6
f 1286/2/6 1287/2/6 1291/2/6
f 1287/2/6 1288/2/6 1291/2/6
f 1291/2/6 1288/2/6 1292/2/6
f 1292/2/6 1288/2/6 1293/2/6
f 1290/1/6 1291/1/6 1296/1/6
f 1291/1/6 1292/1/6 1296/1/6
f 1296/1/6 1292/1/6 1297/1/6
f 1266/1/6 1267/1/6 1300/1/6
f 1294/1/6 1295/1/6 1302/1/6
f 1302/1/6 1295/1/6 1303/1/6
f 1298/3/6 1299/3/6 1306/3/6
f 1306/3/6 1299/3/6 1307/3/6
f 1307/3/6 1299/3/6 1308/3/6
f 1308/3/6 1299/3/6 1309/3/6
f 1266/1/6 1300/1/6 1311/1/6
f 1300/2/6 1301/2/6 1312/2/6
f 1311/1/6 1300/1/6 1312/1/6
f 1312/2/6 1301/2/6 1313/2/6
f 1303/2/6 1304/2/6 1315/2/6
f 1315/2/6 1304/2/6 1316/2/6
f 1316/2/6 1304/2/6 1317/2/6
f 1305/3/6 1306/3/6 1320/3/6
f 1306/3/6 1307/3/6 1320/3/6
f 1320/3/6 1307/3/6 1321/3/6
f 1321/3/6 1307/3/6 1322/3/6
f 1309/3/6 1310/3/6 1323/3/6
f 1308/3/6 1309/3/6 1323/3/6
f 1323/3/6 1310/3/6 1324/3/6
f 1324/3/6 1310/3/6 1325/3/6
f 1313/2/6 1314/2/6 1327/2/6
f 1312/2/6 1313/2/6 1327/2/6
f 1327/2/6 1314/2/6 1328/2/6
f 1328/2/6 1314/2/6 1329/2/6
f 1317/2/6 1318/2/6 1331/2/6
f 1316/2/6 1317/2/6 1331/2/6
f 1331/2/6 1318/2/6 1332/2/6
f 1332/2/6 1318/2/6 1333/2/6
f 1320/3/6 1321/3/6 1335/3/6
f 1319/3/6 1320/3/6 1335/3/6
f 1335/3/6 1321/3/6 1336/3/6
f 1325/3/6 1326/3/6 1337/3/6
f 1324/3/6 1325/3/6 1337/3/6
f 1337/3/6 1326/3/6 1338/3/6
f 1329/2/6 1330/2/6 1339/2/6
f 1328/2/6 1329/2/6 1339/2/6
f 1339/2/6 1330/2/6 1340/2/6
f 1340/2/6 1330/2/6 1341/2/6
f 1333/2/6 1334/2/6 1343/2/6
f 1332/2/6 1333/2/6 1343/2/6
f 1343/2/6 1334/2/6 1344/2/6
f 1344/2/6 1334/2/6 1345/2/6
f 1341/2/6 1342/2/6 1347/2/6
f 1340/2/6 1341/2/6 1347/2/6
f 1347/2/6 1342/2/6 1348/2/6
f 1348/2/6 1342/2/6 1349/2/6
f 1345/2/6 1346/2/6 1351/2/6
f 1344/2/6 1345/2/6 1351/2/6
f 1351/2/6 1346/2/6 1352/2/6
f 1352/2/6 1346/2/6 1353/2/6
f 1319/3/6 1335/3/6 1355/3/6
f 1338/3/6 1326/3/6 1358/3/6
f 1349/2/6 1350/2/6 1359/2/6
f 1348/2/6 1349/2/6 1359/2/6
f 1359/2/6 1350/2/6 1360/2/6
f 1360/2/6 1350/2/6 1361/2/6
f 1353/2/6 1354/2/6 1363/2/6
f 1352/2/6 1353/2/6 1363/2/6
f 1363/2/6 1354/2/6 1364/2/6
f 1364/2/6 1354/2/6 1365/2/6
f 1355/3/6 1356/3/6 1367/3/6
f 1319/3/6 1355/3/6 1367/3/6
f 1367/3/6 1356/3/6 1368/3/6
f 1368/3/6 1356/3/6 1369/3/6
f 1357/3/6 1358/3/6 1372/3/6
f 1358/3/6 1326/3/6 1373/3/6
f 1372/3/6 1358/3/6 1373/3/6
f 1373/3/6 1326/3/6 1374/3/6
f 1361/2/6 1362/2/6 1375/2/6
f 1360/2/6 1361/2/6 1375/2/6
f 1375/2/6 1362/2/6 1376/2/6
f 1376/2/6 1362/2/6 1377/2/6
f 1365/2/6 1366/2/6 1379/2/6
f 1364/2/6 1365/2/6 1379/2/6
f 1379/2/6 1366/2/6 1380/2/6
f 1380/2/6 1366/2/6 1381/2/6
f 1369/3/6 1370/3/6 1383/3/6
f 1368/3/6 1369/3/6 1383/3/6
f 1383/3/6 1370/3/6 1384/3/6
f 1384/3/6 1370/3/6 1385/3/6
f 1371/3/6 1372/3/6 1386/3/6
f 1372/3/6 1373/3/6 1386/3/6
f 1386/3/6 1373/3/6 1387/3/6
f 1387/3/6 1373/3/6 1388/3/6
f 1377/2/6 1378/2/6 1389/2/6
f 1376/2/6 1377/2/6 1389/2/6
f 1389/2/6 1378/2/6 1390/2/6
f 1380/2/6 1381/2/6 1392/2/6
f 1381/1/6 1382/1/6 1393/1/6
f 1392/2/6 1381/2/6 1393/2/6
f 1386/3/6 1387/3/6 1394/3/6
f 1384/3/6 1385/3/6 1394/3/6
f 1385/3/6 1386/3/6 1394/3/6
f 1394/3/6 1387/3/6 1395/3/6
f 1390/1/6 1391/1/6 1398/1/6
f 1398/1/6 1391/1/6 1399/1/6
f 1396/1/6 1397/1/6 1401/1/6
f 1401/1/6 1397/1/6 1402/1/6
f 1402/1/6 1397/1/6 1403/1/6
f 1400/2/6 1401/2/6 1405/2/6
f 1401/2/6 1402/2/6 1405/2/6
f 1405/2/6 1402/2/6 1406/2/6
f 1406/2/6 1402/2/6 1407/2/6
f 1404/2/6 1405/2/6 1409/2/6
f 1405/2/6 1406/2/6 1409/2/6
f 1409/2/6 1406/2/6 1410/2/6
f 1410/2/6 1406/2/6 1411/2/6
f 1408/2/6 1409/2/6 1413/2/6
f 1409/2/6 1410/2/6 1413/2/6
f 1413/2/6 1410/2/6 1414/2/6
f 1414/2/6 1410/2/6 1415/2/6
f 1412/2/6 1413/2/6 1416/2/6
f 1413/2/6 1414/2/6 1416/2/6
f 1416/2/6 1414/2/6 1417/2/6
f 1412/2/6 1416/2/6 1419/2/6
f 1418/2/6 1419/2/6 1421/2/6
f 1419/2/6 1416/2/6 1422/2/6
f 1421/2/6 1419/2/6 1422/2/6
f 1422/2/6 1416/2/6 1423/2/6
f 1420/2/6 1421/2/6 1424/2/6
f 1421/2/6 1422/2/6 1424/2/6
f 1424/2/6 1422/2/6 1425/2/6
f 1393/1/6 1382/1/6 1426/1/6
f 1426/1/6 1382/1/6 1427/1/6
f 1420/2/6 1424/2/6 1429/2/6
f 1429/2/6 1424/2/6 1430/2/6
f 1428/1/6 1429/1/6 1431/1/6
f 1431/1/6 1429/1/6 1432/1/6
f 1433/1/6 1434/1/6 1436/1/6
f 1435/1/6 1436/1/6 1438/1/6
f 1437/1/6 1438/1/6 1440/1/6
f 1439/1/6 1440/1/6 1442/1/6
f 1441/1/6 1442/1/6 1444/1/6
f 1443/1/6 1444/1/6 1446/1/6
f 1445/1/6 1446/1/6 1448/1/6
f 1446/1/6 1444/1/6 1449/1/6
f 1448/1/6 1446/1/6 1449/1/6
f 1438/1/6 1436/1/6 1450/1/6
f 1449/1/6 1444/1/6 1450/1/6
f 1440/1/6 1438/1/6 1450/1/6
f 1442/1/6 1440/1/6 1450/1/6
f 1444/1/6 1442/1/6 1450/1/6
f 1448/1/6 1449/1/6 1451/1/6
f 1447/1/6 1448/1/6 1451/1/6
f 1451/1/6 1449/1/6 1452/1/6
f 1452/1/6 1449/1/6 1453/1/6
f 1453/1/6 1449/1/6 1454/1/6
f 1450/1/6 1436/1/6 1455/1/6
f 1436/1/6 1434/1/6 1456/1/6
f 1455/1/6 1436/1/6 1456/1/6
f 1456/1/6 1434/1/6 1457/1/6
f 1452/1/6 1453/1/6 1459/1/6
f 1459/1/6 1453/1/6 1460/1/6
f 1460/1/6 1453/1/6 1461/1/6
f 1461/1/6 1453/1/6 1462/1/6
f 1457/1/6 1458/1/6 1463/1/6
f 1456/1/6 1457/1/6 1463/1/6
f 1463/1/6 1458/1/6 1464/1/6
f 1464/1/6 1458/1/6 1465/1/6
f 1460/1/6 1461/1/6 1467/1/6
f 1467/1/6 1461/1/6 1468/1/6
f 1465/1/6 1466/1/6 1469/1/6
f 1464/1/6 1465/1/6 1469/1/6
f 1468/1/6 1461/1/6 1471/1/6
f 1471/1/6 1461/1/6 1472/1/6
f 1469/1/6 1470/1/6 1473/1/6
f 1472/1/6 1461/1/6 1475/1/6
f 1475/1/6 1461/1/6 1476/1/6
f 1473/1/6 1474/1/6 1477/1/6
f 1476/1/6 1461/1/6 1479/1/6
f 1479/1/6 1461/1/6 1480/1/6
f 1480/1/6 1461/1/6 1481/1/6
f 1477/1/6 1478/1/6 1484/1/6
f 1464/1/6 1469/1/6 1484/1/6
f 1469/1/6 1473/1/6 1484/1/6
f 1473/1/6 1477/1/6 1484/1/6
f 1484/1/6 1478/1/6 1485/1/6
f 1481/1/6 1482/1/6 1487/1/6
f 1480/1/6 1481/1/6 1487/1/6
f 1487/1/6 1482/1/6 1488/1/6
f 1488/1/6 1482/1/6 1489/1/6
f 1485/1/6 1486/1/6 1492/1/6
f 1484/1/6 1485/1/6 1492/1/6
f 1483/1/6 1484/1/6 1492/1/6
f 1492/1/6 1486/1/6 1493/1/6
f 1489/1/6 1490/1/6 1495/1/6
f 1488/1/6 1489/1/6 1495/1/6
f 1493/1/6 1494/1/6 1496/1/6
f 1492/1/6 1493/1/6 1496/1/6
f 1491/1/6 1492/1/6 1496/1/6
f 1496/1/6 1494/1/6 1497/1/6
f 1497/1/6 1494/1/6 1498/1/6
f 1495/1/6 1496/1/6 1499/1/6
f 1496/1/6 1497/1/6 1499/1/6
f 1499/1/6 1497/1/6 1500/1/6
f 1495/1/6 1499/1/6 1501/1/6
f 1501/1/6 1499/1/6 1502/1/6
f 1495/1/6 1501/1/6 1503/1/6
f 1503/1/6 1501/1/6 1504/1/6
f 1495/1/6 1503/1/6 1505/1/6
f 1505/1/6 1503/1/6 1506/1/6
f 1488/1/6 1495/1/6 1507/1/6
f 1495/1/6 1505/1/6 1507/1/6
f 1507/1/6 1505/1/6 1508/1/6
f 1488/1/6 1507/1/6 1509/1/6
f 1509/1/6 1507/1/6 1510/1/6
f 1488/1/6 1509/1/6 1511/1/6
f 1511/1/6 1509/1/6 1512/1/6
