# Blender 5.1.2
# www.blender.org
mtllib leaf.mtl
o 平面.181
v 0.296301 -0.046083 0.021662
v 0.296301 0.260007 0.021661
v 0.132205 -0.046082 0.280047
v 0.132205 0.260007 0.280047
v 0.066137 0.141625 0.070940
v 0.066137 -0.080801 0.084775
v -0.109939 0.133144 -0.065406
v -0.109939 -0.089282 -0.051570
v 0.136324 0.156324 -0.147246
v 0.136324 -0.005066 -0.225879
v 0.240415 0.220391 -0.278740
v 0.240415 0.059001 -0.357373
v -0.004342 -0.164152 0.027496
v -0.004342 0.166764 0.046156
v -0.013093 -0.182806 0.358296
v -0.013093 0.148110 0.376957
v 0.124764 -0.142170 -0.082710
v 0.124764 0.131546 0.068905
v 0.437588 -0.145536 -0.076633
v 0.437588 0.128179 0.074983
v -0.027804 -0.022752 0.147930
v -0.027804 -0.127202 -0.060528
v 0.063048 0.169230 0.051736
v 0.063048 0.064781 -0.156722
v 0.135127 0.196631 -0.007215
v 0.135127 -0.045219 0.201308
v -0.099500 0.055181 -0.171274
v -0.099500 -0.186670 0.037249
v 0.125227 0.098015 -0.052386
v 0.125227 -0.078146 0.049151
v -0.077847 0.092937 -0.061196
v -0.077847 -0.083224 0.040341
v -0.051938 -0.097813 -0.034249
v -0.051938 0.077784 -0.031238
v 0.096308 -0.099427 0.059899
v 0.096308 0.076170 0.062910
v -0.001363 0.088830 -0.035404
v -0.001363 0.216642 0.030306
v -0.080675 0.034032 0.071183
v -0.080675 0.161845 0.136893
v 0.042042 0.227073 0.104705
v 0.042042 0.009641 0.104705
v -0.132396 0.227073 -0.025095
v -0.132396 0.009641 -0.025095
v 0.036256 0.240270 0.107996
v 0.036256 0.028193 0.107996
v -0.133886 0.240270 -0.018607
v -0.133886 0.028193 -0.018607
v 0.007642 0.168799 -0.078249
v 0.007642 0.416208 0.048947
v -0.145883 0.062727 0.128072
v -0.145883 0.310136 0.255268
v 0.018532 0.346926 0.145887
v 0.018532 0.118048 0.145887
v -0.165089 0.346926 0.009254
v -0.165089 0.118048 0.009254
v -0.129252 0.300552 0.218955
v -0.129252 0.066471 0.098611
v 0.016003 0.400911 0.023747
v 0.016003 0.166830 -0.096597
v -0.142445 0.118194 0.317003
v -0.142445 0.046552 0.171147
v -0.101143 0.259261 0.247714
v -0.101143 0.187619 0.101857
v -0.196584 0.045272 0.157809
v -0.196584 0.246352 0.157809
v -0.023862 0.045272 0.260767
v -0.023862 0.246352 0.260767
v -0.131989 0.101601 0.269212
v -0.131989 0.037570 0.138851
v -0.095074 0.227682 0.207284
v -0.095074 0.163651 0.076922
v -0.179928 0.041921 0.158779
v -0.179928 0.213393 0.158779
v -0.032638 0.041921 0.246577
v -0.032638 0.213393 0.246577
v -0.119184 0.011370 0.080333
v -0.119184 0.158820 0.080332
v 0.007472 0.011370 0.155830
v 0.007472 0.158820 0.155830
v -0.065926 -0.000297 0.193880
v -0.065926 -0.099198 -0.007472
v -0.008909 0.194442 0.098228
v -0.008909 0.095542 -0.103124
v -0.070446 -0.004146 0.249144
v -0.070446 -0.127781 -0.002568
v 0.000832 0.239300 0.129568
v 0.000832 0.115664 -0.122143
v -0.131589 -0.077478 -0.001231
v -0.131589 0.174808 -0.001231
v 0.085117 -0.077478 0.127946
v 0.085117 0.174808 0.127946
v 0.026809 -0.165600 -0.143459
v 0.026809 0.147270 -0.143459
v 0.020731 -0.165600 0.169351
v 0.020731 0.147270 0.169351
v 0.085324 -0.128079 0.138648
v 0.085324 -0.128021 -0.140565
v 0.088327 0.151118 0.138707
v 0.088327 0.151176 -0.140506
v 0.100864 -0.058570 0.081232
v 0.100864 -0.058541 -0.058660
v 0.102369 0.081314 0.081262
v 0.102369 0.081343 -0.058631
v 0.120501 -0.167255 -0.142286
v 0.120501 0.146908 -0.142286
v 0.114398 -0.167255 0.171818
v 0.114398 0.146908 0.171818
v 0.205258 0.143760 -0.151806
v 0.205258 0.143694 0.165013
v 0.201851 -0.173041 -0.151872
v 0.201851 -0.173107 0.164947
v 0.193994 -0.110643 0.134099
v 0.193994 -0.110592 -0.107908
v 0.196597 0.131350 0.134150
v 0.196597 0.131400 -0.107857
v 0.237300 -0.153088 -0.124587
v 0.237300 0.130221 -0.124587
v 0.231797 -0.153088 0.158669
v 0.231797 0.130221 0.158669
v 0.248903 0.091995 0.089677
v 0.248903 -0.102618 0.089677
v 0.252684 0.091995 -0.104899
v 0.252684 -0.102618 -0.104899
v 0.263844 -0.149426 0.173477
v 0.263844 -0.149360 -0.144572
v 0.267266 0.168605 0.173544
v 0.267266 0.168671 -0.144506
v -0.048166 0.087625 0.082865
v -0.048166 -0.103068 0.082865
v -0.048166 0.087625 -0.107828
v -0.048166 -0.103068 -0.107828
v -0.087339 0.161226 0.143976
v -0.087339 -0.151688 0.143976
v -0.087339 0.161226 -0.168939
v -0.087339 -0.151688 -0.168939
v -0.125955 -0.130548 -0.130498
v -0.125955 0.155412 -0.130498
v -0.125955 -0.130548 0.155461
v -0.125955 0.155412 0.155461
v -0.138913 0.147048 -0.147156
v -0.138913 0.147048 0.164968
v -0.146603 -0.164981 -0.147156
v -0.146603 -0.164981 0.164968
v -0.183864 -0.074893 0.094497
v -0.183864 -0.074893 -0.089266
v -0.179336 0.108815 0.094497
v -0.179336 0.108815 -0.089266
v -0.196833 -0.052514 -0.054211
v -0.196833 0.080872 -0.054211
v -0.196833 -0.052514 0.079174
v -0.196833 0.080872 0.079174
v -0.213548 0.121549 0.112713
v -0.213548 -0.128840 0.112713
v -0.213548 0.121549 -0.137676
v -0.213548 -0.128840 -0.137676
v -0.009025 0.083644 -0.161636
v -0.009025 0.106836 0.053558
v 0.013239 -0.130408 -0.138567
v 0.013239 -0.107216 0.076627
v 0.018561 -0.098209 0.059058
v 0.018561 -0.079863 -0.143716
v 0.000878 0.103799 0.077336
v 0.000878 0.122146 -0.125439
v -0.008906 0.087238 -0.150885
v -0.008906 0.087883 0.049524
v -0.008906 -0.113171 -0.150240
v -0.008906 -0.112526 0.050169
v -0.082207 -0.092369 -0.091881
v -0.082207 0.097008 -0.091881
v 0.107170 -0.092369 -0.091881
v 0.107170 0.097008 -0.091881
v 0.009325 -0.056853 -0.063324
v 0.009325 -0.057299 -0.201585
v 0.009325 0.081408 -0.063769
v 0.009325 0.080962 -0.202030
v 0.089135 0.110120 -0.124929
v 0.089135 -0.093112 -0.124929
v -0.114098 0.110120 -0.124929
v -0.114098 -0.093112 -0.124929
v 0.136920 0.146250 -0.166366
v 0.136920 -0.152552 -0.166366
v -0.161883 0.146250 -0.166366
v -0.161883 -0.152552 -0.166366
v 0.066361 0.087580 -0.182335
v 0.066361 -0.070105 -0.182335
v -0.091324 0.087580 -0.182335
v -0.091324 -0.070105 -0.182335
v -0.138708 -0.160897 -0.249042
v -0.138708 0.141482 -0.249042
v 0.163671 -0.160897 -0.249042
v 0.163671 0.141482 -0.249042
v -0.002615 -0.135315 -0.117861
v -0.002615 -0.136264 -0.412692
v -0.002615 0.159516 -0.118810
v -0.002615 0.158567 -0.413641
v -0.128857 -0.151570 -0.281611
v -0.128857 0.131108 -0.281611
v 0.153821 -0.151570 -0.281611
v 0.153821 0.131108 -0.281611
v -0.008906 0.143346 -0.456500
v -0.008906 0.144358 -0.141910
v -0.008906 -0.171245 -0.455488
v -0.008906 -0.170232 -0.140897
v 0.108290 0.117141 -0.315371
v 0.108290 -0.124402 -0.315371
v -0.133253 0.117141 -0.315371
v -0.133253 -0.124402 -0.315371
v 0.101404 0.122064 -0.356173
v 0.101404 -0.105707 -0.356173
v -0.126367 0.122064 -0.356173
v -0.126367 -0.105707 -0.356173
v 0.105578 0.125844 -0.348436
v 0.105578 -0.110275 -0.348436
v -0.130541 0.125844 -0.348436
v -0.130541 -0.110275 -0.348436
v 0.128894 0.095682 0.009264
v 0.128894 -0.095972 0.226858
v -0.160804 0.086385 0.001075
v -0.160804 -0.105269 0.218669
v -0.000710 -0.156065 0.219361
v -0.000710 -0.115989 -0.064715
v -0.024482 0.127035 0.259299
v -0.024482 0.167110 -0.024778
v 0.010202 0.060941 0.041665
v 0.010202 0.052002 0.195517
v 0.000291 -0.092593 0.032745
v 0.000291 -0.101532 0.186597
v 0.083193 0.062228 0.087498
v 0.083193 -0.070570 0.238270
v -0.117541 0.055786 0.081824
v -0.117541 -0.077012 0.232596
v -0.103878 -0.112133 0.138645
v -0.103878 0.111678 0.138645
v 0.119855 -0.112133 0.144564
v 0.119855 0.111678 0.144564
v 0.089119 -0.093156 -0.052338
v 0.089119 0.115723 -0.052338
v -0.022863 -0.093156 0.123988
v -0.022863 0.115723 0.123988
v 0.068261 -0.006844 0.103214
v 0.068261 -0.036947 -0.022708
v 0.023750 0.111402 0.074946
v 0.023750 0.081299 -0.050976
v 0.043036 0.122937 0.098889
v 0.043036 -0.022837 0.098889
v 0.121186 0.122937 -0.024167
v 0.121186 -0.022837 -0.024167
v 0.064283 0.153205 -0.122466
v 0.064283 0.226233 0.183015
v 0.172264 -0.133655 -0.053889
v 0.172264 -0.060627 0.251592
v 0.156376 -0.013014 0.019916
v 0.156376 0.145991 0.019916
v 0.071132 -0.013014 0.154141
v 0.071132 0.145991 0.154141
v 0.184363 -0.040659 0.010591
v 0.184363 0.164100 0.010591
v 0.074591 -0.040659 0.183438
v 0.074591 0.164100 0.183438
v 0.066067 0.239771 0.210566
v 0.066067 -0.069854 0.210566
v 0.232058 0.239771 -0.050804
v 0.232058 -0.069854 -0.050804
v 0.230043 0.022987 0.064012
v 0.230043 0.186533 0.064012
v 0.142365 0.022987 0.202070
v 0.142365 0.186533 0.202069
v 0.205600 0.055704 0.219673
v 0.205600 0.018386 0.063566
v 0.150420 0.202295 0.184628
v 0.150420 0.164977 0.028522
v 0.113514 0.237974 0.215902
v 0.113514 -0.029786 0.215902
v 0.257061 0.237974 -0.010128
v 0.257061 -0.029786 -0.010128
v 0.159361 0.210315 -0.052520
v 0.159361 0.285297 0.261131
v 0.270231 -0.084218 0.017891
v 0.270231 -0.009236 0.331543
v 0.279164 -0.044077 0.021410
v 0.279164 0.244062 0.021410
v 0.124691 -0.044077 0.264643
v 0.124691 0.244062 0.264643
v 0.296301 -0.046083 0.021662
v 0.296301 0.260007 0.021661
v 0.132205 -0.046082 0.280047
v 0.132205 0.260007 0.280047
v 0.282890 0.022488 0.334304
v 0.282890 -0.052932 0.018816
v 0.171371 0.318746 0.263480
v 0.171371 0.243325 -0.052007
v 0.203565 0.210037 -0.015757
v 0.203565 0.274100 0.252225
v 0.298291 -0.041610 0.044402
v 0.298291 0.022453 0.312384
v -0.037877 0.103025 -0.065167
v -0.037877 0.029475 0.076080
v 0.067646 -0.002761 -0.120251
v 0.067646 -0.076311 0.020995
v 0.060130 -0.042807 0.013678
v 0.060130 0.044387 -0.097361
v -0.038546 0.036608 0.076039
v -0.038546 0.123802 -0.035000
v 0.074750 -0.070193 0.032188
v 0.074750 0.038595 -0.106350
v -0.048363 0.028889 0.109993
v -0.048363 0.137677 -0.028545
v 0.096204 0.198182 0.105058
v 0.096204 -0.108181 0.105058
v -0.072833 0.198182 -0.150451
v -0.072833 -0.108180 -0.150451
v 0.022088 0.163779 -0.064804
v 0.022088 0.084384 0.041850
v 0.111175 0.084606 -0.123741
v 0.111175 0.005211 -0.017087
v 0.132103 0.258562 0.099191
v 0.132103 -0.077629 0.099191
v -0.053392 0.258562 -0.181195
v -0.053392 -0.077629 -0.181195
v -0.014229 0.230660 -0.095236
v -0.014229 0.090754 0.092706
v 0.142758 0.091144 -0.199094
v 0.142758 -0.048763 -0.011152
v 0.009020 0.228123 -0.086280
v 0.009020 0.103883 0.080617
v 0.148428 0.104230 -0.178508
v 0.148428 -0.020011 -0.011611
v 0.022339 -0.006153 -0.172710
v 0.022339 0.282242 -0.172710
v 0.181462 -0.006153 0.067813
v 0.181462 0.282243 0.067813
v 0.039027 0.259120 -0.110140
v 0.039027 0.149480 0.037145
v 0.162053 0.149786 -0.191530
v 0.162053 0.040145 -0.044246
v 0.197549 0.342951 0.039922
v 0.197549 0.033401 0.039922
v 0.026753 0.342951 -0.218245
v 0.026753 0.033401 -0.218245
v 0.153076 0.284803 -0.000493
v 0.153076 0.091742 -0.000493
v 0.046554 0.284803 -0.161508
v 0.046554 0.091742 -0.161508
v 0.007106 0.097143 -0.095191
v 0.007106 0.054092 0.048540
v 0.040339 -0.043017 -0.137173
v 0.040339 -0.086069 0.006558
v 0.019516 0.135064 -0.117600
v 0.019516 0.076860 0.076719
v 0.064446 -0.054428 -0.174358
v 0.064446 -0.112633 0.019961
v 0.000022 0.160671 -0.134683
v 0.000022 0.089004 0.104581
v 0.055344 -0.072650 -0.204570
v 0.055344 -0.144316 0.034694
v 0.139638 0.164802 0.000595
v 0.139638 -0.079872 0.000595
v -0.052204 0.164802 -0.151267
v -0.052204 -0.079872 -0.151267
v 0.068969 0.115557 -0.144825
v 0.068969 0.078468 -0.021000
v 0.097600 -0.005192 -0.180993
v 0.097600 -0.042282 -0.057168
v 0.133886 0.146059 -0.040873
v 0.133886 -0.038119 -0.040873
v -0.010523 0.146059 -0.155187
v -0.010523 -0.038119 -0.155187
v 0.043147 -0.023067 -0.140477
v 0.043147 0.108615 -0.140477
v 0.146395 -0.023067 -0.058746
v 0.146395 0.108615 -0.058746
v 0.222535 0.223166 -0.042859
v 0.222535 -0.097561 -0.042859
v -0.028938 0.223166 -0.241924
v -0.028938 -0.097561 -0.241924
v 0.136163 -0.010161 -0.084417
v 0.136163 0.033312 -0.229554
v 0.102604 0.131370 -0.042024
v 0.102604 0.174843 -0.187161
v 0.166025 0.162114 -0.091682
v 0.166025 -0.009391 -0.091682
v 0.031553 0.162114 -0.198130
v 0.031553 -0.009391 -0.198130
v 0.116850 0.273471 -0.295956
v 0.116850 0.182080 0.009158
v 0.187398 -0.024064 -0.385076
v 0.187398 -0.115455 -0.079963
v 0.029338 -0.080360 -0.273576
v 0.029338 0.238198 -0.273576
v 0.279110 -0.080360 -0.075857
v 0.279110 0.238198 -0.075857
v 0.075394 -0.027367 -0.256406
v 0.075394 0.197655 -0.256406
v 0.251827 -0.027367 -0.116742
v 0.251827 0.197655 -0.116742
v 0.144657 0.288922 -0.329910
v 0.144657 0.198235 -0.027144
v 0.214662 -0.006323 -0.418345
v 0.214662 -0.097010 -0.115579
v 0.076219 -0.047825 -0.321339
v 0.076219 0.256506 -0.321339
v 0.314837 -0.047825 -0.132449
v 0.314837 0.256506 -0.132449
v 0.120439 0.011913 -0.277330
v 0.120439 0.192271 -0.277330
v 0.261853 0.011913 -0.165387
v 0.261853 0.192271 -0.165387
v 0.249523 0.203074 -0.191241
v 0.249523 0.024219 -0.191242
v 0.109288 0.203074 -0.302251
v 0.109288 0.024219 -0.302251
v 0.006145 0.152040 -0.094826
v 0.006145 0.081543 0.126074
v -0.064874 -0.058245 -0.161935
v -0.064874 -0.128741 0.058965
v 0.020030 0.183193 -0.109577
v 0.020030 0.095565 0.165005
v -0.068248 -0.078193 -0.192994
v -0.068248 -0.165821 0.081588
v 0.011209 0.249468 -0.139839
v 0.011209 0.103330 0.154826
v -0.122541 -0.019734 -0.273350
v -0.122541 -0.165873 0.021316
v -0.118062 -0.140521 0.019214
v -0.118062 0.008502 -0.281266
v 0.018327 0.133994 0.155359
v 0.018327 0.283017 -0.145121
v -0.113059 0.129902 -0.036561
v -0.113059 -0.003056 -0.036561
v -0.019128 0.129902 -0.130660
v -0.019128 -0.003056 -0.130660
v -0.121365 -0.045682 -0.020944
v -0.121365 0.050043 -0.213960
v -0.033754 0.130654 0.066510
v -0.033754 0.226380 -0.126506
v -0.180122 0.204363 -0.063596
v -0.180122 0.014916 -0.063596
v -0.046284 0.204363 -0.197675
v -0.046284 0.014916 -0.197675
v -0.160163 0.001953 -0.076531
v -0.160163 0.097104 -0.268387
v -0.073078 0.177230 0.010397
v -0.073078 0.272381 -0.181459
v 0.066137 0.141625 0.070940
v 0.066137 -0.080801 0.084775
v -0.109939 0.133144 -0.065406
v -0.109939 -0.089282 -0.051570
v 0.136324 0.156324 -0.147246
v 0.136324 -0.005066 -0.225879
v 0.240415 0.220391 -0.278740
v 0.240415 0.059001 -0.357373
v -0.004342 -0.164152 0.027496
v -0.004342 0.166764 0.046156
v -0.013093 -0.182806 0.358296
v -0.013093 0.148110 0.376957
v 0.124764 -0.142170 -0.082710
v 0.124764 0.131546 0.068905
v 0.437588 -0.145536 -0.076633
v 0.437588 0.128179 0.074983
v -0.027804 -0.022752 0.147930
v -0.027804 -0.127202 -0.060528
v 0.063048 0.169230 0.051736
v 0.063048 0.064781 -0.156722
v 0.135127 0.196631 -0.007215
v 0.135127 -0.045219 0.201308
v -0.099500 0.055181 -0.171274
v -0.099500 -0.186670 0.037249
v 0.125227 0.098015 -0.052386
v 0.125227 -0.078146 0.049151
v -0.077847 0.092937 -0.061196
v -0.077847 -0.083224 0.040341
v -0.051938 -0.097813 -0.034249
v -0.051938 0.077784 -0.031238
v 0.096308 -0.099427 0.059899
v 0.096308 0.076170 0.062910
v -0.001363 0.088830 -0.035404
v -0.001363 0.216642 0.030306
v -0.080675 0.034032 0.071183
v -0.080675 0.161845 0.136893
v 0.042042 0.227073 0.104705
v 0.042042 0.009641 0.104705
v -0.132396 0.227073 -0.025095
v -0.132396 0.009641 -0.025095
v 0.036256 0.240270 0.107996
v 0.036256 0.028193 0.107996
v -0.133886 0.240270 -0.018607
v -0.133886 0.028193 -0.018607
v 0.007642 0.168799 -0.078249
v 0.007642 0.416208 0.048947
v -0.145883 0.062727 0.128072
v -0.145883 0.310136 0.255268
v 0.018532 0.346926 0.145887
v 0.018532 0.118048 0.145887
v -0.165089 0.346926 0.009254
v -0.165089 0.118048 0.009254
v -0.129252 0.300552 0.218955
v -0.129252 0.066471 0.098611
v 0.016003 0.400911 0.023747
v 0.016003 0.166830 -0.096597
v -0.142445 0.118194 0.317003
v -0.142445 0.046552 0.171147
v -0.101143 0.259261 0.247714
v -0.101143 0.187619 0.101857
v -0.196584 0.045272 0.157809
v -0.196584 0.246352 0.157809
v -0.023862 0.045272 0.260767
v -0.023862 0.246352 0.260767
v -0.131989 0.101601 0.269212
v -0.131989 0.037570 0.138851
v -0.095074 0.227682 0.207284
v -0.095074 0.163651 0.076922
v -0.179928 0.041921 0.158779
v -0.179928 0.213393 0.158779
v -0.032638 0.041921 0.246577
v -0.032638 0.213393 0.246577
v -0.119184 0.011370 0.080333
v -0.119184 0.158820 0.080332
v 0.007472 0.011370 0.155830
v 0.007472 0.158820 0.155830
v -0.065926 -0.000297 0.193880
v -0.065926 -0.099198 -0.007472
v -0.008909 0.194442 0.098228
v -0.008909 0.095542 -0.103124
v -0.070446 -0.004146 0.249144
v -0.070446 -0.127781 -0.002568
v 0.000832 0.239300 0.129568
v 0.000832 0.115664 -0.122143
v -0.131589 -0.077478 -0.001231
v -0.131589 0.174808 -0.001231
v 0.085117 -0.077478 0.127946
v 0.085117 0.174808 0.127946
v 0.026809 -0.165600 -0.143459
v 0.026809 0.147270 -0.143459
v 0.020731 -0.165600 0.169351
v 0.020731 0.147270 0.169351
v 0.085324 -0.128079 0.138648
v 0.085324 -0.128021 -0.140565
v 0.088327 0.151118 0.138707
v 0.088327 0.151176 -0.140506
v 0.100864 -0.058570 0.081232
v 0.100864 -0.058541 -0.058660
v 0.102369 0.081314 0.081262
v 0.102369 0.081343 -0.058631
v 0.120501 -0.167255 -0.142286
v 0.120501 0.146908 -0.142286
v 0.114398 -0.167255 0.171818
v 0.114398 0.146908 0.171818
v 0.205258 0.143760 -0.151806
v 0.205258 0.143694 0.165013
v 0.201851 -0.173041 -0.151872
v 0.201851 -0.173107 0.164947
v 0.193994 -0.110643 0.134099
v 0.193994 -0.110592 -0.107908
v 0.196597 0.131350 0.134150
v 0.196597 0.131400 -0.107857
v 0.237300 -0.153088 -0.124587
v 0.237300 0.130221 -0.124587
v 0.231797 -0.153088 0.158669
v 0.231797 0.130221 0.158669
v 0.248903 0.091995 0.089677
v 0.248903 -0.102618 0.089677
v 0.252684 0.091995 -0.104899
v 0.252684 -0.102618 -0.104899
v 0.263844 -0.149426 0.173477
v 0.263844 -0.149360 -0.144572
v 0.267266 0.168605 0.173544
v 0.267266 0.168671 -0.144506
v -0.048166 0.087625 0.082865
v -0.048166 -0.103068 0.082865
v -0.048166 0.087625 -0.107828
v -0.048166 -0.103068 -0.107828
v -0.087339 0.161226 0.143976
v -0.087339 -0.151688 0.143976
v -0.087339 0.161226 -0.168939
v -0.087339 -0.151688 -0.168939
v -0.125955 -0.130548 -0.130498
v -0.125955 0.155412 -0.130498
v -0.125955 -0.130548 0.155461
v -0.125955 0.155412 0.155461
v -0.138913 0.147048 -0.147156
v -0.138913 0.147048 0.164968
v -0.146603 -0.164981 -0.147156
v -0.146603 -0.164981 0.164968
v -0.183864 -0.074893 0.094497
v -0.183864 -0.074893 -0.089266
v -0.179336 0.108815 0.094497
v -0.179336 0.108815 -0.089266
v -0.196833 -0.052514 -0.054211
v -0.196833 0.080872 -0.054211
v -0.196833 -0.052514 0.079174
v -0.196833 0.080872 0.079174
v -0.213548 0.121549 0.112713
v -0.213548 -0.128840 0.112713
v -0.213548 0.121549 -0.137676
v -0.213548 -0.128840 -0.137676
v -0.009025 0.083644 -0.161636
v -0.009025 0.106836 0.053558
v 0.013239 -0.130408 -0.138567
v 0.013239 -0.107216 0.076627
v 0.018561 -0.098209 0.059058
v 0.018561 -0.079863 -0.143716
v 0.000878 0.103799 0.077336
v 0.000878 0.122146 -0.125439
v -0.008906 0.087238 -0.150885
v -0.008906 0.087883 0.049524
v -0.008906 -0.113171 -0.150240
v -0.008906 -0.112526 0.050169
v -0.082207 -0.092369 -0.091881
v -0.082207 0.097008 -0.091881
v 0.107170 -0.092369 -0.091881
v 0.107170 0.097008 -0.091881
v 0.009325 -0.056853 -0.063324
v 0.009325 -0.057299 -0.201585
v 0.009325 0.081408 -0.063769
v 0.009325 0.080962 -0.202030
v 0.089135 0.110120 -0.124929
v 0.089135 -0.093112 -0.124929
v -0.114098 0.110120 -0.124929
v -0.114098 -0.093112 -0.124929
v 0.136920 0.146250 -0.166366
v 0.136920 -0.152552 -0.166366
v -0.161883 0.146250 -0.166366
v -0.161883 -0.152552 -0.166366
v 0.066361 0.087580 -0.182335
v 0.066361 -0.070105 -0.182335
v -0.091324 0.087580 -0.182335
v -0.091324 -0.070105 -0.182335
v -0.138708 -0.160897 -0.249042
v -0.138708 0.141482 -0.249042
v 0.163671 -0.160897 -0.249042
v 0.163671 0.141482 -0.249042
v -0.002615 -0.135315 -0.117861
v -0.002615 -0.136264 -0.412692
v -0.002615 0.159516 -0.118810
v -0.002615 0.158567 -0.413641
v -0.128857 -0.151570 -0.281611
v -0.128857 0.131108 -0.281611
v 0.153821 -0.151570 -0.281611
v 0.153821 0.131108 -0.281611
v -0.008906 0.143346 -0.456500
v -0.008906 0.144358 -0.141910
v -0.008906 -0.171245 -0.455488
v -0.008906 -0.170232 -0.140897
v 0.108290 0.117141 -0.315371
v 0.108290 -0.124402 -0.315371
v -0.133253 0.117141 -0.315371
v -0.133253 -0.124402 -0.315371
v 0.101404 0.122064 -0.356173
v 0.101404 -0.105707 -0.356173
v -0.126367 0.122064 -0.356173
v -0.126367 -0.105707 -0.356173
v 0.105578 0.125844 -0.348436
v 0.105578 -0.110275 -0.348436
v -0.130541 0.125844 -0.348436
v -0.130541 -0.110275 -0.348436
v 0.128894 0.095682 0.009264
v 0.128894 -0.095972 0.226858
v -0.160804 0.086385 0.001075
v -0.160804 -0.105269 0.218669
v -0.000710 -0.156065 0.219361
v -0.000710 -0.115989 -0.064715
v -0.024482 0.127035 0.259299
v -0.024482 0.167110 -0.024778
v 0.010202 0.060941 0.041665
v 0.010202 0.052002 0.195517
v 0.000291 -0.092593 0.032745
v 0.000291 -0.101532 0.186597
v 0.083193 0.062228 0.087498
v 0.083193 -0.070570 0.238270
v -0.117541 0.055786 0.081824
v -0.117541 -0.077012 0.232596
v -0.103878 -0.112133 0.138645
v -0.103878 0.111678 0.138645
v 0.119855 -0.112133 0.144564
v 0.119855 0.111678 0.144564
v 0.089119 -0.093156 -0.052338
v 0.089119 0.115723 -0.052338
v -0.022863 -0.093156 0.123988
v -0.022863 0.115723 0.123988
v 0.068261 -0.006844 0.103214
v 0.068261 -0.036947 -0.022708
v 0.023750 0.111402 0.074946
v 0.023750 0.081299 -0.050976
v 0.043036 0.122937 0.098889
v 0.043036 -0.022837 0.098889
v 0.121186 0.122937 -0.024167
v 0.121186 -0.022837 -0.024167
v 0.064283 0.153205 -0.122466
v 0.064283 0.226233 0.183015
v 0.172264 -0.133655 -0.053889
v 0.172264 -0.060627 0.251592
v 0.156376 -0.013014 0.019916
v 0.156376 0.145991 0.019916
v 0.071132 -0.013014 0.154141
v 0.071132 0.145991 0.154141
v 0.184363 -0.040659 0.010591
v 0.184363 0.164100 0.010591
v 0.074591 -0.040659 0.183438
v 0.074591 0.164100 0.183438
v 0.066067 0.239771 0.210566
v 0.066067 -0.069854 0.210566
v 0.232058 0.239771 -0.050804
v 0.232058 -0.069854 -0.050804
v 0.230043 0.022987 0.064012
v 0.230043 0.186533 0.064012
v 0.142365 0.022987 0.202070
v 0.142365 0.186533 0.202069
v 0.205600 0.055704 0.219673
v 0.205600 0.018386 0.063566
v 0.150420 0.202295 0.184628
v 0.150420 0.164977 0.028522
v 0.113514 0.237974 0.215902
v 0.113514 -0.029786 0.215902
v 0.257061 0.237974 -0.010128
v 0.257061 -0.029786 -0.010128
v 0.159361 0.210315 -0.052520
v 0.159361 0.285297 0.261131
v 0.270231 -0.084218 0.017891
v 0.270231 -0.009236 0.331543
v 0.279164 -0.044077 0.021410
v 0.279164 0.244062 0.021410
v 0.124691 -0.044077 0.264643
v 0.124691 0.244062 0.264643
v 0.282890 0.022488 0.334304
v 0.282890 -0.052932 0.018816
v 0.171371 0.318746 0.263480
v 0.171371 0.243325 -0.052007
v 0.203565 0.210037 -0.015757
v 0.203565 0.274100 0.252225
v 0.298291 -0.041610 0.044402
v 0.298291 0.022453 0.312384
v -0.037877 0.103025 -0.065167
v -0.037877 0.029475 0.076080
v 0.067646 -0.002761 -0.120251
v 0.067646 -0.076311 0.020995
v 0.060130 -0.042807 0.013678
v 0.060130 0.044387 -0.097361
v -0.038546 0.036608 0.076039
v -0.038546 0.123802 -0.035000
v 0.074750 -0.070193 0.032188
v 0.074750 0.038595 -0.106350
v -0.048363 0.028889 0.109993
v -0.048363 0.137677 -0.028545
v 0.096204 0.198182 0.105058
v 0.096204 -0.108181 0.105058
v -0.072833 0.198182 -0.150451
v -0.072833 -0.108180 -0.150451
v 0.022088 0.163779 -0.064804
v 0.022088 0.084384 0.041850
v 0.111175 0.084606 -0.123741
v 0.111175 0.005211 -0.017087
v 0.132103 0.258562 0.099191
v 0.132103 -0.077629 0.099191
v -0.053392 0.258562 -0.181195
v -0.053392 -0.077629 -0.181195
v -0.014229 0.230660 -0.095236
v -0.014229 0.090754 0.092706
v 0.142758 0.091144 -0.199094
v 0.142758 -0.048763 -0.011152
v 0.009020 0.228123 -0.086280
v 0.009020 0.103883 0.080617
v 0.148428 0.104230 -0.178508
v 0.148428 -0.020011 -0.011611
v 0.022339 -0.006153 -0.172710
v 0.022339 0.282242 -0.172710
v 0.181462 -0.006153 0.067813
v 0.181462 0.282243 0.067813
v 0.039027 0.259120 -0.110140
v 0.039027 0.149480 0.037145
v 0.162053 0.149786 -0.191530
v 0.162053 0.040145 -0.044246
v 0.197549 0.342951 0.039922
v 0.197549 0.033401 0.039922
v 0.026753 0.342951 -0.218245
v 0.026753 0.033401 -0.218245
v 0.153076 0.284803 -0.000493
v 0.153076 0.091742 -0.000493
v 0.046554 0.284803 -0.161508
v 0.046554 0.091742 -0.161508
v 0.007106 0.097143 -0.095191
v 0.007106 0.054092 0.048540
v 0.040339 -0.043017 -0.137173
v 0.040339 -0.086069 0.006558
v 0.019516 0.135064 -0.117600
v 0.019516 0.076860 0.076719
v 0.064446 -0.054428 -0.174358
v 0.064446 -0.112633 0.019961
v 0.000022 0.160671 -0.134683
v 0.000022 0.089004 0.104581
v 0.055344 -0.072650 -0.204570
v 0.055344 -0.144316 0.034694
v 0.139638 0.164802 0.000595
v 0.139638 -0.079872 0.000595
v -0.052204 0.164802 -0.151267
v -0.052204 -0.079872 -0.151267
v 0.068969 0.115557 -0.144825
v 0.068969 0.078468 -0.021000
v 0.097600 -0.005192 -0.180993
v 0.097600 -0.042282 -0.057168
v 0.133886 0.146059 -0.040873
v 0.133886 -0.038119 -0.040873
v -0.010523 0.146059 -0.155187
v -0.010523 -0.038119 -0.155187
v 0.043147 -0.023067 -0.140477
v 0.043147 0.108615 -0.140477
v 0.146395 -0.023067 -0.058746
v 0.146395 0.108615 -0.058746
v 0.222535 0.223166 -0.042859
v 0.222535 -0.097561 -0.042859
v -0.028938 0.223166 -0.241924
v -0.028938 -0.097561 -0.241924
v 0.136163 -0.010161 -0.084417
v 0.136163 0.033312 -0.229554
v 0.102604 0.131370 -0.042024
v 0.102604 0.174843 -0.187161
v 0.166025 0.162114 -0.091682
v 0.166025 -0.009391 -0.091682
v 0.031553 0.162114 -0.198130
v 0.031553 -0.009391 -0.198130
v 0.116850 0.273471 -0.295956
v 0.116850 0.182080 0.009158
v 0.187398 -0.024064 -0.385076
v 0.187398 -0.115455 -0.079963
v 0.029338 -0.080360 -0.273576
v 0.029338 0.238198 -0.273576
v 0.279110 -0.080360 -0.075857
v 0.279110 0.238198 -0.075857
v 0.075394 -0.027367 -0.256406
v 0.075394 0.197655 -0.256406
v 0.251827 -0.027367 -0.116742
v 0.251827 0.197655 -0.116742
v 0.144657 0.288922 -0.329910
v 0.144657 0.198235 -0.027144
v 0.214662 -0.006323 -0.418345
v 0.214662 -0.097010 -0.115579
v 0.076219 -0.047825 -0.321339
v 0.076219 0.256506 -0.321339
v 0.314837 -0.047825 -0.132449
v 0.314837 0.256506 -0.132449
v 0.120439 0.011913 -0.277330
v 0.120439 0.192271 -0.277330
v 0.261853 0.011913 -0.165387
v 0.261853 0.192271 -0.165387
v 0.249523 0.203074 -0.191241
v 0.249523 0.024219 -0.191242
v 0.109288 0.203074 -0.302251
v 0.109288 0.024219 -0.302251
v 0.006145 0.152040 -0.094826
v 0.006145 0.081543 0.126074
v -0.064874 -0.058245 -0.161935
v -0.064874 -0.128741 0.058965
v 0.020030 0.183193 -0.109577
v 0.020030 0.095565 0.165005
v -0.068248 -0.078193 -0.192994
v -0.068248 -0.165821 0.081588
v 0.011209 0.249468 -0.139839
v 0.011209 0.103330 0.154826
v -0.122541 -0.019734 -0.273350
v -0.122541 -0.165873 0.021316
v -0.118062 -0.140521 0.019214
v -0.118062 0.008502 -0.281266
v 0.018327 0.133994 0.155359
v 0.018327 0.283017 -0.145121
v -0.113059 0.129902 -0.036561
v -0.113059 -0.003056 -0.036561
v -0.019128 0.129902 -0.130660
v -0.019128 -0.003056 -0.130660
v -0.121365 -0.045682 -0.020944
v -0.121365 0.050043 -0.213960
v -0.033754 0.130654 0.066510
v -0.033754 0.226380 -0.126506
v -0.180122 0.204363 -0.063596
v -0.180122 0.014916 -0.063596
v -0.046284 0.204363 -0.197675
v -0.046284 0.014916 -0.197675
v -0.160163 0.001953 -0.076531
v -0.160163 0.097104 -0.268387
v -0.073078 0.177230 0.010397
v -0.073078 0.272381 -0.181459
vn 0.8442 -0.0000 0.5361
vn 0.6130 -0.0491 -0.7886
vn 0.8148 -0.2540 0.5212
vn 0.9997 -0.0015 0.0264
vn 0.0222 0.4844 -0.8745
vn 0.9210 -0.3484 0.1746
vn 0.6783 -0.4798 -0.5565
vn 0.0500 -0.4987 -0.8653
vn 0.5362 0.0145 -0.8440
vn 0.8339 -0.2523 0.4908
vn 0.5970 -0.0000 -0.8023
vn 0.9672 -0.2281 0.1121
vn 0.5120 -0.0000 -0.8590
vn 0.9998 -0.0000 0.0194
vn 0.9999 -0.0108 -0.0000
vn 1.0000 -0.0000 -0.0000
vn 0.9997 -0.0246 -0.0000
vn 0.9947 0.1023 -0.0110
vn 0.9962 0.0865 0.0078
vn -0.0000 -0.0000 -1.0000
vn 0.0427 -0.7497 -0.6604
vn 0.9966 0.0820 0.0116
vn 0.9979 -0.0642 -0.0037
vn 0.0264 -0.0000 -0.9997
vn 0.9390 0.3344 -0.0799
vn 0.7489 0.5877 0.3060
vn 0.7152 0.5497 0.4317
vn 0.8340 -0.0000 -0.5518
vn 0.7423 0.5375 0.4001
vn 0.9752 0.2122 0.0636
vn 0.6207 -0.0000 -0.7841
vn 0.9519 -0.2918 -0.0931
vn 0.9136 -0.3643 -0.1807
vn 0.7077 -0.0000 0.7065
vt 0.000000 0.000000
vt 1.000000 0.000000
vt 1.000000 1.000000
vt 0.000000 1.000000
s 1
usemtl Material.001
f 1/1/1 2/2/1 4/3/1 3/4/1
f 5/1/2 6/2/2 8/3/2 7/4/2
f 9/1/3 10/2/3 12/3/3 11/4/3
f 13/1/4 14/2/4 16/3/4 15/4/4
f 17/1/5 18/2/5 20/3/5 19/4/5
f 21/1/6 22/2/6 24/3/6 23/4/6
f 25/1/7 26/2/7 28/3/7 27/4/7
f 29/1/8 30/2/8 32/3/8 31/4/8
f 33/1/9 34/2/9 36/3/9 35/4/9
f 37/1/10 38/2/10 40/3/10 39/4/10
f 41/1/11 42/2/11 44/3/11 43/4/11
f 45/1/11 46/2/11 48/3/11 47/4/11
f 49/1/10 50/2/10 52/3/10 51/4/10
f 53/1/11 54/2/11 56/3/11 55/4/11
f 57/1/10 58/2/10 60/3/10 59/4/10
f 61/1/12 62/2/12 64/3/12 63/4/12
f 65/1/13 66/2/13 68/3/13 67/4/13
f 69/1/12 70/2/12 72/3/12 71/4/12
f 73/1/13 74/2/13 76/3/13 75/4/13
f 77/1/13 78/2/13 80/3/13 79/4/13
f 81/1/12 82/2/12 84/3/12 83/4/12
f 85/1/12 86/2/12 88/3/12 87/4/12
f 89/1/13 90/2/13 92/3/13 91/4/13
f 93/1/14 94/2/14 96/3/14 95/4/14
f 97/1/15 98/2/15 100/3/15 99/4/15
f 101/1/15 102/2/15 104/3/15 103/4/15
f 105/1/14 106/2/14 108/3/14 107/4/14
f 109/1/15 110/2/15 112/3/15 111/4/15
f 113/1/15 114/2/15 116/3/15 115/4/15
f 117/1/14 118/2/14 120/3/14 119/4/14
f 121/1/14 122/2/14 124/3/14 123/4/14
f 125/1/15 126/2/15 128/3/15 127/4/15
f 129/1/16 130/2/16 132/3/16 131/4/16
f 133/1/16 134/2/16 136/3/16 135/4/16
f 137/1/16 138/2/16 140/3/16 139/4/16
f 141/1/17 142/2/17 144/3/17 143/4/17
f 145/1/17 146/2/17 148/3/17 147/4/17
f 149/1/16 150/2/16 152/3/16 151/4/16
f 153/1/16 154/2/16 156/3/16 155/4/16
f 157/1/18 158/2/18 160/3/18 159/4/18
f 161/1/19 162/2/19 164/3/19 163/4/19
f 165/1/16 166/2/16 168/3/16 167/4/16
f 169/1/20 170/2/20 172/3/20 171/4/20
f 173/1/16 174/2/16 176/3/16 175/4/16
f 177/1/20 178/2/20 180/3/20 179/4/20
f 181/1/20 182/2/20 184/3/20 183/4/20
f 185/1/20 186/2/20 188/3/20 187/4/20
f 189/1/20 190/2/20 192/3/20 191/4/20
f 193/1/16 194/2/16 196/3/16 195/4/16
f 197/1/20 198/2/20 200/3/20 199/4/20
f 201/1/16 202/2/16 204/3/16 203/4/16
f 205/1/20 206/2/20 208/3/20 207/4/20
f 209/1/20 210/2/20 212/3/20 211/4/20
f 213/1/20 214/2/20 216/3/20 215/4/20
f 217/1/21 218/2/21 220/3/21 219/4/21
f 221/1/22 222/2/22 224/3/22 223/4/22
f 225/1/23 226/2/23 228/3/23 227/4/23
f 229/1/21 230/2/21 232/3/21 231/4/21
f 233/1/24 234/2/24 236/3/24 235/4/24
f 237/1/1 238/2/1 240/3/1 239/4/1
f 241/1/25 242/2/25 244/3/25 243/4/25
f 245/1/1 246/2/1 248/3/1 247/4/1
f 249/1/25 250/2/25 252/3/25 251/4/25
f 253/1/1 254/2/1 256/3/1 255/4/1
f 257/1/1 258/2/1 260/3/1 259/4/1
f 261/1/1 262/2/1 264/3/1 263/4/1
f 265/1/1 266/2/1 268/3/1 267/4/1
f 269/1/25 270/2/25 272/3/25 271/4/25
f 273/1/1 274/2/1 276/3/1 275/4/1
f 277/1/25 278/2/25 280/3/25 279/4/25
f 281/1/1 282/2/1 284/3/1 283/4/1
f 285/1/1 286/2/1 288/3/1 287/4/1
f 289/1/25 290/2/25 292/3/25 291/4/25
f 293/1/25 294/2/25 296/3/25 295/4/25
f 297/1/26 298/2/26 300/3/26 299/4/26
f 301/1/27 302/2/27 304/3/27 303/4/27
f 305/1/27 306/2/27 308/3/27 307/4/27
f 309/1/28 310/2/28 312/3/28 311/4/28
f 313/1/29 314/2/29 316/3/29 315/4/29
f 317/1/28 318/2/28 320/3/28 319/4/28
f 321/1/29 322/2/29 324/3/29 323/4/29
f 325/1/29 326/2/29 328/3/29 327/4/29
f 329/1/28 330/2/28 332/3/28 331/4/28
f 333/1/29 334/2/29 336/3/29 335/4/29
f 337/1/28 338/2/28 340/3/28 339/4/28
f 341/1/28 342/2/28 344/3/28 343/4/28
f 345/1/30 346/2/30 348/3/30 347/4/30
f 349/1/30 350/2/30 352/3/30 351/4/30
f 353/1/30 354/2/30 356/3/30 355/4/30
f 357/1/31 358/2/31 360/3/31 359/4/31
f 361/1/30 362/2/30 364/3/30 363/4/30
f 365/1/31 366/2/31 368/3/31 367/4/31
f 369/1/31 370/2/31 372/3/31 371/4/31
f 373/1/31 374/2/31 376/3/31 375/4/31
f 377/1/30 378/2/30 380/3/30 379/4/30
f 381/1/31 382/2/31 384/3/31 383/4/31
f 385/1/30 386/2/30 388/3/30 387/4/30
f 389/1/31 390/2/31 392/3/31 391/4/31
f 393/1/31 394/2/31 396/3/31 395/4/31
f 397/1/30 398/2/30 400/3/30 399/4/30
f 401/1/31 402/2/31 404/3/31 403/4/31
f 405/1/31 406/2/31 408/3/31 407/4/31
f 409/1/31 410/2/31 412/3/31 411/4/31
f 413/1/32 414/2/32 416/3/32 415/4/32
f 417/1/32 418/2/32 420/3/32 419/4/32
f 421/1/33 422/2/33 424/3/33 423/4/33
f 425/1/33 426/2/33 428/3/33 427/4/33
f 429/1/34 430/2/34 432/3/34 431/4/34
f 433/1/33 434/2/33 436/3/33 435/4/33
f 437/1/34 438/2/34 440/3/34 439/4/34
f 441/1/33 442/2/33 444/3/33 443/4/33
f 445/1/2 446/2/2 448/3/2 447/4/2
f 449/1/3 450/2/3 452/3/3 451/4/3
f 453/1/4 454/2/4 456/3/4 455/4/4
f 457/1/5 458/2/5 460/3/5 459/4/5
f 461/1/6 462/2/6 464/3/6 463/4/6
f 465/1/7 466/2/7 468/3/7 467/4/7
f 469/1/8 470/2/8 472/3/8 471/4/8
f 473/1/9 474/2/9 476/3/9 475/4/9
f 477/1/10 478/2/10 480/3/10 479/4/10
f 481/1/11 482/2/11 484/3/11 483/4/11
f 485/1/11 486/2/11 488/3/11 487/4/11
f 489/1/10 490/2/10 492/3/10 491/4/10
f 493/1/11 494/2/11 496/3/11 495/4/11
f 497/1/10 498/2/10 500/3/10 499/4/10
f 501/1/12 502/2/12 504/3/12 503/4/12
f 505/1/13 506/2/13 508/3/13 507/4/13
f 509/1/12 510/2/12 512/3/12 511/4/12
f 513/1/13 514/2/13 516/3/13 515/4/13
f 517/1/13 518/2/13 520/3/13 519/4/13
f 521/1/12 522/2/12 524/3/12 523/4/12
f 525/1/12 526/2/12 528/3/12 527/4/12
f 529/1/13 530/2/13 532/3/13 531/4/13
f 533/1/14 534/2/14 536/3/14 535/4/14
f 537/1/15 538/2/15 540/3/15 539/4/15
f 541/1/15 542/2/15 544/3/15 543/4/15
f 545/1/14 546/2/14 548/3/14 547/4/14
f 549/1/15 550/2/15 552/3/15 551/4/15
f 553/1/15 554/2/15 556/3/15 555/4/15
f 557/1/14 558/2/14 560/3/14 559/4/14
f 561/1/14 562/2/14 564/3/14 563/4/14
f 565/1/15 566/2/15 568/3/15 567/4/15
f 569/1/16 570/2/16 572/3/16 571/4/16
f 573/1/16 574/2/16 576/3/16 575/4/16
f 577/1/16 578/2/16 580/3/16 579/4/16
f 581/1/17 582/2/17 584/3/17 583/4/17
f 585/1/17 586/2/17 588/3/17 587/4/17
f 589/1/16 590/2/16 592/3/16 591/4/16
f 593/1/16 594/2/16 596/3/16 595/4/16
f 597/1/18 598/2/18 600/3/18 599/4/18
f 601/1/19 602/2/19 604/3/19 603/4/19
f 605/1/16 606/2/16 608/3/16 607/4/16
f 609/1/20 610/2/20 612/3/20 611/4/20
f 613/1/16 614/2/16 616/3/16 615/4/16
f 617/1/20 618/2/20 620/3/20 619/4/20
f 621/1/20 622/2/20 624/3/20 623/4/20
f 625/1/20 626/2/20 628/3/20 627/4/20
f 629/1/20 630/2/20 632/3/20 631/4/20
f 633/1/16 634/2/16 636/3/16 635/4/16
f 637/1/20 638/2/20 640/3/20 639/4/20
f 641/1/16 642/2/16 644/3/16 643/4/16
f 645/1/20 646/2/20 648/3/20 647/4/20
f 649/1/20 650/2/20 652/3/20 651/4/20
f 653/1/20 654/2/20 656/3/20 655/4/20
f 657/1/21 658/2/21 660/3/21 659/4/21
f 661/1/22 662/2/22 664/3/22 663/4/22
f 665/1/23 666/2/23 668/3/23 667/4/23
f 669/1/21 670/2/21 672/3/21 671/4/21
f 673/1/24 674/2/24 676/3/24 675/4/24
f 677/1/1 678/2/1 680/3/1 679/4/1
f 681/1/25 682/2/25 684/3/25 683/4/25
f 685/1/1 686/2/1 688/3/1 687/4/1
f 689/1/25 690/2/25 692/3/25 691/4/25
f 693/1/1 694/2/1 696/3/1 695/4/1
f 697/1/1 698/2/1 700/3/1 699/4/1
f 701/1/1 702/2/1 704/3/1 703/4/1
f 705/1/1 706/2/1 708/3/1 707/4/1
f 709/1/25 710/2/25 712/3/25 711/4/25
f 713/1/1 714/2/1 716/3/1 715/4/1
f 717/1/25 718/2/25 720/3/25 719/4/25
f 721/1/1 722/2/1 724/3/1 723/4/1
f 725/1/25 726/2/25 728/3/25 727/4/25
f 729/1/25 730/2/25 732/3/25 731/4/25
f 733/1/26 734/2/26 736/3/26 735/4/26
f 737/1/27 738/2/27 740/3/27 739/4/27
f 741/1/27 742/2/27 744/3/27 743/4/27
f 745/1/28 746/2/28 748/3/28 747/4/28
f 749/1/29 750/2/29 752/3/29 751/4/29
f 753/1/28 754/2/28 756/3/28 755/4/28
f 757/1/29 758/2/29 760/3/29 759/4/29
f 761/1/29 762/2/29 764/3/29 763/4/29
f 765/1/28 766/2/28 768/3/28 767/4/28
f 769/1/29 770/2/29 772/3/29 771/4/29
f 773/1/28 774/2/28 776/3/28 775/4/28
f 777/1/28 778/2/28 780/3/28 779/4/28
f 781/1/30 782/2/30 784/3/30 783/4/30
f 785/1/30 786/2/30 788/3/30 787/4/30
f 789/1/30 790/2/30 792/3/30 791/4/30
f 793/1/31 794/2/31 796/3/31 795/4/31
f 797/1/30 798/2/30 800/3/30 799/4/30
f 801/1/31 802/2/31 804/3/31 803/4/31
f 805/1/31 806/2/31 808/3/31 807/4/31
f 809/1/31 810/2/31 812/3/31 811/4/31
f 813/1/30 814/2/30 816/3/30 815/4/30
f 817/1/31 818/2/31 820/3/31 819/4/31
f 821/1/30 822/2/30 824/3/30 823/4/30
f 825/1/31 826/2/31 828/3/31 827/4/31
f 829/1/31 830/2/31 832/3/31 831/4/31
f 833/1/30 834/2/30 836/3/30 835/4/30
f 837/1/31 838/2/31 840/3/31 839/4/31
f 841/1/31 842/2/31 844/3/31 843/4/31
f 845/1/31 846/2/31 848/3/31 847/4/31
f 849/1/32 850/2/32 852/3/32 851/4/32
f 853/1/32 854/2/32 856/3/32 855/4/32
f 857/1/33 858/2/33 860/3/33 859/4/33
f 861/1/33 862/2/33 864/3/33 863/4/33
f 865/1/34 866/2/34 868/3/34 867/4/34
f 869/1/33 870/2/33 872/3/33 871/4/33
f 873/1/34 874/2/34 876/3/34 875/4/34
f 877/1/33 878/2/33 880/3/33 879/4/33
