# Blender 5.0.1
# www.blender.org
mtllib Pickaxe.mtl
o Untitled.001
v -3.000000 0.800000 -1.000000
v -3.000000 0.800000 -1.200000
v -3.000000 1.200000 -1.000000
v -3.000000 1.200000 -1.200000
v -2.800000 0.400000 -1.000000
v -2.800000 0.400000 -1.200000
v -2.800000 0.600000 -1.200000
v -2.800000 0.600000 -1.400000
v -2.800000 0.800000 -0.800000
v -2.800000 0.800000 -1.000000
v -2.800000 0.800000 -1.200000
v -2.800000 1.200000 -0.800000
v -2.800000 1.200000 -1.000000
v -2.800000 1.200000 -1.200000
v -2.800000 1.400000 -1.200000
v -2.800000 1.400000 -1.400000
v -2.800000 1.600000 -1.000000
v -2.800000 1.600000 -1.200000
v -2.600000 0.400000 -1.200000
v -2.600000 0.400000 -1.400000
v -2.600000 0.600000 -0.800000
v -2.600000 0.600000 -1.000000
v -2.600000 0.600000 -1.200000
v -2.600000 0.600000 -1.400000
v -2.600000 0.800000 -0.600000
v -2.600000 0.800000 -0.800000
v -2.600000 0.800000 -1.000000
v -2.600000 0.800000 -1.400000
v -2.600000 0.800000 -1.600000
v -2.600000 1.200000 -0.600000
v -2.600000 1.200000 -0.800000
v -2.600000 1.200000 -1.000000
v -2.600000 1.200000 -1.400000
v -2.600000 1.200000 -1.600000
v -2.600000 1.400000 -0.800000
v -2.600000 1.400000 -1.000000
v -2.600000 1.400000 -1.200000
v -2.600000 1.400000 -1.400000
v -2.600000 1.600000 -1.200000
v -2.600000 1.600000 -1.400000
v -2.400000 0.600000 -1.400000
v -2.400000 0.600000 -1.600000
v -2.400000 0.800000 -1.400000
v -2.400000 0.800000 -1.600000
v -2.400000 1.200000 -1.400000
v -2.400000 1.200000 -1.600000
v -2.400000 1.400000 -1.400000
v -2.400000 1.400000 -1.600000
v -2.200000 0.400000 -1.400000
v -2.200000 0.400000 -1.600000
v -2.200000 0.600000 -1.400000
v -2.200000 0.600000 -1.600000
v -2.200000 0.800000 -1.600000
v -2.200000 0.800000 -1.800000
v -2.200000 1.200000 -1.600000
v -2.200000 1.200000 -1.800000
v -2.200000 1.400000 -1.400000
v -2.200000 1.400000 -1.600000
v -2.200000 1.600000 -1.400000
v -2.200000 1.600000 -1.600000
v -1.800000 0.600000 -1.600000
v -1.800000 0.600000 -1.800000
v -1.800000 0.800000 -1.600000
v -1.800000 0.800000 -1.800000
v -1.800000 1.200000 -1.600000
v -1.800000 1.200000 -1.800000
v -1.800000 1.400000 -1.600000
v -1.800000 1.400000 -1.800000
v -1.600000 0.800000 -1.800000
v -1.600000 0.800000 -2.000000
v -1.600000 1.200000 -1.800000
v -1.600000 1.200000 -2.000000
v -1.400000 0.400000 -1.600000
v -1.400000 0.400000 -1.800000
v -1.400000 0.600000 -1.600000
v -1.400000 0.600000 -1.800000
v -1.400000 1.400000 -1.600000
v -1.400000 1.400000 -1.800000
v -1.400000 1.600000 -1.600000
v -1.400000 1.600000 -1.800000
v -1.200000 0.400000 -1.800000
v -1.200000 0.400000 -2.000000
v -1.200000 0.800000 -1.800000
v -1.200000 0.800000 -2.000000
v -1.200000 1.200000 -1.800000
v -1.200000 1.200000 -2.000000
v -1.200000 1.600000 -1.800000
v -1.200000 1.600000 -2.000000
v -1.000000 0.800000 -2.000000
v -1.000000 0.800000 -2.200000
v -1.000000 1.200000 -2.000000
v -1.000000 1.200000 -2.200000
v -0.800000 0.600000 -2.000000
v -0.800000 0.600000 -2.200000
v -0.800000 0.800000 -2.000000
v -0.800000 0.800000 -2.200000
v -0.800000 1.200000 -2.000000
v -0.800000 1.200000 -2.200000
v -0.800000 1.400000 -2.000000
v -0.800000 1.400000 -2.200000
v -0.400000 0.400000 -1.400000
v -0.400000 0.400000 -1.800000
v -0.400000 0.400000 -2.000000
v -0.400000 0.400000 -2.200000
v -0.400000 0.600000 -0.600000
v -0.400000 0.600000 -0.800000
v -0.400000 0.600000 -1.000000
v -0.400000 0.600000 -1.400000
v -0.400000 0.600000 -1.600000
v -0.400000 0.600000 -1.800000
v -0.400000 0.600000 -2.000000
v -0.400000 0.600000 -2.200000
v -0.400000 0.600000 -2.400000
v -0.400000 0.800000 2.600000
v -0.400000 0.800000 -0.600000
v -0.400000 0.800000 -0.800000
v -0.400000 0.800000 -1.000000
v -0.400000 0.800000 -1.200000
v -0.400000 0.800000 -1.600000
v -0.400000 0.800000 -2.400000
v -0.400000 0.800000 -2.600000
v -0.400000 1.200000 2.600000
v -0.400000 1.200000 -0.600000
v -0.400000 1.200000 -0.800000
v -0.400000 1.200000 -1.000000
v -0.400000 1.200000 -1.200000
v -0.400000 1.200000 -1.600000
v -0.400000 1.200000 -2.400000
v -0.400000 1.200000 -2.600000
v -0.400000 1.400000 -0.600000
v -0.400000 1.400000 -0.800000
v -0.400000 1.400000 -1.000000
v -0.400000 1.400000 -1.400000
v -0.400000 1.400000 -1.600000
v -0.400000 1.400000 -1.800000
v -0.400000 1.400000 -2.000000
v -0.400000 1.400000 -2.200000
v -0.400000 1.400000 -2.400000
v -0.400000 1.600000 -1.400000
v -0.400000 1.600000 -1.800000
v -0.400000 1.600000 -2.000000
v -0.400000 1.600000 -2.200000
v -0.200000 0.400000 -1.200000
v -0.200000 0.400000 -1.400000
v -0.200000 0.400000 -2.200000
v -0.200000 0.400000 -2.400000
v -0.200000 0.600000 2.600000
v -0.200000 0.600000 -0.600000
v -0.200000 0.600000 -0.800000
v -0.200000 0.600000 -1.000000
v -0.200000 0.600000 -1.200000
v -0.200000 0.600000 -1.400000
v -0.200000 0.600000 -2.200000
v -0.200000 0.600000 -2.400000
v -0.200000 0.600000 -2.600000
v -0.200000 0.800000 2.800000
v -0.200000 0.800000 2.600000
v -0.200000 0.800000 -0.600000
v -0.200000 0.800000 -0.800000
v -0.200000 0.800000 -1.000000
v -0.200000 0.800000 -2.400000
v -0.200000 0.800000 -2.600000
v -0.200000 0.800000 -2.800000
v -0.200000 1.200000 2.800000
v -0.200000 1.200000 2.600000
v -0.200000 1.200000 -0.600000
v -0.200000 1.200000 -0.800000
v -0.200000 1.200000 -1.000000
v -0.200000 1.200000 -2.400000
v -0.200000 1.200000 -2.600000
v -0.200000 1.200000 -2.800000
v -0.200000 1.400000 2.600000
v -0.200000 1.400000 -0.600000
v -0.200000 1.400000 -0.800000
v -0.200000 1.400000 -1.000000
v -0.200000 1.400000 -1.200000
v -0.200000 1.400000 -1.400000
v -0.200000 1.400000 -2.200000
v -0.200000 1.400000 -2.400000
v -0.200000 1.400000 -2.600000
v -0.200000 1.600000 -1.200000
v -0.200000 1.600000 -1.400000
v -0.200000 1.600000 -2.200000
v -0.200000 1.600000 -2.400000
v 0.800000 0.800000 -1.000000
v 0.800000 0.800000 -1.200000
v 0.800000 1.200000 -1.000000
v 0.800000 1.200000 -1.200000
v 1.000000 0.400000 -1.600000
v 1.000000 0.400000 -1.800000
v 1.000000 0.600000 -1.200000
v 1.000000 0.600000 -1.600000
v 1.000000 0.600000 -1.800000
v 1.000000 0.800000 -1.200000
v 1.000000 0.800000 -1.600000
v 1.000000 1.200000 -1.200000
v 1.000000 1.200000 -1.600000
v 1.000000 1.400000 -1.200000
v 1.000000 1.400000 -1.600000
v 1.000000 1.400000 -1.800000
v 1.000000 1.600000 -1.600000
v 1.000000 1.600000 -1.800000
v 1.200000 0.400000 -1.400000
v 1.200000 0.400000 -1.600000
v 1.200000 0.600000 -1.400000
v 1.200000 0.600000 -1.600000
v 1.200000 1.400000 -1.400000
v 1.200000 1.400000 -1.600000
v 1.200000 1.600000 -1.400000
v 1.200000 1.600000 -1.600000
v 1.400000 0.800000 -0.800000
v 1.400000 0.800000 -1.000000
v 1.400000 1.200000 -0.800000
v 1.400000 1.200000 -1.000000
v 1.800000 0.400000 -1.200000
v 1.800000 0.400000 -1.400000
v 1.800000 0.600000 -0.800000
v 1.800000 0.600000 -1.200000
v 1.800000 0.600000 -1.400000
v 1.800000 0.800000 -0.600000
v 1.800000 0.800000 -0.800000
v 1.800000 0.800000 -1.200000
v 1.800000 1.200000 -0.600000
v 1.800000 1.200000 -0.800000
v 1.800000 1.200000 -1.200000
v 1.800000 1.400000 -0.800000
v 1.800000 1.400000 -1.200000
v 1.800000 1.400000 -1.400000
v 1.800000 1.600000 -1.200000
v 1.800000 1.600000 -1.400000
v 2.000000 0.400000 -1.000000
v 2.000000 0.400000 -1.200000
v 2.000000 0.600000 -1.000000
v 2.000000 0.600000 -1.200000
v 2.000000 1.400000 -1.000000
v 2.000000 1.400000 -1.200000
v 2.000000 1.600000 -1.000000
v 2.000000 1.600000 -1.200000
v -2.000000 0.400000 -1.000000
v -2.000000 0.400000 -1.200000
v -2.000000 0.600000 -1.000000
v -2.000000 0.600000 -1.200000
v -2.000000 1.400000 -1.000000
v -2.000000 1.400000 -1.200000
v -2.000000 1.600000 -1.000000
v -2.000000 1.600000 -1.200000
v -1.800000 0.400000 -1.200000
v -1.800000 0.400000 -1.400000
v -1.800000 0.600000 -0.800000
v -1.800000 0.600000 -1.000000
v -1.800000 0.600000 -1.200000
v -1.800000 0.600000 -1.400000
v -1.800000 0.800000 -0.600000
v -1.800000 0.800000 -0.800000
v -1.800000 0.800000 -1.000000
v -1.800000 0.800000 -1.200000
v -1.800000 1.200000 -0.600000
v -1.800000 1.200000 -0.800000
v -1.800000 1.200000 -1.200000
v -1.800000 1.400000 -0.800000
v -1.800000 1.400000 -1.200000
v -1.800000 1.400000 -1.400000
v -1.800000 1.600000 -1.200000
v -1.800000 1.600000 -1.400000
v -1.400000 0.800000 -0.800000
v -1.400000 0.800000 -1.000000
v -1.400000 1.200000 -0.800000
v -1.400000 1.200000 -1.000000
v -1.200000 0.400000 -1.400000
v -1.200000 0.400000 -1.600000
v -1.200000 0.600000 -1.400000
v -1.200000 0.600000 -1.600000
v -1.200000 1.400000 -1.400000
v -1.200000 1.400000 -1.600000
v -1.200000 1.600000 -1.400000
v -1.200000 1.600000 -1.600000
v -1.000000 0.400000 -1.600000
v -1.000000 0.400000 -1.800000
v -1.000000 0.600000 -1.200000
v -1.000000 0.600000 -1.600000
v -1.000000 0.600000 -1.800000
v -1.000000 0.800000 -1.200000
v -1.000000 0.800000 -1.600000
v -1.000000 1.200000 -1.200000
v -1.000000 1.200000 -1.600000
v -1.000000 1.400000 -1.200000
v -1.000000 1.400000 -1.600000
v -1.000000 1.400000 -1.800000
v -1.000000 1.600000 -1.600000
v -1.000000 1.600000 -1.800000
v -0.800000 0.800000 -1.000000
v -0.800000 0.800000 -1.200000
v -0.800000 1.200000 -1.000000
v -0.800000 1.200000 -1.200000
v 0.200000 0.400000 -1.200000
v 0.200000 0.400000 -1.400000
v 0.200000 0.400000 -2.200000
v 0.200000 0.400000 -2.400000
v 0.200000 0.600000 2.600000
v 0.200000 0.600000 -0.600000
v 0.200000 0.600000 -0.800000
v 0.200000 0.600000 -1.000000
v 0.200000 0.600000 -1.200000
v 0.200000 0.600000 -1.400000
v 0.200000 0.600000 -2.200000
v 0.200000 0.600000 -2.400000
v 0.200000 0.600000 -2.600000
v 0.200000 0.800000 2.800000
v 0.200000 0.800000 2.600000
v 0.200000 0.800000 -0.600000
v 0.200000 0.800000 -0.800000
v 0.200000 0.800000 -1.000000
v 0.200000 0.800000 -2.400000
v 0.200000 0.800000 -2.600000
v 0.200000 0.800000 -2.800000
v 0.200000 1.200000 2.800000
v 0.200000 1.200000 2.600000
v 0.200000 1.200000 -0.600000
v 0.200000 1.200000 -0.800000
v 0.200000 1.200000 -1.000000
v 0.200000 1.200000 -2.400000
v 0.200000 1.200000 -2.600000
v 0.200000 1.200000 -2.800000
v 0.200000 1.400000 2.600000
v 0.200000 1.400000 -0.600000
v 0.200000 1.400000 -0.800000
v 0.200000 1.400000 -1.000000
v 0.200000 1.400000 -1.200000
v 0.200000 1.400000 -1.400000
v 0.200000 1.400000 -2.200000
v 0.200000 1.400000 -2.400000
v 0.200000 1.400000 -2.600000
v 0.200000 1.600000 -1.200000
v 0.200000 1.600000 -1.400000
v 0.200000 1.600000 -2.200000
v 0.200000 1.600000 -2.400000
v 0.400000 0.400000 -1.400000
v 0.400000 0.400000 -1.800000
v 0.400000 0.400000 -2.000000
v 0.400000 0.400000 -2.200000
v 0.400000 0.600000 -0.600000
v 0.400000 0.600000 -0.800000
v 0.400000 0.600000 -1.000000
v 0.400000 0.600000 -1.400000
v 0.400000 0.600000 -1.600000
v 0.400000 0.600000 -1.800000
v 0.400000 0.600000 -2.000000
v 0.400000 0.600000 -2.200000
v 0.400000 0.600000 -2.400000
v 0.400000 0.800000 2.600000
v 0.400000 0.800000 -0.600000
v 0.400000 0.800000 -0.800000
v 0.400000 0.800000 -1.000000
v 0.400000 0.800000 -1.200000
v 0.400000 0.800000 -1.600000
v 0.400000 0.800000 -2.400000
v 0.400000 0.800000 -2.600000
v 0.400000 1.200000 2.600000
v 0.400000 1.200000 -0.600000
v 0.400000 1.200000 -0.800000
v 0.400000 1.200000 -1.000000
v 0.400000 1.200000 -1.200000
v 0.400000 1.200000 -1.600000
v 0.400000 1.200000 -2.400000
v 0.400000 1.200000 -2.600000
v 0.400000 1.400000 -0.600000
v 0.400000 1.400000 -0.800000
v 0.400000 1.400000 -1.000000
v 0.400000 1.400000 -1.400000
v 0.400000 1.400000 -1.600000
v 0.400000 1.400000 -1.800000
v 0.400000 1.400000 -2.000000
v 0.400000 1.400000 -2.200000
v 0.400000 1.400000 -2.400000
v 0.400000 1.600000 -1.400000
v 0.400000 1.600000 -1.800000
v 0.400000 1.600000 -2.000000
v 0.400000 1.600000 -2.200000
v 0.800000 0.600000 -2.000000
v 0.800000 0.600000 -2.200000
v 0.800000 0.800000 -2.000000
v 0.800000 0.800000 -2.200000
v 0.800000 1.200000 -2.000000
v 0.800000 1.200000 -2.200000
v 0.800000 1.400000 -2.000000
v 0.800000 1.400000 -2.200000
v 1.000000 0.800000 -2.000000
v 1.000000 0.800000 -2.200000
v 1.000000 1.200000 -2.000000
v 1.000000 1.200000 -2.200000
v 1.200000 0.400000 -1.800000
v 1.200000 0.400000 -2.000000
v 1.200000 0.800000 -1.800000
v 1.200000 0.800000 -2.000000
v 1.200000 1.200000 -1.800000
v 1.200000 1.200000 -2.000000
v 1.200000 1.600000 -1.800000
v 1.200000 1.600000 -2.000000
v 1.400000 0.400000 -1.600000
v 1.400000 0.400000 -1.800000
v 1.400000 0.600000 -1.600000
v 1.400000 0.600000 -1.800000
v 1.400000 1.400000 -1.600000
v 1.400000 1.400000 -1.800000
v 1.400000 1.600000 -1.600000
v 1.400000 1.600000 -1.800000
v 1.600000 0.800000 -1.800000
v 1.600000 0.800000 -2.000000
v 1.600000 1.200000 -1.800000
v 1.600000 1.200000 -2.000000
v 1.800000 0.600000 -1.600000
v 1.800000 0.600000 -1.800000
v 1.800000 0.800000 -1.600000
v 1.800000 0.800000 -1.800000
v 1.800000 1.200000 -1.600000
v 1.800000 1.200000 -1.800000
v 1.800000 1.400000 -1.600000
v 1.800000 1.400000 -1.800000
v 2.200000 0.400000 -1.400000
v 2.200000 0.400000 -1.600000
v 2.200000 0.600000 -1.400000
v 2.200000 0.600000 -1.600000
v 2.200000 0.800000 -1.600000
v 2.200000 0.800000 -1.800000
v 2.200000 1.200000 -1.600000
v 2.200000 1.200000 -1.800000
v 2.200000 1.400000 -1.400000
v 2.200000 1.400000 -1.600000
v 2.200000 1.600000 -1.400000
v 2.200000 1.600000 -1.600000
v 2.400000 0.600000 -1.400000
v 2.400000 0.600000 -1.600000
v 2.400000 0.800000 -1.400000
v 2.400000 0.800000 -1.600000
v 2.400000 1.200000 -1.400000
v 2.400000 1.200000 -1.600000
v 2.400000 1.400000 -1.400000
v 2.400000 1.400000 -1.600000
v 2.600000 0.400000 -1.200000
v 2.600000 0.400000 -1.400000
v 2.600000 0.600000 -0.800000
v 2.600000 0.600000 -1.000000
v 2.600000 0.600000 -1.200000
v 2.600000 0.600000 -1.400000
v 2.600000 0.800000 -0.600000
v 2.600000 0.800000 -0.800000
v 2.600000 0.800000 -1.000000
v 2.600000 0.800000 -1.400000
v 2.600000 0.800000 -1.600000
v 2.600000 1.200000 -0.600000
v 2.600000 1.200000 -0.800000
v 2.600000 1.200000 -1.000000
v 2.600000 1.200000 -1.400000
v 2.600000 1.200000 -1.600000
v 2.600000 1.400000 -0.800000
v 2.600000 1.400000 -1.000000
v 2.600000 1.400000 -1.200000
v 2.600000 1.400000 -1.400000
v 2.600000 1.600000 -1.200000
v 2.600000 1.600000 -1.400000
v 2.800000 0.400000 -1.000000
v 2.800000 0.400000 -1.200000
v 2.800000 0.600000 -1.200000
v 2.800000 0.600000 -1.400000
v 2.800000 0.800000 -0.800000
v 2.800000 0.800000 -1.000000
v 2.800000 0.800000 -1.200000
v 2.800000 1.200000 -0.800000
v 2.800000 1.200000 -1.000000
v 2.800000 1.200000 -1.200000
v 2.800000 1.400000 -1.200000
v 2.800000 1.400000 -1.400000
v 2.800000 1.600000 -1.000000
v 2.800000 1.600000 -1.200000
v 3.000000 0.800000 -1.000000
v 3.000000 0.800000 -1.200000
v 3.000000 1.200000 -1.000000
v 3.000000 1.200000 -1.200000
v -0.200000 0.800000 2.800000
v -0.200000 1.200000 2.800000
v 0.200000 0.800000 2.800000
v 0.200000 1.200000 2.800000
v -0.400000 0.800000 2.600000
v -0.400000 1.200000 2.600000
v -0.200000 0.600000 2.600000
v -0.200000 0.800000 2.600000
v -0.200000 1.200000 2.600000
v -0.200000 1.400000 2.600000
v 0.200000 0.600000 2.600000
v 0.200000 0.800000 2.600000
v 0.200000 1.200000 2.600000
v 0.200000 1.400000 2.600000
v 0.400000 0.800000 2.600000
v 0.400000 1.200000 2.600000
v -2.600000 0.800000 -0.600000
v -2.600000 1.200000 -0.600000
v -1.800000 0.800000 -0.600000
v -1.800000 1.200000 -0.600000
v -0.400000 0.600000 -0.600000
v -0.400000 0.800000 -0.600000
v -0.400000 1.200000 -0.600000
v -0.400000 1.400000 -0.600000
v -0.200000 0.600000 -0.600000
v -0.200000 0.800000 -0.600000
v -0.200000 1.200000 -0.600000
v -0.200000 1.400000 -0.600000
v 0.200000 0.600000 -0.600000
v 0.200000 0.800000 -0.600000
v 0.200000 1.200000 -0.600000
v 0.200000 1.400000 -0.600000
v 0.400000 0.600000 -0.600000
v 0.400000 0.800000 -0.600000
v 0.400000 1.200000 -0.600000
v 0.400000 1.400000 -0.600000
v 1.800000 0.800000 -0.600000
v 1.800000 1.200000 -0.600000
v 2.600000 0.800000 -0.600000
v 2.600000 1.200000 -0.600000
v -2.800000 0.800000 -0.800000
v -2.800000 1.200000 -0.800000
v -2.600000 0.600000 -0.800000
v -2.600000 0.800000 -0.800000
v -2.600000 1.200000 -0.800000
v -2.600000 1.400000 -0.800000
v -1.800000 0.600000 -0.800000
v -1.800000 0.800000 -0.800000
v -1.800000 1.200000 -0.800000
v -1.800000 1.400000 -0.800000
v -1.400000 0.800000 -0.800000
v -1.400000 1.200000 -0.800000
v 1.400000 0.800000 -0.800000
v 1.400000 1.200000 -0.800000
v 1.800000 0.600000 -0.800000
v 1.800000 0.800000 -0.800000
v 1.800000 1.200000 -0.800000
v 1.800000 1.400000 -0.800000
v 2.600000 0.600000 -0.800000
v 2.600000 0.800000 -0.800000
v 2.600000 1.200000 -0.800000
v 2.600000 1.400000 -0.800000
v 2.800000 0.800000 -0.800000
v 2.800000 1.200000 -0.800000
v -3.000000 0.800000 -1.000000
v -3.000000 1.200000 -1.000000
v -2.800000 0.400000 -1.000000
v -2.800000 0.800000 -1.000000
v -2.800000 1.200000 -1.000000
v -2.800000 1.600000 -1.000000
v -2.600000 0.600000 -1.000000
v -2.600000 0.800000 -1.000000
v -2.600000 1.200000 -1.000000
v -2.600000 1.400000 -1.000000
v -2.000000 0.400000 -1.000000
v -2.000000 0.600000 -1.000000
v -2.000000 1.400000 -1.000000
v -2.000000 1.600000 -1.000000
v -1.400000 0.800000 -1.000000
v -1.400000 1.200000 -1.000000
v -0.800000 0.800000 -1.000000
v -0.800000 1.200000 -1.000000
v -0.400000 0.600000 -1.000000
v -0.400000 0.800000 -1.000000
v -0.400000 1.200000 -1.000000
v -0.400000 1.400000 -1.000000
v -0.200000 0.600000 -1.000000
v -0.200000 0.800000 -1.000000
v -0.200000 1.200000 -1.000000
v -0.200000 1.400000 -1.000000
v 0.200000 0.600000 -1.000000
v 0.200000 0.800000 -1.000000
v 0.200000 1.200000 -1.000000
v 0.200000 1.400000 -1.000000
v 0.400000 0.600000 -1.000000
v 0.400000 0.800000 -1.000000
v 0.400000 1.200000 -1.000000
v 0.400000 1.400000 -1.000000
v 0.800000 0.800000 -1.000000
v 0.800000 1.200000 -1.000000
v 1.400000 0.800000 -1.000000
v 1.400000 1.200000 -1.000000
v 2.000000 0.400000 -1.000000
v 2.000000 0.600000 -1.000000
v 2.000000 1.400000 -1.000000
v 2.000000 1.600000 -1.000000
v 2.600000 0.600000 -1.000000
v 2.600000 0.800000 -1.000000
v 2.600000 1.200000 -1.000000
v 2.600000 1.400000 -1.000000
v 2.800000 0.400000 -1.000000
v 2.800000 0.800000 -1.000000
v 2.800000 1.200000 -1.000000
v 2.800000 1.600000 -1.000000
v 3.000000 0.800000 -1.000000
v 3.000000 1.200000 -1.000000
v -2.000000 0.400000 -1.200000
v -2.000000 0.600000 -1.200000
v -2.000000 1.400000 -1.200000
v -2.000000 1.600000 -1.200000
v -1.800000 0.400000 -1.200000
v -1.800000 0.600000 -1.200000
v -1.800000 0.800000 -1.200000
v -1.800000 1.200000 -1.200000
v -1.800000 1.400000 -1.200000
v -1.800000 1.600000 -1.200000
v -1.000000 0.600000 -1.200000
v -1.000000 0.800000 -1.200000
v -1.000000 1.200000 -1.200000
v -1.000000 1.400000 -1.200000
v -0.800000 0.800000 -1.200000
v -0.800000 1.200000 -1.200000
v -0.400000 0.800000 -1.200000
v -0.400000 1.200000 -1.200000
v -0.200000 0.400000 -1.200000
v -0.200000 0.600000 -1.200000
v -0.200000 1.400000 -1.200000
v -0.200000 1.600000 -1.200000
v 0.200000 0.400000 -1.200000
v 0.200000 0.600000 -1.200000
v 0.200000 1.400000 -1.200000
v 0.200000 1.600000 -1.200000
v 0.400000 0.800000 -1.200000
v 0.400000 1.200000 -1.200000
v 0.800000 0.800000 -1.200000
v 0.800000 1.200000 -1.200000
v 1.000000 0.600000 -1.200000
v 1.000000 0.800000 -1.200000
v 1.000000 1.200000 -1.200000
v 1.000000 1.400000 -1.200000
v 1.800000 0.400000 -1.200000
v 1.800000 0.600000 -1.200000
v 1.800000 0.800000 -1.200000
v 1.800000 1.200000 -1.200000
v 1.800000 1.400000 -1.200000
v 1.800000 1.600000 -1.200000
v 2.000000 0.400000 -1.200000
v 2.000000 0.600000 -1.200000
v 2.000000 1.400000 -1.200000
v 2.000000 1.600000 -1.200000
v -1.800000 0.400000 -1.400000
v -1.800000 0.600000 -1.400000
v -1.800000 1.400000 -1.400000
v -1.800000 1.600000 -1.400000
v -1.200000 0.400000 -1.400000
v -1.200000 0.600000 -1.400000
v -1.200000 1.400000 -1.400000
v -1.200000 1.600000 -1.400000
v -0.400000 0.400000 -1.400000
v -0.400000 0.600000 -1.400000
v -0.400000 1.400000 -1.400000
v -0.400000 1.600000 -1.400000
v -0.200000 0.400000 -1.400000
v -0.200000 0.600000 -1.400000
v -0.200000 1.400000 -1.400000
v -0.200000 1.600000 -1.400000
v 0.200000 0.400000 -1.400000
v 0.200000 0.600000 -1.400000
v 0.200000 1.400000 -1.400000
v 0.200000 1.600000 -1.400000
v 0.400000 0.400000 -1.400000
v 0.400000 0.600000 -1.400000
v 0.400000 1.400000 -1.400000
v 0.400000 1.600000 -1.400000
v 1.200000 0.400000 -1.400000
v 1.200000 0.600000 -1.400000
v 1.200000 1.400000 -1.400000
v 1.200000 1.600000 -1.400000
v 1.800000 0.400000 -1.400000
v 1.800000 0.600000 -1.400000
v 1.800000 1.400000 -1.400000
v 1.800000 1.600000 -1.400000
v -1.200000 0.400000 -1.600000
v -1.200000 0.600000 -1.600000
v -1.200000 1.400000 -1.600000
v -1.200000 1.600000 -1.600000
v -1.000000 0.400000 -1.600000
v -1.000000 0.600000 -1.600000
v -1.000000 0.800000 -1.600000
v -1.000000 1.200000 -1.600000
v -1.000000 1.400000 -1.600000
v -1.000000 1.600000 -1.600000
v -0.400000 0.600000 -1.600000
v -0.400000 0.800000 -1.600000
v -0.400000 1.200000 -1.600000
v -0.400000 1.400000 -1.600000
v 0.400000 0.600000 -1.600000
v 0.400000 0.800000 -1.600000
v 0.400000 1.200000 -1.600000
v 0.400000 1.400000 -1.600000
v 1.000000 0.400000 -1.600000
v 1.000000 0.600000 -1.600000
v 1.000000 0.800000 -1.600000
v 1.000000 1.200000 -1.600000
v 1.000000 1.400000 -1.600000
v 1.000000 1.600000 -1.600000
v 1.200000 0.400000 -1.600000
v 1.200000 0.600000 -1.600000
v 1.200000 1.400000 -1.600000
v 1.200000 1.600000 -1.600000
v -1.000000 0.400000 -1.800000
v -1.000000 0.600000 -1.800000
v -1.000000 1.400000 -1.800000
v -1.000000 1.600000 -1.800000
v -0.400000 0.400000 -1.800000
v -0.400000 0.600000 -1.800000
v -0.400000 1.400000 -1.800000
v -0.400000 1.600000 -1.800000
v 0.400000 0.400000 -1.800000
v 0.400000 0.600000 -1.800000
v 0.400000 1.400000 -1.800000
v 0.400000 1.600000 -1.800000
v 1.000000 0.400000 -1.800000
v 1.000000 0.600000 -1.800000
v 1.000000 1.400000 -1.800000
v 1.000000 1.600000 -1.800000
v -0.400000 0.600000 -0.800000
v -0.400000 0.800000 -0.800000
v -0.400000 1.200000 -0.800000
v -0.400000 1.400000 -0.800000
v -0.200000 0.600000 -0.800000
v -0.200000 0.800000 -0.800000
v -0.200000 1.200000 -0.800000
v -0.200000 1.400000 -0.800000
v 0.200000 0.600000 -0.800000
v 0.200000 0.800000 -0.800000
v 0.200000 1.200000 -0.800000
v 0.200000 1.400000 -0.800000
v 0.400000 0.600000 -0.800000
v 0.400000 0.800000 -0.800000
v 0.400000 1.200000 -0.800000
v 0.400000 1.400000 -0.800000
v -3.000000 0.800000 -1.200000
v -3.000000 1.200000 -1.200000
v -2.800000 0.400000 -1.200000
v -2.800000 0.600000 -1.200000
v -2.800000 0.800000 -1.200000
v -2.800000 1.200000 -1.200000
v -2.800000 1.400000 -1.200000
v -2.800000 1.600000 -1.200000
v -2.600000 0.400000 -1.200000
v -2.600000 0.600000 -1.200000
v -2.600000 1.400000 -1.200000
v -2.600000 1.600000 -1.200000
v 2.600000 0.400000 -1.200000
v 2.600000 0.600000 -1.200000
v 2.600000 1.400000 -1.200000
v 2.600000 1.600000 -1.200000
v 2.800000 0.400000 -1.200000
v 2.800000 0.600000 -1.200000
v 2.800000 0.800000 -1.200000
v 2.800000 1.200000 -1.200000
v 2.800000 1.400000 -1.200000
v 2.800000 1.600000 -1.200000
v 3.000000 0.800000 -1.200000
v 3.000000 1.200000 -1.200000
v -2.800000 0.600000 -1.400000
v -2.800000 1.400000 -1.400000
v -2.600000 0.400000 -1.400000
v -2.600000 0.600000 -1.400000
v -2.600000 0.800000 -1.400000
v -2.600000 1.200000 -1.400000
v -2.600000 1.400000 -1.400000
v -2.600000 1.600000 -1.400000
v -2.400000 0.600000 -1.400000
v -2.400000 0.800000 -1.400000
v -2.400000 1.200000 -1.400000
v -2.400000 1.400000 -1.400000
v -2.200000 0.400000 -1.400000
v -2.200000 0.600000 -1.400000
v -2.200000 1.400000 -1.400000
v -2.200000 1.600000 -1.400000
v 2.200000 0.400000 -1.400000
v 2.200000 0.600000 -1.400000
v 2.200000 1.400000 -1.400000
v 2.200000 1.600000 -1.400000
v 2.400000 0.600000 -1.400000
v 2.400000 0.800000 -1.400000
v 2.400000 1.200000 -1.400000
v 2.400000 1.400000 -1.400000
v 2.600000 0.400000 -1.400000
v 2.600000 0.600000 -1.400000
v 2.600000 0.800000 -1.400000
v 2.600000 1.200000 -1.400000
v 2.600000 1.400000 -1.400000
v 2.600000 1.600000 -1.400000
v 2.800000 0.600000 -1.400000
v 2.800000 1.400000 -1.400000
v -2.600000 0.800000 -1.600000
v -2.600000 1.200000 -1.600000
v -2.400000 0.600000 -1.600000
v -2.400000 0.800000 -1.600000
v -2.400000 1.200000 -1.600000
v -2.400000 1.400000 -1.600000
v -2.200000 0.400000 -1.600000
v -2.200000 0.600000 -1.600000
v -2.200000 0.800000 -1.600000
v -2.200000 1.200000 -1.600000
v -2.200000 1.400000 -1.600000
v -2.200000 1.600000 -1.600000
v -1.800000 0.600000 -1.600000
v -1.800000 0.800000 -1.600000
v -1.800000 1.200000 -1.600000
v -1.800000 1.400000 -1.600000
v -1.400000 0.400000 -1.600000
v -1.400000 0.600000 -1.600000
v -1.400000 1.400000 -1.600000
v -1.400000 1.600000 -1.600000
v 1.400000 0.400000 -1.600000
v 1.400000 0.600000 -1.600000
v 1.400000 1.400000 -1.600000
v 1.400000 1.600000 -1.600000
v 1.800000 0.600000 -1.600000
v 1.800000 0.800000 -1.600000
v 1.800000 1.200000 -1.600000
v 1.800000 1.400000 -1.600000
v 2.200000 0.400000 -1.600000
v 2.200000 0.600000 -1.600000
v 2.200000 0.800000 -1.600000
v 2.200000 1.200000 -1.600000
v 2.200000 1.400000 -1.600000
v 2.200000 1.600000 -1.600000
v 2.400000 0.600000 -1.600000
v 2.400000 0.800000 -1.600000
v 2.400000 1.200000 -1.600000
v 2.400000 1.400000 -1.600000
v 2.600000 0.800000 -1.600000
v 2.600000 1.200000 -1.600000
v -2.200000 0.800000 -1.800000
v -2.200000 1.200000 -1.800000
v -1.800000 0.600000 -1.800000
v -1.800000 0.800000 -1.800000
v -1.800000 1.200000 -1.800000
v -1.800000 1.400000 -1.800000
v -1.600000 0.800000 -1.800000
v -1.600000 1.200000 -1.800000
v -1.400000 0.400000 -1.800000
v -1.400000 0.600000 -1.800000
v -1.400000 1.400000 -1.800000
v -1.400000 1.600000 -1.800000
v -1.200000 0.400000 -1.800000
v -1.200000 0.800000 -1.800000
v -1.200000 1.200000 -1.800000
v -1.200000 1.600000 -1.800000
v 1.200000 0.400000 -1.800000
v 1.200000 0.800000 -1.800000
v 1.200000 1.200000 -1.800000
v 1.200000 1.600000 -1.800000
v 1.400000 0.400000 -1.800000
v 1.400000 0.600000 -1.800000
v 1.400000 1.400000 -1.800000
v 1.400000 1.600000 -1.800000
v 1.600000 0.800000 -1.800000
v 1.600000 1.200000 -1.800000
v 1.800000 0.600000 -1.800000
v 1.800000 0.800000 -1.800000
v 1.800000 1.200000 -1.800000
v 1.800000 1.400000 -1.800000
v 2.200000 0.800000 -1.800000
v 2.200000 1.200000 -1.800000
v -1.600000 0.800000 -2.000000
v -1.600000 1.200000 -2.000000
v -1.200000 0.400000 -2.000000
v -1.200000 0.800000 -2.000000
v -1.200000 1.200000 -2.000000
v -1.200000 1.600000 -2.000000
v -1.000000 0.800000 -2.000000
v -1.000000 1.200000 -2.000000
v -0.800000 0.600000 -2.000000
v -0.800000 0.800000 -2.000000
v -0.800000 1.200000 -2.000000
v -0.800000 1.400000 -2.000000
v -0.400000 0.400000 -2.000000
v -0.400000 0.600000 -2.000000
v -0.400000 1.400000 -2.000000
v -0.400000 1.600000 -2.000000
v 0.400000 0.400000 -2.000000
v 0.400000 0.600000 -2.000000
v 0.400000 1.400000 -2.000000
v 0.400000 1.600000 -2.000000
v 0.800000 0.600000 -2.000000
v 0.800000 0.800000 -2.000000
v 0.800000 1.200000 -2.000000
v 0.800000 1.400000 -2.000000
v 1.000000 0.800000 -2.000000
v 1.000000 1.200000 -2.000000
v 1.200000 0.400000 -2.000000
v 1.200000 0.800000 -2.000000
v 1.200000 1.200000 -2.000000
v 1.200000 1.600000 -2.000000
v 1.600000 0.800000 -2.000000
v 1.600000 1.200000 -2.000000
v -1.000000 0.800000 -2.200000
v -1.000000 1.200000 -2.200000
v -0.800000 0.600000 -2.200000
v -0.800000 0.800000 -2.200000
v -0.800000 1.200000 -2.200000
v -0.800000 1.400000 -2.200000
v -0.400000 0.400000 -2.200000
v -0.400000 0.600000 -2.200000
v -0.400000 1.400000 -2.200000
v -0.400000 1.600000 -2.200000
v -0.200000 0.400000 -2.200000
v -0.200000 0.600000 -2.200000
v -0.200000 1.400000 -2.200000
v -0.200000 1.600000 -2.200000
v 0.200000 0.400000 -2.200000
v 0.200000 0.600000 -2.200000
v 0.200000 1.400000 -2.200000
v 0.200000 1.600000 -2.200000
v 0.400000 0.400000 -2.200000
v 0.400000 0.600000 -2.200000
v 0.400000 1.400000 -2.200000
v 0.400000 1.600000 -2.200000
v 0.800000 0.600000 -2.200000
v 0.800000 0.800000 -2.200000
v 0.800000 1.200000 -2.200000
v 0.800000 1.400000 -2.200000
v 1.000000 0.800000 -2.200000
v 1.000000 1.200000 -2.200000
v -0.400000 0.600000 -2.400000
v -0.400000 0.800000 -2.400000
v -0.400000 1.200000 -2.400000
v -0.400000 1.400000 -2.400000
v -0.200000 0.400000 -2.400000
v -0.200000 0.600000 -2.400000
v -0.200000 0.800000 -2.400000
v -0.200000 1.200000 -2.400000
v -0.200000 1.400000 -2.400000
v -0.200000 1.600000 -2.400000
v 0.200000 0.400000 -2.400000
v 0.200000 0.600000 -2.400000
v 0.200000 0.800000 -2.400000
v 0.200000 1.200000 -2.400000
v 0.200000 1.400000 -2.400000
v 0.200000 1.600000 -2.400000
v 0.400000 0.600000 -2.400000
v 0.400000 0.800000 -2.400000
v 0.400000 1.200000 -2.400000
v 0.400000 1.400000 -2.400000
v -0.400000 0.800000 -2.600000
v -0.400000 1.200000 -2.600000
v -0.200000 0.600000 -2.600000
v -0.200000 0.800000 -2.600000
v -0.200000 1.200000 -2.600000
v -0.200000 1.400000 -2.600000
v 0.200000 0.600000 -2.600000
v 0.200000 0.800000 -2.600000
v 0.200000 1.200000 -2.600000
v 0.200000 1.400000 -2.600000
v 0.400000 0.800000 -2.600000
v 0.400000 1.200000 -2.600000
v -0.200000 0.800000 -2.800000
v -0.200000 1.200000 -2.800000
v 0.200000 0.800000 -2.800000
v 0.200000 1.200000 -2.800000
v -2.800000 0.400000 -1.000000
v -2.000000 0.400000 -1.000000
v 2.000000 0.400000 -1.000000
v 2.800000 0.400000 -1.000000
v -2.800000 0.400000 -1.200000
v -2.600000 0.400000 -1.200000
v -2.000000 0.400000 -1.200000
v -1.800000 0.400000 -1.200000
v -0.200000 0.400000 -1.200000
v 0.200000 0.400000 -1.200000
v 1.800000 0.400000 -1.200000
v 2.000000 0.400000 -1.200000
v 2.600000 0.400000 -1.200000
v 2.800000 0.400000 -1.200000
v -2.600000 0.400000 -1.400000
v -2.200000 0.400000 -1.400000
v -1.800000 0.400000 -1.400000
v -1.200000 0.400000 -1.400000
v -0.400000 0.400000 -1.400000
v -0.200000 0.400000 -1.400000
v 0.200000 0.400000 -1.400000
v 0.400000 0.400000 -1.400000
v 1.200000 0.400000 -1.400000
v 1.800000 0.400000 -1.400000
v 2.200000 0.400000 -1.400000
v 2.600000 0.400000 -1.400000
v -2.200000 0.400000 -1.600000
v -1.400000 0.400000 -1.600000
v -1.200000 0.400000 -1.600000
v -1.000000 0.400000 -1.600000
v 1.000000 0.400000 -1.600000
v 1.200000 0.400000 -1.600000
v 1.400000 0.400000 -1.600000
v 2.200000 0.400000 -1.600000
v -1.400000 0.400000 -1.800000
v -1.200000 0.400000 -1.800000
v -1.000000 0.400000 -1.800000
v -0.400000 0.400000 -1.800000
v 0.400000 0.400000 -1.800000
v 1.000000 0.400000 -1.800000
v 1.200000 0.400000 -1.800000
v 1.400000 0.400000 -1.800000
v -1.200000 0.400000 -2.000000
v -0.400000 0.400000 -2.000000
v 0.400000 0.400000 -2.000000
v 1.200000 0.400000 -2.000000
v -0.400000 0.400000 -2.200000
v -0.200000 0.400000 -2.200000
v 0.200000 0.400000 -2.200000
v 0.400000 0.400000 -2.200000
v -0.200000 0.400000 -2.400000
v 0.200000 0.400000 -2.400000
v -0.200000 0.600000 2.600000
v 0.200000 0.600000 2.600000
v -0.400000 0.600000 -0.600000
v -0.200000 0.600000 -0.600000
v 0.200000 0.600000 -0.600000
v 0.400000 0.600000 -0.600000
v -2.600000 0.600000 -0.800000
v -1.800000 0.600000 -0.800000
v -0.400000 0.600000 -0.800000
v -0.200000 0.600000 -0.800000
v 0.200000 0.600000 -0.800000
v 0.400000 0.600000 -0.800000
v 1.800000 0.600000 -0.800000
v 2.600000 0.600000 -0.800000
v -2.600000 0.600000 -1.000000
v -2.000000 0.600000 -1.000000
v -1.800000 0.600000 -1.000000
v -0.400000 0.600000 -1.000000
v -0.200000 0.600000 -1.000000
v 0.200000 0.600000 -1.000000
v 0.400000 0.600000 -1.000000
v 2.000000 0.600000 -1.000000
v 2.600000 0.600000 -1.000000
v -2.800000 0.600000 -1.200000
v -2.600000 0.600000 -1.200000
v -2.000000 0.600000 -1.200000
v -1.800000 0.600000 -1.200000
v -1.000000 0.600000 -1.200000
v -0.200000 0.600000 -1.200000
v 0.200000 0.600000 -1.200000
v 1.000000 0.600000 -1.200000
v 1.800000 0.600000 -1.200000
v 2.000000 0.600000 -1.200000
v 2.600000 0.600000 -1.200000
v 2.800000 0.600000 -1.200000
v -2.800000 0.600000 -1.400000
v -2.600000 0.600000 -1.400000
v -2.400000 0.600000 -1.400000
v -2.200000 0.600000 -1.400000
v -1.800000 0.600000 -1.400000
v -1.200000 0.600000 -1.400000
v -0.400000 0.600000 -1.400000
v -0.200000 0.600000 -1.400000
v 0.200000 0.600000 -1.400000
v 0.400000 0.600000 -1.400000
v 1.200000 0.600000 -1.400000
v 1.800000 0.600000 -1.400000
v 2.200000 0.600000 -1.400000
v 2.400000 0.600000 -1.400000
v 2.600000 0.600000 -1.400000
v 2.800000 0.600000 -1.400000
v -2.400000 0.600000 -1.600000
v -2.200000 0.600000 -1.600000
v -1.800000 0.600000 -1.600000
v -1.400000 0.600000 -1.600000
v -1.200000 0.600000 -1.600000
v -1.000000 0.600000 -1.600000
v -0.400000 0.600000 -1.600000
v 0.400000 0.600000 -1.600000
v 1.000000 0.600000 -1.600000
v 1.200000 0.600000 -1.600000
v 1.400000 0.600000 -1.600000
v 1.800000 0.600000 -1.600000
v 2.200000 0.600000 -1.600000
v 2.400000 0.600000 -1.600000
v -1.800000 0.600000 -1.800000
v -1.400000 0.600000 -1.800000
v -1.000000 0.600000 -1.800000
v -0.400000 0.600000 -1.800000
v 0.400000 0.600000 -1.800000
v 1.000000 0.600000 -1.800000
v 1.400000 0.600000 -1.800000
v 1.800000 0.600000 -1.800000
v -0.800000 0.600000 -2.000000
v -0.400000 0.600000 -2.000000
v 0.400000 0.600000 -2.000000
v 0.800000 0.600000 -2.000000
v -0.800000 0.600000 -2.200000
v -0.400000 0.600000 -2.200000
v -0.200000 0.600000 -2.200000
v 0.200000 0.600000 -2.200000
v 0.400000 0.600000 -2.200000
v 0.800000 0.600000 -2.200000
v -0.400000 0.600000 -2.400000
v -0.200000 0.600000 -2.400000
v 0.200000 0.600000 -2.400000
v 0.400000 0.600000 -2.400000
v -0.200000 0.600000 -2.600000
v 0.200000 0.600000 -2.600000
v -0.200000 0.800000 2.800000
v 0.200000 0.800000 2.800000
v -0.400000 0.800000 2.600000
v -0.200000 0.800000 2.600000
v 0.200000 0.800000 2.600000
v 0.400000 0.800000 2.600000
v -2.600000 0.800000 -0.600000
v -1.800000 0.800000 -0.600000
v -0.400000 0.800000 -0.600000
v -0.200000 0.800000 -0.600000
v 0.200000 0.800000 -0.600000
v 0.400000 0.800000 -0.600000
v 1.800000 0.800000 -0.600000
v 2.600000 0.800000 -0.600000
v -2.800000 0.800000 -0.800000
v -2.600000 0.800000 -0.800000
v -1.800000 0.800000 -0.800000
v -1.400000 0.800000 -0.800000
v -0.400000 0.800000 -0.800000
v -0.200000 0.800000 -0.800000
v 0.200000 0.800000 -0.800000
v 0.400000 0.800000 -0.800000
v 1.400000 0.800000 -0.800000
v 1.800000 0.800000 -0.800000
v 2.600000 0.800000 -0.800000
v 2.800000 0.800000 -0.800000
v -3.000000 0.800000 -1.000000
v -2.800000 0.800000 -1.000000
v -2.600000 0.800000 -1.000000
v -1.800000 0.800000 -1.000000
v -1.400000 0.800000 -1.000000
v -0.800000 0.800000 -1.000000
v -0.400000 0.800000 -1.000000
v -0.200000 0.800000 -1.000000
v 0.200000 0.800000 -1.000000
v 0.400000 0.800000 -1.000000
v 0.800000 0.800000 -1.000000
v 1.400000 0.800000 -1.000000
v 2.600000 0.800000 -1.000000
v 2.800000 0.800000 -1.000000
v 3.000000 0.800000 -1.000000
v -3.000000 0.800000 -1.200000
v -2.800000 0.800000 -1.200000
v -1.800000 0.800000 -1.200000
v -1.000000 0.800000 -1.200000
v -0.800000 0.800000 -1.200000
v -0.400000 0.800000 -1.200000
v 0.400000 0.800000 -1.200000
v 0.800000 0.800000 -1.200000
v 1.000000 0.800000 -1.200000
v 1.800000 0.800000 -1.200000
v 2.800000 0.800000 -1.200000
v 3.000000 0.800000 -1.200000
v -2.600000 0.800000 -1.400000
v -2.400000 0.800000 -1.400000
v 2.400000 0.800000 -1.400000
v 2.600000 0.800000 -1.400000
v -2.600000 0.800000 -1.600000
v -2.400000 0.800000 -1.600000
v -2.200000 0.800000 -1.600000
v -1.800000 0.800000 -1.600000
v -1.000000 0.800000 -1.600000
v -0.400000 0.800000 -1.600000
v 0.400000 0.800000 -1.600000
v 1.000000 0.800000 -1.600000
v 1.800000 0.800000 -1.600000
v 2.200000 0.800000 -1.600000
v 2.400000 0.800000 -1.600000
v 2.600000 0.800000 -1.600000
v -2.200000 0.800000 -1.800000
v -1.800000 0.800000 -1.800000
v -1.600000 0.800000 -1.800000
v -1.200000 0.800000 -1.800000
v 1.200000 0.800000 -1.800000
v 1.600000 0.800000 -1.800000
v 1.800000 0.800000 -1.800000
v 2.200000 0.800000 -1.800000
v -1.600000 0.800000 -2.000000
v -1.200000 0.800000 -2.000000
v -1.000000 0.800000 -2.000000
v -0.800000 0.800000 -2.000000
v 0.800000 0.800000 -2.000000
v 1.000000 0.800000 -2.000000
v 1.200000 0.800000 -2.000000
v 1.600000 0.800000 -2.000000
v -1.000000 0.800000 -2.200000
v -0.800000 0.800000 -2.200000
v 0.800000 0.800000 -2.200000
v 1.000000 0.800000 -2.200000
v -0.400000 0.800000 -2.400000
v -0.200000 0.800000 -2.400000
v 0.200000 0.800000 -2.400000
v 0.400000 0.800000 -2.400000
v -0.400000 0.800000 -2.600000
v -0.200000 0.800000 -2.600000
v 0.200000 0.800000 -2.600000
v 0.400000 0.800000 -2.600000
v -0.200000 0.800000 -2.800000
v 0.200000 0.800000 -2.800000
v -0.200000 1.200000 2.800000
v 0.200000 1.200000 2.800000
v -0.400000 1.200000 2.600000
v -0.200000 1.200000 2.600000
v 0.200000 1.200000 2.600000
v 0.400000 1.200000 2.600000
v -2.600000 1.200000 -0.600000
v -1.800000 1.200000 -0.600000
v -0.400000 1.200000 -0.600000
v -0.200000 1.200000 -0.600000
v 0.200000 1.200000 -0.600000
v 0.400000 1.200000 -0.600000
v 1.800000 1.200000 -0.600000
v 2.600000 1.200000 -0.600000
v -2.800000 1.200000 -0.800000
v -2.600000 1.200000 -0.800000
v -1.800000 1.200000 -0.800000
v -1.400000 1.200000 -0.800000
v -0.400000 1.200000 -0.800000
v -0.200000 1.200000 -0.800000
v 0.200000 1.200000 -0.800000
v 0.400000 1.200000 -0.800000
v 1.400000 1.200000 -0.800000
v 1.800000 1.200000 -0.800000
v 2.600000 1.200000 -0.800000
v 2.800000 1.200000 -0.800000
v -3.000000 1.200000 -1.000000
v -2.800000 1.200000 -1.000000
v -2.600000 1.200000 -1.000000
v -1.400000 1.200000 -1.000000
v -0.800000 1.200000 -1.000000
v -0.400000 1.200000 -1.000000
v -0.200000 1.200000 -1.000000
v 0.200000 1.200000 -1.000000
v 0.400000 1.200000 -1.000000
v 0.800000 1.200000 -1.000000
v 1.400000 1.200000 -1.000000
v 2.600000 1.200000 -1.000000
v 2.800000 1.200000 -1.000000
v 3.000000 1.200000 -1.000000
v -3.000000 1.200000 -1.200000
v -2.800000 1.200000 -1.200000
v -1.800000 1.200000 -1.200000
v -1.000000 1.200000 -1.200000
v -0.800000 1.200000 -1.200000
v -0.400000 1.200000 -1.200000
v 0.400000 1.200000 -1.200000
v 0.800000 1.200000 -1.200000
v 1.000000 1.200000 -1.200000
v 1.800000 1.200000 -1.200000
v 2.800000 1.200000 -1.200000
v 3.000000 1.200000 -1.200000
v -2.600000 1.200000 -1.400000
v -2.400000 1.200000 -1.400000
v 2.400000 1.200000 -1.400000
v 2.600000 1.200000 -1.400000
v -2.600000 1.200000 -1.600000
v -2.400000 1.200000 -1.600000
v -2.200000 1.200000 -1.600000
v -1.800000 1.200000 -1.600000
v -1.000000 1.200000 -1.600000
v -0.400000 1.200000 -1.600000
v 0.400000 1.200000 -1.600000
v 1.000000 1.200000 -1.600000
v 1.800000 1.200000 -1.600000
v 2.200000 1.200000 -1.600000
v 2.400000 1.200000 -1.600000
v 2.600000 1.200000 -1.600000
v -2.200000 1.200000 -1.800000
v -1.800000 1.200000 -1.800000
v -1.600000 1.200000 -1.800000
v -1.200000 1.200000 -1.800000
v 1.200000 1.200000 -1.800000
v 1.600000 1.200000 -1.800000
v 1.800000 1.200000 -1.800000
v 2.200000 1.200000 -1.800000
v -1.600000 1.200000 -2.000000
v -1.200000 1.200000 -2.000000
v -1.000000 1.200000 -2.000000
v -0.800000 1.200000 -2.000000
v 0.800000 1.200000 -2.000000
v 1.000000 1.200000 -2.000000
v 1.200000 1.200000 -2.000000
v 1.600000 1.200000 -2.000000
v -1.000000 1.200000 -2.200000
v -0.800000 1.200000 -2.200000
v 0.800000 1.200000 -2.200000
v 1.000000 1.200000 -2.200000
v -0.400000 1.200000 -2.400000
v -0.200000 1.200000 -2.400000
v 0.200000 1.200000 -2.400000
v 0.400000 1.200000 -2.400000
v -0.400000 1.200000 -2.600000
v -0.200000 1.200000 -2.600000
v 0.200000 1.200000 -2.600000
v 0.400000 1.200000 -2.600000
v -0.200000 1.200000 -2.800000
v 0.200000 1.200000 -2.800000
v -0.200000 1.400000 2.600000
v 0.200000 1.400000 2.600000
v -0.400000 1.400000 -0.600000
v -0.200000 1.400000 -0.600000
v 0.200000 1.400000 -0.600000
v 0.400000 1.400000 -0.600000
v -2.600000 1.400000 -0.800000
v -1.800000 1.400000 -0.800000
v -0.400000 1.400000 -0.800000
v -0.200000 1.400000 -0.800000
v 0.200000 1.400000 -0.800000
v 0.400000 1.400000 -0.800000
v 1.800000 1.400000 -0.800000
v 2.600000 1.400000 -0.800000
v -2.600000 1.400000 -1.000000
v -2.000000 1.400000 -1.000000
v -0.400000 1.400000 -1.000000
v -0.200000 1.400000 -1.000000
v 0.200000 1.400000 -1.000000
v 0.400000 1.400000 -1.000000
v 2.000000 1.400000 -1.000000
v 2.600000 1.400000 -1.000000
v -2.800000 1.400000 -1.200000
v -2.600000 1.400000 -1.200000
v -2.000000 1.400000 -1.200000
v -1.800000 1.400000 -1.200000
v -1.000000 1.400000 -1.200000
v -0.200000 1.400000 -1.200000
v 0.200000 1.400000 -1.200000
v 1.000000 1.400000 -1.200000
v 1.800000 1.400000 -1.200000
v 2.000000 1.400000 -1.200000
v 2.600000 1.400000 -1.200000
v 2.800000 1.400000 -1.200000
v -2.800000 1.400000 -1.400000
v -2.600000 1.400000 -1.400000
v -2.400000 1.400000 -1.400000
v -2.200000 1.400000 -1.400000
v -1.800000 1.400000 -1.400000
v -1.200000 1.400000 -1.400000
v -0.400000 1.400000 -1.400000
v -0.200000 1.400000 -1.400000
v 0.200000 1.400000 -1.400000
v 0.400000 1.400000 -1.400000
v 1.200000 1.400000 -1.400000
v 1.800000 1.400000 -1.400000
v 2.200000 1.400000 -1.400000
v 2.400000 1.400000 -1.400000
v 2.600000 1.400000 -1.400000
v 2.800000 1.400000 -1.400000
v -2.400000 1.400000 -1.600000
v -2.200000 1.400000 -1.600000
v -1.800000 1.400000 -1.600000
v -1.400000 1.400000 -1.600000
v -1.200000 1.400000 -1.600000
v -1.000000 1.400000 -1.600000
v -0.400000 1.400000 -1.600000
v 0.400000 1.400000 -1.600000
v 1.000000 1.400000 -1.600000
v 1.200000 1.400000 -1.600000
v 1.400000 1.400000 -1.600000
v 1.800000 1.400000 -1.600000
v 2.200000 1.400000 -1.600000
v 2.400000 1.400000 -1.600000
v -1.800000 1.400000 -1.800000
v -1.400000 1.400000 -1.800000
v -1.000000 1.400000 -1.800000
v -0.400000 1.400000 -1.800000
v 0.400000 1.400000 -1.800000
v 1.000000 1.400000 -1.800000
v 1.400000 1.400000 -1.800000
v 1.800000 1.400000 -1.800000
v -0.800000 1.400000 -2.000000
v -0.400000 1.400000 -2.000000
v 0.400000 1.400000 -2.000000
v 0.800000 1.400000 -2.000000
v -0.800000 1.400000 -2.200000
v -0.400000 1.400000 -2.200000
v -0.200000 1.400000 -2.200000
v 0.200000 1.400000 -2.200000
v 0.400000 1.400000 -2.200000
v 0.800000 1.400000 -2.200000
v -0.400000 1.400000 -2.400000
v -0.200000 1.400000 -2.400000
v 0.200000 1.400000 -2.400000
v 0.400000 1.400000 -2.400000
v -0.200000 1.400000 -2.600000
v 0.200000 1.400000 -2.600000
v -2.800000 1.600000 -1.000000
v -2.000000 1.600000 -1.000000
v 2.000000 1.600000 -1.000000
v 2.800000 1.600000 -1.000000
v -2.800000 1.600000 -1.200000
v -2.600000 1.600000 -1.200000
v -2.000000 1.600000 -1.200000
v -1.800000 1.600000 -1.200000
v -0.200000 1.600000 -1.200000
v 0.200000 1.600000 -1.200000
v 1.800000 1.600000 -1.200000
v 2.000000 1.600000 -1.200000
v 2.600000 1.600000 -1.200000
v 2.800000 1.600000 -1.200000
v -2.600000 1.600000 -1.400000
v -2.200000 1.600000 -1.400000
v -1.800000 1.600000 -1.400000
v -1.200000 1.600000 -1.400000
v -0.400000 1.600000 -1.400000
v -0.200000 1.600000 -1.400000
v 0.200000 1.600000 -1.400000
v 0.400000 1.600000 -1.400000
v 1.200000 1.600000 -1.400000
v 1.800000 1.600000 -1.400000
v 2.200000 1.600000 -1.400000
v 2.600000 1.600000 -1.400000
v -2.200000 1.600000 -1.600000
v -1.400000 1.600000 -1.600000
v -1.200000 1.600000 -1.600000
v -1.000000 1.600000 -1.600000
v 1.000000 1.600000 -1.600000
v 1.200000 1.600000 -1.600000
v 1.400000 1.600000 -1.600000
v 2.200000 1.600000 -1.600000
v -1.400000 1.600000 -1.800000
v -1.200000 1.600000 -1.800000
v -1.000000 1.600000 -1.800000
v -0.400000 1.600000 -1.800000
v 0.400000 1.600000 -1.800000
v 1.000000 1.600000 -1.800000
v 1.200000 1.600000 -1.800000
v 1.400000 1.600000 -1.800000
v -1.200000 1.600000 -2.000000
v -0.400000 1.600000 -2.000000
v 0.400000 1.600000 -2.000000
v 1.200000 1.600000 -2.000000
v -0.400000 1.600000 -2.200000
v -0.200000 1.600000 -2.200000
v 0.200000 1.600000 -2.200000
v 0.400000 1.600000 -2.200000
v -0.200000 1.600000 -2.400000
v 0.200000 1.600000 -2.400000
vn -1.0000 -0.0000 -0.0000
vn 1.0000 -0.0000 -0.0000
vn -0.0000 -0.0000 1.0000
vn -0.0000 -0.0000 -1.0000
vn -0.0000 -1.0000 -0.0000
vn -0.0000 1.0000 -0.0000
vt 0.982422 0.500000
vt 0.978516 0.500000
vt 0.974609 0.500000
vt 0.189453 0.500000
s 1
usemtl palette.027
f 3/1/1 2/1/1 1/1/1
f 4/1/1 2/1/1 3/1/1
f 7/1/1 6/1/1 5/1/1
f 10/1/1 7/1/1 5/1/1
f 10/1/1 8/1/1 7/1/1
f 11/1/1 8/1/1 10/1/1
f 12/2/1 10/2/1 9/2/1
f 13/2/1 10/2/1 12/2/1
f 14/1/1 8/1/1 11/1/1
f 15/1/1 14/1/1 13/1/1
f 15/1/1 8/1/1 14/1/1
f 16/1/1 8/1/1 15/1/1
f 17/1/1 15/1/1 13/1/1
f 18/1/1 15/1/1 17/1/1
f 23/1/1 20/1/1 19/1/1
f 24/1/1 20/1/1 23/1/1
f 26/2/1 22/2/1 21/2/1
f 27/2/1 22/2/1 26/2/1
f 30/2/1 26/2/1 25/2/1
f 31/2/1 26/2/1 30/2/1
f 33/1/1 29/1/1 28/1/1
f 34/1/1 29/1/1 33/1/1
f 35/2/1 32/2/1 31/2/1
f 36/2/1 32/2/1 35/2/1
f 39/1/1 38/1/1 37/1/1
f 40/1/1 38/1/1 39/1/1
f 43/1/1 42/1/1 41/1/1
f 44/1/1 42/1/1 43/1/1
f 47/1/1 46/1/1 45/1/1
f 48/1/1 46/1/1 47/1/1
f 51/1/1 50/1/1 49/1/1
f 52/1/1 50/1/1 51/1/1
f 55/1/1 54/1/1 53/1/1
f 56/1/1 54/1/1 55/1/1
f 59/1/1 58/1/1 57/1/1
f 60/1/1 58/1/1 59/1/1
f 63/1/1 62/1/1 61/1/1
f 64/1/1 62/1/1 63/1/1
f 67/1/1 66/1/1 65/1/1
f 68/1/1 66/1/1 67/1/1
f 71/1/1 70/1/1 69/1/1
f 72/1/1 70/1/1 71/1/1
f 75/1/1 74/1/1 73/1/1
f 76/1/1 74/1/1 75/1/1
f 79/1/1 78/1/1 77/1/1
f 80/1/1 78/1/1 79/1/1
f 83/1/1 82/1/1 81/1/1
f 84/1/1 82/1/1 83/1/1
f 87/1/1 86/1/1 85/1/1
f 88/1/1 86/1/1 87/1/1
f 91/1/1 90/1/1 89/1/1
f 92/1/1 90/1/1 91/1/1
f 95/1/1 94/1/1 93/1/1
f 96/1/1 94/1/1 95/1/1
f 99/1/1 98/1/1 97/1/1
f 100/1/1 98/1/1 99/1/1
f 108/3/1 102/3/1 101/3/1
f 109/3/1 102/3/1 108/3/1
f 110/3/1 102/3/1 109/3/1
f 111/3/1 104/3/1 103/3/1
f 112/3/1 104/3/1 111/3/1
f 115/4/1 106/4/1 105/4/1
f 116/4/1 106/4/1 115/4/1
f 117/3/1 108/3/1 107/3/1
f 117/3/1 109/3/1 108/3/1
f 118/3/1 109/3/1 117/3/1
f 119/3/1 109/3/1 118/3/1
f 120/3/1 113/3/1 112/3/1
f 122/4/1 116/4/1 115/4/1
f 122/4/1 115/4/1 114/4/1
f 123/4/1 116/4/1 122/4/1
f 124/3/1 118/3/1 117/3/1
f 124/4/1 116/4/1 123/4/1
f 124/3/1 117/3/1 116/3/1
f 125/3/1 118/3/1 124/3/1
f 126/3/1 118/3/1 125/3/1
f 128/4/1 121/4/1 120/4/1
f 128/3/1 120/3/1 112/3/1
f 129/4/1 121/4/1 128/4/1
f 130/4/1 124/4/1 123/4/1
f 131/4/1 124/4/1 130/4/1
f 132/3/1 127/3/1 126/3/1
f 132/3/1 126/3/1 125/3/1
f 133/3/1 127/3/1 132/3/1
f 134/3/1 127/3/1 133/3/1
f 137/3/1 128/3/1 112/3/1
f 138/3/1 128/3/1 137/3/1
f 139/3/1 135/3/1 134/3/1
f 139/3/1 134/3/1 133/3/1
f 140/3/1 135/3/1 139/3/1
f 141/3/1 137/3/1 136/3/1
f 142/3/1 137/3/1 141/3/1
f 151/3/1 144/3/1 143/3/1
f 152/3/1 144/3/1 151/3/1
f 153/3/1 146/3/1 145/3/1
f 154/3/1 146/3/1 153/3/1
f 157/4/1 148/4/1 147/4/1
f 158/4/1 148/4/1 157/4/1
f 159/3/1 150/3/1 149/3/1
f 160/3/1 150/3/1 159/3/1
f 161/4/1 155/4/1 154/4/1
f 162/4/1 155/4/1 161/4/1
f 164/4/1 157/4/1 156/4/1
f 165/4/1 157/4/1 164/4/1
f 170/4/1 163/4/1 162/4/1
f 171/4/1 163/4/1 170/4/1
f 172/4/1 166/4/1 165/4/1
f 173/4/1 166/4/1 172/4/1
f 174/3/1 168/3/1 167/3/1
f 175/3/1 168/3/1 174/3/1
f 179/4/1 170/4/1 169/4/1
f 180/4/1 170/4/1 179/4/1
f 181/3/1 177/3/1 176/3/1
f 182/3/1 177/3/1 181/3/1
f 183/3/1 179/3/1 178/3/1
f 184/3/1 179/3/1 183/3/1
f 187/2/1 186/2/1 185/2/1
f 188/2/1 186/2/1 187/2/1
f 192/1/1 190/1/1 189/1/1
f 193/1/1 190/1/1 192/1/1
f 194/1/1 192/1/1 191/1/1
f 195/1/1 192/1/1 194/1/1
f 198/2/1 197/2/1 196/2/1
f 199/2/1 197/2/1 198/2/1
f 201/1/1 200/1/1 199/1/1
f 202/1/1 200/1/1 201/1/1
f 205/1/1 204/1/1 203/1/1
f 206/1/1 204/1/1 205/1/1
f 209/1/1 208/1/1 207/1/1
f 210/1/1 208/1/1 209/1/1
f 213/2/1 212/2/1 211/2/1
f 214/2/1 212/2/1 213/2/1
f 218/1/1 216/1/1 215/1/1
f 219/1/1 216/1/1 218/1/1
f 221/1/1 218/1/1 217/1/1
f 222/1/1 218/1/1 221/1/1
f 223/2/1 221/2/1 220/2/1
f 224/2/1 221/2/1 223/2/1
f 226/2/1 225/2/1 224/2/1
f 227/2/1 225/2/1 226/2/1
f 229/1/1 228/1/1 227/1/1
f 230/1/1 228/1/1 229/1/1
f 233/1/1 232/1/1 231/1/1
f 234/1/1 232/1/1 233/1/1
f 237/1/1 236/1/1 235/1/1
f 238/1/1 236/1/1 237/1/1
f 239/1/2 240/1/2 241/1/2
f 241/1/2 240/1/2 242/1/2
f 243/1/2 244/1/2 245/1/2
f 245/1/2 244/1/2 246/1/2
f 247/1/2 248/1/2 251/1/2
f 251/1/2 248/1/2 252/1/2
f 249/2/2 250/2/2 254/2/2
f 250/1/2 251/1/2 255/1/2
f 254/2/2 250/2/2 255/2/2
f 255/1/2 251/1/2 256/1/2
f 253/2/2 254/2/2 257/2/2
f 257/2/2 254/2/2 258/2/2
f 258/2/2 259/2/2 260/2/2
f 260/2/2 259/2/2 261/2/2
f 261/1/2 262/1/2 263/1/2
f 263/1/2 262/1/2 264/1/2
f 265/2/2 266/2/2 267/2/2
f 267/2/2 266/2/2 268/2/2
f 269/1/2 270/1/2 271/1/2
f 271/1/2 270/1/2 272/1/2
f 273/1/2 274/1/2 275/1/2
f 275/1/2 274/1/2 276/1/2
f 277/1/2 278/1/2 280/1/2
f 280/1/2 278/1/2 281/1/2
f 279/1/2 280/1/2 282/1/2
f 282/1/2 280/1/2 283/1/2
f 284/2/2 285/2/2 286/2/2
f 286/2/2 285/2/2 287/2/2
f 287/1/2 288/1/2 289/1/2
f 289/1/2 288/1/2 290/1/2
f 291/2/2 292/2/2 293/2/2
f 293/2/2 292/2/2 294/2/2
f 295/3/2 296/3/2 303/3/2
f 303/3/2 296/3/2 304/3/2
f 297/3/2 298/3/2 305/3/2
f 305/3/2 298/3/2 306/3/2
f 299/4/2 300/4/2 309/4/2
f 309/4/2 300/4/2 310/4/2
f 301/3/2 302/3/2 311/3/2
f 311/3/2 302/3/2 312/3/2
f 306/4/2 307/4/2 313/4/2
f 313/4/2 307/4/2 314/4/2
f 308/4/2 309/4/2 316/4/2
f 316/4/2 309/4/2 317/4/2
f 314/4/2 315/4/2 322/4/2
f 322/4/2 315/4/2 323/4/2
f 317/4/2 318/4/2 324/4/2
f 324/4/2 318/4/2 325/4/2
f 319/3/2 320/3/2 326/3/2
f 326/3/2 320/3/2 327/3/2
f 321/4/2 322/4/2 331/4/2
f 331/4/2 322/4/2 332/4/2
f 328/3/2 329/3/2 333/3/2
f 333/3/2 329/3/2 334/3/2
f 330/3/2 331/3/2 335/3/2
f 335/3/2 331/3/2 336/3/2
f 337/3/2 338/3/2 344/3/2
f 344/3/2 338/3/2 345/3/2
f 345/3/2 338/3/2 346/3/2
f 339/3/2 340/3/2 347/3/2
f 347/3/2 340/3/2 348/3/2
f 341/4/2 342/4/2 351/4/2
f 351/4/2 342/4/2 352/4/2
f 343/3/2 344/3/2 353/3/2
f 344/3/2 345/3/2 353/3/2
f 353/3/2 345/3/2 354/3/2
f 354/3/2 345/3/2 355/3/2
f 348/3/2 349/3/2 356/3/2
f 351/4/2 352/4/2 358/4/2
f 350/4/2 351/4/2 358/4/2
f 358/4/2 352/4/2 359/4/2
f 353/3/2 354/3/2 360/3/2
f 359/4/2 352/4/2 360/4/2
f 352/3/2 353/3/2 360/3/2
f 360/3/2 354/3/2 361/3/2
f 361/3/2 354/3/2 362/3/2
f 356/4/2 357/4/2 364/4/2
f 348/3/2 356/3/2 364/3/2
f 364/4/2 357/4/2 365/4/2
f 359/4/2 360/4/2 366/4/2
f 366/4/2 360/4/2 367/4/2
f 362/3/2 363/3/2 368/3/2
f 361/3/2 362/3/2 368/3/2
f 368/3/2 363/3/2 369/3/2
f 369/3/2 363/3/2 370/3/2
f 348/3/2 364/3/2 373/3/2
f 373/3/2 364/3/2 374/3/2
f 370/3/2 371/3/2 375/3/2
f 369/3/2 370/3/2 375/3/2
f 375/3/2 371/3/2 376/3/2
f 372/3/2 373/3/2 377/3/2
f 377/3/2 373/3/2 378/3/2
f 379/1/2 380/1/2 381/1/2
f 381/1/2 380/1/2 382/1/2
f 383/1/2 384/1/2 385/1/2
f 385/1/2 384/1/2 386/1/2
f 387/1/2 388/1/2 389/1/2
f 389/1/2 388/1/2 390/1/2
f 391/1/2 392/1/2 393/1/2
f 393/1/2 392/1/2 394/1/2
f 395/1/2 396/1/2 397/1/2
f 397/1/2 396/1/2 398/1/2
f 399/1/2 400/1/2 401/1/2
f 401/1/2 400/1/2 402/1/2
f 403/1/2 404/1/2 405/1/2
f 405/1/2 404/1/2 406/1/2
f 407/1/2 408/1/2 409/1/2
f 409/1/2 408/1/2 410/1/2
f 411/1/2 412/1/2 413/1/2
f 413/1/2 412/1/2 414/1/2
f 415/1/2 416/1/2 417/1/2
f 417/1/2 416/1/2 418/1/2
f 419/1/2 420/1/2 421/1/2
f 421/1/2 420/1/2 422/1/2
f 423/1/2 424/1/2 425/1/2
f 425/1/2 424/1/2 426/1/2
f 427/1/2 428/1/2 429/1/2
f 429/1/2 428/1/2 430/1/2
f 431/1/2 432/1/2 433/1/2
f 433/1/2 432/1/2 434/1/2
f 435/1/2 436/1/2 437/1/2
f 437/1/2 436/1/2 438/1/2
f 439/1/2 440/1/2 443/1/2
f 443/1/2 440/1/2 444/1/2
f 441/1/2 442/1/2 446/1/2
f 446/1/2 442/1/2 447/1/2
f 445/2/2 446/2/2 450/2/2
f 450/2/2 446/2/2 451/2/2
f 448/1/2 449/1/2 453/1/2
f 453/1/2 449/1/2 454/1/2
f 451/2/2 452/2/2 455/2/2
f 455/2/2 452/2/2 456/2/2
f 457/1/2 458/1/2 459/1/2
f 459/1/2 458/1/2 460/1/2
f 461/1/2 462/1/2 463/1/2
f 461/1/2 463/1/2 466/1/2
f 463/1/2 464/1/2 466/1/2
f 466/1/2 464/1/2 467/1/2
f 465/2/2 466/2/2 468/2/2
f 468/2/2 466/2/2 469/2/2
f 467/1/2 464/1/2 470/1/2
f 469/1/2 470/1/2 471/1/2
f 470/1/2 464/1/2 471/1/2
f 471/1/2 464/1/2 472/1/2
f 469/1/2 471/1/2 473/1/2
f 473/1/2 471/1/2 474/1/2
f 475/1/2 476/1/2 477/1/2
f 477/1/2 476/1/2 478/1/2
f 481/4/3 480/4/3 479/4/3
f 482/4/3 480/4/3 481/4/3
f 486/4/3 484/4/3 483/4/3
f 487/4/3 484/4/3 486/4/3
f 489/4/3 486/4/3 485/4/3
f 490/4/3 486/4/3 489/4/3
f 491/4/3 488/4/3 487/4/3
f 492/4/3 488/4/3 491/4/3
f 493/4/3 491/4/3 490/4/3
f 494/4/3 491/4/3 493/4/3
f 497/2/3 496/2/3 495/2/3
f 498/2/3 496/2/3 497/2/3
f 503/4/3 500/4/3 499/4/3
f 504/4/3 500/4/3 503/4/3
f 505/4/3 502/4/3 501/4/3
f 506/4/3 502/4/3 505/4/3
f 511/4/3 508/4/3 507/4/3
f 512/4/3 508/4/3 511/4/3
f 513/4/3 510/4/3 509/4/3
f 514/4/3 510/4/3 513/4/3
f 517/2/3 516/2/3 515/2/3
f 518/2/3 516/2/3 517/2/3
f 522/2/3 520/2/3 519/2/3
f 523/2/3 520/2/3 522/2/3
f 525/2/3 522/2/3 521/2/3
f 526/2/3 522/2/3 525/2/3
f 527/2/3 524/2/3 523/2/3
f 528/2/3 524/2/3 527/2/3
f 529/2/3 527/2/3 526/2/3
f 530/2/3 527/2/3 529/2/3
f 534/2/3 532/2/3 531/2/3
f 535/2/3 532/2/3 534/2/3
f 537/1/3 534/1/3 533/1/3
f 538/1/3 534/1/3 537/1/3
f 539/2/3 536/2/3 535/2/3
f 540/2/3 536/2/3 539/2/3
f 541/2/3 539/2/3 538/2/3
f 542/2/3 539/2/3 541/2/3
f 546/1/3 544/1/3 543/1/3
f 547/1/3 544/1/3 546/1/3
f 549/1/3 546/1/3 545/1/3
f 550/1/3 546/1/3 549/1/3
f 551/1/3 548/1/3 547/1/3
f 552/1/3 548/1/3 551/1/3
f 553/1/3 549/1/3 545/1/3
f 554/1/3 549/1/3 553/1/3
f 555/1/3 548/1/3 552/1/3
f 556/1/3 548/1/3 555/1/3
f 559/2/3 558/2/3 557/2/3
f 560/2/3 558/2/3 559/2/3
f 565/3/3 562/3/3 561/3/3
f 566/3/3 562/3/3 565/3/3
f 567/3/3 564/3/3 563/3/3
f 568/3/3 564/3/3 567/3/3
f 573/3/3 570/3/3 569/3/3
f 574/3/3 570/3/3 573/3/3
f 575/3/3 572/3/3 571/3/3
f 576/3/3 572/3/3 575/3/3
f 579/2/3 578/2/3 577/2/3
f 580/2/3 578/2/3 579/2/3
f 585/1/3 582/1/3 581/1/3
f 588/1/3 584/1/3 583/1/3
f 589/1/3 586/1/3 585/1/3
f 589/1/3 585/1/3 581/1/3
f 590/1/3 586/1/3 589/1/3
f 591/1/3 588/1/3 587/1/3
f 592/1/3 584/1/3 588/1/3
f 592/1/3 588/1/3 591/1/3
f 593/1/3 591/1/3 590/1/3
f 594/1/3 591/1/3 593/1/3
f 599/1/3 596/1/3 595/1/3
f 600/1/3 596/1/3 599/1/3
f 603/1/3 598/1/3 597/1/3
f 604/1/3 598/1/3 603/1/3
f 605/1/3 601/1/3 600/1/3
f 606/1/3 601/1/3 605/1/3
f 607/2/3 603/2/3 602/2/3
f 608/2/3 603/2/3 607/2/3
f 611/2/3 610/2/3 609/2/3
f 612/2/3 610/2/3 611/2/3
f 617/3/3 614/3/3 613/3/3
f 618/3/3 614/3/3 617/3/3
f 619/3/3 616/3/3 615/3/3
f 620/3/3 616/3/3 619/3/3
f 623/2/3 622/2/3 621/2/3
f 624/2/3 622/2/3 623/2/3
f 630/1/3 626/1/3 625/1/3
f 631/1/3 626/1/3 630/1/3
f 632/2/3 628/2/3 627/2/3
f 633/2/3 628/2/3 632/2/3
f 635/1/3 630/1/3 629/1/3
f 636/1/3 630/1/3 635/1/3
f 637/1/3 634/1/3 633/1/3
f 638/1/3 634/1/3 637/1/3
f 643/1/3 640/1/3 639/1/3
f 644/1/3 640/1/3 643/1/3
f 645/1/3 642/1/3 641/1/3
f 646/1/3 642/1/3 645/1/3
f 651/3/3 648/3/3 647/3/3
f 652/3/3 648/3/3 651/3/3
f 653/3/3 650/3/3 649/3/3
f 654/3/3 650/3/3 653/3/3
f 659/3/3 656/3/3 655/3/3
f 660/3/3 656/3/3 659/3/3
f 661/3/3 658/3/3 657/3/3
f 662/3/3 658/3/3 661/3/3
f 667/1/3 664/1/3 663/1/3
f 668/1/3 664/1/3 667/1/3
f 669/1/3 666/1/3 665/1/3
f 670/1/3 666/1/3 669/1/3
f 675/1/3 672/1/3 671/1/3
f 676/1/3 672/1/3 675/1/3
f 679/1/3 674/1/3 673/1/3
f 680/1/3 674/1/3 679/1/3
f 681/1/3 677/1/3 676/1/3
f 682/1/3 677/1/3 681/1/3
f 683/2/3 679/2/3 678/2/3
f 684/2/3 679/2/3 683/2/3
f 690/1/3 686/1/3 685/1/3
f 691/1/3 686/1/3 690/1/3
f 692/2/3 688/2/3 687/2/3
f 693/2/3 688/2/3 692/2/3
f 695/1/3 690/1/3 689/1/3
f 696/1/3 690/1/3 695/1/3
f 697/1/3 694/1/3 693/1/3
f 698/1/3 694/1/3 697/1/3
f 703/1/3 700/1/3 699/1/3
f 704/1/3 700/1/3 703/1/3
f 705/1/3 702/1/3 701/1/3
f 706/1/3 702/1/3 705/1/3
f 711/1/3 708/1/3 707/1/3
f 712/1/3 708/1/3 711/1/3
f 713/1/3 710/1/3 709/1/3
f 714/1/3 710/1/3 713/1/3
f 715/4/4 716/4/4 719/4/4
f 719/4/4 716/4/4 720/4/4
f 717/4/4 718/4/4 721/4/4
f 721/4/4 718/4/4 722/4/4
f 723/4/4 724/4/4 727/4/4
f 727/4/4 724/4/4 728/4/4
f 725/4/4 726/4/4 729/4/4
f 729/4/4 726/4/4 730/4/4
f 731/1/4 732/1/4 735/1/4
f 735/1/4 732/1/4 736/1/4
f 733/1/4 734/1/4 739/1/4
f 739/1/4 734/1/4 740/1/4
f 737/1/4 738/1/4 741/1/4
f 741/1/4 738/1/4 742/1/4
f 743/1/4 744/1/4 747/1/4
f 747/1/4 744/1/4 748/1/4
f 745/1/4 746/1/4 751/1/4
f 751/1/4 746/1/4 752/1/4
f 749/1/4 750/1/4 753/1/4
f 753/1/4 750/1/4 754/1/4
f 755/1/4 756/1/4 758/1/4
f 758/1/4 756/1/4 759/1/4
f 759/1/4 756/1/4 760/1/4
f 760/1/4 756/1/4 761/1/4
f 757/1/4 758/1/4 763/1/4
f 758/1/4 759/1/4 763/1/4
f 763/1/4 759/1/4 764/1/4
f 761/1/4 762/1/4 765/1/4
f 760/1/4 761/1/4 765/1/4
f 765/1/4 762/1/4 766/1/4
f 757/1/4 763/1/4 767/1/4
f 767/1/4 763/1/4 768/1/4
f 766/1/4 762/1/4 769/1/4
f 769/1/4 762/1/4 770/1/4
f 771/1/4 772/1/4 775/1/4
f 773/1/4 774/1/4 778/1/4
f 775/1/4 776/1/4 779/1/4
f 771/1/4 775/1/4 779/1/4
f 779/1/4 776/1/4 780/1/4
f 780/1/4 776/1/4 781/1/4
f 777/1/4 778/1/4 782/1/4
f 778/1/4 774/1/4 783/1/4
f 782/1/4 778/1/4 783/1/4
f 783/1/4 774/1/4 784/1/4
f 780/1/4 781/1/4 785/1/4
f 781/1/4 782/1/4 785/1/4
f 782/1/4 783/1/4 785/1/4
f 785/1/4 783/1/4 786/1/4
f 787/1/4 788/1/4 790/1/4
f 790/1/4 788/1/4 791/1/4
f 789/1/4 790/1/4 794/1/4
f 791/1/4 792/1/4 794/1/4
f 790/1/4 791/1/4 794/1/4
f 794/1/4 792/1/4 795/1/4
f 795/1/4 792/1/4 796/1/4
f 796/1/4 792/1/4 797/1/4
f 793/1/4 794/1/4 799/1/4
f 794/1/4 795/1/4 799/1/4
f 799/1/4 795/1/4 800/1/4
f 797/1/4 798/1/4 801/1/4
f 796/1/4 797/1/4 801/1/4
f 801/1/4 798/1/4 802/1/4
f 793/1/4 799/1/4 803/1/4
f 803/1/4 799/1/4 804/1/4
f 802/1/4 798/1/4 805/1/4
f 805/1/4 798/1/4 806/1/4
f 807/1/4 808/1/4 811/1/4
f 809/1/4 810/1/4 814/1/4
f 811/1/4 812/1/4 815/1/4
f 807/1/4 811/1/4 815/1/4
f 815/1/4 812/1/4 816/1/4
f 816/1/4 812/1/4 817/1/4
f 813/1/4 814/1/4 818/1/4
f 814/1/4 810/1/4 819/1/4
f 818/1/4 814/1/4 819/1/4
f 819/1/4 810/1/4 820/1/4
f 816/1/4 817/1/4 821/1/4
f 817/1/4 818/1/4 821/1/4
f 818/1/4 819/1/4 821/1/4
f 821/1/4 819/1/4 822/1/4
f 822/1/4 819/1/4 823/1/4
f 823/1/4 819/1/4 824/1/4
f 822/1/4 823/1/4 825/1/4
f 825/1/4 823/1/4 826/1/4
f 827/1/4 828/1/4 830/1/4
f 830/1/4 828/1/4 831/1/4
f 829/1/4 830/1/4 833/1/4
f 831/1/4 832/1/4 833/1/4
f 830/1/4 831/1/4 833/1/4
f 833/1/4 832/1/4 834/1/4
f 829/1/4 833/1/4 836/1/4
f 834/1/4 832/1/4 837/1/4
f 835/1/4 836/1/4 839/1/4
f 836/1/4 833/1/4 840/1/4
f 839/1/4 836/1/4 840/1/4
f 837/1/4 838/1/4 841/1/4
f 834/1/4 837/1/4 841/1/4
f 841/1/4 838/1/4 842/1/4
f 843/1/4 844/1/4 847/1/4
f 847/1/4 844/1/4 848/1/4
f 845/1/4 846/1/4 849/1/4
f 849/1/4 846/1/4 850/1/4
f 848/1/4 844/1/4 851/1/4
f 845/1/4 849/1/4 852/1/4
f 848/1/4 851/1/4 853/1/4
f 851/1/4 852/1/4 853/1/4
f 853/1/4 852/1/4 854/1/4
f 852/1/4 849/1/4 855/1/4
f 854/1/4 852/1/4 855/1/4
f 855/1/4 849/1/4 856/1/4
f 854/1/4 855/1/4 857/1/4
f 857/1/4 855/1/4 858/1/4
f 859/1/4 860/1/4 862/1/4
f 862/1/4 860/1/4 863/1/4
f 861/1/4 862/1/4 865/1/4
f 863/1/4 864/1/4 865/1/4
f 862/1/4 863/1/4 865/1/4
f 865/1/4 864/1/4 866/1/4
f 861/1/4 865/1/4 867/1/4
f 867/1/4 865/1/4 868/1/4
f 866/1/4 864/1/4 869/1/4
f 869/1/4 864/1/4 870/1/4
f 861/1/4 867/1/4 871/1/4
f 871/1/4 867/1/4 872/1/4
f 870/1/4 864/1/4 873/1/4
f 873/1/4 864/1/4 874/1/4
f 875/1/4 876/1/4 879/1/4
f 877/1/4 878/1/4 882/1/4
f 879/1/4 880/1/4 883/1/4
f 881/1/4 882/1/4 884/1/4
f 879/1/4 883/1/4 885/1/4
f 883/1/4 884/1/4 885/1/4
f 875/1/4 879/1/4 885/1/4
f 885/1/4 884/1/4 886/1/4
f 884/1/4 882/1/4 887/1/4
f 886/1/4 884/1/4 887/1/4
f 882/1/4 878/1/4 888/1/4
f 887/1/4 882/1/4 888/1/4
f 886/1/4 887/1/4 889/1/4
f 889/1/4 887/1/4 890/1/4
f 891/1/4 892/1/4 894/1/4
f 894/1/4 892/1/4 895/1/4
f 893/1/4 894/1/4 898/1/4
f 895/1/4 896/1/4 898/1/4
f 894/1/4 895/1/4 898/1/4
f 898/1/4 896/1/4 899/1/4
f 897/3/4 898/3/4 901/3/4
f 901/3/4 898/3/4 902/3/4
f 899/3/4 900/3/4 903/3/4
f 903/3/4 900/3/4 904/3/4
f 905/3/4 906/3/4 909/3/4
f 909/3/4 906/3/4 910/3/4
f 907/3/4 908/3/4 911/3/4
f 911/3/4 908/3/4 912/3/4
f 910/1/4 911/1/4 913/1/4
f 913/1/4 911/1/4 914/1/4
f 914/1/4 911/1/4 915/1/4
f 915/1/4 911/1/4 916/1/4
f 914/1/4 915/1/4 917/1/4
f 917/1/4 915/1/4 918/1/4
f 919/3/4 920/3/4 924/3/4
f 924/3/4 920/3/4 925/3/4
f 921/3/4 922/3/4 926/3/4
f 926/3/4 922/3/4 927/3/4
f 923/3/4 924/3/4 929/3/4
f 929/3/4 924/3/4 930/3/4
f 927/3/4 928/3/4 933/3/4
f 933/3/4 928/3/4 934/3/4
f 930/3/4 931/3/4 935/3/4
f 935/3/4 931/3/4 936/3/4
f 932/3/4 933/3/4 937/3/4
f 937/3/4 933/3/4 938/3/4
f 939/4/4 940/4/4 942/4/4
f 942/4/4 940/4/4 943/4/4
f 941/4/4 942/4/4 945/4/4
f 945/4/4 942/4/4 946/4/4
f 943/4/4 944/4/4 947/4/4
f 947/4/4 944/4/4 948/4/4
f 946/4/4 947/4/4 949/4/4
f 949/4/4 947/4/4 950/4/4
f 951/4/4 952/4/4 953/4/4
f 953/4/4 952/4/4 954/4/4
f 959/1/5 956/1/5 955/1/5
f 960/1/5 956/1/5 959/1/5
f 961/1/5 956/1/5 960/1/5
f 966/1/5 958/1/5 957/1/5
f 967/1/5 958/1/5 966/1/5
f 968/1/5 958/1/5 967/1/5
f 969/1/5 961/1/5 960/1/5
f 969/1/5 962/1/5 961/1/5
f 970/1/5 962/1/5 969/1/5
f 971/1/5 962/1/5 970/1/5
f 974/3/5 964/3/5 963/3/5
f 975/3/5 964/3/5 974/3/5
f 978/1/5 967/1/5 966/1/5
f 978/1/5 966/1/5 965/1/5
f 979/1/5 967/1/5 978/1/5
f 980/1/5 967/1/5 979/1/5
f 981/1/5 972/1/5 971/1/5
f 981/1/5 971/1/5 970/1/5
f 982/1/5 972/1/5 981/1/5
f 983/1/5 972/1/5 982/1/5
f 986/1/5 979/1/5 978/1/5
f 986/1/5 978/1/5 977/1/5
f 987/1/5 979/1/5 986/1/5
f 988/1/5 979/1/5 987/1/5
f 989/1/5 984/1/5 983/1/5
f 989/1/5 983/1/5 982/1/5
f 990/1/5 984/1/5 989/1/5
f 991/1/5 984/1/5 990/1/5
f 992/3/5 976/3/5 975/3/5
f 992/3/5 975/3/5 974/3/5
f 992/3/5 974/3/5 973/3/5
f 993/3/5 976/3/5 992/3/5
f 994/1/5 987/1/5 986/1/5
f 994/1/5 986/1/5 985/1/5
f 995/1/5 987/1/5 994/1/5
f 996/1/5 987/1/5 995/1/5
f 997/1/5 991/1/5 990/1/5
f 997/1/5 992/1/5 991/1/5
f 998/3/5 993/3/5 992/3/5
f 998/1/5 992/1/5 997/1/5
f 999/1/5 995/1/5 994/1/5
f 999/3/5 993/3/5 998/3/5
f 999/1/5 994/1/5 993/1/5
f 1000/1/5 995/1/5 999/1/5
f 1001/3/5 999/3/5 998/3/5
f 1002/3/5 999/3/5 1001/3/5
f 1003/3/5 999/3/5 1002/3/5
f 1004/3/5 999/3/5 1003/3/5
f 1005/3/5 1003/3/5 1002/3/5
f 1006/3/5 1003/3/5 1005/3/5
f 1010/4/5 1008/4/5 1007/4/5
f 1011/4/5 1008/4/5 1010/4/5
f 1015/4/5 1010/4/5 1009/4/5
f 1015/4/5 1011/4/5 1010/4/5
f 1015/4/5 1012/4/5 1011/4/5
f 1016/4/5 1012/4/5 1015/4/5
f 1017/4/5 1012/4/5 1016/4/5
f 1018/4/5 1012/4/5 1017/4/5
f 1021/2/5 1014/2/5 1013/2/5
f 1022/2/5 1014/2/5 1021/2/5
f 1023/2/5 1014/2/5 1022/2/5
f 1025/3/5 1017/3/5 1016/3/5
f 1026/3/5 1017/3/5 1025/3/5
f 1028/1/5 1020/1/5 1019/1/5
f 1029/1/5 1020/1/5 1028/1/5
f 1032/1/5 1023/1/5 1022/1/5
f 1033/1/5 1023/1/5 1032/1/5
f 1035/3/5 1027/3/5 1026/3/5
f 1035/3/5 1025/3/5 1024/3/5
f 1035/3/5 1026/3/5 1025/3/5
f 1036/3/5 1027/3/5 1035/3/5
f 1038/1/5 1028/1/5 1019/1/5
f 1039/1/5 1028/1/5 1038/1/5
f 1042/1/5 1031/1/5 1030/1/5
f 1043/1/5 1031/1/5 1042/1/5
f 1046/1/5 1034/1/5 1033/1/5
f 1047/1/5 1034/1/5 1046/1/5
f 1048/3/5 1035/3/5 1024/3/5
f 1049/3/5 1035/3/5 1048/3/5
f 1050/3/5 1027/3/5 1036/3/5
f 1051/3/5 1027/3/5 1050/3/5
f 1052/1/5 1038/1/5 1037/1/5
f 1053/1/5 1038/1/5 1052/1/5
f 1056/1/5 1041/1/5 1040/1/5
f 1057/1/5 1041/1/5 1056/1/5
f 1058/1/5 1045/1/5 1044/1/5
f 1059/1/5 1045/1/5 1058/1/5
f 1062/1/5 1034/1/5 1047/1/5
f 1063/1/5 1034/1/5 1062/1/5
f 1066/1/5 1052/1/5 1037/1/5
f 1067/1/5 1052/1/5 1066/1/5
f 1070/1/5 1055/1/5 1054/1/5
f 1071/1/5 1055/1/5 1070/1/5
f 1072/1/5 1061/1/5 1060/1/5
f 1073/1/5 1061/1/5 1072/1/5
f 1074/1/5 1064/1/5 1063/1/5
f 1075/1/5 1064/1/5 1074/1/5
f 1076/1/5 1066/1/5 1065/1/5
f 1077/1/5 1066/1/5 1076/1/5
f 1078/1/5 1069/1/5 1068/1/5
f 1079/1/5 1069/1/5 1078/1/5
f 1084/1/5 1081/1/5 1080/1/5
f 1085/1/5 1081/1/5 1084/1/5
f 1088/1/5 1083/1/5 1082/1/5
f 1089/1/5 1083/1/5 1088/1/5
f 1090/3/5 1086/3/5 1085/3/5
f 1091/3/5 1086/3/5 1090/3/5
f 1092/3/5 1088/3/5 1087/3/5
f 1093/3/5 1088/3/5 1092/3/5
f 1094/4/5 1092/4/5 1091/4/5
f 1095/4/5 1092/4/5 1094/4/5
f 1099/4/5 1097/4/5 1096/4/5
f 1100/4/5 1097/4/5 1099/4/5
f 1104/4/5 1099/4/5 1098/4/5
f 1105/4/5 1099/4/5 1104/4/5
f 1106/4/5 1101/4/5 1100/4/5
f 1107/4/5 1101/4/5 1106/4/5
f 1111/2/5 1103/2/5 1102/2/5
f 1112/2/5 1103/2/5 1111/2/5
f 1119/2/5 1109/2/5 1108/2/5
f 1120/2/5 1109/2/5 1119/2/5
f 1123/2/5 1111/2/5 1110/2/5
f 1124/2/5 1111/2/5 1123/2/5
f 1125/2/5 1113/2/5 1112/2/5
f 1126/2/5 1113/2/5 1125/2/5
f 1128/3/5 1115/3/5 1114/3/5
f 1129/3/5 1115/3/5 1128/3/5
f 1130/3/5 1117/3/5 1116/3/5
f 1131/3/5 1117/3/5 1130/3/5
f 1133/2/5 1119/2/5 1118/2/5
f 1134/2/5 1121/2/5 1120/2/5
f 1135/2/5 1121/2/5 1134/2/5
f 1137/1/5 1123/1/5 1122/1/5
f 1138/1/5 1123/1/5 1137/1/5
f 1139/2/5 1127/2/5 1126/2/5
f 1139/2/5 1126/2/5 1125/2/5
f 1140/2/5 1127/2/5 1139/2/5
f 1141/2/5 1127/2/5 1140/2/5
f 1144/2/5 1133/2/5 1132/2/5
f 1145/2/5 1133/2/5 1144/2/5
f 1146/2/5 1119/2/5 1133/2/5
f 1146/2/5 1133/2/5 1145/2/5
f 1147/1/5 1136/1/5 1135/1/5
f 1148/1/5 1136/1/5 1147/1/5
f 1153/1/5 1150/1/5 1149/1/5
f 1154/1/5 1150/1/5 1153/1/5
f 1157/2/5 1142/2/5 1141/2/5
f 1157/2/5 1141/2/5 1140/2/5
f 1158/2/5 1142/2/5 1157/2/5
f 1159/2/5 1145/2/5 1144/2/5
f 1159/2/5 1144/2/5 1143/2/5
f 1160/2/5 1145/2/5 1159/2/5
f 1163/1/5 1152/1/5 1151/1/5
f 1164/1/5 1152/1/5 1163/1/5
f 1165/1/5 1156/1/5 1155/1/5
f 1166/1/5 1156/1/5 1165/1/5
f 1171/1/5 1162/1/5 1161/1/5
f 1172/1/5 1162/1/5 1171/1/5
f 1173/1/5 1168/1/5 1167/1/5
f 1174/1/5 1168/1/5 1173/1/5
f 1179/1/5 1170/1/5 1169/1/5
f 1180/1/5 1170/1/5 1179/1/5
f 1181/1/5 1176/1/5 1175/1/5
f 1182/1/5 1176/1/5 1181/1/5
f 1183/1/5 1178/1/5 1177/1/5
f 1184/1/5 1178/1/5 1183/1/5
f 1189/4/5 1186/4/5 1185/4/5
f 1190/4/5 1186/4/5 1189/4/5
f 1191/4/5 1188/4/5 1187/4/5
f 1192/4/5 1188/4/5 1191/4/5
f 1193/4/5 1191/4/5 1190/4/5
f 1194/4/5 1191/4/5 1193/4/5
f 1195/4/6 1196/4/6 1198/4/6
f 1198/4/6 1196/4/6 1199/4/6
f 1197/4/6 1198/4/6 1203/4/6
f 1203/4/6 1198/4/6 1204/4/6
f 1199/4/6 1200/4/6 1205/4/6
f 1205/4/6 1200/4/6 1206/4/6
f 1201/2/6 1202/2/6 1210/2/6
f 1210/2/6 1202/2/6 1211/2/6
f 1207/2/6 1208/2/6 1218/2/6
f 1218/2/6 1208/2/6 1219/2/6
f 1209/2/6 1210/2/6 1222/2/6
f 1222/2/6 1210/2/6 1223/2/6
f 1211/2/6 1212/2/6 1224/2/6
f 1213/3/6 1214/3/6 1226/3/6
f 1226/3/6 1214/3/6 1227/3/6
f 1215/3/6 1216/3/6 1228/3/6
f 1228/3/6 1216/3/6 1229/3/6
f 1217/2/6 1218/2/6 1231/2/6
f 1219/2/6 1220/2/6 1232/2/6
f 1232/2/6 1220/2/6 1233/2/6
f 1221/1/6 1222/1/6 1235/1/6
f 1235/1/6 1222/1/6 1236/1/6
f 1224/2/6 1225/2/6 1237/2/6
f 1211/2/6 1224/2/6 1237/2/6
f 1237/2/6 1225/2/6 1238/2/6
f 1238/2/6 1225/2/6 1239/2/6
f 1230/2/6 1231/2/6 1242/2/6
f 1242/2/6 1231/2/6 1243/2/6
f 1231/2/6 1218/2/6 1244/2/6
f 1243/2/6 1231/2/6 1244/2/6
f 1233/1/6 1234/1/6 1245/1/6
f 1245/1/6 1234/1/6 1246/1/6
f 1247/1/6 1248/1/6 1251/1/6
f 1251/1/6 1248/1/6 1252/1/6
f 1239/2/6 1240/2/6 1255/2/6
f 1238/2/6 1239/2/6 1255/2/6
f 1255/2/6 1240/2/6 1256/2/6
f 1242/2/6 1243/2/6 1257/2/6
f 1241/2/6 1242/2/6 1257/2/6
f 1257/2/6 1243/2/6 1258/2/6
f 1249/1/6 1250/1/6 1261/1/6
f 1261/1/6 1250/1/6 1262/1/6
f 1253/1/6 1254/1/6 1263/1/6
f 1263/1/6 1254/1/6 1264/1/6
f 1259/1/6 1260/1/6 1269/1/6
f 1269/1/6 1260/1/6 1270/1/6
f 1265/1/6 1266/1/6 1271/1/6
f 1271/1/6 1266/1/6 1272/1/6
f 1267/1/6 1268/1/6 1277/1/6
f 1277/1/6 1268/1/6 1278/1/6
f 1273/1/6 1274/1/6 1279/1/6
f 1279/1/6 1274/1/6 1280/1/6
f 1275/1/6 1276/1/6 1281/1/6
f 1281/1/6 1276/1/6 1282/1/6
f 1283/4/6 1284/4/6 1287/4/6
f 1287/4/6 1284/4/6 1288/4/6
f 1285/4/6 1286/4/6 1289/4/6
f 1289/4/6 1286/4/6 1290/4/6
f 1288/4/6 1289/4/6 1291/4/6
f 1291/4/6 1289/4/6 1292/4/6
f 1293/4/6 1294/4/6 1296/4/6
f 1296/4/6 1294/4/6 1297/4/6
f 1295/4/6 1296/4/6 1301/4/6
f 1296/4/6 1297/4/6 1301/4/6
f 1297/4/6 1298/4/6 1301/4/6
f 1301/4/6 1298/4/6 1302/4/6
f 1302/4/6 1298/4/6 1303/4/6
f 1303/4/6 1298/4/6 1304/4/6
f 1299/2/6 1300/2/6 1307/2/6
f 1307/2/6 1300/2/6 1308/2/6
f 1302/3/6 1303/3/6 1310/3/6
f 1310/3/6 1303/3/6 1311/3/6
f 1305/2/6 1306/2/6 1313/2/6
f 1313/2/6 1306/2/6 1314/2/6
f 1308/2/6 1300/2/6 1317/2/6
f 1317/2/6 1300/2/6 1318/2/6
f 1311/3/6 1312/3/6 1320/3/6
f 1309/3/6 1310/3/6 1320/3/6
f 1310/3/6 1311/3/6 1320/3/6
f 1320/3/6 1312/3/6 1321/3/6
f 1305/2/6 1313/2/6 1323/2/6
f 1323/2/6 1313/2/6 1324/2/6
f 1315/1/6 1316/1/6 1327/1/6
f 1327/1/6 1316/1/6 1328/1/6
f 1318/2/6 1319/2/6 1331/2/6
f 1331/2/6 1319/2/6 1332/2/6
f 1309/3/6 1320/3/6 1333/3/6
f 1333/3/6 1320/3/6 1334/3/6
f 1321/3/6 1312/3/6 1335/3/6
f 1335/3/6 1312/3/6 1336/3/6
f 1322/2/6 1323/2/6 1337/2/6
f 1337/2/6 1323/2/6 1338/2/6
f 1325/1/6 1326/1/6 1341/1/6
f 1341/1/6 1326/1/6 1342/1/6
f 1329/1/6 1330/1/6 1343/1/6
f 1343/1/6 1330/1/6 1344/1/6
f 1332/2/6 1319/2/6 1347/2/6
f 1347/2/6 1319/2/6 1348/2/6
f 1322/2/6 1337/2/6 1351/2/6
f 1351/2/6 1337/2/6 1352/2/6
f 1339/1/6 1340/1/6 1355/1/6
f 1355/1/6 1340/1/6 1356/1/6
f 1345/1/6 1346/1/6 1357/1/6
f 1357/1/6 1346/1/6 1358/1/6
f 1348/2/6 1349/2/6 1359/2/6
f 1359/2/6 1349/2/6 1360/2/6
f 1350/2/6 1351/2/6 1361/2/6
f 1361/2/6 1351/2/6 1362/2/6
f 1353/1/6 1354/1/6 1363/1/6
f 1363/1/6 1354/1/6 1364/1/6
f 1365/1/6 1366/1/6 1369/1/6
f 1369/1/6 1366/1/6 1370/1/6
f 1367/1/6 1368/1/6 1373/1/6
f 1373/1/6 1368/1/6 1374/1/6
f 1370/3/6 1371/3/6 1375/3/6
f 1375/3/6 1371/3/6 1376/3/6
f 1372/3/6 1373/3/6 1377/3/6
f 1377/3/6 1373/3/6 1378/3/6
f 1376/4/6 1377/4/6 1379/4/6
f 1379/4/6 1377/4/6 1380/4/6
f 1381/1/6 1382/1/6 1385/1/6
f 1385/1/6 1382/1/6 1386/1/6
f 1386/1/6 1382/1/6 1387/1/6
f 1383/1/6 1384/1/6 1392/1/6
f 1392/1/6 1384/1/6 1393/1/6
f 1393/1/6 1384/1/6 1394/1/6
f 1386/1/6 1387/1/6 1395/1/6
f 1387/1/6 1388/1/6 1395/1/6
f 1395/1/6 1388/1/6 1396/1/6
f 1396/1/6 1388/1/6 1397/1/6
f 1389/3/6 1390/3/6 1400/3/6
f 1400/3/6 1390/3/6 1401/3/6
f 1392/1/6 1393/1/6 1404/1/6
f 1391/1/6 1392/1/6 1404/1/6
f 1404/1/6 1393/1/6 1405/1/6
f 1405/1/6 1393/1/6 1406/1/6
f 1397/1/6 1398/1/6 1407/1/6
f 1396/1/6 1397/1/6 1407/1/6
f 1407/1/6 1398/1/6 1408/1/6
f 1408/1/6 1398/1/6 1409/1/6
f 1404/1/6 1405/1/6 1412/1/6
f 1403/1/6 1404/1/6 1412/1/6
f 1412/1/6 1405/1/6 1413/1/6
f 1413/1/6 1405/1/6 1414/1/6
f 1409/1/6 1410/1/6 1415/1/6
f 1408/1/6 1409/1/6 1415/1/6
f 1415/1/6 1410/1/6 1416/1/6
f 1416/1/6 1410/1/6 1417/1/6
f 1401/3/6 1402/3/6 1418/3/6
f 1400/3/6 1401/3/6 1418/3/6
f 1399/3/6 1400/3/6 1418/3/6
f 1418/3/6 1402/3/6 1419/3/6
f 1412/1/6 1413/1/6 1420/1/6
f 1411/1/6 1412/1/6 1420/1/6
f 1420/1/6 1413/1/6 1421/1/6
f 1421/1/6 1413/1/6 1422/1/6
f 1416/1/6 1417/1/6 1423/1/6
f 1417/1/6 1418/1/6 1423/1/6
f 1418/3/6 1419/3/6 1424/3/6
f 1423/1/6 1418/1/6 1424/1/6
f 1420/1/6 1421/1/6 1425/1/6
f 1424/3/6 1419/3/6 1425/3/6
f 1419/1/6 1420/1/6 1425/1/6
f 1425/1/6 1421/1/6 1426/1/6
f 1424/3/6 1425/3/6 1427/3/6
f 1427/3/6 1425/3/6 1428/3/6
f 1428/3/6 1425/3/6 1429/3/6
f 1429/3/6 1425/3/6 1430/3/6
f 1428/3/6 1429/3/6 1431/3/6
f 1431/3/6 1429/3/6 1432/3/6
