# Blender 4.4.1
# www.blender.org
mtllib ClickMark.mtl
o 円柱.001
v 0.000000 -0.002500 -0.500000
v 0.000000 0.002500 -0.500000
v 0.097545 -0.002500 -0.490393
v 0.097545 0.002500 -0.490393
v 0.191342 -0.002500 -0.461940
v 0.191342 0.002500 -0.461940
v 0.277785 -0.002500 -0.415735
v 0.277785 0.002500 -0.415735
v 0.353553 -0.002500 -0.353553
v 0.353553 0.002500 -0.353553
v 0.415735 -0.002500 -0.277785
v 0.415735 0.002500 -0.277785
v 0.461940 -0.002500 -0.191342
v 0.461940 0.002500 -0.191342
v 0.490393 -0.002500 -0.097545
v 0.490393 0.002500 -0.097545
v 0.500000 -0.002500 0.000000
v 0.500000 0.002500 0.000000
v 0.490393 -0.002500 0.097545
v 0.490393 0.002500 0.097545
v 0.461940 -0.002500 0.191342
v 0.461940 0.002500 0.191342
v 0.415735 -0.002500 0.277785
v 0.415735 0.002500 0.277785
v 0.353553 -0.002500 0.353553
v 0.353553 0.002500 0.353553
v 0.277785 -0.002500 0.415735
v 0.277785 0.002500 0.415735
v 0.191342 -0.002500 0.461940
v 0.191342 0.002500 0.461940
v 0.097545 -0.002500 0.490393
v 0.097545 0.002500 0.490393
v 0.000000 -0.002500 0.500000
v 0.000000 0.002500 0.500000
v -0.097545 -0.002500 0.490393
v -0.097545 0.002500 0.490393
v -0.191342 -0.002500 0.461940
v -0.191342 0.002500 0.461940
v -0.277785 -0.002500 0.415735
v -0.277785 0.002500 0.415735
v -0.353553 -0.002500 0.353553
v -0.353553 0.002500 0.353553
v -0.415735 -0.002500 0.277785
v -0.415735 0.002500 0.277785
v -0.461940 -0.002500 0.191342
v -0.461940 0.002500 0.191342
v -0.490393 -0.002500 0.097545
v -0.490393 0.002500 0.097545
v -0.500000 -0.002500 0.000000
v -0.500000 0.002500 0.000000
v -0.490393 -0.002500 -0.097545
v -0.490393 0.002500 -0.097545
v -0.461940 -0.002500 -0.191342
v -0.461940 0.002500 -0.191342
v -0.415735 -0.002500 -0.277785
v -0.415735 0.002500 -0.277785
v -0.353553 -0.002500 -0.353553
v -0.353553 0.002500 -0.353553
v -0.277785 -0.002500 -0.415735
v -0.277785 0.002500 -0.415735
v -0.191342 -0.002500 -0.461940
v -0.191342 0.002500 -0.461940
v -0.097545 -0.002500 -0.490393
v -0.097545 0.002500 -0.490393
v -0.282843 0.002500 -0.282843
v -0.222228 0.002500 -0.332588
v 0.000000 0.002500 -0.400000
v -0.078036 0.002500 -0.392314
v -0.153073 0.002500 -0.369552
v -0.400000 0.002500 0.000000
v -0.392314 0.002500 0.078036
v -0.282843 0.002500 0.282843
v -0.332588 0.002500 0.222228
v -0.369552 0.002500 0.153073
v 0.000000 0.002500 0.400000
v 0.078036 0.002500 0.392314
v 0.222228 0.002500 0.332588
v 0.282843 0.002500 0.282843
v 0.153073 0.002500 0.369552
v 0.282843 0.002500 -0.282843
v 0.332588 0.002500 -0.222228
v 0.392314 0.002500 -0.078036
v 0.400000 0.002500 0.000000
v 0.369552 0.002500 -0.153073
v -0.392314 0.002500 -0.078036
v -0.332588 0.002500 -0.222228
v -0.369552 0.002500 -0.153073
v -0.222228 0.002500 0.332588
v -0.153073 0.002500 0.369552
v 0.078036 0.002500 -0.392314
v -0.078036 0.002500 0.392314
v 0.222228 0.002500 -0.332588
v 0.153073 0.002500 -0.369552
v 0.332588 0.002500 0.222228
v 0.369552 0.002500 0.153073
v 0.392314 0.002500 0.078036
v 0.078036 -0.002500 -0.392314
v 0.153073 -0.002500 -0.369552
v 0.282843 -0.002500 -0.282843
v 0.332588 -0.002500 -0.222228
v 0.222228 -0.002500 -0.332588
v 0.222228 -0.002500 0.332588
v 0.282843 -0.002500 0.282843
v 0.369552 -0.002500 0.153073
v 0.392314 -0.002500 0.078036
v 0.332588 -0.002500 0.222228
v -0.332588 -0.002500 0.222228
v -0.282843 -0.002500 0.282843
v -0.078036 -0.002500 0.392314
v -0.153073 -0.002500 0.369552
v -0.222228 -0.002500 0.332588
v -0.369552 -0.002500 -0.153073
v -0.392314 -0.002500 -0.078036
v -0.222228 -0.002500 -0.332588
v -0.282843 -0.002500 -0.282843
v -0.332588 -0.002500 -0.222228
v -0.078036 -0.002500 -0.392314
v 0.000000 -0.002500 -0.400000
v 0.153073 -0.002500 0.369552
v 0.369552 -0.002500 -0.153073
v 0.400000 -0.002500 0.000000
v 0.392314 -0.002500 -0.078036
v -0.400000 -0.002500 0.000000
v -0.369552 -0.002500 0.153073
v -0.392314 -0.002500 0.078036
v -0.153073 -0.002500 -0.369552
v 0.000000 -0.002500 0.400000
v 0.078036 -0.002500 0.392314
vn -0.0000 -0.0000 -1.0000
vn 0.1951 -0.0000 -0.9808
vn 0.3827 -0.0000 -0.9239
vn 0.5556 -0.0000 -0.8315
vn 0.7071 -0.0000 -0.7071
vn 0.8315 -0.0000 -0.5556
vn 0.9239 -0.0000 -0.3827
vn 0.9808 -0.0000 -0.1951
vn 1.0000 -0.0000 -0.0000
vn 0.9808 -0.0000 0.1951
vn 0.9239 -0.0000 0.3827
vn 0.8315 -0.0000 0.5556
vn 0.7071 -0.0000 0.7071
vn 0.5556 -0.0000 0.8315
vn 0.3827 -0.0000 0.9239
vn 0.1951 -0.0000 0.9808
vn -0.0000 -0.0000 1.0000
vn -0.1951 -0.0000 0.9808
vn -0.3827 -0.0000 0.9239
vn -0.5556 -0.0000 0.8315
vn -0.7071 -0.0000 0.7071
vn -0.8315 -0.0000 0.5556
vn -0.9239 -0.0000 0.3827
vn -0.9808 -0.0000 0.1951
vn -1.0000 -0.0000 -0.0000
vn -0.9808 -0.0000 -0.1951
vn -0.9239 -0.0000 -0.3827
vn -0.8315 -0.0000 -0.5556
vn -0.7071 -0.0000 -0.7071
vn -0.5556 -0.0000 -0.8315
vn -0.3827 -0.0000 -0.9239
vn -0.0000 1.0000 -0.0000
vn -0.1951 -0.0000 -0.9808
vn -0.0000 -1.0000 -0.0000
vt 1.000000 1.000000
vt 0.968750 0.500000
vt 1.000000 0.500000
vt 0.968750 1.000000
vt 0.937500 0.500000
vt 0.937500 1.000000
vt 0.906250 0.500000
vt 0.906250 1.000000
vt 0.875000 0.500000
vt 0.875000 1.000000
vt 0.843750 0.500000
vt 0.843750 1.000000
vt 0.812500 0.500000
vt 0.812500 1.000000
vt 0.781250 0.500000
vt 0.781250 1.000000
vt 0.750000 0.500000
vt 0.750000 1.000000
vt 0.718750 0.500000
vt 0.718750 1.000000
vt 0.687500 0.500000
vt 0.687500 1.000000
vt 0.656250 0.500000
vt 0.656250 1.000000
vt 0.625000 0.500000
vt 0.625000 1.000000
vt 0.593750 0.500000
vt 0.593750 1.000000
vt 0.562500 0.500000
vt 0.562500 1.000000
vt 0.531250 0.500000
vt 0.531250 1.000000
vt 0.500000 0.500000
vt 0.500000 1.000000
vt 0.468750 0.500000
vt 0.468750 1.000000
vt 0.437500 0.500000
vt 0.437500 1.000000
vt 0.406250 0.500000
vt 0.406250 1.000000
vt 0.375000 0.500000
vt 0.375000 1.000000
vt 0.343750 0.500000
vt 0.343750 1.000000
vt 0.312500 0.500000
vt 0.312500 1.000000
vt 0.281250 0.500000
vt 0.281250 1.000000
vt 0.250000 0.500000
vt 0.250000 1.000000
vt 0.218750 0.500000
vt 0.218750 1.000000
vt 0.187500 0.500000
vt 0.187500 1.000000
vt 0.156250 0.500000
vt 0.156250 1.000000
vt 0.125000 0.500000
vt 0.125000 1.000000
vt 0.093750 0.500000
vt 0.093750 1.000000
vt 0.062500 0.500000
vt 0.383337 0.449553
vt 0.385764 0.385765
vt 0.409642 0.356669
vt 0.014612 0.203178
vt 0.116663 0.050447
vt 0.114235 0.114235
vt 0.062500 1.000000
vt 0.031250 0.500000
vt 0.031250 1.000000
vt 0.000000 0.500000
vt 0.883337 0.449553
vt 0.856669 0.409642
vt 0.823475 0.427385
vt 0.658156 0.028269
vt 0.614235 0.114235
vt 0.643331 0.090358
vt 0.968750 0.754902
vt 1.000000 0.745098
vt 0.968750 0.745098
vt 0.937500 0.754902
vt 0.937500 0.745098
vt 0.906250 0.754902
vt 0.906250 0.745098
vt 0.875000 0.754902
vt 0.875000 0.745098
vt 0.843750 0.745098
vt 0.843750 0.754902
vt 0.812500 0.745098
vt 0.812500 0.754902
vt 0.781250 0.745098
vt 0.781250 0.754902
vt 0.750000 0.745098
vt 0.750000 0.754902
vt 0.718750 0.745098
vt 0.718750 0.754902
vt 0.687500 0.745098
vt 0.687500 0.754902
vt 0.656250 0.745098
vt 0.656250 0.754902
vt 0.625000 0.745098
vt 0.625000 0.754902
vt 0.593750 0.745098
vt 0.593750 0.754902
vt 0.562500 0.745098
vt 0.562500 0.754902
vt 0.531250 0.745098
vt 0.531250 0.754902
vt 0.500000 0.745098
vt 0.500000 0.754902
vt 0.468750 0.745098
vt 0.468750 0.754902
vt 0.437500 0.745098
vt 0.437500 0.754902
vt 0.406250 0.745098
vt 0.406250 0.754902
vt 0.375000 0.745098
vt 0.375000 0.754902
vt 0.343750 0.754902
vt 0.343750 0.745098
vt 0.312500 0.754902
vt 0.312500 0.745098
vt 0.281250 0.754902
vt 0.281250 0.745098
vt 0.250000 0.754902
vt 0.250000 0.745098
vt 0.218750 0.754902
vt 0.218750 0.745098
vt 0.187500 0.754902
vt 0.187500 0.745098
vt 0.156250 0.754902
vt 0.156250 0.745098
vt 0.125000 0.754902
vt 0.125000 0.745098
vt 0.093750 0.754902
vt 0.093750 0.745098
vt 0.062500 0.754902
vt 0.062500 0.745098
vt 0.031250 0.754902
vt 0.031250 0.745098
vt 0.000000 0.754902
vt 0.000000 0.745098
vt 0.323475 0.072615
vt 0.341844 0.028269
vt 0.383337 0.050447
vt 0.419706 0.080294
vt 0.449553 0.116663
vt 0.471731 0.158156
vt 0.485388 0.203178
vt 0.490000 0.250000
vt 0.485388 0.296822
vt 0.471731 0.341844
vt 0.449553 0.383337
vt 0.419706 0.419706
vt 0.341844 0.471731
vt 0.296822 0.485388
vt 0.250000 0.490000
vt 0.203178 0.485388
vt 0.158156 0.471731
vt 0.116663 0.449553
vt 0.080294 0.419706
vt 0.050447 0.383337
vt 0.028269 0.341844
vt 0.072615 0.323475
vt 0.090358 0.356669
vt 0.356669 0.090358
vt 0.114235 0.385764
vt 0.143330 0.409642
vt 0.385764 0.114235
vt 0.409642 0.143330
vt 0.176525 0.427385
vt 0.427385 0.176525
vt 0.438311 0.212543
vt 0.212543 0.438311
vt 0.250000 0.442000
vt 0.442000 0.250000
vt 0.287457 0.438311
vt 0.438311 0.287457
vt 0.427385 0.323475
vt 0.323475 0.427385
vt 0.356669 0.409642
vt 0.014612 0.296822
vt 0.010000 0.250000
vt 0.028269 0.158156
vt 0.050447 0.116663
vt 0.080294 0.080294
vt 0.158156 0.028269
vt 0.203178 0.014612
vt 0.250000 0.010000
vt 0.296822 0.014612
vt 0.287457 0.061689
vt 0.061689 0.287457
vt 0.250000 0.058000
vt 0.212543 0.061689
vt 0.058000 0.250000
vt 0.061689 0.212543
vt 0.176525 0.072615
vt 0.072615 0.176525
vt 0.090358 0.143330
vt 0.143330 0.090358
vt 0.000000 1.000000
vt 0.558000 0.250000
vt 0.561689 0.212543
vt 0.514612 0.203178
vt 0.510000 0.250000
vt 0.514612 0.296822
vt 0.528269 0.341844
vt 0.550447 0.383337
vt 0.580294 0.419706
vt 0.616663 0.449553
vt 0.658156 0.471731
vt 0.703178 0.485388
vt 0.750000 0.490000
vt 0.796822 0.485388
vt 0.841844 0.471731
vt 0.919706 0.419706
vt 0.949553 0.383337
vt 0.971731 0.341844
vt 0.985388 0.296822
vt 0.990000 0.250000
vt 0.985388 0.203178
vt 0.971731 0.158156
vt 0.949553 0.116663
vt 0.919706 0.080294
vt 0.883337 0.050447
vt 0.841844 0.028269
vt 0.796822 0.014612
vt 0.787457 0.061689
vt 0.823475 0.072615
vt 0.856669 0.090358
vt 0.561689 0.287457
vt 0.572615 0.323475
vt 0.885764 0.114235
vt 0.590358 0.356669
vt 0.909642 0.143330
vt 0.927385 0.176525
vt 0.614236 0.385765
vt 0.643330 0.409642
vt 0.938310 0.212543
vt 0.676525 0.427385
vt 0.942000 0.250000
vt 0.938310 0.287457
vt 0.712543 0.438311
vt 0.750000 0.442000
vt 0.927385 0.323475
vt 0.909642 0.356669
vt 0.787457 0.438311
vt 0.885764 0.385764
vt 0.750000 0.010000
vt 0.703178 0.014612
vt 0.616663 0.050447
vt 0.580294 0.080294
vt 0.550447 0.116663
vt 0.528269 0.158156
vt 0.572615 0.176525
vt 0.750000 0.058000
vt 0.590358 0.143331
vt 0.712543 0.061689
vt 0.676525 0.072615
vt 1.000000 0.754902
s 1
usemtl マテリアル
f 2/1/1 3/2/2 1/3/1
f 4/4/2 5/5/3 3/2/2
f 6/6/3 7/7/4 5/5/3
f 8/8/4 9/9/5 7/7/4
f 10/10/5 11/11/6 9/9/5
f 12/12/6 13/13/7 11/11/6
f 14/14/7 15/15/8 13/13/7
f 16/16/8 17/17/9 15/15/8
f 18/18/9 19/19/10 17/17/9
f 20/20/10 21/21/11 19/19/10
f 22/22/11 23/23/12 21/21/11
f 24/24/12 25/25/13 23/23/12
f 26/26/13 27/27/14 25/25/13
f 28/28/14 29/29/15 27/27/14
f 30/30/15 31/31/16 29/29/15
f 32/32/16 33/33/17 31/31/16
f 34/34/17 35/35/18 33/33/17
f 36/36/18 37/37/19 35/35/18
f 38/38/19 39/39/20 37/37/19
f 40/40/20 41/41/21 39/39/20
f 42/42/21 43/43/22 41/41/21
f 44/44/22 45/45/23 43/43/22
f 46/46/23 47/47/24 45/45/23
f 48/48/24 49/49/25 47/47/24
f 50/50/25 51/51/26 49/49/25
f 52/52/26 53/53/27 51/51/26
f 54/54/27 55/55/28 53/53/27
f 56/56/28 57/57/29 55/55/28
f 58/58/29 59/59/30 57/57/29
f 60/60/30 61/61/31 59/59/30
f 8/62/32 80/63/32 81/64/32
f 48/65/32 40/66/32 72/67/32
f 62/68/31 63/69/33 61/61/31
f 64/70/33 1/71/1 63/69/33
f 7/72/34 101/73/34 98/74/34
f 37/75/34 108/76/34 111/77/34
f 90/78/18 118/79/17 97/80/18
f 93/81/19 97/80/18 98/82/19
f 92/83/20 98/82/19 101/84/20
f 80/85/21 101/84/20 99/86/21
f 80/85/21 100/87/22 81/88/22
f 81/88/22 120/89/23 84/90/23
f 84/90/23 122/91/24 82/92/24
f 82/92/24 121/93/25 83/94/25
f 83/94/25 105/95/26 96/96/26
f 96/96/26 104/97/27 95/98/27
f 95/98/27 106/99/28 94/100/28
f 94/100/28 103/101/29 78/102/29
f 78/102/29 102/103/30 77/104/30
f 77/104/30 119/105/31 79/106/31
f 79/106/31 128/107/33 76/108/33
f 76/108/33 127/109/1 75/110/1
f 75/110/1 109/111/2 91/112/2
f 91/112/2 110/113/3 89/114/3
f 89/114/3 111/115/4 88/116/4
f 88/116/4 108/117/5 72/118/5
f 73/119/6 108/117/5 107/120/6
f 74/121/7 107/120/6 124/122/7
f 71/123/8 124/122/7 125/124/8
f 70/125/9 125/124/8 123/126/9
f 85/127/10 123/126/9 113/128/10
f 87/129/11 113/128/10 112/130/11
f 86/131/12 112/130/11 116/132/12
f 65/133/13 116/132/12 115/134/13
f 66/135/14 115/134/13 114/136/14
f 69/137/15 114/136/14 126/138/15
f 68/139/16 126/138/15 117/140/16
f 67/141/17 117/140/16 118/142/17
f 2/1/1 4/4/2 3/2/2
f 4/4/2 6/6/3 5/5/3
f 6/6/3 8/8/4 7/7/4
f 8/8/4 10/10/5 9/9/5
f 10/10/5 12/12/6 11/11/6
f 12/12/6 14/14/7 13/13/7
f 14/14/7 16/16/8 15/15/8
f 16/16/8 18/18/9 17/17/9
f 18/18/9 20/20/10 19/19/10
f 20/20/10 22/22/11 21/21/11
f 22/22/11 24/24/12 23/23/12
f 24/24/12 26/26/13 25/25/13
f 26/26/13 28/28/14 27/27/14
f 28/28/14 30/30/15 29/29/15
f 30/30/15 32/32/16 31/31/16
f 32/32/16 34/34/17 33/33/17
f 34/34/17 36/36/18 35/35/18
f 36/36/18 38/38/19 37/37/19
f 38/38/19 40/40/20 39/39/20
f 40/40/20 42/42/21 41/41/21
f 42/42/21 44/44/22 43/43/22
f 44/44/22 46/46/23 45/45/23
f 46/46/23 48/48/24 47/47/24
f 48/48/24 50/50/25 49/49/25
f 50/50/25 52/52/26 51/51/26
f 52/52/26 54/54/27 53/53/27
f 54/54/27 56/56/28 55/55/28
f 56/56/28 58/58/29 57/57/29
f 58/58/29 60/60/30 59/59/30
f 60/60/30 62/68/31 61/61/31
f 79/143/32 30/144/32 28/145/32
f 28/145/32 26/146/32 24/147/32
f 24/147/32 22/148/32 20/149/32
f 20/149/32 18/150/32 16/151/32
f 16/151/32 14/152/32 12/153/32
f 12/153/32 10/154/32 8/62/32
f 8/62/32 6/155/32 4/156/32
f 4/156/32 2/157/32 64/158/32
f 64/158/32 62/159/32 60/160/32
f 60/160/32 58/161/32 56/162/32
f 56/162/32 54/163/32 87/164/32
f 56/162/32 87/164/32 86/165/32
f 64/158/32 60/160/32 56/162/32
f 8/62/32 4/156/32 64/158/32
f 16/151/32 12/153/32 8/62/32
f 24/147/32 20/149/32 16/151/32
f 79/143/32 28/145/32 24/147/32
f 77/166/32 79/143/32 24/147/32
f 56/162/32 86/165/32 65/167/32
f 56/162/32 65/167/32 66/168/32
f 78/169/32 77/166/32 24/147/32
f 94/170/32 78/169/32 24/147/32
f 64/158/32 56/162/32 66/168/32
f 64/158/32 66/168/32 69/171/32
f 95/172/32 94/170/32 24/147/32
f 96/173/32 95/172/32 24/147/32
f 64/158/32 69/171/32 68/174/32
f 64/158/32 68/174/32 67/175/32
f 96/173/32 24/147/32 16/151/32
f 83/176/32 96/173/32 16/151/32
f 8/62/32 64/158/32 67/175/32
f 8/62/32 67/175/32 90/177/32
f 82/178/32 83/176/32 16/151/32
f 84/179/32 82/178/32 16/151/32
f 8/62/32 90/177/32 93/180/32
f 8/62/32 93/180/32 92/181/32
f 84/179/32 16/151/32 8/62/32
f 81/64/32 84/179/32 8/62/32
f 8/62/32 92/181/32 80/63/32
f 87/164/32 54/163/32 52/182/32
f 52/182/32 50/183/32 48/65/32
f 48/65/32 46/184/32 44/185/32
f 44/185/32 42/186/32 40/66/32
f 40/66/32 38/187/32 36/188/32
f 36/188/32 34/189/32 32/190/32
f 32/190/32 30/144/32 79/143/32
f 32/190/32 79/143/32 76/191/32
f 40/66/32 36/188/32 32/190/32
f 48/65/32 44/185/32 40/66/32
f 87/164/32 52/182/32 48/65/32
f 85/192/32 87/164/32 48/65/32
f 32/190/32 76/191/32 75/193/32
f 32/190/32 75/193/32 91/194/32
f 70/195/32 85/192/32 48/65/32
f 71/196/32 70/195/32 48/65/32
f 40/66/32 32/190/32 91/194/32
f 40/66/32 91/194/32 89/197/32
f 74/198/32 71/196/32 48/65/32
f 73/199/32 74/198/32 48/65/32
f 40/66/32 89/197/32 88/200/32
f 72/67/32 73/199/32 48/65/32
f 40/66/32 88/200/32 72/67/32
f 62/68/31 64/70/33 63/69/33
f 64/70/33 2/201/1 1/71/1
f 123/202/34 125/203/34 47/204/34
f 47/204/34 49/205/34 51/206/34
f 51/206/34 53/207/34 55/208/34
f 55/208/34 57/209/34 59/210/34
f 59/210/34 61/211/34 63/212/34
f 63/212/34 1/213/34 3/214/34
f 3/214/34 5/215/34 7/72/34
f 7/72/34 9/216/34 11/217/34
f 11/217/34 13/218/34 15/219/34
f 15/219/34 17/220/34 19/221/34
f 19/221/34 21/222/34 23/223/34
f 23/223/34 25/224/34 27/225/34
f 27/225/34 29/226/34 31/227/34
f 31/227/34 128/228/34 119/229/34
f 31/227/34 119/229/34 102/230/34
f 23/223/34 27/225/34 31/227/34
f 15/219/34 19/221/34 23/223/34
f 7/72/34 11/217/34 15/219/34
f 63/212/34 3/214/34 7/72/34
f 55/208/34 59/210/34 63/212/34
f 47/204/34 51/206/34 55/208/34
f 113/231/34 123/202/34 47/204/34
f 112/232/34 113/231/34 47/204/34
f 23/223/34 31/227/34 102/230/34
f 23/223/34 102/230/34 103/233/34
f 112/232/34 47/204/34 55/208/34
f 116/234/34 112/232/34 55/208/34
f 23/223/34 103/233/34 106/235/34
f 23/223/34 106/235/34 104/236/34
f 115/237/34 116/234/34 55/208/34
f 114/238/34 115/237/34 55/208/34
f 15/219/34 23/223/34 104/236/34
f 15/219/34 104/236/34 105/239/34
f 114/238/34 55/208/34 63/212/34
f 126/240/34 114/238/34 63/212/34
f 15/219/34 105/239/34 121/241/34
f 15/219/34 121/241/34 122/242/34
f 117/243/34 126/240/34 63/212/34
f 118/244/34 117/243/34 63/212/34
f 15/219/34 122/242/34 120/245/34
f 15/219/34 120/245/34 100/246/34
f 118/244/34 63/212/34 7/72/34
f 97/247/34 118/244/34 7/72/34
f 7/72/34 15/219/34 100/246/34
f 7/72/34 100/246/34 99/248/34
f 98/74/34 97/247/34 7/72/34
f 7/72/34 99/248/34 101/73/34
f 128/228/34 31/227/34 33/249/34
f 33/249/34 35/250/34 37/75/34
f 37/75/34 39/251/34 41/252/34
f 41/252/34 43/253/34 45/254/34
f 45/254/34 47/204/34 125/203/34
f 45/254/34 125/203/34 124/255/34
f 37/75/34 41/252/34 45/254/34
f 128/228/34 33/249/34 37/75/34
f 127/256/34 128/228/34 37/75/34
f 45/254/34 124/255/34 107/257/34
f 45/254/34 107/257/34 108/76/34
f 109/258/34 127/256/34 37/75/34
f 110/259/34 109/258/34 37/75/34
f 37/75/34 45/254/34 108/76/34
f 111/77/34 110/259/34 37/75/34
f 90/78/18 67/260/17 118/79/17
f 93/81/19 90/78/18 97/80/18
f 92/83/20 93/81/19 98/82/19
f 80/85/21 92/83/20 101/84/20
f 80/85/21 99/86/21 100/87/22
f 81/88/22 100/87/22 120/89/23
f 84/90/23 120/89/23 122/91/24
f 82/92/24 122/91/24 121/93/25
f 83/94/25 121/93/25 105/95/26
f 96/96/26 105/95/26 104/97/27
f 95/98/27 104/97/27 106/99/28
f 94/100/28 106/99/28 103/101/29
f 78/102/29 103/101/29 102/103/30
f 77/104/30 102/103/30 119/105/31
f 79/106/31 119/105/31 128/107/33
f 76/108/33 128/107/33 127/109/1
f 75/110/1 127/109/1 109/111/2
f 91/112/2 109/111/2 110/113/3
f 89/114/3 110/113/3 111/115/4
f 88/116/4 111/115/4 108/117/5
f 73/119/6 72/118/5 108/117/5
f 74/121/7 73/119/6 107/120/6
f 71/123/8 74/121/7 124/122/7
f 70/125/9 71/123/8 125/124/8
f 85/127/10 70/125/9 123/126/9
f 87/129/11 85/127/10 113/128/10
f 86/131/12 87/129/11 112/130/11
f 65/133/13 86/131/12 116/132/12
f 66/135/14 65/133/13 115/134/13
f 69/137/15 66/135/14 114/136/14
f 68/139/16 69/137/15 126/138/15
f 67/141/17 68/139/16 117/140/16
