# Blender 5.0.1
# www.blender.org
mtllib Eraser.mtl
o Untitled.001
v 1.520000 0.150000 0.860000
v -0.570000 0.150000 0.860000
v 1.710000 0.340000 0.860000
v 1.520000 0.340000 0.860000
v -0.570000 0.340000 0.860000
v -0.760000 0.340000 0.860000
v 1.710000 0.910000 0.860000
v 1.520000 0.910000 0.860000
v -0.570000 0.910000 0.860000
v -0.760000 0.910000 0.860000
v 1.520000 1.100000 0.860000
v -0.570000 1.100000 0.860000
v 1.710000 0.150000 0.670000
v 1.520000 0.150000 0.670000
v -0.570000 0.150000 0.670000
v -0.760000 0.150000 0.670000
v 1.710000 0.340000 0.670000
v 1.520000 0.340000 0.670000
v -0.570000 0.340000 0.670000
v -0.760000 0.340000 0.670000
v -1.520000 0.340000 0.670000
v 1.710000 0.910000 0.670000
v 1.520000 0.910000 0.670000
v -0.570000 0.910000 0.670000
v -0.760000 0.910000 0.670000
v -1.520000 0.910000 0.670000
v 1.710000 1.100000 0.670000
v 1.520000 1.100000 0.670000
v -0.570000 1.100000 0.670000
v -0.760000 1.100000 0.670000
v -1.520000 0.340000 0.480000
v -1.710000 0.340000 0.480000
v -1.520000 0.910000 0.480000
v -1.710000 0.910000 0.480000
v -1.520000 0.340000 -0.470000
v -1.710000 0.340000 -0.470000
v -1.520000 0.910000 -0.470000
v -1.710000 0.910000 -0.470000
v 1.710000 0.150000 -0.660000
v 1.520000 0.150000 -0.660000
v -0.570000 0.150000 -0.660000
v -0.760000 0.150000 -0.660000
v 1.710000 0.340000 -0.660000
v 1.520000 0.340000 -0.660000
v -0.570000 0.340000 -0.660000
v -0.760000 0.340000 -0.660000
v -1.520000 0.340000 -0.660000
v 1.710000 0.910000 -0.660000
v 1.520000 0.910000 -0.660000
v -0.570000 0.910000 -0.660000
v -0.760000 0.910000 -0.660000
v -1.520000 0.910000 -0.660000
v 1.710000 1.100000 -0.660000
v 1.520000 1.100000 -0.660000
v -0.570000 1.100000 -0.660000
v -0.760000 1.100000 -0.660000
v 1.520000 0.150000 -0.850000
v -0.570000 0.150000 -0.850000
v 1.710000 0.340000 -0.850000
v 1.520000 0.340000 -0.850000
v -0.570000 0.340000 -0.850000
v -0.760000 0.340000 -0.850000
v 1.710000 0.910000 -0.850000
v 1.520000 0.910000 -0.850000
v -0.570000 0.910000 -0.850000
v -0.760000 0.910000 -0.850000
v 1.520000 1.100000 -0.850000
v -0.570000 1.100000 -0.850000
v 1.710000 0.340000 0.860000
v 1.710000 0.910000 0.860000
v 1.710000 0.150000 0.670000
v 1.710000 0.340000 0.670000
v 1.710000 0.910000 0.670000
v 1.710000 1.100000 0.670000
v 1.710000 0.150000 0.290000
v 1.710000 0.340000 0.290000
v 1.710000 0.910000 0.290000
v 1.710000 1.100000 0.290000
v 1.710000 0.150000 -0.280000
v 1.710000 0.340000 -0.280000
v 1.710000 0.910000 -0.280000
v 1.710000 1.100000 -0.280000
v 1.710000 0.150000 -0.660000
v 1.710000 0.340000 -0.660000
v 1.710000 0.910000 -0.660000
v 1.710000 1.100000 -0.660000
v 1.710000 0.340000 -0.850000
v 1.710000 0.910000 -0.850000
v 1.520000 0.150000 0.860000
v 1.520000 0.340000 0.860000
v 1.520000 0.910000 0.860000
v 1.520000 1.100000 0.860000
v 1.520000 0.150000 0.670000
v 1.520000 0.340000 0.670000
v 1.520000 0.910000 0.670000
v 1.520000 1.100000 0.670000
v 1.520000 0.150000 -0.660000
v 1.520000 0.340000 -0.660000
v 1.520000 0.910000 -0.660000
v 1.520000 1.100000 -0.660000
v 1.520000 0.150000 -0.850000
v 1.520000 0.340000 -0.850000
v 1.520000 0.910000 -0.850000
v 1.520000 1.100000 -0.850000
v -0.570000 0.150000 0.860000
v -0.570000 0.340000 0.860000
v -0.570000 0.910000 0.860000
v -0.570000 1.100000 0.860000
v -0.570000 0.150000 0.670000
v -0.570000 0.340000 0.670000
v -0.570000 0.910000 0.670000
v -0.570000 1.100000 0.670000
v -0.570000 0.150000 -0.660000
v -0.570000 0.340000 -0.660000
v -0.570000 0.910000 -0.660000
v -0.570000 1.100000 -0.660000
v -0.570000 0.150000 -0.850000
v -0.570000 0.340000 -0.850000
v -0.570000 0.910000 -0.850000
v -0.570000 1.100000 -0.850000
v -0.760000 0.340000 0.860000
v -0.760000 0.910000 0.860000
v -0.760000 0.150000 0.670000
v -0.760000 0.340000 0.670000
v -0.760000 0.910000 0.670000
v -0.760000 1.100000 0.670000
v -0.760000 0.150000 0.290000
v -0.760000 0.340000 0.290000
v -0.760000 0.910000 0.290000
v -0.760000 1.100000 0.290000
v -0.760000 0.150000 -0.280000
v -0.760000 0.340000 -0.280000
v -0.760000 0.910000 -0.280000
v -0.760000 1.100000 -0.280000
v -0.760000 0.150000 -0.660000
v -0.760000 0.340000 -0.660000
v -0.760000 0.910000 -0.660000
v -0.760000 1.100000 -0.660000
v -0.760000 0.340000 -0.850000
v -0.760000 0.910000 -0.850000
v -1.520000 0.340000 0.670000
v -1.520000 0.910000 0.670000
v -1.520000 0.340000 0.480000
v -1.520000 0.910000 0.480000
v -1.520000 0.340000 -0.470000
v -1.520000 0.910000 -0.470000
v -1.520000 0.340000 -0.660000
v -1.520000 0.910000 -0.660000
v -1.710000 0.340000 0.480000
v -1.710000 0.910000 0.480000
v -1.710000 0.340000 -0.470000
v -1.710000 0.910000 -0.470000
v 1.710000 0.150000 0.670000
v 1.710000 0.150000 0.290000
v 1.710000 0.150000 -0.280000
v 1.710000 0.150000 -0.660000
v 1.520000 0.150000 0.860000
v 1.520000 0.150000 0.670000
v 1.520000 0.150000 -0.660000
v 1.520000 0.150000 -0.850000
v 1.140000 0.150000 0.100000
v 1.140000 0.150000 -0.090000
v 0.950000 0.150000 0.100000
v 0.950000 0.150000 -0.090000
v 0.760000 0.150000 0.100000
v 0.760000 0.150000 -0.090000
v 0.570000 0.150000 0.100000
v 0.570000 0.150000 -0.090000
v 0.380000 0.150000 0.100000
v 0.380000 0.150000 -0.090000
v 0.190000 0.150000 0.100000
v 0.190000 0.150000 -0.090000
v 0.000000 0.150000 0.100000
v -0.000000 0.150000 -0.090000
v -0.190000 0.150000 0.100000
v -0.190000 0.150000 -0.090000
v -0.570000 0.150000 0.860000
v -0.570000 0.150000 0.670000
v -0.570000 0.150000 -0.660000
v -0.570000 0.150000 -0.850000
v -0.760000 0.150000 0.670000
v -0.760000 0.150000 0.290000
v -0.760000 0.150000 -0.280000
v -0.760000 0.150000 -0.660000
v 1.710000 0.340000 0.860000
v 1.710000 0.340000 0.670000
v 1.710000 0.340000 -0.660000
v 1.710000 0.340000 -0.850000
v 1.520000 0.340000 0.860000
v 1.520000 0.340000 0.670000
v 1.520000 0.340000 -0.660000
v 1.520000 0.340000 -0.850000
v -0.570000 0.340000 0.860000
v -0.570000 0.340000 0.670000
v -0.570000 0.340000 -0.660000
v -0.570000 0.340000 -0.850000
v -0.760000 0.340000 0.860000
v -0.760000 0.340000 0.670000
v -0.760000 0.340000 0.290000
v -0.760000 0.340000 -0.280000
v -0.760000 0.340000 -0.660000
v -0.760000 0.340000 -0.850000
v -1.520000 0.340000 0.670000
v -1.520000 0.340000 0.480000
v -1.520000 0.340000 -0.470000
v -1.520000 0.340000 -0.660000
v -1.710000 0.340000 0.480000
v -1.710000 0.340000 -0.470000
v 1.710000 0.910000 0.860000
v 1.710000 0.910000 0.670000
v 1.710000 0.910000 -0.660000
v 1.710000 0.910000 -0.850000
v 1.520000 0.910000 0.860000
v 1.520000 0.910000 0.670000
v 1.520000 0.910000 -0.660000
v 1.520000 0.910000 -0.850000
v -0.570000 0.910000 0.860000
v -0.570000 0.910000 0.670000
v -0.570000 0.910000 -0.660000
v -0.570000 0.910000 -0.850000
v -0.760000 0.910000 0.860000
v -0.760000 0.910000 0.670000
v -0.760000 0.910000 0.290000
v -0.760000 0.910000 -0.280000
v -0.760000 0.910000 -0.660000
v -0.760000 0.910000 -0.850000
v -1.520000 0.910000 0.670000
v -1.520000 0.910000 0.480000
v -1.520000 0.910000 -0.470000
v -1.520000 0.910000 -0.660000
v -1.710000 0.910000 0.480000
v -1.710000 0.910000 -0.470000
v 1.710000 1.100000 0.670000
v 1.710000 1.100000 0.290000
v 1.710000 1.100000 -0.280000
v 1.710000 1.100000 -0.660000
v 1.520000 1.100000 0.860000
v 1.520000 1.100000 0.670000
v 1.520000 1.100000 -0.660000
v 1.520000 1.100000 -0.850000
v 1.140000 1.100000 0.100000
v 1.140000 1.100000 -0.090000
v 0.950000 1.100000 0.100000
v 0.950000 1.100000 -0.090000
v 0.760000 1.100000 0.100000
v 0.760000 1.100000 -0.090000
v 0.570000 1.100000 0.100000
v 0.570000 1.100000 -0.090000
v 0.380000 1.100000 0.100000
v 0.380000 1.100000 -0.090000
v 0.190000 1.100000 0.100000
v 0.190000 1.100000 -0.090000
v -0.000000 1.100000 0.100000
v -0.000000 1.100000 -0.090000
v -0.190000 1.100000 0.100000
v -0.190000 1.100000 -0.090000
v -0.570000 1.100000 0.860000
v -0.570000 1.100000 0.670000
v -0.570000 1.100000 -0.660000
v -0.570000 1.100000 -0.850000
v -0.760000 1.100000 0.670000
v -0.760000 1.100000 0.290000
v -0.760000 1.100000 -0.280000
v -0.760000 1.100000 -0.660000
vn -0.0000 -0.0000 1.0000
vn -0.0000 -0.0000 -1.0000
vn 1.0000 -0.0000 -0.0000
vn -1.0000 -0.0000 -0.0000
vn -0.0000 -1.0000 -0.0000
vn -0.0000 1.0000 -0.0000
vt 0.994141 0.500000
vt 0.966797 0.500000
vt 0.775391 0.500000
vt 0.958984 0.500000
s 1
usemtl palette.026
f 4/1/1 2/1/1 1/1/1
f 5/1/1 2/1/1 4/1/1
f 7/1/1 4/1/1 3/1/1
f 7/1/1 6/1/1 5/1/1
f 7/1/1 5/1/1 4/1/1
f 8/1/1 6/1/1 7/1/1
f 9/1/1 6/1/1 8/1/1
f 10/1/1 6/1/1 9/1/1
f 11/1/1 9/1/1 8/1/1
f 12/1/1 9/1/1 11/1/1
f 17/1/1 14/1/1 13/1/1
f 18/1/1 14/1/1 17/1/1
f 19/1/1 16/1/1 15/1/1
f 20/1/1 16/1/1 19/1/1
f 25/2/1 21/2/1 20/2/1
f 26/2/1 21/2/1 25/2/1
f 27/1/1 23/1/1 22/1/1
f 28/1/1 23/1/1 27/1/1
f 29/1/1 25/1/1 24/1/1
f 30/1/1 25/1/1 29/1/1
f 33/2/1 32/2/1 31/2/1
f 34/2/1 32/2/1 33/2/1
f 35/2/2 36/2/2 37/2/2
f 37/2/2 36/2/2 38/2/2
f 39/3/2 40/3/2 43/3/2
f 43/3/2 40/3/2 44/3/2
f 41/3/2 42/3/2 45/3/2
f 45/3/2 42/3/2 46/3/2
f 46/2/2 47/2/2 51/2/2
f 51/2/2 47/2/2 52/2/2
f 48/3/2 49/3/2 53/3/2
f 53/3/2 49/3/2 54/3/2
f 50/3/2 51/3/2 55/3/2
f 55/3/2 51/3/2 56/3/2
f 57/3/2 58/3/2 60/3/2
f 60/3/2 58/3/2 61/3/2
f 59/3/2 60/3/2 63/3/2
f 61/3/2 62/3/2 63/3/2
f 60/3/2 61/3/2 63/3/2
f 63/3/2 62/3/2 64/3/2
f 64/3/2 62/3/2 65/3/2
f 65/3/2 62/3/2 66/3/2
f 64/3/2 65/3/2 67/3/2
f 67/3/2 65/3/2 68/3/2
f 72/1/3 70/1/3 69/1/3
f 73/1/3 70/1/3 72/1/3
f 75/1/3 72/1/3 71/1/3
f 76/2/3 73/2/3 72/2/3
f 76/1/3 72/1/3 75/1/3
f 77/1/3 74/1/3 73/1/3
f 77/2/3 73/2/3 76/2/3
f 78/1/3 74/1/3 77/1/3
f 79/4/3 76/4/3 75/4/3
f 80/2/3 77/2/3 76/2/3
f 80/4/3 76/4/3 79/4/3
f 81/4/3 78/4/3 77/4/3
f 81/2/3 77/2/3 80/2/3
f 82/4/3 78/4/3 81/4/3
f 83/3/3 80/3/3 79/3/3
f 84/2/3 81/2/3 80/2/3
f 84/3/3 80/3/3 83/3/3
f 85/3/3 82/3/3 81/3/3
f 85/2/3 81/2/3 84/2/3
f 86/3/3 82/3/3 85/3/3
f 87/3/3 85/3/3 84/3/3
f 88/3/3 85/3/3 87/3/3
f 93/1/3 90/1/3 89/1/3
f 94/1/3 90/1/3 93/1/3
f 95/1/3 92/1/3 91/1/3
f 96/1/3 92/1/3 95/1/3
f 101/3/3 98/3/3 97/3/3
f 102/3/3 98/3/3 101/3/3
f 103/3/3 100/3/3 99/3/3
f 104/3/3 100/3/3 103/3/3
f 105/1/4 106/1/4 109/1/4
f 109/1/4 106/1/4 110/1/4
f 107/1/4 108/1/4 111/1/4
f 111/1/4 108/1/4 112/1/4
f 113/3/4 114/3/4 117/3/4
f 117/3/4 114/3/4 118/3/4
f 115/3/4 116/3/4 119/3/4
f 119/3/4 116/3/4 120/3/4
f 121/1/4 122/1/4 124/1/4
f 124/1/4 122/1/4 125/1/4
f 123/1/4 124/1/4 127/1/4
f 127/1/4 124/1/4 128/1/4
f 125/1/4 126/1/4 129/1/4
f 129/1/4 126/1/4 130/1/4
f 127/4/4 128/4/4 131/4/4
f 131/4/4 128/4/4 132/4/4
f 129/4/4 130/4/4 133/4/4
f 133/4/4 130/4/4 134/4/4
f 131/3/4 132/3/4 135/3/4
f 135/3/4 132/3/4 136/3/4
f 133/3/4 134/3/4 137/3/4
f 137/3/4 134/3/4 138/3/4
f 136/3/4 137/3/4 139/3/4
f 139/3/4 137/3/4 140/3/4
f 141/2/4 142/2/4 143/2/4
f 143/2/4 142/2/4 144/2/4
f 145/2/4 146/2/4 147/2/4
f 147/2/4 146/2/4 148/2/4
f 149/2/4 150/2/4 151/2/4
f 151/2/4 150/2/4 152/2/4
f 158/1/5 154/1/5 153/1/5
f 159/3/5 156/3/5 155/3/5
f 161/4/5 155/4/5 154/4/5
f 162/4/5 155/4/5 161/4/5
f 163/4/5 161/4/5 154/4/5
f 163/1/5 162/1/5 161/1/5
f 164/4/5 155/4/5 162/4/5
f 164/1/5 162/1/5 163/1/5
f 165/4/5 163/4/5 154/4/5
f 165/4/5 164/4/5 163/4/5
f 166/4/5 155/4/5 164/4/5
f 166/4/5 164/4/5 165/4/5
f 167/4/5 165/4/5 154/4/5
f 167/1/5 166/1/5 165/1/5
f 168/4/5 155/4/5 166/4/5
f 168/1/5 166/1/5 167/1/5
f 169/4/5 167/4/5 154/4/5
f 169/4/5 168/4/5 167/4/5
f 170/4/5 155/4/5 168/4/5
f 170/4/5 168/4/5 169/4/5
f 171/4/5 169/4/5 154/4/5
f 171/1/5 170/1/5 169/1/5
f 172/4/5 155/4/5 170/4/5
f 172/1/5 170/1/5 171/1/5
f 173/4/5 171/4/5 154/4/5
f 173/4/5 172/4/5 171/4/5
f 174/4/5 155/4/5 172/4/5
f 174/4/5 172/4/5 173/4/5
f 175/4/5 173/4/5 154/4/5
f 175/1/5 174/1/5 173/1/5
f 176/4/5 155/4/5 174/4/5
f 176/1/5 174/1/5 175/1/5
f 177/1/5 158/1/5 157/1/5
f 178/1/5 154/1/5 158/1/5
f 178/1/5 158/1/5 177/1/5
f 179/3/5 160/3/5 159/3/5
f 179/3/5 159/3/5 155/3/5
f 180/3/5 160/3/5 179/3/5
f 181/1/5 154/1/5 178/1/5
f 182/4/5 175/4/5 154/4/5
f 182/1/5 154/1/5 181/1/5
f 182/4/5 176/4/5 175/4/5
f 183/4/5 155/4/5 176/4/5
f 183/4/5 176/4/5 182/4/5
f 183/3/5 179/3/5 155/3/5
f 184/3/5 179/3/5 183/3/5
f 189/1/5 186/1/5 185/1/5
f 190/1/5 186/1/5 189/1/5
f 191/3/5 188/3/5 187/3/5
f 192/3/5 188/3/5 191/3/5
f 197/1/5 194/1/5 193/1/5
f 198/1/5 194/1/5 197/1/5
f 201/3/5 196/3/5 195/3/5
f 202/3/5 196/3/5 201/3/5
f 203/2/5 200/2/5 199/2/5
f 203/2/5 201/2/5 200/2/5
f 203/2/5 199/2/5 198/2/5
f 204/2/5 201/2/5 203/2/5
f 205/2/5 201/2/5 204/2/5
f 206/2/5 201/2/5 205/2/5
f 207/2/5 205/2/5 204/2/5
f 208/2/5 205/2/5 207/2/5
f 209/1/6 210/1/6 213/1/6
f 213/1/6 210/1/6 214/1/6
f 211/3/6 212/3/6 215/3/6
f 215/3/6 212/3/6 216/3/6
f 217/1/6 218/1/6 221/1/6
f 221/1/6 218/1/6 222/1/6
f 219/3/6 220/3/6 225/3/6
f 225/3/6 220/3/6 226/3/6
f 223/2/6 224/2/6 227/2/6
f 224/2/6 225/2/6 227/2/6
f 222/2/6 223/2/6 227/2/6
f 227/2/6 225/2/6 228/2/6
f 228/2/6 225/2/6 229/2/6
f 229/2/6 225/2/6 230/2/6
f 228/2/6 229/2/6 231/2/6
f 231/2/6 229/2/6 232/2/6
f 233/1/6 234/1/6 238/1/6
f 235/3/6 236/3/6 239/3/6
f 234/4/6 235/4/6 241/4/6
f 241/4/6 235/4/6 242/4/6
f 234/4/6 241/4/6 243/4/6
f 241/1/6 242/1/6 243/1/6
f 242/4/6 235/4/6 244/4/6
f 243/1/6 242/1/6 244/1/6
f 234/4/6 243/4/6 245/4/6
f 243/4/6 244/4/6 245/4/6
f 244/4/6 235/4/6 246/4/6
f 245/4/6 244/4/6 246/4/6
f 234/4/6 245/4/6 247/4/6
f 245/1/6 246/1/6 247/1/6
f 246/4/6 235/4/6 248/4/6
f 247/1/6 246/1/6 248/1/6
f 234/4/6 247/4/6 249/4/6
f 247/4/6 248/4/6 249/4/6
f 248/4/6 235/4/6 250/4/6
f 249/4/6 248/4/6 250/4/6
f 234/4/6 249/4/6 251/4/6
f 249/1/6 250/1/6 251/1/6
f 250/4/6 235/4/6 252/4/6
f 251/1/6 250/1/6 252/1/6
f 234/4/6 251/4/6 253/4/6
f 251/4/6 252/4/6 253/4/6
f 252/4/6 235/4/6 254/4/6
f 253/4/6 252/4/6 254/4/6
f 234/4/6 253/4/6 255/4/6
f 253/1/6 254/1/6 255/1/6
f 254/4/6 235/4/6 256/4/6
f 255/1/6 254/1/6 256/1/6
f 237/1/6 238/1/6 257/1/6
f 238/1/6 234/1/6 258/1/6
f 257/1/6 238/1/6 258/1/6
f 239/3/6 240/3/6 259/3/6
f 235/3/6 239/3/6 259/3/6
f 259/3/6 240/3/6 260/3/6
f 258/1/6 234/1/6 261/1/6
f 234/4/6 255/4/6 262/4/6
f 261/1/6 234/1/6 262/1/6
f 255/4/6 256/4/6 262/4/6
f 256/4/6 235/4/6 263/4/6
f 262/4/6 256/4/6 263/4/6
f 235/3/6 259/3/6 263/3/6
f 263/3/6 259/3/6 264/3/6
