# MagicaVoxel @ Ephtracy

# group
o 

# material
mtllib Spear.mtl
usemtl palette

# normals
vn -1 0 0
vn 1 0 0
vn 0 0 1
vn 0 0 -1
vn 0 -1 0
vn 0 1 0

# texcoords
vt 0.490234 0.5
vt 0.494141 0.5
vt 0.927734 0.5
vt 0.935547 0.5
vt 0.986328 0.5
vt 0.990234 0.5
vt 0.994141 0.5

# verts
v -0.3 0.4 -1.3
v -0.3 0.4 -1.9
v -0.3 0.6 -1.3
v -0.3 0.6 -1.9
v -0.2 0.3 -1.3
v -0.2 0.3 -1.9
v -0.2 0.4 2.2
v -0.2 0.4 -0.3
v -0.2 0.4 -0.4
v -0.2 0.4 -0.8
v -0.2 0.4 -0.9
v -0.2 0.4 -1.1
v -0.2 0.4 -1.2
v -0.2 0.4 -1.3
v -0.2 0.4 -1.9
v -0.2 0.4 -2.2
v -0.2 0.6 2.2
v -0.2 0.6 -0.3
v -0.2 0.6 -0.4
v -0.2 0.6 -0.8
v -0.2 0.6 -0.9
v -0.2 0.6 -1.1
v -0.2 0.6 -1.2
v -0.2 0.6 -1.3
v -0.2 0.6 -1.9
v -0.2 0.6 -2.2
v -0.2 0.7 -1.3
v -0.2 0.7 -1.9
v -0.1 0.2 -1.3
v -0.1 0.2 -1.9
v -0.1 0.3 2.2
v -0.1 0.3 -0.3
v -0.1 0.3 -0.4
v -0.1 0.3 -0.8
v -0.1 0.3 -1.2
v -0.1 0.3 -1.3
v -0.1 0.3 -1.9
v -0.1 0.3 -2.2
v -0.1 0.4 2.3
v -0.1 0.4 2.2
v -0.1 0.4 -0.3
v -0.1 0.4 -0.4
v -0.1 0.4 -0.8
v -0.1 0.4 -0.9
v -0.1 0.4 -1.1
v -0.1 0.4 -1.2
v -0.1 0.4 -1.3
v -0.1 0.4 -1.9
v -0.1 0.4 -2.2
v -0.1 0.4 -2.4
v -0.1 0.6 2.3
v -0.1 0.6 2.2
v -0.1 0.6 -0.3
v -0.1 0.6 -0.4
v -0.1 0.6 -0.8
v -0.1 0.6 -0.9
v -0.1 0.6 -1.1
v -0.1 0.6 -1.2
v -0.1 0.6 -1.3
v -0.1 0.6 -1.9
v -0.1 0.6 -2.2
v -0.1 0.6 -2.4
v -0.1 0.7 2.2
v -0.1 0.7 -0.3
v -0.1 0.7 -0.4
v -0.1 0.7 -0.8
v -0.1 0.7 -1.2
v -0.1 0.7 -1.3
v -0.1 0.7 -1.9
v -0.1 0.7 -2.2
v -0.1 0.8 -1.3
v -0.1 0.8 -1.9
v 0.1 0.4 -0.9
v 0.1 0.4 -1.1
v 0.1 0.6 -0.9
v 0.1 0.6 -1.1
v -0.1 0.4 -0.9
v -0.1 0.4 -1.1
v -0.1 0.6 -0.9
v -0.1 0.6 -1.1
v 0.1 0.2 -1.3
v 0.1 0.2 -1.9
v 0.1 0.3 2.2
v 0.1 0.3 -0.3
v 0.1 0.3 -0.4
v 0.1 0.3 -0.8
v 0.1 0.3 -1.2
v 0.1 0.3 -1.3
v 0.1 0.3 -1.9
v 0.1 0.3 -2.2
v 0.1 0.4 2.3
v 0.1 0.4 2.2
v 0.1 0.4 -0.3
v 0.1 0.4 -0.4
v 0.1 0.4 -0.8
v 0.1 0.4 -0.9
v 0.1 0.4 -1.1
v 0.1 0.4 -1.2
v 0.1 0.4 -1.3
v 0.1 0.4 -1.9
v 0.1 0.4 -2.2
v 0.1 0.4 -2.4
v 0.1 0.6 2.3
v 0.1 0.6 2.2
v 0.1 0.6 -0.3
v 0.1 0.6 -0.4
v 0.1 0.6 -0.8
v 0.1 0.6 -0.9
v 0.1 0.6 -1.1
v 0.1 0.6 -1.2
v 0.1 0.6 -1.3
v 0.1 0.6 -1.9
v 0.1 0.6 -2.2
v 0.1 0.6 -2.4
v 0.1 0.7 2.2
v 0.1 0.7 -0.3
v 0.1 0.7 -0.4
v 0.1 0.7 -0.8
v 0.1 0.7 -1.2
v 0.1 0.7 -1.3
v 0.1 0.7 -1.9
v 0.1 0.7 -2.2
v 0.1 0.8 -1.3
v 0.1 0.8 -1.9
v 0.2 0.3 -1.3
v 0.2 0.3 -1.9
v 0.2 0.4 2.2
v 0.2 0.4 -0.3
v 0.2 0.4 -0.4
v 0.2 0.4 -0.8
v 0.2 0.4 -0.9
v 0.2 0.4 -1.1
v 0.2 0.4 -1.2
v 0.2 0.4 -1.3
v 0.2 0.4 -1.9
v 0.2 0.4 -2.2
v 0.2 0.6 2.2
v 0.2 0.6 -0.3
v 0.2 0.6 -0.4
v 0.2 0.6 -0.8
v 0.2 0.6 -0.9
v 0.2 0.6 -1.1
v 0.2 0.6 -1.2
v 0.2 0.6 -1.3
v 0.2 0.6 -1.9
v 0.2 0.6 -2.2
v 0.2 0.7 -1.3
v 0.2 0.7 -1.9
v 0.3 0.4 -1.3
v 0.3 0.4 -1.9
v 0.3 0.6 -1.3
v 0.3 0.6 -1.9
v -0.1 0.4 2.3
v -0.1 0.6 2.3
v 0.1 0.4 2.3
v 0.1 0.6 2.3
v -0.2 0.4 2.2
v -0.2 0.6 2.2
v -0.1 0.3 2.2
v -0.1 0.4 2.2
v -0.1 0.6 2.2
v -0.1 0.7 2.2
v 0.1 0.3 2.2
v 0.1 0.4 2.2
v 0.1 0.6 2.2
v 0.1 0.7 2.2
v 0.2 0.4 2.2
v 0.2 0.6 2.2
v -0.2 0.4 -0.4
v -0.2 0.6 -0.4
v -0.1 0.3 -0.4
v -0.1 0.4 -0.4
v -0.1 0.6 -0.4
v -0.1 0.7 -0.4
v 0.1 0.3 -0.4
v 0.1 0.4 -0.4
v 0.1 0.6 -0.4
v 0.1 0.7 -0.4
v 0.2 0.4 -0.4
v 0.2 0.6 -0.4
v -0.2 0.4 -0.9
v -0.2 0.6 -0.9
v -0.1 0.4 -0.9
v -0.1 0.6 -0.9
v 0.1 0.4 -0.9
v 0.1 0.6 -0.9
v 0.2 0.4 -0.9
v 0.2 0.6 -0.9
v -0.1 0.4 -1.1
v -0.1 0.6 -1.1
v 0.1 0.4 -1.1
v 0.1 0.6 -1.1
v -0.2 0.4 -1.2
v -0.2 0.6 -1.2
v -0.1 0.3 -1.2
v -0.1 0.4 -1.2
v -0.1 0.6 -1.2
v -0.1 0.7 -1.2
v 0.1 0.3 -1.2
v 0.1 0.4 -1.2
v 0.1 0.6 -1.2
v 0.1 0.7 -1.2
v 0.2 0.4 -1.2
v 0.2 0.6 -1.2
v -0.3 0.4 -1.3
v -0.3 0.6 -1.3
v -0.2 0.3 -1.3
v -0.2 0.4 -1.3
v -0.2 0.6 -1.3
v -0.2 0.7 -1.3
v -0.1 0.2 -1.3
v -0.1 0.3 -1.3
v -0.1 0.4 -1.3
v -0.1 0.6 -1.3
v -0.1 0.7 -1.3
v -0.1 0.8 -1.3
v 0.1 0.2 -1.3
v 0.1 0.3 -1.3
v 0.1 0.4 -1.3
v 0.1 0.6 -1.3
v 0.1 0.7 -1.3
v 0.1 0.8 -1.3
v 0.2 0.3 -1.3
v 0.2 0.4 -1.3
v 0.2 0.6 -1.3
v 0.2 0.7 -1.3
v 0.3 0.4 -1.3
v 0.3 0.6 -1.3
v -0.2 0.4 -0.3
v -0.2 0.6 -0.3
v -0.1 0.3 -0.3
v -0.1 0.4 -0.3
v -0.1 0.6 -0.3
v -0.1 0.7 -0.3
v 0.1 0.3 -0.3
v 0.1 0.4 -0.3
v 0.1 0.6 -0.3
v 0.1 0.7 -0.3
v 0.2 0.4 -0.3
v 0.2 0.6 -0.3
v -0.2 0.4 -0.8
v -0.2 0.6 -0.8
v -0.1 0.3 -0.8
v -0.1 0.4 -0.8
v -0.1 0.6 -0.8
v -0.1 0.7 -0.8
v 0.1 0.3 -0.8
v 0.1 0.4 -0.8
v 0.1 0.6 -0.8
v 0.1 0.7 -0.8
v 0.2 0.4 -0.8
v 0.2 0.6 -0.8
v -0.1 0.4 -0.9
v -0.1 0.6 -0.9
v 0.1 0.4 -0.9
v 0.1 0.6 -0.9
v -0.2 0.4 -1.1
v -0.2 0.6 -1.1
v -0.1 0.4 -1.1
v -0.1 0.6 -1.1
v 0.1 0.4 -1.1
v 0.1 0.6 -1.1
v 0.2 0.4 -1.1
v 0.2 0.6 -1.1
v -0.3 0.4 -1.9
v -0.3 0.6 -1.9
v -0.2 0.3 -1.9
v -0.2 0.4 -1.9
v -0.2 0.6 -1.9
v -0.2 0.7 -1.9
v -0.1 0.2 -1.9
v -0.1 0.3 -1.9
v -0.1 0.4 -1.9
v -0.1 0.6 -1.9
v -0.1 0.7 -1.9
v -0.1 0.8 -1.9
v 0.1 0.2 -1.9
v 0.1 0.3 -1.9
v 0.1 0.4 -1.9
v 0.1 0.6 -1.9
v 0.1 0.7 -1.9
v 0.1 0.8 -1.9
v 0.2 0.3 -1.9
v 0.2 0.4 -1.9
v 0.2 0.6 -1.9
v 0.2 0.7 -1.9
v 0.3 0.4 -1.9
v 0.3 0.6 -1.9
v -0.2 0.4 -2.2
v -0.2 0.6 -2.2
v -0.1 0.3 -2.2
v -0.1 0.4 -2.2
v -0.1 0.6 -2.2
v -0.1 0.7 -2.2
v 0.1 0.3 -2.2
v 0.1 0.4 -2.2
v 0.1 0.6 -2.2
v 0.1 0.7 -2.2
v 0.2 0.4 -2.2
v 0.2 0.6 -2.2
v -0.1 0.4 -2.4
v -0.1 0.6 -2.4
v 0.1 0.4 -2.4
v 0.1 0.6 -2.4
v -0.1 0.2 -1.3
v 0.1 0.2 -1.3
v -0.1 0.2 -1.9
v 0.1 0.2 -1.9
v -0.1 0.3 2.2
v 0.1 0.3 2.2
v -0.1 0.3 -0.3
v 0.1 0.3 -0.3
v -0.1 0.3 -0.4
v 0.1 0.3 -0.4
v -0.1 0.3 -0.8
v 0.1 0.3 -0.8
v -0.1 0.3 -1.2
v 0.1 0.3 -1.2
v -0.2 0.3 -1.3
v -0.1 0.3 -1.3
v 0.1 0.3 -1.3
v 0.2 0.3 -1.3
v -0.2 0.3 -1.9
v -0.1 0.3 -1.9
v 0.1 0.3 -1.9
v 0.2 0.3 -1.9
v -0.1 0.3 -2.2
v 0.1 0.3 -2.2
v -0.1 0.4 2.3
v 0.1 0.4 2.3
v -0.2 0.4 2.2
v -0.1 0.4 2.2
v 0.1 0.4 2.2
v 0.2 0.4 2.2
v -0.2 0.4 -0.3
v -0.1 0.4 -0.3
v 0.1 0.4 -0.3
v 0.2 0.4 -0.3
v -0.2 0.4 -0.4
v -0.1 0.4 -0.4
v 0.1 0.4 -0.4
v 0.2 0.4 -0.4
v -0.2 0.4 -0.8
v -0.1 0.4 -0.8
v 0.1 0.4 -0.8
v 0.2 0.4 -0.8
v -0.2 0.4 -0.9
v -0.1 0.4 -0.9
v 0.1 0.4 -0.9
v 0.2 0.4 -0.9
v -0.2 0.4 -1.1
v -0.1 0.4 -1.1
v 0.1 0.4 -1.1
v 0.2 0.4 -1.1
v -0.2 0.4 -1.2
v -0.1 0.4 -1.2
v 0.1 0.4 -1.2
v 0.2 0.4 -1.2
v -0.3 0.4 -1.3
v -0.2 0.4 -1.3
v -0.1 0.4 -1.3
v 0.1 0.4 -1.3
v 0.2 0.4 -1.3
v 0.3 0.4 -1.3
v -0.3 0.4 -1.9
v -0.2 0.4 -1.9
v -0.1 0.4 -1.9
v 0.1 0.4 -1.9
v 0.2 0.4 -1.9
v 0.3 0.4 -1.9
v -0.2 0.4 -2.2
v -0.1 0.4 -2.2
v 0.1 0.4 -2.2
v 0.2 0.4 -2.2
v -0.1 0.4 -2.4
v 0.1 0.4 -2.4
v -0.1 0.6 2.3
v 0.1 0.6 2.3
v -0.2 0.6 2.2
v -0.1 0.6 2.2
v 0.1 0.6 2.2
v 0.2 0.6 2.2
v -0.2 0.6 -0.3
v -0.1 0.6 -0.3
v 0.1 0.6 -0.3
v 0.2 0.6 -0.3
v -0.2 0.6 -0.4
v -0.1 0.6 -0.4
v 0.1 0.6 -0.4
v 0.2 0.6 -0.4
v -0.2 0.6 -0.8
v -0.1 0.6 -0.8
v 0.1 0.6 -0.8
v 0.2 0.6 -0.8
v -0.2 0.6 -0.9
v -0.1 0.6 -0.9
v 0.1 0.6 -0.9
v 0.2 0.6 -0.9
v -0.2 0.6 -1.1
v -0.1 0.6 -1.1
v 0.1 0.6 -1.1
v 0.2 0.6 -1.1
v -0.2 0.6 -1.2
v -0.1 0.6 -1.2
v 0.1 0.6 -1.2
v 0.2 0.6 -1.2
v -0.3 0.6 -1.3
v -0.2 0.6 -1.3
v -0.1 0.6 -1.3
v 0.1 0.6 -1.3
v 0.2 0.6 -1.3
v 0.3 0.6 -1.3
v -0.3 0.6 -1.9
v -0.2 0.6 -1.9
v -0.1 0.6 -1.9
v 0.1 0.6 -1.9
v 0.2 0.6 -1.9
v 0.3 0.6 -1.9
v -0.2 0.6 -2.2
v -0.1 0.6 -2.2
v 0.1 0.6 -2.2
v 0.2 0.6 -2.2
v -0.1 0.6 -2.4
v 0.1 0.6 -2.4
v -0.1 0.7 2.2
v 0.1 0.7 2.2
v -0.1 0.7 -0.3
v 0.1 0.7 -0.3
v -0.1 0.7 -0.4
v 0.1 0.7 -0.4
v -0.1 0.7 -0.8
v 0.1 0.7 -0.8
v -0.1 0.7 -1.2
v 0.1 0.7 -1.2
v -0.2 0.7 -1.3
v -0.1 0.7 -1.3
v 0.1 0.7 -1.3
v 0.2 0.7 -1.3
v -0.2 0.7 -1.9
v -0.1 0.7 -1.9
v 0.1 0.7 -1.9
v 0.2 0.7 -1.9
v -0.1 0.7 -2.2
v 0.1 0.7 -2.2
v -0.1 0.8 -1.3
v 0.1 0.8 -1.3
v -0.1 0.8 -1.9
v 0.1 0.8 -1.9

# faces
f 3/3/1 2/3/1 1/3/1
f 4/3/1 2/3/1 3/3/1
f 14/3/1 6/3/1 5/3/1
f 15/3/1 6/3/1 14/3/1
f 17/7/1 8/7/1 7/7/1
f 18/7/1 8/7/1 17/7/1
f 19/1/1 10/1/1 9/1/1
f 20/1/1 10/1/1 19/1/1
f 21/4/1 12/4/1 11/4/1
f 22/4/1 12/4/1 21/4/1
f 23/3/1 14/3/1 13/3/1
f 24/3/1 14/3/1 23/3/1
f 25/3/1 16/3/1 15/3/1
f 26/3/1 16/3/1 25/3/1
f 27/3/1 25/3/1 24/3/1
f 28/3/1 25/3/1 27/3/1
f 36/3/1 30/3/1 29/3/1
f 37/3/1 30/3/1 36/3/1
f 40/6/1 32/6/1 31/6/1
f 41/6/1 32/6/1 40/6/1
f 42/2/1 34/2/1 33/2/1
f 43/2/1 34/2/1 42/2/1
f 46/3/1 36/3/1 35/3/1
f 47/3/1 36/3/1 46/3/1
f 48/3/1 38/3/1 37/3/1
f 49/3/1 38/3/1 48/3/1
f 51/7/1 40/7/1 39/7/1
f 52/7/1 40/7/1 51/7/1
f 53/7/1 42/7/1 41/7/1
f 54/7/1 42/7/1 53/7/1
f 55/4/1 44/4/1 43/4/1
f 56/4/1 44/4/1 55/4/1
f 57/4/1 46/4/1 45/4/1
f 58/4/1 46/4/1 57/4/1
f 61/3/1 50/3/1 49/3/1
f 62/3/1 50/3/1 61/3/1
f 63/6/1 53/6/1 52/6/1
f 64/6/1 53/6/1 63/6/1
f 65/2/1 55/2/1 54/2/1
f 66/2/1 55/2/1 65/2/1
f 67/3/1 59/3/1 58/3/1
f 68/3/1 59/3/1 67/3/1
f 69/3/1 61/3/1 60/3/1
f 70/3/1 61/3/1 69/3/1
f 71/3/1 69/3/1 68/3/1
f 72/3/1 69/3/1 71/3/1
f 75/4/1 74/4/1 73/4/1
f 76/4/1 74/4/1 75/4/1
f 77/4/2 78/4/2 79/4/2
f 79/4/2 78/4/2 80/4/2
f 81/3/2 82/3/2 88/3/2
f 88/3/2 82/3/2 89/3/2
f 83/6/2 84/6/2 92/6/2
f 92/6/2 84/6/2 93/6/2
f 85/2/2 86/2/2 94/2/2
f 94/2/2 86/2/2 95/2/2
f 87/3/2 88/3/2 98/3/2
f 98/3/2 88/3/2 99/3/2
f 89/3/2 90/3/2 100/3/2
f 100/3/2 90/3/2 101/3/2
f 91/7/2 92/7/2 103/7/2
f 103/7/2 92/7/2 104/7/2
f 93/7/2 94/7/2 105/7/2
f 105/7/2 94/7/2 106/7/2
f 95/4/2 96/4/2 107/4/2
f 107/4/2 96/4/2 108/4/2
f 97/4/2 98/4/2 109/4/2
f 109/4/2 98/4/2 110/4/2
f 101/3/2 102/3/2 113/3/2
f 113/3/2 102/3/2 114/3/2
f 104/6/2 105/6/2 115/6/2
f 115/6/2 105/6/2 116/6/2
f 106/2/2 107/2/2 117/2/2
f 117/2/2 107/2/2 118/2/2
f 110/3/2 111/3/2 119/3/2
f 119/3/2 111/3/2 120/3/2
f 112/3/2 113/3/2 121/3/2
f 121/3/2 113/3/2 122/3/2
f 120/3/2 121/3/2 123/3/2
f 123/3/2 121/3/2 124/3/2
f 125/3/2 126/3/2 134/3/2
f 134/3/2 126/3/2 135/3/2
f 127/7/2 128/7/2 137/7/2
f 137/7/2 128/7/2 138/7/2
f 129/1/2 130/1/2 139/1/2
f 139/1/2 130/1/2 140/1/2
f 131/4/2 132/4/2 141/4/2
f 141/4/2 132/4/2 142/4/2
f 133/3/2 134/3/2 143/3/2
f 143/3/2 134/3/2 144/3/2
f 135/3/2 136/3/2 145/3/2
f 145/3/2 136/3/2 146/3/2
f 144/3/2 145/3/2 147/3/2
f 147/3/2 145/3/2 148/3/2
f 149/3/2 150/3/2 151/3/2
f 151/3/2 150/3/2 152/3/2
f 155/7/3 154/7/3 153/7/3
f 156/7/3 154/7/3 155/7/3
f 160/7/3 158/7/3 157/7/3
f 161/7/3 158/7/3 160/7/3
f 163/6/3 160/6/3 159/6/3
f 164/6/3 160/6/3 163/6/3
f 165/6/3 162/6/3 161/6/3
f 166/6/3 162/6/3 165/6/3
f 167/7/3 165/7/3 164/7/3
f 168/7/3 165/7/3 167/7/3
f 172/1/3 170/1/3 169/1/3
f 173/1/3 170/1/3 172/1/3
f 175/2/3 172/2/3 171/2/3
f 176/2/3 172/2/3 175/2/3
f 177/2/3 174/2/3 173/2/3
f 178/2/3 174/2/3 177/2/3
f 179/1/3 177/1/3 176/1/3
f 180/1/3 177/1/3 179/1/3
f 183/4/3 182/4/3 181/4/3
f 184/4/3 182/4/3 183/4/3
f 187/4/3 186/4/3 185/4/3
f 188/4/3 186/4/3 187/4/3
f 191/4/3 190/4/3 189/4/3
f 192/4/3 190/4/3 191/4/3
f 196/3/3 194/3/3 193/3/3
f 197/3/3 194/3/3 196/3/3
f 199/3/3 196/3/3 195/3/3
f 200/3/3 196/3/3 199/3/3
f 201/3/3 198/3/3 197/3/3
f 202/3/3 198/3/3 201/3/3
f 203/3/3 201/3/3 200/3/3
f 204/3/3 201/3/3 203/3/3
f 208/3/3 206/3/3 205/3/3
f 209/3/3 206/3/3 208/3/3
f 212/3/3 208/3/3 207/3/3
f 213/3/3 208/3/3 212/3/3
f 214/3/3 210/3/3 209/3/3
f 215/3/3 210/3/3 214/3/3
f 217/3/3 212/3/3 211/3/3
f 218/3/3 212/3/3 217/3/3
f 221/3/3 216/3/3 215/3/3
f 222/3/3 216/3/3 221/3/3
f 223/3/3 219/3/3 218/3/3
f 224/3/3 219/3/3 223/3/3
f 225/3/3 221/3/3 220/3/3
f 226/3/3 221/3/3 225/3/3
f 227/3/3 225/3/3 224/3/3
f 228/3/3 225/3/3 227/3/3
f 229/7/4 230/7/4 232/7/4
f 232/7/4 230/7/4 233/7/4
f 231/6/4 232/6/4 235/6/4
f 235/6/4 232/6/4 236/6/4
f 233/6/4 234/6/4 237/6/4
f 237/6/4 234/6/4 238/6/4
f 236/7/4 237/7/4 239/7/4
f 239/7/4 237/7/4 240/7/4
f 241/1/4 242/1/4 244/1/4
f 244/1/4 242/1/4 245/1/4
f 243/2/4 244/2/4 247/2/4
f 247/2/4 244/2/4 248/2/4
f 245/2/4 246/2/4 249/2/4
f 249/2/4 246/2/4 250/2/4
f 248/1/4 249/1/4 251/1/4
f 251/1/4 249/1/4 252/1/4
f 253/4/4 254/4/4 255/4/4
f 255/4/4 254/4/4 256/4/4
f 257/4/4 258/4/4 259/4/4
f 259/4/4 258/4/4 260/4/4
f 261/4/4 262/4/4 263/4/4
f 263/4/4 262/4/4 264/4/4
f 265/3/4 266/3/4 268/3/4
f 268/3/4 266/3/4 269/3/4
f 267/3/4 268/3/4 272/3/4
f 272/3/4 268/3/4 273/3/4
f 269/3/4 270/3/4 274/3/4
f 274/3/4 270/3/4 275/3/4
f 271/3/4 272/3/4 277/3/4
f 277/3/4 272/3/4 278/3/4
f 275/3/4 276/3/4 281/3/4
f 281/3/4 276/3/4 282/3/4
f 278/3/4 279/3/4 283/3/4
f 283/3/4 279/3/4 284/3/4
f 280/3/4 281/3/4 285/3/4
f 285/3/4 281/3/4 286/3/4
f 284/3/4 285/3/4 287/3/4
f 287/3/4 285/3/4 288/3/4
f 289/3/4 290/3/4 292/3/4
f 292/3/4 290/3/4 293/3/4
f 291/3/4 292/3/4 295/3/4
f 295/3/4 292/3/4 296/3/4
f 293/3/4 294/3/4 297/3/4
f 297/3/4 294/3/4 298/3/4
f 296/3/4 297/3/4 299/3/4
f 299/3/4 297/3/4 300/3/4
f 301/3/4 302/3/4 303/3/4
f 303/3/4 302/3/4 304/3/4
f 307/3/5 306/3/5 305/3/5
f 308/3/5 306/3/5 307/3/5
f 311/6/5 310/6/5 309/6/5
f 312/6/5 310/6/5 311/6/5
f 315/2/5 314/2/5 313/2/5
f 316/2/5 314/2/5 315/2/5
f 320/3/5 318/3/5 317/3/5
f 321/3/5 318/3/5 320/3/5
f 323/3/5 320/3/5 319/3/5
f 324/3/5 320/3/5 323/3/5
f 325/3/5 322/3/5 321/3/5
f 326/3/5 322/3/5 325/3/5
f 327/3/5 325/3/5 324/3/5
f 328/3/5 325/3/5 327/3/5
f 332/7/5 330/7/5 329/7/5
f 333/7/5 330/7/5 332/7/5
f 335/7/5 332/7/5 331/7/5
f 336/7/5 332/7/5 335/7/5
f 337/7/5 334/7/5 333/7/5
f 338/7/5 334/7/5 337/7/5
f 340/7/5 337/7/5 336/7/5
f 341/7/5 337/7/5 340/7/5
f 343/1/5 340/1/5 339/1/5
f 344/1/5 340/1/5 343/1/5
f 345/1/5 342/1/5 341/1/5
f 346/1/5 342/1/5 345/1/5
f 348/4/5 345/4/5 344/4/5
f 349/4/5 345/4/5 348/4/5
f 351/4/5 348/4/5 347/4/5
f 352/4/5 348/4/5 351/4/5
f 353/4/5 350/4/5 349/4/5
f 354/4/5 350/4/5 353/4/5
f 356/4/5 353/4/5 352/4/5
f 357/4/5 353/4/5 356/4/5
f 360/3/5 356/3/5 355/3/5
f 361/3/5 356/3/5 360/3/5
f 362/3/5 358/3/5 357/3/5
f 363/3/5 358/3/5 362/3/5
f 365/3/5 360/3/5 359/3/5
f 366/3/5 360/3/5 365/3/5
f 369/3/5 364/3/5 363/3/5
f 370/3/5 364/3/5 369/3/5
f 371/3/5 367/3/5 366/3/5
f 372/3/5 367/3/5 371/3/5
f 373/3/5 369/3/5 368/3/5
f 374/3/5 369/3/5 373/3/5
f 375/3/5 373/3/5 372/3/5
f 376/3/5 373/3/5 375/3/5
f 377/7/6 378/7/6 380/7/6
f 380/7/6 378/7/6 381/7/6
f 379/7/6 380/7/6 383/7/6
f 383/7/6 380/7/6 384/7/6
f 381/7/6 382/7/6 385/7/6
f 385/7/6 382/7/6 386/7/6
f 384/7/6 385/7/6 388/7/6
f 388/7/6 385/7/6 389/7/6
f 387/1/6 388/1/6 391/1/6
f 391/1/6 388/1/6 392/1/6
f 389/1/6 390/1/6 393/1/6
f 393/1/6 390/1/6 394/1/6
f 392/4/6 393/4/6 396/4/6
f 396/4/6 393/4/6 397/4/6
f 395/4/6 396/4/6 399/4/6
f 399/4/6 396/4/6 400/4/6
f 397/4/6 398/4/6 401/4/6
f 401/4/6 398/4/6 402/4/6
f 400/4/6 401/4/6 404/4/6
f 404/4/6 401/4/6 405/4/6
f 403/3/6 404/3/6 408/3/6
f 408/3/6 404/3/6 409/3/6
f 405/3/6 406/3/6 410/3/6
f 410/3/6 406/3/6 411/3/6
f 407/3/6 408/3/6 413/3/6
f 413/3/6 408/3/6 414/3/6
f 411/3/6 412/3/6 417/3/6
f 417/3/6 412/3/6 418/3/6
f 414/3/6 415/3/6 419/3/6
f 419/3/6 415/3/6 420/3/6
f 416/3/6 417/3/6 421/3/6
f 421/3/6 417/3/6 422/3/6
f 420/3/6 421/3/6 423/3/6
f 423/3/6 421/3/6 424/3/6
f 425/6/6 426/6/6 427/6/6
f 427/6/6 426/6/6 428/6/6
f 429/2/6 430/2/6 431/2/6
f 431/2/6 430/2/6 432/2/6
f 433/3/6 434/3/6 436/3/6
f 436/3/6 434/3/6 437/3/6
f 435/3/6 436/3/6 439/3/6
f 439/3/6 436/3/6 440/3/6
f 437/3/6 438/3/6 441/3/6
f 441/3/6 438/3/6 442/3/6
f 440/3/6 441/3/6 443/3/6
f 443/3/6 441/3/6 444/3/6
f 445/3/6 446/3/6 447/3/6
f 447/3/6 446/3/6 448/3/6
