# Blender 5.0.1
# www.blender.org
mtllib Shotgun.mtl
o Untitled.001
v -0.930722 0.845998 0.756858
v -0.010231 0.197793 -2.662576
v -1.110933 1.184838 0.644114
v -0.190442 0.536634 -2.775320
v -0.757195 0.520397 2.339221
v -0.654919 0.448374 1.959284
v -0.745024 0.617794 1.902912
v -0.693886 0.581783 1.712943
v -0.937407 0.859237 2.226477
v -0.886268 0.823226 2.036508
v -0.783991 0.751203 1.656571
v -0.732853 0.715191 1.466603
v -0.976374 0.992646 1.980136
v -0.925235 0.956634 1.790168
v -0.822959 0.884612 1.410231
v -0.771820 0.848600 1.220262
v -0.669544 0.776578 0.840325
v 0.250948 0.128373 -2.579109
v -1.015341 1.126055 1.733796
v -0.964203 1.090043 1.543827
v -0.861926 1.018020 1.163890
v -0.759649 0.945998 0.783953
v 0.160842 0.297793 -2.635480
v -1.054308 1.259463 1.487455
v -0.900893 1.151429 0.917550
v -0.990999 1.320849 0.861178
v -0.939860 1.284838 0.671209
v -0.019369 0.636634 -2.748224
v -1.029966 1.454258 0.614837
v -0.109475 0.806054 -2.804596
v -0.496017 0.450977 2.422688
v -0.393741 0.378954 2.042751
v -0.637261 0.656408 2.556284
v -0.586123 0.620397 2.366316
v -0.483846 0.548374 1.986379
v -0.432708 0.512363 1.796410
v -0.573952 0.717794 1.930007
v -0.522813 0.681783 1.740038
v -0.471675 0.645771 1.550070
v -0.062568 0.357681 0.030322
v 0.039709 0.285658 -0.349616
v -0.817472 0.995248 2.443541
v -0.766334 0.959237 2.253572
v -0.715196 0.923226 2.063604
v -0.612919 0.851203 1.683666
v -0.561780 0.815192 1.493698
v -0.306088 0.635135 0.543855
v -0.152673 0.527101 -0.026050
v -0.050396 0.455078 -0.405987
v 0.051880 0.383055 -0.785925
v -0.856440 1.128657 2.197200
v -0.805301 1.092646 2.007231
v -0.754163 1.056634 1.817263
v -0.651886 0.984612 1.437326
v -0.600748 0.948600 1.247357
v -0.498471 0.876578 0.867420
v -0.396194 0.804555 0.487483
v -0.038225 0.552475 -0.842297
v -0.895407 1.262066 1.950860
v -0.844268 1.226055 1.760891
v -0.793130 1.190043 1.570922
v -0.690853 1.118020 1.190985
v -0.588576 1.045998 0.811048
v -0.934374 1.395475 1.704519
v -0.883236 1.359463 1.514550
v -0.729820 1.251429 0.944645
v -0.973341 1.528883 1.458179
v -0.819926 1.420849 0.888273
v -0.195872 0.248148 2.752496
v -0.093595 0.176125 2.372559
v -0.183701 0.345545 2.316187
v -0.132562 0.309534 2.126218
v -0.427221 0.622999 2.829720
v -0.376083 0.586988 2.639752
v -0.324945 0.550977 2.449783
v -0.222668 0.478954 2.069846
v -0.171529 0.442942 1.879878
v -0.120391 0.406931 1.689909
v -0.018114 0.334908 1.309972
v -0.466189 0.756408 2.583380
v -0.415050 0.720397 2.393411
v -0.312773 0.648374 2.013474
v -0.261635 0.612363 1.823506
v -0.210497 0.576351 1.633537
v -0.108220 0.504329 1.253600
v -0.057081 0.468317 1.063632
v -0.351741 0.781783 1.767134
v -0.300602 0.745771 1.577165
v -0.198325 0.673749 1.197228
v -0.147187 0.637737 1.007260
v -0.044910 0.565715 0.627322
v 0.108505 0.457681 0.057417
v -0.697538 1.131260 2.660604
v -0.646400 1.095248 2.470636
v -0.595261 1.059237 2.280667
v -0.237293 0.807157 0.950888
v -0.135016 0.735135 0.570951
v 0.018399 0.627101 0.001045
v -0.736505 1.264668 2.414264
v -0.685367 1.228657 2.224295
v 0.400711 0.569816 -2.201353
v 0.502987 0.497793 -2.581290
v 0.220499 0.908656 -2.314097
v 0.322776 0.836634 -2.694034
v 0.501789 0.621669 -0.078361
v 0.552927 0.585658 -0.268330
v 0.411683 0.791089 -0.134733
v 0.462821 0.755078 -0.324702
v 0.513960 0.719067 -0.514670
v 0.565098 0.683055 -0.704639
v 0.423854 0.888487 -0.571042
v 0.474993 0.852475 -0.761011
v 0.526131 0.816464 -0.950979
v 0.935238 0.528373 -2.470728
v 0.436025 0.985884 -1.007351
v 0.845133 0.697793 -2.527100
v -0.267741 1.587441 1.215899
v -0.165464 1.515418 0.835962
v -0.357846 1.756861 1.159527
v -0.255570 1.684838 0.779590
v 0.664921 1.036634 -2.639843
v -0.345675 1.854258 0.723218
v 0.574816 1.206054 -2.696216
v 1.085001 0.969816 -2.092972
v 1.187278 0.897793 -2.472909
v 0.904790 1.308656 -2.205716
v 1.007067 1.236634 -2.585653
v 0.058565 0.369816 -2.255544
v 0.160842 0.297793 -2.635480
v -0.121646 0.708656 -2.368288
v -0.019369 0.636634 -2.748224
v 0.159643 0.421669 -0.132552
v 0.210782 0.385658 -0.322520
v 0.069538 0.591089 -0.188924
v 0.120676 0.555078 -0.378892
v 0.171815 0.519067 -0.568861
v 0.222953 0.483055 -0.758829
v 0.081709 0.688487 -0.625233
v 0.132847 0.652475 -0.815201
v 0.183986 0.616464 -1.005170
v 0.593093 0.328373 -2.524918
v 0.093880 0.785884 -1.061542
v 0.502987 0.497793 -2.581290
v -0.609886 1.387441 1.161709
v -0.507609 1.315418 0.781772
v -0.699992 1.556861 1.105337
v -0.597715 1.484838 0.725400
v 0.322776 0.836634 -2.694034
v -0.687821 1.654258 0.669028
v 0.232671 1.006054 -2.750406
v 0.146274 0.448148 2.806686
v 0.248550 0.376125 2.426749
v 0.158445 0.545545 2.370377
v 0.209583 0.509534 2.180409
v -0.085076 0.822999 2.883911
v -0.033938 0.786988 2.693942
v 0.017201 0.750977 2.503974
v 0.119478 0.678954 2.124037
v 0.170616 0.642942 1.934068
v 0.221754 0.606931 1.744100
v 0.324031 0.534908 1.364162
v -0.124043 0.956408 2.637570
v -0.072905 0.920397 2.447602
v 0.029372 0.848374 2.067665
v 0.080510 0.812363 1.877696
v 0.131649 0.776351 1.687728
v 0.233925 0.704329 1.307791
v 0.285064 0.668317 1.117822
v -0.009595 0.981783 1.821324
v 0.041543 0.945771 1.631356
v 0.143820 0.873749 1.251419
v 0.194958 0.837737 1.061450
v 0.297235 0.765715 0.681513
v 0.450650 0.657681 0.111607
v -0.355393 1.331260 2.714795
v -0.304254 1.295248 2.524826
v -0.253116 1.259237 2.334858
v 0.104853 1.007157 1.005078
v 0.207129 0.935135 0.625141
v 0.360545 0.827101 0.055235
v -0.394360 1.464668 2.468454
v -0.343222 1.428657 2.278486
v 0.742856 0.769816 -2.147163
v 0.845133 0.697793 -2.527100
v 0.562645 1.108656 -2.259907
v 0.664921 1.036634 -2.639843
v 0.188273 0.850977 2.531069
v 0.290550 0.778954 2.151132
v 0.047029 1.056408 2.664665
v 0.098168 1.020397 2.474697
v 0.200445 0.948374 2.094760
v 0.251583 0.912363 1.904791
v 0.110339 1.117794 2.038388
v 0.161477 1.081783 1.848419
v 0.212616 1.045771 1.658451
v 0.621723 0.757681 0.138703
v 0.724000 0.685658 -0.241235
v -0.133182 1.395248 2.551921
v -0.082043 1.359237 2.361953
v -0.030905 1.323226 2.171984
v 0.071372 1.251203 1.792047
v 0.122510 1.215191 1.602079
v 0.378202 1.035135 0.652236
v 0.531617 0.927101 0.082331
v 0.633894 0.855078 -0.297607
v 0.736171 0.783055 -0.677544
v -0.172149 1.528657 2.305581
v -0.121011 1.492646 2.115613
v -0.069872 1.456634 1.925644
v 0.032405 1.384612 1.545707
v 0.083543 1.348600 1.355738
v 0.185820 1.276578 0.975801
v 0.288097 1.204555 0.595864
v 0.646065 0.952475 -0.733916
v -0.211116 1.662066 2.059241
v -0.159978 1.626055 1.869272
v -0.108839 1.590043 1.679303
v -0.006563 1.518021 1.299366
v 0.095714 1.445998 0.919429
v -0.250083 1.795475 1.812900
v -0.198945 1.759463 1.622931
v -0.045530 1.651429 1.053026
v -0.289051 1.928883 1.566560
v -0.135635 1.820849 0.996654
v 0.269240 1.120397 2.501792
v 0.371517 1.048374 2.121855
v 0.281412 1.217794 2.065483
v 0.332550 1.181783 1.875515
v 0.089029 1.459237 2.389048
v 0.140168 1.423226 2.199080
v 0.242444 1.351203 1.819143
v 0.293583 1.315192 1.629174
v 0.050062 1.592646 2.142708
v 0.101200 1.556634 1.952739
v 0.203477 1.484612 1.572802
v 0.254616 1.448600 1.382833
v 0.356892 1.376578 1.002897
v 1.277383 0.728373 -2.416537
v 0.011095 1.726054 1.896367
v 0.062233 1.690043 1.706399
v 0.164510 1.618020 1.326462
v 0.266787 1.545998 0.946525
v 1.187278 0.897793 -2.472909
v -0.027872 1.859463 1.650027
v 0.125543 1.751429 1.080121
v 0.035437 1.920849 1.023749
v 0.086576 1.884838 0.833781
v 1.007067 1.236634 -2.585653
v -0.003530 2.054258 0.777409
v 0.916961 1.406054 -2.642025
v 0.437859 1.645998 0.973620
v 1.358351 0.997793 -2.445814
v 0.257648 1.984838 0.860876
v 1.178139 1.336634 -2.558558
v -0.427221 0.622999 2.829720
v -0.697538 1.131260 2.660604
v -0.085076 0.822999 2.883911
v -0.355393 1.331260 2.714795
v -0.637261 0.656408 2.556284
v -0.817472 0.995248 2.443541
v -0.195872 0.248148 2.752496
v -0.376083 0.586988 2.639752
v -0.466189 0.756408 2.583380
v -0.646400 1.095248 2.470636
v -0.736505 1.264668 2.414264
v 0.146274 0.448148 2.806686
v -0.033938 0.786988 2.693942
v -0.124043 0.956408 2.637570
v -0.304254 1.295248 2.524826
v -0.394360 1.464668 2.468454
v 0.047029 1.056408 2.664665
v -0.133182 1.395248 2.551921
v -0.757195 0.520397 2.339221
v -0.937407 0.859237 2.226477
v -0.496017 0.450977 2.422688
v -0.586123 0.620397 2.366316
v -0.766334 0.959237 2.253572
v -0.856440 1.128657 2.197200
v -0.324945 0.550977 2.449783
v -0.415050 0.720397 2.393411
v -0.595261 1.059237 2.280667
v -0.685367 1.228657 2.224295
v 0.017201 0.750977 2.503974
v -0.072905 0.920397 2.447602
v -0.253116 1.259237 2.334858
v -0.343222 1.428657 2.278486
v 0.188273 0.850977 2.531069
v 0.098168 1.020397 2.474697
v -0.082043 1.359237 2.361953
v -0.172149 1.528657 2.305581
v 0.269240 1.120397 2.501792
v 0.089029 1.459237 2.389048
v -0.886268 0.823226 2.036508
v -0.976374 0.992646 1.980136
v -0.715196 0.923226 2.063604
v -0.805301 1.092646 2.007231
v -0.895407 1.262066 1.950860
v -0.030905 1.323226 2.171984
v -0.121011 1.492646 2.115613
v -0.211116 1.662066 2.059241
v 0.140168 1.423226 2.199080
v 0.050062 1.592646 2.142708
v -0.925235 0.956634 1.790168
v -1.015341 1.126055 1.733796
v -0.754163 1.056634 1.817263
v -0.844268 1.226055 1.760891
v -0.934374 1.395475 1.704519
v -0.069872 1.456634 1.925644
v -0.159978 1.626055 1.869272
v -0.250083 1.795475 1.812900
v 0.101200 1.556634 1.952739
v 0.011095 1.726054 1.896367
v -0.964203 1.090043 1.543827
v -1.054308 1.259463 1.487455
v -0.793130 1.190043 1.570922
v -0.883236 1.359463 1.514550
v -0.973341 1.528883 1.458179
v -0.108839 1.590043 1.679303
v -0.198945 1.759463 1.622931
v -0.289051 1.928883 1.566560
v 0.062233 1.690043 1.706399
v -0.027872 1.859463 1.650027
v -0.120391 0.406931 1.689909
v -0.210497 0.576351 1.633537
v 0.221754 0.606931 1.744100
v 0.131649 0.776351 1.687728
v -0.900893 1.151429 0.917550
v -0.990999 1.320849 0.861178
v -0.729820 1.251429 0.944645
v -0.819926 1.420849 0.888273
v -0.108220 0.504329 1.253600
v -0.198325 0.673749 1.197228
v 0.233925 0.704329 1.307791
v 0.143820 0.873749 1.251419
v -0.045530 1.651429 1.053026
v -0.135635 1.820849 0.996654
v 0.125543 1.751429 1.080121
v 0.035437 1.920849 1.023749
v -0.930722 0.845998 0.756858
v -1.110933 1.184838 0.644114
v -0.669544 0.776578 0.840325
v -0.759649 0.945998 0.783953
v -0.939860 1.284838 0.671209
v -1.029966 1.454258 0.614837
v -0.498471 0.876578 0.867420
v -0.588576 1.045998 0.811048
v -0.147187 0.637737 1.007260
v -0.237293 0.807157 0.950888
v -0.507609 1.315418 0.781772
v -0.597715 1.484838 0.725400
v -0.687821 1.654258 0.669028
v -0.336537 1.415418 0.808867
v -0.426642 1.584838 0.752495
v 0.194958 0.837737 1.061450
v 0.104853 1.007157 1.005078
v -0.165464 1.515418 0.835962
v -0.255570 1.684838 0.779590
v -0.345675 1.854258 0.723218
v 0.185820 1.276578 0.975801
v 0.095714 1.445998 0.919429
v 0.356892 1.376578 1.002897
v 0.266787 1.545998 0.946525
v 0.086576 1.884838 0.833781
v -0.003530 2.054258 0.777409
v 0.437859 1.645998 0.973620
v 0.257648 1.984838 0.860876
v -0.062568 0.357681 0.030322
v -0.152673 0.527101 -0.026050
v 0.108505 0.457681 0.057417
v 0.018399 0.627101 0.001045
v 0.450650 0.657681 0.111607
v 0.360545 0.827101 0.055235
v 0.621723 0.757681 0.138703
v 0.531617 0.927101 0.082331
v -0.093595 0.176125 2.372559
v -0.183701 0.345545 2.316187
v 0.248550 0.376125 2.426749
v 0.158445 0.545545 2.370377
v -0.654919 0.448374 1.959284
v -0.745024 0.617794 1.902912
v -0.393741 0.378954 2.042751
v -0.483846 0.548374 1.986379
v -0.573952 0.717794 1.930007
v -0.132562 0.309534 2.126218
v -0.222668 0.478954 2.069846
v -0.312773 0.648374 2.013474
v 0.209583 0.509534 2.180409
v 0.119478 0.678954 2.124037
v 0.029372 0.848374 2.067665
v 0.290550 0.778954 2.151132
v 0.200445 0.948374 2.094760
v 0.110339 1.117794 2.038388
v 0.371517 1.048374 2.121855
v 0.281412 1.217794 2.065483
v -0.693886 0.581783 1.712943
v -0.783991 0.751203 1.656571
v -0.432708 0.512363 1.796410
v -0.522813 0.681783 1.740038
v -0.612919 0.851203 1.683666
v -0.171529 0.442942 1.879878
v -0.261635 0.612363 1.823506
v -0.351741 0.781783 1.767134
v 0.170616 0.642942 1.934068
v 0.080510 0.812363 1.877696
v -0.009595 0.981783 1.821324
v 0.251583 0.912363 1.904791
v 0.161477 1.081783 1.848419
v 0.071372 1.251203 1.792047
v 0.332550 1.181783 1.875515
v 0.242444 1.351203 1.819143
v -0.732853 0.715191 1.466603
v -0.822959 0.884612 1.410231
v -0.471675 0.645771 1.550070
v -0.561780 0.815192 1.493698
v -0.651886 0.984612 1.437326
v -0.210497 0.576351 1.633537
v -0.300602 0.745771 1.577165
v 0.131649 0.776351 1.687728
v 0.041543 0.945771 1.631356
v 0.212616 1.045771 1.658451
v 0.122510 1.215191 1.602079
v 0.032405 1.384612 1.545707
v 0.293583 1.315192 1.629174
v 0.203477 1.484612 1.572802
v -0.771820 0.848600 1.220262
v -0.861926 1.018020 1.163890
v -0.600748 0.948600 1.247357
v -0.690853 1.118020 1.190985
v -0.609886 1.387441 1.161709
v -0.699992 1.556861 1.105337
v -0.267741 1.587441 1.215899
v -0.357846 1.756861 1.159527
v 0.083543 1.348600 1.355738
v -0.006563 1.518021 1.299366
v 0.254616 1.448600 1.382833
v 0.164510 1.618020 1.326462
v -0.018114 0.334908 1.309972
v -0.108220 0.504329 1.253600
v 0.324031 0.534908 1.364162
v 0.233925 0.704329 1.307791
v -0.057081 0.468317 1.063632
v -0.147187 0.637737 1.007260
v 0.285064 0.668317 1.117822
v 0.194958 0.837737 1.061450
v 0.159643 0.421669 -0.132552
v 0.069538 0.591089 -0.188924
v 0.501789 0.621669 -0.078361
v 0.411683 0.791089 -0.134733
v 0.039709 0.285658 -0.349616
v -0.050396 0.455078 -0.405987
v 0.210782 0.385658 -0.322520
v 0.120676 0.555078 -0.378892
v 0.552927 0.585658 -0.268330
v 0.462821 0.755078 -0.324702
v 0.724000 0.685658 -0.241235
v 0.633894 0.855078 -0.297607
v 0.171815 0.519067 -0.568861
v 0.081709 0.688487 -0.625233
v 0.513960 0.719067 -0.514670
v 0.423854 0.888487 -0.571042
v 0.051880 0.383055 -0.785925
v -0.038225 0.552475 -0.842297
v 0.222953 0.483055 -0.758829
v 0.132847 0.652475 -0.815201
v 0.565098 0.683055 -0.704639
v 0.474993 0.852475 -0.761011
v 0.736171 0.783055 -0.677544
v 0.646065 0.952475 -0.733916
v 0.183986 0.616464 -1.005170
v 0.093880 0.785884 -1.061542
v 0.264953 0.885884 -1.034446
v 0.526131 0.816464 -0.950979
v 0.436025 0.985884 -1.007351
v 0.058565 0.369816 -2.255544
v -0.121646 0.708656 -2.368288
v 0.400711 0.569816 -2.201353
v 0.220499 0.908656 -2.314097
v 0.742856 0.769816 -2.147163
v 0.562645 1.108656 -2.259907
v 1.085001 0.969816 -2.092972
v 0.904790 1.308656 -2.205716
v -0.010231 0.197793 -2.662576
v -0.190442 0.536634 -2.775320
v 0.250948 0.128373 -2.579109
v 0.160842 0.297793 -2.635480
v -0.019369 0.636634 -2.748224
v -0.109475 0.806054 -2.804596
v 0.593093 0.328373 -2.524918
v 0.502987 0.497793 -2.581290
v 0.322776 0.836634 -2.694034
v 0.232671 1.006054 -2.750406
v 0.674060 0.597793 -2.554195
v 0.493849 0.936634 -2.666939
v 0.935238 0.528373 -2.470728
v 0.845133 0.697793 -2.527100
v 0.664921 1.036634 -2.639843
v 0.574816 1.206054 -2.696216
v 1.277383 0.728373 -2.416537
v 1.187278 0.897793 -2.472909
v 1.007067 1.236634 -2.585653
v 0.916961 1.406054 -2.642025
v 1.358351 0.997793 -2.445814
v 1.178139 1.336634 -2.558558
v -0.195872 0.248148 2.752496
v 0.146274 0.448148 2.806686
v -0.093595 0.176125 2.372559
v 0.248550 0.376125 2.426749
v -0.183701 0.345545 2.316187
v 0.158445 0.545545 2.370377
v -0.132562 0.309534 2.126218
v 0.209583 0.509534 2.180409
v -0.427221 0.622999 2.829720
v -0.085076 0.822999 2.883911
v -0.376083 0.586988 2.639752
v -0.033938 0.786988 2.693942
v -0.496017 0.450977 2.422688
v -0.324945 0.550977 2.449783
v 0.017201 0.750977 2.503974
v 0.188273 0.850977 2.531069
v -0.393741 0.378954 2.042751
v -0.222668 0.478954 2.069846
v 0.119478 0.678954 2.124037
v 0.290550 0.778954 2.151132
v -0.171529 0.442942 1.879878
v 0.170616 0.642942 1.934068
v -0.120391 0.406931 1.689909
v 0.221754 0.606931 1.744100
v -0.018114 0.334908 1.309972
v 0.324031 0.534908 1.364162
v -0.637261 0.656408 2.556284
v -0.466189 0.756408 2.583380
v -0.124043 0.956408 2.637570
v 0.047029 1.056408 2.664665
v -0.757195 0.520397 2.339221
v -0.586123 0.620397 2.366316
v -0.415050 0.720397 2.393411
v -0.072905 0.920397 2.447602
v 0.098168 1.020397 2.474697
v 0.269240 1.120397 2.501792
v -0.654919 0.448374 1.959284
v -0.483846 0.548374 1.986379
v -0.312773 0.648374 2.013474
v 0.029372 0.848374 2.067665
v 0.200445 0.948374 2.094760
v 0.371517 1.048374 2.121855
v -0.432708 0.512363 1.796410
v -0.261635 0.612363 1.823506
v 0.080510 0.812363 1.877696
v 0.251583 0.912363 1.904791
v -0.210497 0.576351 1.633537
v 0.131649 0.776351 1.687728
v -0.108220 0.504329 1.253600
v 0.233925 0.704329 1.307791
v -0.057081 0.468317 1.063632
v 0.285064 0.668317 1.117822
v -0.745024 0.617794 1.902912
v -0.573952 0.717794 1.930007
v 0.110339 1.117794 2.038388
v 0.281412 1.217794 2.065483
v -0.693886 0.581783 1.712943
v -0.522813 0.681783 1.740038
v -0.351741 0.781783 1.767134
v -0.009595 0.981783 1.821324
v 0.161477 1.081783 1.848419
v 0.332550 1.181783 1.875515
v -0.471675 0.645771 1.550070
v -0.300602 0.745771 1.577165
v 0.041543 0.945771 1.631356
v 0.212616 1.045771 1.658451
v -0.147187 0.637737 1.007260
v 0.194958 0.837737 1.061450
v -0.044910 0.565715 0.627322
v 0.297235 0.765715 0.681513
v -0.062568 0.357681 0.030322
v 0.108505 0.457681 0.057417
v 0.450650 0.657681 0.111607
v 0.621723 0.757681 0.138703
v 0.159643 0.421669 -0.132552
v 0.501789 0.621669 -0.078361
v 0.039709 0.285658 -0.349616
v 0.210782 0.385658 -0.322520
v 0.552927 0.585658 -0.268330
v 0.724000 0.685658 -0.241235
v -0.783991 0.751203 1.656571
v -0.612919 0.851203 1.683666
v 0.071372 1.251203 1.792047
v 0.242444 1.351203 1.819143
v -0.732853 0.715191 1.466603
v -0.561780 0.815192 1.493698
v 0.122510 1.215191 1.602079
v 0.293583 1.315192 1.629174
v -0.237293 0.807157 0.950888
v 0.104853 1.007157 1.005078
v -0.306088 0.635135 0.543855
v -0.135016 0.735135 0.570951
v 0.207129 0.935135 0.625141
v 0.378202 1.035135 0.652236
v -0.152673 0.527101 -0.026050
v 0.018399 0.627101 0.001045
v 0.360545 0.827101 0.055235
v 0.531617 0.927101 0.082331
v 0.069538 0.591089 -0.188924
v 0.411683 0.791089 -0.134733
v -0.050396 0.455078 -0.405987
v 0.120676 0.555078 -0.378892
v 0.462821 0.755078 -0.324702
v 0.633894 0.855078 -0.297607
v 0.171815 0.519067 -0.568861
v 0.513960 0.719067 -0.514670
v 0.051880 0.383055 -0.785925
v 0.222953 0.483055 -0.758829
v 0.565098 0.683055 -0.704639
v 0.736171 0.783055 -0.677544
v -0.822959 0.884612 1.410231
v -0.651886 0.984612 1.437326
v 0.032405 1.384612 1.545707
v 0.203477 1.484612 1.572802
v -0.771820 0.848600 1.220262
v -0.600748 0.948600 1.247357
v 0.083543 1.348600 1.355738
v 0.254616 1.448600 1.382833
v -0.669544 0.776578 0.840325
v -0.498471 0.876578 0.867420
v 0.185820 1.276578 0.975801
v 0.356892 1.376578 1.002897
v -0.396194 0.804555 0.487483
v 0.288097 1.204555 0.595864
v 0.081709 0.688487 -0.625233
v 0.423854 0.888487 -0.571042
v -0.038225 0.552475 -0.842297
v 0.132847 0.652475 -0.815201
v 0.474993 0.852475 -0.761011
v 0.646065 0.952475 -0.733916
v 0.183986 0.616464 -1.005170
v 0.526131 0.816464 -0.950979
v 0.250948 0.128373 -2.579109
v 0.593093 0.328373 -2.524918
v 0.935238 0.528373 -2.470728
v 1.277383 0.728373 -2.416537
v -0.861926 1.018020 1.163890
v -0.690853 1.118020 1.190985
v -0.006563 1.518021 1.299366
v 0.164510 1.618020 1.326462
v -0.930722 0.845998 0.756858
v -0.759649 0.945998 0.783953
v -0.588576 1.045998 0.811048
v 0.095714 1.445998 0.919429
v 0.266787 1.545998 0.946525
v 0.437859 1.645998 0.973620
v 0.093880 0.785884 -1.061542
v 0.264953 0.885884 -1.034446
v 0.436025 0.985884 -1.007351
v -0.010231 0.197793 -2.662576
v 0.160842 0.297793 -2.635480
v 0.502987 0.497793 -2.581290
v 0.674060 0.597793 -2.554195
v 0.845133 0.697793 -2.527100
v 1.187278 0.897793 -2.472909
v 1.358351 0.997793 -2.445814
v -0.121646 0.708656 -2.368288
v 0.220499 0.908656 -2.314097
v 0.562645 1.108656 -2.259907
v 0.904790 1.308656 -2.205716
v -0.019369 0.636634 -2.748224
v 0.322776 0.836634 -2.694034
v 0.664921 1.036634 -2.639843
v 1.007067 1.236634 -2.585653
v -0.210497 0.576351 1.633537
v 0.131649 0.776351 1.687728
v -0.108220 0.504329 1.253600
v 0.233925 0.704329 1.307791
v -0.198325 0.673749 1.197228
v 0.143820 0.873749 1.251419
v -0.147187 0.637737 1.007260
v 0.194958 0.837737 1.061450
v -0.697538 1.131260 2.660604
v -0.355393 1.331260 2.714795
v -0.817472 0.995248 2.443541
v -0.646400 1.095248 2.470636
v -0.304254 1.295248 2.524826
v -0.133182 1.395248 2.551921
v -0.937407 0.859237 2.226477
v -0.766334 0.959237 2.253572
v -0.595261 1.059237 2.280667
v -0.253116 1.259237 2.334858
v -0.082043 1.359237 2.361953
v 0.089029 1.459237 2.389048
v -0.886268 0.823226 2.036508
v -0.715196 0.923226 2.063604
v -0.030905 1.323226 2.171984
v 0.140168 1.423226 2.199080
v -0.736505 1.264668 2.414264
v -0.394360 1.464668 2.468454
v -0.856440 1.128657 2.197200
v -0.685367 1.228657 2.224295
v -0.343222 1.428657 2.278486
v -0.172149 1.528657 2.305581
v -0.976374 0.992646 1.980136
v -0.805301 1.092646 2.007231
v -0.121011 1.492646 2.115613
v 0.050062 1.592646 2.142708
v -0.925235 0.956634 1.790168
v -0.754163 1.056634 1.817263
v -0.069872 1.456634 1.925644
v 0.101200 1.556634 1.952739
v -0.895407 1.262066 1.950860
v -0.211116 1.662066 2.059241
v -1.015341 1.126055 1.733796
v -0.844268 1.226055 1.760891
v -0.159978 1.626055 1.869272
v 0.011095 1.726054 1.896367
v -0.964203 1.090043 1.543827
v -0.793130 1.190043 1.570922
v -0.108839 1.590043 1.679303
v 0.062233 1.690043 1.706399
v 0.058565 0.369816 -2.255544
v 0.400711 0.569816 -2.201353
v 0.742856 0.769816 -2.147163
v 1.085001 0.969816 -2.092972
v 0.160842 0.297793 -2.635480
v 0.502987 0.497793 -2.581290
v 0.845133 0.697793 -2.527100
v 1.187278 0.897793 -2.472909
v -0.934374 1.395475 1.704519
v -0.250083 1.795475 1.812900
v -1.054308 1.259463 1.487455
v -0.883236 1.359463 1.514550
v -0.198945 1.759463 1.622931
v -0.027872 1.859463 1.650027
v -0.609886 1.387441 1.161709
v -0.267741 1.587441 1.215899
v -0.900893 1.151429 0.917550
v -0.729820 1.251429 0.944645
v -0.045530 1.651429 1.053026
v 0.125543 1.751429 1.080121
v -0.507609 1.315418 0.781772
v -0.336537 1.415418 0.808867
v -0.165464 1.515418 0.835962
v -0.973341 1.528883 1.458179
v -0.289051 1.928883 1.566560
v -0.699992 1.556861 1.105337
v -0.357846 1.756861 1.159527
v -0.990999 1.320849 0.861178
v -0.819926 1.420849 0.888273
v -0.135635 1.820849 0.996654
v 0.035437 1.920849 1.023749
v -1.110933 1.184838 0.644114
v -0.939860 1.284838 0.671209
v -0.597715 1.484838 0.725400
v -0.426642 1.584838 0.752495
v -0.255570 1.684838 0.779590
v 0.086576 1.884838 0.833781
v 0.257648 1.984838 0.860876
v -0.190442 0.536634 -2.775320
v -0.019369 0.636634 -2.748224
v 0.322776 0.836634 -2.694034
v 0.493849 0.936634 -2.666939
v 0.664921 1.036634 -2.639843
v 1.007067 1.236634 -2.585653
v 1.178139 1.336634 -2.558558
v -1.029966 1.454258 0.614837
v -0.687821 1.654258 0.669028
v -0.345675 1.854258 0.723218
v -0.003530 2.054258 0.777409
v -0.109475 0.806054 -2.804596
v 0.232671 1.006054 -2.750406
v 0.574816 1.206054 -2.696216
v 0.916961 1.406054 -2.642025
vn -0.8554 -0.5000 -0.1355
vn 0.8554 0.5000 0.1355
vn -0.2557 0.1801 0.9498
vn 0.2557 -0.1801 -0.9498
vn 0.4505 -0.8471 0.2819
vn -0.4505 0.8471 -0.2819
vt 0.986328 0.500000
vt 0.271484 0.500000
vt 0.990234 0.500000
vt 0.982422 0.500000
s 1
usemtl palette.036
f 3/1/1 2/1/1 1/1/1
f 4/1/1 2/1/1 3/1/1
f 7/2/1 6/2/1 5/2/1
f 9/2/1 7/2/1 5/2/1
f 9/2/1 8/2/1 7/2/1
f 10/2/1 8/2/1 9/2/1
f 11/2/1 8/2/1 10/2/1
f 13/2/1 12/2/1 11/2/1
f 13/2/1 11/2/1 10/2/1
f 14/2/1 12/2/1 13/2/1
f 15/2/1 12/2/1 14/2/1
f 19/2/1 15/2/1 14/2/1
f 19/2/1 16/2/1 15/2/1
f 20/2/1 16/2/1 19/2/1
f 21/2/1 16/2/1 20/2/1
f 22/1/1 18/1/1 17/1/1
f 23/1/1 18/1/1 22/1/1
f 24/2/1 21/2/1 20/2/1
f 24/2/1 22/2/1 21/2/1
f 25/2/1 22/2/1 24/2/1
f 26/2/1 22/2/1 25/2/1
f 27/2/1 22/2/1 26/2/1
f 29/1/1 28/1/1 27/1/1
f 30/1/1 28/1/1 29/1/1
f 34/2/1 32/2/1 31/2/1
f 35/2/1 32/2/1 34/2/1
f 37/2/1 36/2/1 35/2/1
f 38/2/1 36/2/1 37/2/1
f 42/2/1 34/2/1 33/2/1
f 43/2/1 34/2/1 42/2/1
f 45/3/1 39/3/1 38/3/1
f 46/3/1 39/3/1 45/3/1
f 48/2/1 41/2/1 40/2/1
f 49/2/1 41/2/1 48/2/1
f 51/2/1 44/2/1 43/2/1
f 52/2/1 44/2/1 51/2/1
f 54/3/1 47/3/1 46/3/1
f 55/3/1 47/3/1 54/3/1
f 56/3/1 47/3/1 55/3/1
f 57/2/1 50/2/1 49/2/1
f 57/3/1 47/3/1 56/3/1
f 57/2/1 49/2/1 48/2/1
f 57/2/1 48/2/1 47/2/1
f 58/2/1 50/2/1 57/2/1
f 59/2/1 53/2/1 52/2/1
f 60/2/1 53/2/1 59/2/1
f 62/3/1 56/3/1 55/3/1
f 63/3/1 56/3/1 62/3/1
f 64/2/1 61/2/1 60/2/1
f 65/2/1 61/2/1 64/2/1
f 67/2/1 66/2/1 65/2/1
f 68/2/1 66/2/1 67/2/1
f 71/2/1 70/2/1 69/2/1
f 74/2/1 71/2/1 69/2/1
f 74/2/1 72/2/1 71/2/1
f 75/2/1 72/2/1 74/2/1
f 76/2/1 72/2/1 75/2/1
f 80/2/1 74/2/1 73/2/1
f 80/2/1 75/2/1 74/2/1
f 81/2/1 75/2/1 80/2/1
f 82/2/1 77/2/1 76/2/1
f 83/2/1 77/2/1 82/2/1
f 84/3/1 79/3/1 78/3/1
f 85/3/1 79/3/1 84/3/1
f 87/3/1 84/3/1 83/3/1
f 88/3/1 84/3/1 87/3/1
f 89/3/1 86/3/1 85/3/1
f 90/3/1 86/3/1 89/3/1
f 93/2/1 80/2/1 73/2/1
f 94/2/1 80/2/1 93/2/1
f 96/3/1 91/3/1 90/3/1
f 97/2/1 92/2/1 91/2/1
f 97/3/1 91/3/1 96/3/1
f 98/2/1 92/2/1 97/2/1
f 99/2/1 95/2/1 94/2/1
f 100/2/1 95/2/1 99/2/1
f 103/1/1 102/1/1 101/1/1
f 104/1/1 102/1/1 103/1/1
f 107/2/1 106/2/1 105/2/1
f 108/2/1 106/2/1 107/2/1
f 111/2/1 110/2/1 109/2/1
f 112/2/1 110/2/1 111/2/1
f 115/4/1 114/4/1 113/4/1
f 116/4/1 114/4/1 115/4/1
f 119/2/1 118/2/1 117/2/1
f 120/2/1 118/2/1 119/2/1
f 122/4/1 121/4/1 120/4/1
f 123/4/1 121/4/1 122/4/1
f 126/4/1 125/4/1 124/4/1
f 127/4/1 125/4/1 126/4/1
f 128/1/2 129/1/2 130/1/2
f 130/1/2 129/1/2 131/1/2
f 132/2/2 133/2/2 134/2/2
f 134/2/2 133/2/2 135/2/2
f 136/2/2 137/2/2 138/2/2
f 138/2/2 137/2/2 139/2/2
f 140/1/2 141/1/2 142/1/2
f 142/1/2 141/1/2 143/1/2
f 144/2/2 145/2/2 146/2/2
f 146/2/2 145/2/2 147/2/2
f 147/1/2 148/1/2 149/1/2
f 149/1/2 148/1/2 150/1/2
f 151/2/2 152/2/2 153/2/2
f 151/2/2 153/2/2 156/2/2
f 153/2/2 154/2/2 156/2/2
f 156/2/2 154/2/2 157/2/2
f 157/2/2 154/2/2 158/2/2
f 155/2/2 156/2/2 162/2/2
f 156/2/2 157/2/2 162/2/2
f 162/2/2 157/2/2 163/2/2
f 158/2/2 159/2/2 164/2/2
f 164/2/2 159/2/2 165/2/2
f 160/3/2 161/3/2 166/3/2
f 166/3/2 161/3/2 167/3/2
f 165/3/2 166/3/2 169/3/2
f 169/3/2 166/3/2 170/3/2
f 167/3/2 168/3/2 171/3/2
f 171/3/2 168/3/2 172/3/2
f 155/2/2 162/2/2 175/2/2
f 175/2/2 162/2/2 176/2/2
f 172/3/2 173/3/2 178/3/2
f 173/2/2 174/2/2 179/2/2
f 178/3/2 173/3/2 179/3/2
f 179/2/2 174/2/2 180/2/2
f 176/2/2 177/2/2 181/2/2
f 181/2/2 177/2/2 182/2/2
f 183/4/2 184/4/2 185/4/2
f 185/4/2 184/4/2 186/4/2
f 187/2/2 188/2/2 190/2/2
f 190/2/2 188/2/2 191/2/2
f 191/2/2 192/2/2 193/2/2
f 193/2/2 192/2/2 194/2/2
f 189/2/2 190/2/2 198/2/2
f 198/2/2 190/2/2 199/2/2
f 194/3/2 195/3/2 201/3/2
f 201/3/2 195/3/2 202/3/2
f 196/2/2 197/2/2 204/2/2
f 204/2/2 197/2/2 205/2/2
f 199/2/2 200/2/2 207/2/2
f 207/2/2 200/2/2 208/2/2
f 202/3/2 203/3/2 210/3/2
f 210/3/2 203/3/2 211/3/2
f 211/3/2 203/3/2 212/3/2
f 205/2/2 206/2/2 213/2/2
f 212/3/2 203/3/2 213/3/2
f 204/2/2 205/2/2 213/2/2
f 203/2/2 204/2/2 213/2/2
f 213/2/2 206/2/2 214/2/2
f 208/2/2 209/2/2 215/2/2
f 215/2/2 209/2/2 216/2/2
f 211/3/2 212/3/2 218/3/2
f 218/3/2 212/3/2 219/3/2
f 216/2/2 217/2/2 220/2/2
f 220/2/2 217/2/2 221/2/2
f 221/2/2 222/2/2 223/2/2
f 223/2/2 222/2/2 224/2/2
f 225/2/2 226/2/2 227/2/2
f 225/2/2 227/2/2 229/2/2
f 227/2/2 228/2/2 229/2/2
f 229/2/2 228/2/2 230/2/2
f 230/2/2 228/2/2 231/2/2
f 231/2/2 232/2/2 233/2/2
f 230/2/2 231/2/2 233/2/2
f 233/2/2 232/2/2 234/2/2
f 234/2/2 232/2/2 235/2/2
f 234/2/2 235/2/2 239/2/2
f 235/2/2 236/2/2 239/2/2
f 239/2/2 236/2/2 240/2/2
f 240/2/2 236/2/2 241/2/2
f 237/4/2 238/4/2 242/4/2
f 242/4/2 238/4/2 243/4/2
f 240/2/2 241/2/2 244/2/2
f 241/2/2 242/2/2 244/2/2
f 244/2/2 242/2/2 245/2/2
f 245/2/2 242/2/2 246/2/2
f 246/2/2 242/2/2 247/2/2
f 247/4/2 248/4/2 249/4/2
f 249/4/2 248/4/2 250/4/2
f 251/4/2 252/4/2 253/4/2
f 253/4/2 252/4/2 254/4/2
f 257/2/3 256/2/3 255/2/3
f 258/2/3 256/2/3 257/2/3
f 263/2/3 260/2/3 259/2/3
f 264/2/3 260/2/3 263/2/3
f 266/2/3 262/2/3 261/2/3
f 267/2/3 262/2/3 266/2/3
f 269/2/3 265/2/3 264/2/3
f 270/2/3 265/2/3 269/2/3
f 271/2/3 269/2/3 268/2/3
f 272/2/3 269/2/3 271/2/3
f 276/2/3 274/2/3 273/2/3
f 277/2/3 274/2/3 276/2/3
f 279/2/3 276/2/3 275/2/3
f 280/2/3 276/2/3 279/2/3
f 281/2/3 278/2/3 277/2/3
f 282/2/3 278/2/3 281/2/3
f 287/2/3 284/2/3 283/2/3
f 288/2/3 284/2/3 287/2/3
f 289/2/3 286/2/3 285/2/3
f 290/2/3 286/2/3 289/2/3
f 291/2/3 289/2/3 288/2/3
f 292/2/3 289/2/3 291/2/3
f 295/2/3 294/2/3 293/2/3
f 296/2/3 294/2/3 295/2/3
f 299/2/3 297/2/3 296/2/3
f 300/2/3 297/2/3 299/2/3
f 301/2/3 299/2/3 298/2/3
f 302/2/3 299/2/3 301/2/3
f 305/2/3 304/2/3 303/2/3
f 306/2/3 304/2/3 305/2/3
f 309/2/3 307/2/3 306/2/3
f 310/2/3 307/2/3 309/2/3
f 311/2/3 309/2/3 308/2/3
f 312/2/3 309/2/3 311/2/3
f 315/2/3 314/2/3 313/2/3
f 316/2/3 314/2/3 315/2/3
f 319/2/3 317/2/3 316/2/3
f 320/2/3 317/2/3 319/2/3
f 321/2/3 319/2/3 318/2/3
f 322/2/3 319/2/3 321/2/3
f 325/3/3 324/3/3 323/3/3
f 326/3/3 324/3/3 325/3/3
f 329/2/3 328/2/3 327/2/3
f 330/2/3 328/2/3 329/2/3
f 333/3/3 332/3/3 331/3/3
f 334/3/3 332/3/3 333/3/3
f 337/2/3 336/2/3 335/2/3
f 338/2/3 336/2/3 337/2/3
f 342/1/3 340/1/3 339/1/3
f 343/1/3 340/1/3 342/1/3
f 345/1/3 342/1/3 341/1/3
f 346/1/3 342/1/3 345/1/3
f 350/1/3 344/1/3 343/1/3
f 351/1/3 344/1/3 350/1/3
f 352/1/3 350/1/3 349/1/3
f 353/1/3 350/1/3 352/1/3
f 354/3/3 348/3/3 347/3/3
f 355/3/3 348/3/3 354/3/3
f 356/4/3 353/4/3 352/4/3
f 357/4/3 353/4/3 356/4/3
f 361/4/3 360/4/3 359/4/3
f 362/4/3 360/4/3 361/4/3
f 363/4/3 358/4/3 357/4/3
f 364/4/3 358/4/3 363/4/3
f 365/4/3 363/4/3 362/4/3
f 366/4/3 363/4/3 365/4/3
f 369/2/3 368/2/3 367/2/3
f 370/2/3 368/2/3 369/2/3
f 373/2/3 372/2/3 371/2/3
f 374/2/3 372/2/3 373/2/3
f 375/2/4 376/2/4 377/2/4
f 377/2/4 376/2/4 378/2/4
f 379/2/4 380/2/4 382/2/4
f 382/2/4 380/2/4 383/2/4
f 381/2/4 382/2/4 385/2/4
f 385/2/4 382/2/4 386/2/4
f 384/2/4 385/2/4 387/2/4
f 387/2/4 385/2/4 388/2/4
f 388/2/4 389/2/4 390/2/4
f 390/2/4 389/2/4 391/2/4
f 391/2/4 392/2/4 393/2/4
f 393/2/4 392/2/4 394/2/4
f 395/2/4 396/2/4 398/2/4
f 398/2/4 396/2/4 399/2/4
f 397/2/4 398/2/4 401/2/4
f 401/2/4 398/2/4 402/2/4
f 400/2/4 401/2/4 403/2/4
f 403/2/4 401/2/4 404/2/4
f 404/2/4 405/2/4 406/2/4
f 406/2/4 405/2/4 407/2/4
f 407/2/4 408/2/4 409/2/4
f 409/2/4 408/2/4 410/2/4
f 411/2/4 412/2/4 414/2/4
f 414/2/4 412/2/4 415/2/4
f 413/3/4 414/3/4 417/3/4
f 416/3/4 417/3/4 418/3/4
f 417/3/4 414/3/4 419/3/4
f 418/3/4 417/3/4 419/3/4
f 419/3/4 414/3/4 420/3/4
f 420/3/4 414/3/4 421/3/4
f 421/2/4 422/2/4 423/2/4
f 423/2/4 422/2/4 424/2/4
f 425/2/4 426/2/4 427/2/4
f 427/2/4 426/2/4 428/2/4
f 429/2/4 430/2/4 431/2/4
f 431/2/4 430/2/4 432/2/4
f 433/2/4 434/2/4 435/2/4
f 435/2/4 434/2/4 436/2/4
f 437/3/4 438/3/4 439/3/4
f 439/3/4 438/3/4 440/3/4
f 441/3/4 442/3/4 443/3/4
f 443/3/4 442/3/4 444/3/4
f 445/2/4 446/2/4 447/2/4
f 447/2/4 446/2/4 448/2/4
f 449/2/4 450/2/4 451/2/4
f 451/2/4 450/2/4 452/2/4
f 453/2/4 454/2/4 455/2/4
f 455/2/4 454/2/4 456/2/4
f 457/2/4 458/2/4 459/2/4
f 459/2/4 458/2/4 460/2/4
f 461/2/4 462/2/4 463/2/4
f 463/2/4 462/2/4 464/2/4
f 465/2/4 466/2/4 467/2/4
f 467/2/4 466/2/4 468/2/4
f 469/2/4 470/2/4 471/2/4
f 469/2/4 471/2/4 472/2/4
f 472/2/4 471/2/4 473/2/4
f 474/1/4 475/1/4 476/1/4
f 476/1/4 475/1/4 477/1/4
f 478/1/4 479/1/4 480/1/4
f 480/1/4 479/1/4 481/1/4
f 482/1/4 483/1/4 485/1/4
f 485/1/4 483/1/4 486/1/4
f 484/1/4 485/1/4 488/1/4
f 488/1/4 485/1/4 489/1/4
f 486/1/4 487/1/4 490/1/4
f 490/1/4 487/1/4 491/1/4
f 489/1/4 490/1/4 492/1/4
f 492/1/4 490/1/4 493/1/4
f 492/4/4 493/4/4 495/4/4
f 495/4/4 493/4/4 496/4/4
f 494/4/4 495/4/4 498/4/4
f 498/4/4 495/4/4 499/4/4
f 496/4/4 497/4/4 500/4/4
f 500/4/4 497/4/4 501/4/4
f 499/4/4 500/4/4 502/4/4
f 502/4/4 500/4/4 503/4/4
f 506/2/5 505/2/5 504/2/5
f 507/2/5 505/2/5 506/2/5
f 510/2/5 509/2/5 508/2/5
f 511/2/5 509/2/5 510/2/5
f 514/2/5 513/2/5 512/2/5
f 515/2/5 513/2/5 514/2/5
f 520/2/5 517/2/5 516/2/5
f 521/2/5 517/2/5 520/2/5
f 522/2/5 519/2/5 518/2/5
f 523/2/5 519/2/5 522/2/5
f 524/2/5 522/2/5 521/2/5
f 525/2/5 522/2/5 524/2/5
f 528/3/5 527/3/5 526/3/5
f 529/3/5 527/3/5 528/3/5
f 535/2/5 531/2/5 530/2/5
f 536/2/5 531/2/5 535/2/5
f 537/2/5 533/2/5 532/2/5
f 538/2/5 533/2/5 537/2/5
f 540/2/5 535/2/5 534/2/5
f 541/2/5 535/2/5 540/2/5
f 544/2/5 539/2/5 538/2/5
f 545/2/5 539/2/5 544/2/5
f 546/2/5 542/2/5 541/2/5
f 547/2/5 542/2/5 546/2/5
f 548/2/5 544/2/5 543/2/5
f 549/2/5 544/2/5 548/2/5
f 550/3/5 548/3/5 547/3/5
f 551/3/5 548/3/5 550/3/5
f 554/3/5 553/3/5 552/3/5
f 555/3/5 553/3/5 554/3/5
f 560/2/5 557/2/5 556/2/5
f 561/2/5 557/2/5 560/2/5
f 564/2/5 559/2/5 558/2/5
f 565/2/5 559/2/5 564/2/5
f 566/3/5 562/3/5 561/3/5
f 567/3/5 562/3/5 566/3/5
f 568/3/5 564/3/5 563/3/5
f 569/3/5 564/3/5 568/3/5
f 572/3/5 571/3/5 570/3/5
f 573/3/5 571/3/5 572/3/5
f 575/2/5 573/2/5 572/2/5
f 576/2/5 573/2/5 575/2/5
f 578/2/5 576/2/5 575/2/5
f 578/2/5 577/2/5 576/2/5
f 578/2/5 575/2/5 574/2/5
f 579/2/5 577/2/5 578/2/5
f 580/2/5 578/2/5 574/2/5
f 581/2/5 578/2/5 580/2/5
f 582/2/5 577/2/5 579/2/5
f 583/2/5 577/2/5 582/2/5
f 588/2/5 585/2/5 584/2/5
f 589/2/5 585/2/5 588/2/5
f 590/2/5 587/2/5 586/2/5
f 591/2/5 587/2/5 590/2/5
f 592/3/5 590/3/5 589/3/5
f 593/3/5 590/3/5 592/3/5
f 594/3/5 592/3/5 589/3/5
f 595/3/5 592/3/5 594/3/5
f 596/3/5 590/3/5 593/3/5
f 597/3/5 590/3/5 596/3/5
f 598/2/5 595/2/5 594/2/5
f 599/2/5 595/2/5 598/2/5
f 600/2/5 597/2/5 596/2/5
f 601/2/5 597/2/5 600/2/5
f 605/2/5 603/2/5 602/2/5
f 606/2/5 603/2/5 605/2/5
f 608/2/5 605/2/5 604/2/5
f 608/2/5 607/2/5 606/2/5
f 608/2/5 606/2/5 605/2/5
f 609/2/5 607/2/5 608/2/5
f 610/2/5 608/2/5 604/2/5
f 611/2/5 608/2/5 610/2/5
f 612/2/5 607/2/5 609/2/5
f 613/2/5 607/2/5 612/2/5
f 618/2/5 615/2/5 614/2/5
f 619/2/5 615/2/5 618/2/5
f 620/2/5 617/2/5 616/2/5
f 621/2/5 617/2/5 620/2/5
f 626/1/5 623/1/5 622/1/5
f 627/4/5 625/4/5 624/4/5
f 630/1/5 626/1/5 622/1/5
f 631/2/5 629/2/5 628/2/5
f 632/2/5 629/2/5 631/2/5
f 633/4/5 625/4/5 627/4/5
f 634/2/5 632/2/5 631/2/5
f 634/1/5 631/1/5 630/1/5
f 635/4/5 633/4/5 632/4/5
f 635/2/5 632/2/5 634/2/5
f 636/1/5 630/1/5 622/1/5
f 636/1/5 634/1/5 630/1/5
f 637/1/5 634/1/5 636/1/5
f 638/4/5 633/4/5 635/4/5
f 639/4/5 625/4/5 633/4/5
f 639/4/5 633/4/5 638/4/5
f 645/2/5 641/2/5 640/2/5
f 646/2/5 641/2/5 645/2/5
f 647/2/5 643/2/5 642/2/5
f 648/2/5 643/2/5 647/2/5
f 653/1/5 645/1/5 644/1/5
f 654/1/5 645/1/5 653/1/5
f 655/1/5 651/1/5 650/1/5
f 656/4/5 652/4/5 651/4/5
f 656/1/5 651/1/5 655/1/5
f 657/4/5 652/4/5 656/4/5
f 658/4/5 649/4/5 648/4/5
f 659/4/5 649/4/5 658/4/5
f 664/1/5 661/1/5 660/1/5
f 665/1/5 661/1/5 664/1/5
f 666/4/5 663/4/5 662/4/5
f 667/4/5 663/4/5 666/4/5
f 668/3/6 669/3/6 670/3/6
f 670/3/6 669/3/6 671/3/6
f 672/3/6 673/3/6 674/3/6
f 674/3/6 673/3/6 675/3/6
f 676/2/6 677/2/6 679/2/6
f 679/2/6 677/2/6 680/2/6
f 678/2/6 679/2/6 683/2/6
f 683/2/6 679/2/6 684/2/6
f 680/2/6 681/2/6 685/2/6
f 685/2/6 681/2/6 686/2/6
f 682/2/6 683/2/6 688/2/6
f 688/2/6 683/2/6 689/2/6
f 686/2/6 687/2/6 690/2/6
f 690/2/6 687/2/6 691/2/6
f 692/2/6 693/2/6 695/2/6
f 695/2/6 693/2/6 696/2/6
f 694/2/6 695/2/6 699/2/6
f 696/2/6 697/2/6 699/2/6
f 695/2/6 696/2/6 699/2/6
f 699/2/6 697/2/6 700/2/6
f 698/2/6 699/2/6 702/2/6
f 702/2/6 699/2/6 703/2/6
f 700/2/6 701/2/6 704/2/6
f 704/2/6 701/2/6 705/2/6
f 706/2/6 707/2/6 709/2/6
f 709/2/6 707/2/6 710/2/6
f 708/2/6 709/2/6 712/2/6
f 712/2/6 709/2/6 713/2/6
f 710/2/6 711/2/6 714/2/6
f 714/2/6 711/2/6 715/2/6
f 716/1/6 717/1/6 720/1/6
f 720/1/6 717/1/6 721/1/6
f 718/4/6 719/4/6 722/4/6
f 722/4/6 719/4/6 723/4/6
f 724/2/6 725/2/6 727/2/6
f 727/2/6 725/2/6 728/2/6
f 726/2/6 727/2/6 732/2/6
f 732/2/6 727/2/6 733/2/6
f 728/2/6 729/2/6 734/2/6
f 734/2/6 729/2/6 735/2/6
f 730/2/6 731/2/6 736/2/6
f 736/2/6 731/2/6 737/2/6
f 737/2/6 731/2/6 738/2/6
f 739/2/6 740/2/6 741/2/6
f 741/2/6 740/2/6 742/2/6
f 739/2/6 741/2/6 744/2/6
f 742/2/6 740/2/6 745/2/6
f 743/2/6 744/2/6 748/2/6
f 744/2/6 741/2/6 749/2/6
f 748/2/6 744/2/6 749/2/6
f 745/2/6 746/2/6 751/2/6
f 742/2/6 745/2/6 751/2/6
f 751/2/6 746/2/6 752/2/6
f 747/1/6 748/1/6 754/1/6
f 754/1/6 748/1/6 755/1/6
f 749/1/6 750/1/6 756/1/6
f 750/4/6 751/4/6 757/4/6
f 756/1/6 750/1/6 757/1/6
f 757/4/6 751/4/6 758/4/6
f 752/4/6 753/4/6 759/4/6
f 759/4/6 753/4/6 760/4/6
f 761/1/6 762/1/6 765/1/6
f 765/1/6 762/1/6 766/1/6
f 763/4/6 764/4/6 767/4/6
f 767/4/6 764/4/6 768/4/6
