# Blender 5.0.1
# www.blender.org
mtllib Sunglasses.mtl
o Untitled.001
v -1.680000 0.710000 0.560000
v -1.680000 0.710000 0.280000
v -1.680000 0.990000 0.560000
v -1.680000 0.990000 0.280000
v -1.540000 0.430000 0.560000
v -1.540000 0.430000 0.280000
v -1.540000 0.710000 0.560000
v -1.540000 0.710000 0.280000
v -1.540000 0.710000 -0.560000
v -1.540000 0.990000 0.280000
v -1.540000 0.990000 -0.560000
v -1.400000 0.290000 0.560000
v -1.400000 0.290000 0.280000
v -1.400000 0.430000 0.560000
v -1.400000 0.430000 0.280000
v -1.260000 0.150000 0.560000
v -1.260000 0.150000 0.280000
v -1.260000 0.290000 0.560000
v -1.260000 0.290000 0.280000
v 0.140000 0.430000 0.560000
v 0.140000 0.430000 0.280000
v 0.140000 0.710000 0.560000
v 0.140000 0.710000 0.280000
v 0.280000 0.290000 0.560000
v 0.280000 0.290000 0.280000
v 0.280000 0.430000 0.560000
v 0.280000 0.430000 0.280000
v 0.420000 0.150000 0.560000
v 0.420000 0.150000 0.280000
v 0.420000 0.290000 0.560000
v 0.420000 0.290000 0.280000
v 1.400000 0.710000 0.280000
v 1.400000 0.710000 -0.560000
v 1.400000 0.990000 0.280000
v 1.400000 0.990000 -0.560000
v -1.400000 0.710000 0.280000
v -1.400000 0.710000 -0.560000
v -1.400000 0.990000 0.280000
v -1.400000 0.990000 -0.560000
v -0.420000 0.150000 0.560000
v -0.420000 0.150000 0.280000
v -0.420000 0.290000 0.560000
v -0.420000 0.290000 0.280000
v -0.280000 0.290000 0.560000
v -0.280000 0.290000 0.280000
v -0.280000 0.430000 0.560000
v -0.280000 0.430000 0.280000
v -0.140000 0.430000 0.560000
v -0.140000 0.430000 0.280000
v -0.140000 0.710000 0.560000
v -0.140000 0.710000 0.280000
v 1.260000 0.150000 0.560000
v 1.260000 0.150000 0.280000
v 1.260000 0.290000 0.560000
v 1.260000 0.290000 0.280000
v 1.400000 0.290000 0.560000
v 1.400000 0.290000 0.280000
v 1.400000 0.430000 0.560000
v 1.400000 0.430000 0.280000
v 1.540000 0.430000 0.560000
v 1.540000 0.430000 0.280000
v 1.540000 0.710000 0.560000
v 1.540000 0.710000 0.280000
v 1.540000 0.710000 -0.560000
v 1.540000 0.990000 0.280000
v 1.540000 0.990000 -0.560000
v 1.680000 0.710000 0.560000
v 1.680000 0.710000 0.280000
v 1.680000 0.990000 0.560000
v 1.680000 0.990000 0.280000
v -1.680000 0.710000 0.560000
v -1.680000 0.990000 0.560000
v -1.540000 0.430000 0.560000
v -1.540000 0.710000 0.560000
v -1.400000 0.290000 0.560000
v -1.400000 0.430000 0.560000
v -1.400000 0.570000 0.560000
v -1.400000 0.710000 0.560000
v -1.260000 0.150000 0.560000
v -1.260000 0.290000 0.560000
v -1.260000 0.430000 0.560000
v -1.260000 0.570000 0.560000
v -1.260000 0.710000 0.560000
v -1.120000 0.290000 0.560000
v -1.120000 0.430000 0.560000
v -1.120000 0.570000 0.560000
v -1.120000 0.710000 0.560000
v -0.980000 0.290000 0.560000
v -0.980000 0.430000 0.560000
v -0.980000 0.570000 0.560000
v -0.980000 0.710000 0.560000
v -0.840000 0.290000 0.560000
v -0.840000 0.430000 0.560000
v -0.840000 0.570000 0.560000
v -0.700000 0.290000 0.560000
v -0.700000 0.430000 0.560000
v -0.420000 0.150000 0.560000
v -0.420000 0.290000 0.560000
v -0.280000 0.290000 0.560000
v -0.280000 0.430000 0.560000
v -0.140000 0.430000 0.560000
v -0.140000 0.710000 0.560000
v 0.140000 0.430000 0.560000
v 0.140000 0.710000 0.560000
v 0.280000 0.290000 0.560000
v 0.280000 0.430000 0.560000
v 0.280000 0.570000 0.560000
v 0.280000 0.710000 0.560000
v 0.420000 0.150000 0.560000
v 0.420000 0.290000 0.560000
v 0.420000 0.430000 0.560000
v 0.420000 0.570000 0.560000
v 0.420000 0.710000 0.560000
v 0.560000 0.290000 0.560000
v 0.560000 0.430000 0.560000
v 0.560000 0.570000 0.560000
v 0.560000 0.710000 0.560000
v 0.700000 0.290000 0.560000
v 0.700000 0.430000 0.560000
v 0.700000 0.570000 0.560000
v 0.700000 0.710000 0.560000
v 0.840000 0.290000 0.560000
v 0.840000 0.430000 0.560000
v 0.840000 0.570000 0.560000
v 0.980000 0.290000 0.560000
v 0.980000 0.430000 0.560000
v 1.260000 0.150000 0.560000
v 1.260000 0.290000 0.560000
v 1.400000 0.290000 0.560000
v 1.400000 0.430000 0.560000
v 1.540000 0.430000 0.560000
v 1.540000 0.710000 0.560000
v 1.680000 0.710000 0.560000
v 1.680000 0.990000 0.560000
v -1.680000 0.710000 0.280000
v -1.680000 0.990000 0.280000
v -1.540000 0.430000 0.280000
v -1.540000 0.710000 0.280000
v -1.540000 0.990000 0.280000
v -1.400000 0.290000 0.280000
v -1.400000 0.430000 0.280000
v -1.400000 0.570000 0.280000
v -1.400000 0.710000 0.280000
v -1.400000 0.990000 0.280000
v -1.260000 0.150000 0.280000
v -1.260000 0.290000 0.280000
v -1.260000 0.430000 0.280000
v -1.260000 0.570000 0.280000
v -1.260000 0.710000 0.280000
v -1.120000 0.290000 0.280000
v -1.120000 0.430000 0.280000
v -1.120000 0.570000 0.280000
v -1.120000 0.710000 0.280000
v -0.980000 0.290000 0.280000
v -0.980000 0.430000 0.280000
v -0.980000 0.570000 0.280000
v -0.980000 0.710000 0.280000
v -0.840000 0.290000 0.280000
v -0.840000 0.430000 0.280000
v -0.840000 0.570000 0.280000
v -0.700000 0.290000 0.280000
v -0.700000 0.430000 0.280000
v -0.420000 0.150000 0.280000
v -0.420000 0.290000 0.280000
v -0.280000 0.290000 0.280000
v -0.280000 0.430000 0.280000
v -0.140000 0.430000 0.280000
v -0.140000 0.710000 0.280000
v 0.140000 0.430000 0.280000
v 0.140000 0.710000 0.280000
v 0.280000 0.290000 0.280000
v 0.280000 0.430000 0.280000
v 0.280000 0.570000 0.280000
v 0.280000 0.710000 0.280000
v 0.420000 0.150000 0.280000
v 0.420000 0.290000 0.280000
v 0.420000 0.430000 0.280000
v 0.420000 0.570000 0.280000
v 0.420000 0.710000 0.280000
v 0.560000 0.290000 0.280000
v 0.560000 0.430000 0.280000
v 0.560000 0.570000 0.280000
v 0.560000 0.710000 0.280000
v 0.700000 0.290000 0.280000
v 0.700000 0.430000 0.280000
v 0.700000 0.570000 0.280000
v 0.700000 0.710000 0.280000
v 0.840000 0.290000 0.280000
v 0.840000 0.430000 0.280000
v 0.840000 0.570000 0.280000
v 0.980000 0.290000 0.280000
v 0.980000 0.430000 0.280000
v 1.260000 0.150000 0.280000
v 1.260000 0.290000 0.280000
v 1.400000 0.290000 0.280000
v 1.400000 0.430000 0.280000
v 1.400000 0.710000 0.280000
v 1.400000 0.990000 0.280000
v 1.540000 0.430000 0.280000
v 1.540000 0.710000 0.280000
v 1.540000 0.990000 0.280000
v 1.680000 0.710000 0.280000
v 1.680000 0.990000 0.280000
v -1.540000 0.710000 -0.560000
v -1.540000 0.990000 -0.560000
v -1.400000 0.710000 -0.560000
v -1.400000 0.990000 -0.560000
v 1.400000 0.710000 -0.560000
v 1.400000 0.990000 -0.560000
v 1.540000 0.710000 -0.560000
v 1.540000 0.990000 -0.560000
v -1.260000 0.150000 0.560000
v -0.420000 0.150000 0.560000
v 0.420000 0.150000 0.560000
v 1.260000 0.150000 0.560000
v -1.260000 0.150000 0.280000
v -0.420000 0.150000 0.280000
v 0.420000 0.150000 0.280000
v 1.260000 0.150000 0.280000
v -1.400000 0.290000 0.560000
v -1.260000 0.290000 0.560000
v -0.420000 0.290000 0.560000
v -0.280000 0.290000 0.560000
v 0.280000 0.290000 0.560000
v 0.420000 0.290000 0.560000
v 1.260000 0.290000 0.560000
v 1.400000 0.290000 0.560000
v -1.400000 0.290000 0.280000
v -1.260000 0.290000 0.280000
v -0.420000 0.290000 0.280000
v -0.280000 0.290000 0.280000
v 0.280000 0.290000 0.280000
v 0.420000 0.290000 0.280000
v 1.260000 0.290000 0.280000
v 1.400000 0.290000 0.280000
v -1.540000 0.430000 0.560000
v -1.400000 0.430000 0.560000
v -0.280000 0.430000 0.560000
v -0.140000 0.430000 0.560000
v 0.140000 0.430000 0.560000
v 0.280000 0.430000 0.560000
v 1.400000 0.430000 0.560000
v 1.540000 0.430000 0.560000
v -1.540000 0.430000 0.280000
v -1.400000 0.430000 0.280000
v -0.280000 0.430000 0.280000
v -0.140000 0.430000 0.280000
v 0.140000 0.430000 0.280000
v 0.280000 0.430000 0.280000
v 1.400000 0.430000 0.280000
v 1.540000 0.430000 0.280000
v -1.680000 0.710000 0.560000
v -1.540000 0.710000 0.560000
v -0.140000 0.710000 0.560000
v 0.140000 0.710000 0.560000
v 1.540000 0.710000 0.560000
v 1.680000 0.710000 0.560000
v -1.680000 0.710000 0.280000
v -1.540000 0.710000 0.280000
v -1.400000 0.710000 0.280000
v -0.140000 0.710000 0.280000
v 0.140000 0.710000 0.280000
v 1.400000 0.710000 0.280000
v 1.540000 0.710000 0.280000
v 1.680000 0.710000 0.280000
v -1.540000 0.710000 -0.560000
v -1.400000 0.710000 -0.560000
v 1.400000 0.710000 -0.560000
v 1.540000 0.710000 -0.560000
v -1.680000 0.990000 0.560000
v 1.680000 0.990000 0.560000
v -1.680000 0.990000 0.280000
v -1.540000 0.990000 0.280000
v -1.400000 0.990000 0.280000
v 1.400000 0.990000 0.280000
v 1.540000 0.990000 0.280000
v 1.680000 0.990000 0.280000
v -1.540000 0.990000 -0.560000
v -1.400000 0.990000 -0.560000
v 1.400000 0.990000 -0.560000
v 1.540000 0.990000 -0.560000
vn -1.0000 -0.0000 -0.0000
vn 1.0000 -0.0000 -0.0000
vn -0.0000 -0.0000 1.0000
vn -0.0000 -0.0000 -1.0000
vn -0.0000 -1.0000 -0.0000
vn -0.0000 1.0000 -0.0000
vt 0.982422 0.500000
vt 0.912109 0.500000
s 1
usemtl palette.032
f 3/1/1 2/1/1 1/1/1
f 4/1/1 2/1/1 3/1/1
f 7/1/1 6/1/1 5/1/1
f 8/1/1 6/1/1 7/1/1
f 10/1/1 9/1/1 8/1/1
f 11/1/1 9/1/1 10/1/1
f 14/1/1 13/1/1 12/1/1
f 15/1/1 13/1/1 14/1/1
f 18/1/1 17/1/1 16/1/1
f 19/1/1 17/1/1 18/1/1
f 22/1/1 21/1/1 20/1/1
f 23/1/1 21/1/1 22/1/1
f 26/1/1 25/1/1 24/1/1
f 27/1/1 25/1/1 26/1/1
f 30/1/1 29/1/1 28/1/1
f 31/1/1 29/1/1 30/1/1
f 34/1/1 33/1/1 32/1/1
f 35/1/1 33/1/1 34/1/1
f 36/1/2 37/1/2 38/1/2
f 38/1/2 37/1/2 39/1/2
f 40/1/2 41/1/2 42/1/2
f 42/1/2 41/1/2 43/1/2
f 44/1/2 45/1/2 46/1/2
f 46/1/2 45/1/2 47/1/2
f 48/1/2 49/1/2 50/1/2
f 50/1/2 49/1/2 51/1/2
f 52/1/2 53/1/2 54/1/2
f 54/1/2 53/1/2 55/1/2
f 56/1/2 57/1/2 58/1/2
f 58/1/2 57/1/2 59/1/2
f 60/1/2 61/1/2 62/1/2
f 62/1/2 61/1/2 63/1/2
f 63/1/2 64/1/2 65/1/2
f 65/1/2 64/1/2 66/1/2
f 67/1/2 68/1/2 69/1/2
f 69/1/2 68/1/2 70/1/2
f 74/1/3 72/1/3 71/1/3
f 76/1/3 74/1/3 73/1/3
f 77/1/3 74/1/3 76/1/3
f 78/1/3 72/1/3 74/1/3
f 78/1/3 74/1/3 77/1/3
f 80/1/3 77/1/3 76/1/3
f 80/1/3 76/1/3 75/1/3
f 81/1/3 77/1/3 80/1/3
f 82/2/3 78/2/3 77/2/3
f 82/1/3 77/1/3 81/1/3
f 83/1/3 72/1/3 78/1/3
f 83/2/3 78/2/3 82/2/3
f 84/1/3 81/1/3 80/1/3
f 84/1/3 80/1/3 79/1/3
f 85/2/3 82/2/3 81/2/3
f 85/1/3 81/1/3 84/1/3
f 86/1/3 83/1/3 82/1/3
f 86/2/3 82/2/3 85/2/3
f 87/1/3 72/1/3 83/1/3
f 87/1/3 83/1/3 86/1/3
f 88/1/3 84/1/3 79/1/3
f 88/2/3 85/2/3 84/2/3
f 89/1/3 86/1/3 85/1/3
f 89/2/3 85/2/3 88/2/3
f 90/2/3 87/2/3 86/2/3
f 90/1/3 86/1/3 89/1/3
f 91/1/3 72/1/3 87/1/3
f 91/2/3 87/2/3 90/2/3
f 92/1/3 88/1/3 79/1/3
f 92/1/3 89/1/3 88/1/3
f 93/2/3 90/2/3 89/2/3
f 93/1/3 89/1/3 92/1/3
f 94/1/3 91/1/3 90/1/3
f 94/2/3 90/2/3 93/2/3
f 95/1/3 92/1/3 79/1/3
f 95/2/3 93/2/3 92/2/3
f 96/1/3 94/1/3 93/1/3
f 96/2/3 93/2/3 95/2/3
f 97/1/3 95/1/3 79/1/3
f 97/1/3 96/1/3 95/1/3
f 98/1/3 96/1/3 97/1/3
f 99/1/3 96/1/3 98/1/3
f 100/1/3 94/1/3 96/1/3
f 100/1/3 96/1/3 99/1/3
f 101/1/3 94/1/3 100/1/3
f 102/1/3 91/1/3 94/1/3
f 102/1/3 94/1/3 101/1/3
f 102/1/3 72/1/3 91/1/3
f 104/1/3 72/1/3 102/1/3
f 106/1/3 104/1/3 103/1/3
f 107/1/3 104/1/3 106/1/3
f 108/1/3 72/1/3 104/1/3
f 108/1/3 104/1/3 107/1/3
f 110/1/3 107/1/3 106/1/3
f 110/1/3 106/1/3 105/1/3
f 111/1/3 107/1/3 110/1/3
f 112/2/3 108/2/3 107/2/3
f 112/1/3 107/1/3 111/1/3
f 113/1/3 72/1/3 108/1/3
f 113/2/3 108/2/3 112/2/3
f 114/1/3 111/1/3 110/1/3
f 114/1/3 110/1/3 109/1/3
f 115/2/3 112/2/3 111/2/3
f 115/1/3 111/1/3 114/1/3
f 116/1/3 113/1/3 112/1/3
f 116/2/3 112/2/3 115/2/3
f 117/1/3 72/1/3 113/1/3
f 117/1/3 113/1/3 116/1/3
f 118/1/3 114/1/3 109/1/3
f 118/2/3 115/2/3 114/2/3
f 119/1/3 116/1/3 115/1/3
f 119/2/3 115/2/3 118/2/3
f 120/2/3 117/2/3 116/2/3
f 120/1/3 116/1/3 119/1/3
f 121/1/3 72/1/3 117/1/3
f 121/2/3 117/2/3 120/2/3
f 122/1/3 118/1/3 109/1/3
f 122/1/3 119/1/3 118/1/3
f 123/2/3 120/2/3 119/2/3
f 123/1/3 119/1/3 122/1/3
f 124/1/3 121/1/3 120/1/3
f 124/2/3 120/2/3 123/2/3
f 125/1/3 122/1/3 109/1/3
f 125/2/3 123/2/3 122/2/3
f 126/1/3 124/1/3 123/1/3
f 126/2/3 123/2/3 125/2/3
f 127/1/3 125/1/3 109/1/3
f 127/1/3 126/1/3 125/1/3
f 128/1/3 126/1/3 127/1/3
f 129/1/3 126/1/3 128/1/3
f 130/1/3 124/1/3 126/1/3
f 130/1/3 126/1/3 129/1/3
f 131/1/3 124/1/3 130/1/3
f 132/1/3 121/1/3 124/1/3
f 132/1/3 124/1/3 131/1/3
f 132/1/3 72/1/3 121/1/3
f 133/1/3 72/1/3 132/1/3
f 134/1/3 72/1/3 133/1/3
f 135/1/4 136/1/4 138/1/4
f 138/1/4 136/1/4 139/1/4
f 137/1/4 138/1/4 141/1/4
f 141/1/4 138/1/4 142/1/4
f 142/1/4 138/1/4 143/1/4
f 140/1/4 141/1/4 146/1/4
f 141/1/4 142/1/4 146/1/4
f 146/1/4 142/1/4 147/1/4
f 142/2/4 143/2/4 148/2/4
f 147/1/4 142/1/4 148/1/4
f 143/1/4 144/1/4 149/1/4
f 148/2/4 143/2/4 149/2/4
f 146/1/4 147/1/4 150/1/4
f 145/1/4 146/1/4 150/1/4
f 147/2/4 148/2/4 151/2/4
f 150/1/4 147/1/4 151/1/4
f 148/1/4 149/1/4 152/1/4
f 151/2/4 148/2/4 152/2/4
f 149/1/4 144/1/4 153/1/4
f 152/1/4 149/1/4 153/1/4
f 145/1/4 150/1/4 154/1/4
f 150/2/4 151/2/4 154/2/4
f 151/1/4 152/1/4 155/1/4
f 154/2/4 151/2/4 155/2/4
f 152/2/4 153/2/4 156/2/4
f 155/1/4 152/1/4 156/1/4
f 153/1/4 144/1/4 157/1/4
f 156/2/4 153/2/4 157/2/4
f 145/1/4 154/1/4 158/1/4
f 154/1/4 155/1/4 158/1/4
f 155/2/4 156/2/4 159/2/4
f 158/1/4 155/1/4 159/1/4
f 156/1/4 157/1/4 160/1/4
f 159/2/4 156/2/4 160/2/4
f 145/1/4 158/1/4 161/1/4
f 158/2/4 159/2/4 161/2/4
f 159/1/4 160/1/4 162/1/4
f 161/2/4 159/2/4 162/2/4
f 145/1/4 161/1/4 163/1/4
f 161/1/4 162/1/4 163/1/4
f 163/1/4 162/1/4 164/1/4
f 164/1/4 162/1/4 165/1/4
f 162/1/4 160/1/4 166/1/4
f 165/1/4 162/1/4 166/1/4
f 166/1/4 160/1/4 167/1/4
f 160/1/4 157/1/4 168/1/4
f 167/1/4 160/1/4 168/1/4
f 157/1/4 144/1/4 168/1/4
f 168/1/4 144/1/4 170/1/4
f 169/1/4 170/1/4 172/1/4
f 172/1/4 170/1/4 173/1/4
f 170/1/4 144/1/4 174/1/4
f 173/1/4 170/1/4 174/1/4
f 172/1/4 173/1/4 176/1/4
f 171/1/4 172/1/4 176/1/4
f 176/1/4 173/1/4 177/1/4
f 173/2/4 174/2/4 178/2/4
f 177/1/4 173/1/4 178/1/4
f 174/1/4 144/1/4 179/1/4
f 178/2/4 174/2/4 179/2/4
f 176/1/4 177/1/4 180/1/4
f 175/1/4 176/1/4 180/1/4
f 177/2/4 178/2/4 181/2/4
f 180/1/4 177/1/4 181/1/4
f 178/1/4 179/1/4 182/1/4
f 181/2/4 178/2/4 182/2/4
f 179/1/4 144/1/4 183/1/4
f 182/1/4 179/1/4 183/1/4
f 175/1/4 180/1/4 184/1/4
f 180/2/4 181/2/4 184/2/4
f 181/1/4 182/1/4 185/1/4
f 184/2/4 181/2/4 185/2/4
f 182/2/4 183/2/4 186/2/4
f 185/1/4 182/1/4 186/1/4
f 183/1/4 144/1/4 187/1/4
f 186/2/4 183/2/4 187/2/4
f 175/1/4 184/1/4 188/1/4
f 184/1/4 185/1/4 188/1/4
f 185/2/4 186/2/4 189/2/4
f 188/1/4 185/1/4 189/1/4
f 186/1/4 187/1/4 190/1/4
f 189/2/4 186/2/4 190/2/4
f 175/1/4 188/1/4 191/1/4
f 188/2/4 189/2/4 191/2/4
f 189/1/4 190/1/4 192/1/4
f 191/2/4 189/2/4 192/2/4
f 175/1/4 191/1/4 193/1/4
f 191/1/4 192/1/4 193/1/4
f 193/1/4 192/1/4 194/1/4
f 194/1/4 192/1/4 195/1/4
f 192/1/4 190/1/4 196/1/4
f 195/1/4 192/1/4 196/1/4
f 190/1/4 187/1/4 197/1/4
f 196/1/4 190/1/4 197/1/4
f 187/1/4 144/1/4 197/1/4
f 197/1/4 144/1/4 198/1/4
f 196/1/4 197/1/4 199/1/4
f 199/1/4 197/1/4 200/1/4
f 200/1/4 201/1/4 202/1/4
f 202/1/4 201/1/4 203/1/4
f 204/1/4 205/1/4 206/1/4
f 206/1/4 205/1/4 207/1/4
f 208/1/4 209/1/4 210/1/4
f 210/1/4 209/1/4 211/1/4
f 216/1/5 213/1/5 212/1/5
f 217/1/5 213/1/5 216/1/5
f 218/1/5 215/1/5 214/1/5
f 219/1/5 215/1/5 218/1/5
f 228/1/5 221/1/5 220/1/5
f 229/1/5 221/1/5 228/1/5
f 230/1/5 223/1/5 222/1/5
f 231/1/5 223/1/5 230/1/5
f 232/1/5 225/1/5 224/1/5
f 233/1/5 225/1/5 232/1/5
f 234/1/5 227/1/5 226/1/5
f 235/1/5 227/1/5 234/1/5
f 244/1/5 237/1/5 236/1/5
f 245/1/5 237/1/5 244/1/5
f 246/1/5 239/1/5 238/1/5
f 247/1/5 239/1/5 246/1/5
f 248/1/5 241/1/5 240/1/5
f 249/1/5 241/1/5 248/1/5
f 250/1/5 243/1/5 242/1/5
f 251/1/5 243/1/5 250/1/5
f 258/1/5 253/1/5 252/1/5
f 259/1/5 253/1/5 258/1/5
f 261/1/5 255/1/5 254/1/5
f 262/1/5 255/1/5 261/1/5
f 264/1/5 257/1/5 256/1/5
f 265/1/5 257/1/5 264/1/5
f 266/1/5 260/1/5 259/1/5
f 267/1/5 260/1/5 266/1/5
f 268/1/5 264/1/5 263/1/5
f 269/1/5 264/1/5 268/1/5
f 270/1/6 271/1/6 272/1/6
f 272/1/6 271/1/6 273/1/6
f 273/1/6 271/1/6 274/1/6
f 274/1/6 271/1/6 275/1/6
f 275/1/6 271/1/6 276/1/6
f 276/1/6 271/1/6 277/1/6
f 273/1/6 274/1/6 278/1/6
f 278/1/6 274/1/6 279/1/6
f 275/1/6 276/1/6 280/1/6
f 280/1/6 276/1/6 281/1/6
