# Blender 5.0.1
# www.blender.org
mtllib Pineapple.mtl
o Untitled.002
v -0.520000 0.390000 -1.560000
v -0.390000 0.390000 -1.560000
v 0.390000 0.390000 -1.560000
v 0.520000 0.390000 -1.560000
v -0.520000 0.910000 -1.560000
v -0.390000 0.910000 -1.560000
v 0.390000 0.910000 -1.560000
v 0.520000 0.910000 -1.560000
v -0.520000 0.260000 -1.430000
v -0.390000 0.260000 -1.430000
v 0.390000 0.260000 -1.430000
v 0.520000 0.260000 -1.430000
v -0.650000 0.390000 -1.430000
v -0.520000 0.390000 -1.430000
v -0.390000 0.390000 -1.430000
v -0.260000 0.390000 -1.430000
v 0.260000 0.390000 -1.430000
v 0.390000 0.390000 -1.430000
v 0.520000 0.390000 -1.430000
v 0.650000 0.390000 -1.430000
v -0.650000 0.910000 -1.430000
v -0.520000 0.910000 -1.430000
v -0.390000 0.910000 -1.430000
v -0.260000 0.910000 -1.430000
v 0.260000 0.910000 -1.430000
v 0.390000 0.910000 -1.430000
v 0.520000 0.910000 -1.430000
v 0.650000 0.910000 -1.430000
v -0.520000 1.040000 -1.430000
v -0.390000 1.040000 -1.430000
v 0.390000 1.040000 -1.430000
v 0.520000 1.040000 -1.430000
v -0.390000 0.260000 -1.300000
v -0.260000 0.260000 -1.300000
v 0.260000 0.260000 -1.300000
v 0.390000 0.260000 -1.300000
v -0.390000 0.390000 -1.300000
v -0.260000 0.390000 -1.300000
v -0.130000 0.390000 -1.300000
v 0.130000 0.390000 -1.300000
v 0.260000 0.390000 -1.300000
v 0.390000 0.390000 -1.300000
v -0.390000 0.910000 -1.300000
v -0.260000 0.910000 -1.300000
v -0.130000 0.910000 -1.300000
v 0.130000 0.910000 -1.300000
v 0.260000 0.910000 -1.300000
v 0.390000 0.910000 -1.300000
v -0.390000 1.040000 -1.300000
v -0.260000 1.040000 -1.300000
v 0.260000 1.040000 -1.300000
v 0.390000 1.040000 -1.300000
v -0.260000 0.260000 -1.170000
v -0.130000 0.260000 -1.170000
v 0.130000 0.260000 -1.170000
v 0.260000 0.260000 -1.170000
v -0.260000 0.390000 -1.170000
v -0.130000 0.390000 -1.170000
v 0.130000 0.390000 -1.170000
v 0.260000 0.390000 -1.170000
v -0.260000 0.910000 -1.170000
v -0.130000 0.910000 -1.170000
v 0.130000 0.910000 -1.170000
v 0.260000 0.910000 -1.170000
v -0.260000 1.040000 -1.170000
v -0.130000 1.040000 -1.170000
v 0.130000 1.040000 -1.170000
v 0.260000 1.040000 -1.170000
v -0.780000 0.390000 -1.040000
v -0.650000 0.390000 -1.040000
v 0.650000 0.390000 -1.040000
v 0.780000 0.390000 -1.040000
v -0.780000 0.910000 -1.040000
v -0.650000 0.910000 -1.040000
v 0.650000 0.910000 -1.040000
v 0.780000 0.910000 -1.040000
v -0.780000 0.260000 -0.910000
v -0.650000 0.260000 -0.910000
v -0.130000 0.260000 -0.910000
v 0.130000 0.260000 -0.910000
v 0.650000 0.260000 -0.910000
v 0.780000 0.260000 -0.910000
v -0.910000 0.390000 -0.910000
v -0.780000 0.390000 -0.910000
v -0.650000 0.390000 -0.910000
v 0.650000 0.390000 -0.910000
v 0.780000 0.390000 -0.910000
v 0.910000 0.390000 -0.910000
v -0.910000 0.910000 -0.910000
v -0.780000 0.910000 -0.910000
v -0.650000 0.910000 -0.910000
v 0.650000 0.910000 -0.910000
v 0.780000 0.910000 -0.910000
v 0.910000 0.910000 -0.910000
v -0.780000 1.040000 -0.910000
v -0.650000 1.040000 -0.910000
v -0.130000 1.040000 -0.910000
v 0.130000 1.040000 -0.910000
v 0.650000 1.040000 -0.910000
v 0.780000 1.040000 -0.910000
v -0.650000 0.260000 -0.780000
v -0.520000 0.260000 -0.780000
v 0.520000 0.260000 -0.780000
v 0.650000 0.260000 -0.780000
v -0.520000 0.390000 -0.780000
v -0.390000 0.390000 -0.780000
v 0.390000 0.390000 -0.780000
v 0.520000 0.390000 -0.780000
v -0.520000 0.910000 -0.780000
v -0.390000 0.910000 -0.780000
v 0.390000 0.910000 -0.780000
v 0.520000 0.910000 -0.780000
v -0.650000 1.040000 -0.780000
v -0.520000 1.040000 -0.780000
v 0.520000 1.040000 -0.780000
v 0.650000 1.040000 -0.780000
v -0.520000 0.260000 -0.650000
v -0.260000 0.260000 -0.650000
v 0.260000 0.260000 -0.650000
v 0.520000 0.260000 -0.650000
v -0.520000 0.390000 -0.650000
v -0.390000 0.390000 -0.650000
v -0.260000 0.390000 -0.650000
v -0.130000 0.390000 -0.650000
v 0.130000 0.390000 -0.650000
v 0.260000 0.390000 -0.650000
v 0.390000 0.390000 -0.650000
v 0.520000 0.390000 -0.650000
v -0.520000 0.910000 -0.650000
v -0.390000 0.910000 -0.650000
v -0.260000 0.910000 -0.650000
v -0.130000 0.910000 -0.650000
v 0.130000 0.910000 -0.650000
v 0.260000 0.910000 -0.650000
v 0.390000 0.910000 -0.650000
v 0.520000 0.910000 -0.650000
v -0.520000 1.040000 -0.650000
v -0.260000 1.040000 -0.650000
v 0.260000 1.040000 -0.650000
v 0.520000 1.040000 -0.650000
v -0.260000 0.260000 -0.520000
v -0.130000 0.260000 -0.520000
v 0.130000 0.260000 -0.520000
v 0.260000 0.260000 -0.520000
v -0.260000 0.390000 -0.520000
v -0.130000 0.390000 -0.520000
v 0.130000 0.390000 -0.520000
v 0.260000 0.390000 -0.520000
v -0.260000 0.910000 -0.520000
v -0.130000 0.910000 -0.520000
v 0.130000 0.910000 -0.520000
v 0.260000 0.910000 -0.520000
v -0.260000 1.040000 -0.520000
v -0.130000 1.040000 -0.520000
v 0.130000 1.040000 -0.520000
v 0.260000 1.040000 -0.520000
v -0.260000 0.260000 -0.130000
v -0.130000 0.260000 -0.130000
v 0.130000 0.260000 -0.130000
v 0.260000 0.260000 -0.130000
v -0.390000 0.390000 -0.130000
v -0.260000 0.390000 -0.130000
v -0.130000 0.390000 -0.130000
v 0.130000 0.390000 -0.130000
v 0.260000 0.390000 -0.130000
v 0.390000 0.390000 -0.130000
v -0.520000 0.520000 -0.130000
v -0.390000 0.520000 -0.130000
v 0.390000 0.520000 -0.130000
v 0.520000 0.520000 -0.130000
v -0.520000 0.780000 -0.130000
v -0.390000 0.780000 -0.130000
v -0.260000 0.780000 -0.130000
v 0.390000 0.780000 -0.130000
v 0.520000 0.780000 -0.130000
v -0.390000 0.910000 -0.130000
v -0.260000 0.910000 -0.130000
v -0.130000 0.910000 -0.130000
v 0.130000 0.910000 -0.130000
v 0.260000 0.910000 -0.130000
v 0.390000 0.910000 -0.130000
v -0.260000 1.040000 -0.130000
v -0.130000 1.040000 -0.130000
v 0.130000 1.040000 -0.130000
v 0.260000 1.040000 -0.130000
v -0.520000 0.260000 -0.000000
v -0.260000 0.260000 -0.000000
v 0.260000 0.260000 0.000000
v 0.520000 0.260000 0.000000
v -0.650000 0.390000 -0.000000
v -0.520000 0.390000 -0.000000
v -0.390000 0.390000 -0.000000
v -0.260000 0.390000 -0.000000
v 0.260000 0.390000 0.000000
v 0.390000 0.390000 0.000000
v 0.520000 0.390000 0.000000
v 0.650000 0.390000 0.000000
v -0.520000 0.520000 -0.000000
v -0.390000 0.520000 -0.000000
v 0.390000 0.520000 0.000000
v 0.520000 0.520000 0.000000
v -0.520000 0.780000 -0.000000
v -0.390000 0.780000 -0.000000
v 0.390000 0.780000 0.000000
v 0.520000 0.780000 0.000000
v -0.650000 0.910000 -0.000000
v -0.520000 0.910000 -0.000000
v -0.390000 0.910000 -0.000000
v -0.260000 0.910000 -0.000000
v 0.260000 0.910000 0.000000
v 0.390000 0.910000 0.000000
v 0.520000 0.910000 0.000000
v 0.650000 0.910000 0.000000
v -0.520000 1.040000 -0.000000
v -0.260000 1.040000 -0.000000
v 0.260000 1.040000 0.000000
v 0.390000 1.040000 0.000000
v 0.520000 1.040000 0.000000
v -0.650000 0.260000 0.130000
v -0.520000 0.260000 0.130000
v 0.520000 0.260000 0.130000
v 0.650000 0.260000 0.130000
v -0.650000 0.390000 0.130000
v -0.520000 0.390000 0.130000
v 0.520000 0.390000 0.130000
v 0.650000 0.390000 0.130000
v -0.780000 0.520000 0.130000
v -0.650000 0.520000 0.130000
v 0.650000 0.520000 0.130000
v 0.780000 0.520000 0.130000
v -0.780000 0.650000 0.130000
v -0.650000 0.650000 0.130000
v -0.780000 0.780000 0.130000
v -0.650000 0.780000 0.130000
v 0.650000 0.780000 0.130000
v 0.780000 0.780000 0.130000
v -0.650000 0.910000 0.130000
v -0.520000 0.910000 0.130000
v 0.520000 0.910000 0.130000
v 0.650000 0.910000 0.130000
v -0.650000 1.040000 0.130000
v -0.520000 1.040000 0.130000
v 0.520000 1.040000 0.130000
v 0.650000 1.040000 0.130000
v -0.780000 0.390000 0.260000
v -0.650000 0.390000 0.260000
v 0.650000 0.390000 0.260000
v 0.780000 0.390000 0.260000
v -0.780000 0.520000 0.260000
v -0.650000 0.520000 0.260000
v 0.650000 0.520000 0.260000
v 0.780000 0.520000 0.260000
v -0.780000 0.780000 0.260000
v -0.650000 0.780000 0.260000
v 0.650000 0.780000 0.260000
v 0.780000 0.780000 0.260000
v -0.780000 0.910000 0.260000
v -0.650000 0.910000 0.260000
v 0.650000 0.910000 0.260000
v 0.780000 0.910000 0.260000
v -0.520000 0.260000 -1.300000
v -0.390000 0.260000 -1.300000
v 0.390000 0.260000 -1.300000
v 0.520000 0.260000 -1.300000
v -0.650000 0.390000 -1.300000
v -0.520000 0.390000 -1.300000
v -0.390000 0.390000 -1.300000
v 0.390000 0.390000 -1.300000
v 0.520000 0.390000 -1.300000
v 0.650000 0.390000 -1.300000
v -0.650000 0.910000 -1.300000
v -0.520000 0.910000 -1.300000
v -0.390000 0.910000 -1.300000
v 0.390000 0.910000 -1.300000
v 0.520000 0.910000 -1.300000
v 0.650000 0.910000 -1.300000
v -0.520000 1.040000 -1.300000
v -0.390000 1.040000 -1.300000
v 0.390000 1.040000 -1.300000
v 0.520000 1.040000 -1.300000
v -0.390000 0.260000 -1.170000
v -0.260000 0.260000 -1.170000
v 0.260000 0.260000 -1.170000
v 0.390000 0.260000 -1.170000
v -0.520000 0.390000 -1.170000
v -0.390000 0.390000 -1.170000
v -0.260000 0.390000 -1.170000
v 0.260000 0.390000 -1.170000
v 0.390000 0.390000 -1.170000
v 0.520000 0.390000 -1.170000
v -0.520000 0.910000 -1.170000
v -0.390000 0.910000 -1.170000
v -0.260000 0.910000 -1.170000
v 0.260000 0.910000 -1.170000
v 0.390000 0.910000 -1.170000
v 0.520000 0.910000 -1.170000
v -0.390000 1.040000 -1.170000
v -0.260000 1.040000 -1.170000
v 0.260000 1.040000 -1.170000
v 0.390000 1.040000 -1.170000
v -0.390000 0.390000 -1.040000
v -0.260000 0.390000 -1.040000
v 0.260000 0.390000 -1.040000
v 0.390000 0.390000 -1.040000
v -0.390000 0.910000 -1.040000
v -0.260000 0.910000 -1.040000
v 0.260000 0.910000 -1.040000
v 0.390000 0.910000 -1.040000
v -0.260000 0.260000 -0.910000
v -0.130000 0.260000 -0.910000
v 0.130000 0.260000 -0.910000
v 0.260000 0.260000 -0.910000
v -0.260000 0.390000 -0.910000
v -0.130000 0.390000 -0.910000
v 0.130000 0.390000 -0.910000
v 0.260000 0.390000 -0.910000
v -0.260000 0.910000 -0.910000
v -0.130000 0.910000 -0.910000
v 0.130000 0.910000 -0.910000
v 0.260000 0.910000 -0.910000
v -0.260000 1.040000 -0.910000
v -0.130000 1.040000 -0.910000
v 0.130000 1.040000 -0.910000
v 0.260000 1.040000 -0.910000
v -0.910000 0.390000 -0.780000
v -0.780000 0.390000 -0.780000
v -0.260000 0.390000 -0.780000
v -0.130000 0.390000 -0.780000
v 0.130000 0.390000 -0.780000
v 0.260000 0.390000 -0.780000
v 0.780000 0.390000 -0.780000
v 0.910000 0.390000 -0.780000
v -0.910000 0.910000 -0.780000
v -0.780000 0.910000 -0.780000
v -0.260000 0.910000 -0.780000
v -0.130000 0.910000 -0.780000
v 0.130000 0.910000 -0.780000
v 0.260000 0.910000 -0.780000
v 0.780000 0.910000 -0.780000
v 0.910000 0.910000 -0.780000
v -0.780000 0.260000 -0.650000
v -0.520000 0.260000 -0.650000
v 0.520000 0.260000 -0.650000
v 0.780000 0.260000 -0.650000
v -0.650000 0.390000 -0.650000
v -0.520000 0.390000 -0.650000
v 0.520000 0.390000 -0.650000
v 0.650000 0.390000 -0.650000
v -0.650000 0.910000 -0.650000
v -0.520000 0.910000 -0.650000
v 0.520000 0.910000 -0.650000
v 0.650000 0.910000 -0.650000
v -0.780000 1.040000 -0.650000
v -0.520000 1.040000 -0.650000
v 0.520000 1.040000 -0.650000
v 0.780000 1.040000 -0.650000
v -0.520000 0.260000 -0.520000
v -0.390000 0.260000 -0.520000
v 0.390000 0.260000 -0.520000
v 0.520000 0.260000 -0.520000
v -0.650000 0.390000 -0.520000
v -0.520000 0.390000 -0.520000
v -0.390000 0.390000 -0.520000
v 0.390000 0.390000 -0.520000
v 0.520000 0.390000 -0.520000
v 0.650000 0.390000 -0.520000
v -0.650000 0.910000 -0.520000
v -0.520000 0.910000 -0.520000
v -0.390000 0.910000 -0.520000
v 0.390000 0.910000 -0.520000
v 0.520000 0.910000 -0.520000
v 0.650000 0.910000 -0.520000
v -0.520000 1.040000 -0.520000
v -0.390000 1.040000 -0.520000
v 0.390000 1.040000 -0.520000
v 0.520000 1.040000 -0.520000
v -0.390000 0.260000 -0.390000
v -0.130000 0.260000 -0.390000
v 0.130000 0.260000 -0.390000
v 0.390000 0.260000 -0.390000
v -0.520000 0.390000 -0.390000
v -0.390000 0.390000 -0.390000
v -0.260000 0.390000 -0.390000
v -0.130000 0.390000 -0.390000
v 0.130000 0.390000 -0.390000
v 0.260000 0.390000 -0.390000
v 0.390000 0.390000 -0.390000
v 0.520000 0.390000 -0.390000
v -0.520000 0.910000 -0.390000
v -0.390000 0.910000 -0.390000
v -0.260000 0.910000 -0.390000
v -0.130000 0.910000 -0.390000
v 0.130000 0.910000 -0.390000
v 0.260000 0.910000 -0.390000
v 0.390000 0.910000 -0.390000
v 0.520000 0.910000 -0.390000
v -0.390000 1.040000 -0.390000
v -0.130000 1.040000 -0.390000
v 0.130000 1.040000 -0.390000
v 0.390000 1.040000 -0.390000
v -0.780000 0.390000 1.170000
v -0.650000 0.390000 1.170000
v 0.650000 0.390000 1.170000
v 0.780000 0.390000 1.170000
v -0.780000 0.520000 1.170000
v -0.650000 0.520000 1.170000
v 0.650000 0.520000 1.170000
v 0.780000 0.520000 1.170000
v -0.780000 0.780000 1.170000
v -0.650000 0.780000 1.170000
v 0.650000 0.780000 1.170000
v 0.780000 0.780000 1.170000
v -0.780000 0.910000 1.170000
v -0.650000 0.910000 1.170000
v 0.650000 0.910000 1.170000
v 0.780000 0.910000 1.170000
v -0.650000 0.260000 1.300000
v -0.520000 0.260000 1.300000
v 0.520000 0.260000 1.300000
v 0.650000 0.260000 1.300000
v -0.650000 0.390000 1.300000
v -0.520000 0.390000 1.300000
v 0.520000 0.390000 1.300000
v 0.650000 0.390000 1.300000
v -0.780000 0.520000 1.300000
v -0.650000 0.520000 1.300000
v 0.650000 0.520000 1.300000
v 0.780000 0.520000 1.300000
v -0.780000 0.650000 1.300000
v -0.650000 0.650000 1.300000
v 0.650000 0.650000 1.300000
v 0.780000 0.650000 1.300000
v -0.780000 0.780000 1.300000
v -0.650000 0.780000 1.300000
v 0.650000 0.780000 1.300000
v 0.780000 0.780000 1.300000
v -0.650000 0.910000 1.300000
v -0.520000 0.910000 1.300000
v 0.520000 0.910000 1.300000
v 0.650000 0.910000 1.300000
v -0.650000 1.040000 1.300000
v -0.520000 1.040000 1.300000
v 0.520000 1.040000 1.300000
v 0.650000 1.040000 1.300000
v -0.520000 0.260000 1.430000
v -0.260000 0.260000 1.430000
v 0.260000 0.260000 1.430000
v 0.520000 0.260000 1.430000
v -0.650000 0.390000 1.430000
v -0.520000 0.390000 1.430000
v -0.390000 0.390000 1.430000
v -0.260000 0.390000 1.430000
v 0.260000 0.390000 1.430000
v 0.390000 0.390000 1.430000
v 0.520000 0.390000 1.430000
v 0.650000 0.390000 1.430000
v -0.520000 0.520000 1.430000
v -0.390000 0.520000 1.430000
v 0.390000 0.520000 1.430000
v 0.520000 0.520000 1.430000
v -0.520000 0.780000 1.430000
v -0.390000 0.780000 1.430000
v 0.390000 0.780000 1.430000
v 0.520000 0.780000 1.430000
v -0.650000 0.910000 1.430000
v -0.520000 0.910000 1.430000
v -0.390000 0.910000 1.430000
v -0.260000 0.910000 1.430000
v 0.260000 0.910000 1.430000
v 0.390000 0.910000 1.430000
v 0.520000 0.910000 1.430000
v 0.650000 0.910000 1.430000
v -0.520000 1.040000 1.430000
v -0.390000 1.040000 1.430000
v -0.260000 1.040000 1.430000
v 0.260000 1.040000 1.430000
v 0.520000 1.040000 1.430000
v -0.260000 0.260000 1.560000
v 0.260000 0.260000 1.560000
v -0.390000 0.390000 1.560000
v -0.260000 0.390000 1.560000
v -0.130000 0.390000 1.560000
v 0.130000 0.390000 1.560000
v 0.260000 0.390000 1.560000
v 0.390000 0.390000 1.560000
v -0.520000 0.520000 1.560000
v -0.390000 0.520000 1.560000
v -0.260000 0.520000 1.560000
v -0.130000 0.520000 1.560000
v 0.130000 0.520000 1.560000
v 0.260000 0.520000 1.560000
v 0.390000 0.520000 1.560000
v 0.520000 0.520000 1.560000
v -0.520000 0.780000 1.560000
v -0.390000 0.780000 1.560000
v -0.260000 0.780000 1.560000
v -0.130000 0.780000 1.560000
v 0.130000 0.780000 1.560000
v 0.260000 0.780000 1.560000
v 0.390000 0.780000 1.560000
v 0.520000 0.780000 1.560000
v -0.390000 0.910000 1.560000
v -0.260000 0.910000 1.560000
v -0.130000 0.910000 1.560000
v 0.130000 0.910000 1.560000
v 0.260000 0.910000 1.560000
v 0.390000 0.910000 1.560000
v -0.260000 1.040000 1.560000
v -0.130000 1.040000 1.560000
v 0.260000 1.040000 1.560000
v -0.130000 0.390000 1.690000
v 0.130000 0.390000 1.690000
v -0.260000 0.520000 1.690000
v -0.130000 0.520000 1.690000
v 0.130000 0.520000 1.690000
v 0.260000 0.520000 1.690000
v -0.260000 0.780000 1.690000
v -0.130000 0.780000 1.690000
v 0.130000 0.780000 1.690000
v 0.260000 0.780000 1.690000
v -0.130000 0.910000 1.690000
v 0.130000 0.910000 1.690000
v -0.910000 0.390000 -0.910000
v -0.910000 0.910000 -0.910000
v -0.910000 0.390000 -0.780000
v -0.910000 0.910000 -0.780000
v -0.780000 0.390000 -1.040000
v -0.780000 0.910000 -1.040000
v -0.780000 0.260000 -0.910000
v -0.780000 0.390000 -0.910000
v -0.780000 0.910000 -0.910000
v -0.780000 1.040000 -0.910000
v -0.780000 0.390000 -0.780000
v -0.780000 0.910000 -0.780000
v -0.780000 0.260000 -0.650000
v -0.780000 1.040000 -0.650000
v -0.780000 0.520000 0.130000
v -0.780000 0.650000 0.130000
v -0.780000 0.780000 0.130000
v -0.780000 0.390000 0.260000
v -0.780000 0.520000 0.260000
v -0.780000 0.650000 0.260000
v -0.780000 0.780000 0.260000
v -0.780000 0.910000 0.260000
v -0.780000 0.780000 0.650000
v -0.780000 0.910000 0.650000
v -0.780000 0.780000 0.780000
v -0.780000 0.910000 0.780000
v -0.780000 0.780000 1.040000
v -0.780000 0.910000 1.040000
v -0.780000 0.390000 1.170000
v -0.780000 0.520000 1.170000
v -0.780000 0.650000 1.170000
v -0.780000 0.780000 1.170000
v -0.780000 0.910000 1.170000
v -0.780000 0.520000 1.300000
v -0.780000 0.650000 1.300000
v -0.780000 0.780000 1.300000
v -0.650000 0.390000 -1.430000
v -0.650000 0.910000 -1.430000
v -0.650000 0.390000 -1.300000
v -0.650000 0.910000 -1.300000
v -0.650000 0.390000 -0.650000
v -0.650000 0.910000 -0.650000
v -0.650000 0.390000 -0.520000
v -0.650000 0.910000 -0.520000
v -0.650000 0.390000 -0.000000
v -0.650000 0.910000 -0.000000
v -0.650000 0.260000 0.130000
v -0.650000 0.390000 0.130000
v -0.650000 0.520000 0.130000
v -0.650000 0.650000 0.130000
v -0.650000 0.780000 0.130000
v -0.650000 0.910000 0.130000
v -0.650000 1.040000 0.130000
v -0.650000 0.390000 0.260000
v -0.650000 0.520000 0.260000
v -0.650000 0.780000 0.260000
v -0.650000 0.910000 0.260000
v -0.650000 1.040000 0.260000
v -0.650000 0.910000 0.650000
v -0.650000 1.040000 0.650000
v -0.650000 0.910000 0.780000
v -0.650000 1.040000 0.780000
v -0.650000 0.910000 1.040000
v -0.650000 0.390000 1.170000
v -0.650000 0.520000 1.170000
v -0.650000 0.780000 1.170000
v -0.650000 0.910000 1.170000
v -0.650000 1.040000 1.170000
v -0.650000 0.260000 1.300000
v -0.650000 0.390000 1.300000
v -0.650000 0.520000 1.300000
v -0.650000 0.650000 1.300000
v -0.650000 0.780000 1.300000
v -0.650000 0.910000 1.300000
v -0.650000 1.040000 1.300000
v -0.650000 0.390000 1.430000
v -0.650000 0.910000 1.430000
v -0.520000 0.390000 -1.560000
v -0.520000 0.910000 -1.560000
v -0.520000 0.260000 -1.430000
v -0.520000 0.390000 -1.430000
v -0.520000 0.910000 -1.430000
v -0.520000 1.040000 -1.430000
v -0.520000 0.260000 -1.300000
v -0.520000 0.390000 -1.300000
v -0.520000 0.910000 -1.300000
v -0.520000 1.040000 -1.300000
v -0.520000 0.390000 -1.170000
v -0.520000 0.910000 -1.170000
v -0.520000 0.260000 -0.650000
v -0.520000 0.390000 -0.650000
v -0.520000 0.910000 -0.650000
v -0.520000 1.040000 -0.650000
v -0.520000 0.260000 -0.520000
v -0.520000 0.390000 -0.520000
v -0.520000 0.910000 -0.520000
v -0.520000 1.040000 -0.520000
v -0.520000 0.390000 -0.390000
v -0.520000 0.910000 -0.390000
v -0.520000 0.520000 -0.130000
v -0.520000 0.780000 -0.130000
v -0.520000 0.260000 -0.000000
v -0.520000 0.390000 -0.000000
v -0.520000 0.520000 -0.000000
v -0.520000 0.780000 -0.000000
v -0.520000 0.910000 -0.000000
v -0.520000 1.040000 -0.000000
v -0.520000 0.260000 0.130000
v -0.520000 0.390000 0.130000
v -0.520000 0.910000 0.130000
v -0.520000 1.040000 0.130000
v -0.520000 0.260000 1.300000
v -0.520000 0.390000 1.300000
v -0.520000 0.910000 1.300000
v -0.520000 1.040000 1.300000
v -0.520000 0.260000 1.430000
v -0.520000 0.390000 1.430000
v -0.520000 0.520000 1.430000
v -0.520000 0.780000 1.430000
v -0.520000 0.910000 1.430000
v -0.520000 1.040000 1.430000
v -0.520000 0.520000 1.560000
v -0.520000 0.780000 1.560000
v -0.390000 0.260000 -1.300000
v -0.390000 0.390000 -1.300000
v -0.390000 0.910000 -1.300000
v -0.390000 1.040000 -1.300000
v -0.390000 0.260000 -1.170000
v -0.390000 0.390000 -1.170000
v -0.390000 0.910000 -1.170000
v -0.390000 1.040000 -1.170000
v -0.390000 0.390000 -1.040000
v -0.390000 0.910000 -1.040000
v -0.390000 0.260000 -0.520000
v -0.390000 0.390000 -0.520000
v -0.390000 0.910000 -0.520000
v -0.390000 1.040000 -0.520000
v -0.390000 0.260000 -0.390000
v -0.390000 0.390000 -0.390000
v -0.390000 0.910000 -0.390000
v -0.390000 1.040000 -0.390000
v -0.390000 0.390000 -0.130000
v -0.390000 0.520000 -0.130000
v -0.390000 0.780000 -0.130000
v -0.390000 0.910000 -0.130000
v -0.390000 0.390000 -0.000000
v -0.390000 0.520000 -0.000000
v -0.390000 0.780000 -0.000000
v -0.390000 0.910000 -0.000000
v -0.390000 0.390000 1.430000
v -0.390000 0.520000 1.430000
v -0.390000 0.780000 1.430000
v -0.390000 0.910000 1.430000
v -0.390000 0.390000 1.560000
v -0.390000 0.520000 1.560000
v -0.390000 0.780000 1.560000
v -0.390000 0.910000 1.560000
v -0.260000 0.260000 -1.170000
v -0.260000 0.390000 -1.170000
v -0.260000 0.910000 -1.170000
v -0.260000 1.040000 -1.170000
v -0.260000 0.390000 -1.040000
v -0.260000 0.910000 -1.040000
v -0.260000 0.260000 -0.910000
v -0.260000 0.390000 -0.910000
v -0.260000 0.910000 -0.910000
v -0.260000 1.040000 -0.910000
v -0.260000 0.390000 -0.780000
v -0.260000 0.910000 -0.780000
v -0.260000 0.390000 -0.390000
v -0.260000 0.910000 -0.390000
v -0.260000 0.260000 -0.130000
v -0.260000 0.390000 -0.130000
v -0.260000 0.780000 -0.130000
v -0.260000 0.910000 -0.130000
v -0.260000 1.040000 -0.130000
v -0.260000 0.260000 -0.000000
v -0.260000 0.390000 -0.000000
v -0.260000 0.910000 -0.000000
v -0.260000 1.040000 -0.000000
v -0.260000 0.260000 1.430000
v -0.260000 0.390000 1.430000
v -0.260000 0.910000 1.430000
v -0.260000 1.040000 1.430000
v -0.260000 0.260000 1.560000
v -0.260000 0.390000 1.560000
v -0.260000 0.520000 1.560000
v -0.260000 0.780000 1.560000
v -0.260000 0.910000 1.560000
v -0.260000 1.040000 1.560000
v -0.260000 0.520000 1.690000
v -0.260000 0.780000 1.690000
v -0.130000 0.260000 -0.910000
v -0.130000 0.390000 -0.910000
v -0.130000 0.910000 -0.910000
v -0.130000 1.040000 -0.910000
v -0.130000 0.390000 -0.780000
v -0.130000 0.910000 -0.780000
v -0.130000 0.390000 -0.650000
v -0.130000 0.910000 -0.650000
v -0.130000 0.260000 -0.520000
v -0.130000 0.390000 -0.520000
v -0.130000 0.910000 -0.520000
v -0.130000 1.040000 -0.520000
v -0.130000 0.260000 -0.390000
v -0.130000 0.390000 -0.390000
v -0.130000 0.910000 -0.390000
v -0.130000 1.040000 -0.390000
v -0.130000 0.260000 -0.260000
v -0.130000 0.390000 -0.260000
v -0.130000 0.910000 -0.260000
v -0.130000 1.040000 -0.260000
v -0.130000 0.260000 -0.130000
v -0.130000 0.390000 -0.130000
v -0.130000 0.910000 -0.130000
v -0.130000 1.040000 -0.130000
v -0.130000 0.390000 1.560000
v -0.130000 0.520000 1.560000
v -0.130000 0.780000 1.560000
v -0.130000 0.910000 1.560000
v -0.130000 0.390000 1.690000
v -0.130000 0.520000 1.690000
v -0.130000 0.780000 1.690000
v -0.130000 0.910000 1.690000
v 0.130000 0.390000 -1.300000
v 0.130000 0.910000 -1.300000
v 0.130000 0.260000 -1.170000
v 0.130000 0.390000 -1.170000
v 0.130000 0.910000 -1.170000
v 0.130000 1.040000 -1.170000
v 0.130000 0.260000 -0.910000
v 0.130000 1.040000 -0.910000
v 0.260000 0.390000 -1.430000
v 0.260000 0.910000 -1.430000
v 0.260000 0.260000 -1.300000
v 0.260000 0.390000 -1.300000
v 0.260000 0.910000 -1.300000
v 0.260000 1.040000 -1.300000
v 0.260000 0.260000 -1.170000
v 0.260000 0.390000 -1.170000
v 0.260000 0.910000 -1.170000
v 0.260000 1.040000 -1.170000
v 0.260000 0.260000 -0.650000
v 0.260000 0.390000 -0.650000
v 0.260000 0.910000 -0.650000
v 0.260000 1.040000 -0.650000
v 0.260000 0.260000 -0.520000
v 0.260000 0.390000 -0.520000
v 0.260000 0.910000 -0.520000
v 0.260000 1.040000 -0.520000
v 0.390000 0.390000 -1.560000
v 0.390000 0.910000 -1.560000
v 0.390000 0.260000 -1.430000
v 0.390000 0.390000 -1.430000
v 0.390000 0.910000 -1.430000
v 0.390000 1.040000 -1.430000
v 0.390000 0.260000 -1.300000
v 0.390000 0.390000 -1.300000
v 0.390000 0.910000 -1.300000
v 0.390000 1.040000 -1.300000
v 0.390000 0.390000 -0.780000
v 0.390000 0.910000 -0.780000
v 0.390000 0.390000 -0.650000
v 0.390000 0.910000 -0.650000
v 0.520000 0.260000 -0.780000
v 0.520000 0.390000 -0.780000
v 0.520000 0.910000 -0.780000
v 0.520000 1.040000 -0.780000
v 0.520000 0.260000 -0.650000
v 0.520000 0.390000 -0.650000
v 0.520000 0.910000 -0.650000
v 0.520000 1.040000 -0.650000
v 0.650000 0.390000 -1.040000
v 0.650000 0.910000 -1.040000
v 0.650000 0.260000 -0.910000
v 0.650000 0.390000 -0.910000
v 0.650000 0.910000 -0.910000
v 0.650000 1.040000 -0.910000
v 0.650000 0.260000 -0.780000
v 0.650000 1.040000 -0.780000
v -0.650000 0.390000 -1.040000
v -0.650000 0.910000 -1.040000
v -0.650000 0.260000 -0.910000
v -0.650000 0.390000 -0.910000
v -0.650000 0.910000 -0.910000
v -0.650000 1.040000 -0.910000
v -0.650000 0.260000 -0.780000
v -0.650000 1.040000 -0.780000
v -0.520000 0.260000 -0.780000
v -0.520000 0.390000 -0.780000
v -0.520000 0.910000 -0.780000
v -0.520000 1.040000 -0.780000
v -0.520000 0.260000 -0.650000
v -0.520000 0.390000 -0.650000
v -0.520000 0.910000 -0.650000
v -0.520000 1.040000 -0.650000
v -0.390000 0.390000 -1.560000
v -0.390000 0.910000 -1.560000
v -0.390000 0.260000 -1.430000
v -0.390000 0.390000 -1.430000
v -0.390000 0.910000 -1.430000
v -0.390000 1.040000 -1.430000
v -0.390000 0.260000 -1.300000
v -0.390000 0.390000 -1.300000
v -0.390000 0.910000 -1.300000
v -0.390000 1.040000 -1.300000
v -0.390000 0.390000 -0.780000
v -0.390000 0.910000 -0.780000
v -0.390000 0.390000 -0.650000
v -0.390000 0.910000 -0.650000
v -0.260000 0.390000 -1.430000
v -0.260000 0.910000 -1.430000
v -0.260000 0.260000 -1.300000
v -0.260000 0.390000 -1.300000
v -0.260000 0.910000 -1.300000
v -0.260000 1.040000 -1.300000
v -0.260000 0.260000 -1.170000
v -0.260000 0.390000 -1.170000
v -0.260000 0.910000 -1.170000
v -0.260000 1.040000 -1.170000
v -0.260000 0.260000 -0.650000
v -0.260000 0.390000 -0.650000
v -0.260000 0.910000 -0.650000
v -0.260000 1.040000 -0.650000
v -0.260000 0.260000 -0.520000
v -0.260000 0.390000 -0.520000
v -0.260000 0.910000 -0.520000
v -0.260000 1.040000 -0.520000
v -0.130000 0.390000 -1.300000
v -0.130000 0.910000 -1.300000
v -0.130000 0.260000 -1.170000
v -0.130000 0.390000 -1.170000
v -0.130000 0.910000 -1.170000
v -0.130000 1.040000 -1.170000
v -0.130000 0.260000 -0.910000
v -0.130000 1.040000 -0.910000
v 0.130000 0.260000 -0.910000
v 0.130000 0.390000 -0.910000
v 0.130000 0.910000 -0.910000
v 0.130000 1.040000 -0.910000
v 0.130000 0.390000 -0.780000
v 0.130000 0.910000 -0.780000
v 0.130000 0.390000 -0.650000
v 0.130000 0.910000 -0.650000
v 0.130000 0.260000 -0.520000
v 0.130000 0.390000 -0.520000
v 0.130000 0.910000 -0.520000
v 0.130000 1.040000 -0.520000
v 0.130000 0.260000 -0.390000
v 0.130000 0.390000 -0.390000
v 0.130000 0.910000 -0.390000
v 0.130000 1.040000 -0.390000
v 0.130000 0.260000 -0.260000
v 0.130000 0.390000 -0.260000
v 0.130000 0.910000 -0.260000
v 0.130000 1.040000 -0.260000
v 0.130000 0.260000 -0.130000
v 0.130000 0.390000 -0.130000
v 0.130000 0.910000 -0.130000
v 0.130000 1.040000 -0.130000
v 0.130000 0.390000 1.560000
v 0.130000 0.520000 1.560000
v 0.130000 0.780000 1.560000
v 0.130000 0.910000 1.560000
v 0.130000 0.390000 1.690000
v 0.130000 0.520000 1.690000
v 0.130000 0.780000 1.690000
v 0.130000 0.910000 1.690000
v 0.260000 0.260000 -1.170000
v 0.260000 0.390000 -1.170000
v 0.260000 0.910000 -1.170000
v 0.260000 1.040000 -1.170000
v 0.260000 0.390000 -1.040000
v 0.260000 0.910000 -1.040000
v 0.260000 0.260000 -0.910000
v 0.260000 0.390000 -0.910000
v 0.260000 0.910000 -0.910000
v 0.260000 1.040000 -0.910000
v 0.260000 0.390000 -0.780000
v 0.260000 0.910000 -0.780000
v 0.260000 0.390000 -0.390000
v 0.260000 0.910000 -0.390000
v 0.260000 0.260000 -0.130000
v 0.260000 0.390000 -0.130000
v 0.260000 0.910000 -0.130000
v 0.260000 1.040000 -0.130000
v 0.260000 0.260000 0.000000
v 0.260000 0.390000 0.000000
v 0.260000 0.910000 0.000000
v 0.260000 1.040000 0.000000
v 0.260000 0.260000 1.430000
v 0.260000 0.390000 1.430000
v 0.260000 0.910000 1.430000
v 0.260000 1.040000 1.430000
v 0.260000 0.260000 1.560000
v 0.260000 0.390000 1.560000
v 0.260000 0.520000 1.560000
v 0.260000 0.780000 1.560000
v 0.260000 0.910000 1.560000
v 0.260000 1.040000 1.560000
v 0.260000 0.520000 1.690000
v 0.260000 0.780000 1.690000
v 0.390000 0.260000 -1.300000
v 0.390000 0.390000 -1.300000
v 0.390000 0.910000 -1.300000
v 0.390000 1.040000 -1.300000
v 0.390000 0.260000 -1.170000
v 0.390000 0.390000 -1.170000
v 0.390000 0.910000 -1.170000
v 0.390000 1.040000 -1.170000
v 0.390000 0.390000 -1.040000
v 0.390000 0.910000 -1.040000
v 0.390000 0.260000 -0.520000
v 0.390000 0.390000 -0.520000
v 0.390000 0.910000 -0.520000
v 0.390000 1.040000 -0.520000
v 0.390000 0.260000 -0.390000
v 0.390000 0.390000 -0.390000
v 0.390000 0.910000 -0.390000
v 0.390000 1.040000 -0.390000
v 0.390000 0.390000 -0.130000
v 0.390000 0.520000 -0.130000
v 0.390000 0.780000 -0.130000
v 0.390000 0.910000 -0.130000
v 0.390000 0.390000 0.000000
v 0.390000 0.520000 0.000000
v 0.390000 0.780000 0.000000
v 0.390000 0.910000 0.000000
v 0.390000 0.390000 1.430000
v 0.390000 0.520000 1.430000
v 0.390000 0.780000 1.430000
v 0.390000 0.910000 1.430000
v 0.390000 0.390000 1.560000
v 0.390000 0.520000 1.560000
v 0.390000 0.780000 1.560000
v 0.390000 0.910000 1.560000
v 0.520000 0.390000 -1.560000
v 0.520000 0.910000 -1.560000
v 0.520000 0.260000 -1.430000
v 0.520000 0.390000 -1.430000
v 0.520000 0.910000 -1.430000
v 0.520000 1.040000 -1.430000
v 0.520000 0.260000 -1.300000
v 0.520000 0.390000 -1.300000
v 0.520000 0.910000 -1.300000
v 0.520000 1.040000 -1.300000
v 0.520000 0.390000 -1.170000
v 0.520000 0.910000 -1.170000
v 0.520000 0.260000 -0.650000
v 0.520000 0.390000 -0.650000
v 0.520000 0.910000 -0.650000
v 0.520000 1.040000 -0.650000
v 0.520000 0.260000 -0.520000
v 0.520000 0.390000 -0.520000
v 0.520000 0.910000 -0.520000
v 0.520000 1.040000 -0.520000
v 0.520000 0.390000 -0.390000
v 0.520000 0.910000 -0.390000
v 0.520000 0.520000 -0.130000
v 0.520000 0.780000 -0.130000
v 0.520000 0.260000 0.000000
v 0.520000 0.390000 0.000000
v 0.520000 0.520000 0.000000
v 0.520000 0.780000 0.000000
v 0.520000 0.910000 0.000000
v 0.520000 1.040000 0.000000
v 0.520000 0.260000 0.130000
v 0.520000 0.390000 0.130000
v 0.520000 0.910000 0.130000
v 0.520000 1.040000 0.130000
v 0.520000 0.260000 1.300000
v 0.520000 0.390000 1.300000
v 0.520000 0.910000 1.300000
v 0.520000 1.040000 1.300000
v 0.520000 0.260000 1.430000
v 0.520000 0.390000 1.430000
v 0.520000 0.520000 1.430000
v 0.520000 0.780000 1.430000
v 0.520000 0.910000 1.430000
v 0.520000 1.040000 1.430000
v 0.520000 0.520000 1.560000
v 0.520000 0.780000 1.560000
v 0.650000 0.390000 -1.430000
v 0.650000 0.910000 -1.430000
v 0.650000 0.390000 -1.300000
v 0.650000 0.910000 -1.300000
v 0.650000 0.390000 -0.650000
v 0.650000 0.910000 -0.650000
v 0.650000 0.390000 -0.520000
v 0.650000 0.910000 -0.520000
v 0.650000 0.390000 0.000000
v 0.650000 0.910000 0.000000
v 0.650000 0.260000 0.130000
v 0.650000 0.390000 0.130000
v 0.650000 0.520000 0.130000
v 0.650000 0.780000 0.130000
v 0.650000 0.910000 0.130000
v 0.650000 1.040000 0.130000
v 0.650000 0.390000 0.260000
v 0.650000 0.520000 0.260000
v 0.650000 0.780000 0.260000
v 0.650000 0.910000 0.260000
v 0.650000 0.910000 0.390000
v 0.650000 1.040000 0.390000
v 0.650000 0.910000 0.650000
v 0.650000 1.040000 0.650000
v 0.650000 0.910000 0.780000
v 0.650000 1.040000 0.780000
v 0.650000 0.910000 0.910000
v 0.650000 0.390000 1.170000
v 0.650000 0.520000 1.170000
v 0.650000 0.780000 1.170000
v 0.650000 0.910000 1.170000
v 0.650000 1.040000 1.170000
v 0.650000 0.260000 1.300000
v 0.650000 0.390000 1.300000
v 0.650000 0.520000 1.300000
v 0.650000 0.650000 1.300000
v 0.650000 0.780000 1.300000
v 0.650000 0.910000 1.300000
v 0.650000 1.040000 1.300000
v 0.650000 0.390000 1.430000
v 0.650000 0.910000 1.430000
v 0.780000 0.390000 -1.040000
v 0.780000 0.910000 -1.040000
v 0.780000 0.260000 -0.910000
v 0.780000 0.390000 -0.910000
v 0.780000 0.910000 -0.910000
v 0.780000 1.040000 -0.910000
v 0.780000 0.390000 -0.780000
v 0.780000 0.910000 -0.780000
v 0.780000 0.260000 -0.650000
v 0.780000 1.040000 -0.650000
v 0.780000 0.520000 0.130000
v 0.780000 0.780000 0.130000
v 0.780000 0.390000 0.260000
v 0.780000 0.520000 0.260000
v 0.780000 0.780000 0.260000
v 0.780000 0.910000 0.260000
v 0.780000 0.780000 0.390000
v 0.780000 0.910000 0.390000
v 0.780000 0.780000 0.650000
v 0.780000 0.910000 0.650000
v 0.780000 0.780000 0.910000
v 0.780000 0.910000 0.910000
v 0.780000 0.390000 1.170000
v 0.780000 0.520000 1.170000
v 0.780000 0.650000 1.170000
v 0.780000 0.780000 1.170000
v 0.780000 0.910000 1.170000
v 0.780000 0.520000 1.300000
v 0.780000 0.650000 1.300000
v 0.780000 0.780000 1.300000
v 0.910000 0.390000 -0.910000
v 0.910000 0.910000 -0.910000
v 0.910000 0.390000 -0.780000
v 0.910000 0.910000 -0.780000
v -0.780000 0.260000 -0.910000
v -0.780000 0.260000 -0.650000
v -0.650000 0.260000 -0.910000
v -0.650000 0.260000 -0.780000
v -0.650000 0.260000 0.130000
v -0.650000 0.260000 1.300000
v -0.520000 0.260000 -1.430000
v -0.520000 0.260000 -1.300000
v -0.520000 0.260000 -0.780000
v -0.520000 0.260000 -0.650000
v -0.520000 0.260000 -0.520000
v -0.520000 0.260000 -0.000000
v -0.520000 0.260000 0.130000
v -0.520000 0.260000 1.300000
v -0.520000 0.260000 1.430000
v -0.390000 0.260000 -1.430000
v -0.390000 0.260000 -1.300000
v -0.390000 0.260000 -1.170000
v -0.390000 0.260000 -0.520000
v -0.390000 0.260000 -0.390000
v -0.260000 0.260000 -1.300000
v -0.260000 0.260000 -1.170000
v -0.260000 0.260000 -0.910000
v -0.260000 0.260000 -0.650000
v -0.260000 0.260000 -0.520000
v -0.260000 0.260000 -0.130000
v -0.260000 0.260000 -0.000000
v -0.260000 0.260000 1.430000
v -0.260000 0.260000 1.560000
v -0.130000 0.260000 -1.170000
v -0.130000 0.260000 -0.910000
v -0.130000 0.260000 -0.520000
v -0.130000 0.260000 -0.390000
v -0.130000 0.260000 -0.260000
v -0.130000 0.260000 -0.130000
v 0.130000 0.260000 -1.170000
v 0.130000 0.260000 -0.910000
v 0.130000 0.260000 -0.520000
v 0.130000 0.260000 -0.390000
v 0.130000 0.260000 -0.260000
v 0.130000 0.260000 -0.130000
v 0.260000 0.260000 -1.300000
v 0.260000 0.260000 -1.170000
v 0.260000 0.260000 -0.910000
v 0.260000 0.260000 -0.650000
v 0.260000 0.260000 -0.520000
v 0.260000 0.260000 -0.130000
v 0.260000 0.260000 0.000000
v 0.260000 0.260000 1.430000
v 0.260000 0.260000 1.560000
v 0.390000 0.260000 -1.430000
v 0.390000 0.260000 -1.300000
v 0.390000 0.260000 -1.170000
v 0.390000 0.260000 -0.520000
v 0.390000 0.260000 -0.390000
v 0.520000 0.260000 -1.430000
v 0.520000 0.260000 -1.300000
v 0.520000 0.260000 -0.780000
v 0.520000 0.260000 -0.650000
v 0.520000 0.260000 -0.520000
v 0.520000 0.260000 0.000000
v 0.520000 0.260000 0.130000
v 0.520000 0.260000 1.300000
v 0.520000 0.260000 1.430000
v 0.650000 0.260000 -0.910000
v 0.650000 0.260000 -0.780000
v 0.650000 0.260000 0.130000
v 0.650000 0.260000 1.300000
v 0.780000 0.260000 -0.910000
v 0.780000 0.260000 -0.650000
v -0.910000 0.390000 -0.910000
v -0.910000 0.390000 -0.780000
v -0.780000 0.390000 -1.040000
v -0.780000 0.390000 -0.910000
v -0.780000 0.390000 -0.780000
v -0.780000 0.390000 0.260000
v -0.780000 0.390000 1.170000
v -0.650000 0.390000 -1.430000
v -0.650000 0.390000 -1.300000
v -0.650000 0.390000 -1.040000
v -0.650000 0.390000 -0.910000
v -0.650000 0.390000 -0.650000
v -0.650000 0.390000 -0.520000
v -0.650000 0.390000 -0.000000
v -0.650000 0.390000 0.130000
v -0.650000 0.390000 0.260000
v -0.650000 0.390000 1.170000
v -0.650000 0.390000 1.300000
v -0.650000 0.390000 1.430000
v -0.520000 0.390000 -1.560000
v -0.520000 0.390000 -1.430000
v -0.520000 0.390000 -1.300000
v -0.520000 0.390000 -1.170000
v -0.520000 0.390000 -0.780000
v -0.520000 0.390000 -0.650000
v -0.520000 0.390000 -0.520000
v -0.520000 0.390000 -0.390000
v -0.520000 0.390000 -0.000000
v -0.520000 0.390000 0.130000
v -0.520000 0.390000 1.300000
v -0.520000 0.390000 1.430000
v -0.390000 0.390000 -1.560000
v -0.390000 0.390000 -1.430000
v -0.390000 0.390000 -1.300000
v -0.390000 0.390000 -1.170000
v -0.390000 0.390000 -1.040000
v -0.390000 0.390000 -0.780000
v -0.390000 0.390000 -0.650000
v -0.390000 0.390000 -0.520000
v -0.390000 0.390000 -0.390000
v -0.390000 0.390000 -0.130000
v -0.390000 0.390000 -0.000000
v -0.390000 0.390000 1.430000
v -0.390000 0.390000 1.560000
v -0.260000 0.390000 -1.430000
v -0.260000 0.390000 -1.300000
v -0.260000 0.390000 -1.170000
v -0.260000 0.390000 -1.040000
v -0.260000 0.390000 -0.910000
v -0.260000 0.390000 -0.780000
v -0.260000 0.390000 -0.650000
v -0.260000 0.390000 -0.520000
v -0.260000 0.390000 -0.390000
v -0.260000 0.390000 -0.130000
v -0.260000 0.390000 -0.000000
v -0.260000 0.390000 1.430000
v -0.260000 0.390000 1.560000
v -0.130000 0.390000 -1.300000
v -0.130000 0.390000 -1.170000
v -0.130000 0.390000 -0.910000
v -0.130000 0.390000 -0.780000
v -0.130000 0.390000 -0.650000
v -0.130000 0.390000 -0.520000
v -0.130000 0.390000 -0.390000
v -0.130000 0.390000 -0.260000
v -0.130000 0.390000 -0.130000
v -0.130000 0.390000 1.560000
v -0.130000 0.390000 1.690000
v 0.130000 0.390000 -1.300000
v 0.130000 0.390000 -1.170000
v 0.130000 0.390000 -0.910000
v 0.130000 0.390000 -0.780000
v 0.130000 0.390000 -0.650000
v 0.130000 0.390000 -0.520000
v 0.130000 0.390000 -0.390000
v 0.130000 0.390000 -0.260000
v 0.130000 0.390000 -0.130000
v 0.130000 0.390000 1.560000
v 0.130000 0.390000 1.690000
v 0.260000 0.390000 -1.430000
v 0.260000 0.390000 -1.300000
v 0.260000 0.390000 -1.170000
v 0.260000 0.390000 -1.040000
v 0.260000 0.390000 -0.910000
v 0.260000 0.390000 -0.780000
v 0.260000 0.390000 -0.650000
v 0.260000 0.390000 -0.520000
v 0.260000 0.390000 -0.390000
v 0.260000 0.390000 -0.130000
v 0.260000 0.390000 0.000000
v 0.260000 0.390000 1.430000
v 0.260000 0.390000 1.560000
v 0.390000 0.390000 -1.560000
v 0.390000 0.390000 -1.430000
v 0.390000 0.390000 -1.300000
v 0.390000 0.390000 -1.170000
v 0.390000 0.390000 -1.040000
v 0.390000 0.390000 -0.780000
v 0.390000 0.390000 -0.650000
v 0.390000 0.390000 -0.520000
v 0.390000 0.390000 -0.390000
v 0.390000 0.390000 -0.130000
v 0.390000 0.390000 0.000000
v 0.390000 0.390000 1.430000
v 0.390000 0.390000 1.560000
v 0.520000 0.390000 -1.560000
v 0.520000 0.390000 -1.430000
v 0.520000 0.390000 -1.300000
v 0.520000 0.390000 -1.170000
v 0.520000 0.390000 -0.780000
v 0.520000 0.390000 -0.650000
v 0.520000 0.390000 -0.520000
v 0.520000 0.390000 -0.390000
v 0.520000 0.390000 0.000000
v 0.520000 0.390000 0.130000
v 0.520000 0.390000 1.300000
v 0.520000 0.390000 1.430000
v 0.650000 0.390000 -1.430000
v 0.650000 0.390000 -1.300000
v 0.650000 0.390000 -1.040000
v 0.650000 0.390000 -0.910000
v 0.650000 0.390000 -0.650000
v 0.650000 0.390000 -0.520000
v 0.650000 0.390000 0.000000
v 0.650000 0.390000 0.130000
v 0.650000 0.390000 0.260000
v 0.650000 0.390000 1.170000
v 0.650000 0.390000 1.300000
v 0.650000 0.390000 1.430000
v 0.780000 0.390000 -1.040000
v 0.780000 0.390000 -0.910000
v 0.780000 0.390000 -0.780000
v 0.780000 0.390000 0.260000
v 0.780000 0.390000 1.170000
v 0.910000 0.390000 -0.910000
v 0.910000 0.390000 -0.780000
v -0.780000 0.520000 0.130000
v -0.780000 0.520000 0.260000
v -0.780000 0.520000 1.170000
v -0.780000 0.520000 1.300000
v -0.650000 0.520000 0.130000
v -0.650000 0.520000 0.260000
v -0.650000 0.520000 1.170000
v -0.650000 0.520000 1.300000
v -0.520000 0.520000 -0.130000
v -0.520000 0.520000 -0.000000
v -0.520000 0.520000 1.430000
v -0.520000 0.520000 1.560000
v -0.390000 0.520000 -0.130000
v -0.390000 0.520000 -0.000000
v -0.390000 0.520000 1.430000
v -0.390000 0.520000 1.560000
v -0.260000 0.520000 1.560000
v -0.260000 0.520000 1.690000
v -0.130000 0.520000 1.560000
v -0.130000 0.520000 1.690000
v 0.130000 0.520000 1.560000
v 0.130000 0.520000 1.690000
v 0.260000 0.520000 1.560000
v 0.260000 0.520000 1.690000
v 0.390000 0.520000 -0.130000
v 0.390000 0.520000 0.000000
v 0.390000 0.520000 1.430000
v 0.390000 0.520000 1.560000
v 0.520000 0.520000 -0.130000
v 0.520000 0.520000 0.000000
v 0.520000 0.520000 1.430000
v 0.520000 0.520000 1.560000
v 0.650000 0.520000 0.130000
v 0.650000 0.520000 0.260000
v 0.650000 0.520000 1.170000
v 0.650000 0.520000 1.300000
v 0.780000 0.520000 0.130000
v 0.780000 0.520000 0.260000
v 0.780000 0.520000 1.170000
v 0.780000 0.520000 1.300000
v -0.780000 0.780000 0.130000
v -0.780000 0.780000 0.260000
v -0.780000 0.780000 1.170000
v -0.780000 0.780000 1.300000
v -0.650000 0.780000 0.130000
v -0.650000 0.780000 0.260000
v -0.650000 0.780000 1.170000
v -0.650000 0.780000 1.300000
v -0.520000 0.780000 -0.130000
v -0.520000 0.780000 -0.000000
v -0.520000 0.780000 1.430000
v -0.520000 0.780000 1.560000
v -0.390000 0.780000 -0.130000
v -0.390000 0.780000 -0.000000
v -0.390000 0.780000 1.430000
v -0.390000 0.780000 1.560000
v -0.260000 0.780000 1.560000
v -0.260000 0.780000 1.690000
v -0.130000 0.780000 1.560000
v -0.130000 0.780000 1.690000
v 0.130000 0.780000 1.560000
v 0.130000 0.780000 1.690000
v 0.260000 0.780000 1.560000
v 0.260000 0.780000 1.690000
v 0.390000 0.780000 -0.130000
v 0.390000 0.780000 0.000000
v 0.390000 0.780000 1.430000
v 0.390000 0.780000 1.560000
v 0.520000 0.780000 -0.130000
v 0.520000 0.780000 0.000000
v 0.520000 0.780000 1.430000
v 0.520000 0.780000 1.560000
v 0.650000 0.780000 0.130000
v 0.650000 0.780000 0.260000
v 0.650000 0.780000 1.170000
v 0.650000 0.780000 1.300000
v 0.780000 0.780000 0.130000
v 0.780000 0.780000 0.260000
v 0.780000 0.780000 1.170000
v 0.780000 0.780000 1.300000
v -0.910000 0.910000 -0.910000
v -0.910000 0.910000 -0.780000
v -0.780000 0.910000 -1.040000
v -0.780000 0.910000 -0.910000
v -0.780000 0.910000 -0.780000
v -0.780000 0.910000 0.260000
v -0.780000 0.910000 0.650000
v -0.780000 0.910000 0.780000
v -0.780000 0.910000 1.040000
v -0.780000 0.910000 1.170000
v -0.650000 0.910000 -1.430000
v -0.650000 0.910000 -1.300000
v -0.650000 0.910000 -1.040000
v -0.650000 0.910000 -0.910000
v -0.650000 0.910000 -0.650000
v -0.650000 0.910000 -0.520000
v -0.650000 0.910000 -0.000000
v -0.650000 0.910000 0.130000
v -0.650000 0.910000 0.260000
v -0.650000 0.910000 0.650000
v -0.650000 0.910000 0.780000
v -0.650000 0.910000 1.040000
v -0.650000 0.910000 1.170000
v -0.650000 0.910000 1.300000
v -0.650000 0.910000 1.430000
v -0.520000 0.910000 -1.560000
v -0.520000 0.910000 -1.430000
v -0.520000 0.910000 -1.300000
v -0.520000 0.910000 -1.170000
v -0.520000 0.910000 -0.780000
v -0.520000 0.910000 -0.650000
v -0.520000 0.910000 -0.520000
v -0.520000 0.910000 -0.390000
v -0.520000 0.910000 -0.000000
v -0.520000 0.910000 0.130000
v -0.520000 0.910000 1.300000
v -0.520000 0.910000 1.430000
v -0.390000 0.910000 -1.560000
v -0.390000 0.910000 -1.430000
v -0.390000 0.910000 -1.300000
v -0.390000 0.910000 -1.170000
v -0.390000 0.910000 -1.040000
v -0.390000 0.910000 -0.780000
v -0.390000 0.910000 -0.650000
v -0.390000 0.910000 -0.520000
v -0.390000 0.910000 -0.390000
v -0.390000 0.910000 -0.130000
v -0.390000 0.910000 -0.000000
v -0.390000 0.910000 1.430000
v -0.390000 0.910000 1.560000
v -0.260000 0.910000 -1.430000
v -0.260000 0.910000 -1.300000
v -0.260000 0.910000 -1.170000
v -0.260000 0.910000 -1.040000
v -0.260000 0.910000 -0.910000
v -0.260000 0.910000 -0.780000
v -0.260000 0.910000 -0.650000
v -0.260000 0.910000 -0.520000
v -0.260000 0.910000 -0.390000
v -0.260000 0.910000 -0.130000
v -0.260000 0.910000 -0.000000
v -0.260000 0.910000 1.430000
v -0.260000 0.910000 1.560000
v -0.130000 0.910000 -1.300000
v -0.130000 0.910000 -1.170000
v -0.130000 0.910000 -0.910000
v -0.130000 0.910000 -0.780000
v -0.130000 0.910000 -0.650000
v -0.130000 0.910000 -0.520000
v -0.130000 0.910000 -0.390000
v -0.130000 0.910000 -0.260000
v -0.130000 0.910000 -0.130000
v -0.130000 0.910000 1.560000
v -0.130000 0.910000 1.690000
v 0.130000 0.910000 -1.300000
v 0.130000 0.910000 -1.170000
v 0.130000 0.910000 -0.910000
v 0.130000 0.910000 -0.780000
v 0.130000 0.910000 -0.650000
v 0.130000 0.910000 -0.520000
v 0.130000 0.910000 -0.390000
v 0.130000 0.910000 -0.260000
v 0.130000 0.910000 -0.130000
v 0.130000 0.910000 1.560000
v 0.130000 0.910000 1.690000
v 0.260000 0.910000 -1.430000
v 0.260000 0.910000 -1.300000
v 0.260000 0.910000 -1.170000
v 0.260000 0.910000 -1.040000
v 0.260000 0.910000 -0.910000
v 0.260000 0.910000 -0.780000
v 0.260000 0.910000 -0.650000
v 0.260000 0.910000 -0.520000
v 0.260000 0.910000 -0.390000
v 0.260000 0.910000 -0.130000
v 0.260000 0.910000 0.000000
v 0.260000 0.910000 1.430000
v 0.260000 0.910000 1.560000
v 0.390000 0.910000 -1.560000
v 0.390000 0.910000 -1.430000
v 0.390000 0.910000 -1.300000
v 0.390000 0.910000 -1.170000
v 0.390000 0.910000 -1.040000
v 0.390000 0.910000 -0.780000
v 0.390000 0.910000 -0.650000
v 0.390000 0.910000 -0.520000
v 0.390000 0.910000 -0.390000
v 0.390000 0.910000 -0.130000
v 0.390000 0.910000 0.000000
v 0.390000 0.910000 1.430000
v 0.390000 0.910000 1.560000
v 0.520000 0.910000 -1.560000
v 0.520000 0.910000 -1.430000
v 0.520000 0.910000 -1.300000
v 0.520000 0.910000 -1.170000
v 0.520000 0.910000 -0.780000
v 0.520000 0.910000 -0.650000
v 0.520000 0.910000 -0.520000
v 0.520000 0.910000 -0.390000
v 0.520000 0.910000 0.000000
v 0.520000 0.910000 0.130000
v 0.520000 0.910000 1.300000
v 0.520000 0.910000 1.430000
v 0.650000 0.910000 -1.430000
v 0.650000 0.910000 -1.300000
v 0.650000 0.910000 -1.040000
v 0.650000 0.910000 -0.910000
v 0.650000 0.910000 -0.650000
v 0.650000 0.910000 -0.520000
v 0.650000 0.910000 0.000000
v 0.650000 0.910000 0.130000
v 0.650000 0.910000 0.260000
v 0.650000 0.910000 0.390000
v 0.650000 0.910000 0.650000
v 0.650000 0.910000 0.780000
v 0.650000 0.910000 0.910000
v 0.650000 0.910000 1.170000
v 0.650000 0.910000 1.300000
v 0.650000 0.910000 1.430000
v 0.780000 0.910000 -1.040000
v 0.780000 0.910000 -0.910000
v 0.780000 0.910000 -0.780000
v 0.780000 0.910000 0.260000
v 0.780000 0.910000 0.390000
v 0.780000 0.910000 0.650000
v 0.780000 0.910000 0.910000
v 0.780000 0.910000 1.170000
v 0.910000 0.910000 -0.910000
v 0.910000 0.910000 -0.780000
v -0.780000 1.040000 -0.910000
v -0.780000 1.040000 -0.650000
v -0.650000 1.040000 -0.910000
v -0.650000 1.040000 -0.780000
v -0.650000 1.040000 0.130000
v -0.650000 1.040000 0.260000
v -0.650000 1.040000 0.650000
v -0.650000 1.040000 0.780000
v -0.650000 1.040000 1.170000
v -0.650000 1.040000 1.300000
v -0.520000 1.040000 -1.430000
v -0.520000 1.040000 -1.300000
v -0.520000 1.040000 -0.780000
v -0.520000 1.040000 -0.650000
v -0.520000 1.040000 -0.520000
v -0.520000 1.040000 -0.000000
v -0.520000 1.040000 0.130000
v -0.520000 1.040000 0.260000
v -0.520000 1.040000 0.390000
v -0.520000 1.040000 1.300000
v -0.520000 1.040000 1.430000
v -0.390000 1.040000 -1.430000
v -0.390000 1.040000 -1.300000
v -0.390000 1.040000 -1.170000
v -0.390000 1.040000 -0.520000
v -0.390000 1.040000 -0.390000
v -0.390000 1.040000 0.650000
v -0.390000 1.040000 0.780000
v -0.390000 1.040000 0.910000
v -0.390000 1.040000 1.170000
v -0.390000 1.040000 1.300000
v -0.390000 1.040000 1.430000
v -0.260000 1.040000 -1.300000
v -0.260000 1.040000 -1.170000
v -0.260000 1.040000 -0.910000
v -0.260000 1.040000 -0.650000
v -0.260000 1.040000 -0.520000
v -0.260000 1.040000 -0.130000
v -0.260000 1.040000 -0.000000
v -0.260000 1.040000 0.260000
v -0.260000 1.040000 0.390000
v -0.260000 1.040000 0.520000
v -0.260000 1.040000 1.430000
v -0.260000 1.040000 1.560000
v -0.130000 1.040000 -1.170000
v -0.130000 1.040000 -0.910000
v -0.130000 1.040000 -0.520000
v -0.130000 1.040000 -0.390000
v -0.130000 1.040000 -0.260000
v -0.130000 1.040000 -0.130000
v -0.130000 1.040000 -0.000000
v -0.130000 1.040000 0.130000
v -0.130000 1.040000 0.780000
v -0.130000 1.040000 0.910000
v -0.130000 1.040000 1.040000
v -0.130000 1.040000 1.300000
v -0.130000 1.040000 1.430000
v -0.130000 1.040000 1.560000
v 0.000000 1.040000 -0.130000
v 0.000000 1.040000 0.000000
v 0.130000 1.040000 -1.170000
v 0.130000 1.040000 -0.910000
v 0.130000 1.040000 -0.520000
v 0.130000 1.040000 -0.390000
v 0.130000 1.040000 -0.260000
v 0.130000 1.040000 -0.130000
v 0.130000 1.040000 0.390000
v 0.130000 1.040000 0.520000
v 0.130000 1.040000 0.650000
v 0.260000 1.040000 -1.300000
v 0.260000 1.040000 -1.170000
v 0.260000 1.040000 -0.910000
v 0.260000 1.040000 -0.650000
v 0.260000 1.040000 -0.520000
v 0.260000 1.040000 -0.130000
v 0.260000 1.040000 0.000000
v 0.260000 1.040000 0.130000
v 0.260000 1.040000 0.260000
v 0.260000 1.040000 0.910000
v 0.260000 1.040000 1.040000
v 0.260000 1.040000 1.170000
v 0.260000 1.040000 1.430000
v 0.260000 1.040000 1.560000
v 0.390000 1.040000 -1.430000
v 0.390000 1.040000 -1.300000
v 0.390000 1.040000 -1.170000
v 0.390000 1.040000 -0.520000
v 0.390000 1.040000 -0.390000
v 0.390000 1.040000 0.000000
v 0.390000 1.040000 0.130000
v 0.520000 1.040000 -1.430000
v 0.520000 1.040000 -1.300000
v 0.520000 1.040000 -0.780000
v 0.520000 1.040000 -0.650000
v 0.520000 1.040000 -0.520000
v 0.520000 1.040000 0.000000
v 0.520000 1.040000 0.130000
v 0.520000 1.040000 0.260000
v 0.520000 1.040000 0.390000
v 0.520000 1.040000 0.520000
v 0.520000 1.040000 0.650000
v 0.520000 1.040000 0.780000
v 0.520000 1.040000 1.040000
v 0.520000 1.040000 1.170000
v 0.520000 1.040000 1.300000
v 0.520000 1.040000 1.430000
v 0.650000 1.040000 -0.910000
v 0.650000 1.040000 -0.780000
v 0.650000 1.040000 0.130000
v 0.650000 1.040000 0.390000
v 0.650000 1.040000 0.650000
v 0.650000 1.040000 0.780000
v 0.650000 1.040000 1.170000
v 0.650000 1.040000 1.300000
v 0.780000 1.040000 -0.910000
v 0.780000 1.040000 -0.650000
vn -0.0000 -0.0000 -1.0000
vn -0.0000 -0.0000 1.0000
vn -1.0000 -0.0000 -0.0000
vn 1.0000 -0.0000 -0.0000
vn -0.0000 -1.0000 -0.0000
vn -0.0000 1.0000 -0.0000
vt 0.607422 0.500000
vt 0.595703 0.500000
vt 0.431641 0.500000
vt 0.373047 0.500000
s 1
usemtl palette.034
f 5/1/1 2/1/1 1/1/1
f 6/1/1 2/1/1 5/1/1
f 7/1/1 4/1/1 3/1/1
f 8/1/1 4/1/1 7/1/1
f 14/1/1 10/1/1 9/1/1
f 15/1/1 10/1/1 14/1/1
f 18/1/1 12/1/1 11/1/1
f 19/1/1 12/1/1 18/1/1
f 21/1/1 14/1/1 13/1/1
f 22/1/1 14/1/1 21/1/1
f 23/1/1 16/1/1 15/1/1
f 24/1/1 16/1/1 23/1/1
f 25/1/1 18/1/1 17/1/1
f 26/1/1 18/1/1 25/1/1
f 27/1/1 20/1/1 19/1/1
f 28/1/1 20/1/1 27/1/1
f 29/1/1 23/1/1 22/1/1
f 30/1/1 23/1/1 29/1/1
f 31/1/1 27/1/1 26/1/1
f 32/1/1 27/1/1 31/1/1
f 37/1/1 34/1/1 33/1/1
f 38/1/1 34/1/1 37/1/1
f 41/1/1 36/1/1 35/1/1
f 42/1/1 36/1/1 41/1/1
f 44/1/1 39/1/1 38/1/1
f 45/1/1 39/1/1 44/1/1
f 46/1/1 41/1/1 40/1/1
f 47/1/1 41/1/1 46/1/1
f 49/1/1 44/1/1 43/1/1
f 50/1/1 44/1/1 49/1/1
f 51/1/1 48/1/1 47/1/1
f 52/1/1 48/1/1 51/1/1
f 57/1/1 54/1/1 53/1/1
f 58/1/1 54/1/1 57/1/1
f 59/1/1 56/1/1 55/1/1
f 60/1/1 56/1/1 59/1/1
f 65/1/1 62/1/1 61/1/1
f 66/1/1 62/1/1 65/1/1
f 67/1/1 64/1/1 63/1/1
f 68/1/1 64/1/1 67/1/1
f 73/2/1 70/2/1 69/2/1
f 74/2/1 70/2/1 73/2/1
f 75/2/1 72/2/1 71/2/1
f 76/2/1 72/2/1 75/2/1
f 84/2/1 78/2/1 77/2/1
f 85/2/1 78/2/1 84/2/1
f 86/2/1 82/2/1 81/2/1
f 87/2/1 82/2/1 86/2/1
f 89/2/1 84/2/1 83/2/1
f 90/2/1 84/2/1 89/2/1
f 93/2/1 88/2/1 87/2/1
f 94/2/1 88/2/1 93/2/1
f 95/2/1 91/2/1 90/2/1
f 96/2/1 91/2/1 95/2/1
f 97/1/1 80/1/1 79/1/1
f 98/1/1 80/1/1 97/1/1
f 99/2/1 93/2/1 92/2/1
f 100/2/1 93/2/1 99/2/1
f 105/2/1 102/2/1 101/2/1
f 108/2/1 104/2/1 103/2/1
f 109/2/1 106/2/1 105/2/1
f 109/2/1 105/2/1 101/2/1
f 110/2/1 106/2/1 109/2/1
f 111/2/1 108/2/1 107/2/1
f 112/2/1 104/2/1 108/2/1
f 112/2/1 108/2/1 111/2/1
f 113/2/1 109/2/1 101/2/1
f 114/2/1 109/2/1 113/2/1
f 115/2/1 104/2/1 112/2/1
f 116/2/1 104/2/1 115/2/1
f 121/2/1 118/2/1 117/2/1
f 122/2/1 118/2/1 121/2/1
f 123/2/1 118/2/1 122/2/1
f 126/2/1 120/2/1 119/2/1
f 127/2/1 120/2/1 126/2/1
f 128/2/1 120/2/1 127/2/1
f 130/2/1 123/2/1 122/2/1
f 131/1/1 124/1/1 123/1/1
f 131/2/1 123/2/1 130/2/1
f 132/1/1 124/1/1 131/1/1
f 133/1/1 126/1/1 125/1/1
f 134/2/1 127/2/1 126/2/1
f 134/1/1 126/1/1 133/1/1
f 135/2/1 127/2/1 134/2/1
f 137/2/1 130/2/1 129/2/1
f 137/2/1 131/2/1 130/2/1
f 138/2/1 131/2/1 137/2/1
f 139/2/1 136/2/1 135/2/1
f 139/2/1 135/2/1 134/2/1
f 140/2/1 136/2/1 139/2/1
f 145/2/1 142/2/1 141/2/1
f 146/2/1 142/2/1 145/2/1
f 147/2/1 144/2/1 143/2/1
f 148/2/1 144/2/1 147/2/1
f 153/2/1 150/2/1 149/2/1
f 154/2/1 150/2/1 153/2/1
f 155/2/1 152/2/1 151/2/1
f 156/2/1 152/2/1 155/2/1
f 162/3/1 158/3/1 157/3/1
f 163/3/1 158/3/1 162/3/1
f 164/3/1 160/3/1 159/3/1
f 165/3/1 160/3/1 164/3/1
f 168/3/1 162/3/1 161/3/1
f 169/3/1 166/3/1 165/3/1
f 171/3/1 168/3/1 167/3/1
f 172/3/1 162/3/1 168/3/1
f 172/3/1 168/3/1 171/3/1
f 173/3/1 162/3/1 172/3/1
f 174/3/1 170/3/1 169/3/1
f 174/3/1 169/3/1 165/3/1
f 175/3/1 170/3/1 174/3/1
f 176/4/1 173/4/1 172/4/1
f 177/4/1 173/4/1 176/4/1
f 180/3/1 174/3/1 165/3/1
f 181/3/1 174/3/1 180/3/1
f 182/4/1 178/4/1 177/4/1
f 183/4/1 178/4/1 182/4/1
f 184/3/1 180/3/1 179/3/1
f 185/3/1 180/3/1 184/3/1
f 191/3/1 187/3/1 186/3/1
f 192/3/1 187/3/1 191/3/1
f 193/3/1 187/3/1 192/3/1
f 194/3/1 189/3/1 188/3/1
f 195/3/1 189/3/1 194/3/1
f 196/3/1 189/3/1 195/3/1
f 198/3/1 191/3/1 190/3/1
f 198/3/1 192/3/1 191/3/1
f 199/3/1 192/3/1 198/3/1
f 200/3/1 197/3/1 196/3/1
f 200/3/1 196/3/1 195/3/1
f 201/3/1 197/3/1 200/3/1
f 202/3/1 198/3/1 190/3/1
f 205/3/1 197/3/1 201/3/1
f 206/3/1 203/3/1 202/3/1
f 206/3/1 202/3/1 190/3/1
f 207/3/1 203/3/1 206/3/1
f 208/3/1 203/3/1 207/3/1
f 211/3/1 205/3/1 204/3/1
f 212/3/1 197/3/1 205/3/1
f 212/3/1 205/3/1 211/3/1
f 213/3/1 197/3/1 212/3/1
f 214/3/1 209/3/1 208/3/1
f 214/3/1 208/3/1 207/3/1
f 215/3/1 209/3/1 214/3/1
f 216/4/1 211/4/1 210/4/1
f 217/3/1 212/3/1 211/3/1
f 217/4/1 211/4/1 216/4/1
f 218/3/1 212/3/1 217/3/1
f 223/3/1 220/3/1 219/3/1
f 224/3/1 220/3/1 223/3/1
f 225/3/1 222/3/1 221/3/1
f 226/3/1 222/3/1 225/3/1
f 231/3/1 228/3/1 227/3/1
f 232/3/1 228/3/1 231/3/1
f 233/4/1 232/4/1 231/4/1
f 234/4/1 232/4/1 233/4/1
f 235/3/1 230/3/1 229/3/1
f 236/3/1 230/3/1 235/3/1
f 241/4/1 238/4/1 237/4/1
f 242/4/1 238/4/1 241/4/1
f 243/4/1 240/4/1 239/4/1
f 244/4/1 240/4/1 243/4/1
f 249/3/1 246/3/1 245/3/1
f 250/3/1 246/3/1 249/3/1
f 251/3/1 248/3/1 247/3/1
f 252/3/1 248/3/1 251/3/1
f 257/3/1 254/3/1 253/3/1
f 258/3/1 254/3/1 257/3/1
f 259/4/1 256/4/1 255/4/1
f 260/4/1 256/4/1 259/4/1
f 261/1/2 262/1/2 266/1/2
f 266/1/2 262/1/2 267/1/2
f 263/1/2 264/1/2 268/1/2
f 268/1/2 264/1/2 269/1/2
f 265/1/2 266/1/2 271/1/2
f 271/1/2 266/1/2 272/1/2
f 269/1/2 270/1/2 275/1/2
f 275/1/2 270/1/2 276/1/2
f 272/1/2 273/1/2 277/1/2
f 277/1/2 273/1/2 278/1/2
f 274/1/2 275/1/2 279/1/2
f 279/1/2 275/1/2 280/1/2
f 281/1/2 282/1/2 286/1/2
f 286/1/2 282/1/2 287/1/2
f 283/1/2 284/1/2 288/1/2
f 288/1/2 284/1/2 289/1/2
f 285/1/2 286/1/2 291/1/2
f 291/1/2 286/1/2 292/1/2
f 289/1/2 290/1/2 295/1/2
f 295/1/2 290/1/2 296/1/2
f 292/1/2 293/1/2 297/1/2
f 297/1/2 293/1/2 298/1/2
f 294/1/2 295/1/2 299/1/2
f 299/1/2 295/1/2 300/1/2
f 301/1/2 302/1/2 305/1/2
f 305/1/2 302/1/2 306/1/2
f 303/1/2 304/1/2 307/1/2
f 307/1/2 304/1/2 308/1/2
f 309/1/2 310/1/2 313/1/2
f 313/1/2 310/1/2 314/1/2
f 311/1/2 312/1/2 315/1/2
f 315/1/2 312/1/2 316/1/2
f 317/1/2 318/1/2 321/1/2
f 321/1/2 318/1/2 322/1/2
f 319/1/2 320/1/2 323/1/2
f 323/1/2 320/1/2 324/1/2
f 325/2/2 326/2/2 333/2/2
f 333/2/2 326/2/2 334/2/2
f 327/1/2 328/1/2 335/1/2
f 335/1/2 328/1/2 336/1/2
f 329/1/2 330/1/2 337/1/2
f 337/1/2 330/1/2 338/1/2
f 331/2/2 332/2/2 339/2/2
f 339/2/2 332/2/2 340/2/2
f 341/2/2 342/2/2 345/2/2
f 345/2/2 342/2/2 346/2/2
f 343/2/2 344/2/2 347/2/2
f 347/2/2 344/2/2 348/2/2
f 341/2/2 345/2/2 349/2/2
f 348/2/2 344/2/2 352/2/2
f 349/2/2 350/2/2 353/2/2
f 341/2/2 349/2/2 353/2/2
f 353/2/2 350/2/2 354/2/2
f 351/2/2 352/2/2 355/2/2
f 352/2/2 344/2/2 356/2/2
f 355/2/2 352/2/2 356/2/2
f 357/2/2 358/2/2 362/2/2
f 362/2/2 358/2/2 363/2/2
f 359/2/2 360/2/2 364/2/2
f 364/2/2 360/2/2 365/2/2
f 361/2/2 362/2/2 367/2/2
f 367/2/2 362/2/2 368/2/2
f 365/2/2 366/2/2 371/2/2
f 371/2/2 366/2/2 372/2/2
f 368/2/2 369/2/2 373/2/2
f 373/2/2 369/2/2 374/2/2
f 370/2/2 371/2/2 375/2/2
f 375/2/2 371/2/2 376/2/2
f 377/2/2 378/2/2 382/2/2
f 382/2/2 378/2/2 383/2/2
f 383/2/2 378/2/2 384/2/2
f 379/2/2 380/2/2 385/2/2
f 385/2/2 380/2/2 386/2/2
f 386/2/2 380/2/2 387/2/2
f 381/2/2 382/2/2 389/2/2
f 382/2/2 383/2/2 389/2/2
f 389/2/2 383/2/2 390/2/2
f 390/2/2 383/2/2 391/2/2
f 387/2/2 388/2/2 394/2/2
f 386/2/2 387/2/2 394/2/2
f 394/2/2 388/2/2 395/2/2
f 395/2/2 388/2/2 396/2/2
f 391/2/2 392/2/2 397/2/2
f 390/2/2 391/2/2 397/2/2
f 397/2/2 392/2/2 398/2/2
f 394/2/2 395/2/2 399/2/2
f 393/2/2 394/2/2 399/2/2
f 399/2/2 395/2/2 400/2/2
f 401/3/2 402/3/2 405/3/2
f 405/3/2 402/3/2 406/3/2
f 403/3/2 404/3/2 407/3/2
f 407/3/2 404/3/2 408/3/2
f 409/4/2 410/4/2 413/4/2
f 413/4/2 410/4/2 414/4/2
f 411/3/2 412/3/2 415/3/2
f 415/3/2 412/3/2 416/3/2
f 417/3/2 418/3/2 421/3/2
f 421/3/2 418/3/2 422/3/2
f 419/3/2 420/3/2 423/3/2
f 423/3/2 420/3/2 424/3/2
f 425/3/2 426/3/2 429/3/2
f 429/3/2 426/3/2 430/3/2
f 427/3/2 428/3/2 431/3/2
f 431/3/2 428/3/2 432/3/2
f 429/4/2 430/4/2 433/4/2
f 433/4/2 430/4/2 434/4/2
f 431/4/2 432/4/2 435/4/2
f 435/4/2 432/4/2 436/4/2
f 437/4/2 438/4/2 441/4/2
f 441/4/2 438/4/2 442/4/2
f 439/4/2 440/4/2 443/4/2
f 443/4/2 440/4/2 444/4/2
f 445/3/2 446/3/2 450/3/2
f 450/3/2 446/3/2 451/3/2
f 451/3/2 446/3/2 452/3/2
f 447/3/2 448/3/2 453/3/2
f 453/3/2 448/3/2 454/3/2
f 454/3/2 448/3/2 455/3/2
f 449/3/2 450/3/2 457/3/2
f 450/3/2 451/3/2 457/3/2
f 457/3/2 451/3/2 458/3/2
f 455/3/2 456/3/2 459/3/2
f 454/3/2 455/3/2 459/3/2
f 459/3/2 456/3/2 460/3/2
f 449/3/2 457/3/2 461/3/2
f 460/3/2 456/3/2 464/3/2
f 461/3/2 462/3/2 465/3/2
f 449/3/2 461/3/2 465/3/2
f 465/3/2 462/3/2 466/3/2
f 466/3/2 462/3/2 467/3/2
f 463/3/2 464/3/2 470/3/2
f 464/3/2 456/3/2 471/3/2
f 470/3/2 464/3/2 471/3/2
f 471/3/2 456/3/2 472/3/2
f 466/3/2 467/3/2 473/3/2
f 467/4/2 468/4/2 474/4/2
f 473/3/2 467/3/2 474/3/2
f 474/4/2 468/4/2 475/4/2
f 469/3/2 470/3/2 476/3/2
f 470/3/2 471/3/2 476/3/2
f 476/3/2 471/3/2 477/3/2
f 478/3/2 479/3/2 481/3/2
f 481/3/2 479/3/2 482/3/2
f 482/3/2 479/3/2 483/3/2
f 483/3/2 479/3/2 484/3/2
f 480/3/2 481/3/2 487/3/2
f 481/3/2 482/3/2 487/3/2
f 487/3/2 482/3/2 488/3/2
f 488/3/2 482/3/2 489/3/2
f 483/3/2 484/3/2 490/3/2
f 484/3/2 485/3/2 490/3/2
f 490/3/2 485/3/2 491/3/2
f 491/3/2 485/3/2 492/3/2
f 487/3/2 488/3/2 494/3/2
f 486/3/2 487/3/2 494/3/2
f 494/3/2 488/3/2 495/3/2
f 495/3/2 488/3/2 496/3/2
f 492/3/2 493/3/2 499/3/2
f 491/3/2 492/3/2 499/3/2
f 499/3/2 493/3/2 500/3/2
f 500/3/2 493/3/2 501/3/2
f 496/3/2 497/3/2 502/3/2
f 495/3/2 496/3/2 502/3/2
f 502/3/2 497/3/2 503/3/2
f 503/3/2 497/3/2 504/3/2
f 499/3/2 500/3/2 505/3/2
f 498/3/2 499/3/2 505/3/2
f 505/3/2 500/3/2 506/3/2
f 506/3/2 500/3/2 507/3/2
f 503/3/2 504/3/2 508/3/2
f 505/4/2 506/4/2 509/4/2
f 508/3/2 504/3/2 509/3/2
f 504/4/2 505/4/2 509/4/2
f 509/4/2 506/4/2 510/4/2
f 511/3/2 512/3/2 514/3/2
f 514/3/2 512/3/2 515/3/2
f 513/3/2 514/3/2 517/3/2
f 514/3/2 515/3/2 517/3/2
f 517/3/2 515/3/2 518/3/2
f 515/4/2 516/4/2 519/4/2
f 518/3/2 515/3/2 519/3/2
f 519/4/2 516/4/2 520/4/2
f 518/3/2 519/3/2 521/3/2
f 521/3/2 519/3/2 522/3/2
f 525/2/3 524/2/3 523/2/3
f 526/2/3 524/2/3 525/2/3
f 530/2/3 528/2/3 527/2/3
f 531/2/3 528/2/3 530/2/3
f 533/2/3 530/2/3 529/2/3
f 534/2/3 532/2/3 531/2/3
f 535/2/3 533/2/3 529/2/3
f 535/2/3 534/2/3 533/2/3
f 536/2/3 532/2/3 534/2/3
f 536/2/3 534/2/3 535/2/3
f 541/3/3 538/3/3 537/3/3
f 542/4/3 539/4/3 538/4/3
f 542/3/3 538/3/3 541/3/3
f 543/4/3 539/4/3 542/4/3
f 545/3/3 541/3/3 540/3/3
f 545/3/3 544/3/3 543/3/3
f 545/3/3 543/3/3 542/3/3
f 545/3/3 542/3/3 541/3/3
f 546/3/3 544/3/3 545/3/3
f 547/3/3 545/3/3 540/3/3
f 547/4/3 546/4/3 545/4/3
f 548/4/3 546/4/3 547/4/3
f 549/3/3 547/3/3 540/3/3
f 549/3/3 548/3/3 547/3/3
f 550/3/3 548/3/3 549/3/3
f 551/3/3 549/3/3 540/3/3
f 552/3/3 549/3/3 551/3/3
f 553/3/3 549/3/3 552/3/3
f 554/4/3 550/4/3 549/4/3
f 554/3/3 549/3/3 553/3/3
f 555/4/3 550/4/3 554/4/3
f 556/3/3 553/3/3 552/3/3
f 557/4/3 554/4/3 553/4/3
f 557/3/3 553/3/3 556/3/3
f 558/4/3 554/4/3 557/4/3
f 561/1/3 560/1/3 559/1/3
f 562/1/3 560/1/3 561/1/3
f 565/2/3 564/2/3 563/2/3
f 566/2/3 564/2/3 565/2/3
f 570/3/3 568/3/3 567/3/3
f 571/3/3 568/3/3 570/3/3
f 572/3/3 568/3/3 571/3/3
f 573/3/3 568/3/3 572/3/3
f 574/3/3 568/3/3 573/3/3
f 576/3/3 570/3/3 569/3/3
f 576/3/3 571/3/3 570/3/3
f 577/3/3 571/3/3 576/3/3
f 578/3/3 574/3/3 573/3/3
f 579/4/3 575/4/3 574/4/3
f 579/3/3 574/3/3 578/3/3
f 580/4/3 575/4/3 579/4/3
f 581/3/3 580/3/3 579/3/3
f 582/3/3 580/3/3 581/3/3
f 583/4/3 582/4/3 581/4/3
f 584/4/3 582/4/3 583/4/3
f 585/3/3 584/3/3 583/3/3
f 586/3/3 576/3/3 569/3/3
f 589/3/3 584/3/3 585/3/3
f 590/3/3 584/3/3 589/3/3
f 591/3/3 587/3/3 586/3/3
f 591/3/3 586/3/3 569/3/3
f 592/3/3 587/3/3 591/3/3
f 593/3/3 587/3/3 592/3/3
f 595/3/3 589/3/3 588/3/3
f 596/4/3 590/4/3 589/4/3
f 596/3/3 589/3/3 595/3/3
f 597/4/3 590/4/3 596/4/3
f 598/3/3 595/3/3 594/3/3
f 598/3/3 594/3/3 593/3/3
f 598/3/3 596/3/3 595/3/3
f 598/3/3 593/3/3 592/3/3
f 599/3/3 596/3/3 598/3/3
f 603/1/3 601/1/3 600/1/3
f 604/1/3 601/1/3 603/1/3
f 606/1/3 603/1/3 602/1/3
f 607/1/3 603/1/3 606/1/3
f 608/1/3 605/1/3 604/1/3
f 609/1/3 605/1/3 608/1/3
f 610/1/3 608/1/3 607/1/3
f 611/1/3 608/1/3 610/1/3
f 616/2/3 613/2/3 612/2/3
f 617/2/3 613/2/3 616/2/3
f 618/2/3 615/2/3 614/2/3
f 619/2/3 615/2/3 618/2/3
f 620/2/3 618/2/3 617/2/3
f 621/2/3 618/2/3 620/2/3
f 626/3/3 623/3/3 622/3/3
f 627/3/3 623/3/3 626/3/3
f 630/3/3 625/3/3 624/3/3
f 631/3/3 625/3/3 630/3/3
f 632/3/3 629/3/3 628/3/3
f 633/3/3 629/3/3 632/3/3
f 638/3/3 635/3/3 634/3/3
f 639/3/3 635/3/3 638/3/3
f 642/3/3 637/3/3 636/3/3
f 643/3/3 637/3/3 642/3/3
f 644/3/3 641/3/3 640/3/3
f 645/3/3 641/3/3 644/3/3
f 650/1/3 647/1/3 646/1/3
f 651/1/3 647/1/3 650/1/3
f 652/1/3 649/1/3 648/1/3
f 653/1/3 649/1/3 652/1/3
f 654/1/3 652/1/3 651/1/3
f 655/1/3 652/1/3 654/1/3
f 660/2/3 657/2/3 656/2/3
f 661/2/3 657/2/3 660/2/3
f 662/2/3 659/2/3 658/2/3
f 663/2/3 659/2/3 662/2/3
f 668/3/3 665/3/3 664/3/3
f 669/3/3 665/3/3 668/3/3
f 670/4/3 667/4/3 666/4/3
f 671/4/3 667/4/3 670/4/3
f 676/3/3 673/3/3 672/3/3
f 677/3/3 673/3/3 676/3/3
f 678/3/3 675/3/3 674/3/3
f 679/3/3 675/3/3 678/3/3
f 684/1/3 681/1/3 680/1/3
f 685/1/3 683/1/3 682/1/3
f 686/1/3 684/1/3 680/1/3
f 686/1/3 685/1/3 684/1/3
f 687/1/3 685/1/3 686/1/3
f 688/1/3 683/1/3 685/1/3
f 688/1/3 685/1/3 687/1/3
f 689/1/3 683/1/3 688/1/3
f 690/1/3 688/1/3 687/1/3
f 691/1/3 688/1/3 690/1/3
f 695/2/3 693/2/3 692/2/3
f 696/2/3 693/2/3 695/2/3
f 697/2/3 693/2/3 696/2/3
f 699/3/3 695/3/3 694/3/3
f 700/3/3 695/3/3 699/3/3
f 701/4/3 698/4/3 697/4/3
f 702/4/3 698/4/3 701/4/3
f 707/3/3 704/3/3 703/3/3
f 708/3/3 704/3/3 707/3/3
f 711/3/3 706/3/3 705/3/3
f 712/3/3 706/3/3 711/3/3
f 713/3/3 710/3/3 709/3/3
f 714/3/3 710/3/3 713/3/3
f 719/1/3 716/1/3 715/1/3
f 720/1/3 718/1/3 717/1/3
f 721/1/3 719/1/3 715/1/3
f 721/1/3 720/1/3 719/1/3
f 722/1/3 718/1/3 720/1/3
f 722/1/3 720/1/3 721/1/3
f 723/1/3 721/1/3 715/1/3
f 724/1/3 721/1/3 723/1/3
f 725/1/3 718/1/3 722/1/3
f 726/1/3 718/1/3 725/1/3
f 731/1/3 728/1/3 727/1/3
f 732/1/3 728/1/3 731/1/3
f 733/1/3 730/1/3 729/1/3
f 734/1/3 730/1/3 733/1/3
f 735/2/3 732/2/3 731/2/3
f 736/2/3 732/2/3 735/2/3
f 737/2/3 734/2/3 733/2/3
f 738/2/3 734/2/3 737/2/3
f 743/3/3 740/3/3 739/3/3
f 744/3/3 740/3/3 743/3/3
f 745/3/3 742/3/3 741/3/3
f 746/3/3 742/3/3 745/3/3
f 750/1/3 748/1/3 747/1/3
f 751/1/3 748/1/3 750/1/3
f 753/1/3 750/1/3 749/1/3
f 753/1/3 752/1/3 751/1/3
f 753/1/3 751/1/3 750/1/3
f 754/1/3 752/1/3 753/1/3
f 758/1/3 756/1/3 755/1/3
f 759/1/3 756/1/3 758/1/3
f 761/1/3 758/1/3 757/1/3
f 762/1/3 758/1/3 761/1/3
f 763/1/3 760/1/3 759/1/3
f 764/1/3 760/1/3 763/1/3
f 769/2/3 766/2/3 765/2/3
f 770/2/3 766/2/3 769/2/3
f 771/2/3 768/2/3 767/2/3
f 772/2/3 768/2/3 771/2/3
f 776/1/3 774/1/3 773/1/3
f 777/1/3 774/1/3 776/1/3
f 779/1/3 776/1/3 775/1/3
f 780/1/3 776/1/3 779/1/3
f 781/1/3 778/1/3 777/1/3
f 782/1/3 778/1/3 781/1/3
f 785/2/3 784/2/3 783/2/3
f 786/2/3 784/2/3 785/2/3
f 791/2/3 788/2/3 787/2/3
f 792/2/3 788/2/3 791/2/3
f 793/2/3 790/2/3 789/2/3
f 794/2/3 790/2/3 793/2/3
f 798/2/3 796/2/3 795/2/3
f 799/2/3 796/2/3 798/2/3
f 801/2/3 798/2/3 797/2/3
f 801/2/3 800/2/3 799/2/3
f 801/2/3 799/2/3 798/2/3
f 802/2/3 800/2/3 801/2/3
f 803/2/4 804/2/4 806/2/4
f 806/2/4 804/2/4 807/2/4
f 805/2/4 806/2/4 809/2/4
f 807/2/4 808/2/4 809/2/4
f 806/2/4 807/2/4 809/2/4
f 809/2/4 808/2/4 810/2/4
f 811/2/4 812/2/4 815/2/4
f 815/2/4 812/2/4 816/2/4
f 813/2/4 814/2/4 817/2/4
f 817/2/4 814/2/4 818/2/4
f 819/1/4 820/1/4 822/1/4
f 822/1/4 820/1/4 823/1/4
f 821/1/4 822/1/4 825/1/4
f 825/1/4 822/1/4 826/1/4
f 823/1/4 824/1/4 827/1/4
f 827/1/4 824/1/4 828/1/4
f 829/2/4 830/2/4 831/2/4
f 831/2/4 830/2/4 832/2/4
f 833/1/4 834/1/4 836/1/4
f 836/1/4 834/1/4 837/1/4
f 835/1/4 836/1/4 839/1/4
f 839/1/4 836/1/4 840/1/4
f 837/1/4 838/1/4 841/1/4
f 841/1/4 838/1/4 842/1/4
f 843/2/4 844/2/4 847/2/4
f 847/2/4 844/2/4 848/2/4
f 845/2/4 846/2/4 849/2/4
f 849/2/4 846/2/4 850/2/4
f 851/1/4 852/1/4 854/1/4
f 854/1/4 852/1/4 855/1/4
f 853/1/4 854/1/4 857/1/4
f 855/1/4 856/1/4 857/1/4
f 854/1/4 855/1/4 857/1/4
f 857/1/4 856/1/4 858/1/4
f 859/1/4 860/1/4 863/1/4
f 861/1/4 862/1/4 864/1/4
f 859/1/4 863/1/4 865/1/4
f 863/1/4 864/1/4 865/1/4
f 864/1/4 862/1/4 866/1/4
f 865/1/4 864/1/4 866/1/4
f 859/1/4 865/1/4 867/1/4
f 867/1/4 865/1/4 868/1/4
f 866/1/4 862/1/4 869/1/4
f 869/1/4 862/1/4 870/1/4
f 871/1/4 872/1/4 875/1/4
f 875/1/4 872/1/4 876/1/4
f 873/1/4 874/1/4 877/1/4
f 877/1/4 874/1/4 878/1/4
f 875/2/4 876/2/4 879/2/4
f 879/2/4 876/2/4 880/2/4
f 877/2/4 878/2/4 881/2/4
f 881/2/4 878/2/4 882/2/4
f 883/3/4 884/3/4 887/3/4
f 887/3/4 884/3/4 888/3/4
f 885/3/4 886/3/4 889/3/4
f 889/3/4 886/3/4 890/3/4
f 891/1/4 892/1/4 895/1/4
f 893/1/4 894/1/4 896/1/4
f 891/1/4 895/1/4 897/1/4
f 895/1/4 896/1/4 897/1/4
f 897/1/4 896/1/4 898/1/4
f 896/1/4 894/1/4 899/1/4
f 898/1/4 896/1/4 899/1/4
f 899/1/4 894/1/4 900/1/4
f 898/1/4 899/1/4 901/1/4
f 901/1/4 899/1/4 902/1/4
f 903/2/4 904/2/4 906/2/4
f 906/2/4 904/2/4 907/2/4
f 905/3/4 906/3/4 909/3/4
f 909/3/4 906/3/4 910/3/4
f 907/3/4 908/3/4 911/3/4
f 911/3/4 908/3/4 912/3/4
f 913/3/4 914/3/4 917/3/4
f 917/3/4 914/3/4 918/3/4
f 915/4/4 916/4/4 921/4/4
f 921/4/4 916/4/4 922/4/4
f 919/4/4 920/4/4 923/4/4
f 923/4/4 920/4/4 924/4/4
f 925/1/4 926/1/4 929/1/4
f 929/1/4 926/1/4 930/1/4
f 927/1/4 928/1/4 931/1/4
f 931/1/4 928/1/4 932/1/4
f 930/1/4 931/1/4 933/1/4
f 933/1/4 931/1/4 934/1/4
f 935/2/4 936/2/4 939/2/4
f 939/2/4 936/2/4 940/2/4
f 937/2/4 938/2/4 941/2/4
f 941/2/4 938/2/4 942/2/4
f 943/3/4 944/3/4 947/3/4
f 947/3/4 944/3/4 948/3/4
f 945/3/4 946/3/4 949/3/4
f 949/3/4 946/3/4 950/3/4
f 951/3/4 952/3/4 955/3/4
f 955/3/4 952/3/4 956/3/4
f 953/3/4 954/3/4 957/3/4
f 957/3/4 954/3/4 958/3/4
f 959/1/4 960/1/4 962/1/4
f 962/1/4 960/1/4 963/1/4
f 961/1/4 962/1/4 965/1/4
f 965/1/4 962/1/4 966/1/4
f 963/1/4 964/1/4 967/1/4
f 967/1/4 964/1/4 968/1/4
f 966/1/4 967/1/4 969/1/4
f 969/1/4 967/1/4 970/1/4
f 971/2/4 972/2/4 975/2/4
f 975/2/4 972/2/4 976/2/4
f 973/2/4 974/2/4 977/2/4
f 977/2/4 974/2/4 978/2/4
f 976/2/4 977/2/4 979/2/4
f 979/2/4 977/2/4 980/2/4
f 981/3/4 982/3/4 985/3/4
f 985/3/4 982/3/4 986/3/4
f 983/3/4 984/3/4 989/3/4
f 989/3/4 984/3/4 990/3/4
f 987/3/4 988/3/4 991/3/4
f 991/3/4 988/3/4 992/3/4
f 993/3/4 994/3/4 997/3/4
f 997/3/4 994/3/4 998/3/4
f 995/3/4 996/3/4 1001/3/4
f 1001/3/4 996/3/4 1002/3/4
f 999/3/4 1000/3/4 1003/3/4
f 1003/3/4 1000/3/4 1004/3/4
f 1005/1/4 1006/1/4 1007/1/4
f 1007/1/4 1006/1/4 1008/1/4
f 1009/2/4 1010/2/4 1011/2/4
f 1011/2/4 1010/2/4 1012/2/4
f 1013/3/4 1014/3/4 1016/3/4
f 1016/3/4 1014/3/4 1017/3/4
f 1017/3/4 1014/3/4 1018/3/4
f 1018/3/4 1014/3/4 1019/3/4
f 1015/3/4 1016/3/4 1021/3/4
f 1016/3/4 1017/3/4 1021/3/4
f 1021/3/4 1017/3/4 1022/3/4
f 1018/3/4 1019/3/4 1023/3/4
f 1019/4/4 1020/4/4 1024/4/4
f 1023/3/4 1019/3/4 1024/3/4
f 1024/4/4 1020/4/4 1025/4/4
f 1025/4/4 1020/4/4 1026/4/4
f 1025/3/4 1026/3/4 1027/3/4
f 1027/3/4 1026/3/4 1028/3/4
f 1027/4/4 1028/4/4 1029/4/4
f 1029/4/4 1028/4/4 1030/4/4
f 1029/3/4 1030/3/4 1031/3/4
f 1015/3/4 1021/3/4 1032/3/4
f 1031/3/4 1030/3/4 1035/3/4
f 1035/3/4 1030/3/4 1036/3/4
f 1032/3/4 1033/3/4 1037/3/4
f 1015/3/4 1032/3/4 1037/3/4
f 1037/3/4 1033/3/4 1038/3/4
f 1038/3/4 1033/3/4 1039/3/4
f 1034/3/4 1035/3/4 1041/3/4
f 1035/4/4 1036/4/4 1042/4/4
f 1041/3/4 1035/3/4 1042/3/4
f 1042/4/4 1036/4/4 1043/4/4
f 1040/3/4 1041/3/4 1044/3/4
f 1039/3/4 1040/3/4 1044/3/4
f 1041/3/4 1042/3/4 1044/3/4
f 1038/3/4 1039/3/4 1044/3/4
f 1044/3/4 1042/3/4 1045/3/4
f 1046/2/4 1047/2/4 1049/2/4
f 1049/2/4 1047/2/4 1050/2/4
f 1048/2/4 1049/2/4 1052/2/4
f 1050/2/4 1051/2/4 1053/2/4
f 1048/2/4 1052/2/4 1054/2/4
f 1052/2/4 1053/2/4 1054/2/4
f 1053/2/4 1051/2/4 1055/2/4
f 1054/2/4 1053/2/4 1055/2/4
f 1056/3/4 1057/3/4 1059/3/4
f 1059/3/4 1057/3/4 1060/3/4
f 1058/3/4 1059/3/4 1062/3/4
f 1060/4/4 1061/4/4 1062/4/4
f 1059/3/4 1060/3/4 1062/3/4
f 1062/4/4 1061/4/4 1063/4/4
f 1058/3/4 1062/3/4 1064/3/4
f 1062/3/4 1063/3/4 1064/3/4
f 1064/3/4 1063/3/4 1065/3/4
f 1058/3/4 1064/3/4 1066/3/4
f 1064/4/4 1065/4/4 1066/4/4
f 1066/4/4 1065/4/4 1067/4/4
f 1058/3/4 1066/3/4 1068/3/4
f 1066/3/4 1067/3/4 1068/3/4
f 1068/3/4 1067/3/4 1069/3/4
f 1069/3/4 1067/3/4 1070/3/4
f 1070/3/4 1067/3/4 1071/3/4
f 1071/3/4 1067/3/4 1072/3/4
f 1069/3/4 1070/3/4 1073/3/4
f 1070/4/4 1071/4/4 1074/4/4
f 1073/3/4 1070/3/4 1074/3/4
f 1074/4/4 1071/4/4 1075/4/4
f 1076/2/4 1077/2/4 1078/2/4
f 1078/2/4 1077/2/4 1079/2/4
f 1082/2/5 1081/2/5 1080/2/5
f 1083/2/5 1081/2/5 1082/2/5
f 1088/2/5 1081/2/5 1083/2/5
f 1089/2/5 1081/2/5 1088/2/5
f 1092/3/5 1085/3/5 1084/3/5
f 1093/3/5 1085/3/5 1092/3/5
f 1095/1/5 1087/1/5 1086/1/5
f 1096/1/5 1087/1/5 1095/1/5
f 1098/2/5 1090/2/5 1089/2/5
f 1100/1/5 1097/1/5 1096/1/5
f 1101/1/5 1097/1/5 1100/1/5
f 1103/2/5 1099/2/5 1098/2/5
f 1103/2/5 1098/2/5 1089/2/5
f 1104/2/5 1099/2/5 1103/2/5
f 1106/3/5 1094/3/5 1093/3/5
f 1106/3/5 1093/3/5 1092/3/5
f 1106/3/5 1092/3/5 1091/3/5
f 1107/3/5 1094/3/5 1106/3/5
f 1109/1/5 1102/1/5 1101/1/5
f 1110/1/5 1102/1/5 1109/1/5
f 1111/2/5 1099/2/5 1104/2/5
f 1112/2/5 1099/2/5 1111/2/5
f 1114/3/5 1108/3/5 1107/3/5
f 1114/3/5 1107/3/5 1106/3/5
f 1114/3/5 1106/3/5 1105/3/5
f 1116/1/5 1113/1/5 1112/1/5
f 1116/1/5 1112/1/5 1111/1/5
f 1116/1/5 1111/1/5 1110/1/5
f 1117/1/5 1113/1/5 1116/1/5
f 1118/1/5 1113/1/5 1117/1/5
f 1119/2/5 1114/2/5 1113/2/5
f 1119/1/5 1113/1/5 1118/1/5
f 1120/3/5 1108/3/5 1114/3/5
f 1120/2/5 1114/2/5 1119/2/5
f 1122/1/5 1116/1/5 1115/1/5
f 1123/1/5 1116/1/5 1122/1/5
f 1125/2/5 1118/2/5 1117/2/5
f 1126/3/5 1108/3/5 1120/3/5
f 1127/3/5 1108/3/5 1126/3/5
f 1128/3/5 1108/3/5 1127/3/5
f 1129/3/5 1108/3/5 1128/3/5
f 1131/1/5 1122/1/5 1121/1/5
f 1132/1/5 1122/1/5 1131/1/5
f 1133/2/5 1125/2/5 1124/2/5
f 1133/2/5 1118/2/5 1125/2/5
f 1134/2/5 1118/2/5 1133/2/5
f 1135/1/5 1131/1/5 1130/1/5
f 1136/1/5 1131/1/5 1135/1/5
f 1138/2/5 1133/2/5 1124/2/5
f 1139/2/5 1133/2/5 1138/2/5
f 1140/3/5 1128/3/5 1127/3/5
f 1141/3/5 1128/3/5 1140/3/5
f 1142/3/5 1128/3/5 1141/3/5
f 1143/3/5 1128/3/5 1142/3/5
f 1145/2/5 1138/2/5 1137/2/5
f 1146/3/5 1142/3/5 1141/3/5
f 1147/3/5 1142/3/5 1146/3/5
f 1148/2/5 1145/2/5 1144/2/5
f 1149/2/5 1138/2/5 1145/2/5
f 1149/2/5 1145/2/5 1148/2/5
f 1153/2/5 1151/2/5 1150/2/5
f 1154/2/5 1151/2/5 1153/2/5
f 1159/2/5 1153/2/5 1152/2/5
f 1160/2/5 1153/2/5 1159/2/5
f 1165/3/5 1156/3/5 1155/3/5
f 1166/3/5 1156/3/5 1165/3/5
f 1170/1/5 1158/1/5 1157/1/5
f 1171/1/5 1158/1/5 1170/1/5
f 1174/2/5 1162/2/5 1161/2/5
f 1175/2/5 1162/2/5 1174/2/5
f 1177/3/5 1164/3/5 1163/3/5
f 1178/3/5 1164/3/5 1177/3/5
f 1179/3/5 1168/3/5 1167/3/5
f 1180/3/5 1168/3/5 1179/3/5
f 1181/1/5 1170/1/5 1169/1/5
f 1182/1/5 1170/1/5 1181/1/5
f 1183/1/5 1172/1/5 1171/1/5
f 1184/1/5 1172/1/5 1183/1/5
f 1186/2/5 1174/2/5 1173/2/5
f 1187/2/5 1174/2/5 1186/2/5
f 1188/2/5 1176/2/5 1175/2/5
f 1189/2/5 1176/2/5 1188/2/5
f 1194/1/5 1183/1/5 1182/1/5
f 1195/1/5 1183/1/5 1194/1/5
f 1196/1/5 1185/1/5 1184/1/5
f 1197/1/5 1185/1/5 1196/1/5
f 1203/3/5 1191/3/5 1190/3/5
f 1204/3/5 1191/3/5 1203/3/5
f 1205/3/5 1193/3/5 1192/3/5
f 1206/3/5 1193/3/5 1205/3/5
f 1207/1/5 1196/1/5 1195/1/5
f 1208/1/5 1196/1/5 1207/1/5
f 1209/1/5 1199/1/5 1198/1/5
f 1210/1/5 1199/1/5 1209/1/5
f 1211/1/5 1201/1/5 1200/1/5
f 1212/1/5 1201/1/5 1211/1/5
f 1213/2/5 1203/2/5 1202/2/5
f 1214/2/5 1203/2/5 1213/2/5
f 1215/2/5 1203/2/5 1214/2/5
f 1227/3/5 1217/3/5 1216/3/5
f 1228/3/5 1217/3/5 1227/3/5
f 1230/1/5 1219/1/5 1218/1/5
f 1231/1/5 1219/1/5 1230/1/5
f 1233/1/5 1221/1/5 1220/1/5
f 1234/1/5 1221/1/5 1233/1/5
f 1235/1/5 1223/1/5 1222/1/5
f 1236/1/5 1223/1/5 1235/1/5
f 1237/2/5 1226/2/5 1225/2/5
f 1237/2/5 1225/2/5 1224/2/5
f 1238/2/5 1226/2/5 1237/2/5
f 1243/1/5 1230/1/5 1229/1/5
f 1244/1/5 1230/1/5 1243/1/5
f 1245/1/5 1232/1/5 1231/1/5
f 1246/1/5 1232/1/5 1245/1/5
f 1251/3/5 1239/3/5 1238/3/5
f 1252/3/5 1239/3/5 1251/3/5
f 1253/3/5 1241/3/5 1240/3/5
f 1254/3/5 1241/3/5 1253/3/5
f 1255/1/5 1243/1/5 1242/1/5
f 1256/1/5 1243/1/5 1255/1/5
f 1257/1/5 1245/1/5 1244/1/5
f 1258/1/5 1245/1/5 1257/1/5
f 1259/2/5 1248/2/5 1247/2/5
f 1260/2/5 1248/2/5 1259/2/5
f 1261/2/5 1250/2/5 1249/2/5
f 1262/2/5 1250/2/5 1261/2/5
f 1267/1/5 1257/1/5 1256/1/5
f 1268/1/5 1257/1/5 1267/1/5
f 1271/2/5 1261/2/5 1260/2/5
f 1272/2/5 1261/2/5 1271/2/5
f 1273/3/5 1264/3/5 1263/3/5
f 1274/3/5 1264/3/5 1273/3/5
f 1277/3/5 1266/3/5 1265/3/5
f 1278/3/5 1266/3/5 1277/3/5
f 1279/2/5 1270/2/5 1269/2/5
f 1280/2/5 1270/2/5 1279/2/5
f 1282/3/5 1276/3/5 1275/3/5
f 1283/3/5 1276/3/5 1282/3/5
f 1284/2/5 1281/2/5 1280/2/5
f 1285/2/5 1281/2/5 1284/2/5
f 1290/3/5 1287/3/5 1286/3/5
f 1291/3/5 1287/3/5 1290/3/5
f 1292/3/5 1289/3/5 1288/3/5
f 1293/3/5 1289/3/5 1292/3/5
f 1298/3/5 1295/3/5 1294/3/5
f 1299/3/5 1295/3/5 1298/3/5
f 1300/3/5 1297/3/5 1296/3/5
f 1301/3/5 1297/3/5 1300/3/5
f 1304/3/5 1303/3/5 1302/3/5
f 1305/3/5 1303/3/5 1304/3/5
f 1308/4/5 1307/4/5 1306/4/5
f 1309/4/5 1307/4/5 1308/4/5
f 1314/3/5 1311/3/5 1310/3/5
f 1315/3/5 1311/3/5 1314/3/5
f 1316/3/5 1313/3/5 1312/3/5
f 1317/3/5 1313/3/5 1316/3/5
f 1322/3/5 1319/3/5 1318/3/5
f 1323/3/5 1319/3/5 1322/3/5
f 1324/3/5 1321/3/5 1320/3/5
f 1325/3/5 1321/3/5 1324/3/5
f 1326/4/6 1327/4/6 1330/4/6
f 1330/4/6 1327/4/6 1331/4/6
f 1328/4/6 1329/4/6 1332/4/6
f 1332/4/6 1329/4/6 1333/4/6
f 1334/3/6 1335/3/6 1338/3/6
f 1338/3/6 1335/3/6 1339/3/6
f 1336/3/6 1337/3/6 1340/3/6
f 1340/3/6 1337/3/6 1341/3/6
f 1342/3/6 1343/3/6 1344/3/6
f 1344/3/6 1343/3/6 1345/3/6
f 1346/4/6 1347/4/6 1348/4/6
f 1348/4/6 1347/4/6 1349/4/6
f 1350/3/6 1351/3/6 1354/3/6
f 1354/3/6 1351/3/6 1355/3/6
f 1352/3/6 1353/3/6 1356/3/6
f 1356/3/6 1353/3/6 1357/3/6
f 1358/3/6 1359/3/6 1362/3/6
f 1362/3/6 1359/3/6 1363/3/6
f 1360/4/6 1361/4/6 1364/4/6
f 1364/4/6 1361/4/6 1365/4/6
f 1366/2/6 1367/2/6 1369/2/6
f 1369/2/6 1367/2/6 1370/2/6
f 1368/2/6 1369/2/6 1378/2/6
f 1378/2/6 1369/2/6 1379/2/6
f 1371/3/6 1372/3/6 1384/3/6
f 1372/4/6 1373/4/6 1385/4/6
f 1384/3/6 1372/3/6 1385/3/6
f 1373/3/6 1374/3/6 1386/3/6
f 1385/4/6 1373/4/6 1386/4/6
f 1374/4/6 1375/4/6 1387/4/6
f 1386/3/6 1374/3/6 1387/3/6
f 1387/4/6 1375/4/6 1388/4/6
f 1376/1/6 1377/1/6 1392/1/6
f 1392/1/6 1377/1/6 1393/1/6
f 1380/2/6 1381/2/6 1396/2/6
f 1396/2/6 1381/2/6 1397/2/6
f 1382/3/6 1383/3/6 1399/3/6
f 1399/3/6 1383/3/6 1400/3/6
f 1389/3/6 1390/3/6 1401/3/6
f 1401/3/6 1390/3/6 1402/3/6
f 1391/1/6 1392/1/6 1403/1/6
f 1403/1/6 1392/1/6 1404/1/6
f 1393/1/6 1394/1/6 1405/1/6
f 1405/1/6 1394/1/6 1406/1/6
f 1395/2/6 1396/2/6 1408/2/6
f 1408/2/6 1396/2/6 1409/2/6
f 1397/2/6 1398/2/6 1410/2/6
f 1410/2/6 1398/2/6 1411/2/6
f 1404/1/6 1405/1/6 1416/1/6
f 1416/1/6 1405/1/6 1417/1/6
f 1406/1/6 1407/1/6 1418/1/6
f 1418/1/6 1407/1/6 1419/1/6
f 1412/4/6 1413/4/6 1425/4/6
f 1425/4/6 1413/4/6 1426/4/6
f 1414/3/6 1415/3/6 1427/3/6
f 1427/3/6 1415/3/6 1428/3/6
f 1417/1/6 1418/1/6 1429/1/6
f 1429/1/6 1418/1/6 1430/1/6
f 1420/1/6 1421/1/6 1431/1/6
f 1431/1/6 1421/1/6 1432/1/6
f 1422/1/6 1423/1/6 1433/1/6
f 1433/1/6 1423/1/6 1434/1/6
f 1424/2/6 1425/2/6 1435/2/6
f 1435/2/6 1425/2/6 1436/2/6
f 1436/2/6 1425/2/6 1437/2/6
f 1438/3/6 1439/3/6 1449/3/6
f 1449/3/6 1439/3/6 1450/3/6
f 1440/1/6 1441/1/6 1452/1/6
f 1452/1/6 1441/1/6 1453/1/6
f 1442/1/6 1443/1/6 1455/1/6
f 1455/1/6 1443/1/6 1456/1/6
f 1444/1/6 1445/1/6 1457/1/6
f 1457/1/6 1445/1/6 1458/1/6
f 1447/2/6 1448/2/6 1459/2/6
f 1446/2/6 1447/2/6 1459/2/6
f 1459/2/6 1448/2/6 1460/2/6
f 1451/1/6 1452/1/6 1465/1/6
f 1465/1/6 1452/1/6 1466/1/6
f 1453/1/6 1454/1/6 1467/1/6
f 1467/1/6 1454/1/6 1468/1/6
f 1460/3/6 1461/3/6 1473/3/6
f 1473/3/6 1461/3/6 1474/3/6
f 1462/3/6 1463/3/6 1475/3/6
f 1475/3/6 1463/3/6 1476/3/6
f 1464/1/6 1465/1/6 1477/1/6
f 1477/1/6 1465/1/6 1478/1/6
f 1466/1/6 1467/1/6 1479/1/6
f 1479/1/6 1467/1/6 1480/1/6
f 1469/2/6 1470/2/6 1481/2/6
f 1481/2/6 1470/2/6 1482/2/6
f 1471/2/6 1472/2/6 1483/2/6
f 1483/2/6 1472/2/6 1484/2/6
f 1478/1/6 1479/1/6 1489/1/6
f 1489/1/6 1479/1/6 1490/1/6
f 1482/2/6 1483/2/6 1493/2/6
f 1493/2/6 1483/2/6 1494/2/6
f 1485/3/6 1486/3/6 1495/3/6
f 1495/3/6 1486/3/6 1496/3/6
f 1487/3/6 1488/3/6 1503/3/6
f 1503/3/6 1488/3/6 1504/3/6
f 1491/2/6 1492/2/6 1505/2/6
f 1505/2/6 1492/2/6 1506/2/6
f 1497/4/6 1498/4/6 1508/4/6
f 1498/3/6 1499/3/6 1509/3/6
f 1508/4/6 1498/4/6 1509/4/6
f 1500/4/6 1501/4/6 1510/4/6
f 1509/3/6 1499/3/6 1510/3/6
f 1499/4/6 1500/4/6 1510/4/6
f 1501/3/6 1502/3/6 1511/3/6
f 1510/4/6 1501/4/6 1511/4/6
f 1511/3/6 1502/3/6 1512/3/6
f 1506/2/6 1507/2/6 1513/2/6
f 1513/2/6 1507/2/6 1514/2/6
f 1515/2/6 1516/2/6 1517/2/6
f 1517/2/6 1516/2/6 1518/2/6
f 1518/2/6 1516/2/6 1527/2/6
f 1527/2/6 1516/2/6 1528/2/6
f 1519/4/6 1520/4/6 1531/4/6
f 1520/3/6 1521/3/6 1532/3/6
f 1531/4/6 1520/4/6 1532/4/6
f 1532/3/6 1521/3/6 1533/3/6
f 1523/4/6 1524/4/6 1534/4/6
f 1525/1/6 1526/1/6 1536/1/6
f 1536/1/6 1526/1/6 1537/1/6
f 1528/2/6 1529/2/6 1539/2/6
f 1533/3/6 1521/3/6 1541/3/6
f 1521/4/6 1522/4/6 1541/4/6
f 1522/3/6 1523/3/6 1542/3/6
f 1541/4/6 1522/4/6 1542/4/6
f 1542/3/6 1523/3/6 1543/3/6
f 1523/4/6 1534/4/6 1544/4/6
f 1543/3/6 1523/3/6 1544/3/6
f 1534/3/6 1535/3/6 1545/3/6
f 1544/4/6 1534/4/6 1545/4/6
f 1545/3/6 1535/3/6 1546/3/6
f 1537/1/6 1538/1/6 1547/1/6
f 1547/1/6 1538/1/6 1548/1/6
f 1539/2/6 1540/2/6 1550/2/6
f 1528/2/6 1539/2/6 1550/2/6
f 1550/2/6 1540/2/6 1551/2/6
f 1530/3/6 1531/3/6 1553/3/6
f 1531/3/6 1532/3/6 1553/3/6
f 1532/4/6 1533/4/6 1554/4/6
f 1553/3/6 1532/3/6 1554/3/6
f 1533/3/6 1541/3/6 1555/3/6
f 1554/4/6 1533/4/6 1555/4/6
f 1541/3/6 1542/3/6 1555/3/6
f 1555/3/6 1542/3/6 1556/3/6
f 1545/4/6 1546/4/6 1557/4/6
f 1548/1/6 1549/1/6 1559/1/6
f 1559/1/6 1549/1/6 1560/1/6
f 1551/2/6 1540/2/6 1561/2/6
f 1561/2/6 1540/2/6 1562/2/6
f 1552/4/6 1553/4/6 1564/4/6
f 1553/3/6 1554/3/6 1565/3/6
f 1554/3/6 1555/3/6 1565/3/6
f 1564/4/6 1553/4/6 1565/4/6
f 1565/3/6 1555/3/6 1566/3/6
f 1542/4/6 1543/4/6 1567/4/6
f 1556/3/6 1542/3/6 1567/3/6
f 1543/3/6 1544/3/6 1568/3/6
f 1567/4/6 1543/4/6 1568/4/6
f 1544/3/6 1545/3/6 1568/3/6
f 1568/3/6 1545/3/6 1569/3/6
f 1545/4/6 1557/4/6 1570/4/6
f 1569/3/6 1545/3/6 1570/3/6
f 1557/3/6 1558/3/6 1571/3/6
f 1570/4/6 1557/4/6 1571/4/6
f 1571/3/6 1558/3/6 1572/3/6
f 1563/2/6 1564/2/6 1573/2/6
f 1565/4/6 1566/4/6 1573/4/6
f 1564/4/6 1565/4/6 1573/4/6
f 1573/4/6 1566/4/6 1574/4/6
f 1562/1/6 1563/1/6 1576/1/6
f 1560/1/6 1561/1/6 1576/1/6
f 1561/1/6 1562/1/6 1576/1/6
f 1576/1/6 1563/1/6 1577/1/6
f 1577/1/6 1563/1/6 1578/1/6
f 1563/2/6 1573/2/6 1579/2/6
f 1578/1/6 1563/1/6 1579/1/6
f 1573/3/6 1574/3/6 1580/3/6
f 1579/2/6 1573/2/6 1580/2/6
f 1555/4/6 1556/4/6 1581/4/6
f 1566/3/6 1555/3/6 1581/3/6
f 1556/3/6 1567/3/6 1582/3/6
f 1581/4/6 1556/4/6 1582/4/6
f 1567/3/6 1568/3/6 1582/3/6
f 1582/3/6 1568/3/6 1583/3/6
f 1575/1/6 1576/1/6 1585/1/6
f 1585/1/6 1576/1/6 1586/1/6
f 1577/2/6 1578/2/6 1588/2/6
f 1580/3/6 1574/3/6 1589/3/6
f 1574/4/6 1566/4/6 1590/4/6
f 1589/3/6 1574/3/6 1590/3/6
f 1566/3/6 1581/3/6 1591/3/6
f 1590/4/6 1566/4/6 1591/4/6
f 1581/3/6 1582/3/6 1591/3/6
f 1591/3/6 1582/3/6 1592/3/6
f 1568/4/6 1569/4/6 1593/4/6
f 1583/3/6 1568/3/6 1593/3/6
f 1569/3/6 1570/3/6 1594/3/6
f 1593/4/6 1569/4/6 1594/4/6
f 1570/3/6 1571/3/6 1594/3/6
f 1594/3/6 1571/3/6 1595/3/6
f 1571/4/6 1572/4/6 1596/4/6
f 1595/3/6 1571/3/6 1596/3/6
f 1596/4/6 1572/4/6 1597/4/6
f 1584/1/6 1585/1/6 1599/1/6
f 1599/1/6 1585/1/6 1600/1/6
f 1587/2/6 1588/2/6 1601/2/6
f 1588/2/6 1578/2/6 1601/2/6
f 1601/2/6 1578/2/6 1602/2/6
f 1591/4/6 1592/4/6 1603/4/6
f 1590/4/6 1591/4/6 1603/4/6
f 1603/4/6 1592/4/6 1604/4/6
f 1598/1/6 1599/1/6 1605/1/6
f 1605/1/6 1599/1/6 1606/1/6
f 1587/2/6 1601/2/6 1608/2/6
f 1608/2/6 1601/2/6 1609/2/6
f 1603/3/6 1604/3/6 1610/3/6
f 1604/4/6 1592/4/6 1611/4/6
f 1610/3/6 1604/3/6 1611/3/6
f 1592/3/6 1582/3/6 1612/3/6
f 1611/4/6 1592/4/6 1612/4/6
f 1612/3/6 1582/3/6 1613/3/6
f 1582/4/6 1583/4/6 1614/4/6
f 1613/3/6 1582/3/6 1614/3/6
f 1583/3/6 1593/3/6 1615/3/6
f 1614/4/6 1583/4/6 1615/4/6
f 1593/3/6 1594/3/6 1615/3/6
f 1615/3/6 1594/3/6 1616/3/6
f 1594/4/6 1595/4/6 1617/4/6
f 1616/3/6 1594/3/6 1617/3/6
f 1595/3/6 1596/3/6 1618/3/6
f 1617/4/6 1595/4/6 1618/4/6
f 1618/3/6 1596/3/6 1619/3/6
f 1619/3/6 1596/3/6 1620/3/6
f 1607/2/6 1608/2/6 1622/2/6
f 1612/4/6 1613/4/6 1623/4/6
f 1611/4/6 1612/4/6 1623/4/6
f 1613/3/6 1614/3/6 1624/3/6
f 1623/4/6 1613/4/6 1624/4/6
f 1614/3/6 1615/3/6 1624/3/6
f 1615/4/6 1616/4/6 1625/4/6
f 1624/3/6 1615/3/6 1625/3/6
f 1617/3/6 1618/3/6 1626/3/6
f 1625/4/6 1616/4/6 1626/4/6
f 1616/3/6 1617/3/6 1626/3/6
f 1618/4/6 1619/4/6 1627/4/6
f 1626/3/6 1618/3/6 1627/3/6
f 1627/4/6 1619/4/6 1628/4/6
f 1621/2/6 1622/2/6 1629/2/6
f 1622/2/6 1608/2/6 1630/2/6
f 1629/2/6 1622/2/6 1630/2/6
