# Blender 4.4.1
# www.blender.org
mtllib Rail.mtl
o Untitled
v -0.500000 0.000000 0.500000
v -0.500000 0.000000 0.300000
v -0.500000 0.000000 0.100000
v -0.500000 -0.000000 -0.100000
v -0.500000 -0.000000 -0.300000
v -0.500000 -0.000000 -0.500000
v -0.500000 0.100000 0.500000
v -0.500000 0.100000 0.300000
v -0.500000 0.100000 0.100000
v -0.500000 0.100000 -0.100000
v -0.500000 0.100000 -0.300000
v -0.500000 0.100000 -0.500000
v -0.400000 0.100000 0.500000
v -0.400000 0.100000 0.300000
v -0.400000 0.100000 0.100000
v -0.400000 0.100000 -0.100000
v -0.400000 0.100000 -0.300000
v -0.400000 0.100000 -0.500000
v -0.400000 0.200000 0.500000
v -0.400000 0.200000 -0.500000
v 0.300000 0.100000 0.500000
v 0.300000 0.100000 0.300000
v 0.300000 0.100000 0.100000
v 0.300000 0.100000 -0.100000
v 0.300000 0.100000 -0.300000
v 0.300000 0.100000 -0.500000
v 0.300000 0.200000 0.500000
v 0.300000 0.200000 -0.500000
v -0.300000 0.100000 0.500000
v -0.300000 0.100000 0.300000
v -0.300000 0.100000 0.100000
v -0.300000 0.100000 -0.100000
v -0.300000 0.100000 -0.300000
v -0.300000 0.100000 -0.500000
v -0.300000 0.200000 0.500000
v -0.300000 0.200000 -0.500000
v 0.400000 0.100000 0.500000
v 0.400000 0.100000 0.300000
v 0.400000 0.100000 0.100000
v 0.400000 0.100000 -0.100000
v 0.400000 0.100000 -0.300000
v 0.400000 0.100000 -0.500000
v 0.400000 0.200000 0.500000
v 0.400000 0.200000 -0.500000
v 0.500000 0.000000 0.500000
v 0.500000 0.000000 0.300000
v 0.500000 0.000000 0.100000
v 0.500000 -0.000000 -0.100000
v 0.500000 -0.000000 -0.300000
v 0.500000 -0.000000 -0.500000
v 0.500000 0.100000 0.500000
v 0.500000 0.100000 0.300000
v 0.500000 0.100000 0.100000
v 0.500000 0.100000 -0.100000
v 0.500000 0.100000 -0.300000
v 0.500000 0.100000 -0.500000
v -0.500000 0.000000 0.500000
v -0.500000 0.100000 0.500000
v -0.400000 0.100000 0.500000
v -0.400000 0.200000 0.500000
v -0.300000 0.100000 0.500000
v -0.300000 0.200000 0.500000
v 0.300000 0.100000 0.500000
v 0.300000 0.200000 0.500000
v 0.400000 0.100000 0.500000
v 0.400000 0.200000 0.500000
v 0.500000 0.000000 0.500000
v 0.500000 0.100000 0.500000
v -0.500000 0.000000 0.100000
v -0.500000 0.100000 0.100000
v -0.400000 0.100000 0.100000
v -0.300000 0.100000 0.100000
v 0.300000 0.100000 0.100000
v 0.400000 0.100000 0.100000
v 0.500000 0.000000 0.100000
v 0.500000 0.100000 0.100000
v -0.500000 -0.000000 -0.300000
v -0.500000 0.100000 -0.300000
v -0.400000 0.100000 -0.300000
v -0.300000 0.100000 -0.300000
v 0.300000 0.100000 -0.300000
v 0.400000 0.100000 -0.300000
v 0.500000 -0.000000 -0.300000
v 0.500000 0.100000 -0.300000
v -0.500000 0.000000 0.300000
v -0.500000 0.100000 0.300000
v -0.400000 0.100000 0.300000
v -0.300000 0.100000 0.300000
v 0.300000 0.100000 0.300000
v 0.400000 0.100000 0.300000
v 0.500000 0.000000 0.300000
v 0.500000 0.100000 0.300000
v -0.500000 -0.000000 -0.100000
v -0.500000 0.100000 -0.100000
v -0.400000 0.100000 -0.100000
v -0.300000 0.100000 -0.100000
v 0.300000 0.100000 -0.100000
v 0.400000 0.100000 -0.100000
v 0.500000 -0.000000 -0.100000
v 0.500000 0.100000 -0.100000
v -0.500000 -0.000000 -0.500000
v -0.500000 0.100000 -0.500000
v -0.400000 0.100000 -0.500000
v -0.400000 0.200000 -0.500000
v -0.300000 0.100000 -0.500000
v -0.300000 0.200000 -0.500000
v 0.300000 0.100000 -0.500000
v 0.300000 0.200000 -0.500000
v 0.400000 0.100000 -0.500000
v 0.400000 0.200000 -0.500000
v 0.500000 -0.000000 -0.500000
v 0.500000 0.100000 -0.500000
v -0.500000 0.000000 0.500000
v 0.500000 0.000000 0.500000
v -0.500000 0.000000 0.300000
v 0.500000 0.000000 0.300000
v -0.500000 0.000000 0.100000
v 0.500000 0.000000 0.100000
v -0.500000 -0.000000 -0.100000
v 0.500000 -0.000000 -0.100000
v -0.500000 -0.000000 -0.300000
v 0.500000 -0.000000 -0.300000
v -0.500000 -0.000000 -0.500000
v 0.500000 -0.000000 -0.500000
v -0.400000 0.100000 0.300000
v -0.300000 0.100000 0.300000
v 0.300000 0.100000 0.300000
v 0.400000 0.100000 0.300000
v -0.400000 0.100000 0.100000
v -0.300000 0.100000 0.100000
v 0.300000 0.100000 0.100000
v 0.400000 0.100000 0.100000
v -0.400000 0.100000 -0.100000
v -0.300000 0.100000 -0.100000
v 0.300000 0.100000 -0.100000
v 0.400000 0.100000 -0.100000
v -0.400000 0.100000 -0.300000
v -0.300000 0.100000 -0.300000
v 0.300000 0.100000 -0.300000
v 0.400000 0.100000 -0.300000
v -0.500000 0.100000 0.500000
v -0.400000 0.100000 0.500000
v -0.300000 0.100000 0.500000
v 0.300000 0.100000 0.500000
v 0.400000 0.100000 0.500000
v 0.500000 0.100000 0.500000
v -0.500000 0.100000 0.300000
v -0.400000 0.100000 0.300000
v -0.300000 0.100000 0.300000
v 0.300000 0.100000 0.300000
v 0.400000 0.100000 0.300000
v 0.500000 0.100000 0.300000
v -0.500000 0.100000 0.100000
v -0.400000 0.100000 0.100000
v -0.300000 0.100000 0.100000
v 0.300000 0.100000 0.100000
v 0.400000 0.100000 0.100000
v 0.500000 0.100000 0.100000
v -0.500000 0.100000 -0.100000
v -0.400000 0.100000 -0.100000
v -0.300000 0.100000 -0.100000
v 0.300000 0.100000 -0.100000
v 0.400000 0.100000 -0.100000
v 0.500000 0.100000 -0.100000
v -0.500000 0.100000 -0.300000
v -0.400000 0.100000 -0.300000
v -0.300000 0.100000 -0.300000
v 0.300000 0.100000 -0.300000
v 0.400000 0.100000 -0.300000
v 0.500000 0.100000 -0.300000
v -0.500000 0.100000 -0.500000
v -0.400000 0.100000 -0.500000
v -0.300000 0.100000 -0.500000
v 0.300000 0.100000 -0.500000
v 0.400000 0.100000 -0.500000
v 0.500000 0.100000 -0.500000
v -0.400000 0.200000 0.500000
v -0.300000 0.200000 0.500000
v 0.300000 0.200000 0.500000
v 0.400000 0.200000 0.500000
v -0.400000 0.200000 -0.500000
v -0.300000 0.200000 -0.500000
v 0.300000 0.200000 -0.500000
v 0.400000 0.200000 -0.500000
vn -1.0000 -0.0000 -0.0000
vn 1.0000 -0.0000 -0.0000
vn -0.0000 -0.0000 1.0000
vn -0.0000 -0.0000 -1.0000
vn -0.0000 -1.0000 -0.0000
vn -0.0000 1.0000 -0.0000
vt 0.369141 0.500000
vt 0.986328 0.500000
s 1
usemtl palette
f 7/1/1 2/1/1 1/1/1
f 8/1/1 2/1/1 7/1/1
f 9/1/1 4/1/1 3/1/1
f 10/1/1 4/1/1 9/1/1
f 11/1/1 6/1/1 5/1/1
f 12/1/1 6/1/1 11/1/1
f 19/2/1 14/2/1 13/2/1
f 19/2/1 18/2/1 17/2/1
f 19/2/1 17/2/1 16/2/1
f 19/2/1 16/2/1 15/2/1
f 19/2/1 15/2/1 14/2/1
f 20/2/1 18/2/1 19/2/1
f 27/2/1 22/2/1 21/2/1
f 27/2/1 26/2/1 25/2/1
f 27/2/1 25/2/1 24/2/1
f 27/2/1 24/2/1 23/2/1
f 27/2/1 23/2/1 22/2/1
f 28/2/1 26/2/1 27/2/1
f 29/2/2 30/2/2 35/2/2
f 33/2/2 34/2/2 35/2/2
f 32/2/2 33/2/2 35/2/2
f 31/2/2 32/2/2 35/2/2
f 30/2/2 31/2/2 35/2/2
f 35/2/2 34/2/2 36/2/2
f 37/2/2 38/2/2 43/2/2
f 41/2/2 42/2/2 43/2/2
f 40/2/2 41/2/2 43/2/2
f 39/2/2 40/2/2 43/2/2
f 38/2/2 39/2/2 43/2/2
f 43/2/2 42/2/2 44/2/2
f 45/1/2 46/1/2 51/1/2
f 51/1/2 46/1/2 52/1/2
f 47/1/2 48/1/2 53/1/2
f 53/1/2 48/1/2 54/1/2
f 49/1/2 50/1/2 55/1/2
f 55/1/2 50/1/2 56/1/2
f 59/1/3 58/1/3 57/1/3
f 61/1/3 59/1/3 57/1/3
f 61/2/3 60/2/3 59/2/3
f 62/2/3 60/2/3 61/2/3
f 63/1/3 61/1/3 57/1/3
f 65/1/3 63/1/3 57/1/3
f 65/2/3 64/2/3 63/2/3
f 66/2/3 64/2/3 65/2/3
f 67/1/3 65/1/3 57/1/3
f 68/1/3 65/1/3 67/1/3
f 71/1/3 70/1/3 69/1/3
f 72/1/3 71/1/3 69/1/3
f 73/1/3 72/1/3 69/1/3
f 74/1/3 73/1/3 69/1/3
f 75/1/3 74/1/3 69/1/3
f 76/1/3 74/1/3 75/1/3
f 79/1/3 78/1/3 77/1/3
f 80/1/3 79/1/3 77/1/3
f 81/1/3 80/1/3 77/1/3
f 82/1/3 81/1/3 77/1/3
f 83/1/3 82/1/3 77/1/3
f 84/1/3 82/1/3 83/1/3
f 85/1/4 86/1/4 87/1/4
f 85/1/4 87/1/4 88/1/4
f 85/1/4 88/1/4 89/1/4
f 85/1/4 89/1/4 90/1/4
f 85/1/4 90/1/4 91/1/4
f 91/1/4 90/1/4 92/1/4
f 93/1/4 94/1/4 95/1/4
f 93/1/4 95/1/4 96/1/4
f 93/1/4 96/1/4 97/1/4
f 93/1/4 97/1/4 98/1/4
f 93/1/4 98/1/4 99/1/4
f 99/1/4 98/1/4 100/1/4
f 101/1/4 102/1/4 103/1/4
f 101/1/4 103/1/4 105/1/4
f 103/2/4 104/2/4 105/2/4
f 105/2/4 104/2/4 106/2/4
f 101/1/4 105/1/4 107/1/4
f 101/1/4 107/1/4 109/1/4
f 107/2/4 108/2/4 109/2/4
f 109/2/4 108/2/4 110/2/4
f 101/1/4 109/1/4 111/1/4
f 111/1/4 109/1/4 112/1/4
f 115/1/5 114/1/5 113/1/5
f 116/1/5 114/1/5 115/1/5
f 119/1/5 118/1/5 117/1/5
f 120/1/5 118/1/5 119/1/5
f 123/1/5 122/1/5 121/1/5
f 124/1/5 122/1/5 123/1/5
f 129/2/5 126/2/5 125/2/5
f 130/2/5 126/2/5 129/2/5
f 131/2/5 128/2/5 127/2/5
f 132/2/5 128/2/5 131/2/5
f 137/2/5 134/2/5 133/2/5
f 138/2/5 134/2/5 137/2/5
f 139/2/5 136/2/5 135/2/5
f 140/2/5 136/2/5 139/2/5
f 141/1/6 142/1/6 147/1/6
f 147/1/6 142/1/6 148/1/6
f 143/1/6 144/1/6 149/1/6
f 149/1/6 144/1/6 150/1/6
f 145/1/6 146/1/6 151/1/6
f 151/1/6 146/1/6 152/1/6
f 153/1/6 154/1/6 159/1/6
f 159/1/6 154/1/6 160/1/6
f 155/1/6 156/1/6 161/1/6
f 161/1/6 156/1/6 162/1/6
f 157/1/6 158/1/6 163/1/6
f 163/1/6 158/1/6 164/1/6
f 165/1/6 166/1/6 171/1/6
f 171/1/6 166/1/6 172/1/6
f 167/1/6 168/1/6 173/1/6
f 173/1/6 168/1/6 174/1/6
f 169/1/6 170/1/6 175/1/6
f 175/1/6 170/1/6 176/1/6
f 177/2/6 178/2/6 181/2/6
f 181/2/6 178/2/6 182/2/6
f 179/2/6 180/2/6 183/2/6
f 183/2/6 180/2/6 184/2/6
