# Blender 5.1.0
# www.blender.org
mtllib player-2.mtl
o Untitled.004
v -0.150000 -0.381579 0.202632
v -0.150000 -0.381579 0.102632
v -0.150000 -0.381579 -0.297368
v -0.150000 -0.281579 0.202632
v -0.150000 -0.281579 0.102632
v -0.150000 -0.281579 -0.297368
v -0.150000 -0.181579 0.102632
v -0.150000 -0.181579 -0.197368
v -0.150000 0.318421 0.102632
v -0.150000 0.318421 -0.197368
v -0.150000 0.418421 0.102632
v -0.150000 0.418421 -0.197368
v -0.150000 0.718421 0.102632
v -0.150000 0.718421 -0.197368
v -0.050000 -0.381579 0.302632
v -0.050000 -0.381579 0.202632
v -0.050000 -0.281579 0.302632
v -0.050000 -0.281579 0.202632
v -0.050000 -0.281579 0.102632
v -0.050000 -0.281579 -0.197368
v -0.050000 -0.181579 0.102632
v -0.050000 -0.181579 -0.197368
v -0.050000 0.318421 0.002632
v -0.050000 0.318421 -0.197368
v -0.050000 0.418421 0.002632
v -0.050000 0.418421 -0.197368
v 0.050000 -0.381579 0.302632
v 0.050000 -0.381579 0.202632
v 0.050000 -0.281579 0.302632
v 0.050000 -0.281579 0.202632
v 0.050000 -0.281579 0.102632
v 0.050000 -0.281579 -0.197368
v 0.050000 -0.181579 0.102632
v 0.050000 -0.181579 -0.197368
v 0.050000 0.318421 0.002632
v 0.050000 0.318421 -0.197368
v 0.050000 0.418421 0.002632
v 0.050000 0.418421 -0.197368
v 0.150000 -0.381579 0.202632
v 0.150000 -0.381579 0.102632
v 0.150000 -0.381579 -0.297368
v 0.150000 -0.281579 0.202632
v 0.150000 -0.281579 0.102632
v 0.150000 -0.281579 -0.297368
v 0.150000 -0.181579 0.102632
v 0.150000 -0.181579 -0.197368
v 0.150000 0.318421 0.102632
v 0.150000 0.318421 -0.197368
v 0.150000 0.418421 0.102632
v 0.150000 0.418421 -0.197368
v 0.150000 0.718421 0.102632
v 0.150000 0.718421 -0.197368
v -0.050000 -0.381579 0.302632
v -0.050000 -0.281579 0.302632
v 0.050000 -0.381579 0.302632
v 0.050000 -0.281579 0.302632
v -0.150000 -0.381579 0.202632
v -0.150000 -0.281579 0.202632
v -0.050000 -0.381579 0.202632
v -0.050000 -0.281579 0.202632
v 0.050000 -0.381579 0.202632
v 0.050000 -0.281579 0.202632
v 0.150000 -0.381579 0.202632
v 0.150000 -0.281579 0.202632
v -0.150000 -0.181579 0.102632
v -0.150000 0.318421 0.102632
v -0.150000 0.418421 0.102632
v -0.150000 0.718421 0.102632
v -0.050000 -0.281579 0.102632
v -0.050000 -0.181579 0.102632
v 0.050000 -0.281579 0.102632
v 0.050000 -0.181579 0.102632
v 0.150000 -0.181579 0.102632
v 0.150000 0.318421 0.102632
v 0.150000 0.418421 0.102632
v 0.150000 0.718421 0.102632
v -0.050000 0.318421 0.002632
v -0.050000 0.418421 0.002632
v 0.050000 0.318421 0.002632
v 0.050000 0.418421 0.002632
v -0.150000 -0.181579 -0.197368
v -0.150000 0.318421 -0.197368
v -0.150000 0.418421 -0.197368
v -0.150000 0.718421 -0.197368
v -0.050000 -0.281579 -0.197368
v -0.050000 -0.181579 -0.197368
v -0.050000 0.318421 -0.197368
v -0.050000 0.418421 -0.197368
v 0.050000 -0.281579 -0.197368
v 0.050000 -0.181579 -0.197368
v 0.050000 0.318421 -0.197368
v 0.050000 0.418421 -0.197368
v 0.150000 -0.181579 -0.197368
v 0.150000 0.318421 -0.197368
v 0.150000 0.418421 -0.197368
v 0.150000 0.718421 -0.197368
v -0.150000 -0.381579 -0.297368
v -0.150000 -0.281579 -0.297368
v 0.150000 -0.381579 -0.297368
v 0.150000 -0.281579 -0.297368
v -0.050000 -0.381579 0.302632
v 0.050000 -0.381579 0.302632
v -0.150000 -0.381579 0.202632
v -0.050000 -0.381579 0.202632
v 0.050000 -0.381579 0.202632
v 0.150000 -0.381579 0.202632
v -0.150000 -0.381579 0.102632
v 0.150000 -0.381579 0.102632
v -0.150000 -0.381579 -0.297368
v 0.150000 -0.381579 -0.297368
v -0.150000 -0.181579 0.102632
v -0.050000 -0.181579 0.102632
v 0.050000 -0.181579 0.102632
v 0.150000 -0.181579 0.102632
v -0.150000 -0.181579 -0.197368
v -0.050000 -0.181579 -0.197368
v 0.050000 -0.181579 -0.197368
v 0.150000 -0.181579 -0.197368
v -0.150000 0.418421 0.102632
v 0.150000 0.418421 0.102632
v -0.050000 0.418421 0.002632
v 0.050000 0.418421 0.002632
v -0.150000 0.418421 -0.197368
v -0.050000 0.418421 -0.197368
v 0.050000 0.418421 -0.197368
v 0.150000 0.418421 -0.197368
v -0.050000 -0.281579 0.302632
v 0.050000 -0.281579 0.302632
v -0.150000 -0.281579 0.202632
v -0.050000 -0.281579 0.202632
v 0.050000 -0.281579 0.202632
v 0.150000 -0.281579 0.202632
v -0.150000 -0.281579 0.102632
v -0.050000 -0.281579 0.102632
v 0.050000 -0.281579 0.102632
v 0.150000 -0.281579 0.102632
v -0.050000 -0.281579 -0.197368
v 0.050000 -0.281579 -0.197368
v -0.150000 -0.281579 -0.297368
v 0.150000 -0.281579 -0.297368
v -0.150000 0.318421 0.102632
v 0.150000 0.318421 0.102632
v -0.050000 0.318421 0.002632
v 0.050000 0.318421 0.002632
v -0.150000 0.318421 -0.197368
v -0.050000 0.318421 -0.197368
v 0.050000 0.318421 -0.197368
v 0.150000 0.318421 -0.197368
v -0.150000 0.718421 0.102632
v 0.150000 0.718421 0.102632
v -0.150000 0.718421 -0.197368
v 0.150000 0.718421 -0.197368
vn -1.0000 -0.0000 -0.0000
vn 1.0000 -0.0000 -0.0000
vn -0.0000 -0.0000 1.0000
vn -0.0000 -0.0000 -1.0000
vn -0.0000 -1.0000 -0.0000
vn -0.0000 1.0000 -0.0000
vt 0.919922 0.500000
vt 0.982422 0.500000
s 1
usemtl palette.004
f 4/1/1 2/1/1 1/1/1
f 5/2/1 3/2/1 2/2/1
f 5/1/1 2/1/1 4/1/1
f 6/2/1 3/2/1 5/2/1
f 9/2/1 8/2/1 7/2/1
f 10/2/1 8/2/1 9/2/1
f 13/1/1 12/1/1 11/1/1
f 14/1/1 12/1/1 13/1/1
f 17/1/1 16/1/1 15/1/1
f 18/1/1 16/1/1 17/1/1
f 21/2/1 20/2/1 19/2/1
f 22/2/1 20/2/1 21/2/1
f 25/2/1 24/2/1 23/2/1
f 26/2/1 24/2/1 25/2/1
f 27/1/2 28/1/2 29/1/2
f 29/1/2 28/1/2 30/1/2
f 31/2/2 32/2/2 33/2/2
f 33/2/2 32/2/2 34/2/2
f 35/2/2 36/2/2 37/2/2
f 37/2/2 36/2/2 38/2/2
f 39/1/2 40/1/2 42/1/2
f 40/2/2 41/2/2 43/2/2
f 42/1/2 40/1/2 43/1/2
f 43/2/2 41/2/2 44/2/2
f 45/2/2 46/2/2 47/2/2
f 47/2/2 46/2/2 48/2/2
f 49/1/2 50/1/2 51/1/2
f 51/1/2 50/1/2 52/1/2
f 55/1/3 54/1/3 53/1/3
f 56/1/3 54/1/3 55/1/3
f 59/1/3 58/1/3 57/1/3
f 60/1/3 58/1/3 59/1/3
f 63/1/3 62/1/3 61/1/3
f 64/1/3 62/1/3 63/1/3
f 70/2/3 66/2/3 65/2/3
f 71/2/3 70/2/3 69/2/3
f 72/2/3 66/2/3 70/2/3
f 72/2/3 70/2/3 71/2/3
f 73/2/3 66/2/3 72/2/3
f 74/2/3 66/2/3 73/2/3
f 75/1/3 68/1/3 67/1/3
f 76/1/3 68/1/3 75/1/3
f 79/2/3 78/2/3 77/2/3
f 80/2/3 78/2/3 79/2/3
f 81/2/4 82/2/4 86/2/4
f 86/2/4 82/2/4 87/2/4
f 83/1/4 84/1/4 88/1/4
f 86/2/4 87/2/4 89/2/4
f 87/2/4 88/2/4 89/2/4
f 85/2/4 86/2/4 89/2/4
f 89/2/4 88/2/4 90/2/4
f 90/2/4 88/2/4 91/2/4
f 88/1/4 84/1/4 92/1/4
f 91/2/4 88/2/4 92/2/4
f 90/2/4 91/2/4 93/2/4
f 93/2/4 91/2/4 94/2/4
f 92/1/4 84/1/4 95/1/4
f 95/1/4 84/1/4 96/1/4
f 97/2/4 98/2/4 99/2/4
f 99/2/4 98/2/4 100/2/4
f 104/1/5 102/1/5 101/1/5
f 105/1/5 102/1/5 104/1/5
f 107/1/5 104/1/5 103/1/5
f 107/1/5 106/1/5 105/1/5
f 107/1/5 105/1/5 104/1/5
f 108/1/5 106/1/5 107/1/5
f 109/2/5 108/2/5 107/2/5
f 110/2/5 108/2/5 109/2/5
f 115/2/5 112/2/5 111/2/5
f 116/2/5 112/2/5 115/2/5
f 117/2/5 114/2/5 113/2/5
f 118/2/5 114/2/5 117/2/5
f 121/1/5 120/1/5 119/1/5
f 122/1/5 120/1/5 121/1/5
f 123/1/5 121/1/5 119/1/5
f 124/1/5 121/1/5 123/1/5
f 125/1/5 120/1/5 122/1/5
f 126/1/5 120/1/5 125/1/5
f 127/1/6 128/1/6 130/1/6
f 130/1/6 128/1/6 131/1/6
f 129/1/6 130/1/6 133/1/6
f 131/1/6 132/1/6 133/1/6
f 130/1/6 131/1/6 133/1/6
f 133/1/6 132/1/6 134/1/6
f 134/1/6 132/1/6 135/1/6
f 135/1/6 132/1/6 136/1/6
f 133/2/6 134/2/6 137/2/6
f 135/2/6 136/2/6 138/2/6
f 133/2/6 137/2/6 139/2/6
f 137/2/6 138/2/6 139/2/6
f 138/2/6 136/2/6 140/2/6
f 139/2/6 138/2/6 140/2/6
f 141/2/6 142/2/6 143/2/6
f 143/2/6 142/2/6 144/2/6
f 141/2/6 143/2/6 145/2/6
f 145/2/6 143/2/6 146/2/6
f 144/2/6 142/2/6 147/2/6
f 147/2/6 142/2/6 148/2/6
f 149/1/6 150/1/6 151/1/6
f 151/1/6 150/1/6 152/1/6
