# Blender 4.4.1
# www.blender.org
mtllib Wall_02.mtl
o Untitled
v -0.438462 0.000000 0.400000
v -0.438462 -0.000000 -0.600000
v -0.438462 0.400000 0.400000
v -0.438462 0.400000 -0.600000
v -0.338462 0.400000 0.300000
v -0.338462 0.400000 -0.600000
v -0.338462 0.700000 0.300000
v -0.338462 0.700000 0.000000
v -0.338462 1.400000 0.000000
v -0.338462 1.400000 -0.600000
v -0.038462 0.400000 0.400000
v -0.038462 0.400000 0.300000
v -0.038462 0.700000 0.300000
v -0.038462 0.700000 0.000000
v -0.038462 0.800000 0.400000
v -0.038462 0.800000 0.300000
v -0.038462 1.400000 0.300000
v -0.038462 1.400000 0.000000
v 0.461538 0.800000 0.300000
v 0.461538 0.800000 -0.600000
v 0.461538 1.400000 0.300000
v 0.461538 1.400000 -0.600000
v 0.561538 0.000000 0.400000
v 0.561538 -0.000000 -0.600000
v 0.561538 0.800000 0.400000
v 0.561538 0.800000 -0.600000
v -0.438462 0.000000 0.400000
v -0.438462 0.400000 0.400000
v -0.038462 0.400000 0.400000
v -0.038462 0.800000 0.400000
v 0.561538 0.000000 0.400000
v 0.561538 0.800000 0.400000
v -0.338462 0.400000 0.300000
v -0.338462 0.700000 0.300000
v -0.038462 0.400000 0.300000
v -0.038462 0.700000 0.300000
v -0.038462 0.800000 0.300000
v -0.038462 1.400000 0.300000
v 0.461538 0.800000 0.300000
v 0.461538 1.400000 0.300000
v -0.338462 0.700000 0.000000
v -0.338462 1.400000 0.000000
v -0.038462 0.700000 0.000000
v -0.038462 1.400000 0.000000
v -0.438462 -0.000000 -0.600000
v -0.438462 0.400000 -0.600000
v -0.338462 0.400000 -0.600000
v -0.338462 1.400000 -0.600000
v 0.461538 0.800000 -0.600000
v 0.461538 1.400000 -0.600000
v 0.561538 -0.000000 -0.600000
v 0.561538 0.800000 -0.600000
v -0.438462 0.000000 0.400000
v 0.561538 0.000000 0.400000
v -0.438462 -0.000000 -0.600000
v 0.561538 -0.000000 -0.600000
v -0.438462 0.400000 0.400000
v -0.038462 0.400000 0.400000
v -0.338462 0.400000 0.300000
v -0.038462 0.400000 0.300000
v -0.438462 0.400000 -0.600000
v -0.338462 0.400000 -0.600000
v -0.338462 0.700000 0.300000
v -0.038462 0.700000 0.300000
v -0.338462 0.700000 0.000000
v -0.038462 0.700000 0.000000
v -0.038462 0.800000 0.400000
v 0.561538 0.800000 0.400000
v -0.038462 0.800000 0.300000
v 0.461538 0.800000 0.300000
v 0.461538 0.800000 -0.600000
v 0.561538 0.800000 -0.600000
v -0.038462 1.400000 0.300000
v 0.461538 1.400000 0.300000
v -0.338462 1.400000 0.000000
v -0.038462 1.400000 0.000000
v -0.338462 1.400000 -0.600000
v 0.461538 1.400000 -0.600000
vn -1.0000 -0.0000 -0.0000
vn 1.0000 -0.0000 -0.0000
vn -0.0000 -0.0000 1.0000
vn -0.0000 -0.0000 -1.0000
vn -0.0000 -1.0000 -0.0000
vn -0.0000 1.0000 -0.0000
vt 0.982422 0.500000
s 1
usemtl palette.001
f 3/1/1 2/1/1 1/1/1
f 4/1/1 2/1/1 3/1/1
f 7/1/1 6/1/1 5/1/1
f 8/1/1 6/1/1 7/1/1
f 9/1/1 6/1/1 8/1/1
f 10/1/1 6/1/1 9/1/1
f 13/1/1 12/1/1 11/1/1
f 15/1/1 13/1/1 11/1/1
f 15/1/1 14/1/1 13/1/1
f 16/1/1 14/1/1 15/1/1
f 17/1/1 14/1/1 16/1/1
f 18/1/1 14/1/1 17/1/1
f 19/1/2 20/1/2 21/1/2
f 21/1/2 20/1/2 22/1/2
f 23/1/2 24/1/2 25/1/2
f 25/1/2 24/1/2 26/1/2
f 29/1/3 28/1/3 27/1/3
f 31/1/3 29/1/3 27/1/3
f 31/1/3 30/1/3 29/1/3
f 32/1/3 30/1/3 31/1/3
f 35/1/3 34/1/3 33/1/3
f 36/1/3 34/1/3 35/1/3
f 39/1/3 38/1/3 37/1/3
f 40/1/3 38/1/3 39/1/3
f 43/1/3 42/1/3 41/1/3
f 44/1/3 42/1/3 43/1/3
f 45/1/4 46/1/4 47/1/4
f 47/1/4 48/1/4 49/1/4
f 49/1/4 48/1/4 50/1/4
f 45/1/4 47/1/4 51/1/4
f 47/1/4 49/1/4 51/1/4
f 51/1/4 49/1/4 52/1/4
f 55/1/5 54/1/5 53/1/5
f 56/1/5 54/1/5 55/1/5
f 57/1/6 58/1/6 59/1/6
f 59/1/6 58/1/6 60/1/6
f 57/1/6 59/1/6 61/1/6
f 61/1/6 59/1/6 62/1/6
f 63/1/6 64/1/6 65/1/6
f 65/1/6 64/1/6 66/1/6
f 67/1/6 68/1/6 69/1/6
f 69/1/6 68/1/6 70/1/6
f 70/1/6 68/1/6 71/1/6
f 71/1/6 68/1/6 72/1/6
f 73/1/6 74/1/6 76/1/6
f 75/1/6 76/1/6 77/1/6
f 76/1/6 74/1/6 78/1/6
f 77/1/6 76/1/6 78/1/6
