# Blender 5.0.1
# www.blender.org
mtllib Field.mtl
o 平面.002
v -4.100000 0.007938 2.350000
v 4.100000 0.007938 2.350000
v -4.100000 0.007938 -2.350000
v 4.100000 0.007938 -2.350000
v 4.000000 0.007938 2.250000
v 4.000000 0.007938 -2.250000
v -4.000000 0.007938 2.250000
v -4.000000 0.007938 -2.250000
vn -0.0000 1.0000 -0.0000
vt 0.000000 1.000000
vt 0.000000 0.000000
vt 0.012195 0.021277
vt 0.012195 0.978723
vt 1.000000 0.000000
vt 1.000000 1.000000
vt 0.987805 0.978723
vt 0.987805 0.021277
s 0
usemtl 
f 3/1/1 1/2/1 7/3/1 8/4/1
f 7/3/1 1/2/1 2/5/1 4/6/1 3/1/1 8/4/1 6/7/1 5/8/1
o 平面
v -50000.000000 0.000000 50000.000000
v 50000.000000 0.000000 50000.000000
v -50000.000000 0.000000 -50000.000000
v 50000.000000 0.000000 -50000.000000
v 4.000000 0.000000 2.250000
v 4.000000 0.000000 -2.250000
v -4.000000 0.000000 2.250000
v -4.000000 0.000000 -2.250000
vn -0.0000 1.0000 -0.0000
vt 0.000000 1.000000
vt 0.000000 0.000000
vt 0.499960 0.499977
vt 0.499960 0.500023
vt 1.000000 0.000000
vt 1.000000 1.000000
vt 0.500040 0.500023
vt 0.500040 0.499977
s 0
usemtl Material
f 11/9/2 9/10/2 15/11/2 16/12/2
f 15/11/2 9/10/2 10/13/2 12/14/2 11/9/2 16/12/2 14/15/2 13/16/2
