# Blender 5.0.1
# www.blender.org
mtllib Start.mtl
o テキスト
v 0.453333 0.205000 0.100000
v 0.453333 0.080000 0.100000
v 0.661667 0.080000 0.100000
v 0.661667 -0.003333 0.100000
v 0.453333 -0.003333 0.100000
v 0.453333 -0.170000 0.100000
v 0.370000 -0.170000 0.100000
v 0.370000 0.205000 0.100000
v 0.036667 0.080000 0.100000
v 0.120000 0.080000 0.100000
v 0.120000 0.038333 0.100000
v 0.328333 0.038333 0.100000
v 0.328333 -0.045000 0.100000
v 0.078333 -0.045000 0.100000
v 0.078333 -0.003333 0.100000
v 0.036667 -0.003333 0.100000
v -0.005000 0.205000 0.100000
v -0.005000 -0.086667 0.100000
v -0.046667 -0.086667 0.100000
v -0.046667 -0.128333 0.100000
v -0.088333 -0.128333 0.100000
v -0.088333 -0.170000 0.100000
v -0.213333 -0.170000 0.100000
v -0.213333 -0.086667 0.100000
v -0.130000 -0.086667 0.100000
v -0.130000 -0.045000 0.100000
v -0.088333 -0.045000 0.100000
v -0.088333 -0.003333 0.100000
v -0.213333 -0.003333 0.100000
v -0.213333 -0.045000 0.100000
v -0.296667 -0.045000 0.100000
v -0.296667 0.038333 0.100000
v -0.255000 0.038333 0.100000
v -0.255000 0.205000 0.100000
v -0.088333 0.080000 0.100000
v -0.088333 0.121667 0.100000
v -0.171667 0.121667 0.100000
v -0.171667 0.080000 0.100000
v -0.630000 0.205000 0.100000
v -0.338333 0.205000 0.100000
v -0.338333 0.080000 0.100000
v -0.380000 0.080000 0.100000
v -0.380000 0.038333 0.100000
v -0.421667 0.038333 0.100000
v -0.421667 -0.003333 0.100000
v -0.380000 -0.003333 0.100000
v -0.380000 -0.045000 0.100000
v -0.338333 -0.045000 0.100000
v -0.338333 -0.170000 0.100000
v -0.421667 -0.170000 0.100000
v -0.421667 -0.086667 0.100000
v -0.463333 -0.086667 0.100000
v -0.463333 -0.045000 0.100000
v -0.505000 -0.045000 0.100000
v -0.505000 -0.086667 0.100000
v -0.546667 -0.086667 0.100000
v -0.546667 -0.170000 0.100000
v -0.630000 -0.170000 0.100000
v -0.630000 -0.045000 0.100000
v -0.588333 -0.045000 0.100000
v -0.588333 -0.003333 0.100000
v -0.546667 -0.003333 0.100000
v -0.546667 0.038333 0.100000
v -0.505000 0.038333 0.100000
v -0.505000 0.080000 0.100000
v -0.463333 0.080000 0.100000
v -0.463333 0.121667 0.100000
v -0.630000 0.121667 0.100000
v 0.453333 0.205000 -0.100000
v 0.453333 0.080000 -0.100000
v 0.661667 0.080000 -0.100000
v 0.661667 -0.003333 -0.100000
v 0.453333 -0.003333 -0.100000
v 0.453333 -0.170000 -0.100000
v 0.370000 -0.170000 -0.100000
v 0.370000 0.205000 -0.100000
v 0.036667 0.080000 -0.100000
v 0.120000 0.080000 -0.100000
v 0.120000 0.038333 -0.100000
v 0.328333 0.038333 -0.100000
v 0.328333 -0.045000 -0.100000
v 0.078333 -0.045000 -0.100000
v 0.078333 -0.003333 -0.100000
v 0.036667 -0.003333 -0.100000
v -0.005000 0.205000 -0.100000
v -0.005000 -0.086667 -0.100000
v -0.046667 -0.086667 -0.100000
v -0.046667 -0.128333 -0.100000
v -0.088333 -0.128333 -0.100000
v -0.088333 -0.170000 -0.100000
v -0.213333 -0.170000 -0.100000
v -0.213333 -0.086667 -0.100000
v -0.130000 -0.086667 -0.100000
v -0.130000 -0.045000 -0.100000
v -0.088333 -0.045000 -0.100000
v -0.088333 -0.003333 -0.100000
v -0.213333 -0.003333 -0.100000
v -0.213333 -0.045000 -0.100000
v -0.296667 -0.045000 -0.100000
v -0.296667 0.038333 -0.100000
v -0.255000 0.038333 -0.100000
v -0.255000 0.205000 -0.100000
v -0.088333 0.080000 -0.100000
v -0.088333 0.121667 -0.100000
v -0.171667 0.121667 -0.100000
v -0.171667 0.080000 -0.100000
v -0.630000 0.205000 -0.100000
v -0.338333 0.205000 -0.100000
v -0.338333 0.080000 -0.100000
v -0.380000 0.080000 -0.100000
v -0.380000 0.038333 -0.100000
v -0.421667 0.038333 -0.100000
v -0.421667 -0.003333 -0.100000
v -0.380000 -0.003333 -0.100000
v -0.380000 -0.045000 -0.100000
v -0.338333 -0.045000 -0.100000
v -0.338333 -0.170000 -0.100000
v -0.421667 -0.170000 -0.100000
v -0.421667 -0.086667 -0.100000
v -0.463333 -0.086667 -0.100000
v -0.463333 -0.045000 -0.100000
v -0.505000 -0.045000 -0.100000
v -0.505000 -0.086667 -0.100000
v -0.546667 -0.086667 -0.100000
v -0.546667 -0.170000 -0.100000
v -0.630000 -0.170000 -0.100000
v -0.630000 -0.045000 -0.100000
v -0.588333 -0.045000 -0.100000
v -0.588333 -0.003333 -0.100000
v -0.546667 -0.003333 -0.100000
v -0.546667 0.038333 -0.100000
v -0.505000 0.038333 -0.100000
v -0.505000 0.080000 -0.100000
v -0.463333 0.080000 -0.100000
v -0.463333 0.121667 -0.100000
v -0.630000 0.121667 -0.100000
v -0.630000 0.205000 -0.100000
v -0.630000 0.205000 0.100000
v -0.338333 0.205000 -0.100000
v -0.338333 0.205000 0.100000
v -0.338333 0.080000 -0.100000
v -0.338333 0.080000 0.100000
v -0.380000 0.080000 -0.100000
v -0.380000 0.080000 0.100000
v -0.380000 0.038333 -0.100000
v -0.380000 0.038333 0.100000
v -0.421667 0.038333 -0.100000
v -0.421667 0.038333 0.100000
v -0.421667 -0.003333 -0.100000
v -0.421667 -0.003333 0.100000
v -0.380000 -0.003333 -0.100000
v -0.380000 -0.003333 0.100000
v -0.380000 -0.045000 -0.100000
v -0.380000 -0.045000 0.100000
v -0.338333 -0.045000 -0.100000
v -0.338333 -0.045000 0.100000
v -0.338333 -0.170000 -0.100000
v -0.338333 -0.170000 0.100000
v -0.421667 -0.170000 -0.100000
v -0.421667 -0.170000 0.100000
v -0.421667 -0.086667 -0.100000
v -0.421667 -0.086667 0.100000
v -0.463333 -0.086667 -0.100000
v -0.463333 -0.086667 0.100000
v -0.463333 -0.045000 -0.100000
v -0.463333 -0.045000 0.100000
v -0.505000 -0.045000 -0.100000
v -0.505000 -0.045000 0.100000
v -0.505000 -0.086667 -0.100000
v -0.505000 -0.086667 0.100000
v -0.546667 -0.086667 -0.100000
v -0.546667 -0.086667 0.100000
v -0.546667 -0.170000 -0.100000
v -0.546667 -0.170000 0.100000
v -0.630000 -0.170000 -0.100000
v -0.630000 -0.170000 0.100000
v -0.630000 -0.045000 -0.100000
v -0.630000 -0.045000 0.100000
v -0.588333 -0.045000 -0.100000
v -0.588333 -0.045000 0.100000
v -0.588333 -0.003333 -0.100000
v -0.588333 -0.003333 0.100000
v -0.546667 -0.003333 -0.100000
v -0.546667 -0.003333 0.100000
v -0.546667 0.038333 -0.100000
v -0.546667 0.038333 0.100000
v -0.505000 0.038333 -0.100000
v -0.505000 0.038333 0.100000
v -0.505000 0.080000 -0.100000
v -0.505000 0.080000 0.100000
v -0.463333 0.080000 -0.100000
v -0.463333 0.080000 0.100000
v -0.463333 0.121667 -0.100000
v -0.463333 0.121667 0.100000
v -0.630000 0.121667 -0.100000
v -0.630000 0.121667 0.100000
v -0.005000 0.205000 -0.100000
v -0.005000 0.205000 0.100000
v -0.005000 -0.086667 -0.100000
v -0.005000 -0.086667 0.100000
v -0.046667 -0.086667 -0.100000
v -0.046667 -0.086667 0.100000
v -0.046667 -0.128333 -0.100000
v -0.046667 -0.128333 0.100000
v -0.088333 -0.128333 -0.100000
v -0.088333 -0.128333 0.100000
v -0.088333 -0.170000 -0.100000
v -0.088333 -0.170000 0.100000
v -0.213333 -0.170000 -0.100000
v -0.213333 -0.170000 0.100000
v -0.213333 -0.086667 -0.100000
v -0.213333 -0.086667 0.100000
v -0.130000 -0.086667 -0.100000
v -0.130000 -0.086667 0.100000
v -0.130000 -0.045000 -0.100000
v -0.130000 -0.045000 0.100000
v -0.088333 -0.045000 -0.100000
v -0.088333 -0.045000 0.100000
v -0.088333 -0.003333 -0.100000
v -0.088333 -0.003333 0.100000
v -0.213333 -0.003333 -0.100000
v -0.213333 -0.003333 0.100000
v -0.213333 -0.045000 -0.100000
v -0.213333 -0.045000 0.100000
v -0.296667 -0.045000 -0.100000
v -0.296667 -0.045000 0.100000
v -0.296667 0.038333 -0.100000
v -0.296667 0.038333 0.100000
v -0.255000 0.038333 -0.100000
v -0.255000 0.038333 0.100000
v -0.255000 0.205000 -0.100000
v -0.255000 0.205000 0.100000
v -0.088333 0.080000 -0.100000
v -0.088333 0.080000 0.100000
v -0.088333 0.121667 -0.100000
v -0.088333 0.121667 0.100000
v -0.171667 0.121667 -0.100000
v -0.171667 0.121667 0.100000
v -0.171667 0.080000 -0.100000
v -0.171667 0.080000 0.100000
v 0.036667 0.080000 -0.100000
v 0.036667 0.080000 0.100000
v 0.120000 0.080000 -0.100000
v 0.120000 0.080000 0.100000
v 0.120000 0.038333 -0.100000
v 0.120000 0.038333 0.100000
v 0.328333 0.038333 -0.100000
v 0.328333 0.038333 0.100000
v 0.328333 -0.045000 -0.100000
v 0.328333 -0.045000 0.100000
v 0.078333 -0.045000 -0.100000
v 0.078333 -0.045000 0.100000
v 0.078333 -0.003333 -0.100000
v 0.078333 -0.003333 0.100000
v 0.036667 -0.003333 -0.100000
v 0.036667 -0.003333 0.100000
v 0.453333 0.205000 -0.100000
v 0.453333 0.205000 0.100000
v 0.453333 0.080000 -0.100000
v 0.453333 0.080000 0.100000
v 0.661667 0.080000 -0.100000
v 0.661667 0.080000 0.100000
v 0.661667 -0.003333 -0.100000
v 0.661667 -0.003333 0.100000
v 0.453333 -0.003333 -0.100000
v 0.453333 -0.003333 0.100000
v 0.453333 -0.170000 -0.100000
v 0.453333 -0.170000 0.100000
v 0.370000 -0.170000 -0.100000
v 0.370000 -0.170000 0.100000
v 0.370000 0.205000 -0.100000
v 0.370000 0.205000 0.100000
vn -0.0000 -0.0000 1.0000
vn -0.0000 -0.0000 -1.0000
vn 0.7071 0.7071 -0.0000
vn -0.7071 0.7071 -0.0000
vn 0.7071 -0.7071 -0.0000
vn -0.7071 -0.7071 -0.0000
vt 0.857143 0.000000
vt 0.000000 0.000000
vt 1.000000 0.000000
vt 0.142857 0.000000
vt 0.571429 0.000000
vt 0.285714 0.000000
vt 0.428571 0.000000
vt 0.714286 0.000000
vt 0.761905 0.000000
vt 0.952381 0.000000
vt 0.809524 0.000000
vt 0.904762 0.000000
vt 0.047619 0.000000
vt 0.523810 0.000000
vt 0.666667 0.000000
vt 0.619048 0.000000
vt 0.476190 0.000000
vt 0.380952 0.000000
vt 0.333333 0.000000
vt 0.095238 0.000000
vt 0.190476 0.000000
vt 0.238095 0.000000
vt 0.034483 0.000000
vt 0.965517 0.000000
vt 0.068966 0.000000
vt 0.931035 0.000000
vt 0.862069 0.000000
vt 0.896552 0.000000
vt 0.103448 0.000000
vt 0.137931 0.000000
vt 0.793103 0.000000
vt 0.827586 0.000000
vt 0.172414 0.000000
vt 0.206897 0.000000
vt 0.724138 0.000000
vt 0.758621 0.000000
vt 0.241379 0.000000
vt 0.275862 0.000000
vt 0.655172 0.000000
vt 0.689655 0.000000
vt 0.586207 0.000000
vt 0.517241 0.000000
vt 0.551724 0.000000
vt 0.482759 0.000000
vt 0.448276 0.000000
vt 0.310345 0.000000
vt 0.413793 0.000000
vt 0.344828 0.000000
vt 0.620690 0.000000
vt 0.379310 0.000000
vt 0.033333 1.000000
vt 0.000000 1.000000
vt 0.066667 1.000000
vt 0.033333 0.000000
vt 0.100000 1.000000
vt 0.066667 0.000000
vt 0.133333 1.000000
vt 0.100000 0.000000
vt 0.166667 1.000000
vt 0.133333 0.000000
vt 0.200000 1.000000
vt 0.166667 0.000000
vt 0.233333 1.000000
vt 0.200000 0.000000
vt 0.266667 1.000000
vt 0.233333 0.000000
vt 0.300000 1.000000
vt 0.266667 0.000000
vt 0.333333 1.000000
vt 0.300000 0.000000
vt 0.366667 1.000000
vt 0.400000 1.000000
vt 0.366667 0.000000
vt 0.433333 1.000000
vt 0.400000 0.000000
vt 0.466667 1.000000
vt 0.433333 0.000000
vt 0.500000 1.000000
vt 0.466667 0.000000
vt 0.533333 1.000000
vt 0.500000 0.000000
vt 0.566667 1.000000
vt 0.533333 0.000000
vt 0.600000 1.000000
vt 0.566667 0.000000
vt 0.633333 1.000000
vt 0.600000 0.000000
vt 0.666667 1.000000
vt 0.633333 0.000000
vt 0.700000 1.000000
vt 0.733333 1.000000
vt 0.700000 0.000000
vt 0.766667 1.000000
vt 0.733333 0.000000
vt 0.800000 1.000000
vt 0.766667 0.000000
vt 0.833333 1.000000
vt 0.800000 0.000000
vt 0.866667 1.000000
vt 0.833333 0.000000
vt 0.900000 1.000000
vt 0.866667 0.000000
vt 0.933333 1.000000
vt 0.900000 0.000000
vt 0.966667 1.000000
vt 0.933333 0.000000
vt 1.000000 1.000000
vt 0.966667 0.000000
vt 0.055556 1.000000
vt 0.111111 1.000000
vt 0.055556 0.000000
vt 0.111111 0.000000
vt 0.222222 1.000000
vt 0.277778 1.000000
vt 0.222222 0.000000
vt 0.277778 0.000000
vt 0.388889 1.000000
vt 0.444444 1.000000
vt 0.388889 0.000000
vt 0.444444 0.000000
vt 0.555556 1.000000
vt 0.611111 1.000000
vt 0.555556 0.000000
vt 0.611111 0.000000
vt 0.722222 1.000000
vt 0.777778 1.000000
vt 0.722222 0.000000
vt 0.777778 0.000000
vt 0.888889 1.000000
vt 0.944444 1.000000
vt 0.888889 0.000000
vt 0.944444 0.000000
vt 0.250000 1.000000
vt 0.250000 0.000000
vt 0.750000 1.000000
vt 0.750000 0.000000
vt 0.125000 1.000000
vt 0.125000 0.000000
vt 0.375000 1.000000
vt 0.375000 0.000000
vt 0.625000 1.000000
vt 0.625000 0.000000
vt 0.875000 1.000000
vt 0.875000 0.000000
s 0
f 7/1/1 1/2/1 8/3/1
f 7/1/1 2/4/1 1/2/1
f 7/1/1 5/5/1 2/4/1
f 5/5/1 3/6/1 2/4/1
f 5/5/1 4/7/1 3/6/1
f 7/1/1 6/8/1 5/5/1
f 16/3/1 10/4/1 9/2/1
f 16/3/1 11/6/1 10/4/1
f 16/3/1 12/7/1 11/6/1
f 16/3/1 15/1/1 12/7/1
f 15/1/1 13/5/1 12/7/1
f 14/8/1 13/5/1 15/1/1
f 33/9/1 37/10/1 34/11/1
f 37/10/1 17/2/1 34/11/1
f 37/10/1 36/12/1 17/2/1
f 36/12/1 18/13/1 17/2/1
f 33/9/1 38/3/1 37/10/1
f 35/1/1 18/13/1 36/12/1
f 33/9/1 35/1/1 38/3/1
f 33/9/1 28/14/1 35/1/1
f 28/14/1 18/13/1 35/1/1
f 31/15/1 33/9/1 32/8/1
f 31/15/1 29/5/1 33/9/1
f 29/5/1 28/14/1 33/9/1
f 31/15/1 30/16/1 29/5/1
f 27/17/1 18/13/1 28/14/1
f 25/18/1 27/17/1 26/7/1
f 25/18/1 18/13/1 27/17/1
f 23/6/1 25/18/1 24/19/1
f 23/6/1 19/20/1 25/18/1
f 19/20/1 18/13/1 25/18/1
f 23/6/1 21/21/1 19/20/1
f 21/21/1 20/4/1 19/20/1
f 23/6/1 22/22/1 21/21/1
f 68/3/1 40/23/1 39/2/1
f 68/3/1 67/24/1 40/23/1
f 67/24/1 41/25/1 40/23/1
f 66/26/1 41/25/1 67/24/1
f 64/27/1 66/26/1 65/28/1
f 64/27/1 42/29/1 66/26/1
f 42/29/1 41/25/1 66/26/1
f 64/27/1 43/30/1 42/29/1
f 62/31/1 64/27/1 63/32/1
f 62/31/1 44/33/1 64/27/1
f 44/33/1 43/30/1 64/27/1
f 62/31/1 45/34/1 44/33/1
f 60/35/1 62/31/1 61/36/1
f 60/35/1 45/34/1 62/31/1
f 60/35/1 46/37/1 45/34/1
f 60/35/1 47/38/1 46/37/1
f 58/39/1 60/35/1 59/40/1
f 58/39/1 56/41/1 60/35/1
f 56/41/1 54/42/1 60/35/1
f 54/42/1 47/38/1 60/35/1
f 56/41/1 55/43/1 54/42/1
f 53/44/1 47/38/1 54/42/1
f 52/45/1 47/38/1 53/44/1
f 52/45/1 48/46/1 47/38/1
f 52/45/1 51/47/1 48/46/1
f 51/47/1 49/48/1 48/46/1
f 58/39/1 57/49/1 56/41/1
f 50/50/1 49/48/1 51/47/1
f 75/1/2 76/3/2 69/2/2
f 75/1/2 69/2/2 70/4/2
f 75/1/2 70/4/2 73/5/2
f 73/5/2 70/4/2 71/6/2
f 73/5/2 71/6/2 72/7/2
f 75/1/2 73/5/2 74/8/2
f 84/3/2 77/2/2 78/4/2
f 84/3/2 78/4/2 79/6/2
f 84/3/2 79/6/2 80/7/2
f 84/3/2 80/7/2 83/1/2
f 83/1/2 80/7/2 81/5/2
f 82/8/2 83/1/2 81/5/2
f 101/9/2 102/11/2 105/10/2
f 105/10/2 102/11/2 85/2/2
f 105/10/2 85/2/2 104/12/2
f 104/12/2 85/2/2 86/13/2
f 101/9/2 105/10/2 106/3/2
f 103/1/2 104/12/2 86/13/2
f 101/9/2 106/3/2 103/1/2
f 101/9/2 103/1/2 96/14/2
f 96/14/2 103/1/2 86/13/2
f 99/15/2 100/8/2 101/9/2
f 99/15/2 101/9/2 97/5/2
f 97/5/2 101/9/2 96/14/2
f 99/15/2 97/5/2 98/16/2
f 95/17/2 96/14/2 86/13/2
f 93/18/2 94/7/2 95/17/2
f 93/18/2 95/17/2 86/13/2
f 91/6/2 92/19/2 93/18/2
f 91/6/2 93/18/2 87/20/2
f 87/20/1 93/18/1 86/13/1
f 91/6/2 87/20/2 89/21/2
f 89/21/2 87/20/2 88/4/2
f 91/6/2 89/21/2 90/22/2
f 136/3/2 107/2/2 108/23/2
f 136/3/2 108/23/2 135/24/2
f 135/24/2 108/23/2 109/25/2
f 134/26/2 135/24/2 109/25/2
f 132/27/2 133/28/2 134/26/2
f 132/27/2 134/26/2 110/29/2
f 110/29/1 134/26/1 109/25/1
f 132/27/2 110/29/2 111/30/2
f 130/31/2 131/32/2 132/27/2
f 130/31/2 132/27/2 112/33/2
f 112/33/1 132/27/1 111/30/1
f 130/31/2 112/33/2 113/34/2
f 128/35/2 129/36/2 130/31/2
f 128/35/2 130/31/2 113/34/2
f 128/35/2 113/34/2 114/37/2
f 128/35/2 114/37/2 115/38/2
f 126/39/2 127/40/2 128/35/2
f 126/39/2 128/35/2 124/41/2
f 124/41/2 128/35/2 122/42/2
f 122/42/1 128/35/1 115/38/1
f 124/41/2 122/42/2 123/43/2
f 121/44/1 122/42/1 115/38/1
f 120/45/2 121/44/2 115/38/2
f 120/45/2 115/38/2 116/46/2
f 120/45/2 116/46/2 119/47/2
f 119/47/2 116/46/2 117/48/2
f 126/39/2 124/41/2 125/49/2
f 118/50/2 119/47/2 117/48/2
s 1
f 140/51/3 137/2/4 138/52/4
f 142/53/5 139/54/3 140/51/3
f 144/55/5 141/56/5 142/53/5
f 146/57/5 143/58/5 144/55/5
f 148/59/5 145/60/5 146/57/5
f 150/61/3 147/62/5 148/59/5
f 152/63/3 149/64/3 150/61/3
f 154/65/3 151/66/3 152/63/3
f 156/67/3 153/68/3 154/65/3
f 158/69/5 155/70/3 156/67/3
f 160/71/6 157/19/5 158/69/5
f 162/72/6 159/73/6 160/71/6
f 164/74/6 161/75/6 162/72/6
f 166/76/6 163/77/6 164/74/6
f 168/78/5 165/79/6 166/76/6
f 170/80/5 167/81/5 168/78/5
f 172/82/5 169/83/5 170/80/5
f 174/84/5 171/85/5 172/82/5
f 176/86/6 173/87/5 174/84/5
f 178/88/4 175/89/6 176/86/6
f 180/90/4 177/15/4 178/88/4
f 182/91/4 179/92/4 180/90/4
f 184/93/4 181/94/4 182/91/4
f 186/95/4 183/96/4 184/93/4
f 188/97/4 185/98/4 186/95/4
f 190/99/4 187/100/4 188/97/4
f 192/101/4 189/102/4 190/99/4
f 194/103/6 191/104/4 192/101/4
f 196/105/6 193/106/6 194/103/6
f 138/107/4 195/108/6 196/105/6
f 200/109/5 197/2/3 198/52/3
f 202/110/5 199/111/5 200/109/5
f 204/59/5 201/112/5 202/110/5
f 206/113/5 203/62/5 204/59/5
f 208/114/5 205/115/5 206/113/5
f 210/69/6 207/116/5 208/114/5
f 212/117/4 209/19/6 210/69/6
f 214/118/4 211/119/4 212/117/4
f 216/78/4 213/120/4 214/118/4
f 218/121/4 215/81/4 216/78/4
f 220/122/6 217/123/4 218/121/4
f 222/88/5 219/124/6 220/122/6
f 224/125/5 221/15/5 222/88/5
f 226/126/6 223/127/5 224/125/5
f 228/97/4 225/128/6 226/126/6
f 230/129/4 227/100/4 228/97/4
f 232/130/4 229/131/4 230/129/4
f 198/107/3 231/132/4 232/130/4
f 236/133/6 233/2/4 234/52/4
f 238/78/5 235/134/6 236/133/6
f 240/135/3 237/81/5 238/78/5
f 234/107/4 239/136/3 240/135/3
f 244/137/3 241/2/4 242/52/4
f 246/133/3 243/138/3 244/137/3
f 248/139/3 245/134/3 246/133/3
f 250/78/5 247/140/3 248/139/3
f 252/141/6 249/81/5 250/78/5
f 254/135/6 251/142/6 252/141/6
f 256/143/6 253/136/6 254/135/6
f 242/107/4 255/144/6 256/143/6
f 260/137/3 257/2/3 258/52/3
f 262/133/3 259/138/3 260/137/3
f 264/139/5 261/134/3 262/133/3
f 266/78/5 263/140/5 264/139/5
f 268/141/5 265/81/5 266/78/5
f 270/135/6 267/142/5 268/141/5
f 272/143/4 269/136/6 270/135/6
f 258/107/3 271/144/4 272/143/4
f 140/51/3 139/54/3 137/2/4
f 142/53/5 141/56/5 139/54/3
f 144/55/5 143/58/5 141/56/5
f 146/57/5 145/60/5 143/58/5
f 148/59/5 147/62/5 145/60/5
f 150/61/3 149/64/3 147/62/5
f 152/63/3 151/66/3 149/64/3
f 154/65/3 153/68/3 151/66/3
f 156/67/3 155/70/3 153/68/3
f 158/69/5 157/19/5 155/70/3
f 160/71/6 159/73/6 157/19/5
f 162/72/6 161/75/6 159/73/6
f 164/74/6 163/77/6 161/75/6
f 166/76/6 165/79/6 163/77/6
f 168/78/5 167/81/5 165/79/6
f 170/80/5 169/83/5 167/81/5
f 172/82/5 171/85/5 169/83/5
f 174/84/5 173/87/5 171/85/5
f 176/86/6 175/89/6 173/87/5
f 178/88/4 177/15/4 175/89/6
f 180/90/4 179/92/4 177/15/4
f 182/91/4 181/94/4 179/92/4
f 184/93/4 183/96/4 181/94/4
f 186/95/4 185/98/4 183/96/4
f 188/97/4 187/100/4 185/98/4
f 190/99/4 189/102/4 187/100/4
f 192/101/4 191/104/4 189/102/4
f 194/103/6 193/106/6 191/104/4
f 196/105/6 195/108/6 193/106/6
f 138/107/4 137/3/4 195/108/6
f 200/109/5 199/111/5 197/2/3
f 202/110/5 201/112/5 199/111/5
f 204/59/5 203/62/5 201/112/5
f 206/113/5 205/115/5 203/62/5
f 208/114/5 207/116/5 205/115/5
f 210/69/6 209/19/6 207/116/5
f 212/117/4 211/119/4 209/19/6
f 214/118/4 213/120/4 211/119/4
f 216/78/4 215/81/4 213/120/4
f 218/121/4 217/123/4 215/81/4
f 220/122/6 219/124/6 217/123/4
f 222/88/5 221/15/5 219/124/6
f 224/125/5 223/127/5 221/15/5
f 226/126/6 225/128/6 223/127/5
f 228/97/4 227/100/4 225/128/6
f 230/129/4 229/131/4 227/100/4
f 232/130/4 231/132/4 229/131/4
f 198/107/3 197/3/3 231/132/4
f 236/133/6 235/134/6 233/2/4
f 238/78/5 237/81/5 235/134/6
f 240/135/3 239/136/3 237/81/5
f 234/107/4 233/3/4 239/136/3
f 244/137/3 243/138/3 241/2/4
f 246/133/3 245/134/3 243/138/3
f 248/139/3 247/140/3 245/134/3
f 250/78/5 249/81/5 247/140/3
f 252/141/6 251/142/6 249/81/5
f 254/135/6 253/136/6 251/142/6
f 256/143/6 255/144/6 253/136/6
f 242/107/4 241/3/4 255/144/6
f 260/137/3 259/138/3 257/2/3
f 262/133/3 261/134/3 259/138/3
f 264/139/5 263/140/5 261/134/3
f 266/78/5 265/81/5 263/140/5
f 268/141/5 267/142/5 265/81/5
f 270/135/6 269/136/6 267/142/5
f 272/143/4 271/144/4 269/136/6
f 258/107/3 257/3/3 271/144/4
