# MagicaVoxel @ Ephtracy

# group
o 

# material
mtllib Torch_01.mtl
usemtl palette

# normals
vn -1 0 0
vn 1 0 0
vn 0 0 1
vn 0 0 -1
vn 0 -1 0
vn 0 1 0

# texcoords
vt 0.537109 0.5
vt 0.833984 0.5
vt 0.837891 0.5
vt 0.841797 0.5

# verts
v -0.0999999 0 2.23517e-08
v -0.0999999 0 -0.1
v -0.0999999 0 -0.4
v -0.0999999 0 -0.5
v -0.0999999 0.2 2.23517e-08
v -0.0999999 0.2 -0.1
v -0.0999999 0.2 -0.4
v -0.0999999 0.2 -0.5
v 7.45058e-08 0 -0.1
v 7.45058e-08 0 -0.4
v 7.45058e-08 0.1 -0.1
v 7.45058e-08 0.1 -0.2
v 7.45058e-08 0.1 -0.3
v 7.45058e-08 0.1 -0.4
v 7.45058e-08 0.2 -0.1
v 7.45058e-08 0.2 -0.2
v 7.45058e-08 0.2 -0.3
v 7.45058e-08 0.2 -0.4
v 7.45058e-08 0.3 -0.2
v 7.45058e-08 0.3 -0.3
v 7.45058e-08 0.4 -0.1
v 7.45058e-08 0.4 -0.2
v 7.45058e-08 0.4 -0.3
v 7.45058e-08 0.4 -0.4
v 7.45058e-08 0.5 -0.2
v 7.45058e-08 0.5 -0.3
v 0.1 0.4 -0.1
v 0.1 0.4 -0.2
v 0.1 0.4 -0.3
v 0.1 0.4 -0.4
v 0.1 0.5 -0.1
v 0.1 0.5 -0.2
v 0.1 0.5 -0.3
v 0.1 0.5 -0.4
v 0.1 0.6 -0.2
v 0.1 0.6 -0.3
v 0.2 0.3 -0.2
v 0.2 0.3 -0.3
v 0.2 0.4 -0.2
v 0.2 0.4 -0.3
v 0.3 0 2.23517e-08
v 0.3 0 -0.1
v 0.3 0 -0.4
v 0.3 0 -0.5
v 0.3 0.1 -0.1
v 0.3 0.1 -0.4
v 0.3 0.2 2.23517e-08
v 0.3 0.2 -0.1
v 0.3 0.2 -0.4
v 0.3 0.2 -0.5
v 7.45058e-08 0 2.23517e-08
v 7.45058e-08 0 -0.1
v 7.45058e-08 0 -0.4
v 7.45058e-08 0 -0.5
v 7.45058e-08 0.1 -0.1
v 7.45058e-08 0.1 -0.4
v 7.45058e-08 0.2 2.23517e-08
v 7.45058e-08 0.2 -0.1
v 7.45058e-08 0.2 -0.4
v 7.45058e-08 0.2 -0.5
v 0.1 0.3 -0.2
v 0.1 0.3 -0.3
v 0.1 0.4 -0.2
v 0.1 0.4 -0.3
v 0.2 0.4 -0.1
v 0.2 0.4 -0.2
v 0.2 0.4 -0.3
v 0.2 0.4 -0.4
v 0.2 0.5 -0.1
v 0.2 0.5 -0.2
v 0.2 0.5 -0.3
v 0.2 0.5 -0.4
v 0.2 0.6 -0.2
v 0.2 0.6 -0.3
v 0.3 0 -0.1
v 0.3 0 -0.4
v 0.3 0.1 -0.1
v 0.3 0.1 -0.2
v 0.3 0.1 -0.3
v 0.3 0.1 -0.4
v 0.3 0.2 -0.1
v 0.3 0.2 -0.2
v 0.3 0.2 -0.3
v 0.3 0.2 -0.4
v 0.3 0.3 -0.2
v 0.3 0.3 -0.3
v 0.3 0.4 -0.1
v 0.3 0.4 -0.2
v 0.3 0.4 -0.3
v 0.3 0.4 -0.4
v 0.3 0.5 -0.2
v 0.3 0.5 -0.3
v 0.4 0 2.23517e-08
v 0.4 0 -0.1
v 0.4 0 -0.4
v 0.4 0 -0.5
v 0.4 0.2 2.23517e-08
v 0.4 0.2 -0.1
v 0.4 0.2 -0.4
v 0.4 0.2 -0.5
v -0.0999999 0 2.23517e-08
v -0.0999999 0.2 2.23517e-08
v 7.45058e-08 0 2.23517e-08
v 7.45058e-08 0.2 2.23517e-08
v 0.3 0 2.23517e-08
v 0.3 0.2 2.23517e-08
v 0.4 0 2.23517e-08
v 0.4 0.2 2.23517e-08
v 7.45058e-08 0 -0.1
v 7.45058e-08 0.1 -0.1
v 7.45058e-08 0.2 -0.1
v 7.45058e-08 0.4 -0.1
v 0.1 0.1 -0.1
v 0.1 0.2 -0.1
v 0.1 0.3 -0.1
v 0.1 0.4 -0.1
v 0.1 0.5 -0.1
v 0.2 0.1 -0.1
v 0.2 0.2 -0.1
v 0.2 0.3 -0.1
v 0.2 0.4 -0.1
v 0.2 0.5 -0.1
v 0.3 0 -0.1
v 0.3 0.1 -0.1
v 0.3 0.2 -0.1
v 0.3 0.4 -0.1
v 7.45058e-08 0.4 -0.2
v 7.45058e-08 0.5 -0.2
v 0.1 0.4 -0.2
v 0.1 0.5 -0.2
v 0.1 0.6 -0.2
v 0.2 0.4 -0.2
v 0.2 0.5 -0.2
v 0.2 0.6 -0.2
v 0.3 0.4 -0.2
v 0.3 0.5 -0.2
v 0.1 0.3 -0.3
v 0.1 0.4 -0.3
v 0.2 0.3 -0.3
v 0.2 0.4 -0.3
v -0.0999999 0 -0.4
v -0.0999999 0.2 -0.4
v 7.45058e-08 0 -0.4
v 7.45058e-08 0.1 -0.4
v 7.45058e-08 0.2 -0.4
v 0.3 0 -0.4
v 0.3 0.1 -0.4
v 0.3 0.2 -0.4
v 0.4 0 -0.4
v 0.4 0.2 -0.4
v -0.0999999 0 -0.1
v -0.0999999 0.2 -0.1
v 7.45058e-08 0 -0.1
v 7.45058e-08 0.1 -0.1
v 7.45058e-08 0.2 -0.1
v 0.3 0 -0.1
v 0.3 0.1 -0.1
v 0.3 0.2 -0.1
v 0.4 0 -0.1
v 0.4 0.2 -0.1
v 0.1 0.3 -0.2
v 0.1 0.4 -0.2
v 0.2 0.3 -0.2
v 0.2 0.4 -0.2
v 7.45058e-08 0.4 -0.3
v 7.45058e-08 0.5 -0.3
v 0.1 0.4 -0.3
v 0.1 0.5 -0.3
v 0.1 0.6 -0.3
v 0.2 0.4 -0.3
v 0.2 0.5 -0.3
v 0.2 0.6 -0.3
v 0.3 0.4 -0.3
v 0.3 0.5 -0.3
v 7.45058e-08 0 -0.4
v 7.45058e-08 0.1 -0.4
v 7.45058e-08 0.2 -0.4
v 7.45058e-08 0.4 -0.4
v 0.1 0.1 -0.4
v 0.1 0.2 -0.4
v 0.1 0.3 -0.4
v 0.1 0.4 -0.4
v 0.1 0.5 -0.4
v 0.2 0.1 -0.4
v 0.2 0.2 -0.4
v 0.2 0.3 -0.4
v 0.2 0.4 -0.4
v 0.2 0.5 -0.4
v 0.3 0 -0.4
v 0.3 0.1 -0.4
v 0.3 0.2 -0.4
v 0.3 0.4 -0.4
v -0.0999999 0 -0.5
v -0.0999999 0.2 -0.5
v 7.45058e-08 0 -0.5
v 7.45058e-08 0.2 -0.5
v 0.3 0 -0.5
v 0.3 0.2 -0.5
v 0.4 0 -0.5
v 0.4 0.2 -0.5
v -0.0999999 0 2.23517e-08
v 7.45058e-08 0 2.23517e-08
v 0.3 0 2.23517e-08
v 0.4 0 2.23517e-08
v -0.0999999 0 -0.1
v 7.45058e-08 0 -0.1
v 0.3 0 -0.1
v 0.4 0 -0.1
v -0.0999999 0 -0.4
v 7.45058e-08 0 -0.4
v 0.3 0 -0.4
v 0.4 0 -0.4
v -0.0999999 0 -0.5
v 7.45058e-08 0 -0.5
v 0.3 0 -0.5
v 0.4 0 -0.5
v 0.1 0.4 -0.2
v 0.2 0.4 -0.2
v 0.1 0.4 -0.3
v 0.2 0.4 -0.3
v -0.0999999 0.2 2.23517e-08
v 7.45058e-08 0.2 2.23517e-08
v 0.3 0.2 2.23517e-08
v 0.4 0.2 2.23517e-08
v -0.0999999 0.2 -0.1
v 7.45058e-08 0.2 -0.1
v 0.3 0.2 -0.1
v 0.4 0.2 -0.1
v -0.0999999 0.2 -0.4
v 7.45058e-08 0.2 -0.4
v 0.3 0.2 -0.4
v 0.4 0.2 -0.4
v -0.0999999 0.2 -0.5
v 7.45058e-08 0.2 -0.5
v 0.3 0.2 -0.5
v 0.4 0.2 -0.5
v 0.1 0.3 -0.2
v 0.2 0.3 -0.2
v 0.1 0.3 -0.3
v 0.2 0.3 -0.3
v 7.45058e-08 0.4 -0.1
v 0.1 0.4 -0.1
v 0.2 0.4 -0.1
v 0.3 0.4 -0.1
v 7.45058e-08 0.4 -0.2
v 0.1 0.4 -0.2
v 0.2 0.4 -0.2
v 0.3 0.4 -0.2
v 7.45058e-08 0.4 -0.3
v 0.1 0.4 -0.3
v 0.2 0.4 -0.3
v 0.3 0.4 -0.3
v 7.45058e-08 0.4 -0.4
v 0.1 0.4 -0.4
v 0.2 0.4 -0.4
v 0.3 0.4 -0.4
v 0.1 0.5 -0.1
v 0.2 0.5 -0.1
v 7.45058e-08 0.5 -0.2
v 0.1 0.5 -0.2
v 0.2 0.5 -0.2
v 0.3 0.5 -0.2
v 7.45058e-08 0.5 -0.3
v 0.1 0.5 -0.3
v 0.2 0.5 -0.3
v 0.3 0.5 -0.3
v 0.1 0.5 -0.4
v 0.2 0.5 -0.4
v 0.1 0.6 -0.2
v 0.2 0.6 -0.2
v 0.1 0.6 -0.3
v 0.2 0.6 -0.3

# faces
f 5/1/1 2/1/1 1/1/1
f 6/1/1 2/1/1 5/1/1
f 7/1/1 4/1/1 3/1/1
f 8/1/1 4/1/1 7/1/1
f 11/1/1 10/1/1 9/1/1
f 12/1/1 10/1/1 11/1/1
f 13/1/1 10/1/1 12/1/1
f 14/1/1 10/1/1 13/1/1
f 15/3/1 12/3/1 11/3/1
f 16/2/1 13/2/1 12/2/1
f 16/3/1 12/3/1 15/3/1
f 17/3/1 14/3/1 13/3/1
f 17/2/1 13/2/1 16/2/1
f 18/3/1 14/3/1 17/3/1
f 19/4/1 16/4/1 15/4/1
f 19/3/1 17/3/1 16/3/1
f 20/4/1 18/4/1 17/4/1
f 20/3/1 17/3/1 19/3/1
f 21/4/1 19/4/1 15/4/1
f 21/4/1 20/4/1 19/4/1
f 22/4/1 20/4/1 21/4/1
f 23/4/1 18/4/1 20/4/1
f 23/4/1 20/4/1 22/4/1
f 24/4/1 18/4/1 23/4/1
f 25/4/1 23/4/1 22/4/1
f 26/4/1 23/4/1 25/4/1
f 31/4/1 28/4/1 27/4/1
f 32/4/1 28/4/1 31/4/1
f 33/4/1 30/4/1 29/4/1
f 34/4/1 30/4/1 33/4/1
f 35/4/1 33/4/1 32/4/1
f 36/4/1 33/4/1 35/4/1
f 39/4/1 38/4/1 37/4/1
f 40/4/1 38/4/1 39/4/1
f 45/1/1 42/1/1 41/1/1
f 46/1/1 44/1/1 43/1/1
f 47/1/1 45/1/1 41/1/1
f 48/1/1 45/1/1 47/1/1
f 49/1/1 44/1/1 46/1/1
f 50/1/1 44/1/1 49/1/1
f 51/1/2 52/1/2 55/1/2
f 53/1/2 54/1/2 56/1/2
f 51/1/2 55/1/2 57/1/2
f 57/1/2 55/1/2 58/1/2
f 56/1/2 54/1/2 59/1/2
f 59/1/2 54/1/2 60/1/2
f 61/4/2 62/4/2 63/4/2
f 63/4/2 62/4/2 64/4/2
f 65/4/2 66/4/2 69/4/2
f 69/4/2 66/4/2 70/4/2
f 67/4/2 68/4/2 71/4/2
f 71/4/2 68/4/2 72/4/2
f 70/4/2 71/4/2 73/4/2
f 73/4/2 71/4/2 74/4/2
f 75/1/2 76/1/2 77/1/2
f 77/1/2 76/1/2 78/1/2
f 78/1/2 76/1/2 79/1/2
f 79/1/2 76/1/2 80/1/2
f 77/3/2 78/3/2 81/3/2
f 78/2/2 79/2/2 82/2/2
f 81/3/2 78/3/2 82/3/2
f 79/3/2 80/3/2 83/3/2
f 82/2/2 79/2/2 83/2/2
f 83/3/2 80/3/2 84/3/2
f 81/4/2 82/4/2 85/4/2
f 82/3/2 83/3/2 85/3/2
f 83/4/2 84/4/2 86/4/2
f 85/3/2 83/3/2 86/3/2
f 81/4/2 85/4/2 87/4/2
f 85/4/2 86/4/2 87/4/2
f 87/4/2 86/4/2 88/4/2
f 86/4/2 84/4/2 89/4/2
f 88/4/2 86/4/2 89/4/2
f 89/4/2 84/4/2 90/4/2
f 88/4/2 89/4/2 91/4/2
f 91/4/2 89/4/2 92/4/2
f 93/1/2 94/1/2 97/1/2
f 97/1/2 94/1/2 98/1/2
f 95/1/2 96/1/2 99/1/2
f 99/1/2 96/1/2 100/1/2
f 103/1/3 102/1/3 101/1/3
f 104/1/3 102/1/3 103/1/3
f 107/1/3 106/1/3 105/1/3
f 108/1/3 106/1/3 107/1/3
f 113/1/3 110/1/3 109/1/3
f 113/3/3 111/3/3 110/3/3
f 114/4/3 112/4/3 111/4/3
f 114/3/3 111/3/3 113/3/3
f 115/4/3 112/4/3 114/4/3
f 116/4/3 112/4/3 115/4/3
f 118/1/3 113/1/3 109/1/3
f 118/2/3 114/2/3 113/2/3
f 119/3/3 115/3/3 114/3/3
f 119/2/3 114/2/3 118/2/3
f 120/4/3 117/4/3 116/4/3
f 120/3/3 115/3/3 119/3/3
f 120/4/3 116/4/3 115/4/3
f 121/4/3 117/4/3 120/4/3
f 122/4/3 117/4/3 121/4/3
f 123/1/3 118/1/3 109/1/3
f 124/3/3 119/3/3 118/3/3
f 124/1/3 118/1/3 123/1/3
f 125/4/3 120/4/3 119/4/3
f 125/3/3 119/3/3 124/3/3
f 125/4/3 121/4/3 120/4/3
f 126/4/3 121/4/3 125/4/3
f 129/4/3 128/4/3 127/4/3
f 130/4/3 128/4/3 129/4/3
f 133/4/3 131/4/3 130/4/3
f 134/4/3 131/4/3 133/4/3
f 135/4/3 133/4/3 132/4/3
f 136/4/3 133/4/3 135/4/3
f 139/4/3 138/4/3 137/4/3
f 140/4/3 138/4/3 139/4/3
f 143/1/3 142/1/3 141/1/3
f 144/1/3 142/1/3 143/1/3
f 145/1/3 142/1/3 144/1/3
f 149/1/3 147/1/3 146/1/3
f 149/1/3 148/1/3 147/1/3
f 150/1/3 148/1/3 149/1/3
f 151/1/4 152/1/4 153/1/4
f 153/1/4 152/1/4 154/1/4
f 154/1/4 152/1/4 155/1/4
f 156/1/4 157/1/4 159/1/4
f 157/1/4 158/1/4 159/1/4
f 159/1/4 158/1/4 160/1/4
f 161/4/4 162/4/4 163/4/4
f 163/4/4 162/4/4 164/4/4
f 165/4/4 166/4/4 167/4/4
f 167/4/4 166/4/4 168/4/4
f 168/4/4 169/4/4 171/4/4
f 171/4/4 169/4/4 172/4/4
f 170/4/4 171/4/4 173/4/4
f 173/4/4 171/4/4 174/4/4
f 175/1/4 176/1/4 179/1/4
f 176/3/4 177/3/4 179/3/4
f 177/4/4 178/4/4 180/4/4
f 179/3/4 177/3/4 180/3/4
f 180/4/4 178/4/4 181/4/4
f 181/4/4 178/4/4 182/4/4
f 175/1/4 179/1/4 184/1/4
f 179/2/4 180/2/4 184/2/4
f 180/3/4 181/3/4 185/3/4
f 184/2/4 180/2/4 185/2/4
f 182/4/4 183/4/4 186/4/4
f 185/3/4 181/3/4 186/3/4
f 181/4/4 182/4/4 186/4/4
f 186/4/4 183/4/4 187/4/4
f 187/4/4 183/4/4 188/4/4
f 175/1/4 184/1/4 189/1/4
f 184/3/4 185/3/4 190/3/4
f 189/1/4 184/1/4 190/1/4
f 185/4/4 186/4/4 191/4/4
f 190/3/4 185/3/4 191/3/4
f 186/4/4 187/4/4 191/4/4
f 191/4/4 187/4/4 192/4/4
f 193/1/4 194/1/4 195/1/4
f 195/1/4 194/1/4 196/1/4
f 197/1/4 198/1/4 199/1/4
f 199/1/4 198/1/4 200/1/4
f 205/1/5 202/1/5 201/1/5
f 206/1/5 202/1/5 205/1/5
f 207/1/5 204/1/5 203/1/5
f 208/1/5 204/1/5 207/1/5
f 210/1/5 207/1/5 206/1/5
f 211/1/5 207/1/5 210/1/5
f 213/1/5 210/1/5 209/1/5
f 214/1/5 210/1/5 213/1/5
f 215/1/5 212/1/5 211/1/5
f 216/1/5 212/1/5 215/1/5
f 219/4/5 218/4/5 217/4/5
f 220/4/5 218/4/5 219/4/5
f 221/1/6 222/1/6 225/1/6
f 225/1/6 222/1/6 226/1/6
f 223/1/6 224/1/6 227/1/6
f 227/1/6 224/1/6 228/1/6
f 229/1/6 230/1/6 233/1/6
f 233/1/6 230/1/6 234/1/6
f 231/1/6 232/1/6 235/1/6
f 235/1/6 232/1/6 236/1/6
f 237/3/6 238/3/6 239/3/6
f 239/3/6 238/3/6 240/3/6
f 241/4/6 242/4/6 245/4/6
f 245/4/6 242/4/6 246/4/6
f 243/4/6 244/4/6 247/4/6
f 247/4/6 244/4/6 248/4/6
f 249/4/6 250/4/6 253/4/6
f 253/4/6 250/4/6 254/4/6
f 251/4/6 252/4/6 255/4/6
f 255/4/6 252/4/6 256/4/6
f 257/4/6 258/4/6 260/4/6
f 260/4/6 258/4/6 261/4/6
f 259/4/6 260/4/6 263/4/6
f 263/4/6 260/4/6 264/4/6
f 261/4/6 262/4/6 265/4/6
f 265/4/6 262/4/6 266/4/6
f 264/4/6 265/4/6 267/4/6
f 267/4/6 265/4/6 268/4/6
f 269/4/6 270/4/6 271/4/6
f 271/4/6 270/4/6 272/4/6
