# Blender 5.0.1
# www.blender.org
mtllib HealthUP.mtl
o Untitled.001
v -1.000000 0.300000 0.100000
v -1.000000 0.300000 -0.500000
v -1.000000 0.700000 0.100000
v -1.000000 0.700000 -0.500000
v -0.800000 0.100000 0.100000
v -0.800000 0.100000 -0.500000
v -0.800000 0.300000 0.300000
v -0.800000 0.300000 0.100000
v -0.800000 0.300000 -0.500000
v -0.800000 0.300000 -0.700000
v -0.800000 0.700000 0.300000
v -0.800000 0.700000 0.100000
v -0.800000 0.700000 -0.500000
v -0.800000 0.700000 -0.700000
v -0.800000 0.900000 0.100000
v -0.800000 0.900000 -0.500000
v -0.600000 0.100000 0.300000
v -0.600000 0.100000 0.100000
v -0.600000 0.100000 -0.500000
v -0.600000 0.100000 -0.700000
v -0.600000 0.300000 0.500000
v -0.600000 0.300000 0.300000
v -0.600000 0.300000 0.100000
v -0.600000 0.300000 -0.500000
v -0.600000 0.300000 -0.700000
v -0.600000 0.300000 -0.900000
v -0.600000 0.700000 0.500000
v -0.600000 0.700000 0.300000
v -0.600000 0.700000 0.100000
v -0.600000 0.700000 -0.500000
v -0.600000 0.700000 -0.700000
v -0.600000 0.700000 -0.900000
v -0.600000 0.900000 0.300000
v -0.600000 0.900000 0.100000
v -0.600000 0.900000 -0.500000
v -0.600000 0.900000 -0.700000
v -0.400000 0.100000 0.500000
v -0.400000 0.100000 0.300000
v -0.400000 0.300000 0.700000
v -0.400000 0.300000 0.500000
v -0.400000 0.300000 0.300000
v -0.400000 0.700000 0.700000
v -0.400000 0.700000 0.500000
v -0.400000 0.700000 0.300000
v -0.400000 0.900000 0.500000
v -0.400000 0.900000 0.300000
v -0.200000 0.100000 0.700000
v -0.200000 0.100000 0.500000
v -0.200000 0.300000 0.900000
v -0.200000 0.300000 0.700000
v -0.200000 0.300000 0.500000
v -0.200000 0.700000 0.900000
v -0.200000 0.700000 0.700000
v -0.200000 0.700000 0.500000
v -0.200000 0.900000 0.700000
v -0.200000 0.900000 0.500000
v 0.200000 0.100000 -0.500000
v 0.200000 0.100000 -0.700000
v 0.200000 0.300000 -0.500000
v 0.200000 0.300000 -0.700000
v 0.200000 0.300000 -0.900000
v 0.200000 0.700000 -0.500000
v 0.200000 0.700000 -0.700000
v 0.200000 0.700000 -0.900000
v 0.200000 0.900000 -0.500000
v 0.200000 0.900000 -0.700000
v -0.200000 0.100000 -0.500000
v -0.200000 0.100000 -0.700000
v -0.200000 0.300000 -0.500000
v -0.200000 0.300000 -0.700000
v -0.200000 0.300000 -0.900000
v -0.200000 0.700000 -0.500000
v -0.200000 0.700000 -0.700000
v -0.200000 0.700000 -0.900000
v -0.200000 0.900000 -0.500000
v -0.200000 0.900000 -0.700000
v 0.200000 0.100000 0.700000
v 0.200000 0.100000 0.500000
v 0.200000 0.300000 0.900000
v 0.200000 0.300000 0.700000
v 0.200000 0.300000 0.500000
v 0.200000 0.700000 0.900000
v 0.200000 0.700000 0.700000
v 0.200000 0.700000 0.500000
v 0.200000 0.900000 0.700000
v 0.200000 0.900000 0.500000
v 0.400000 0.100000 0.500000
v 0.400000 0.100000 0.300000
v 0.400000 0.300000 0.700000
v 0.400000 0.300000 0.500000
v 0.400000 0.300000 0.300000
v 0.400000 0.700000 0.700000
v 0.400000 0.700000 0.500000
v 0.400000 0.700000 0.300000
v 0.400000 0.900000 0.500000
v 0.400000 0.900000 0.300000
v 0.600000 0.100000 0.300000
v 0.600000 0.100000 0.100000
v 0.600000 0.100000 -0.500000
v 0.600000 0.100000 -0.700000
v 0.600000 0.300000 0.500000
v 0.600000 0.300000 0.300000
v 0.600000 0.300000 0.100000
v 0.600000 0.300000 -0.500000
v 0.600000 0.300000 -0.700000
v 0.600000 0.300000 -0.900000
v 0.600000 0.700000 0.500000
v 0.600000 0.700000 0.300000
v 0.600000 0.700000 0.100000
v 0.600000 0.700000 -0.500000
v 0.600000 0.700000 -0.700000
v 0.600000 0.700000 -0.900000
v 0.600000 0.900000 0.300000
v 0.600000 0.900000 0.100000
v 0.600000 0.900000 -0.500000
v 0.600000 0.900000 -0.700000
v 0.800000 0.100000 0.100000
v 0.800000 0.100000 -0.500000
v 0.800000 0.300000 0.300000
v 0.800000 0.300000 0.100000
v 0.800000 0.300000 -0.500000
v 0.800000 0.300000 -0.700000
v 0.800000 0.700000 0.300000
v 0.800000 0.700000 0.100000
v 0.800000 0.700000 -0.500000
v 0.800000 0.700000 -0.700000
v 0.800000 0.900000 0.100000
v 0.800000 0.900000 -0.500000
v 1.000000 0.300000 0.100000
v 1.000000 0.300000 -0.500000
v 1.000000 0.700000 0.100000
v 1.000000 0.700000 -0.500000
v -0.200000 0.300000 0.900000
v -0.200000 0.700000 0.900000
v 0.200000 0.300000 0.900000
v 0.200000 0.700000 0.900000
v -0.400000 0.300000 0.700000
v -0.400000 0.700000 0.700000
v -0.200000 0.100000 0.700000
v -0.200000 0.300000 0.700000
v -0.200000 0.700000 0.700000
v -0.200000 0.900000 0.700000
v 0.200000 0.100000 0.700000
v 0.200000 0.300000 0.700000
v 0.200000 0.700000 0.700000
v 0.200000 0.900000 0.700000
v 0.400000 0.300000 0.700000
v 0.400000 0.700000 0.700000
v -0.600000 0.300000 0.500000
v -0.600000 0.700000 0.500000
v -0.400000 0.100000 0.500000
v -0.400000 0.300000 0.500000
v -0.400000 0.700000 0.500000
v -0.400000 0.900000 0.500000
v -0.200000 0.100000 0.500000
v -0.200000 0.300000 0.500000
v -0.200000 0.700000 0.500000
v -0.200000 0.900000 0.500000
v 0.200000 0.100000 0.500000
v 0.200000 0.300000 0.500000
v 0.200000 0.700000 0.500000
v 0.200000 0.900000 0.500000
v 0.400000 0.100000 0.500000
v 0.400000 0.300000 0.500000
v 0.400000 0.700000 0.500000
v 0.400000 0.900000 0.500000
v 0.600000 0.300000 0.500000
v 0.600000 0.700000 0.500000
v -0.800000 0.300000 0.300000
v -0.800000 0.700000 0.300000
v -0.600000 0.100000 0.300000
v -0.600000 0.300000 0.300000
v -0.600000 0.700000 0.300000
v -0.600000 0.900000 0.300000
v -0.400000 0.100000 0.300000
v -0.400000 0.300000 0.300000
v -0.400000 0.700000 0.300000
v -0.400000 0.900000 0.300000
v 0.400000 0.100000 0.300000
v 0.400000 0.300000 0.300000
v 0.400000 0.700000 0.300000
v 0.400000 0.900000 0.300000
v 0.600000 0.100000 0.300000
v 0.600000 0.300000 0.300000
v 0.600000 0.700000 0.300000
v 0.600000 0.900000 0.300000
v 0.800000 0.300000 0.300000
v 0.800000 0.700000 0.300000
v -1.000000 0.300000 0.100000
v -1.000000 0.700000 0.100000
v -0.800000 0.100000 0.100000
v -0.800000 0.300000 0.100000
v -0.800000 0.700000 0.100000
v -0.800000 0.900000 0.100000
v -0.600000 0.100000 0.100000
v -0.600000 0.300000 0.100000
v -0.600000 0.700000 0.100000
v -0.600000 0.900000 0.100000
v 0.600000 0.100000 0.100000
v 0.600000 0.300000 0.100000
v 0.600000 0.700000 0.100000
v 0.600000 0.900000 0.100000
v 0.800000 0.100000 0.100000
v 0.800000 0.300000 0.100000
v 0.800000 0.700000 0.100000
v 0.800000 0.900000 0.100000
v 1.000000 0.300000 0.100000
v 1.000000 0.700000 0.100000
v -1.000000 0.300000 -0.500000
v -1.000000 0.700000 -0.500000
v -0.800000 0.100000 -0.500000
v -0.800000 0.300000 -0.500000
v -0.800000 0.700000 -0.500000
v -0.800000 0.900000 -0.500000
v -0.600000 0.100000 -0.500000
v -0.600000 0.300000 -0.500000
v -0.600000 0.700000 -0.500000
v -0.600000 0.900000 -0.500000
v -0.200000 0.100000 -0.500000
v -0.200000 0.300000 -0.500000
v -0.200000 0.700000 -0.500000
v -0.200000 0.900000 -0.500000
v 0.200000 0.100000 -0.500000
v 0.200000 0.300000 -0.500000
v 0.200000 0.700000 -0.500000
v 0.200000 0.900000 -0.500000
v 0.600000 0.100000 -0.500000
v 0.600000 0.300000 -0.500000
v 0.600000 0.700000 -0.500000
v 0.600000 0.900000 -0.500000
v 0.800000 0.100000 -0.500000
v 0.800000 0.300000 -0.500000
v 0.800000 0.700000 -0.500000
v 0.800000 0.900000 -0.500000
v 1.000000 0.300000 -0.500000
v 1.000000 0.700000 -0.500000
v -0.800000 0.300000 -0.700000
v -0.800000 0.700000 -0.700000
v -0.600000 0.100000 -0.700000
v -0.600000 0.300000 -0.700000
v -0.600000 0.700000 -0.700000
v -0.600000 0.900000 -0.700000
v -0.200000 0.100000 -0.700000
v -0.200000 0.300000 -0.700000
v -0.200000 0.700000 -0.700000
v -0.200000 0.900000 -0.700000
v 0.200000 0.100000 -0.700000
v 0.200000 0.300000 -0.700000
v 0.200000 0.700000 -0.700000
v 0.200000 0.900000 -0.700000
v 0.600000 0.100000 -0.700000
v 0.600000 0.300000 -0.700000
v 0.600000 0.700000 -0.700000
v 0.600000 0.900000 -0.700000
v 0.800000 0.300000 -0.700000
v 0.800000 0.700000 -0.700000
v -0.600000 0.300000 -0.900000
v -0.600000 0.700000 -0.900000
v -0.200000 0.300000 -0.900000
v -0.200000 0.700000 -0.900000
v 0.200000 0.300000 -0.900000
v 0.200000 0.700000 -0.900000
v 0.600000 0.300000 -0.900000
v 0.600000 0.700000 -0.900000
v -0.200000 0.100000 0.700000
v 0.200000 0.100000 0.700000
v -0.400000 0.100000 0.500000
v -0.200000 0.100000 0.500000
v 0.200000 0.100000 0.500000
v 0.400000 0.100000 0.500000
v -0.600000 0.100000 0.300000
v -0.400000 0.100000 0.300000
v 0.400000 0.100000 0.300000
v 0.600000 0.100000 0.300000
v -0.800000 0.100000 0.100000
v -0.600000 0.100000 0.100000
v 0.600000 0.100000 0.100000
v 0.800000 0.100000 0.100000
v -0.800000 0.100000 -0.500000
v -0.600000 0.100000 -0.500000
v -0.200000 0.100000 -0.500000
v 0.200000 0.100000 -0.500000
v 0.600000 0.100000 -0.500000
v 0.800000 0.100000 -0.500000
v -0.600000 0.100000 -0.700000
v -0.200000 0.100000 -0.700000
v 0.200000 0.100000 -0.700000
v 0.600000 0.100000 -0.700000
v -0.200000 0.300000 0.900000
v 0.200000 0.300000 0.900000
v -0.400000 0.300000 0.700000
v -0.200000 0.300000 0.700000
v 0.200000 0.300000 0.700000
v 0.400000 0.300000 0.700000
v -0.600000 0.300000 0.500000
v -0.400000 0.300000 0.500000
v -0.200000 0.300000 0.500000
v 0.200000 0.300000 0.500000
v 0.400000 0.300000 0.500000
v 0.600000 0.300000 0.500000
v -0.800000 0.300000 0.300000
v -0.600000 0.300000 0.300000
v -0.400000 0.300000 0.300000
v 0.400000 0.300000 0.300000
v 0.600000 0.300000 0.300000
v 0.800000 0.300000 0.300000
v -1.000000 0.300000 0.100000
v -0.800000 0.300000 0.100000
v -0.600000 0.300000 0.100000
v 0.600000 0.300000 0.100000
v 0.800000 0.300000 0.100000
v 1.000000 0.300000 0.100000
v -1.000000 0.300000 -0.500000
v -0.800000 0.300000 -0.500000
v -0.600000 0.300000 -0.500000
v -0.200000 0.300000 -0.500000
v 0.200000 0.300000 -0.500000
v 0.600000 0.300000 -0.500000
v 0.800000 0.300000 -0.500000
v 1.000000 0.300000 -0.500000
v -0.800000 0.300000 -0.700000
v -0.600000 0.300000 -0.700000
v -0.200000 0.300000 -0.700000
v 0.200000 0.300000 -0.700000
v 0.600000 0.300000 -0.700000
v 0.800000 0.300000 -0.700000
v -0.600000 0.300000 -0.900000
v -0.200000 0.300000 -0.900000
v 0.200000 0.300000 -0.900000
v 0.600000 0.300000 -0.900000
v -0.200000 0.700000 0.900000
v 0.200000 0.700000 0.900000
v -0.400000 0.700000 0.700000
v -0.200000 0.700000 0.700000
v 0.200000 0.700000 0.700000
v 0.400000 0.700000 0.700000
v -0.600000 0.700000 0.500000
v -0.400000 0.700000 0.500000
v -0.200000 0.700000 0.500000
v 0.200000 0.700000 0.500000
v 0.400000 0.700000 0.500000
v 0.600000 0.700000 0.500000
v -0.800000 0.700000 0.300000
v -0.600000 0.700000 0.300000
v -0.400000 0.700000 0.300000
v 0.400000 0.700000 0.300000
v 0.600000 0.700000 0.300000
v 0.800000 0.700000 0.300000
v -1.000000 0.700000 0.100000
v -0.800000 0.700000 0.100000
v -0.600000 0.700000 0.100000
v 0.600000 0.700000 0.100000
v 0.800000 0.700000 0.100000
v 1.000000 0.700000 0.100000
v -1.000000 0.700000 -0.500000
v -0.800000 0.700000 -0.500000
v -0.600000 0.700000 -0.500000
v -0.200000 0.700000 -0.500000
v 0.200000 0.700000 -0.500000
v 0.600000 0.700000 -0.500000
v 0.800000 0.700000 -0.500000
v 1.000000 0.700000 -0.500000
v -0.800000 0.700000 -0.700000
v -0.600000 0.700000 -0.700000
v -0.200000 0.700000 -0.700000
v 0.200000 0.700000 -0.700000
v 0.600000 0.700000 -0.700000
v 0.800000 0.700000 -0.700000
v -0.600000 0.700000 -0.900000
v -0.200000 0.700000 -0.900000
v 0.200000 0.700000 -0.900000
v 0.600000 0.700000 -0.900000
v -0.200000 0.900000 0.700000
v 0.200000 0.900000 0.700000
v -0.400000 0.900000 0.500000
v -0.200000 0.900000 0.500000
v 0.200000 0.900000 0.500000
v 0.400000 0.900000 0.500000
v -0.600000 0.900000 0.300000
v -0.400000 0.900000 0.300000
v 0.400000 0.900000 0.300000
v 0.600000 0.900000 0.300000
v -0.800000 0.900000 0.100000
v -0.600000 0.900000 0.100000
v 0.600000 0.900000 0.100000
v 0.800000 0.900000 0.100000
v -0.800000 0.900000 -0.500000
v -0.600000 0.900000 -0.500000
v -0.200000 0.900000 -0.500000
v 0.200000 0.900000 -0.500000
v 0.600000 0.900000 -0.500000
v 0.800000 0.900000 -0.500000
v -0.600000 0.900000 -0.700000
v -0.200000 0.900000 -0.700000
v 0.200000 0.900000 -0.700000
v 0.600000 0.900000 -0.700000
vn -1.0000 -0.0000 -0.0000
vn 1.0000 -0.0000 -0.0000
vn -0.0000 -0.0000 1.0000
vn -0.0000 -0.0000 -1.0000
vn -0.0000 -1.0000 -0.0000
vn -0.0000 1.0000 -0.0000
vt 0.064453 0.500000
vt 0.033203 0.500000
s 1
usemtl palette.029
f 3/1/1 2/1/1 1/1/1
f 4/1/1 2/1/1 3/1/1
f 8/2/1 6/2/1 5/2/1
f 9/2/1 6/2/1 8/2/1
f 11/1/1 8/1/1 7/1/1
f 12/1/1 8/1/1 11/1/1
f 13/1/1 10/1/1 9/1/1
f 14/1/1 10/1/1 13/1/1
f 15/2/1 13/2/1 12/2/1
f 16/2/1 13/2/1 15/2/1
f 22/2/1 18/2/1 17/2/1
f 23/2/1 18/2/1 22/2/1
f 24/2/1 20/2/1 19/2/1
f 25/2/1 20/2/1 24/2/1
f 27/1/1 22/1/1 21/1/1
f 28/1/1 22/1/1 27/1/1
f 31/1/1 26/1/1 25/1/1
f 32/1/1 26/1/1 31/1/1
f 33/2/1 29/2/1 28/2/1
f 34/2/1 29/2/1 33/2/1
f 35/2/1 31/2/1 30/2/1
f 36/2/1 31/2/1 35/2/1
f 40/2/1 38/2/1 37/2/1
f 41/2/1 38/2/1 40/2/1
f 42/1/1 40/1/1 39/1/1
f 43/1/1 40/1/1 42/1/1
f 45/2/1 44/2/1 43/2/1
f 46/2/1 44/2/1 45/2/1
f 50/2/1 48/2/1 47/2/1
f 51/2/1 48/2/1 50/2/1
f 52/1/1 50/1/1 49/1/1
f 53/1/1 50/1/1 52/1/1
f 55/2/1 54/2/1 53/2/1
f 56/2/1 54/2/1 55/2/1
f 59/2/1 58/2/1 57/2/1
f 60/2/1 58/2/1 59/2/1
f 63/1/1 61/1/1 60/1/1
f 64/1/1 61/1/1 63/1/1
f 65/2/1 63/2/1 62/2/1
f 66/2/1 63/2/1 65/2/1
f 67/2/2 68/2/2 69/2/2
f 69/2/2 68/2/2 70/2/2
f 70/1/2 71/1/2 73/1/2
f 73/1/2 71/1/2 74/1/2
f 72/2/2 73/2/2 75/2/2
f 75/2/2 73/2/2 76/2/2
f 77/2/2 78/2/2 80/2/2
f 80/2/2 78/2/2 81/2/2
f 79/1/2 80/1/2 82/1/2
f 82/1/2 80/1/2 83/1/2
f 83/2/2 84/2/2 85/2/2
f 85/2/2 84/2/2 86/2/2
f 87/2/2 88/2/2 90/2/2
f 90/2/2 88/2/2 91/2/2
f 89/1/2 90/1/2 92/1/2
f 92/1/2 90/1/2 93/1/2
f 93/2/2 94/2/2 95/2/2
f 95/2/2 94/2/2 96/2/2
f 97/2/2 98/2/2 102/2/2
f 102/2/2 98/2/2 103/2/2
f 99/2/2 100/2/2 104/2/2
f 104/2/2 100/2/2 105/2/2
f 101/1/2 102/1/2 107/1/2
f 107/1/2 102/1/2 108/1/2
f 105/1/2 106/1/2 111/1/2
f 111/1/2 106/1/2 112/1/2
f 108/2/2 109/2/2 113/2/2
f 113/2/2 109/2/2 114/2/2
f 110/2/2 111/2/2 115/2/2
f 115/2/2 111/2/2 116/2/2
f 117/2/2 118/2/2 120/2/2
f 120/2/2 118/2/2 121/2/2
f 119/1/2 120/1/2 123/1/2
f 123/1/2 120/1/2 124/1/2
f 121/1/2 122/1/2 125/1/2
f 125/1/2 122/1/2 126/1/2
f 124/2/2 125/2/2 127/2/2
f 127/2/2 125/2/2 128/2/2
f 129/1/2 130/1/2 131/1/2
f 131/1/2 130/1/2 132/1/2
f 135/1/3 134/1/3 133/1/3
f 136/1/3 134/1/3 135/1/3
f 140/1/3 138/1/3 137/1/3
f 141/1/3 138/1/3 140/1/3
f 143/2/3 140/2/3 139/2/3
f 144/2/3 140/2/3 143/2/3
f 145/2/3 142/2/3 141/2/3
f 146/2/3 142/2/3 145/2/3
f 147/1/3 145/1/3 144/1/3
f 148/1/3 145/1/3 147/1/3
f 152/1/3 150/1/3 149/1/3
f 153/1/3 150/1/3 152/1/3
f 155/2/3 152/2/3 151/2/3
f 156/2/3 152/2/3 155/2/3
f 157/2/3 154/2/3 153/2/3
f 158/2/3 154/2/3 157/2/3
f 163/2/3 160/2/3 159/2/3
f 164/2/3 160/2/3 163/2/3
f 165/2/3 162/2/3 161/2/3
f 166/2/3 162/2/3 165/2/3
f 167/1/3 165/1/3 164/1/3
f 168/1/3 165/1/3 167/1/3
f 172/1/3 170/1/3 169/1/3
f 173/1/3 170/1/3 172/1/3
f 175/2/3 172/2/3 171/2/3
f 176/2/3 172/2/3 175/2/3
f 177/2/3 174/2/3 173/2/3
f 178/2/3 174/2/3 177/2/3
f 183/2/3 180/2/3 179/2/3
f 184/2/3 180/2/3 183/2/3
f 185/2/3 182/2/3 181/2/3
f 186/2/3 182/2/3 185/2/3
f 187/1/3 185/1/3 184/1/3
f 188/1/3 185/1/3 187/1/3
f 192/1/3 190/1/3 189/1/3
f 193/1/3 190/1/3 192/1/3
f 195/2/3 192/2/3 191/2/3
f 196/2/3 192/2/3 195/2/3
f 197/2/3 194/2/3 193/2/3
f 198/2/3 194/2/3 197/2/3
f 203/2/3 200/2/3 199/2/3
f 204/2/3 200/2/3 203/2/3
f 205/2/3 202/2/3 201/2/3
f 206/2/3 202/2/3 205/2/3
f 207/1/3 205/1/3 204/1/3
f 208/1/3 205/1/3 207/1/3
f 209/1/4 210/1/4 212/1/4
f 212/1/4 210/1/4 213/1/4
f 211/2/4 212/2/4 215/2/4
f 215/2/4 212/2/4 216/2/4
f 213/2/4 214/2/4 217/2/4
f 217/2/4 214/2/4 218/2/4
f 219/2/4 220/2/4 223/2/4
f 223/2/4 220/2/4 224/2/4
f 221/2/4 222/2/4 225/2/4
f 225/2/4 222/2/4 226/2/4
f 227/2/4 228/2/4 231/2/4
f 231/2/4 228/2/4 232/2/4
f 229/2/4 230/2/4 233/2/4
f 233/2/4 230/2/4 234/2/4
f 232/1/4 233/1/4 235/1/4
f 235/1/4 233/1/4 236/1/4
f 237/1/4 238/1/4 240/1/4
f 240/1/4 238/1/4 241/1/4
f 239/2/4 240/2/4 243/2/4
f 243/2/4 240/2/4 244/2/4
f 241/2/4 242/2/4 245/2/4
f 245/2/4 242/2/4 246/2/4
f 244/1/4 245/1/4 248/1/4
f 248/1/4 245/1/4 249/1/4
f 247/2/4 248/2/4 251/2/4
f 251/2/4 248/2/4 252/2/4
f 249/2/4 250/2/4 253/2/4
f 253/2/4 250/2/4 254/2/4
f 252/1/4 253/1/4 255/1/4
f 255/1/4 253/1/4 256/1/4
f 257/1/4 258/1/4 259/1/4
f 259/1/4 258/1/4 260/1/4
f 261/1/4 262/1/4 263/1/4
f 263/1/4 262/1/4 264/1/4
f 268/2/5 266/2/5 265/2/5
f 269/2/5 266/2/5 268/2/5
f 272/2/5 268/2/5 267/2/5
f 272/2/5 270/2/5 269/2/5
f 272/2/5 269/2/5 268/2/5
f 273/2/5 270/2/5 272/2/5
f 276/2/5 272/2/5 271/2/5
f 276/2/5 274/2/5 273/2/5
f 276/2/5 273/2/5 272/2/5
f 277/2/5 274/2/5 276/2/5
f 279/2/5 276/2/5 275/2/5
f 279/2/5 278/2/5 277/2/5
f 279/2/5 277/2/5 276/2/5
f 280/2/5 278/2/5 279/2/5
f 281/2/5 278/2/5 280/2/5
f 282/2/5 278/2/5 281/2/5
f 283/2/5 278/2/5 282/2/5
f 284/2/5 278/2/5 283/2/5
f 285/2/5 281/2/5 280/2/5
f 286/2/5 281/2/5 285/2/5
f 287/2/5 283/2/5 282/2/5
f 288/2/5 283/2/5 287/2/5
f 292/1/5 290/1/5 289/1/5
f 293/1/5 290/1/5 292/1/5
f 296/1/5 292/1/5 291/1/5
f 297/1/5 292/1/5 296/1/5
f 298/1/5 294/1/5 293/1/5
f 299/1/5 294/1/5 298/1/5
f 302/1/5 296/1/5 295/1/5
f 303/1/5 296/1/5 302/1/5
f 304/1/5 300/1/5 299/1/5
f 305/1/5 300/1/5 304/1/5
f 308/1/5 302/1/5 301/1/5
f 309/1/5 302/1/5 308/1/5
f 310/1/5 306/1/5 305/1/5
f 311/1/5 306/1/5 310/1/5
f 313/1/5 308/1/5 307/1/5
f 314/1/5 308/1/5 313/1/5
f 319/1/5 312/1/5 311/1/5
f 320/1/5 312/1/5 319/1/5
f 321/1/5 315/1/5 314/1/5
f 322/1/5 315/1/5 321/1/5
f 323/1/5 317/1/5 316/1/5
f 324/1/5 317/1/5 323/1/5
f 325/1/5 319/1/5 318/1/5
f 326/1/5 319/1/5 325/1/5
f 327/1/5 323/1/5 322/1/5
f 328/1/5 323/1/5 327/1/5
f 329/1/5 325/1/5 324/1/5
f 330/1/5 325/1/5 329/1/5
f 331/1/6 332/1/6 334/1/6
f 334/1/6 332/1/6 335/1/6
f 333/1/6 334/1/6 338/1/6
f 338/1/6 334/1/6 339/1/6
f 335/1/6 336/1/6 340/1/6
f 340/1/6 336/1/6 341/1/6
f 337/1/6 338/1/6 344/1/6
f 344/1/6 338/1/6 345/1/6
f 341/1/6 342/1/6 346/1/6
f 346/1/6 342/1/6 347/1/6
f 343/1/6 344/1/6 350/1/6
f 350/1/6 344/1/6 351/1/6
f 347/1/6 348/1/6 352/1/6
f 352/1/6 348/1/6 353/1/6
f 349/1/6 350/1/6 355/1/6
f 355/1/6 350/1/6 356/1/6
f 353/1/6 354/1/6 361/1/6
f 361/1/6 354/1/6 362/1/6
f 356/1/6 357/1/6 363/1/6
f 363/1/6 357/1/6 364/1/6
f 358/1/6 359/1/6 365/1/6
f 365/1/6 359/1/6 366/1/6
f 360/1/6 361/1/6 367/1/6
f 367/1/6 361/1/6 368/1/6
f 364/1/6 365/1/6 369/1/6
f 369/1/6 365/1/6 370/1/6
f 366/1/6 367/1/6 371/1/6
f 371/1/6 367/1/6 372/1/6
f 373/2/6 374/2/6 376/2/6
f 376/2/6 374/2/6 377/2/6
f 375/2/6 376/2/6 380/2/6
f 377/2/6 378/2/6 380/2/6
f 376/2/6 377/2/6 380/2/6
f 380/2/6 378/2/6 381/2/6
f 379/2/6 380/2/6 384/2/6
f 381/2/6 382/2/6 384/2/6
f 380/2/6 381/2/6 384/2/6
f 384/2/6 382/2/6 385/2/6
f 383/2/6 384/2/6 387/2/6
f 385/2/6 386/2/6 387/2/6
f 384/2/6 385/2/6 387/2/6
f 387/2/6 386/2/6 388/2/6
f 388/2/6 386/2/6 389/2/6
f 389/2/6 386/2/6 390/2/6
f 390/2/6 386/2/6 391/2/6
f 391/2/6 386/2/6 392/2/6
f 388/2/6 389/2/6 393/2/6
f 393/2/6 389/2/6 394/2/6
f 390/2/6 391/2/6 395/2/6
f 395/2/6 391/2/6 396/2/6
