# Blender 5.0.1
# www.blender.org
mtllib Swing.mtl
o 円柱
v 0.867233 -0.035767 -0.579467
v 0.867233 0.035767 -0.579467
v 0.963618 -0.035767 -0.399144
v 0.963618 0.035767 -0.399144
v 1.022972 -0.035767 -0.203482
v 1.022972 0.035767 -0.203482
v 1.043013 -0.035767 0.000000
v 1.043013 0.035767 0.000000
v 1.022972 -0.035767 0.203482
v 1.022972 0.035767 0.203482
v 0.963618 -0.035767 0.399144
v 0.963618 0.035767 0.399144
v 0.867233 -0.035767 0.579467
v 0.867233 0.035767 0.579467
v 0.236972 0.035767 0.000000
v 0.232419 0.035767 0.046231
v 0.232419 0.035767 -0.046231
v 0.218934 0.035767 -0.090685
v 0.218934 0.035767 0.090685
v 0.236972 -0.035767 0.000000
v 0.232419 -0.035767 -0.046231
v 0.218934 -0.035767 0.090685
v 0.232419 -0.035767 0.046231
v 0.218934 -0.035767 -0.090685
v 0.775092 0.035767 -0.691742
v 0.775092 -0.035767 -0.691742
v 0.203294 0.035767 -0.119945
v 0.203294 -0.035767 -0.119945
v 0.775092 0.035767 0.691742
v 0.775092 -0.035767 0.691742
v 0.203294 0.035767 0.119945
v 0.203294 -0.035767 0.119945
vn 0.7730 -0.0000 -0.6344
vn 0.8819 -0.0000 -0.4714
vn 0.9569 -0.0000 -0.2903
vn 0.9952 -0.0000 -0.0980
vn 0.9952 -0.0000 0.0980
vn 0.9569 -0.0000 0.2903
vn 0.8819 -0.0000 0.4714
vn 0.7730 -0.0000 0.6344
vn -0.0000 1.0000 -0.0000
vn -0.0000 -1.0000 -0.0000
vn -0.8819 -0.0000 0.4714
vn -0.9569 -0.0000 0.2903
vn -0.9952 -0.0000 0.0980
vn -0.9952 -0.0000 -0.0980
vn -0.9569 -0.0000 -0.2903
vn -0.8819 -0.0000 -0.4714
vn -0.7071 -0.0000 -0.7071
vn -0.7071 -0.0000 0.7071
vt 0.843750 1.000000
vt 0.843750 0.500000
vt 0.865949 0.500000
vt 0.865949 1.000000
vt 0.812500 1.000000
vt 0.812500 0.500000
vt 0.781250 1.000000
vt 0.781250 0.500000
vt 0.750000 1.000000
vt 0.750000 0.500000
vt 0.718750 1.000000
vt 0.718750 0.500000
vt 0.687500 1.000000
vt 0.687500 0.500000
vt 0.656250 1.000000
vt 0.656250 0.500000
vt 0.634051 1.000000
vt 0.634051 0.500000
vt 0.485388 0.203178
vt 0.490000 0.250000
vt 0.485388 0.296822
vt 0.471731 0.341844
vt 0.449553 0.383337
vt 0.428351 0.409172
vt 0.296779 0.277600
vt 0.300377 0.270867
vt 0.303480 0.260638
vt 0.304528 0.250000
vt 0.303480 0.239362
vt 0.300377 0.229133
vt 0.296779 0.222400
vt 0.428351 0.090828
vt 0.449553 0.116663
vt 0.471731 0.158156
vt 0.928351 0.409172
vt 0.949553 0.383337
vt 0.971731 0.341844
vt 0.985388 0.296822
vt 0.990000 0.250000
vt 0.985388 0.203178
vt 0.971731 0.158156
vt 0.949553 0.116663
vt 0.928351 0.090828
vt 0.796779 0.222400
vt 0.800377 0.229133
vt 0.803480 0.239362
vt 0.804528 0.250000
vt 0.803480 0.260638
vt 0.800377 0.270867
vt 0.796778 0.277600
vt 0.834818 0.645086
vt 0.812500 0.645086
vt 0.812500 0.854914
vt 0.834818 0.854914
vt 0.781250 0.854914
vt 0.781250 0.645086
vt 0.750000 0.854914
vt 0.750000 0.645086
vt 0.718750 0.854914
vt 0.718750 0.645086
vt 0.687500 0.854914
vt 0.687500 0.645086
vt 0.665182 0.645086
vt 0.665182 0.854914
vt 0.623138 0.620589
vt 0.376862 0.620589
vt 0.376862 0.716058
vt 0.623138 0.716058
vt 0.376862 0.283942
vt 0.376862 0.379411
vt 0.623138 0.379411
vt 0.623138 0.283942
s 0
f 2/1/1 1/2/1 26/3/1 25/4/1
f 1/2/2 2/1/2 4/5/2 3/6/2
f 3/6/3 4/5/3 6/7/3 5/8/3
f 5/8/4 6/7/4 8/9/4 7/10/4
f 7/10/5 8/9/5 10/11/5 9/12/5
f 9/12/6 10/11/6 12/13/6 11/14/6
f 11/14/7 12/13/7 14/15/7 13/16/7
f 13/16/8 14/15/8 29/17/8 30/18/8
f 10/19/9 8/20/9 6/21/9 4/22/9 2/23/9 25/24/9 27/25/9 18/26/9 17/27/9 15/28/9 16/29/9 19/30/9 31/31/9 29/32/9 14/33/9 12/34/9
f 26/35/10 1/36/10 3/37/10 5/38/10 7/39/10 9/40/10 11/41/10 13/42/10 30/43/10 32/44/10 22/45/10 23/46/10 20/47/10 21/48/10 24/49/10 28/50/10
f 28/51/11 24/52/11 18/53/11 27/54/11
f 17/55/12 18/53/12 24/52/12 21/56/12
f 15/57/13 17/55/13 21/56/13 20/58/13
f 16/59/14 15/57/14 20/58/14 23/60/14
f 19/61/15 16/59/15 23/60/15 22/62/15
f 19/61/16 22/62/16 32/63/16 31/64/16
f 25/65/17 26/66/17 28/67/17 27/68/17
f 32/69/18 30/70/18 29/71/18 31/72/18
