# Blender 5.0.1
# www.blender.org
mtllib Fist.mtl
o Untitled.001
v -1.600000 0.480000 0.480000
v -1.600000 0.480000 -0.480000
v -1.600000 1.120000 0.480000
v -1.600000 1.120000 -0.480000
v -1.440000 0.320000 0.480000
v -1.440000 0.320000 -0.480000
v -1.440000 0.480000 0.640000
v -1.440000 0.480000 0.480000
v -1.440000 0.480000 -0.480000
v -1.440000 0.480000 -1.120000
v -1.440000 1.120000 0.640000
v -1.440000 1.120000 0.480000
v -1.440000 1.120000 -0.480000
v -1.440000 1.120000 -1.120000
v -1.440000 1.280000 0.480000
v -1.440000 1.280000 -0.480000
v -1.280000 0.320000 0.640000
v -1.280000 0.320000 0.480000
v -1.280000 0.320000 -0.480000
v -1.280000 0.320000 -1.120000
v -1.280000 0.480000 0.800000
v -1.280000 0.480000 0.640000
v -1.280000 0.480000 0.480000
v -1.280000 0.480000 -0.480000
v -1.280000 0.480000 -1.120000
v -1.280000 0.480000 -1.280000
v -1.280000 1.120000 0.800000
v -1.280000 1.120000 0.640000
v -1.280000 1.120000 0.480000
v -1.280000 1.120000 -0.480000
v -1.280000 1.120000 -1.120000
v -1.280000 1.120000 -1.280000
v -1.280000 1.280000 0.640000
v -1.280000 1.280000 0.480000
v -1.280000 1.280000 -0.480000
v -1.280000 1.280000 -1.120000
v -1.120000 0.320000 0.800000
v -1.120000 0.320000 0.640000
v -1.120000 0.320000 -1.120000
v -1.120000 0.320000 -1.280000
v -1.120000 0.480000 0.960000
v -1.120000 0.480000 0.800000
v -1.120000 0.480000 0.640000
v -1.120000 0.480000 -1.120000
v -1.120000 0.480000 -1.280000
v -1.120000 0.480000 -1.440000
v -1.120000 1.120000 0.960000
v -1.120000 1.120000 0.800000
v -1.120000 1.120000 0.640000
v -1.120000 1.120000 -1.120000
v -1.120000 1.120000 -1.280000
v -1.120000 1.120000 -1.440000
v -1.120000 1.280000 0.800000
v -1.120000 1.280000 0.640000
v -1.120000 1.280000 -1.120000
v -1.120000 1.280000 -1.280000
v -0.960000 0.320000 0.960000
v -0.960000 0.320000 0.800000
v -0.960000 0.320000 -1.280000
v -0.960000 0.320000 -1.440000
v -0.960000 0.480000 1.120000
v -0.960000 0.480000 0.960000
v -0.960000 0.480000 0.800000
v -0.960000 0.480000 -1.280000
v -0.960000 0.480000 -1.440000
v -0.960000 0.480000 -1.600000
v -0.960000 1.120000 1.120000
v -0.960000 1.120000 0.960000
v -0.960000 1.120000 0.800000
v -0.960000 1.120000 -1.280000
v -0.960000 1.120000 -1.440000
v -0.960000 1.120000 -1.600000
v -0.960000 1.280000 0.960000
v -0.960000 1.280000 0.800000
v -0.960000 1.280000 -1.280000
v -0.960000 1.280000 -1.440000
v -0.800000 0.320000 1.120000
v -0.800000 0.320000 0.960000
v -0.800000 0.480000 1.440000
v -0.800000 0.480000 1.120000
v -0.800000 0.480000 0.960000
v -0.800000 1.120000 1.440000
v -0.800000 1.120000 1.120000
v -0.800000 1.120000 0.960000
v -0.800000 1.280000 1.120000
v -0.800000 1.280000 0.960000
v -0.640000 0.320000 1.440000
v -0.640000 0.320000 1.120000
v -0.640000 0.480000 1.600000
v -0.640000 0.480000 1.440000
v -0.640000 0.480000 1.120000
v -0.640000 1.120000 1.600000
v -0.640000 1.120000 1.440000
v -0.640000 1.120000 1.120000
v -0.640000 1.280000 1.440000
v -0.640000 1.280000 1.120000
v -0.480000 0.320000 1.600000
v -0.480000 0.320000 1.440000
v -0.480000 0.480000 1.760000
v -0.480000 0.480000 1.600000
v -0.480000 0.480000 1.440000
v -0.480000 1.120000 1.760000
v -0.480000 1.120000 1.600000
v -0.480000 1.120000 1.440000
v -0.480000 1.280000 1.600000
v -0.480000 1.280000 1.440000
v 0.320000 0.320000 -1.280000
v 0.320000 0.320000 -1.440000
v 0.320000 0.480000 -1.280000
v 0.320000 0.480000 -1.440000
v 0.320000 0.480000 -1.600000
v 0.320000 1.120000 -1.280000
v 0.320000 1.120000 -1.440000
v 0.320000 1.120000 -1.600000
v 0.320000 1.280000 -1.280000
v 0.320000 1.280000 -1.440000
v 0.480000 0.320000 1.600000
v 0.480000 0.320000 1.440000
v 0.480000 0.320000 -1.120000
v 0.480000 0.320000 -1.280000
v 0.480000 0.480000 1.760000
v 0.480000 0.480000 1.600000
v 0.480000 0.480000 1.440000
v 0.480000 0.480000 -1.120000
v 0.480000 0.480000 -1.280000
v 0.480000 0.480000 -1.440000
v 0.480000 1.120000 1.760000
v 0.480000 1.120000 1.600000
v 0.480000 1.120000 1.440000
v 0.480000 1.120000 -1.120000
v 0.480000 1.120000 -1.280000
v 0.480000 1.120000 -1.440000
v 0.480000 1.280000 1.600000
v 0.480000 1.280000 1.440000
v 0.480000 1.280000 -1.120000
v 0.480000 1.280000 -1.280000
v 0.640000 0.320000 1.440000
v 0.640000 0.320000 1.120000
v 0.640000 0.320000 -0.960000
v 0.640000 0.320000 -1.120000
v 0.640000 0.480000 1.600000
v 0.640000 0.480000 1.440000
v 0.640000 0.480000 1.120000
v 0.640000 0.480000 -0.960000
v 0.640000 0.480000 -1.120000
v 0.640000 0.480000 -1.280000
v 0.640000 1.120000 1.600000
v 0.640000 1.120000 1.440000
v 0.640000 1.120000 1.120000
v 0.640000 1.120000 -0.960000
v 0.640000 1.120000 -1.120000
v 0.640000 1.120000 -1.280000
v 0.640000 1.280000 1.440000
v 0.640000 1.280000 1.120000
v 0.640000 1.280000 -0.960000
v 0.640000 1.280000 -1.120000
v 0.800000 0.320000 1.120000
v 0.800000 0.320000 0.960000
v 0.800000 0.480000 1.440000
v 0.800000 0.480000 1.120000
v 0.800000 0.480000 0.960000
v 0.800000 1.120000 1.440000
v 0.800000 1.120000 1.120000
v 0.800000 1.120000 0.960000
v 0.800000 1.280000 1.120000
v 0.800000 1.280000 0.960000
v 0.960000 0.320000 0.960000
v 0.960000 0.320000 0.800000
v 0.960000 0.320000 -0.800000
v 0.960000 0.320000 -0.960000
v 0.960000 0.480000 1.120000
v 0.960000 0.480000 0.960000
v 0.960000 0.480000 0.800000
v 0.960000 0.480000 -0.800000
v 0.960000 0.480000 -0.960000
v 0.960000 0.480000 -1.120000
v 0.960000 1.120000 1.120000
v 0.960000 1.120000 0.960000
v 0.960000 1.120000 0.800000
v 0.960000 1.120000 -0.800000
v 0.960000 1.120000 -0.960000
v 0.960000 1.120000 -1.120000
v 0.960000 1.280000 0.960000
v 0.960000 1.280000 0.800000
v 0.960000 1.280000 -0.800000
v 0.960000 1.280000 -0.960000
v 1.120000 0.320000 0.800000
v 1.120000 0.320000 0.640000
v 1.120000 0.320000 -0.640000
v 1.120000 0.320000 -0.800000
v 1.120000 0.480000 0.960000
v 1.120000 0.480000 0.800000
v 1.120000 0.480000 0.640000
v 1.120000 0.480000 -0.640000
v 1.120000 0.480000 -0.800000
v 1.120000 0.480000 -0.960000
v 1.120000 1.120000 0.960000
v 1.120000 1.120000 0.800000
v 1.120000 1.120000 0.640000
v 1.120000 1.120000 -0.640000
v 1.120000 1.120000 -0.800000
v 1.120000 1.120000 -0.960000
v 1.120000 1.280000 0.800000
v 1.120000 1.280000 0.640000
v 1.120000 1.280000 -0.640000
v 1.120000 1.280000 -0.800000
v 1.280000 0.320000 0.640000
v 1.280000 0.320000 0.480000
v 1.280000 0.320000 -0.320000
v 1.280000 0.320000 -0.640000
v 1.280000 0.480000 0.800000
v 1.280000 0.480000 0.640000
v 1.280000 0.480000 0.480000
v 1.280000 0.480000 -0.320000
v 1.280000 0.480000 -0.640000
v 1.280000 0.480000 -0.800000
v 1.280000 1.120000 0.800000
v 1.280000 1.120000 0.640000
v 1.280000 1.120000 0.480000
v 1.280000 1.120000 -0.320000
v 1.280000 1.120000 -0.640000
v 1.280000 1.120000 -0.800000
v 1.280000 1.280000 0.640000
v 1.280000 1.280000 0.480000
v 1.280000 1.280000 -0.320000
v 1.280000 1.280000 -0.640000
v 1.440000 0.320000 0.480000
v 1.440000 0.320000 -0.320000
v 1.440000 0.480000 0.640000
v 1.440000 0.480000 0.480000
v 1.440000 0.480000 -0.320000
v 1.440000 0.480000 -0.640000
v 1.440000 1.120000 0.640000
v 1.440000 1.120000 0.480000
v 1.440000 1.120000 -0.320000
v 1.440000 1.120000 -0.640000
v 1.440000 1.280000 0.480000
v 1.440000 1.280000 -0.320000
v 1.600000 0.480000 0.480000
v 1.600000 0.480000 -0.320000
v 1.600000 1.120000 0.480000
v 1.600000 1.120000 -0.320000
v -0.480000 0.480000 1.760000
v -0.480000 1.120000 1.760000
v 0.480000 0.480000 1.760000
v 0.480000 1.120000 1.760000
v -0.640000 0.480000 1.600000
v -0.640000 1.120000 1.600000
v -0.480000 0.320000 1.600000
v -0.480000 0.480000 1.600000
v -0.480000 1.120000 1.600000
v -0.480000 1.280000 1.600000
v 0.480000 0.320000 1.600000
v 0.480000 0.480000 1.600000
v 0.480000 1.120000 1.600000
v 0.480000 1.280000 1.600000
v 0.640000 0.480000 1.600000
v 0.640000 1.120000 1.600000
v -0.800000 0.480000 1.440000
v -0.800000 1.120000 1.440000
v -0.640000 0.320000 1.440000
v -0.640000 0.480000 1.440000
v -0.640000 1.120000 1.440000
v -0.640000 1.280000 1.440000
v -0.480000 0.320000 1.440000
v -0.480000 0.480000 1.440000
v -0.480000 1.120000 1.440000
v -0.480000 1.280000 1.440000
v 0.480000 0.320000 1.440000
v 0.480000 0.480000 1.440000
v 0.480000 1.120000 1.440000
v 0.480000 1.280000 1.440000
v 0.640000 0.320000 1.440000
v 0.640000 0.480000 1.440000
v 0.640000 1.120000 1.440000
v 0.640000 1.280000 1.440000
v 0.800000 0.480000 1.440000
v 0.800000 1.120000 1.440000
v -0.960000 0.480000 1.120000
v -0.960000 1.120000 1.120000
v -0.800000 0.320000 1.120000
v -0.800000 0.480000 1.120000
v -0.800000 1.120000 1.120000
v -0.800000 1.280000 1.120000
v -0.640000 0.320000 1.120000
v -0.640000 0.480000 1.120000
v -0.640000 1.120000 1.120000
v -0.640000 1.280000 1.120000
v 0.640000 0.320000 1.120000
v 0.640000 0.480000 1.120000
v 0.640000 1.120000 1.120000
v 0.640000 1.280000 1.120000
v 0.800000 0.320000 1.120000
v 0.800000 0.480000 1.120000
v 0.800000 1.120000 1.120000
v 0.800000 1.280000 1.120000
v 0.960000 0.480000 1.120000
v 0.960000 1.120000 1.120000
v -1.120000 0.480000 0.960000
v -1.120000 1.120000 0.960000
v -0.960000 0.320000 0.960000
v -0.960000 0.480000 0.960000
v -0.960000 1.120000 0.960000
v -0.960000 1.280000 0.960000
v -0.800000 0.320000 0.960000
v -0.800000 0.480000 0.960000
v -0.800000 1.120000 0.960000
v -0.800000 1.280000 0.960000
v 0.800000 0.320000 0.960000
v 0.800000 0.480000 0.960000
v 0.800000 1.120000 0.960000
v 0.800000 1.280000 0.960000
v 0.960000 0.320000 0.960000
v 0.960000 0.480000 0.960000
v 0.960000 1.120000 0.960000
v 0.960000 1.280000 0.960000
v 1.120000 0.480000 0.960000
v 1.120000 1.120000 0.960000
v -1.280000 0.480000 0.800000
v -1.280000 1.120000 0.800000
v -1.120000 0.320000 0.800000
v -1.120000 0.480000 0.800000
v -1.120000 1.120000 0.800000
v -1.120000 1.280000 0.800000
v -0.960000 0.320000 0.800000
v -0.960000 0.480000 0.800000
v -0.960000 1.120000 0.800000
v -0.960000 1.280000 0.800000
v 0.960000 0.320000 0.800000
v 0.960000 0.480000 0.800000
v 0.960000 1.120000 0.800000
v 0.960000 1.280000 0.800000
v 1.120000 0.320000 0.800000
v 1.120000 0.480000 0.800000
v 1.120000 1.120000 0.800000
v 1.120000 1.280000 0.800000
v 1.280000 0.480000 0.800000
v 1.280000 1.120000 0.800000
v -1.440000 0.480000 0.640000
v -1.440000 1.120000 0.640000
v -1.280000 0.320000 0.640000
v -1.280000 0.480000 0.640000
v -1.280000 1.120000 0.640000
v -1.280000 1.280000 0.640000
v -1.120000 0.320000 0.640000
v -1.120000 0.480000 0.640000
v -1.120000 1.120000 0.640000
v -1.120000 1.280000 0.640000
v 1.120000 0.320000 0.640000
v 1.120000 0.480000 0.640000
v 1.120000 1.120000 0.640000
v 1.120000 1.280000 0.640000
v 1.280000 0.320000 0.640000
v 1.280000 0.480000 0.640000
v 1.280000 1.120000 0.640000
v 1.280000 1.280000 0.640000
v 1.440000 0.480000 0.640000
v 1.440000 1.120000 0.640000
v -1.600000 0.480000 0.480000
v -1.600000 1.120000 0.480000
v -1.440000 0.320000 0.480000
v -1.440000 0.480000 0.480000
v -1.440000 1.120000 0.480000
v -1.440000 1.280000 0.480000
v -1.280000 0.320000 0.480000
v -1.280000 0.480000 0.480000
v -1.280000 1.120000 0.480000
v -1.280000 1.280000 0.480000
v 1.280000 0.320000 0.480000
v 1.280000 0.480000 0.480000
v 1.280000 1.120000 0.480000
v 1.280000 1.280000 0.480000
v 1.440000 0.320000 0.480000
v 1.440000 0.480000 0.480000
v 1.440000 1.120000 0.480000
v 1.440000 1.280000 0.480000
v 1.600000 0.480000 0.480000
v 1.600000 1.120000 0.480000
v 1.280000 0.320000 -0.320000
v 1.280000 0.480000 -0.320000
v 1.280000 1.120000 -0.320000
v 1.280000 1.280000 -0.320000
v 1.440000 0.320000 -0.320000
v 1.440000 0.480000 -0.320000
v 1.440000 1.120000 -0.320000
v 1.440000 1.280000 -0.320000
v 1.600000 0.480000 -0.320000
v 1.600000 1.120000 -0.320000
v -1.600000 0.480000 -0.480000
v -1.600000 1.120000 -0.480000
v -1.440000 0.320000 -0.480000
v -1.440000 0.480000 -0.480000
v -1.440000 1.120000 -0.480000
v -1.440000 1.280000 -0.480000
v -1.280000 0.320000 -0.480000
v -1.280000 0.480000 -0.480000
v -1.280000 1.120000 -0.480000
v -1.280000 1.280000 -0.480000
v 1.120000 0.320000 -0.640000
v 1.120000 0.480000 -0.640000
v 1.120000 1.120000 -0.640000
v 1.120000 1.280000 -0.640000
v 1.280000 0.320000 -0.640000
v 1.280000 0.480000 -0.640000
v 1.280000 1.120000 -0.640000
v 1.280000 1.280000 -0.640000
v 1.440000 0.480000 -0.640000
v 1.440000 1.120000 -0.640000
v 0.960000 0.320000 -0.800000
v 0.960000 0.480000 -0.800000
v 0.960000 1.120000 -0.800000
v 0.960000 1.280000 -0.800000
v 1.120000 0.320000 -0.800000
v 1.120000 0.480000 -0.800000
v 1.120000 1.120000 -0.800000
v 1.120000 1.280000 -0.800000
v 1.280000 0.480000 -0.800000
v 1.280000 1.120000 -0.800000
v 0.640000 0.320000 -0.960000
v 0.640000 0.480000 -0.960000
v 0.640000 1.120000 -0.960000
v 0.640000 1.280000 -0.960000
v 0.960000 0.320000 -0.960000
v 0.960000 0.480000 -0.960000
v 0.960000 1.120000 -0.960000
v 0.960000 1.280000 -0.960000
v 1.120000 0.480000 -0.960000
v 1.120000 1.120000 -0.960000
v -1.440000 0.480000 -1.120000
v -1.440000 1.120000 -1.120000
v -1.280000 0.320000 -1.120000
v -1.280000 0.480000 -1.120000
v -1.280000 1.120000 -1.120000
v -1.280000 1.280000 -1.120000
v -1.120000 0.320000 -1.120000
v -1.120000 0.480000 -1.120000
v -1.120000 1.120000 -1.120000
v -1.120000 1.280000 -1.120000
v 0.480000 0.320000 -1.120000
v 0.480000 0.480000 -1.120000
v 0.480000 1.120000 -1.120000
v 0.480000 1.280000 -1.120000
v 0.640000 0.320000 -1.120000
v 0.640000 0.480000 -1.120000
v 0.640000 1.120000 -1.120000
v 0.640000 1.280000 -1.120000
v 0.960000 0.480000 -1.120000
v 0.960000 1.120000 -1.120000
v -1.280000 0.480000 -1.280000
v -1.280000 1.120000 -1.280000
v -1.120000 0.320000 -1.280000
v -1.120000 0.480000 -1.280000
v -1.120000 1.120000 -1.280000
v -1.120000 1.280000 -1.280000
v -0.960000 0.320000 -1.280000
v -0.960000 0.480000 -1.280000
v -0.960000 1.120000 -1.280000
v -0.960000 1.280000 -1.280000
v 0.320000 0.320000 -1.280000
v 0.320000 0.480000 -1.280000
v 0.320000 1.120000 -1.280000
v 0.320000 1.280000 -1.280000
v 0.480000 0.320000 -1.280000
v 0.480000 0.480000 -1.280000
v 0.480000 1.120000 -1.280000
v 0.480000 1.280000 -1.280000
v 0.640000 0.480000 -1.280000
v 0.640000 1.120000 -1.280000
v -1.120000 0.480000 -1.440000
v -1.120000 1.120000 -1.440000
v -0.960000 0.320000 -1.440000
v -0.960000 0.480000 -1.440000
v -0.960000 1.120000 -1.440000
v -0.960000 1.280000 -1.440000
v 0.320000 0.320000 -1.440000
v 0.320000 0.480000 -1.440000
v 0.320000 1.120000 -1.440000
v 0.320000 1.280000 -1.440000
v 0.480000 0.480000 -1.440000
v 0.480000 1.120000 -1.440000
v -0.960000 0.480000 -1.600000
v -0.960000 1.120000 -1.600000
v 0.320000 0.480000 -1.600000
v 0.320000 1.120000 -1.600000
v -0.480000 0.320000 1.600000
v 0.480000 0.320000 1.600000
v -0.640000 0.320000 1.440000
v -0.480000 0.320000 1.440000
v 0.480000 0.320000 1.440000
v 0.640000 0.320000 1.440000
v -0.800000 0.320000 1.120000
v -0.640000 0.320000 1.120000
v -0.480000 0.320000 1.120000
v 0.480000 0.320000 1.120000
v 0.640000 0.320000 1.120000
v 0.800000 0.320000 1.120000
v -0.960000 0.320000 0.960000
v -0.800000 0.320000 0.960000
v -0.640000 0.320000 0.960000
v 0.640000 0.320000 0.960000
v 0.800000 0.320000 0.960000
v 0.960000 0.320000 0.960000
v -1.120000 0.320000 0.800000
v -0.960000 0.320000 0.800000
v -0.800000 0.320000 0.800000
v 0.800000 0.320000 0.800000
v 0.960000 0.320000 0.800000
v 1.120000 0.320000 0.800000
v -1.280000 0.320000 0.640000
v -1.120000 0.320000 0.640000
v -0.960000 0.320000 0.640000
v 0.960000 0.320000 0.640000
v 1.120000 0.320000 0.640000
v 1.280000 0.320000 0.640000
v -1.440000 0.320000 0.480000
v -1.280000 0.320000 0.480000
v -1.120000 0.320000 0.480000
v 1.120000 0.320000 0.480000
v 1.280000 0.320000 0.480000
v 1.440000 0.320000 0.480000
v 0.320000 0.320000 0.320000
v 0.640000 0.320000 0.320000
v -0.960000 0.320000 0.160000
v -0.640000 0.320000 0.160000
v 0.160000 0.320000 0.160000
v 0.320000 0.320000 0.160000
v 0.640000 0.320000 0.160000
v 0.800000 0.320000 0.160000
v -0.960000 0.320000 -0.000000
v -0.800000 0.320000 -0.000000
v -0.640000 0.320000 -0.000000
v -0.480000 0.320000 -0.000000
v 0.800000 0.320000 -0.000000
v 0.960000 0.320000 -0.000000
v -0.800000 0.320000 -0.160000
v -0.640000 0.320000 -0.160000
v -0.480000 0.320000 -0.160000
v -0.320000 0.320000 -0.160000
v -0.160000 0.320000 -0.160000
v 0.160000 0.320000 -0.160000
v 0.320000 0.320000 -0.160000
v 0.480000 0.320000 -0.160000
v 0.640000 0.320000 -0.160000
v 0.800000 0.320000 -0.160000
v -0.640000 0.320000 -0.320000
v -0.480000 0.320000 -0.320000
v -0.320000 0.320000 -0.320000
v -0.160000 0.320000 -0.320000
v 0.000000 0.320000 -0.320000
v 0.160000 0.320000 -0.320000
v 0.800000 0.320000 -0.320000
v 0.960000 0.320000 -0.320000
v 1.120000 0.320000 -0.320000
v 1.280000 0.320000 -0.320000
v 1.440000 0.320000 -0.320000
v -1.440000 0.320000 -0.480000
v -1.280000 0.320000 -0.480000
v -1.120000 0.320000 -0.480000
v -0.480000 0.320000 -0.480000
v -0.320000 0.320000 -0.480000
v -0.160000 0.320000 -0.480000
v 0.000000 0.320000 -0.480000
v 0.160000 0.320000 -0.480000
v 0.320000 0.320000 -0.480000
v 0.480000 0.320000 -0.480000
v 0.640000 0.320000 -0.480000
v -1.120000 0.320000 -0.640000
v -0.320000 0.320000 -0.640000
v 0.640000 0.320000 -0.640000
v 0.800000 0.320000 -0.640000
v 0.960000 0.320000 -0.640000
v 1.120000 0.320000 -0.640000
v 1.280000 0.320000 -0.640000
v -1.120000 0.320000 -0.800000
v -0.800000 0.320000 -0.800000
v -0.480000 0.320000 -0.800000
v -0.320000 0.320000 -0.800000
v -0.160000 0.320000 -0.800000
v 0.000000 0.320000 -0.800000
v 0.320000 0.320000 -0.800000
v 0.480000 0.320000 -0.800000
v 0.800000 0.320000 -0.800000
v 0.960000 0.320000 -0.800000
v 1.120000 0.320000 -0.800000
v -0.640000 0.320000 -0.960000
v -0.480000 0.320000 -0.960000
v -0.320000 0.320000 -0.960000
v -0.160000 0.320000 -0.960000
v 0.640000 0.320000 -0.960000
v 0.960000 0.320000 -0.960000
v -1.280000 0.320000 -1.120000
v -1.120000 0.320000 -1.120000
v -0.960000 0.320000 -1.120000
v 0.000000 0.320000 -1.120000
v 0.160000 0.320000 -1.120000
v 0.320000 0.320000 -1.120000
v 0.480000 0.320000 -1.120000
v 0.640000 0.320000 -1.120000
v -1.120000 0.320000 -1.280000
v -0.960000 0.320000 -1.280000
v -0.800000 0.320000 -1.280000
v -0.640000 0.320000 -1.280000
v -0.160000 0.320000 -1.280000
v 0.160000 0.320000 -1.280000
v 0.320000 0.320000 -1.280000
v 0.480000 0.320000 -1.280000
v -0.960000 0.320000 -1.440000
v 0.320000 0.320000 -1.440000
v -0.480000 0.480000 1.760000
v 0.480000 0.480000 1.760000
v -0.640000 0.480000 1.600000
v -0.480000 0.480000 1.600000
v 0.480000 0.480000 1.600000
v 0.640000 0.480000 1.600000
v -0.800000 0.480000 1.440000
v -0.640000 0.480000 1.440000
v -0.480000 0.480000 1.440000
v 0.480000 0.480000 1.440000
v 0.640000 0.480000 1.440000
v 0.800000 0.480000 1.440000
v -0.960000 0.480000 1.120000
v -0.800000 0.480000 1.120000
v -0.640000 0.480000 1.120000
v 0.640000 0.480000 1.120000
v 0.800000 0.480000 1.120000
v 0.960000 0.480000 1.120000
v -1.120000 0.480000 0.960000
v -0.960000 0.480000 0.960000
v -0.800000 0.480000 0.960000
v 0.800000 0.480000 0.960000
v 0.960000 0.480000 0.960000
v 1.120000 0.480000 0.960000
v -1.280000 0.480000 0.800000
v -1.120000 0.480000 0.800000
v -0.960000 0.480000 0.800000
v 0.960000 0.480000 0.800000
v 1.120000 0.480000 0.800000
v 1.280000 0.480000 0.800000
v -1.440000 0.480000 0.640000
v -1.280000 0.480000 0.640000
v -1.120000 0.480000 0.640000
v 1.120000 0.480000 0.640000
v 1.280000 0.480000 0.640000
v 1.440000 0.480000 0.640000
v -1.600000 0.480000 0.480000
v -1.440000 0.480000 0.480000
v -1.280000 0.480000 0.480000
v 1.280000 0.480000 0.480000
v 1.440000 0.480000 0.480000
v 1.600000 0.480000 0.480000
v 1.280000 0.480000 -0.320000
v 1.440000 0.480000 -0.320000
v 1.600000 0.480000 -0.320000
v -1.600000 0.480000 -0.480000
v -1.440000 0.480000 -0.480000
v -1.280000 0.480000 -0.480000
v 1.120000 0.480000 -0.640000
v 1.280000 0.480000 -0.640000
v 1.440000 0.480000 -0.640000
v 0.960000 0.480000 -0.800000
v 1.120000 0.480000 -0.800000
v 1.280000 0.480000 -0.800000
v 0.640000 0.480000 -0.960000
v 0.960000 0.480000 -0.960000
v 1.120000 0.480000 -0.960000
v -1.440000 0.480000 -1.120000
v -1.280000 0.480000 -1.120000
v -1.120000 0.480000 -1.120000
v 0.480000 0.480000 -1.120000
v 0.640000 0.480000 -1.120000
v 0.960000 0.480000 -1.120000
v -1.280000 0.480000 -1.280000
v -1.120000 0.480000 -1.280000
v -0.960000 0.480000 -1.280000
v 0.320000 0.480000 -1.280000
v 0.480000 0.480000 -1.280000
v 0.640000 0.480000 -1.280000
v -1.120000 0.480000 -1.440000
v -0.960000 0.480000 -1.440000
v 0.320000 0.480000 -1.440000
v 0.480000 0.480000 -1.440000
v -0.960000 0.480000 -1.600000
v 0.320000 0.480000 -1.600000
v -0.480000 1.120000 1.760000
v 0.480000 1.120000 1.760000
v -0.640000 1.120000 1.600000
v -0.480000 1.120000 1.600000
v 0.480000 1.120000 1.600000
v 0.640000 1.120000 1.600000
v -0.800000 1.120000 1.440000
v -0.640000 1.120000 1.440000
v -0.480000 1.120000 1.440000
v 0.480000 1.120000 1.440000
v 0.640000 1.120000 1.440000
v 0.800000 1.120000 1.440000
v -0.960000 1.120000 1.120000
v -0.800000 1.120000 1.120000
v -0.640000 1.120000 1.120000
v 0.640000 1.120000 1.120000
v 0.800000 1.120000 1.120000
v 0.960000 1.120000 1.120000
v -1.120000 1.120000 0.960000
v -0.960000 1.120000 0.960000
v -0.800000 1.120000 0.960000
v 0.800000 1.120000 0.960000
v 0.960000 1.120000 0.960000
v 1.120000 1.120000 0.960000
v -1.280000 1.120000 0.800000
v -1.120000 1.120000 0.800000
v -0.960000 1.120000 0.800000
v 0.960000 1.120000 0.800000
v 1.120000 1.120000 0.800000
v 1.280000 1.120000 0.800000
v -1.440000 1.120000 0.640000
v -1.280000 1.120000 0.640000
v -1.120000 1.120000 0.640000
v 1.120000 1.120000 0.640000
v 1.280000 1.120000 0.640000
v 1.440000 1.120000 0.640000
v -1.600000 1.120000 0.480000
v -1.440000 1.120000 0.480000
v -1.280000 1.120000 0.480000
v 1.280000 1.120000 0.480000
v 1.440000 1.120000 0.480000
v 1.600000 1.120000 0.480000
v 1.280000 1.120000 -0.320000
v 1.440000 1.120000 -0.320000
v 1.600000 1.120000 -0.320000
v -1.600000 1.120000 -0.480000
v -1.440000 1.120000 -0.480000
v -1.280000 1.120000 -0.480000
v 1.120000 1.120000 -0.640000
v 1.280000 1.120000 -0.640000
v 1.440000 1.120000 -0.640000
v 0.960000 1.120000 -0.800000
v 1.120000 1.120000 -0.800000
v 1.280000 1.120000 -0.800000
v 0.640000 1.120000 -0.960000
v 0.960000 1.120000 -0.960000
v 1.120000 1.120000 -0.960000
v -1.440000 1.120000 -1.120000
v -1.280000 1.120000 -1.120000
v -1.120000 1.120000 -1.120000
v 0.480000 1.120000 -1.120000
v 0.640000 1.120000 -1.120000
v 0.960000 1.120000 -1.120000
v -1.280000 1.120000 -1.280000
v -1.120000 1.120000 -1.280000
v -0.960000 1.120000 -1.280000
v 0.320000 1.120000 -1.280000
v 0.480000 1.120000 -1.280000
v 0.640000 1.120000 -1.280000
v -1.120000 1.120000 -1.440000
v -0.960000 1.120000 -1.440000
v 0.320000 1.120000 -1.440000
v 0.480000 1.120000 -1.440000
v -0.960000 1.120000 -1.600000
v 0.320000 1.120000 -1.600000
v -0.480000 1.280000 1.600000
v 0.480000 1.280000 1.600000
v -0.640000 1.280000 1.440000
v -0.480000 1.280000 1.440000
v 0.480000 1.280000 1.440000
v 0.640000 1.280000 1.440000
v -0.800000 1.280000 1.120000
v -0.640000 1.280000 1.120000
v -0.480000 1.280000 1.120000
v 0.480000 1.280000 1.120000
v 0.640000 1.280000 1.120000
v 0.800000 1.280000 1.120000
v -0.960000 1.280000 0.960000
v -0.800000 1.280000 0.960000
v -0.640000 1.280000 0.960000
v 0.640000 1.280000 0.960000
v 0.800000 1.280000 0.960000
v 0.960000 1.280000 0.960000
v -1.120000 1.280000 0.800000
v -0.960000 1.280000 0.800000
v -0.800000 1.280000 0.800000
v 0.800000 1.280000 0.800000
v 0.960000 1.280000 0.800000
v 1.120000 1.280000 0.800000
v -1.280000 1.280000 0.640000
v -1.120000 1.280000 0.640000
v -0.960000 1.280000 0.640000
v 0.960000 1.280000 0.640000
v 1.120000 1.280000 0.640000
v 1.280000 1.280000 0.640000
v -1.440000 1.280000 0.480000
v -1.280000 1.280000 0.480000
v -1.120000 1.280000 0.480000
v 1.120000 1.280000 0.480000
v 1.280000 1.280000 0.480000
v 1.440000 1.280000 0.480000
v 0.320000 1.280000 0.320000
v 0.640000 1.280000 0.320000
v -0.960000 1.280000 0.160000
v -0.640000 1.280000 0.160000
v 0.160000 1.280000 0.160000
v 0.320000 1.280000 0.160000
v 0.640000 1.280000 0.160000
v 0.800000 1.280000 0.160000
v -0.960000 1.280000 -0.000000
v -0.800000 1.280000 -0.000000
v -0.640000 1.280000 -0.000000
v -0.480000 1.280000 -0.000000
v 0.800000 1.280000 -0.000000
v 0.960000 1.280000 -0.000000
v -0.800000 1.280000 -0.160000
v -0.640000 1.280000 -0.160000
v -0.480000 1.280000 -0.160000
v -0.320000 1.280000 -0.160000
v -0.160000 1.280000 -0.160000
v 0.160000 1.280000 -0.160000
v 0.320000 1.280000 -0.160000
v 0.480000 1.280000 -0.160000
v 0.640000 1.280000 -0.160000
v 0.800000 1.280000 -0.160000
v -0.640000 1.280000 -0.320000
v -0.480000 1.280000 -0.320000
v -0.320000 1.280000 -0.320000
v -0.160000 1.280000 -0.320000
v 0.000000 1.280000 -0.320000
v 0.160000 1.280000 -0.320000
v 0.800000 1.280000 -0.320000
v 0.960000 1.280000 -0.320000
v 1.120000 1.280000 -0.320000
v 1.280000 1.280000 -0.320000
v 1.440000 1.280000 -0.320000
v -1.440000 1.280000 -0.480000
v -1.280000 1.280000 -0.480000
v -1.120000 1.280000 -0.480000
v -0.480000 1.280000 -0.480000
v -0.320000 1.280000 -0.480000
v -0.160000 1.280000 -0.480000
v 0.000000 1.280000 -0.480000
v 0.160000 1.280000 -0.480000
v 0.320000 1.280000 -0.480000
v 0.480000 1.280000 -0.480000
v 0.640000 1.280000 -0.480000
v -1.120000 1.280000 -0.640000
v -0.320000 1.280000 -0.640000
v 0.640000 1.280000 -0.640000
v 0.800000 1.280000 -0.640000
v 0.960000 1.280000 -0.640000
v 1.120000 1.280000 -0.640000
v 1.280000 1.280000 -0.640000
v -1.120000 1.280000 -0.800000
v -0.800000 1.280000 -0.800000
v -0.480000 1.280000 -0.800000
v -0.320000 1.280000 -0.800000
v -0.160000 1.280000 -0.800000
v 0.000000 1.280000 -0.800000
v 0.320000 1.280000 -0.800000
v 0.480000 1.280000 -0.800000
v 0.800000 1.280000 -0.800000
v 0.960000 1.280000 -0.800000
v 1.120000 1.280000 -0.800000
v -0.640000 1.280000 -0.960000
v -0.480000 1.280000 -0.960000
v -0.320000 1.280000 -0.960000
v -0.160000 1.280000 -0.960000
v 0.640000 1.280000 -0.960000
v 0.960000 1.280000 -0.960000
v -1.280000 1.280000 -1.120000
v -1.120000 1.280000 -1.120000
v -0.960000 1.280000 -1.120000
v 0.000000 1.280000 -1.120000
v 0.160000 1.280000 -1.120000
v 0.320000 1.280000 -1.120000
v 0.480000 1.280000 -1.120000
v 0.640000 1.280000 -1.120000
v -1.120000 1.280000 -1.280000
v -0.960000 1.280000 -1.280000
v -0.800000 1.280000 -1.280000
v -0.640000 1.280000 -1.280000
v -0.160000 1.280000 -1.280000
v 0.160000 1.280000 -1.280000
v 0.320000 1.280000 -1.280000
v 0.480000 1.280000 -1.280000
v -0.960000 1.280000 -1.440000
v 0.320000 1.280000 -1.440000
vn -1.0000 -0.0000 -0.0000
vn 1.0000 -0.0000 -0.0000
vn -0.0000 -0.0000 1.0000
vn -0.0000 -0.0000 -1.0000
vn -0.0000 -1.0000 -0.0000
vn -0.0000 1.0000 -0.0000
vt 0.982422 0.500000
vt 0.044922 0.500000
vt 0.001953 0.500000
s 1
usemtl palette.043
f 3/1/1 2/1/1 1/1/1
f 4/1/1 2/1/1 3/1/1
f 8/2/1 6/2/1 5/2/1
f 9/2/1 6/2/1 8/2/1
f 11/1/1 8/1/1 7/1/1
f 12/1/1 8/1/1 11/1/1
f 13/1/1 10/1/1 9/1/1
f 14/1/1 10/1/1 13/1/1
f 15/2/1 13/2/1 12/2/1
f 16/2/1 13/2/1 15/2/1
f 22/2/1 18/2/1 17/2/1
f 23/2/1 18/2/1 22/2/1
f 24/2/1 20/2/1 19/2/1
f 25/2/1 20/2/1 24/2/1
f 27/1/1 22/1/1 21/1/1
f 28/1/1 22/1/1 27/1/1
f 31/1/1 26/1/1 25/1/1
f 32/1/1 26/1/1 31/1/1
f 33/2/1 29/2/1 28/2/1
f 34/2/1 29/2/1 33/2/1
f 35/2/1 31/2/1 30/2/1
f 36/2/1 31/2/1 35/2/1
f 42/2/1 38/2/1 37/2/1
f 43/2/1 38/2/1 42/2/1
f 44/2/1 40/2/1 39/2/1
f 45/2/1 40/2/1 44/2/1
f 47/1/1 42/1/1 41/1/1
f 48/1/1 42/1/1 47/1/1
f 51/1/1 46/1/1 45/1/1
f 52/1/1 46/1/1 51/1/1
f 53/2/1 49/2/1 48/2/1
f 54/2/1 49/2/1 53/2/1
f 55/2/1 51/2/1 50/2/1
f 56/2/1 51/2/1 55/2/1
f 62/2/1 58/2/1 57/2/1
f 63/2/1 58/2/1 62/2/1
f 64/2/1 60/2/1 59/2/1
f 65/2/1 60/2/1 64/2/1
f 67/1/1 62/1/1 61/1/1
f 68/1/1 62/1/1 67/1/1
f 71/1/1 66/1/1 65/1/1
f 72/1/1 66/1/1 71/1/1
f 73/2/1 69/2/1 68/2/1
f 74/2/1 69/2/1 73/2/1
f 75/2/1 71/2/1 70/2/1
f 76/2/1 71/2/1 75/2/1
f 80/2/1 78/2/1 77/2/1
f 81/2/1 78/2/1 80/2/1
f 82/1/1 80/1/1 79/1/1
f 83/1/1 80/1/1 82/1/1
f 85/2/1 84/2/1 83/2/1
f 86/2/1 84/2/1 85/2/1
f 90/2/1 88/2/1 87/2/1
f 91/2/1 88/2/1 90/2/1
f 92/1/1 90/1/1 89/1/1
f 93/1/1 90/1/1 92/1/1
f 95/2/1 94/2/1 93/2/1
f 96/2/1 94/2/1 95/2/1
f 100/2/1 98/2/1 97/2/1
f 101/2/1 98/2/1 100/2/1
f 102/1/1 100/1/1 99/1/1
f 103/1/1 100/1/1 102/1/1
f 105/2/1 104/2/1 103/2/1
f 106/2/1 104/2/1 105/2/1
f 107/2/2 108/2/2 109/2/2
f 109/2/2 108/2/2 110/2/2
f 110/1/2 111/1/2 113/1/2
f 113/1/2 111/1/2 114/1/2
f 112/2/2 113/2/2 115/2/2
f 115/2/2 113/2/2 116/2/2
f 117/2/2 118/2/2 122/2/2
f 122/2/2 118/2/2 123/2/2
f 119/2/2 120/2/2 124/2/2
f 124/2/2 120/2/2 125/2/2
f 121/1/2 122/1/2 127/1/2
f 127/1/2 122/1/2 128/1/2
f 125/1/2 126/1/2 131/1/2
f 131/1/2 126/1/2 132/1/2
f 128/2/2 129/2/2 133/2/2
f 133/2/2 129/2/2 134/2/2
f 130/2/2 131/2/2 135/2/2
f 135/2/2 131/2/2 136/2/2
f 137/2/2 138/2/2 142/2/2
f 142/2/2 138/2/2 143/2/2
f 139/2/2 140/2/2 144/2/2
f 144/2/2 140/2/2 145/2/2
f 141/1/2 142/1/2 147/1/2
f 147/1/2 142/1/2 148/1/2
f 145/1/2 146/1/2 151/1/2
f 151/1/2 146/1/2 152/1/2
f 148/2/2 149/2/2 153/2/2
f 153/2/2 149/2/2 154/2/2
f 150/2/2 151/2/2 155/2/2
f 155/2/2 151/2/2 156/2/2
f 157/2/2 158/2/2 160/2/2
f 160/2/2 158/2/2 161/2/2
f 159/1/2 160/1/2 162/1/2
f 162/1/2 160/1/2 163/1/2
f 163/2/2 164/2/2 165/2/2
f 165/2/2 164/2/2 166/2/2
f 167/2/2 168/2/2 172/2/2
f 172/2/2 168/2/2 173/2/2
f 169/2/2 170/2/2 174/2/2
f 174/2/2 170/2/2 175/2/2
f 171/1/2 172/1/2 177/1/2
f 177/1/2 172/1/2 178/1/2
f 175/1/2 176/1/2 181/1/2
f 181/1/2 176/1/2 182/1/2
f 178/2/2 179/2/2 183/2/2
f 183/2/2 179/2/2 184/2/2
f 180/2/2 181/2/2 185/2/2
f 185/2/2 181/2/2 186/2/2
f 187/2/2 188/2/2 192/2/2
f 192/2/2 188/2/2 193/2/2
f 189/2/2 190/2/2 194/2/2
f 194/2/2 190/2/2 195/2/2
f 191/1/2 192/1/2 197/1/2
f 197/1/2 192/1/2 198/1/2
f 195/1/2 196/1/2 201/1/2
f 201/1/2 196/1/2 202/1/2
f 198/2/2 199/2/2 203/2/2
f 203/2/2 199/2/2 204/2/2
f 200/2/2 201/2/2 205/2/2
f 205/2/2 201/2/2 206/2/2
f 207/2/2 208/2/2 212/2/2
f 212/2/2 208/2/2 213/2/2
f 209/2/2 210/2/2 214/2/2
f 214/2/2 210/2/2 215/2/2
f 211/1/2 212/1/2 217/1/2
f 217/1/2 212/1/2 218/1/2
f 215/1/2 216/1/2 221/1/2
f 221/1/2 216/1/2 222/1/2
f 218/2/2 219/2/2 223/2/2
f 223/2/2 219/2/2 224/2/2
f 220/2/2 221/2/2 225/2/2
f 225/2/2 221/2/2 226/2/2
f 227/2/2 228/2/2 230/2/2
f 230/2/2 228/2/2 231/2/2
f 229/1/2 230/1/2 233/1/2
f 233/1/2 230/1/2 234/1/2
f 231/1/2 232/1/2 235/1/2
f 235/1/2 232/1/2 236/1/2
f 234/2/2 235/2/2 237/2/2
f 237/2/2 235/2/2 238/2/2
f 239/1/2 240/1/2 241/1/2
f 241/1/2 240/1/2 242/1/2
f 245/1/3 244/1/3 243/1/3
f 246/1/3 244/1/3 245/1/3
f 250/1/3 248/1/3 247/1/3
f 251/1/3 248/1/3 250/1/3
f 253/2/3 250/2/3 249/2/3
f 254/2/3 250/2/3 253/2/3
f 255/2/3 252/2/3 251/2/3
f 256/2/3 252/2/3 255/2/3
f 257/1/3 255/1/3 254/1/3
f 258/1/3 255/1/3 257/1/3
f 262/1/3 260/1/3 259/1/3
f 263/1/3 260/1/3 262/1/3
f 265/2/3 262/2/3 261/2/3
f 266/2/3 262/2/3 265/2/3
f 267/2/3 264/2/3 263/2/3
f 268/2/3 264/2/3 267/2/3
f 273/2/3 270/2/3 269/2/3
f 274/2/3 270/2/3 273/2/3
f 275/2/3 272/2/3 271/2/3
f 276/2/3 272/2/3 275/2/3
f 277/1/3 275/1/3 274/1/3
f 278/1/3 275/1/3 277/1/3
f 282/1/3 280/1/3 279/1/3
f 283/1/3 280/1/3 282/1/3
f 285/2/3 282/2/3 281/2/3
f 286/2/3 282/2/3 285/2/3
f 287/2/3 284/2/3 283/2/3
f 288/2/3 284/2/3 287/2/3
f 293/2/3 290/2/3 289/2/3
f 294/2/3 290/2/3 293/2/3
f 295/2/3 292/2/3 291/2/3
f 296/2/3 292/2/3 295/2/3
f 297/1/3 295/1/3 294/1/3
f 298/1/3 295/1/3 297/1/3
f 302/1/3 300/1/3 299/1/3
f 303/1/3 300/1/3 302/1/3
f 305/2/3 302/2/3 301/2/3
f 306/2/3 302/2/3 305/2/3
f 307/2/3 304/2/3 303/2/3
f 308/2/3 304/2/3 307/2/3
f 313/2/3 310/2/3 309/2/3
f 314/2/3 310/2/3 313/2/3
f 315/2/3 312/2/3 311/2/3
f 316/2/3 312/2/3 315/2/3
f 317/1/3 315/1/3 314/1/3
f 318/1/3 315/1/3 317/1/3
f 322/1/3 320/1/3 319/1/3
f 323/1/3 320/1/3 322/1/3
f 325/2/3 322/2/3 321/2/3
f 326/2/3 322/2/3 325/2/3
f 327/2/3 324/2/3 323/2/3
f 328/2/3 324/2/3 327/2/3
f 333/2/3 330/2/3 329/2/3
f 334/2/3 330/2/3 333/2/3
f 335/2/3 332/2/3 331/2/3
f 336/2/3 332/2/3 335/2/3
f 337/1/3 335/1/3 334/1/3
f 338/1/3 335/1/3 337/1/3
f 342/1/3 340/1/3 339/1/3
f 343/1/3 340/1/3 342/1/3
f 345/2/3 342/2/3 341/2/3
f 346/2/3 342/2/3 345/2/3
f 347/2/3 344/2/3 343/2/3
f 348/2/3 344/2/3 347/2/3
f 353/2/3 350/2/3 349/2/3
f 354/2/3 350/2/3 353/2/3
f 355/2/3 352/2/3 351/2/3
f 356/2/3 352/2/3 355/2/3
f 357/1/3 355/1/3 354/1/3
f 358/1/3 355/1/3 357/1/3
f 362/1/3 360/1/3 359/1/3
f 363/1/3 360/1/3 362/1/3
f 365/2/3 362/2/3 361/2/3
f 366/2/3 362/2/3 365/2/3
f 367/2/3 364/2/3 363/2/3
f 368/2/3 364/2/3 367/2/3
f 373/2/3 370/2/3 369/2/3
f 374/2/3 370/2/3 373/2/3
f 375/2/3 372/2/3 371/2/3
f 376/2/3 372/2/3 375/2/3
f 377/1/3 375/1/3 374/1/3
f 378/1/3 375/1/3 377/1/3
f 379/2/4 380/2/4 383/2/4
f 383/2/4 380/2/4 384/2/4
f 381/2/4 382/2/4 385/2/4
f 385/2/4 382/2/4 386/2/4
f 384/1/4 385/1/4 387/1/4
f 387/1/4 385/1/4 388/1/4
f 389/1/4 390/1/4 392/1/4
f 392/1/4 390/1/4 393/1/4
f 391/2/4 392/2/4 395/2/4
f 395/2/4 392/2/4 396/2/4
f 393/2/4 394/2/4 397/2/4
f 397/2/4 394/2/4 398/2/4
f 399/2/4 400/2/4 403/2/4
f 403/2/4 400/2/4 404/2/4
f 401/2/4 402/2/4 405/2/4
f 405/2/4 402/2/4 406/2/4
f 404/1/4 405/1/4 407/1/4
f 407/1/4 405/1/4 408/1/4
f 409/2/4 410/2/4 413/2/4
f 413/2/4 410/2/4 414/2/4
f 411/2/4 412/2/4 415/2/4
f 415/2/4 412/2/4 416/2/4
f 414/1/4 415/1/4 417/1/4
f 417/1/4 415/1/4 418/1/4
f 419/2/4 420/2/4 423/2/4
f 423/2/4 420/2/4 424/2/4
f 421/2/4 422/2/4 425/2/4
f 425/2/4 422/2/4 426/2/4
f 424/1/4 425/1/4 427/1/4
f 427/1/4 425/1/4 428/1/4
f 429/1/4 430/1/4 432/1/4
f 432/1/4 430/1/4 433/1/4
f 431/2/4 432/2/4 435/2/4
f 435/2/4 432/2/4 436/2/4
f 433/2/4 434/2/4 437/2/4
f 437/2/4 434/2/4 438/2/4
f 439/2/4 440/2/4 443/2/4
f 443/2/4 440/2/4 444/2/4
f 441/2/4 442/2/4 445/2/4
f 445/2/4 442/2/4 446/2/4
f 444/1/4 445/1/4 447/1/4
f 447/1/4 445/1/4 448/1/4
f 449/1/4 450/1/4 452/1/4
f 452/1/4 450/1/4 453/1/4
f 451/2/4 452/2/4 455/2/4
f 455/2/4 452/2/4 456/2/4
f 453/2/4 454/2/4 457/2/4
f 457/2/4 454/2/4 458/2/4
f 459/2/4 460/2/4 463/2/4
f 463/2/4 460/2/4 464/2/4
f 461/2/4 462/2/4 465/2/4
f 465/2/4 462/2/4 466/2/4
f 464/1/4 465/1/4 467/1/4
f 467/1/4 465/1/4 468/1/4
f 469/1/4 470/1/4 472/1/4
f 472/1/4 470/1/4 473/1/4
f 471/2/4 472/2/4 475/2/4
f 475/2/4 472/2/4 476/2/4
f 473/2/4 474/2/4 477/2/4
f 477/2/4 474/2/4 478/2/4
f 476/1/4 477/1/4 479/1/4
f 479/1/4 477/1/4 480/1/4
f 481/1/4 482/1/4 483/1/4
f 483/1/4 482/1/4 484/1/4
f 488/2/5 486/2/5 485/2/5
f 489/2/5 486/2/5 488/2/5
f 492/2/5 488/2/5 487/2/5
f 493/3/5 489/3/5 488/3/5
f 493/2/5 488/2/5 492/2/5
f 494/2/5 490/2/5 489/2/5
f 494/3/5 489/3/5 493/3/5
f 495/2/5 490/2/5 494/2/5
f 498/2/5 492/2/5 491/2/5
f 499/3/5 493/3/5 492/3/5
f 499/3/5 494/3/5 493/3/5
f 499/2/5 492/2/5 498/2/5
f 499/3/5 495/3/5 494/3/5
f 500/2/5 496/2/5 495/2/5
f 500/3/5 495/3/5 499/3/5
f 501/2/5 496/2/5 500/2/5
f 504/2/5 498/2/5 497/2/5
f 505/3/5 499/3/5 498/3/5
f 505/3/5 500/3/5 499/3/5
f 505/2/5 498/2/5 504/2/5
f 505/3/5 501/3/5 500/3/5
f 506/2/5 502/2/5 501/2/5
f 506/3/5 501/3/5 505/3/5
f 507/2/5 502/2/5 506/2/5
f 510/2/5 504/2/5 503/2/5
f 511/3/5 505/3/5 504/3/5
f 511/3/5 506/3/5 505/3/5
f 511/2/5 504/2/5 510/2/5
f 511/3/5 507/3/5 506/3/5
f 512/2/5 508/2/5 507/2/5
f 512/3/5 507/3/5 511/3/5
f 513/2/5 508/2/5 512/2/5
f 516/2/5 510/2/5 509/2/5
f 517/3/5 511/3/5 510/3/5
f 517/3/5 512/3/5 511/3/5
f 517/2/5 510/2/5 516/2/5
f 517/3/5 513/3/5 512/3/5
f 518/2/5 514/2/5 513/2/5
f 518/3/5 513/3/5 517/3/5
f 519/2/5 514/2/5 518/2/5
f 521/3/5 517/3/5 516/3/5
f 521/3/5 518/3/5 517/3/5
f 521/3/5 519/3/5 518/3/5
f 522/3/5 519/3/5 521/3/5
f 523/3/5 521/3/5 516/3/5
f 524/3/5 521/3/5 523/3/5
f 525/3/5 521/3/5 524/3/5
f 526/2/5 522/2/5 521/2/5
f 526/3/5 521/3/5 525/3/5
f 527/3/5 519/3/5 522/3/5
f 527/2/5 522/2/5 526/2/5
f 528/3/5 519/3/5 527/3/5
f 529/3/5 523/3/5 516/3/5
f 529/2/5 524/2/5 523/2/5
f 530/2/5 524/2/5 529/2/5
f 531/3/5 525/3/5 524/3/5
f 531/2/5 524/2/5 530/2/5
f 532/3/5 525/3/5 531/3/5
f 533/3/5 519/3/5 528/3/5
f 533/2/5 528/2/5 527/2/5
f 534/3/5 519/3/5 533/3/5
f 535/3/5 530/3/5 529/3/5
f 535/2/5 532/2/5 531/2/5
f 535/2/5 531/2/5 530/2/5
f 536/2/5 532/2/5 535/2/5
f 537/3/5 525/3/5 532/3/5
f 537/2/5 532/2/5 536/2/5
f 538/3/5 525/3/5 537/3/5
f 539/3/5 525/3/5 538/3/5
f 540/2/5 526/2/5 525/2/5
f 540/3/5 525/3/5 539/3/5
f 541/3/5 527/3/5 526/3/5
f 541/2/5 526/2/5 540/2/5
f 542/3/5 527/3/5 541/3/5
f 543/2/5 534/2/5 533/2/5
f 543/3/5 527/3/5 542/3/5
f 543/2/5 533/2/5 527/2/5
f 544/2/5 534/2/5 543/2/5
f 545/3/5 536/3/5 535/3/5
f 545/2/5 537/2/5 536/2/5
f 545/2/5 538/2/5 537/2/5
f 546/2/5 538/2/5 545/2/5
f 547/3/5 539/3/5 538/3/5
f 547/2/5 538/2/5 546/2/5
f 548/2/5 542/2/5 541/2/5
f 548/3/5 539/3/5 547/3/5
f 548/2/5 540/2/5 539/2/5
f 548/2/5 541/2/5 540/2/5
f 549/2/5 542/2/5 548/2/5
f 550/2/5 542/2/5 549/2/5
f 551/2/5 534/2/5 544/2/5
f 551/3/5 543/3/5 542/3/5
f 551/3/5 544/3/5 543/3/5
f 552/3/5 519/3/5 534/3/5
f 552/2/5 534/2/5 551/2/5
f 553/3/5 519/3/5 552/3/5
f 554/2/5 520/2/5 519/2/5
f 554/3/5 519/3/5 553/3/5
f 555/2/5 520/2/5 554/2/5
f 556/2/5 516/2/5 515/2/5
f 557/3/5 546/3/5 545/3/5
f 557/2/5 516/2/5 556/2/5
f 557/3/5 545/3/5 535/3/5
f 557/3/5 529/3/5 516/3/5
f 557/3/5 535/3/5 529/3/5
f 558/3/5 546/3/5 557/3/5
f 559/2/5 547/2/5 546/2/5
f 559/3/5 546/3/5 558/3/5
f 559/2/5 548/2/5 547/2/5
f 559/2/5 549/2/5 548/2/5
f 560/2/5 549/2/5 559/2/5
f 561/2/5 549/2/5 560/2/5
f 562/3/5 550/3/5 549/3/5
f 562/2/5 549/2/5 561/2/5
f 563/2/5 542/2/5 550/2/5
f 563/3/5 550/3/5 562/3/5
f 564/2/5 542/2/5 563/2/5
f 565/3/5 553/3/5 552/3/5
f 565/2/5 542/2/5 564/2/5
f 565/3/5 551/3/5 542/3/5
f 565/3/5 552/3/5 551/3/5
f 566/3/5 553/3/5 565/3/5
f 567/2/5 558/2/5 557/2/5
f 567/3/5 560/3/5 559/3/5
f 567/3/5 559/3/5 558/3/5
f 568/2/5 561/2/5 560/2/5
f 568/3/5 560/3/5 567/3/5
f 569/3/5 553/3/5 566/3/5
f 569/2/5 566/2/5 565/2/5
f 569/2/5 565/2/5 564/2/5
f 570/3/5 553/3/5 569/3/5
f 571/3/5 553/3/5 570/3/5
f 572/2/5 554/2/5 553/2/5
f 572/3/5 553/3/5 571/3/5
f 573/2/5 554/2/5 572/2/5
f 574/2/5 568/2/5 567/2/5
f 574/2/5 567/2/5 557/2/5
f 575/2/5 568/2/5 574/2/5
f 576/2/5 568/2/5 575/2/5
f 577/2/5 561/2/5 568/2/5
f 577/2/5 568/2/5 576/2/5
f 578/3/5 564/3/5 563/3/5
f 578/2/5 561/2/5 577/2/5
f 578/3/5 563/3/5 562/3/5
f 578/3/5 562/3/5 561/3/5
f 579/3/5 564/3/5 578/3/5
f 580/2/5 569/2/5 564/2/5
f 580/3/5 564/3/5 579/3/5
f 580/2/5 570/2/5 569/2/5
f 581/2/5 570/2/5 580/2/5
f 582/3/5 571/3/5 570/3/5
f 582/2/5 570/2/5 581/2/5
f 583/2/5 572/2/5 571/2/5
f 583/3/5 571/3/5 582/3/5
f 584/2/5 572/2/5 583/2/5
f 585/2/5 576/2/5 575/2/5
f 586/3/5 577/3/5 576/3/5
f 586/2/5 576/2/5 585/2/5
f 587/2/5 579/2/5 578/2/5
f 587/3/5 577/3/5 586/3/5
f 587/2/5 578/2/5 577/2/5
f 588/2/5 579/2/5 587/2/5
f 589/2/5 582/2/5 581/2/5
f 589/2/5 583/2/5 582/2/5
f 590/2/5 583/2/5 589/2/5
f 591/2/5 574/2/5 557/2/5
f 592/3/5 575/3/5 574/3/5
f 592/2/5 574/2/5 591/2/5
f 593/3/5 575/3/5 592/3/5
f 594/3/5 581/3/5 580/3/5
f 594/2/5 579/2/5 588/2/5
f 594/3/5 580/3/5 579/3/5
f 595/3/5 581/3/5 594/3/5
f 596/3/5 581/3/5 595/3/5
f 597/2/5 589/2/5 581/2/5
f 597/3/5 581/3/5 596/3/5
f 598/2/5 589/2/5 597/2/5
f 599/2/5 593/2/5 592/2/5
f 600/3/5 575/3/5 593/3/5
f 600/2/5 593/2/5 599/2/5
f 601/2/5 585/2/5 575/2/5
f 601/3/5 575/3/5 600/3/5
f 602/3/5 586/3/5 585/3/5
f 602/2/5 585/2/5 601/2/5
f 602/3/5 588/3/5 587/3/5
f 602/3/5 587/3/5 586/3/5
f 603/2/5 595/2/5 594/2/5
f 603/3/5 588/3/5 602/3/5
f 603/2/5 594/2/5 588/2/5
f 604/3/5 596/3/5 595/3/5
f 604/2/5 595/2/5 603/2/5
f 605/2/5 597/2/5 596/2/5
f 605/3/5 596/3/5 604/3/5
f 606/2/5 597/2/5 605/2/5
f 607/2/5 601/2/5 600/2/5
f 607/2/5 605/2/5 604/2/5
f 607/2/5 603/2/5 602/2/5
f 607/2/5 604/2/5 603/2/5
f 607/2/5 602/2/5 601/2/5
f 608/2/5 605/2/5 607/2/5
f 612/1/5 610/1/5 609/1/5
f 613/1/5 610/1/5 612/1/5
f 616/1/5 612/1/5 611/1/5
f 617/1/5 612/1/5 616/1/5
f 618/1/5 614/1/5 613/1/5
f 619/1/5 614/1/5 618/1/5
f 622/1/5 616/1/5 615/1/5
f 623/1/5 616/1/5 622/1/5
f 624/1/5 620/1/5 619/1/5
f 625/1/5 620/1/5 624/1/5
f 628/1/5 622/1/5 621/1/5
f 629/1/5 622/1/5 628/1/5
f 630/1/5 626/1/5 625/1/5
f 631/1/5 626/1/5 630/1/5
f 634/1/5 628/1/5 627/1/5
f 635/1/5 628/1/5 634/1/5
f 636/1/5 632/1/5 631/1/5
f 637/1/5 632/1/5 636/1/5
f 640/1/5 634/1/5 633/1/5
f 641/1/5 634/1/5 640/1/5
f 642/1/5 638/1/5 637/1/5
f 643/1/5 638/1/5 642/1/5
f 646/1/5 640/1/5 639/1/5
f 647/1/5 640/1/5 646/1/5
f 648/1/5 644/1/5 643/1/5
f 649/1/5 644/1/5 648/1/5
f 652/1/5 650/1/5 649/1/5
f 653/1/5 650/1/5 652/1/5
f 654/1/5 646/1/5 645/1/5
f 655/1/5 646/1/5 654/1/5
f 658/1/5 652/1/5 651/1/5
f 659/1/5 652/1/5 658/1/5
f 661/1/5 658/1/5 657/1/5
f 662/1/5 658/1/5 661/1/5
f 664/1/5 661/1/5 660/1/5
f 665/1/5 661/1/5 664/1/5
f 666/1/5 656/1/5 655/1/5
f 667/1/5 656/1/5 666/1/5
f 670/1/5 664/1/5 663/1/5
f 671/1/5 664/1/5 670/1/5
f 672/1/5 668/1/5 667/1/5
f 673/1/5 668/1/5 672/1/5
f 676/1/5 670/1/5 669/1/5
f 677/1/5 670/1/5 676/1/5
f 678/1/5 674/1/5 673/1/5
f 679/1/5 674/1/5 678/1/5
f 680/1/5 676/1/5 675/1/5
f 681/1/5 676/1/5 680/1/5
f 682/1/5 680/1/5 679/1/5
f 683/1/5 680/1/5 682/1/5
f 684/1/6 685/1/6 687/1/6
f 687/1/6 685/1/6 688/1/6
f 686/1/6 687/1/6 691/1/6
f 691/1/6 687/1/6 692/1/6
f 688/1/6 689/1/6 693/1/6
f 693/1/6 689/1/6 694/1/6
f 690/1/6 691/1/6 697/1/6
f 697/1/6 691/1/6 698/1/6
f 694/1/6 695/1/6 699/1/6
f 699/1/6 695/1/6 700/1/6
f 696/1/6 697/1/6 703/1/6
f 703/1/6 697/1/6 704/1/6
f 700/1/6 701/1/6 705/1/6
f 705/1/6 701/1/6 706/1/6
f 702/1/6 703/1/6 709/1/6
f 709/1/6 703/1/6 710/1/6
f 706/1/6 707/1/6 711/1/6
f 711/1/6 707/1/6 712/1/6
f 708/1/6 709/1/6 715/1/6
f 715/1/6 709/1/6 716/1/6
f 712/1/6 713/1/6 717/1/6
f 717/1/6 713/1/6 718/1/6
f 714/1/6 715/1/6 721/1/6
f 721/1/6 715/1/6 722/1/6
f 718/1/6 719/1/6 723/1/6
f 723/1/6 719/1/6 724/1/6
f 724/1/6 725/1/6 727/1/6
f 727/1/6 725/1/6 728/1/6
f 720/1/6 721/1/6 729/1/6
f 729/1/6 721/1/6 730/1/6
f 726/1/6 727/1/6 733/1/6
f 733/1/6 727/1/6 734/1/6
f 732/1/6 733/1/6 736/1/6
f 736/1/6 733/1/6 737/1/6
f 735/1/6 736/1/6 739/1/6
f 739/1/6 736/1/6 740/1/6
f 730/1/6 731/1/6 741/1/6
f 741/1/6 731/1/6 742/1/6
f 738/1/6 739/1/6 745/1/6
f 745/1/6 739/1/6 746/1/6
f 742/1/6 743/1/6 747/1/6
f 747/1/6 743/1/6 748/1/6
f 744/1/6 745/1/6 751/1/6
f 751/1/6 745/1/6 752/1/6
f 748/1/6 749/1/6 753/1/6
f 753/1/6 749/1/6 754/1/6
f 750/1/6 751/1/6 755/1/6
f 755/1/6 751/1/6 756/1/6
f 754/1/6 755/1/6 757/1/6
f 757/1/6 755/1/6 758/1/6
f 759/2/6 760/2/6 762/2/6
f 762/2/6 760/2/6 763/2/6
f 761/2/6 762/2/6 766/2/6
f 762/3/6 763/3/6 767/3/6
f 766/2/6 762/2/6 767/2/6
f 763/2/6 764/2/6 768/2/6
f 767/3/6 763/3/6 768/3/6
f 768/2/6 764/2/6 769/2/6
f 765/2/6 766/2/6 772/2/6
f 766/3/6 767/3/6 773/3/6
f 767/3/6 768/3/6 773/3/6
f 772/2/6 766/2/6 773/2/6
f 768/3/6 769/3/6 773/3/6
f 769/2/6 770/2/6 774/2/6
f 773/3/6 769/3/6 774/3/6
f 774/2/6 770/2/6 775/2/6
f 771/2/6 772/2/6 778/2/6
f 772/3/6 773/3/6 779/3/6
f 773/3/6 774/3/6 779/3/6
f 778/2/6 772/2/6 779/2/6
f 774/3/6 775/3/6 779/3/6
f 775/2/6 776/2/6 780/2/6
f 779/3/6 775/3/6 780/3/6
f 780/2/6 776/2/6 781/2/6
f 777/2/6 778/2/6 784/2/6
f 778/3/6 779/3/6 785/3/6
f 779/3/6 780/3/6 785/3/6
f 784/2/6 778/2/6 785/2/6
f 780/3/6 781/3/6 785/3/6
f 781/2/6 782/2/6 786/2/6
f 785/3/6 781/3/6 786/3/6
f 786/2/6 782/2/6 787/2/6
f 783/2/6 784/2/6 790/2/6
f 784/3/6 785/3/6 791/3/6
f 785/3/6 786/3/6 791/3/6
f 790/2/6 784/2/6 791/2/6
f 786/3/6 787/3/6 791/3/6
f 787/2/6 788/2/6 792/2/6
f 791/3/6 787/3/6 792/3/6
f 792/2/6 788/2/6 793/2/6
f 790/3/6 791/3/6 795/3/6
f 791/3/6 792/3/6 795/3/6
f 792/3/6 793/3/6 795/3/6
f 795/3/6 793/3/6 796/3/6
f 790/3/6 795/3/6 797/3/6
f 797/3/6 795/3/6 798/3/6
f 798/3/6 795/3/6 799/3/6
f 795/2/6 796/2/6 800/2/6
f 799/3/6 795/3/6 800/3/6
f 796/3/6 793/3/6 801/3/6
f 800/2/6 796/2/6 801/2/6
f 801/3/6 793/3/6 802/3/6
f 790/3/6 797/3/6 803/3/6
f 797/2/6 798/2/6 803/2/6
f 803/2/6 798/2/6 804/2/6
f 798/3/6 799/3/6 805/3/6
f 804/2/6 798/2/6 805/2/6
f 805/3/6 799/3/6 806/3/6
f 802/3/6 793/3/6 807/3/6
f 801/2/6 802/2/6 807/2/6
f 807/3/6 793/3/6 808/3/6
f 803/3/6 804/3/6 809/3/6
f 805/2/6 806/2/6 809/2/6
f 804/2/6 805/2/6 809/2/6
f 809/2/6 806/2/6 810/2/6
f 806/3/6 799/3/6 811/3/6
f 810/2/6 806/2/6 811/2/6
f 811/3/6 799/3/6 812/3/6
f 812/3/6 799/3/6 813/3/6
f 799/2/6 800/2/6 814/2/6
f 813/3/6 799/3/6 814/3/6
f 800/3/6 801/3/6 815/3/6
f 814/2/6 800/2/6 815/2/6
f 815/3/6 801/3/6 816/3/6
f 807/2/6 808/2/6 817/2/6
f 816/3/6 801/3/6 817/3/6
f 801/2/6 807/2/6 817/2/6
f 817/2/6 808/2/6 818/2/6
f 809/3/6 810/3/6 819/3/6
f 810/2/6 811/2/6 819/2/6
f 811/2/6 812/2/6 819/2/6
f 819/2/6 812/2/6 820/2/6
f 812/3/6 813/3/6 821/3/6
f 820/2/6 812/2/6 821/2/6
f 815/2/6 816/2/6 822/2/6
f 821/3/6 813/3/6 822/3/6
f 813/2/6 814/2/6 822/2/6
f 814/2/6 815/2/6 822/2/6
f 822/2/6 816/2/6 823/2/6
f 823/2/6 816/2/6 824/2/6
f 818/2/6 808/2/6 825/2/6
f 816/3/6 817/3/6 825/3/6
f 817/3/6 818/3/6 825/3/6
f 808/3/6 793/3/6 826/3/6
f 825/2/6 808/2/6 826/2/6
f 826/3/6 793/3/6 827/3/6
f 793/2/6 794/2/6 828/2/6
f 827/3/6 793/3/6 828/3/6
f 828/2/6 794/2/6 829/2/6
f 789/2/6 790/2/6 830/2/6
f 819/3/6 820/3/6 831/3/6
f 830/2/6 790/2/6 831/2/6
f 809/3/6 819/3/6 831/3/6
f 790/3/6 803/3/6 831/3/6
f 803/3/6 809/3/6 831/3/6
f 831/3/6 820/3/6 832/3/6
f 820/2/6 821/2/6 833/2/6
f 832/3/6 820/3/6 833/3/6
f 821/2/6 822/2/6 833/2/6
f 822/2/6 823/2/6 833/2/6
f 833/2/6 823/2/6 834/2/6
f 834/2/6 823/2/6 835/2/6
f 823/3/6 824/3/6 836/3/6
f 835/2/6 823/2/6 836/2/6
f 824/2/6 816/2/6 837/2/6
f 836/3/6 824/3/6 837/3/6
f 837/2/6 816/2/6 838/2/6
f 826/3/6 827/3/6 839/3/6
f 838/2/6 816/2/6 839/2/6
f 816/3/6 825/3/6 839/3/6
f 825/3/6 826/3/6 839/3/6
f 839/3/6 827/3/6 840/3/6
f 831/2/6 832/2/6 841/2/6
f 833/3/6 834/3/6 841/3/6
f 832/3/6 833/3/6 841/3/6
f 834/2/6 835/2/6 842/2/6
f 841/3/6 834/3/6 842/3/6
f 840/3/6 827/3/6 843/3/6
f 839/2/6 840/2/6 843/2/6
f 838/2/6 839/2/6 843/2/6
f 843/3/6 827/3/6 844/3/6
f 844/3/6 827/3/6 845/3/6
f 827/2/6 828/2/6 846/2/6
f 845/3/6 827/3/6 846/3/6
f 846/2/6 828/2/6 847/2/6
f 841/2/6 842/2/6 848/2/6
f 831/2/6 841/2/6 848/2/6
f 848/2/6 842/2/6 849/2/6
f 849/2/6 842/2/6 850/2/6
f 842/2/6 835/2/6 851/2/6
f 850/2/6 842/2/6 851/2/6
f 837/3/6 838/3/6 852/3/6
f 851/2/6 835/2/6 852/2/6
f 836/3/6 837/3/6 852/3/6
f 835/3/6 836/3/6 852/3/6
f 852/3/6 838/3/6 853/3/6
f 838/2/6 843/2/6 854/2/6
f 853/3/6 838/3/6 854/3/6
f 843/2/6 844/2/6 854/2/6
f 854/2/6 844/2/6 855/2/6
f 844/3/6 845/3/6 856/3/6
f 855/2/6 844/2/6 856/2/6
f 845/2/6 846/2/6 857/2/6
f 856/3/6 845/3/6 857/3/6
f 857/2/6 846/2/6 858/2/6
f 849/2/6 850/2/6 859/2/6
f 850/3/6 851/3/6 860/3/6
f 859/2/6 850/2/6 860/2/6
f 852/2/6 853/2/6 861/2/6
f 860/3/6 851/3/6 861/3/6
f 851/2/6 852/2/6 861/2/6
f 861/2/6 853/2/6 862/2/6
f 855/2/6 856/2/6 863/2/6
f 856/2/6 857/2/6 863/2/6
f 863/2/6 857/2/6 864/2/6
f 831/2/6 848/2/6 865/2/6
f 848/3/6 849/3/6 866/3/6
f 865/2/6 848/2/6 866/2/6
f 866/3/6 849/3/6 867/3/6
f 854/3/6 855/3/6 868/3/6
f 862/2/6 853/2/6 868/2/6
f 853/3/6 854/3/6 868/3/6
f 868/3/6 855/3/6 869/3/6
f 869/3/6 855/3/6 870/3/6
f 855/2/6 863/2/6 871/2/6
f 870/3/6 855/3/6 871/3/6
f 871/2/6 863/2/6 872/2/6
f 866/2/6 867/2/6 873/2/6
f 867/3/6 849/3/6 874/3/6
f 873/2/6 867/2/6 874/2/6
f 849/2/6 859/2/6 875/2/6
f 874/3/6 849/3/6 875/3/6
f 859/3/6 860/3/6 876/3/6
f 875/2/6 859/2/6 876/2/6
f 861/3/6 862/3/6 876/3/6
f 860/3/6 861/3/6 876/3/6
f 868/2/6 869/2/6 877/2/6
f 876/3/6 862/3/6 877/3/6
f 862/2/6 868/2/6 877/2/6
f 869/3/6 870/3/6 878/3/6
f 877/2/6 869/2/6 878/2/6
f 870/2/6 871/2/6 879/2/6
f 878/3/6 870/3/6 879/3/6
f 879/2/6 871/2/6 880/2/6
f 874/2/6 875/2/6 881/2/6
f 878/2/6 879/2/6 881/2/6
f 876/2/6 877/2/6 881/2/6
f 877/2/6 878/2/6 881/2/6
f 875/2/6 876/2/6 881/2/6
f 881/2/6 879/2/6 882/2/6
