# Blender 4.4.1
# www.blender.org
mtllib OreBase.mtl
o Untitled
v -0.759208 0.000000 0.766185
v -0.759208 0.000000 0.616185
v -0.759208 -0.000000 -0.583815
v -0.759208 -0.000000 -0.733815
v -0.759208 0.150000 0.766185
v -0.759208 0.150000 0.616185
v -0.759208 0.150000 -0.583815
v -0.759208 0.150000 -0.733815
v -0.609208 0.150000 0.766185
v -0.609208 0.150000 0.616185
v -0.609208 0.150000 -0.583815
v -0.609208 0.150000 -0.733815
v -0.609208 0.450000 0.766185
v -0.609208 0.450000 0.616185
v -0.609208 0.450000 -0.583815
v -0.609208 0.450000 -0.733815
v -0.459208 0.450000 0.766185
v -0.459208 0.450000 0.616185
v -0.459208 0.450000 -0.583815
v -0.459208 0.450000 -0.733815
v -0.459208 0.750000 0.766185
v -0.459208 0.750000 0.616185
v -0.459208 0.750000 -0.583815
v -0.459208 0.750000 -0.733815
v -0.309209 0.750000 0.766185
v -0.309209 0.750000 0.616185
v -0.309209 0.750000 -0.583815
v -0.309209 0.750000 -0.733815
v -0.309209 1.200000 0.766185
v -0.309209 1.200000 0.616185
v -0.309209 1.200000 -0.583815
v -0.309209 1.200000 -0.733815
v -0.159208 1.200000 0.766185
v -0.159208 1.200000 0.616185
v -0.159208 1.200000 -0.583815
v -0.159208 1.200000 -0.733815
v -0.159208 1.350000 0.616185
v -0.159208 1.350000 -0.583815
v -0.159208 1.500000 0.616185
v -0.159208 1.500000 -0.583815
v -0.159208 1.650000 0.766185
v -0.159208 1.650000 0.616185
v -0.159208 1.650000 -0.583815
v -0.159208 1.650000 -0.733815
v 0.140792 0.600000 0.766185
v 0.140792 0.600000 0.616185
v 0.140792 0.600000 -0.583815
v 0.140792 0.600000 -0.733815
v 0.140792 0.750000 0.616185
v 0.140792 0.750000 -0.583815
v 0.140792 1.050000 0.616185
v 0.140792 1.050000 0.466185
v 0.140792 1.050000 -0.433815
v 0.140792 1.050000 -0.583815
v 0.140792 1.200000 0.766185
v 0.140792 1.200000 0.616185
v 0.140792 1.200000 0.466185
v 0.140792 1.200000 -0.433815
v 0.140792 1.200000 -0.583815
v 0.140792 1.200000 -0.733815
v 0.290791 0.300000 0.766185
v 0.290791 0.300000 0.616185
v 0.290791 0.300000 -0.583815
v 0.290791 0.300000 -0.733815
v 0.290791 0.450000 0.616185
v 0.290791 0.450000 -0.583815
v 0.290791 0.600000 0.766185
v 0.290791 0.600000 0.616185
v 0.290791 0.600000 -0.583815
v 0.290791 0.600000 -0.733815
v 0.290791 0.750000 0.616185
v 0.290791 0.750000 -0.583815
v 0.440791 0.000000 0.766185
v 0.440791 0.000000 0.616185
v 0.440791 -0.000000 -0.583815
v 0.440791 -0.000000 -0.733815
v 0.440791 0.150000 0.616185
v 0.440791 0.150000 -0.583815
v 0.440791 0.300000 0.766185
v 0.440791 0.300000 0.616185
v 0.440791 0.300000 -0.583815
v 0.440791 0.300000 -0.733815
v 0.440791 0.450000 0.616185
v 0.440791 0.450000 -0.583815
v 0.590791 0.000000 0.616185
v 0.590791 -0.000000 -0.583815
v 0.590791 0.150000 0.616185
v 0.590791 0.150000 -0.583815
v -0.609208 0.000000 0.616185
v -0.609208 -0.000000 -0.583815
v -0.609208 0.150000 0.616185
v -0.609208 0.150000 -0.583815
v -0.459208 0.000000 0.766185
v -0.459208 0.000000 0.616185
v -0.459208 -0.000000 -0.583815
v -0.459208 -0.000000 -0.733815
v -0.459208 0.150000 0.616185
v -0.459208 0.150000 -0.583815
v -0.459208 0.300000 0.766185
v -0.459208 0.300000 0.616185
v -0.459208 0.300000 -0.583815
v -0.459208 0.300000 -0.733815
v -0.459208 0.450000 0.616185
v -0.459208 0.450000 -0.583815
v -0.309209 0.300000 0.766185
v -0.309209 0.300000 0.616185
v -0.309209 0.300000 -0.583815
v -0.309209 0.300000 -0.733815
v -0.309209 0.450000 0.616185
v -0.309209 0.450000 -0.583815
v -0.309209 0.600000 0.766185
v -0.309209 0.600000 0.616185
v -0.309209 0.600000 -0.583815
v -0.309209 0.600000 -0.733815
v -0.309209 0.750000 0.616185
v -0.309209 0.750000 -0.583815
v -0.159208 0.600000 0.766185
v -0.159208 0.600000 0.616185
v -0.159208 0.600000 -0.583815
v -0.159208 0.600000 -0.733815
v -0.159208 0.750000 0.616185
v -0.159208 0.750000 -0.583815
v -0.159208 1.050000 0.616185
v -0.159208 1.050000 0.466185
v -0.159208 1.050000 -0.433815
v -0.159208 1.050000 -0.583815
v -0.159208 1.200000 0.766185
v -0.159208 1.200000 0.616185
v -0.159208 1.200000 0.466185
v -0.159208 1.200000 -0.433815
v -0.159208 1.200000 -0.583815
v -0.159208 1.200000 -0.733815
v 0.140792 1.200000 0.766185
v 0.140792 1.200000 0.616185
v 0.140792 1.200000 -0.583815
v 0.140792 1.200000 -0.733815
v 0.140792 1.350000 0.616185
v 0.140792 1.350000 -0.583815
v 0.140792 1.500000 0.616185
v 0.140792 1.500000 -0.583815
v 0.140792 1.650000 0.766185
v 0.140792 1.650000 0.616185
v 0.140792 1.650000 -0.583815
v 0.140792 1.650000 -0.733815
v 0.290791 0.750000 0.766185
v 0.290791 0.750000 0.616185
v 0.290791 0.750000 -0.583815
v 0.290791 0.750000 -0.733815
v 0.290791 1.200000 0.766185
v 0.290791 1.200000 0.616185
v 0.290791 1.200000 -0.583815
v 0.290791 1.200000 -0.733815
v 0.440791 0.450000 0.766185
v 0.440791 0.450000 0.616185
v 0.440791 0.450000 -0.583815
v 0.440791 0.450000 -0.733815
v 0.440791 0.750000 0.766185
v 0.440791 0.750000 0.616185
v 0.440791 0.750000 -0.583815
v 0.440791 0.750000 -0.733815
v 0.590791 0.150000 0.766185
v 0.590791 0.150000 0.616185
v 0.590791 0.150000 -0.583815
v 0.590791 0.150000 -0.733815
v 0.590791 0.450000 0.766185
v 0.590791 0.450000 0.616185
v 0.590791 0.450000 -0.583815
v 0.590791 0.450000 -0.733815
v 0.740791 0.000000 0.766185
v 0.740791 0.000000 0.616185
v 0.740791 -0.000000 -0.583815
v 0.740791 -0.000000 -0.733815
v 0.740791 0.150000 0.766185
v 0.740791 0.150000 0.616185
v 0.740791 0.150000 -0.583815
v 0.740791 0.150000 -0.733815
v -0.759208 0.000000 0.766185
v -0.759208 0.150000 0.766185
v -0.609208 0.150000 0.766185
v -0.609208 0.450000 0.766185
v -0.459208 0.000000 0.766185
v -0.459208 0.300000 0.766185
v -0.459208 0.450000 0.766185
v -0.459208 0.750000 0.766185
v -0.309209 0.300000 0.766185
v -0.309209 0.600000 0.766185
v -0.309209 0.750000 0.766185
v -0.309209 1.200000 0.766185
v -0.159208 0.600000 0.766185
v -0.159208 1.200000 0.766185
v -0.159208 1.650000 0.766185
v 0.140792 0.600000 0.766185
v 0.140792 1.200000 0.766185
v 0.140792 1.650000 0.766185
v 0.290791 0.300000 0.766185
v 0.290791 0.600000 0.766185
v 0.290791 0.750000 0.766185
v 0.290791 1.200000 0.766185
v 0.440791 0.000000 0.766185
v 0.440791 0.300000 0.766185
v 0.440791 0.450000 0.766185
v 0.440791 0.750000 0.766185
v 0.590791 0.150000 0.766185
v 0.590791 0.450000 0.766185
v 0.740791 0.000000 0.766185
v 0.740791 0.150000 0.766185
v -0.159208 1.050000 0.616185
v -0.159208 1.200000 0.616185
v 0.140792 1.050000 0.616185
v 0.140792 1.200000 0.616185
v -0.159208 1.050000 -0.433815
v -0.159208 1.200000 -0.433815
v 0.140792 1.050000 -0.433815
v 0.140792 1.200000 -0.433815
v -0.609208 -0.000000 -0.583815
v -0.609208 0.150000 -0.583815
v -0.459208 -0.000000 -0.583815
v -0.459208 0.150000 -0.583815
v -0.459208 0.300000 -0.583815
v -0.459208 0.450000 -0.583815
v -0.309209 0.300000 -0.583815
v -0.309209 0.450000 -0.583815
v -0.309209 0.600000 -0.583815
v -0.309209 0.750000 -0.583815
v -0.159208 0.600000 -0.583815
v -0.159208 0.750000 -0.583815
v -0.159208 1.500000 -0.583815
v -0.159208 1.650000 -0.583815
v 0.140792 0.600000 -0.583815
v 0.140792 0.750000 -0.583815
v 0.140792 1.500000 -0.583815
v 0.140792 1.650000 -0.583815
v 0.290791 0.300000 -0.583815
v 0.290791 0.450000 -0.583815
v 0.290791 0.600000 -0.583815
v 0.290791 0.750000 -0.583815
v 0.440791 -0.000000 -0.583815
v 0.440791 0.150000 -0.583815
v 0.440791 0.300000 -0.583815
v 0.440791 0.450000 -0.583815
v 0.590791 -0.000000 -0.583815
v 0.590791 0.150000 -0.583815
v -0.609208 0.000000 0.616185
v -0.609208 0.150000 0.616185
v -0.459208 0.000000 0.616185
v -0.459208 0.150000 0.616185
v -0.459208 0.300000 0.616185
v -0.459208 0.450000 0.616185
v -0.309209 0.300000 0.616185
v -0.309209 0.450000 0.616185
v -0.309209 0.600000 0.616185
v -0.309209 0.750000 0.616185
v -0.159208 0.600000 0.616185
v -0.159208 0.750000 0.616185
v -0.159208 1.500000 0.616185
v -0.159208 1.650000 0.616185
v 0.140792 0.600000 0.616185
v 0.140792 0.750000 0.616185
v 0.140792 1.500000 0.616185
v 0.140792 1.650000 0.616185
v 0.290791 0.300000 0.616185
v 0.290791 0.450000 0.616185
v 0.290791 0.600000 0.616185
v 0.290791 0.750000 0.616185
v 0.440791 0.000000 0.616185
v 0.440791 0.150000 0.616185
v 0.440791 0.300000 0.616185
v 0.440791 0.450000 0.616185
v 0.590791 0.000000 0.616185
v 0.590791 0.150000 0.616185
v -0.159208 1.050000 0.466185
v -0.159208 1.200000 0.466185
v 0.140792 1.050000 0.466185
v 0.140792 1.200000 0.466185
v -0.159208 1.050000 -0.583815
v -0.159208 1.200000 -0.583815
v 0.140792 1.050000 -0.583815
v 0.140792 1.200000 -0.583815
v -0.759208 -0.000000 -0.733815
v -0.759208 0.150000 -0.733815
v -0.609208 0.150000 -0.733815
v -0.609208 0.450000 -0.733815
v -0.459208 -0.000000 -0.733815
v -0.459208 0.300000 -0.733815
v -0.459208 0.450000 -0.733815
v -0.459208 0.750000 -0.733815
v -0.309209 0.300000 -0.733815
v -0.309209 0.600000 -0.733815
v -0.309209 0.750000 -0.733815
v -0.309209 1.200000 -0.733815
v -0.159208 0.600000 -0.733815
v -0.159208 1.200000 -0.733815
v -0.159208 1.650000 -0.733815
v 0.140792 0.600000 -0.733815
v 0.140792 1.200000 -0.733815
v 0.140792 1.650000 -0.733815
v 0.290791 0.300000 -0.733815
v 0.290791 0.600000 -0.733815
v 0.290791 0.750000 -0.733815
v 0.290791 1.200000 -0.733815
v 0.440791 -0.000000 -0.733815
v 0.440791 0.300000 -0.733815
v 0.440791 0.450000 -0.733815
v 0.440791 0.750000 -0.733815
v 0.590791 0.150000 -0.733815
v 0.590791 0.450000 -0.733815
v 0.740791 -0.000000 -0.733815
v 0.740791 0.150000 -0.733815
v -0.759208 0.000000 0.766185
v -0.459208 0.000000 0.766185
v 0.440791 0.000000 0.766185
v 0.740791 0.000000 0.766185
v -0.759208 0.000000 0.616185
v -0.609208 0.000000 0.616185
v -0.459208 0.000000 0.616185
v 0.440791 0.000000 0.616185
v 0.590791 0.000000 0.616185
v 0.740791 0.000000 0.616185
v -0.759208 -0.000000 -0.583815
v -0.609208 -0.000000 -0.583815
v -0.459208 -0.000000 -0.583815
v 0.440791 -0.000000 -0.583815
v 0.590791 -0.000000 -0.583815
v 0.740791 -0.000000 -0.583815
v -0.759208 -0.000000 -0.733815
v -0.459208 -0.000000 -0.733815
v 0.440791 -0.000000 -0.733815
v 0.740791 -0.000000 -0.733815
v -0.609208 0.150000 0.616185
v -0.459208 0.150000 0.616185
v 0.440791 0.150000 0.616185
v 0.590791 0.150000 0.616185
v -0.609208 0.150000 -0.583815
v -0.459208 0.150000 -0.583815
v 0.440791 0.150000 -0.583815
v 0.590791 0.150000 -0.583815
v -0.459208 0.300000 0.766185
v -0.309209 0.300000 0.766185
v 0.290791 0.300000 0.766185
v 0.440791 0.300000 0.766185
v -0.459208 0.300000 0.616185
v -0.309209 0.300000 0.616185
v 0.290791 0.300000 0.616185
v 0.440791 0.300000 0.616185
v -0.459208 0.300000 -0.583815
v -0.309209 0.300000 -0.583815
v 0.290791 0.300000 -0.583815
v 0.440791 0.300000 -0.583815
v -0.459208 0.300000 -0.733815
v -0.309209 0.300000 -0.733815
v 0.290791 0.300000 -0.733815
v 0.440791 0.300000 -0.733815
v -0.459208 0.450000 0.616185
v -0.309209 0.450000 0.616185
v 0.290791 0.450000 0.616185
v 0.440791 0.450000 0.616185
v -0.459208 0.450000 -0.583815
v -0.309209 0.450000 -0.583815
v 0.290791 0.450000 -0.583815
v 0.440791 0.450000 -0.583815
v -0.309209 0.600000 0.766185
v -0.159208 0.600000 0.766185
v 0.140792 0.600000 0.766185
v 0.290791 0.600000 0.766185
v -0.309209 0.600000 0.616185
v -0.159208 0.600000 0.616185
v 0.140792 0.600000 0.616185
v 0.290791 0.600000 0.616185
v -0.309209 0.600000 -0.583815
v -0.159208 0.600000 -0.583815
v 0.140792 0.600000 -0.583815
v 0.290791 0.600000 -0.583815
v -0.309209 0.600000 -0.733815
v -0.159208 0.600000 -0.733815
v 0.140792 0.600000 -0.733815
v 0.290791 0.600000 -0.733815
v -0.309209 0.750000 0.616185
v -0.159208 0.750000 0.616185
v 0.140792 0.750000 0.616185
v 0.290791 0.750000 0.616185
v -0.309209 0.750000 -0.583815
v -0.159208 0.750000 -0.583815
v 0.140792 0.750000 -0.583815
v 0.290791 0.750000 -0.583815
v -0.159208 1.050000 0.616185
v 0.140792 1.050000 0.616185
v -0.159208 1.050000 0.466185
v 0.140792 1.050000 0.466185
v -0.159208 1.050000 -0.433815
v 0.140792 1.050000 -0.433815
v -0.159208 1.050000 -0.583815
v 0.140792 1.050000 -0.583815
v -0.159208 1.200000 0.766185
v 0.140792 1.200000 0.766185
v -0.159208 1.200000 0.616185
v 0.140792 1.200000 0.616185
v -0.159208 1.200000 0.466185
v 0.140792 1.200000 0.466185
v -0.159208 1.200000 -0.433815
v 0.140792 1.200000 -0.433815
v -0.159208 1.200000 -0.583815
v 0.140792 1.200000 -0.583815
v -0.159208 1.200000 -0.733815
v 0.140792 1.200000 -0.733815
v -0.759208 0.150000 0.766185
v -0.609208 0.150000 0.766185
v 0.590791 0.150000 0.766185
v 0.740791 0.150000 0.766185
v -0.759208 0.150000 0.616185
v -0.609208 0.150000 0.616185
v 0.590791 0.150000 0.616185
v 0.740791 0.150000 0.616185
v -0.759208 0.150000 -0.583815
v -0.609208 0.150000 -0.583815
v 0.590791 0.150000 -0.583815
v 0.740791 0.150000 -0.583815
v -0.759208 0.150000 -0.733815
v -0.609208 0.150000 -0.733815
v 0.590791 0.150000 -0.733815
v 0.740791 0.150000 -0.733815
v -0.609208 0.450000 0.766185
v -0.459208 0.450000 0.766185
v 0.440791 0.450000 0.766185
v 0.590791 0.450000 0.766185
v -0.609208 0.450000 0.616185
v -0.459208 0.450000 0.616185
v 0.440791 0.450000 0.616185
v 0.590791 0.450000 0.616185
v -0.609208 0.450000 -0.583815
v -0.459208 0.450000 -0.583815
v 0.440791 0.450000 -0.583815
v 0.590791 0.450000 -0.583815
v -0.609208 0.450000 -0.733815
v -0.459208 0.450000 -0.733815
v 0.440791 0.450000 -0.733815
v 0.590791 0.450000 -0.733815
v -0.459208 0.750000 0.766185
v -0.309209 0.750000 0.766185
v 0.290791 0.750000 0.766185
v 0.440791 0.750000 0.766185
v -0.459208 0.750000 0.616185
v -0.309209 0.750000 0.616185
v 0.290791 0.750000 0.616185
v 0.440791 0.750000 0.616185
v -0.459208 0.750000 -0.583815
v -0.309209 0.750000 -0.583815
v 0.290791 0.750000 -0.583815
v 0.440791 0.750000 -0.583815
v -0.459208 0.750000 -0.733815
v -0.309209 0.750000 -0.733815
v 0.290791 0.750000 -0.733815
v 0.440791 0.750000 -0.733815
v -0.309209 1.200000 0.766185
v -0.159208 1.200000 0.766185
v 0.140792 1.200000 0.766185
v 0.290791 1.200000 0.766185
v -0.309209 1.200000 0.616185
v -0.159208 1.200000 0.616185
v 0.140792 1.200000 0.616185
v 0.290791 1.200000 0.616185
v -0.309209 1.200000 -0.583815
v -0.159208 1.200000 -0.583815
v 0.140792 1.200000 -0.583815
v 0.290791 1.200000 -0.583815
v -0.309209 1.200000 -0.733815
v -0.159208 1.200000 -0.733815
v 0.140792 1.200000 -0.733815
v 0.290791 1.200000 -0.733815
v -0.159208 1.500000 0.616185
v 0.140792 1.500000 0.616185
v -0.159208 1.500000 -0.583815
v 0.140792 1.500000 -0.583815
v -0.159208 1.650000 0.766185
v 0.140792 1.650000 0.766185
v -0.159208 1.650000 0.616185
v 0.140792 1.650000 0.616185
v -0.159208 1.650000 -0.583815
v 0.140792 1.650000 -0.583815
v -0.159208 1.650000 -0.733815
v 0.140792 1.650000 -0.733815
vn -1.0000 -0.0000 -0.0000
vn 1.0000 -0.0000 -0.0000
vn -0.0000 -0.0000 1.0000
vn -0.0000 -0.0000 -1.0000
vn -0.0000 -1.0000 -0.0000
vn -0.0000 1.0000 -0.0000
vt 0.537109 0.500000
vt 0.958984 0.500000
s 1
usemtl palette.002
f 5/1/1 2/1/1 1/1/1
f 6/2/1 3/2/1 2/2/1
f 6/1/1 2/1/1 5/1/1
f 7/1/1 4/1/1 3/1/1
f 7/2/1 3/2/1 6/2/1
f 8/1/1 4/1/1 7/1/1
f 13/1/1 10/1/1 9/1/1
f 14/2/1 11/2/1 10/2/1
f 14/1/1 10/1/1 13/1/1
f 15/1/1 12/1/1 11/1/1
f 15/2/1 11/2/1 14/2/1
f 16/1/1 12/1/1 15/1/1
f 21/1/1 18/1/1 17/1/1
f 22/2/1 19/2/1 18/2/1
f 22/1/1 18/1/1 21/1/1
f 23/1/1 20/1/1 19/1/1
f 23/2/1 19/2/1 22/2/1
f 24/1/1 20/1/1 23/1/1
f 29/1/1 26/1/1 25/1/1
f 30/2/1 27/2/1 26/2/1
f 30/1/1 26/1/1 29/1/1
f 31/1/1 28/1/1 27/1/1
f 31/2/1 27/2/1 30/2/1
f 32/1/1 28/1/1 31/1/1
f 37/1/1 34/1/1 33/1/1
f 37/2/1 35/2/1 34/2/1
f 38/1/1 36/1/1 35/1/1
f 38/2/1 35/2/1 37/2/1
f 39/1/1 37/1/1 33/1/1
f 39/1/1 38/1/1 37/1/1
f 40/1/1 36/1/1 38/1/1
f 40/1/1 38/1/1 39/1/1
f 41/1/1 39/1/1 33/1/1
f 42/1/1 39/1/1 41/1/1
f 43/1/1 36/1/1 40/1/1
f 44/1/1 36/1/1 43/1/1
f 49/1/1 46/1/1 45/1/1
f 50/1/1 48/1/1 47/1/1
f 51/1/1 49/1/1 45/1/1
f 51/2/1 50/2/1 49/2/1
f 52/2/1 50/2/1 51/2/1
f 53/2/1 50/2/1 52/2/1
f 54/1/1 48/1/1 50/1/1
f 54/2/1 50/2/1 53/2/1
f 55/1/1 51/1/1 45/1/1
f 56/1/1 51/1/1 55/1/1
f 57/2/1 53/2/1 52/2/1
f 58/2/1 53/2/1 57/2/1
f 59/1/1 48/1/1 54/1/1
f 60/1/1 48/1/1 59/1/1
f 65/1/1 62/1/1 61/1/1
f 66/1/1 64/1/1 63/1/1
f 67/1/1 65/1/1 61/1/1
f 68/2/1 66/2/1 65/2/1
f 68/1/1 65/1/1 67/1/1
f 69/1/1 64/1/1 66/1/1
f 69/2/1 66/2/1 68/2/1
f 70/1/1 64/1/1 69/1/1
f 71/2/1 69/2/1 68/2/1
f 72/2/1 69/2/1 71/2/1
f 77/1/1 74/1/1 73/1/1
f 78/1/1 76/1/1 75/1/1
f 79/1/1 77/1/1 73/1/1
f 80/2/1 78/2/1 77/2/1
f 80/1/1 77/1/1 79/1/1
f 81/1/1 76/1/1 78/1/1
f 81/2/1 78/2/1 80/2/1
f 82/1/1 76/1/1 81/1/1
f 83/2/1 81/2/1 80/2/1
f 84/2/1 81/2/1 83/2/1
f 87/2/1 86/2/1 85/2/1
f 88/2/1 86/2/1 87/2/1
f 89/2/2 90/2/2 91/2/2
f 91/2/2 90/2/2 92/2/2
f 93/1/2 94/1/2 97/1/2
f 95/1/2 96/1/2 98/1/2
f 93/1/2 97/1/2 99/1/2
f 97/2/2 98/2/2 100/2/2
f 99/1/2 97/1/2 100/1/2
f 98/1/2 96/1/2 101/1/2
f 100/2/2 98/2/2 101/2/2
f 101/1/2 96/1/2 102/1/2
f 100/2/2 101/2/2 103/2/2
f 103/2/2 101/2/2 104/2/2
f 105/1/2 106/1/2 109/1/2
f 107/1/2 108/1/2 110/1/2
f 105/1/2 109/1/2 111/1/2
f 109/2/2 110/2/2 112/2/2
f 111/1/2 109/1/2 112/1/2
f 110/1/2 108/1/2 113/1/2
f 112/2/2 110/2/2 113/2/2
f 113/1/2 108/1/2 114/1/2
f 112/2/2 113/2/2 115/2/2
f 115/2/2 113/2/2 116/2/2
f 117/1/2 118/1/2 121/1/2
f 119/1/2 120/1/2 122/1/2
f 117/1/2 121/1/2 123/1/2
f 121/2/2 122/2/2 123/2/2
f 123/2/2 122/2/2 124/2/2
f 124/2/2 122/2/2 125/2/2
f 122/1/2 120/1/2 126/1/2
f 125/2/2 122/2/2 126/2/2
f 117/1/2 123/1/2 127/1/2
f 127/1/2 123/1/2 128/1/2
f 124/2/2 125/2/2 129/2/2
f 129/2/2 125/2/2 130/2/2
f 126/1/2 120/1/2 131/1/2
f 131/1/2 120/1/2 132/1/2
f 133/1/2 134/1/2 137/1/2
f 134/2/2 135/2/2 137/2/2
f 135/1/2 136/1/2 138/1/2
f 137/2/2 135/2/2 138/2/2
f 133/1/2 137/1/2 139/1/2
f 137/1/2 138/1/2 139/1/2
f 138/1/2 136/1/2 140/1/2
f 139/1/2 138/1/2 140/1/2
f 133/1/2 139/1/2 141/1/2
f 141/1/2 139/1/2 142/1/2
f 140/1/2 136/1/2 143/1/2
f 143/1/2 136/1/2 144/1/2
f 145/1/2 146/1/2 149/1/2
f 146/2/2 147/2/2 150/2/2
f 149/1/2 146/1/2 150/1/2
f 147/1/2 148/1/2 151/1/2
f 150/2/2 147/2/2 151/2/2
f 151/1/2 148/1/2 152/1/2
f 153/1/2 154/1/2 157/1/2
f 154/2/2 155/2/2 158/2/2
f 157/1/2 154/1/2 158/1/2
f 155/1/2 156/1/2 159/1/2
f 158/2/2 155/2/2 159/2/2
f 159/1/2 156/1/2 160/1/2
f 161/1/2 162/1/2 165/1/2
f 162/2/2 163/2/2 166/2/2
f 165/1/2 162/1/2 166/1/2
f 163/1/2 164/1/2 167/1/2
f 166/2/2 163/2/2 167/2/2
f 167/1/2 164/1/2 168/1/2
f 169/1/2 170/1/2 173/1/2
f 170/2/2 171/2/2 174/2/2
f 173/1/2 170/1/2 174/1/2
f 171/1/2 172/1/2 175/1/2
f 174/2/2 171/2/2 175/2/2
f 175/1/2 172/1/2 176/1/2
f 179/1/3 178/1/3 177/1/3
f 181/1/3 179/1/3 177/1/3
f 181/1/3 180/1/3 179/1/3
f 182/1/3 180/1/3 181/1/3
f 183/1/3 180/1/3 182/1/3
f 185/1/3 184/1/3 183/1/3
f 185/1/3 183/1/3 182/1/3
f 186/1/3 184/1/3 185/1/3
f 187/1/3 184/1/3 186/1/3
f 189/1/3 188/1/3 187/1/3
f 189/1/3 187/1/3 186/1/3
f 190/1/3 188/1/3 189/1/3
f 193/1/3 191/1/3 190/1/3
f 194/1/3 191/1/3 193/1/3
f 196/1/3 193/1/3 192/1/3
f 197/1/3 193/1/3 196/1/3
f 198/1/3 193/1/3 197/1/3
f 200/1/3 196/1/3 195/1/3
f 200/1/3 197/1/3 196/1/3
f 201/1/3 197/1/3 200/1/3
f 202/1/3 197/1/3 201/1/3
f 203/1/3 200/1/3 199/1/3
f 203/1/3 201/1/3 200/1/3
f 204/1/3 201/1/3 203/1/3
f 205/1/3 203/1/3 199/1/3
f 206/1/3 203/1/3 205/1/3
f 209/1/3 208/1/3 207/1/3
f 210/1/3 208/1/3 209/1/3
f 213/1/3 212/1/3 211/1/3
f 214/1/3 212/1/3 213/1/3
f 217/1/3 216/1/3 215/1/3
f 218/1/3 216/1/3 217/1/3
f 221/1/3 220/1/3 219/1/3
f 222/1/3 220/1/3 221/1/3
f 225/1/3 224/1/3 223/1/3
f 226/1/3 224/1/3 225/1/3
f 231/1/3 228/1/3 227/1/3
f 232/1/3 228/1/3 231/1/3
f 235/1/3 230/1/3 229/1/3
f 236/1/3 230/1/3 235/1/3
f 239/1/3 234/1/3 233/1/3
f 240/1/3 234/1/3 239/1/3
f 241/1/3 238/1/3 237/1/3
f 242/1/3 238/1/3 241/1/3
f 243/1/4 244/1/4 245/1/4
f 245/1/4 244/1/4 246/1/4
f 247/1/4 248/1/4 249/1/4
f 249/1/4 248/1/4 250/1/4
f 251/1/4 252/1/4 253/1/4
f 253/1/4 252/1/4 254/1/4
f 255/1/4 256/1/4 259/1/4
f 259/1/4 256/1/4 260/1/4
f 257/1/4 258/1/4 263/1/4
f 263/1/4 258/1/4 264/1/4
f 261/1/4 262/1/4 267/1/4
f 267/1/4 262/1/4 268/1/4
f 265/1/4 266/1/4 269/1/4
f 269/1/4 266/1/4 270/1/4
f 271/1/4 272/1/4 273/1/4
f 273/1/4 272/1/4 274/1/4
f 275/1/4 276/1/4 277/1/4
f 277/1/4 276/1/4 278/1/4
f 279/1/4 280/1/4 281/1/4
f 279/1/4 281/1/4 283/1/4
f 281/1/4 282/1/4 283/1/4
f 283/1/4 282/1/4 284/1/4
f 284/1/4 282/1/4 285/1/4
f 285/1/4 286/1/4 287/1/4
f 284/1/4 285/1/4 287/1/4
f 287/1/4 286/1/4 288/1/4
f 288/1/4 286/1/4 289/1/4
f 289/1/4 290/1/4 291/1/4
f 288/1/4 289/1/4 291/1/4
f 291/1/4 290/1/4 292/1/4
f 292/1/4 293/1/4 295/1/4
f 295/1/4 293/1/4 296/1/4
f 294/1/4 295/1/4 298/1/4
f 298/1/4 295/1/4 299/1/4
f 299/1/4 295/1/4 300/1/4
f 297/1/4 298/1/4 302/1/4
f 298/1/4 299/1/4 302/1/4
f 302/1/4 299/1/4 303/1/4
f 303/1/4 299/1/4 304/1/4
f 301/1/4 302/1/4 305/1/4
f 302/1/4 303/1/4 305/1/4
f 305/1/4 303/1/4 306/1/4
f 301/1/4 305/1/4 307/1/4
f 307/1/4 305/1/4 308/1/4
f 313/1/5 310/1/5 309/1/5
f 314/1/5 310/1/5 313/1/5
f 315/1/5 310/1/5 314/1/5
f 316/1/5 312/1/5 311/1/5
f 317/1/5 312/1/5 316/1/5
f 318/1/5 312/1/5 317/1/5
f 319/2/5 314/2/5 313/2/5
f 320/2/5 314/2/5 319/2/5
f 323/2/5 318/2/5 317/2/5
f 324/2/5 318/2/5 323/2/5
f 325/1/5 321/1/5 320/1/5
f 325/1/5 320/1/5 319/1/5
f 326/1/5 321/1/5 325/1/5
f 327/1/5 324/1/5 323/1/5
f 327/1/5 323/1/5 322/1/5
f 328/1/5 324/1/5 327/1/5
f 333/2/5 330/2/5 329/2/5
f 334/2/5 330/2/5 333/2/5
f 335/2/5 332/2/5 331/2/5
f 336/2/5 332/2/5 335/2/5
f 341/1/5 338/1/5 337/1/5
f 342/1/5 338/1/5 341/1/5
f 343/1/5 340/1/5 339/1/5
f 344/1/5 340/1/5 343/1/5
f 349/1/5 346/1/5 345/1/5
f 350/1/5 346/1/5 349/1/5
f 351/1/5 348/1/5 347/1/5
f 352/1/5 348/1/5 351/1/5
f 357/2/5 354/2/5 353/2/5
f 358/2/5 354/2/5 357/2/5
f 359/2/5 356/2/5 355/2/5
f 360/2/5 356/2/5 359/2/5
f 365/1/5 362/1/5 361/1/5
f 366/1/5 362/1/5 365/1/5
f 367/1/5 364/1/5 363/1/5
f 368/1/5 364/1/5 367/1/5
f 373/1/5 370/1/5 369/1/5
f 374/1/5 370/1/5 373/1/5
f 375/1/5 372/1/5 371/1/5
f 376/1/5 372/1/5 375/1/5
f 381/2/5 378/2/5 377/2/5
f 382/2/5 378/2/5 381/2/5
f 383/2/5 380/2/5 379/2/5
f 384/2/5 380/2/5 383/2/5
f 387/1/5 386/1/5 385/1/5
f 388/1/5 386/1/5 387/1/5
f 391/1/5 390/1/5 389/1/5
f 392/1/5 390/1/5 391/1/5
f 395/1/5 394/1/5 393/1/5
f 396/1/5 394/1/5 395/1/5
f 399/2/5 398/2/5 397/2/5
f 400/2/5 398/2/5 399/2/5
f 403/1/5 402/1/5 401/1/5
f 404/1/5 402/1/5 403/1/5
f 405/1/6 406/1/6 409/1/6
f 409/1/6 406/1/6 410/1/6
f 407/1/6 408/1/6 411/1/6
f 411/1/6 408/1/6 412/1/6
f 409/2/6 410/2/6 413/2/6
f 413/2/6 410/2/6 414/2/6
f 411/2/6 412/2/6 415/2/6
f 415/2/6 412/2/6 416/2/6
f 413/1/6 414/1/6 417/1/6
f 417/1/6 414/1/6 418/1/6
f 415/1/6 416/1/6 419/1/6
f 419/1/6 416/1/6 420/1/6
f 421/1/6 422/1/6 425/1/6
f 425/1/6 422/1/6 426/1/6
f 423/1/6 424/1/6 427/1/6
f 427/1/6 424/1/6 428/1/6
f 425/2/6 426/2/6 429/2/6
f 429/2/6 426/2/6 430/2/6
f 427/2/6 428/2/6 431/2/6
f 431/2/6 428/2/6 432/2/6
f 429/1/6 430/1/6 433/1/6
f 433/1/6 430/1/6 434/1/6
f 431/1/6 432/1/6 435/1/6
f 435/1/6 432/1/6 436/1/6
f 437/1/6 438/1/6 441/1/6
f 441/1/6 438/1/6 442/1/6
f 439/1/6 440/1/6 443/1/6
f 443/1/6 440/1/6 444/1/6
f 441/2/6 442/2/6 445/2/6
f 445/2/6 442/2/6 446/2/6
f 443/2/6 444/2/6 447/2/6
f 447/2/6 444/2/6 448/2/6
f 445/1/6 446/1/6 449/1/6
f 449/1/6 446/1/6 450/1/6
f 447/1/6 448/1/6 451/1/6
f 451/1/6 448/1/6 452/1/6
f 453/1/6 454/1/6 457/1/6
f 457/1/6 454/1/6 458/1/6
f 455/1/6 456/1/6 459/1/6
f 459/1/6 456/1/6 460/1/6
f 457/2/6 458/2/6 461/2/6
f 461/2/6 458/2/6 462/2/6
f 459/2/6 460/2/6 463/2/6
f 463/2/6 460/2/6 464/2/6
f 461/1/6 462/1/6 465/1/6
f 465/1/6 462/1/6 466/1/6
f 463/1/6 464/1/6 467/1/6
f 467/1/6 464/1/6 468/1/6
f 469/1/6 470/1/6 471/1/6
f 471/1/6 470/1/6 472/1/6
f 473/1/6 474/1/6 475/1/6
f 475/1/6 474/1/6 476/1/6
f 477/1/6 478/1/6 479/1/6
f 479/1/6 478/1/6 480/1/6
