# Blender 4.4.1
# www.blender.org
mtllib untitled-0.mtl
o Untitled.001
v 0.259711 0.028135 -0.240628
v 0.259711 0.028135 0.259372
v 0.259711 0.528135 -0.240628
v 0.259711 0.528135 -0.140628
v 0.259711 0.528135 0.159372
v 0.259711 0.528135 0.259372
v 0.259711 0.628135 -0.140628
v 0.259711 0.628135 0.159372
v 0.159711 0.528135 -0.240628
v 0.159711 0.528135 -0.140628
v 0.159711 0.528135 0.159372
v 0.159711 0.528135 0.259372
v 0.159711 0.628135 -0.240628
v 0.159711 0.628135 -0.140628
v 0.159711 0.628135 0.159372
v 0.159711 0.628135 0.259372
v 0.159711 0.728135 -0.140628
v 0.159711 0.728135 0.159372
v -0.140289 0.528135 -0.240628
v -0.140289 0.528135 -0.140628
v -0.140289 0.528135 0.159372
v -0.140289 0.528135 0.259372
v -0.140289 0.628135 -0.240628
v -0.140289 0.628135 -0.140628
v -0.140289 0.628135 0.159372
v -0.140289 0.628135 0.259372
v -0.140289 0.728135 -0.140628
v -0.140289 0.728135 0.159372
v -0.240289 0.028135 -0.240628
v -0.240289 0.028135 0.259372
v -0.240289 0.528135 -0.240628
v -0.240289 0.528135 -0.140628
v -0.240289 0.528135 0.159372
v -0.240289 0.528135 0.259372
v -0.240289 0.628135 -0.140628
v -0.240289 0.628135 0.159372
v 0.259711 0.028135 -0.240628
v 0.259711 0.528135 -0.240628
v 0.159711 0.228135 -0.240628
v 0.159711 0.428135 -0.240628
v 0.159711 0.528135 -0.240628
v 0.159711 0.628135 -0.240628
v 0.059711 0.228135 -0.240628
v 0.059711 0.428135 -0.240628
v -0.040289 0.228135 -0.240628
v -0.040289 0.428135 -0.240628
v -0.140289 0.228135 -0.240628
v -0.140289 0.428135 -0.240628
v -0.140289 0.528135 -0.240628
v -0.140289 0.628135 -0.240628
v -0.240289 0.028135 -0.240628
v -0.240289 0.528135 -0.240628
v 0.259711 0.528135 -0.140628
v 0.259711 0.628135 -0.140628
v 0.159711 0.528135 -0.140628
v 0.159711 0.628135 -0.140628
v 0.159711 0.728135 -0.140628
v -0.140289 0.528135 -0.140628
v -0.140289 0.628135 -0.140628
v -0.140289 0.728135 -0.140628
v -0.240289 0.528135 -0.140628
v -0.240289 0.628135 -0.140628
v 0.259711 0.528135 0.159372
v 0.259711 0.628135 0.159372
v 0.159711 0.528135 0.159372
v 0.159711 0.628135 0.159372
v 0.159711 0.728135 0.159372
v -0.140289 0.528135 0.159372
v -0.140289 0.628135 0.159372
v -0.140289 0.728135 0.159372
v -0.240289 0.528135 0.159372
v -0.240289 0.628135 0.159372
v 0.259711 0.028135 0.259372
v 0.259711 0.528135 0.259372
v 0.159711 0.528135 0.259372
v 0.159711 0.628135 0.259372
v -0.140289 0.528135 0.259372
v -0.140289 0.628135 0.259372
v -0.240289 0.028135 0.259372
v -0.240289 0.528135 0.259372
v 0.259711 0.028135 -0.240628
v -0.240289 0.028135 -0.240628
v 0.259711 0.028135 0.259372
v -0.240289 0.028135 0.259372
v 0.259711 0.528135 -0.240628
v 0.159711 0.528135 -0.240628
v -0.140289 0.528135 -0.240628
v -0.240289 0.528135 -0.240628
v 0.259711 0.528135 -0.140628
v 0.159711 0.528135 -0.140628
v -0.140289 0.528135 -0.140628
v -0.240289 0.528135 -0.140628
v 0.259711 0.528135 0.159372
v 0.159711 0.528135 0.159372
v -0.140289 0.528135 0.159372
v -0.240289 0.528135 0.159372
v 0.259711 0.528135 0.259372
v 0.159711 0.528135 0.259372
v -0.140289 0.528135 0.259372
v -0.240289 0.528135 0.259372
v 0.159711 0.628135 -0.240628
v -0.140289 0.628135 -0.240628
v 0.259711 0.628135 -0.140628
v 0.159711 0.628135 -0.140628
v -0.140289 0.628135 -0.140628
v -0.240289 0.628135 -0.140628
v 0.259711 0.628135 0.159372
v 0.159711 0.628135 0.159372
v -0.140289 0.628135 0.159372
v -0.240289 0.628135 0.159372
v 0.159711 0.628135 0.259372
v -0.140289 0.628135 0.259372
v 0.159711 0.728135 -0.140628
v -0.140289 0.728135 -0.140628
v 0.159711 0.728135 0.159372
v -0.140289 0.728135 0.159372
vn 1.0000 -0.0000 -0.0000
vn -1.0000 -0.0000 -0.0000
vn -0.0000 -0.0000 -1.0000
vn -0.0000 -0.0000 1.0000
vn -0.0000 -1.0000 -0.0000
vn -0.0000 1.0000 -0.0000
vt 0.958984 0.500000
vt 0.990234 0.500000
s 1
usemtl palette.001
f 3/1/1 2/1/1 1/1/1
f 4/1/1 2/1/1 3/1/1
f 5/1/1 2/1/1 4/1/1
f 6/1/1 2/1/1 5/1/1
f 7/1/1 5/1/1 4/1/1
f 8/1/1 5/1/1 7/1/1
f 13/1/1 10/1/1 9/1/1
f 14/1/1 10/1/1 13/1/1
f 15/1/1 12/1/1 11/1/1
f 16/1/1 12/1/1 15/1/1
f 17/1/1 15/1/1 14/1/1
f 18/1/1 15/1/1 17/1/1
f 19/1/2 20/1/2 23/1/2
f 23/1/2 20/1/2 24/1/2
f 21/1/2 22/1/2 25/1/2
f 25/1/2 22/1/2 26/1/2
f 24/1/2 25/1/2 27/1/2
f 27/1/2 25/1/2 28/1/2
f 29/1/2 30/1/2 31/1/2
f 31/1/2 30/1/2 32/1/2
f 32/1/2 30/1/2 33/1/2
f 33/1/2 30/1/2 34/1/2
f 32/1/2 33/1/2 35/1/2
f 35/1/2 33/1/2 36/1/2
f 39/1/3 38/1/3 37/1/3
f 40/1/3 38/1/3 39/1/3
f 41/1/3 38/1/3 40/1/3
f 43/1/3 39/1/3 37/1/3
f 43/2/3 40/2/3 39/2/3
f 44/1/3 42/1/3 41/1/3
f 44/2/3 40/2/3 43/2/3
f 44/1/3 41/1/3 40/1/3
f 45/1/3 43/1/3 37/1/3
f 45/1/3 44/1/3 43/1/3
f 46/1/3 42/1/3 44/1/3
f 46/1/3 44/1/3 45/1/3
f 47/1/3 45/1/3 37/1/3
f 47/2/3 46/2/3 45/2/3
f 48/1/3 42/1/3 46/1/3
f 48/2/3 46/2/3 47/2/3
f 49/1/3 42/1/3 48/1/3
f 50/1/3 42/1/3 49/1/3
f 51/1/3 47/1/3 37/1/3
f 51/1/3 48/1/3 47/1/3
f 51/1/3 49/1/3 48/1/3
f 52/1/3 49/1/3 51/1/3
f 55/1/3 54/1/3 53/1/3
f 56/1/3 54/1/3 55/1/3
f 59/1/3 57/1/3 56/1/3
f 60/1/3 57/1/3 59/1/3
f 61/1/3 59/1/3 58/1/3
f 62/1/3 59/1/3 61/1/3
f 63/1/4 64/1/4 65/1/4
f 65/1/4 64/1/4 66/1/4
f 66/1/4 67/1/4 69/1/4
f 69/1/4 67/1/4 70/1/4
f 68/1/4 69/1/4 71/1/4
f 71/1/4 69/1/4 72/1/4
f 73/1/4 74/1/4 75/1/4
f 73/1/4 75/1/4 77/1/4
f 75/1/4 76/1/4 77/1/4
f 77/1/4 76/1/4 78/1/4
f 73/1/4 77/1/4 79/1/4
f 79/1/4 77/1/4 80/1/4
f 83/1/5 82/1/5 81/1/5
f 84/1/5 82/1/5 83/1/5
f 85/1/6 86/1/6 89/1/6
f 89/1/6 86/1/6 90/1/6
f 87/1/6 88/1/6 91/1/6
f 91/1/6 88/1/6 92/1/6
f 93/1/6 94/1/6 97/1/6
f 97/1/6 94/1/6 98/1/6
f 95/1/6 96/1/6 99/1/6
f 99/1/6 96/1/6 100/1/6
f 101/1/6 102/1/6 104/1/6
f 104/1/6 102/1/6 105/1/6
f 103/1/6 104/1/6 107/1/6
f 107/1/6 104/1/6 108/1/6
f 105/1/6 106/1/6 109/1/6
f 109/1/6 106/1/6 110/1/6
f 108/1/6 109/1/6 111/1/6
f 111/1/6 109/1/6 112/1/6
f 113/1/6 114/1/6 115/1/6
f 115/1/6 114/1/6 116/1/6
