# Blender 5.1.2
# www.blender.org
mtllib Torch.mtl
o 円柱.001
v -7.000000 1.033371 2.876968
v -7.000000 1.968189 2.497957
v -6.878851 1.033371 2.888900
v -6.804910 1.968189 2.517171
v -6.762358 1.033371 2.924238
v -6.617317 1.968189 2.574077
v -6.654997 1.033371 2.981623
v -6.444430 1.968189 2.666487
v -6.560894 1.033371 3.058851
v -6.292893 1.968189 2.790850
v -6.483666 1.033371 3.152954
v -6.168530 1.968189 2.942387
v -6.426281 1.033371 3.260314
v -6.076120 1.968189 3.115273
v -6.390944 1.033371 3.376808
v -6.019215 1.968189 3.302866
v -6.379011 1.033371 3.497957
v -6.000000 1.968189 3.497957
v -6.390944 1.033371 3.619106
v -6.019215 1.968189 3.693047
v -6.426281 1.033371 3.735599
v -6.076120 1.968189 3.880640
v -6.483666 1.033371 3.842960
v -6.168530 1.968189 4.053527
v -6.560894 1.033371 3.937062
v -6.292893 1.968189 4.205063
v -6.654997 1.033371 4.014290
v -6.444430 1.968189 4.329426
v -6.762358 1.033371 4.071676
v -6.617317 1.968189 4.421836
v -6.878851 1.033371 4.107014
v -6.804910 1.968189 4.478742
v -7.000000 1.033371 4.118946
v -7.000000 1.968189 4.497957
v -7.121149 1.033371 4.107014
v -7.195090 1.968189 4.478742
v -7.237642 1.033371 4.071676
v -7.382683 1.968189 4.421836
v -7.345003 1.033371 4.014290
v -7.555570 1.968189 4.329426
v -7.439106 1.033371 3.937062
v -7.707107 1.968189 4.205063
v -7.516334 1.033371 3.842960
v -7.831470 1.968189 4.053527
v -7.573719 1.033371 3.735599
v -7.923880 1.968189 3.880640
v -7.609056 1.033371 3.619106
v -7.980785 1.968189 3.693047
v -7.620989 1.033371 3.497957
v -8.000000 1.968189 3.497957
v -7.609056 1.033371 3.376808
v -7.980785 1.968189 3.302866
v -7.573719 1.033371 3.260314
v -7.923880 1.968189 3.115273
v -7.516334 1.033371 3.152954
v -7.831470 1.968189 2.942387
v -7.439106 1.033371 3.058851
v -7.707107 1.968189 2.790850
v -7.345003 1.033371 2.981623
v -7.555570 1.968189 2.666487
v -7.237642 1.033371 2.924238
v -7.382683 1.968189 2.574077
v -7.121149 1.033371 2.888900
v -7.195090 1.968189 2.517171
v -7.000000 -0.030582 2.876968
v -6.878851 -0.030582 2.888900
v -6.762358 -0.030582 2.924238
v -6.654997 -0.030582 2.981623
v -6.560894 -0.030582 3.058851
v -6.483666 -0.030582 3.152954
v -6.426281 -0.030582 3.260314
v -6.390944 -0.030582 3.376808
v -6.379011 -0.030582 3.497957
v -6.390944 -0.030582 3.619106
v -6.426281 -0.030582 3.735599
v -6.483666 -0.030582 3.842960
v -6.560894 -0.030582 3.937062
v -6.654997 -0.030582 4.014290
v -6.762358 -0.030582 4.071676
v -6.878851 -0.030582 4.107014
v -7.000000 -0.030582 4.118946
v -7.121149 -0.030582 4.107014
v -7.237642 -0.030582 4.071676
v -7.345003 -0.030582 4.014290
v -7.439106 -0.030582 3.937062
v -7.516334 -0.030582 3.842960
v -7.573719 -0.030582 3.735599
v -7.609056 -0.030582 3.619106
v -7.620989 -0.030582 3.497957
v -7.609056 -0.030582 3.376808
v -7.573719 -0.030582 3.260314
v -7.516334 -0.030582 3.152954
v -7.439106 -0.030582 3.058851
v -7.345003 -0.030582 2.981623
v -7.237642 -0.030582 2.924238
v -7.121149 -0.030582 2.888900
v -7.124876 1.522280 2.831117
v -7.155211 2.399426 2.669130
v -7.124876 1.522280 2.581365
v -7.155211 2.399426 2.358708
v -6.875124 1.522280 2.831117
v -6.844789 2.399426 2.669130
v -6.875124 1.522280 2.581365
v -6.844789 2.399426 2.358708
v -7.441566 1.522280 2.982895
v -7.548830 2.399426 2.857778
v -7.566442 1.522280 2.766603
v -7.704041 2.399426 2.588944
v -7.225274 1.522280 2.858018
v -7.279996 2.399426 2.702567
v -7.350150 1.522280 2.641726
v -7.435207 2.399426 2.433733
v -7.639938 1.522280 3.272683
v -7.795390 2.399426 3.217960
v -7.856230 1.522280 3.147807
v -8.064223 2.399426 3.062749
v -7.515062 1.522280 3.056391
v -7.640179 2.399426 2.949127
v -7.731354 1.522280 2.931515
v -7.909012 2.399426 2.793916
v -7.666840 1.522280 3.622833
v -7.828826 2.399426 3.653168
v -7.916592 1.522280 3.622833
v -8.139248 2.399426 3.653168
v -7.666840 1.522280 3.373080
v -7.828826 2.399426 3.342746
v -7.916592 1.522280 3.373080
v -8.139248 2.399426 3.342746
v -7.515062 1.522280 3.939523
v -7.640179 2.399426 4.046787
v -7.731354 1.522280 4.064399
v -7.909012 2.399426 4.201998
v -7.639938 1.522280 3.723231
v -7.795390 2.399426 3.777953
v -7.856230 1.522280 3.848107
v -8.064223 2.399426 3.933164
v -7.225274 1.522280 4.137895
v -7.279997 2.399426 4.293347
v -7.350150 1.522280 4.354187
v -7.435207 2.399426 4.562180
v -7.441566 1.522280 4.013019
v -7.548830 2.399426 4.138136
v -7.566442 1.522280 4.229311
v -7.704041 2.399426 4.406969
v -6.875124 1.522280 4.164796
v -6.844789 2.399426 4.326783
v -6.875124 1.522280 4.414549
v -6.844789 2.399426 4.637205
v -7.124876 1.522280 4.164796
v -7.155211 2.399426 4.326783
v -7.124876 1.522280 4.414549
v -7.155211 2.399426 4.637205
v -6.558434 1.522280 4.013019
v -6.451170 2.399426 4.138136
v -6.433558 1.522280 4.229311
v -6.295959 2.399426 4.406969
v -6.774726 1.522280 4.137895
v -6.720004 2.399426 4.293347
v -6.649850 1.522280 4.354187
v -6.564793 2.399426 4.562180
v -6.360062 1.522280 3.723230
v -6.204610 2.399426 3.777953
v -6.143770 1.522280 3.848107
v -5.935777 2.399426 3.933164
v -6.484938 1.522280 3.939523
v -6.359821 2.399426 4.046786
v -6.268646 1.522280 4.064399
v -6.090988 2.399426 4.201997
v -6.333160 1.522280 3.373080
v -6.171174 2.399426 3.342746
v -6.083408 1.522280 3.373080
v -5.860752 2.399426 3.342746
v -6.333160 1.522280 3.622833
v -6.171174 2.399426 3.653168
v -6.083408 1.522280 3.622833
v -5.860752 2.399426 3.653168
v -6.484938 1.522280 3.056391
v -6.359821 2.399426 2.949127
v -6.268646 1.522280 2.931515
v -6.090988 2.399426 2.793916
v -6.360062 1.522280 3.272683
v -6.204610 2.399426 3.217960
v -6.143770 1.522280 3.147807
v -5.935777 2.399426 3.062749
v -6.774726 1.522280 2.858018
v -6.720004 2.399426 2.702567
v -6.649850 1.522280 2.641726
v -6.564793 2.399426 2.433733
v -6.558434 1.522280 2.982895
v -6.451170 2.399426 2.857777
v -6.433558 1.522280 2.766603
v -6.295959 2.399426 2.588944
vn 0.0909 -0.3742 -0.9229
vn 0.2692 -0.3742 -0.8874
vn 0.4372 -0.3742 -0.8179
vn 0.5883 -0.3742 -0.7169
vn 0.7169 -0.3742 -0.5883
vn 0.8179 -0.3742 -0.4372
vn 0.8874 -0.3742 -0.2692
vn 0.9229 -0.3742 -0.0909
vn 0.9229 -0.3742 0.0909
vn 0.8874 -0.3742 0.2692
vn 0.8179 -0.3742 0.4372
vn 0.7169 -0.3742 0.5883
vn 0.5883 -0.3742 0.7169
vn 0.4372 -0.3742 0.8179
vn 0.2692 -0.3742 0.8874
vn 0.0909 -0.3742 0.9229
vn -0.0909 -0.3742 0.9229
vn -0.2692 -0.3742 0.8874
vn -0.4372 -0.3742 0.8179
vn -0.5883 -0.3742 0.7169
vn -0.7169 -0.3742 0.5883
vn -0.8179 -0.3742 0.4372
vn -0.8874 -0.3742 0.2692
vn -0.9229 -0.3742 0.0909
vn -0.9229 -0.3742 -0.0909
vn -0.8874 -0.3742 -0.2692
vn -0.8179 -0.3742 -0.4372
vn -0.7169 -0.3742 -0.5883
vn -0.5883 -0.3742 -0.7169
vn -0.4372 -0.3742 -0.8179
vn -0.0000 1.0000 -0.0000
vn -0.2692 -0.3742 -0.8874
vn -0.0909 -0.3742 -0.9229
vn -0.4714 -0.0000 0.8819
vn -0.0000 -1.0000 -0.0000
vn -0.7730 -0.0000 -0.6344
vn 0.8819 -0.0000 -0.4714
vn 0.2903 -0.0000 0.9569
vn -0.9952 -0.0000 0.0980
vn 0.2903 -0.0000 -0.9569
vn 0.8819 -0.0000 0.4714
vn -0.6344 -0.0000 0.7730
vn -0.6344 -0.0000 -0.7730
vn 0.9569 -0.0000 -0.2903
vn 0.0980 -0.0000 0.9952
vn -0.9952 -0.0000 -0.0980
vn 0.4714 -0.0000 -0.8819
vn 0.7730 -0.0000 0.6344
vn -0.7730 -0.0000 0.6344
vn -0.4714 -0.0000 -0.8819
vn 0.9952 -0.0000 -0.0980
vn -0.0980 -0.0000 0.9952
vn -0.9569 -0.0000 -0.2903
vn 0.6344 -0.0000 -0.7730
vn 0.6344 -0.0000 0.7730
vn -0.8819 -0.0000 0.4714
vn -0.2903 -0.0000 -0.9569
vn 0.9952 -0.0000 0.0980
vn -0.2903 -0.0000 0.9569
vn -0.8819 -0.0000 -0.4714
vn 0.7730 -0.0000 -0.6344
vn 0.4714 -0.0000 0.8819
vn 0.0980 -0.0000 -0.9952
vn -0.9569 -0.0000 0.2903
vn -0.0980 -0.0000 -0.9952
vn 0.9569 -0.0000 0.2903
vn -0.9994 -0.0346 -0.0000
vn -0.0000 -0.2460 -0.9693
vn 0.9994 -0.0346 -0.0000
vn -0.0000 0.1816 0.9834
vn -0.8655 -0.0346 0.4997
vn -0.4846 -0.2460 -0.8394
vn 0.8655 -0.0346 -0.4997
vn 0.4917 0.1816 0.8516
vn -0.4997 -0.0346 0.8655
vn -0.8394 -0.2460 -0.4846
vn 0.4997 -0.0346 -0.8655
vn 0.8516 0.1816 0.4917
vn -0.0000 -0.0346 0.9994
vn -0.9693 -0.2460 -0.0000
vn -0.0000 -0.0346 -0.9994
vn 0.9834 0.1816 -0.0000
vn 0.4997 -0.0346 0.8655
vn -0.8394 -0.2460 0.4846
vn -0.4997 -0.0346 -0.8655
vn 0.8516 0.1816 -0.4917
vn 0.8655 -0.0346 0.4997
vn -0.4846 -0.2460 0.8394
vn -0.8655 -0.0346 -0.4997
vn 0.4917 0.1816 -0.8516
vn -0.0000 -0.2460 0.9693
vn -0.0000 0.1816 -0.9834
vn 0.4846 -0.2460 0.8394
vn -0.4917 0.1816 -0.8516
vn 0.8394 -0.2460 0.4846
vn -0.8516 0.1816 -0.4917
vn 0.9693 -0.2460 -0.0000
vn -0.9834 0.1816 -0.0000
vn 0.8394 -0.2460 -0.4846
vn -0.8516 0.1816 0.4917
vn 0.4846 -0.2460 -0.8394
vn -0.4917 0.1816 0.8516
vt 0.945692 0.500000
vt 0.945692 0.500010
vt 0.945691 0.500010
vt 0.945691 0.500000
vt 0.945691 0.500010
vt 0.945691 0.500000
vt 0.945690 0.500010
vt 0.945690 0.500000
vt 0.945689 0.500010
vt 0.945689 0.500000
vt 0.945689 0.500010
vt 0.945689 0.500000
vt 0.945688 0.500010
vt 0.945688 0.500000
vt 0.945687 0.500010
vt 0.945687 0.500000
vt 0.945687 0.500010
vt 0.945687 0.500000
vt 0.945686 0.500010
vt 0.945686 0.500000
vt 0.945685 0.500010
vt 0.945685 0.500000
vt 0.945685 0.500010
vt 0.945685 0.500000
vt 0.945684 0.500010
vt 0.945684 0.500000
vt 0.945683 0.500010
vt 0.945683 0.500000
vt 0.945683 0.500010
vt 0.945683 0.500000
vt 0.945682 0.500010
vt 0.945682 0.500000
vt 0.945681 0.500010
vt 0.945681 0.500000
vt 0.945681 0.500010
vt 0.945681 0.500000
vt 0.945680 0.500010
vt 0.945680 0.500000
vt 0.945679 0.500010
vt 0.945679 0.500000
vt 0.945679 0.500010
vt 0.945679 0.500000
vt 0.945678 0.500010
vt 0.945678 0.500000
vt 0.945678 0.500010
vt 0.945678 0.500000
vt 0.945677 0.500010
vt 0.945677 0.500000
vt 0.945676 0.500010
vt 0.945676 0.500000
vt 0.945675 0.500010
vt 0.945675 0.500000
vt 0.945675 0.500010
vt 0.945675 0.500000
vt 0.945674 0.500010
vt 0.945674 0.500000
vt 0.945674 0.500010
vt 0.945674 0.500000
vt 0.945673 0.500010
vt 0.945673 0.500000
vt 0.945672 0.500010
vt 0.945672 0.500000
vt 0.945677 0.500000
vt 0.945676 0.500000
vt 0.945675 0.500000
vt 0.945674 0.499999
vt 0.945673 0.499999
vt 0.945673 0.499998
vt 0.945672 0.499998
vt 0.945672 0.499997
vt 0.945671 0.499996
vt 0.945671 0.499995
vt 0.945671 0.499994
vt 0.945672 0.499993
vt 0.945672 0.499992
vt 0.945673 0.499991
vt 0.945673 0.499991
vt 0.945674 0.499990
vt 0.945675 0.499990
vt 0.945676 0.499990
vt 0.945677 0.499990
vt 0.945678 0.499990
vt 0.945679 0.499991
vt 0.945680 0.499991
vt 0.945680 0.499992
vt 0.945681 0.499993
vt 0.945681 0.499994
vt 0.945681 0.499995
vt 0.945681 0.499996
vt 0.945681 0.499997
vt 0.945680 0.499998
vt 0.945680 0.499998
vt 0.945679 0.499999
vt 0.945678 0.499999
vt 0.945672 0.500010
vt 0.945672 0.500000
vt 0.945671 0.500010
vt 0.945671 0.500000
vt 0.945687 0.500000
vt 0.945688 0.500000
vt 0.945689 0.499999
vt 0.945689 0.499999
vt 0.945690 0.499998
vt 0.945691 0.499998
vt 0.945691 0.499997
vt 0.945692 0.499996
vt 0.945692 0.499995
vt 0.945692 0.499994
vt 0.945691 0.499993
vt 0.945691 0.499992
vt 0.945690 0.499991
vt 0.945689 0.499991
vt 0.945689 0.499990
vt 0.945688 0.499990
vt 0.945687 0.499990
vt 0.945686 0.499990
vt 0.945685 0.499990
vt 0.945684 0.499991
vt 0.945683 0.499991
vt 0.945682 0.499992
vt 0.945682 0.499993
vt 0.945682 0.499994
vt 0.945682 0.499995
vt 0.945682 0.499996
vt 0.945682 0.499997
vt 0.945682 0.499998
vt 0.945683 0.499998
vt 0.945684 0.499999
vt 0.945685 0.499999
vt 0.945686 0.500000
vt 0.945679 0.499990
vt 0.945684 0.499990
vt 0.945684 0.499995
vt 0.945679 0.499995
vt 0.945684 0.500005
vt 0.945679 0.500005
vt 0.945674 0.500005
vt 0.945689 0.500005
s 0
usemtl Material.001
f 1/1/1 2/2/1 4/3/1 3/4/1
f 3/4/2 4/3/2 6/5/2 5/6/2
f 5/6/3 6/5/3 8/7/3 7/8/3
f 7/8/4 8/7/4 10/9/4 9/10/4
f 9/10/5 10/9/5 12/11/5 11/12/5
f 11/12/6 12/11/6 14/13/6 13/14/6
f 13/14/7 14/13/7 16/15/7 15/16/7
f 15/16/8 16/15/8 18/17/8 17/18/8
f 17/18/9 18/17/9 20/19/9 19/20/9
f 19/20/10 20/19/10 22/21/10 21/22/10
f 21/22/11 22/21/11 24/23/11 23/24/11
f 23/24/12 24/23/12 26/25/12 25/26/12
f 25/26/13 26/25/13 28/27/13 27/28/13
f 27/28/14 28/27/14 30/29/14 29/30/14
f 29/30/15 30/29/15 32/31/15 31/32/15
f 31/32/16 32/31/16 34/33/16 33/34/16
f 33/34/17 34/33/17 36/35/17 35/36/17
f 35/36/18 36/35/18 38/37/18 37/38/18
f 37/38/19 38/37/19 40/39/19 39/40/19
f 39/40/20 40/39/20 42/41/20 41/42/20
f 41/42/21 42/41/21 44/43/21 43/44/21
f 43/44/22 44/43/22 46/45/22 45/46/22
f 45/46/23 46/45/23 48/47/23 47/48/23
f 47/48/24 48/47/24 50/49/24 49/50/24
f 49/50/25 50/49/25 52/51/25 51/52/25
f 51/52/26 52/51/26 54/53/26 53/54/26
f 53/54/27 54/53/27 56/55/27 55/56/27
f 55/56/28 56/55/28 58/57/28 57/58/28
f 57/58/29 58/57/29 60/59/29 59/60/29
f 59/60/30 60/59/30 62/61/30 61/62/30
f 4/63/31 2/64/31 64/65/31 62/66/31 60/67/31 58/68/31 56/69/31 54/70/31 52/71/31 50/72/31 48/73/31 46/74/31 44/75/31 42/76/31 40/77/31 38/78/31 36/79/31 34/80/31 32/81/31 30/82/31 28/83/31 26/84/31 24/85/31 22/86/31 20/87/31 18/88/31 16/89/31 14/90/31 12/91/31 10/92/31 8/93/31 6/94/31
f 61/62/32 62/61/32 64/95/32 63/96/32
f 63/96/33 64/95/33 2/97/33 1/98/33
f 37/38/34 39/40/34 84/40/34 83/38/34
f 65/99/35 66/100/35 67/101/35 68/102/35 69/103/35 70/104/35 71/105/35 72/106/35 73/107/35 74/108/35 75/109/35 76/110/35 77/111/35 78/112/35 79/113/35 80/114/35 81/115/35 82/116/35 83/117/35 84/118/35 85/119/35 86/120/35 87/121/35 88/122/35 89/123/35 90/124/35 91/125/35 92/126/35 93/127/35 94/128/35 95/129/35 96/130/35
f 55/56/36 57/58/36 93/58/36 92/56/36
f 11/12/37 13/14/37 71/14/37 70/12/37
f 29/30/38 31/32/38 80/32/38 79/30/38
f 47/48/39 49/50/39 89/50/39 88/48/39
f 3/4/40 5/6/40 67/6/40 66/4/40
f 21/22/41 23/24/41 76/24/41 75/22/41
f 39/40/42 41/42/42 85/42/42 84/40/42
f 57/58/43 59/60/43 94/60/43 93/58/43
f 13/14/44 15/16/44 72/16/44 71/14/44
f 31/32/45 33/34/45 81/34/45 80/32/45
f 49/50/46 51/52/46 90/52/46 89/50/46
f 5/6/47 7/8/47 68/8/47 67/6/47
f 23/24/48 25/26/48 77/26/48 76/24/48
f 41/42/49 43/44/49 86/44/49 85/42/49
f 59/60/50 61/62/50 95/62/50 94/60/50
f 15/16/51 17/18/51 73/18/51 72/16/51
f 33/34/52 35/36/52 82/36/52 81/34/52
f 51/52/53 53/54/53 91/54/53 90/52/53
f 7/8/54 9/10/54 69/10/54 68/8/54
f 25/26/55 27/28/55 78/28/55 77/26/55
f 43/44/56 45/46/56 87/46/56 86/44/56
f 61/62/57 63/96/57 96/96/57 95/62/57
f 17/18/58 19/20/58 74/20/58 73/18/58
f 35/36/59 37/38/59 83/38/59 82/36/59
f 53/54/60 55/56/60 92/56/60 91/54/60
f 9/10/61 11/12/61 70/12/61 69/10/61
f 27/28/62 29/30/62 79/30/62 78/28/62
f 1/1/63 3/4/63 66/4/63 65/1/63
f 45/46/64 47/48/64 88/48/64 87/46/64
f 63/96/65 1/98/65 65/98/65 96/96/65
f 19/20/66 21/22/66 75/22/66 74/20/66
f 97/131/67 98/132/67 100/133/67 99/134/67
f 99/134/68 100/133/68 104/26/68 103/42/68
f 103/42/69 104/26/69 102/135/69 101/136/69
f 101/136/70 102/135/70 98/25/70 97/41/70
f 99/58/35 103/42/35 101/136/35 97/137/35
f 104/26/31 100/10/31 98/138/31 102/135/31
f 105/131/71 106/132/71 108/133/71 107/134/71
f 107/134/72 108/133/72 112/26/72 111/42/72
f 111/42/73 112/26/73 110/135/73 109/136/73
f 109/136/74 110/135/74 106/25/74 105/41/74
f 107/58/35 111/42/35 109/136/35 105/137/35
f 112/26/31 108/10/31 106/138/31 110/135/31
f 113/131/75 114/132/75 116/133/75 115/134/75
f 115/134/76 116/133/76 120/26/76 119/42/76
f 119/42/77 120/26/77 118/135/77 117/136/77
f 117/136/78 118/135/78 114/25/78 113/41/78
f 115/58/35 119/42/35 117/136/35 113/137/35
f 120/26/31 116/10/31 114/138/31 118/135/31
f 121/131/79 122/132/79 124/133/79 123/134/79
f 123/134/80 124/133/80 128/26/80 127/42/80
f 127/42/81 128/26/81 126/135/81 125/136/81
f 125/136/82 126/135/82 122/25/82 121/41/82
f 123/58/35 127/42/35 125/136/35 121/137/35
f 128/26/31 124/10/31 122/138/31 126/135/31
f 129/131/83 130/132/83 132/133/83 131/134/83
f 131/134/84 132/133/84 136/26/84 135/42/84
f 135/42/85 136/26/85 134/135/85 133/136/85
f 133/136/86 134/135/86 130/25/86 129/41/86
f 131/58/35 135/42/35 133/136/35 129/137/35
f 136/26/31 132/10/31 130/138/31 134/135/31
f 137/131/87 138/132/87 140/133/87 139/134/87
f 139/134/88 140/133/88 144/26/88 143/42/88
f 143/42/89 144/26/89 142/135/89 141/136/89
f 141/136/90 142/135/90 138/25/90 137/41/90
f 139/58/35 143/42/35 141/136/35 137/137/35
f 144/26/31 140/10/31 138/138/31 142/135/31
f 145/131/69 146/132/69 148/133/69 147/134/69
f 147/134/91 148/133/91 152/26/91 151/42/91
f 151/42/67 152/26/67 150/135/67 149/136/67
f 149/136/92 150/135/92 146/25/92 145/41/92
f 147/58/35 151/42/35 149/136/35 145/137/35
f 152/26/31 148/10/31 146/138/31 150/135/31
f 153/131/73 154/132/73 156/133/73 155/134/73
f 155/134/93 156/133/93 160/26/93 159/42/93
f 159/42/71 160/26/71 158/135/71 157/136/71
f 157/136/94 158/135/94 154/25/94 153/41/94
f 155/58/35 159/42/35 157/136/35 153/137/35
f 160/26/31 156/10/31 154/138/31 158/135/31
f 161/131/77 162/132/77 164/133/77 163/134/77
f 163/134/95 164/133/95 168/26/95 167/42/95
f 167/42/75 168/26/75 166/135/75 165/136/75
f 165/136/96 166/135/96 162/25/96 161/41/96
f 163/58/35 167/42/35 165/136/35 161/137/35
f 168/26/31 164/10/31 162/138/31 166/135/31
f 169/131/81 170/132/81 172/133/81 171/134/81
f 171/134/97 172/133/97 176/26/97 175/42/97
f 175/42/79 176/26/79 174/135/79 173/136/79
f 173/136/98 174/135/98 170/25/98 169/41/98
f 171/58/35 175/42/35 173/136/35 169/137/35
f 176/26/31 172/10/31 170/138/31 174/135/31
f 177/131/85 178/132/85 180/133/85 179/134/85
f 179/134/99 180/133/99 184/26/99 183/42/99
f 183/42/83 184/26/83 182/135/83 181/136/83
f 181/136/100 182/135/100 178/25/100 177/41/100
f 179/58/35 183/42/35 181/136/35 177/137/35
f 184/26/31 180/10/31 178/138/31 182/135/31
f 185/131/89 186/132/89 188/133/89 187/134/89
f 187/134/101 188/133/101 192/26/101 191/42/101
f 191/42/87 192/26/87 190/135/87 189/136/87
f 189/136/102 190/135/102 186/25/102 185/41/102
f 187/58/35 191/42/35 189/136/35 185/137/35
f 192/26/31 188/10/31 186/138/31 190/135/31
o 円柱.002
v 7.000000 1.033371 2.876968
v 7.000000 1.968189 2.497957
v 7.121149 1.033371 2.888900
v 7.195090 1.968189 2.517171
v 7.237642 1.033371 2.924238
v 7.382683 1.968189 2.574077
v 7.345003 1.033371 2.981623
v 7.555570 1.968189 2.666487
v 7.439106 1.033371 3.058851
v 7.707107 1.968189 2.790850
v 7.516334 1.033371 3.152954
v 7.831470 1.968189 2.942387
v 7.573719 1.033371 3.260314
v 7.923880 1.968189 3.115273
v 7.609056 1.033371 3.376808
v 7.980785 1.968189 3.302866
v 7.620989 1.033371 3.497957
v 8.000000 1.968189 3.497957
v 7.609056 1.033371 3.619106
v 7.980785 1.968189 3.693047
v 7.573719 1.033371 3.735599
v 7.923880 1.968189 3.880640
v 7.516334 1.033371 3.842960
v 7.831470 1.968189 4.053527
v 7.439106 1.033371 3.937062
v 7.707107 1.968189 4.205063
v 7.345003 1.033371 4.014290
v 7.555570 1.968189 4.329426
v 7.237642 1.033371 4.071676
v 7.382683 1.968189 4.421836
v 7.121149 1.033371 4.107014
v 7.195090 1.968189 4.478742
v 7.000000 1.033371 4.118946
v 7.000000 1.968189 4.497957
v 6.878851 1.033371 4.107014
v 6.804910 1.968189 4.478742
v 6.762358 1.033371 4.071676
v 6.617317 1.968189 4.421836
v 6.654997 1.033371 4.014290
v 6.444430 1.968189 4.329426
v 6.560894 1.033371 3.937062
v 6.292893 1.968189 4.205063
v 6.483666 1.033371 3.842960
v 6.168530 1.968189 4.053527
v 6.426281 1.033371 3.735599
v 6.076120 1.968189 3.880640
v 6.390944 1.033371 3.619106
v 6.019215 1.968189 3.693047
v 6.379011 1.033371 3.497957
v 6.000000 1.968189 3.497957
v 6.390944 1.033371 3.376808
v 6.019215 1.968189 3.302866
v 6.426281 1.033371 3.260314
v 6.076120 1.968189 3.115273
v 6.483666 1.033371 3.152954
v 6.168530 1.968189 2.942387
v 6.560894 1.033371 3.058851
v 6.292893 1.968189 2.790850
v 6.654997 1.033371 2.981623
v 6.444430 1.968189 2.666487
v 6.762358 1.033371 2.924238
v 6.617317 1.968189 2.574077
v 6.878851 1.033371 2.888900
v 6.804910 1.968189 2.517171
v 7.000000 -0.030582 2.876968
v 7.121149 -0.030582 2.888900
v 7.237642 -0.030582 2.924238
v 7.345003 -0.030582 2.981623
v 7.439106 -0.030582 3.058851
v 7.516334 -0.030582 3.152954
v 7.573719 -0.030582 3.260314
v 7.609056 -0.030582 3.376808
v 7.620989 -0.030582 3.497957
v 7.609056 -0.030582 3.619106
v 7.573719 -0.030582 3.735599
v 7.516334 -0.030582 3.842960
v 7.439106 -0.030582 3.937062
v 7.345003 -0.030582 4.014290
v 7.237642 -0.030582 4.071676
v 7.121149 -0.030582 4.107014
v 7.000000 -0.030582 4.118946
v 6.878851 -0.030582 4.107014
v 6.762358 -0.030582 4.071676
v 6.654997 -0.030582 4.014290
v 6.560894 -0.030582 3.937062
v 6.483666 -0.030582 3.842960
v 6.426281 -0.030582 3.735599
v 6.390944 -0.030582 3.619106
v 6.379011 -0.030582 3.497957
v 6.390944 -0.030582 3.376808
v 6.426281 -0.030582 3.260314
v 6.483666 -0.030582 3.152954
v 6.560894 -0.030582 3.058851
v 6.654997 -0.030582 2.981623
v 6.762358 -0.030582 2.924238
v 6.878851 -0.030582 2.888900
v 6.875124 1.522280 2.831117
v 6.844789 2.399426 2.669130
v 6.875124 1.522280 2.581365
v 6.844789 2.399426 2.358708
v 7.124876 1.522280 2.831117
v 7.155211 2.399426 2.669130
v 7.124876 1.522280 2.581365
v 7.155211 2.399426 2.358708
v 6.558434 1.522280 2.982895
v 6.451170 2.399426 2.857778
v 6.433558 1.522280 2.766603
v 6.295959 2.399426 2.588944
v 6.774726 1.522280 2.858018
v 6.720004 2.399426 2.702567
v 6.649850 1.522280 2.641726
v 6.564793 2.399426 2.433733
v 6.360062 1.522280 3.272683
v 6.204610 2.399426 3.217960
v 6.143770 1.522280 3.147807
v 5.935777 2.399426 3.062749
v 6.484938 1.522280 3.056391
v 6.359821 2.399426 2.949127
v 6.268646 1.522280 2.931515
v 6.090988 2.399426 2.793916
v 6.333160 1.522280 3.622833
v 6.171174 2.399426 3.653168
v 6.083408 1.522280 3.622833
v 5.860752 2.399426 3.653168
v 6.333160 1.522280 3.373080
v 6.171174 2.399426 3.342746
v 6.083408 1.522280 3.373080
v 5.860752 2.399426 3.342746
v 6.484938 1.522280 3.939523
v 6.359821 2.399426 4.046787
v 6.268646 1.522280 4.064399
v 6.090988 2.399426 4.201998
v 6.360062 1.522280 3.723231
v 6.204610 2.399426 3.777953
v 6.143770 1.522280 3.848107
v 5.935777 2.399426 3.933164
v 6.774726 1.522280 4.137895
v 6.720003 2.399426 4.293347
v 6.649850 1.522280 4.354187
v 6.564793 2.399426 4.562180
v 6.558434 1.522280 4.013019
v 6.451170 2.399426 4.138136
v 6.433558 1.522280 4.229311
v 6.295959 2.399426 4.406969
v 7.124876 1.522280 4.164796
v 7.155211 2.399426 4.326783
v 7.124876 1.522280 4.414549
v 7.155211 2.399426 4.637205
v 6.875124 1.522280 4.164796
v 6.844789 2.399426 4.326783
v 6.875124 1.522280 4.414549
v 6.844789 2.399426 4.637205
v 7.441566 1.522280 4.013019
v 7.548830 2.399426 4.138136
v 7.566442 1.522280 4.229311
v 7.704041 2.399426 4.406969
v 7.225274 1.522280 4.137895
v 7.279996 2.399426 4.293347
v 7.350150 1.522280 4.354187
v 7.435207 2.399426 4.562180
v 7.639938 1.522280 3.723230
v 7.795390 2.399426 3.777953
v 7.856230 1.522280 3.848107
v 8.064223 2.399426 3.933164
v 7.515062 1.522280 3.939523
v 7.640179 2.399426 4.046786
v 7.731354 1.522280 4.064399
v 7.909012 2.399426 4.201997
v 7.666840 1.522280 3.373080
v 7.828826 2.399426 3.342746
v 7.916592 1.522280 3.373080
v 8.139248 2.399426 3.342746
v 7.666840 1.522280 3.622833
v 7.828826 2.399426 3.653168
v 7.916592 1.522280 3.622833
v 8.139248 2.399426 3.653168
v 7.515062 1.522280 3.056391
v 7.640179 2.399426 2.949127
v 7.731354 1.522280 2.931515
v 7.909012 2.399426 2.793916
v 7.639938 1.522280 3.272683
v 7.795390 2.399426 3.217960
v 7.856230 1.522280 3.147807
v 8.064223 2.399426 3.062749
v 7.225274 1.522280 2.858018
v 7.279996 2.399426 2.702567
v 7.350150 1.522280 2.641726
v 7.435207 2.399426 2.433733
v 7.441566 1.522280 2.982895
v 7.548830 2.399426 2.857777
v 7.566442 1.522280 2.766603
v 7.704041 2.399426 2.588944
vn 0.0909 -0.3742 -0.9229
vn 0.2692 -0.3742 -0.8874
vn 0.4372 -0.3742 -0.8179
vn 0.5883 -0.3742 -0.7169
vn 0.7169 -0.3742 -0.5883
vn 0.8179 -0.3742 -0.4372
vn 0.8874 -0.3742 -0.2692
vn 0.9229 -0.3742 -0.0909
vn 0.9229 -0.3742 0.0909
vn 0.8874 -0.3742 0.2692
vn 0.8179 -0.3742 0.4372
vn 0.7169 -0.3742 0.5883
vn 0.5883 -0.3742 0.7169
vn 0.4372 -0.3742 0.8179
vn 0.2692 -0.3742 0.8874
vn 0.0909 -0.3742 0.9229
vn -0.0909 -0.3742 0.9229
vn -0.2692 -0.3742 0.8874
vn -0.4372 -0.3742 0.8179
vn -0.5883 -0.3742 0.7169
vn -0.7169 -0.3742 0.5883
vn -0.8179 -0.3742 0.4372
vn -0.8874 -0.3742 0.2692
vn -0.9229 -0.3742 0.0909
vn -0.9229 -0.3742 -0.0909
vn -0.8874 -0.3742 -0.2692
vn -0.8179 -0.3742 -0.4372
vn -0.7169 -0.3742 -0.5883
vn -0.5883 -0.3742 -0.7169
vn -0.4372 -0.3742 -0.8179
vn -0.0000 1.0000 -0.0000
vn -0.2692 -0.3742 -0.8874
vn -0.0909 -0.3742 -0.9229
vn -0.4714 -0.0000 0.8819
vn -0.0000 -1.0000 -0.0000
vn -0.7730 -0.0000 -0.6344
vn 0.8819 -0.0000 -0.4714
vn 0.2903 -0.0000 0.9569
vn -0.9952 -0.0000 0.0980
vn 0.2903 -0.0000 -0.9569
vn 0.8819 -0.0000 0.4714
vn -0.6344 -0.0000 0.7730
vn -0.6344 -0.0000 -0.7730
vn 0.9569 -0.0000 -0.2903
vn 0.0980 -0.0000 0.9952
vn -0.9952 -0.0000 -0.0980
vn 0.4714 -0.0000 -0.8819
vn 0.7730 -0.0000 0.6344
vn -0.7730 -0.0000 0.6344
vn -0.4714 -0.0000 -0.8819
vn 0.9952 -0.0000 -0.0980
vn -0.0980 -0.0000 0.9952
vn -0.9569 -0.0000 -0.2903
vn 0.6344 -0.0000 -0.7730
vn 0.6344 -0.0000 0.7730
vn -0.8819 -0.0000 0.4714
vn -0.2903 -0.0000 -0.9569
vn 0.9952 -0.0000 0.0980
vn -0.2903 -0.0000 0.9569
vn -0.8819 -0.0000 -0.4714
vn 0.7730 -0.0000 -0.6344
vn 0.4714 -0.0000 0.8819
vn 0.0980 -0.0000 -0.9952
vn -0.9569 -0.0000 0.2903
vn -0.0980 -0.0000 -0.9952
vn 0.9569 -0.0000 0.2903
vn -0.9994 -0.0346 -0.0000
vn -0.0000 -0.2460 -0.9693
vn 0.9994 -0.0346 -0.0000
vn -0.0000 0.1816 0.9834
vn -0.8655 -0.0346 0.4997
vn -0.4846 -0.2460 -0.8394
vn 0.8655 -0.0346 -0.4997
vn 0.4917 0.1816 0.8516
vn -0.4997 -0.0346 0.8655
vn -0.8394 -0.2460 -0.4846
vn 0.4997 -0.0346 -0.8655
vn 0.8516 0.1816 0.4917
vn -0.0000 -0.0346 0.9994
vn -0.9693 -0.2460 -0.0000
vn -0.0000 -0.0346 -0.9994
vn 0.9834 0.1816 -0.0000
vn 0.4997 -0.0346 0.8655
vn -0.8394 -0.2460 0.4846
vn -0.4997 -0.0346 -0.8655
vn 0.8516 0.1816 -0.4917
vn 0.8655 -0.0346 0.4997
vn -0.4846 -0.2460 0.8394
vn -0.8655 -0.0346 -0.4997
vn 0.4917 0.1816 -0.8516
vn -0.0000 -0.2460 0.9693
vn -0.0000 0.1816 -0.9834
vn 0.4846 -0.2460 0.8394
vn -0.4917 0.1816 -0.8516
vn 0.8394 -0.2460 0.4846
vn -0.8516 0.1816 -0.4917
vn 0.9693 -0.2460 -0.0000
vn -0.9834 0.1816 -0.0000
vn 0.8394 -0.2460 -0.4846
vn -0.8516 0.1816 0.4917
vn 0.4846 -0.2460 -0.8394
vn -0.4917 0.1816 0.8516
vt 0.945692 0.500000
vt 0.945692 0.500010
vt 0.945691 0.500010
vt 0.945691 0.500000
vt 0.945691 0.500010
vt 0.945691 0.500000
vt 0.945690 0.500010
vt 0.945690 0.500000
vt 0.945689 0.500010
vt 0.945689 0.500000
vt 0.945689 0.500010
vt 0.945689 0.500000
vt 0.945688 0.500010
vt 0.945688 0.500000
vt 0.945687 0.500010
vt 0.945687 0.500000
vt 0.945687 0.500010
vt 0.945687 0.500000
vt 0.945686 0.500010
vt 0.945686 0.500000
vt 0.945685 0.500010
vt 0.945685 0.500000
vt 0.945685 0.500010
vt 0.945685 0.500000
vt 0.945684 0.500010
vt 0.945684 0.500000
vt 0.945683 0.500010
vt 0.945683 0.500000
vt 0.945683 0.500010
vt 0.945683 0.500000
vt 0.945682 0.500010
vt 0.945682 0.500000
vt 0.945681 0.500010
vt 0.945681 0.500000
vt 0.945681 0.500010
vt 0.945681 0.500000
vt 0.945680 0.500010
vt 0.945680 0.500000
vt 0.945679 0.500010
vt 0.945679 0.500000
vt 0.945679 0.500010
vt 0.945679 0.500000
vt 0.945678 0.500010
vt 0.945678 0.500000
vt 0.945678 0.500010
vt 0.945678 0.500000
vt 0.945677 0.500010
vt 0.945677 0.500000
vt 0.945676 0.500010
vt 0.945676 0.500000
vt 0.945675 0.500010
vt 0.945675 0.500000
vt 0.945675 0.500010
vt 0.945675 0.500000
vt 0.945674 0.500010
vt 0.945674 0.500000
vt 0.945674 0.500010
vt 0.945674 0.500000
vt 0.945673 0.500010
vt 0.945673 0.500000
vt 0.945672 0.500010
vt 0.945672 0.500000
vt 0.945677 0.500000
vt 0.945676 0.500000
vt 0.945675 0.500000
vt 0.945674 0.499999
vt 0.945673 0.499999
vt 0.945673 0.499998
vt 0.945672 0.499998
vt 0.945672 0.499997
vt 0.945671 0.499996
vt 0.945671 0.499995
vt 0.945671 0.499994
vt 0.945672 0.499993
vt 0.945672 0.499992
vt 0.945673 0.499991
vt 0.945673 0.499991
vt 0.945674 0.499990
vt 0.945675 0.499990
vt 0.945676 0.499990
vt 0.945677 0.499990
vt 0.945678 0.499990
vt 0.945679 0.499991
vt 0.945680 0.499991
vt 0.945680 0.499992
vt 0.945681 0.499993
vt 0.945681 0.499994
vt 0.945681 0.499995
vt 0.945681 0.499996
vt 0.945681 0.499997
vt 0.945680 0.499998
vt 0.945680 0.499998
vt 0.945679 0.499999
vt 0.945678 0.499999
vt 0.945672 0.500010
vt 0.945672 0.500000
vt 0.945671 0.500010
vt 0.945671 0.500000
vt 0.945687 0.500000
vt 0.945688 0.500000
vt 0.945689 0.499999
vt 0.945689 0.499999
vt 0.945690 0.499998
vt 0.945691 0.499998
vt 0.945691 0.499997
vt 0.945692 0.499996
vt 0.945692 0.499995
vt 0.945692 0.499994
vt 0.945691 0.499993
vt 0.945691 0.499992
vt 0.945690 0.499991
vt 0.945689 0.499991
vt 0.945689 0.499990
vt 0.945688 0.499990
vt 0.945687 0.499990
vt 0.945686 0.499990
vt 0.945685 0.499990
vt 0.945684 0.499991
vt 0.945683 0.499991
vt 0.945682 0.499992
vt 0.945682 0.499993
vt 0.945682 0.499994
vt 0.945682 0.499995
vt 0.945682 0.499996
vt 0.945682 0.499997
vt 0.945682 0.499998
vt 0.945683 0.499998
vt 0.945684 0.499999
vt 0.945685 0.499999
vt 0.945686 0.500000
vt 0.945679 0.499990
vt 0.945684 0.499990
vt 0.945684 0.499995
vt 0.945679 0.499995
vt 0.945684 0.500005
vt 0.945679 0.500005
vt 0.945674 0.500005
vt 0.945689 0.500005
s 0
usemtl Material.001
f 193/139/103 194/140/103 196/141/103 195/142/103
f 195/142/104 196/141/104 198/143/104 197/144/104
f 197/144/105 198/143/105 200/145/105 199/146/105
f 199/146/106 200/145/106 202/147/106 201/148/106
f 201/148/107 202/147/107 204/149/107 203/150/107
f 203/150/108 204/149/108 206/151/108 205/152/108
f 205/152/109 206/151/109 208/153/109 207/154/109
f 207/154/110 208/153/110 210/155/110 209/156/110
f 209/156/111 210/155/111 212/157/111 211/158/111
f 211/158/112 212/157/112 214/159/112 213/160/112
f 213/160/113 214/159/113 216/161/113 215/162/113
f 215/162/114 216/161/114 218/163/114 217/164/114
f 217/164/115 218/163/115 220/165/115 219/166/115
f 219/166/116 220/165/116 222/167/116 221/168/116
f 221/168/117 222/167/117 224/169/117 223/170/117
f 223/170/118 224/169/118 226/171/118 225/172/118
f 225/172/119 226/171/119 228/173/119 227/174/119
f 227/174/120 228/173/120 230/175/120 229/176/120
f 229/176/121 230/175/121 232/177/121 231/178/121
f 231/178/122 232/177/122 234/179/122 233/180/122
f 233/180/123 234/179/123 236/181/123 235/182/123
f 235/182/124 236/181/124 238/183/124 237/184/124
f 237/184/125 238/183/125 240/185/125 239/186/125
f 239/186/126 240/185/126 242/187/126 241/188/126
f 241/188/127 242/187/127 244/189/127 243/190/127
f 243/190/128 244/189/128 246/191/128 245/192/128
f 245/192/129 246/191/129 248/193/129 247/194/129
f 247/194/130 248/193/130 250/195/130 249/196/130
f 249/196/131 250/195/131 252/197/131 251/198/131
f 251/198/132 252/197/132 254/199/132 253/200/132
f 196/201/133 194/202/133 256/203/133 254/204/133 252/205/133 250/206/133 248/207/133 246/208/133 244/209/133 242/210/133 240/211/133 238/212/133 236/213/133 234/214/133 232/215/133 230/216/133 228/217/133 226/218/133 224/219/133 222/220/133 220/221/133 218/222/133 216/223/133 214/224/133 212/225/133 210/226/133 208/227/133 206/228/133 204/229/133 202/230/133 200/231/133 198/232/133
f 253/200/134 254/199/134 256/233/134 255/234/134
f 255/234/135 256/233/135 194/235/135 193/236/135
f 229/176/136 231/178/136 276/178/136 275/176/136
f 257/237/137 258/238/137 259/239/137 260/240/137 261/241/137 262/242/137 263/243/137 264/244/137 265/245/137 266/246/137 267/247/137 268/248/137 269/249/137 270/250/137 271/251/137 272/252/137 273/253/137 274/254/137 275/255/137 276/256/137 277/257/137 278/258/137 279/259/137 280/260/137 281/261/137 282/262/137 283/263/137 284/264/137 285/265/137 286/266/137 287/267/137 288/268/137
f 247/194/138 249/196/138 285/196/138 284/194/138
f 203/150/139 205/152/139 263/152/139 262/150/139
f 221/168/140 223/170/140 272/170/140 271/168/140
f 239/186/141 241/188/141 281/188/141 280/186/141
f 195/142/142 197/144/142 259/144/142 258/142/142
f 213/160/143 215/162/143 268/162/143 267/160/143
f 231/178/144 233/180/144 277/180/144 276/178/144
f 249/196/145 251/198/145 286/198/145 285/196/145
f 205/152/146 207/154/146 264/154/146 263/152/146
f 223/170/147 225/172/147 273/172/147 272/170/147
f 241/188/148 243/190/148 282/190/148 281/188/148
f 197/144/149 199/146/149 260/146/149 259/144/149
f 215/162/150 217/164/150 269/164/150 268/162/150
f 233/180/151 235/182/151 278/182/151 277/180/151
f 251/198/152 253/200/152 287/200/152 286/198/152
f 207/154/153 209/156/153 265/156/153 264/154/153
f 225/172/154 227/174/154 274/174/154 273/172/154
f 243/190/155 245/192/155 283/192/155 282/190/155
f 199/146/156 201/148/156 261/148/156 260/146/156
f 217/164/157 219/166/157 270/166/157 269/164/157
f 235/182/158 237/184/158 279/184/158 278/182/158
f 253/200/159 255/234/159 288/234/159 287/200/159
f 209/156/160 211/158/160 266/158/160 265/156/160
f 227/174/161 229/176/161 275/176/161 274/174/161
f 245/192/162 247/194/162 284/194/162 283/192/162
f 201/148/163 203/150/163 262/150/163 261/148/163
f 219/166/164 221/168/164 271/168/164 270/166/164
f 193/139/165 195/142/165 258/142/165 257/139/165
f 237/184/166 239/186/166 280/186/166 279/184/166
f 255/234/167 193/236/167 257/236/167 288/234/167
f 211/158/168 213/160/168 267/160/168 266/158/168
f 289/269/169 290/270/169 292/271/169 291/272/169
f 291/272/170 292/271/170 296/164/170 295/180/170
f 295/180/171 296/164/171 294/273/171 293/274/171
f 293/274/172 294/273/172 290/163/172 289/179/172
f 291/196/137 295/180/137 293/274/137 289/275/137
f 296/164/133 292/148/133 290/276/133 294/273/133
f 297/269/173 298/270/173 300/271/173 299/272/173
f 299/272/174 300/271/174 304/164/174 303/180/174
f 303/180/175 304/164/175 302/273/175 301/274/175
f 301/274/176 302/273/176 298/163/176 297/179/176
f 299/196/137 303/180/137 301/274/137 297/275/137
f 304/164/133 300/148/133 298/276/133 302/273/133
f 305/269/177 306/270/177 308/271/177 307/272/177
f 307/272/178 308/271/178 312/164/178 311/180/178
f 311/180/179 312/164/179 310/273/179 309/274/179
f 309/274/180 310/273/180 306/163/180 305/179/180
f 307/196/137 311/180/137 309/274/137 305/275/137
f 312/164/133 308/148/133 306/276/133 310/273/133
f 313/269/181 314/270/181 316/271/181 315/272/181
f 315/272/182 316/271/182 320/164/182 319/180/182
f 319/180/183 320/164/183 318/273/183 317/274/183
f 317/274/184 318/273/184 314/163/184 313/179/184
f 315/196/137 319/180/137 317/274/137 313/275/137
f 320/164/133 316/148/133 314/276/133 318/273/133
f 321/269/185 322/270/185 324/271/185 323/272/185
f 323/272/186 324/271/186 328/164/186 327/180/186
f 327/180/187 328/164/187 326/273/187 325/274/187
f 325/274/188 326/273/188 322/163/188 321/179/188
f 323/196/137 327/180/137 325/274/137 321/275/137
f 328/164/133 324/148/133 322/276/133 326/273/133
f 329/269/189 330/270/189 332/271/189 331/272/189
f 331/272/190 332/271/190 336/164/190 335/180/190
f 335/180/191 336/164/191 334/273/191 333/274/191
f 333/274/192 334/273/192 330/163/192 329/179/192
f 331/196/137 335/180/137 333/274/137 329/275/137
f 336/164/133 332/148/133 330/276/133 334/273/133
f 337/269/171 338/270/171 340/271/171 339/272/171
f 339/272/193 340/271/193 344/164/193 343/180/193
f 343/180/169 344/164/169 342/273/169 341/274/169
f 341/274/194 342/273/194 338/163/194 337/179/194
f 339/196/137 343/180/137 341/274/137 337/275/137
f 344/164/133 340/148/133 338/276/133 342/273/133
f 345/269/175 346/270/175 348/271/175 347/272/175
f 347/272/195 348/271/195 352/164/195 351/180/195
f 351/180/173 352/164/173 350/273/173 349/274/173
f 349/274/196 350/273/196 346/163/196 345/179/196
f 347/196/137 351/180/137 349/274/137 345/275/137
f 352/164/133 348/148/133 346/276/133 350/273/133
f 353/269/179 354/270/179 356/271/179 355/272/179
f 355/272/197 356/271/197 360/164/197 359/180/197
f 359/180/177 360/164/177 358/273/177 357/274/177
f 357/274/198 358/273/198 354/163/198 353/179/198
f 355/196/137 359/180/137 357/274/137 353/275/137
f 360/164/133 356/148/133 354/276/133 358/273/133
f 361/269/183 362/270/183 364/271/183 363/272/183
f 363/272/199 364/271/199 368/164/199 367/180/199
f 367/180/181 368/164/181 366/273/181 365/274/181
f 365/274/200 366/273/200 362/163/200 361/179/200
f 363/196/137 367/180/137 365/274/137 361/275/137
f 368/164/133 364/148/133 362/276/133 366/273/133
f 369/269/187 370/270/187 372/271/187 371/272/187
f 371/272/201 372/271/201 376/164/201 375/180/201
f 375/180/185 376/164/185 374/273/185 373/274/185
f 373/274/202 374/273/202 370/163/202 369/179/202
f 371/196/137 375/180/137 373/274/137 369/275/137
f 376/164/133 372/148/133 370/276/133 374/273/133
f 377/269/191 378/270/191 380/271/191 379/272/191
f 379/272/203 380/271/203 384/164/203 383/180/203
f 383/180/189 384/164/189 382/273/189 381/274/189
f 381/274/204 382/273/204 378/163/204 377/179/204
f 379/196/137 383/180/137 381/274/137 377/275/137
f 384/164/133 380/148/133 378/276/133 382/273/133
