# MagicaVoxel @ Ephtracy

# group
o 

# material
mtllib Sword.mtl
usemtl palette

# normals
vn -1 0 0
vn 1 0 0
vn 0 0 1
vn 0 0 -1
vn 0 -1 0
vn 0 1 0

# texcoords
vt 0.900391 0.5
vt 0.908203 0.5
vt 0.939453 0.5
vt 0.943359 0.5
vt 0.974609 0.5
vt 0.978516 0.5
vt 0.982422 0.5

# verts
v -0.4 0.4 0.6
v -0.4 0.4 0.3
v -0.4 0.6 0.6
v -0.4 0.6 0.3
v -0.3 0.3 0.6
v -0.3 0.3 0.3
v -0.3 0.4 0.7
v -0.3 0.4 0.6
v -0.3 0.4 0.3
v -0.3 0.4 -1.6
v -0.3 0.6 0.7
v -0.3 0.6 0.6
v -0.3 0.6 0.3
v -0.3 0.6 -1.6
v -0.3 0.7 0.6
v -0.3 0.7 0.3
v -0.2 0.3 0.2
v -0.2 0.3 -1.6
v -0.2 0.4 1.7
v -0.2 0.4 1.5
v -0.2 0.4 1.3
v -0.2 0.4 1.2
v -0.2 0.4 1.1
v -0.2 0.4 1
v -0.2 0.4 0.9
v -0.2 0.4 0.8
v -0.2 0.4 0.7
v -0.2 0.4 0.2
v -0.2 0.4 -1.6
v -0.2 0.4 -1.7
v -0.2 0.6 1.7
v -0.2 0.6 1.5
v -0.2 0.6 1.3
v -0.2 0.6 1.2
v -0.2 0.6 1.1
v -0.2 0.6 1
v -0.2 0.6 0.9
v -0.2 0.6 0.8
v -0.2 0.6 0.7
v -0.2 0.6 0.2
v -0.2 0.6 -1.6
v -0.2 0.6 -1.7
v -0.2 0.7 0.2
v -0.2 0.7 -1.6
v -0.1 0.3 1.7
v -0.1 0.3 1.5
v -0.1 0.3 1.3
v -0.1 0.3 1.2
v -0.1 0.3 1.1
v -0.1 0.3 1
v -0.1 0.3 0.9
v -0.1 0.3 0.8
v -0.1 0.3 0.7
v -0.1 0.3 0.6
v -0.1 0.3 0.3
v -0.1 0.3 0.2
v -0.1 0.3 -1.6
v -0.1 0.3 -1.7
v -0.1 0.4 1.8
v -0.1 0.4 1.7
v -0.1 0.4 1.5
v -0.1 0.4 1.4
v -0.1 0.4 1.3
v -0.1 0.4 1.2
v -0.1 0.4 1.1
v -0.1 0.4 1
v -0.1 0.4 0.9
v -0.1 0.4 0.8
v -0.1 0.4 0.7
v -0.1 0.4 0.6
v -0.1 0.4 0.3
v -0.1 0.4 0.2
v -0.1 0.4 -1.6
v -0.1 0.4 -1.7
v -0.1 0.4 -1.8
v -0.1 0.6 1.8
v -0.1 0.6 1.7
v -0.1 0.6 1.5
v -0.1 0.6 1.4
v -0.1 0.6 1.3
v -0.1 0.6 1.2
v -0.1 0.6 1.1
v -0.1 0.6 1
v -0.1 0.6 0.9
v -0.1 0.6 0.8
v -0.1 0.6 0.7
v -0.1 0.6 0.6
v -0.1 0.6 0.3
v -0.1 0.6 0.2
v -0.1 0.6 -1.6
v -0.1 0.6 -1.7
v -0.1 0.6 -1.8
v -0.1 0.7 1.7
v -0.1 0.7 1.5
v -0.1 0.7 1.3
v -0.1 0.7 1.2
v -0.1 0.7 1.1
v -0.1 0.7 1
v -0.1 0.7 0.9
v -0.1 0.7 0.8
v -0.1 0.7 0.7
v -0.1 0.7 0.6
v -0.1 0.7 0.3
v -0.1 0.7 0.2
v -0.1 0.7 -1.6
v -0.1 0.7 -1.7
v 0.1 0.3 0.5
v 0.1 0.3 0.4
v 0.1 0.4 0.5
v 0.1 0.4 0.4
v 0.1 0.6 0.5
v 0.1 0.6 0.4
v 0.1 0.7 0.5
v 0.1 0.7 0.4
v 0.2 0.3 0.4
v 0.2 0.3 0.3
v 0.2 0.4 0.4
v 0.2 0.4 0.3
v 0.2 0.6 0.4
v 0.2 0.6 0.3
v 0.2 0.7 0.4
v 0.2 0.7 0.3
v -0.2 0.3 0.4
v -0.2 0.3 0.3
v -0.2 0.4 0.4
v -0.2 0.4 0.3
v -0.2 0.6 0.4
v -0.2 0.6 0.3
v -0.2 0.7 0.4
v -0.2 0.7 0.3
v -0.1 0.3 0.5
v -0.1 0.3 0.4
v -0.1 0.4 0.5
v -0.1 0.4 0.4
v -0.1 0.6 0.5
v -0.1 0.6 0.4
v -0.1 0.7 0.5
v -0.1 0.7 0.4
v 0.1 0.3 1.7
v 0.1 0.3 1.5
v 0.1 0.3 1.3
v 0.1 0.3 1.2
v 0.1 0.3 1.1
v 0.1 0.3 1
v 0.1 0.3 0.9
v 0.1 0.3 0.8
v 0.1 0.3 0.7
v 0.1 0.3 0.6
v 0.1 0.3 0.3
v 0.1 0.3 0.2
v 0.1 0.3 -1.6
v 0.1 0.3 -1.7
v 0.1 0.4 1.8
v 0.1 0.4 1.7
v 0.1 0.4 1.5
v 0.1 0.4 1.4
v 0.1 0.4 1.3
v 0.1 0.4 1.2
v 0.1 0.4 1.1
v 0.1 0.4 1
v 0.1 0.4 0.9
v 0.1 0.4 0.8
v 0.1 0.4 0.7
v 0.1 0.4 0.6
v 0.1 0.4 0.3
v 0.1 0.4 0.2
v 0.1 0.4 -1.6
v 0.1 0.4 -1.7
v 0.1 0.4 -1.8
v 0.1 0.6 1.8
v 0.1 0.6 1.7
v 0.1 0.6 1.5
v 0.1 0.6 1.4
v 0.1 0.6 1.3
v 0.1 0.6 1.2
v 0.1 0.6 1.1
v 0.1 0.6 1
v 0.1 0.6 0.9
v 0.1 0.6 0.8
v 0.1 0.6 0.7
v 0.1 0.6 0.6
v 0.1 0.6 0.3
v 0.1 0.6 0.2
v 0.1 0.6 -1.6
v 0.1 0.6 -1.7
v 0.1 0.6 -1.8
v 0.1 0.7 1.7
v 0.1 0.7 1.5
v 0.1 0.7 1.3
v 0.1 0.7 1.2
v 0.1 0.7 1.1
v 0.1 0.7 1
v 0.1 0.7 0.9
v 0.1 0.7 0.8
v 0.1 0.7 0.7
v 0.1 0.7 0.6
v 0.1 0.7 0.3
v 0.1 0.7 0.2
v 0.1 0.7 -1.6
v 0.1 0.7 -1.7
v 0.2 0.3 0.2
v 0.2 0.3 -1.6
v 0.2 0.4 1.7
v 0.2 0.4 1.5
v 0.2 0.4 1.3
v 0.2 0.4 1.2
v 0.2 0.4 1.1
v 0.2 0.4 1
v 0.2 0.4 0.9
v 0.2 0.4 0.8
v 0.2 0.4 0.7
v 0.2 0.4 0.2
v 0.2 0.4 -1.6
v 0.2 0.4 -1.7
v 0.2 0.6 1.7
v 0.2 0.6 1.5
v 0.2 0.6 1.3
v 0.2 0.6 1.2
v 0.2 0.6 1.1
v 0.2 0.6 1
v 0.2 0.6 0.9
v 0.2 0.6 0.8
v 0.2 0.6 0.7
v 0.2 0.6 0.2
v 0.2 0.6 -1.6
v 0.2 0.6 -1.7
v 0.2 0.7 0.2
v 0.2 0.7 -1.6
v 0.3 0.3 0.6
v 0.3 0.3 0.3
v 0.3 0.4 0.7
v 0.3 0.4 0.6
v 0.3 0.4 0.3
v 0.3 0.4 -1.6
v 0.3 0.6 0.7
v 0.3 0.6 0.6
v 0.3 0.6 0.3
v 0.3 0.6 -1.6
v 0.3 0.7 0.6
v 0.3 0.7 0.3
v 0.4 0.4 0.6
v 0.4 0.4 0.3
v 0.4 0.6 0.6
v 0.4 0.6 0.3
v -0.1 0.4 1.8
v -0.1 0.6 1.8
v 0.1 0.4 1.8
v 0.1 0.6 1.8
v -0.2 0.4 1.7
v -0.2 0.6 1.7
v -0.1 0.3 1.7
v -0.1 0.4 1.7
v -0.1 0.6 1.7
v -0.1 0.7 1.7
v 0.1 0.3 1.7
v 0.1 0.4 1.7
v 0.1 0.6 1.7
v 0.1 0.7 1.7
v 0.2 0.4 1.7
v 0.2 0.6 1.7
v -0.2 0.4 1.3
v -0.2 0.6 1.3
v -0.1 0.3 1.3
v -0.1 0.4 1.3
v -0.1 0.6 1.3
v -0.1 0.7 1.3
v 0.1 0.3 1.3
v 0.1 0.4 1.3
v 0.1 0.6 1.3
v 0.1 0.7 1.3
v 0.2 0.4 1.3
v 0.2 0.6 1.3
v -0.3 0.4 0.7
v -0.3 0.6 0.7
v -0.2 0.4 0.7
v -0.2 0.6 0.7
v -0.1 0.3 0.7
v -0.1 0.4 0.7
v -0.1 0.6 0.7
v -0.1 0.7 0.7
v 0.1 0.3 0.7
v 0.1 0.4 0.7
v 0.1 0.6 0.7
v 0.1 0.7 0.7
v 0.2 0.4 0.7
v 0.2 0.6 0.7
v 0.3 0.4 0.7
v 0.3 0.6 0.7
v -0.4 0.4 0.6
v -0.4 0.6 0.6
v -0.3 0.3 0.6
v -0.3 0.4 0.6
v -0.3 0.6 0.6
v -0.3 0.7 0.6
v -0.1 0.3 0.6
v -0.1 0.4 0.6
v -0.1 0.6 0.6
v -0.1 0.7 0.6
v 0.1 0.3 0.6
v 0.1 0.4 0.6
v 0.1 0.6 0.6
v 0.1 0.7 0.6
v 0.3 0.3 0.6
v 0.3 0.4 0.6
v 0.3 0.6 0.6
v 0.3 0.7 0.6
v 0.4 0.4 0.6
v 0.4 0.6 0.6
v -0.1 0.3 0.3
v -0.1 0.4 0.3
v -0.1 0.6 0.3
v -0.1 0.7 0.3
v 0.1 0.3 0.3
v 0.1 0.4 0.3
v 0.1 0.6 0.3
v 0.1 0.7 0.3
v -0.2 0.3 0.2
v -0.2 0.4 0.2
v -0.2 0.6 0.2
v -0.2 0.7 0.2
v -0.1 0.3 0.2
v -0.1 0.4 0.2
v -0.1 0.6 0.2
v -0.1 0.7 0.2
v 0.1 0.3 0.2
v 0.1 0.4 0.2
v 0.1 0.6 0.2
v 0.1 0.7 0.2
v 0.2 0.3 0.2
v 0.2 0.4 0.2
v 0.2 0.6 0.2
v 0.2 0.7 0.2
v -0.2 0.4 1.5
v -0.2 0.6 1.5
v -0.1 0.3 1.5
v -0.1 0.4 1.5
v -0.1 0.6 1.5
v -0.1 0.7 1.5
v 0.1 0.3 1.5
v 0.1 0.4 1.5
v 0.1 0.6 1.5
v 0.1 0.7 1.5
v 0.2 0.4 1.5
v 0.2 0.6 1.5
v -0.1 0.3 0.8
v -0.1 0.4 0.8
v -0.1 0.6 0.8
v -0.1 0.7 0.8
v 0.1 0.3 0.8
v 0.1 0.4 0.8
v 0.1 0.6 0.8
v 0.1 0.7 0.8
v -0.1 0.3 0.5
v -0.1 0.4 0.5
v -0.1 0.6 0.5
v -0.1 0.7 0.5
v 0.1 0.3 0.5
v 0.1 0.4 0.5
v 0.1 0.6 0.5
v 0.1 0.7 0.5
v -0.2 0.3 0.4
v -0.2 0.4 0.4
v -0.2 0.6 0.4
v -0.2 0.7 0.4
v -0.1 0.3 0.4
v -0.1 0.4 0.4
v -0.1 0.6 0.4
v -0.1 0.7 0.4
v 0.1 0.3 0.4
v 0.1 0.4 0.4
v 0.1 0.6 0.4
v 0.1 0.7 0.4
v 0.2 0.3 0.4
v 0.2 0.4 0.4
v 0.2 0.6 0.4
v 0.2 0.7 0.4
v -0.4 0.4 0.3
v -0.4 0.6 0.3
v -0.3 0.3 0.3
v -0.3 0.4 0.3
v -0.3 0.6 0.3
v -0.3 0.7 0.3
v -0.2 0.3 0.3
v -0.2 0.4 0.3
v -0.2 0.6 0.3
v -0.2 0.7 0.3
v 0.2 0.3 0.3
v 0.2 0.4 0.3
v 0.2 0.6 0.3
v 0.2 0.7 0.3
v 0.3 0.3 0.3
v 0.3 0.4 0.3
v 0.3 0.6 0.3
v 0.3 0.7 0.3
v 0.4 0.4 0.3
v 0.4 0.6 0.3
v -0.3 0.4 -1.6
v -0.3 0.6 -1.6
v -0.2 0.3 -1.6
v -0.2 0.4 -1.6
v -0.2 0.6 -1.6
v -0.2 0.7 -1.6
v -0.1 0.3 -1.6
v -0.1 0.4 -1.6
v -0.1 0.6 -1.6
v -0.1 0.7 -1.6
v 0.1 0.3 -1.6
v 0.1 0.4 -1.6
v 0.1 0.6 -1.6
v 0.1 0.7 -1.6
v 0.2 0.3 -1.6
v 0.2 0.4 -1.6
v 0.2 0.6 -1.6
v 0.2 0.7 -1.6
v 0.3 0.4 -1.6
v 0.3 0.6 -1.6
v -0.2 0.4 -1.7
v -0.2 0.6 -1.7
v -0.1 0.3 -1.7
v -0.1 0.4 -1.7
v -0.1 0.6 -1.7
v -0.1 0.7 -1.7
v 0.1 0.3 -1.7
v 0.1 0.4 -1.7
v 0.1 0.6 -1.7
v 0.1 0.7 -1.7
v 0.2 0.4 -1.7
v 0.2 0.6 -1.7
v -0.1 0.4 -1.8
v -0.1 0.6 -1.8
v 0.1 0.4 -1.8
v 0.1 0.6 -1.8
v -0.1 0.3 1.7
v 0.1 0.3 1.7
v -0.1 0.3 1.5
v 0.1 0.3 1.5
v -0.1 0.3 1.3
v 0.1 0.3 1.3
v -0.1 0.3 1.2
v 0.1 0.3 1.2
v -0.1 0.3 1.1
v 0.1 0.3 1.1
v -0.1 0.3 1
v 0.1 0.3 1
v -0.1 0.3 0.9
v 0.1 0.3 0.9
v -0.1 0.3 0.8
v 0.1 0.3 0.8
v -0.1 0.3 0.7
v 0.1 0.3 0.7
v -0.3 0.3 0.6
v -0.1 0.3 0.6
v 0.1 0.3 0.6
v 0.3 0.3 0.6
v -0.1 0.3 0.5
v 0.1 0.3 0.5
v -0.2 0.3 0.4
v -0.1 0.3 0.4
v 0.1 0.3 0.4
v 0.2 0.3 0.4
v -0.3 0.3 0.3
v -0.2 0.3 0.3
v -0.1 0.3 0.3
v 0.1 0.3 0.3
v 0.2 0.3 0.3
v 0.3 0.3 0.3
v -0.2 0.3 0.2
v -0.1 0.3 0.2
v 0.1 0.3 0.2
v 0.2 0.3 0.2
v -0.2 0.3 -1.6
v -0.1 0.3 -1.6
v 0.1 0.3 -1.6
v 0.2 0.3 -1.6
v -0.1 0.3 -1.7
v 0.1 0.3 -1.7
v -0.1 0.4 1.8
v 0.1 0.4 1.8
v -0.2 0.4 1.7
v -0.1 0.4 1.7
v 0.1 0.4 1.7
v 0.2 0.4 1.7
v -0.2 0.4 1.5
v -0.1 0.4 1.5
v 0.1 0.4 1.5
v 0.2 0.4 1.5
v -0.1 0.4 1.4
v 0.1 0.4 1.4
v -0.2 0.4 1.3
v -0.1 0.4 1.3
v 0.1 0.4 1.3
v 0.2 0.4 1.3
v -0.2 0.4 1.2
v -0.1 0.4 1.2
v 0.1 0.4 1.2
v 0.2 0.4 1.2
v -0.2 0.4 1.1
v -0.1 0.4 1.1
v 0.1 0.4 1.1
v 0.2 0.4 1.1
v -0.2 0.4 1
v -0.1 0.4 1
v 0.1 0.4 1
v 0.2 0.4 1
v -0.2 0.4 0.9
v -0.1 0.4 0.9
v 0.1 0.4 0.9
v 0.2 0.4 0.9
v -0.2 0.4 0.8
v -0.1 0.4 0.8
v 0.1 0.4 0.8
v 0.2 0.4 0.8
v -0.3 0.4 0.7
v -0.2 0.4 0.7
v -0.1 0.4 0.7
v 0.1 0.4 0.7
v 0.2 0.4 0.7
v 0.3 0.4 0.7
v -0.4 0.4 0.6
v -0.3 0.4 0.6
v -0.1 0.4 0.6
v 0.1 0.4 0.6
v 0.3 0.4 0.6
v 0.4 0.4 0.6
v -0.1 0.4 0.5
v 0.1 0.4 0.5
v -0.2 0.4 0.4
v -0.1 0.4 0.4
v 0.1 0.4 0.4
v 0.2 0.4 0.4
v -0.4 0.4 0.3
v -0.3 0.4 0.3
v -0.2 0.4 0.3
v -0.1 0.4 0.3
v 0.1 0.4 0.3
v 0.2 0.4 0.3
v 0.3 0.4 0.3
v 0.4 0.4 0.3
v -0.2 0.4 0.2
v -0.1 0.4 0.2
v 0.1 0.4 0.2
v 0.2 0.4 0.2
v -0.3 0.4 -1.6
v -0.2 0.4 -1.6
v -0.1 0.4 -1.6
v 0.1 0.4 -1.6
v 0.2 0.4 -1.6
v 0.3 0.4 -1.6
v -0.2 0.4 -1.7
v -0.1 0.4 -1.7
v 0.1 0.4 -1.7
v 0.2 0.4 -1.7
v -0.1 0.4 -1.8
v 0.1 0.4 -1.8
v -0.1 0.6 1.8
v 0.1 0.6 1.8
v -0.2 0.6 1.7
v -0.1 0.6 1.7
v 0.1 0.6 1.7
v 0.2 0.6 1.7
v -0.2 0.6 1.5
v -0.1 0.6 1.5
v 0.1 0.6 1.5
v 0.2 0.6 1.5
v -0.1 0.6 1.4
v 0.1 0.6 1.4
v -0.2 0.6 1.3
v -0.1 0.6 1.3
v 0.1 0.6 1.3
v 0.2 0.6 1.3
v -0.2 0.6 1.2
v -0.1 0.6 1.2
v 0.1 0.6 1.2
v 0.2 0.6 1.2
v -0.2 0.6 1.1
v -0.1 0.6 1.1
v 0.1 0.6 1.1
v 0.2 0.6 1.1
v -0.2 0.6 1
v -0.1 0.6 1
v 0.1 0.6 1
v 0.2 0.6 1
v -0.2 0.6 0.9
v -0.1 0.6 0.9
v 0.1 0.6 0.9
v 0.2 0.6 0.9
v -0.2 0.6 0.8
v -0.1 0.6 0.8
v 0.1 0.6 0.8
v 0.2 0.6 0.8
v -0.3 0.6 0.7
v -0.2 0.6 0.7
v -0.1 0.6 0.7
v 0.1 0.6 0.7
v 0.2 0.6 0.7
v 0.3 0.6 0.7
v -0.4 0.6 0.6
v -0.3 0.6 0.6
v -0.1 0.6 0.6
v 0.1 0.6 0.6
v 0.3 0.6 0.6
v 0.4 0.6 0.6
v -0.1 0.6 0.5
v 0.1 0.6 0.5
v -0.2 0.6 0.4
v -0.1 0.6 0.4
v 0.1 0.6 0.4
v 0.2 0.6 0.4
v -0.4 0.6 0.3
v -0.3 0.6 0.3
v -0.2 0.6 0.3
v -0.1 0.6 0.3
v 0.1 0.6 0.3
v 0.2 0.6 0.3
v 0.3 0.6 0.3
v 0.4 0.6 0.3
v -0.2 0.6 0.2
v -0.1 0.6 0.2
v 0.1 0.6 0.2
v 0.2 0.6 0.2
v -0.3 0.6 -1.6
v -0.2 0.6 -1.6
v -0.1 0.6 -1.6
v 0.1 0.6 -1.6
v 0.2 0.6 -1.6
v 0.3 0.6 -1.6
v -0.2 0.6 -1.7
v -0.1 0.6 -1.7
v 0.1 0.6 -1.7
v 0.2 0.6 -1.7
v -0.1 0.6 -1.8
v 0.1 0.6 -1.8
v -0.1 0.7 1.7
v 0.1 0.7 1.7
v -0.1 0.7 1.5
v 0.1 0.7 1.5
v -0.1 0.7 1.3
v 0.1 0.7 1.3
v -0.1 0.7 1.2
v 0.1 0.7 1.2
v -0.1 0.7 1.1
v 0.1 0.7 1.1
v -0.1 0.7 1
v 0.1 0.7 1
v -0.1 0.7 0.9
v 0.1 0.7 0.9
v -0.1 0.7 0.8
v 0.1 0.7 0.8
v -0.1 0.7 0.7
v 0.1 0.7 0.7
v -0.3 0.7 0.6
v -0.1 0.7 0.6
v 0.1 0.7 0.6
v 0.3 0.7 0.6
v -0.1 0.7 0.5
v 0.1 0.7 0.5
v -0.2 0.7 0.4
v -0.1 0.7 0.4
v 0.1 0.7 0.4
v 0.2 0.7 0.4
v -0.3 0.7 0.3
v -0.2 0.7 0.3
v -0.1 0.7 0.3
v 0.1 0.7 0.3
v 0.2 0.7 0.3
v 0.3 0.7 0.3
v -0.2 0.7 0.2
v -0.1 0.7 0.2
v 0.1 0.7 0.2
v 0.2 0.7 0.2
v -0.2 0.7 -1.6
v -0.1 0.7 -1.6
v 0.1 0.7 -1.6
v 0.2 0.7 -1.6
v -0.1 0.7 -1.7
v 0.1 0.7 -1.7

# faces
f 3/5/1 2/5/1 1/5/1
f 4/5/1 2/5/1 3/5/1
f 8/6/1 6/6/1 5/6/1
f 9/6/1 6/6/1 8/6/1
f 11/5/1 8/5/1 7/5/1
f 12/5/1 8/5/1 11/5/1
f 13/5/1 10/5/1 9/5/1
f 14/5/1 10/5/1 13/5/1
f 15/6/1 13/6/1 12/6/1
f 16/6/1 13/6/1 15/6/1
f 28/3/1 18/3/1 17/3/1
f 29/3/1 18/3/1 28/3/1
f 31/5/1 20/5/1 19/5/1
f 32/5/1 20/5/1 31/5/1
f 33/2/1 22/2/1 21/2/1
f 34/1/1 23/1/1 22/1/1
f 34/2/1 22/2/1 33/2/1
f 35/2/1 24/2/1 23/2/1
f 35/1/1 23/1/1 34/1/1
f 36/1/1 25/1/1 24/1/1
f 36/2/1 24/2/1 35/2/1
f 37/2/1 26/2/1 25/2/1
f 37/1/1 25/1/1 36/1/1
f 38/1/1 27/1/1 26/1/1
f 38/2/1 26/2/1 37/2/1
f 39/1/1 27/1/1 38/1/1
f 41/5/1 30/5/1 29/5/1
f 42/5/1 30/5/1 41/5/1
f 43/3/1 41/3/1 40/3/1
f 44/3/1 41/3/1 43/3/1
f 60/6/1 46/6/1 45/6/1
f 61/6/1 46/6/1 60/6/1
f 63/2/1 48/2/1 47/2/1
f 64/1/1 49/1/1 48/1/1
f 64/2/1 48/2/1 63/2/1
f 65/2/1 50/2/1 49/2/1
f 65/1/1 49/1/1 64/1/1
f 66/1/1 51/1/1 50/1/1
f 66/2/1 50/2/1 65/2/1
f 67/2/1 52/2/1 51/2/1
f 67/1/1 51/1/1 66/1/1
f 68/2/1 52/2/1 67/2/1
f 69/6/1 54/6/1 53/6/1
f 70/6/1 54/6/1 69/6/1
f 71/3/1 56/3/1 55/3/1
f 72/3/1 56/3/1 71/3/1
f 73/3/1 58/3/1 57/3/1
f 74/3/1 58/3/1 73/3/1
f 76/5/1 60/5/1 59/5/1
f 77/5/1 60/5/1 76/5/1
f 78/5/1 62/5/1 61/5/1
f 79/1/1 63/1/1 62/1/1
f 79/5/1 62/5/1 78/5/1
f 80/1/1 63/1/1 79/1/1
f 91/5/1 75/5/1 74/5/1
f 92/5/1 75/5/1 91/5/1
f 93/6/1 78/6/1 77/6/1
f 94/6/1 78/6/1 93/6/1
f 95/2/1 81/2/1 80/2/1
f 96/1/1 82/1/1 81/1/1
f 96/2/1 81/2/1 95/2/1
f 97/2/1 83/2/1 82/2/1
f 97/1/1 82/1/1 96/1/1
f 98/1/1 84/1/1 83/1/1
f 98/2/1 83/2/1 97/2/1
f 99/2/1 85/2/1 84/2/1
f 99/1/1 84/1/1 98/1/1
f 100/2/1 85/2/1 99/2/1
f 101/6/1 87/6/1 86/6/1
f 102/6/1 87/6/1 101/6/1
f 103/3/1 89/3/1 88/3/1
f 104/3/1 89/3/1 103/3/1
f 105/3/1 91/3/1 90/3/1
f 106/3/1 91/3/1 105/3/1
f 109/6/1 108/6/1 107/6/1
f 110/6/1 108/6/1 109/6/1
f 113/6/1 112/6/1 111/6/1
f 114/6/1 112/6/1 113/6/1
f 117/6/1 116/6/1 115/6/1
f 118/6/1 116/6/1 117/6/1
f 121/6/1 120/6/1 119/6/1
f 122/6/1 120/6/1 121/6/1
f 123/6/2 124/6/2 125/6/2
f 125/6/2 124/6/2 126/6/2
f 127/6/2 128/6/2 129/6/2
f 129/6/2 128/6/2 130/6/2
f 131/6/2 132/6/2 133/6/2
f 133/6/2 132/6/2 134/6/2
f 135/6/2 136/6/2 137/6/2
f 137/6/2 136/6/2 138/6/2
f 139/6/2 140/6/2 154/6/2
f 154/6/2 140/6/2 155/6/2
f 141/2/2 142/2/2 157/2/2
f 142/1/2 143/1/2 158/1/2
f 157/2/2 142/2/2 158/2/2
f 143/2/2 144/2/2 159/2/2
f 158/1/2 143/1/2 159/1/2
f 144/1/2 145/1/2 160/1/2
f 159/2/2 144/2/2 160/2/2
f 145/2/2 146/2/2 161/2/2
f 160/1/2 145/1/2 161/1/2
f 161/2/2 146/2/2 162/2/2
f 147/6/2 148/6/2 163/6/2
f 163/6/2 148/6/2 164/6/2
f 149/3/2 150/3/2 165/3/2
f 165/3/2 150/3/2 166/3/2
f 151/3/2 152/3/2 167/3/2
f 167/3/2 152/3/2 168/3/2
f 153/5/2 154/5/2 170/5/2
f 170/5/2 154/5/2 171/5/2
f 155/5/2 156/5/2 172/5/2
f 156/1/2 157/1/2 173/1/2
f 172/5/2 156/5/2 173/5/2
f 173/1/2 157/1/2 174/1/2
f 168/5/2 169/5/2 185/5/2
f 185/5/2 169/5/2 186/5/2
f 171/6/2 172/6/2 187/6/2
f 187/6/2 172/6/2 188/6/2
f 174/2/2 175/2/2 189/2/2
f 175/1/2 176/1/2 190/1/2
f 189/2/2 175/2/2 190/2/2
f 176/2/2 177/2/2 191/2/2
f 190/1/2 176/1/2 191/1/2
f 177/1/2 178/1/2 192/1/2
f 191/2/2 177/2/2 192/2/2
f 178/2/2 179/2/2 193/2/2
f 192/1/2 178/1/2 193/1/2
f 193/2/2 179/2/2 194/2/2
f 180/6/2 181/6/2 195/6/2
f 195/6/2 181/6/2 196/6/2
f 182/3/2 183/3/2 197/3/2
f 197/3/2 183/3/2 198/3/2
f 184/3/2 185/3/2 199/3/2
f 199/3/2 185/3/2 200/3/2
f 201/3/2 202/3/2 212/3/2
f 212/3/2 202/3/2 213/3/2
f 203/5/2 204/5/2 215/5/2
f 215/5/2 204/5/2 216/5/2
f 205/2/2 206/2/2 217/2/2
f 206/1/2 207/1/2 218/1/2
f 217/2/2 206/2/2 218/2/2
f 207/2/2 208/2/2 219/2/2
f 218/1/2 207/1/2 219/1/2
f 208/1/2 209/1/2 220/1/2
f 219/2/2 208/2/2 220/2/2
f 209/2/2 210/2/2 221/2/2
f 220/1/2 209/1/2 221/1/2
f 210/1/2 211/1/2 222/1/2
f 221/2/2 210/2/2 222/2/2
f 222/1/2 211/1/2 223/1/2
f 213/5/2 214/5/2 225/5/2
f 225/5/2 214/5/2 226/5/2
f 224/3/2 225/3/2 227/3/2
f 227/3/2 225/3/2 228/3/2
f 229/6/2 230/6/2 232/6/2
f 232/6/2 230/6/2 233/6/2
f 231/5/2 232/5/2 235/5/2
f 235/5/2 232/5/2 236/5/2
f 233/5/2 234/5/2 237/5/2
f 237/5/2 234/5/2 238/5/2
f 236/6/2 237/6/2 239/6/2
f 239/6/2 237/6/2 240/6/2
f 241/5/2 242/5/2 243/5/2
f 243/5/2 242/5/2 244/5/2
f 247/5/3 246/5/3 245/5/3
f 248/5/3 246/5/3 247/5/3
f 252/5/3 250/5/3 249/5/3
f 253/5/3 250/5/3 252/5/3
f 255/6/3 252/6/3 251/6/3
f 256/6/3 252/6/3 255/6/3
f 257/6/3 254/6/3 253/6/3
f 258/6/3 254/6/3 257/6/3
f 259/5/3 257/5/3 256/5/3
f 260/5/3 257/5/3 259/5/3
f 264/2/3 262/2/3 261/2/3
f 265/2/3 262/2/3 264/2/3
f 267/2/3 264/2/3 263/2/3
f 268/2/3 264/2/3 267/2/3
f 269/2/3 266/2/3 265/2/3
f 270/2/3 266/2/3 269/2/3
f 271/2/3 269/2/3 268/2/3
f 272/2/3 269/2/3 271/2/3
f 275/5/3 274/5/3 273/5/3
f 276/5/3 274/5/3 275/5/3
f 281/6/3 278/6/3 277/6/3
f 282/6/3 278/6/3 281/6/3
f 283/6/3 280/6/3 279/6/3
f 284/6/3 280/6/3 283/6/3
f 287/5/3 286/5/3 285/5/3
f 288/5/3 286/5/3 287/5/3
f 292/5/3 290/5/3 289/5/3
f 293/5/3 290/5/3 292/5/3
f 295/6/3 292/6/3 291/6/3
f 296/6/3 292/6/3 295/6/3
f 297/6/3 294/6/3 293/6/3
f 298/6/3 294/6/3 297/6/3
f 303/6/3 300/6/3 299/6/3
f 304/6/3 300/6/3 303/6/3
f 305/6/3 302/6/3 301/6/3
f 306/6/3 302/6/3 305/6/3
f 307/5/3 305/5/3 304/5/3
f 308/5/3 305/5/3 307/5/3
f 313/3/3 310/3/3 309/3/3
f 314/3/3 310/3/3 313/3/3
f 315/3/3 312/3/3 311/3/3
f 316/3/3 312/3/3 315/3/3
f 321/3/3 318/3/3 317/3/3
f 322/3/3 318/3/3 321/3/3
f 323/3/3 320/3/3 319/3/3
f 324/3/3 320/3/3 323/3/3
f 329/3/3 326/3/3 325/3/3
f 330/3/3 326/3/3 329/3/3
f 331/3/3 328/3/3 327/3/3
f 332/3/3 328/3/3 331/3/3
f 333/5/4 334/5/4 336/5/4
f 336/5/4 334/5/4 337/5/4
f 335/6/4 336/6/4 339/6/4
f 339/6/4 336/6/4 340/6/4
f 337/6/4 338/6/4 341/6/4
f 341/6/4 338/6/4 342/6/4
f 340/5/4 341/5/4 343/5/4
f 343/5/4 341/5/4 344/5/4
f 345/2/4 346/2/4 349/2/4
f 349/2/4 346/2/4 350/2/4
f 347/2/4 348/2/4 351/2/4
f 351/2/4 348/2/4 352/2/4
f 353/6/4 354/6/4 357/6/4
f 357/6/4 354/6/4 358/6/4
f 355/6/4 356/6/4 359/6/4
f 359/6/4 356/6/4 360/6/4
f 361/6/4 362/6/4 365/6/4
f 365/6/4 362/6/4 366/6/4
f 363/6/4 364/6/4 367/6/4
f 367/6/4 364/6/4 368/6/4
f 369/6/4 370/6/4 373/6/4
f 373/6/4 370/6/4 374/6/4
f 371/6/4 372/6/4 375/6/4
f 375/6/4 372/6/4 376/6/4
f 377/5/4 378/5/4 380/5/4
f 380/5/4 378/5/4 381/5/4
f 379/6/4 380/6/4 383/6/4
f 383/6/4 380/6/4 384/6/4
f 381/6/4 382/6/4 385/6/4
f 385/6/4 382/6/4 386/6/4
f 387/6/4 388/6/4 391/6/4
f 391/6/4 388/6/4 392/6/4
f 389/6/4 390/6/4 393/6/4
f 393/6/4 390/6/4 394/6/4
f 392/5/4 393/5/4 395/5/4
f 395/5/4 393/5/4 396/5/4
f 397/5/4 398/5/4 400/5/4
f 400/5/4 398/5/4 401/5/4
f 399/3/4 400/3/4 403/3/4
f 403/3/4 400/3/4 404/3/4
f 401/3/4 402/3/4 405/3/4
f 405/3/4 402/3/4 406/3/4
f 407/3/4 408/3/4 411/3/4
f 411/3/4 408/3/4 412/3/4
f 409/3/4 410/3/4 413/3/4
f 413/3/4 410/3/4 414/3/4
f 412/5/4 413/5/4 415/5/4
f 415/5/4 413/5/4 416/5/4
f 417/5/4 418/5/4 420/5/4
f 420/5/4 418/5/4 421/5/4
f 419/3/4 420/3/4 423/3/4
f 423/3/4 420/3/4 424/3/4
f 421/3/4 422/3/4 425/3/4
f 425/3/4 422/3/4 426/3/4
f 424/5/4 425/5/4 427/5/4
f 427/5/4 425/5/4 428/5/4
f 429/5/4 430/5/4 431/5/4
f 431/5/4 430/5/4 432/5/4
f 435/6/5 434/6/5 433/6/5
f 436/6/5 434/6/5 435/6/5
f 439/2/5 438/2/5 437/2/5
f 440/2/5 438/2/5 439/2/5
f 441/1/5 440/1/5 439/1/5
f 442/1/5 440/1/5 441/1/5
f 443/2/5 442/2/5 441/2/5
f 444/2/5 442/2/5 443/2/5
f 445/1/5 444/1/5 443/1/5
f 446/1/5 444/1/5 445/1/5
f 447/2/5 446/2/5 445/2/5
f 448/2/5 446/2/5 447/2/5
f 452/6/5 450/6/5 449/6/5
f 453/6/5 450/6/5 452/6/5
f 455/6/5 453/6/5 452/6/5
f 455/6/5 454/6/5 453/6/5
f 455/6/5 452/6/5 451/6/5
f 456/6/5 454/6/5 455/6/5
f 457/6/5 455/6/5 451/6/5
f 458/6/5 455/6/5 457/6/5
f 459/6/5 454/6/5 456/6/5
f 460/6/5 454/6/5 459/6/5
f 461/6/5 457/6/5 451/6/5
f 462/6/5 457/6/5 461/6/5
f 465/6/5 454/6/5 460/6/5
f 466/6/5 454/6/5 465/6/5
f 468/3/5 464/3/5 463/3/5
f 469/3/5 464/3/5 468/3/5
f 471/3/5 468/3/5 467/3/5
f 472/4/5 469/4/5 468/4/5
f 472/3/5 468/3/5 471/3/5
f 473/3/5 470/3/5 469/3/5
f 473/4/5 469/4/5 472/4/5
f 474/3/5 470/3/5 473/3/5
f 475/3/5 473/3/5 472/3/5
f 476/3/5 473/3/5 475/3/5
f 480/5/5 478/5/5 477/5/5
f 481/5/5 478/5/5 480/5/5
f 483/5/5 480/5/5 479/5/5
f 484/5/5 480/5/5 483/5/5
f 485/5/5 482/5/5 481/5/5
f 486/5/5 482/5/5 485/5/5
f 487/5/5 485/5/5 484/5/5
f 488/5/5 485/5/5 487/5/5
f 490/1/5 488/1/5 487/1/5
f 491/1/5 488/1/5 490/1/5
f 493/2/5 490/2/5 489/2/5
f 494/2/5 490/2/5 493/2/5
f 495/2/5 492/2/5 491/2/5
f 496/2/5 492/2/5 495/2/5
f 497/1/5 494/1/5 493/1/5
f 498/1/5 494/1/5 497/1/5
f 499/1/5 496/1/5 495/1/5
f 500/1/5 496/1/5 499/1/5
f 501/2/5 498/2/5 497/2/5
f 502/2/5 498/2/5 501/2/5
f 503/2/5 500/2/5 499/2/5
f 504/2/5 500/2/5 503/2/5
f 505/1/5 502/1/5 501/1/5
f 506/1/5 502/1/5 505/1/5
f 507/1/5 504/1/5 503/1/5
f 508/1/5 504/1/5 507/1/5
f 509/2/5 506/2/5 505/2/5
f 510/2/5 506/2/5 509/2/5
f 511/2/5 508/2/5 507/2/5
f 512/2/5 508/2/5 511/2/5
f 514/1/5 510/1/5 509/1/5
f 515/5/5 511/5/5 510/5/5
f 515/1/5 510/1/5 514/1/5
f 516/1/5 512/1/5 511/1/5
f 516/5/5 511/5/5 515/5/5
f 517/1/5 512/1/5 516/1/5
f 520/5/5 515/5/5 514/5/5
f 520/5/5 514/5/5 513/5/5
f 521/5/5 515/5/5 520/5/5
f 522/5/5 517/5/5 516/5/5
f 522/5/5 518/5/5 517/5/5
f 523/5/5 518/5/5 522/5/5
f 528/7/5 526/7/5 525/7/5
f 529/7/5 526/7/5 528/7/5
f 531/5/5 520/5/5 519/5/5
f 532/5/5 520/5/5 531/5/5
f 533/7/5 528/7/5 527/7/5
f 534/6/5 529/6/5 528/6/5
f 534/7/5 528/7/5 533/7/5
f 535/7/5 530/7/5 529/7/5
f 535/6/5 529/6/5 534/6/5
f 536/7/5 530/7/5 535/7/5
f 537/5/5 524/5/5 523/5/5
f 538/5/5 524/5/5 537/5/5
f 539/6/5 534/6/5 533/6/5
f 539/5/5 533/5/5 532/5/5
f 540/6/5 534/6/5 539/6/5
f 541/6/5 536/6/5 535/6/5
f 542/5/5 537/5/5 536/5/5
f 542/6/5 536/6/5 541/6/5
f 543/5/5 539/5/5 532/5/5
f 544/5/5 539/5/5 543/5/5
f 547/5/5 537/5/5 542/5/5
f 548/5/5 537/5/5 547/5/5
f 549/5/5 545/5/5 544/5/5
f 550/5/5 545/5/5 549/5/5
f 551/5/5 547/5/5 546/5/5
f 552/5/5 547/5/5 551/5/5
f 553/5/5 551/5/5 550/5/5
f 554/5/5 551/5/5 553/5/5
f 555/5/6 556/5/6 558/5/6
f 558/5/6 556/5/6 559/5/6
f 557/5/6 558/5/6 561/5/6
f 561/5/6 558/5/6 562/5/6
f 559/5/6 560/5/6 563/5/6
f 563/5/6 560/5/6 564/5/6
f 562/5/6 563/5/6 565/5/6
f 565/5/6 563/5/6 566/5/6
f 565/1/6 566/1/6 568/1/6
f 568/1/6 566/1/6 569/1/6
f 567/2/6 568/2/6 571/2/6
f 571/2/6 568/2/6 572/2/6
f 569/2/6 570/2/6 573/2/6
f 573/2/6 570/2/6 574/2/6
f 571/1/6 572/1/6 575/1/6
f 575/1/6 572/1/6 576/1/6
f 573/1/6 574/1/6 577/1/6
f 577/1/6 574/1/6 578/1/6
f 575/2/6 576/2/6 579/2/6
f 579/2/6 576/2/6 580/2/6
f 577/2/6 578/2/6 581/2/6
f 581/2/6 578/2/6 582/2/6
f 579/1/6 580/1/6 583/1/6
f 583/1/6 580/1/6 584/1/6
f 581/1/6 582/1/6 585/1/6
f 585/1/6 582/1/6 586/1/6
f 583/2/6 584/2/6 587/2/6
f 587/2/6 584/2/6 588/2/6
f 585/2/6 586/2/6 589/2/6
f 589/2/6 586/2/6 590/2/6
f 587/1/6 588/1/6 592/1/6
f 588/5/6 589/5/6 593/5/6
f 592/1/6 588/1/6 593/1/6
f 589/1/6 590/1/6 594/1/6
f 593/5/6 589/5/6 594/5/6
f 594/1/6 590/1/6 595/1/6
f 592/5/6 593/5/6 598/5/6
f 591/5/6 592/5/6 598/5/6
f 598/5/6 593/5/6 599/5/6
f 594/5/6 595/5/6 600/5/6
f 595/5/6 596/5/6 600/5/6
f 600/5/6 596/5/6 601/5/6
f 603/7/6 604/7/6 606/7/6
f 606/7/6 604/7/6 607/7/6
f 597/5/6 598/5/6 609/5/6
f 609/5/6 598/5/6 610/5/6
f 605/7/6 606/7/6 611/7/6
f 606/6/6 607/6/6 612/6/6
f 611/7/6 606/7/6 612/7/6
f 607/7/6 608/7/6 613/7/6
f 612/6/6 607/6/6 613/6/6
f 613/7/6 608/7/6 614/7/6
f 601/5/6 602/5/6 615/5/6
f 615/5/6 602/5/6 616/5/6
f 611/6/6 612/6/6 617/6/6
f 610/5/6 611/5/6 617/5/6
f 617/6/6 612/6/6 618/6/6
f 613/6/6 614/6/6 619/6/6
f 614/5/6 615/5/6 620/5/6
f 619/6/6 614/6/6 620/6/6
f 610/5/6 617/5/6 621/5/6
f 621/5/6 617/5/6 622/5/6
f 620/5/6 615/5/6 625/5/6
f 625/5/6 615/5/6 626/5/6
f 622/5/6 623/5/6 627/5/6
f 627/5/6 623/5/6 628/5/6
f 624/5/6 625/5/6 629/5/6
f 629/5/6 625/5/6 630/5/6
f 628/5/6 629/5/6 631/5/6
f 631/5/6 629/5/6 632/5/6
f 633/6/6 634/6/6 635/6/6
f 635/6/6 634/6/6 636/6/6
f 637/2/6 638/2/6 639/2/6
f 639/2/6 638/2/6 640/2/6
f 639/1/6 640/1/6 641/1/6
f 641/1/6 640/1/6 642/1/6
f 641/2/6 642/2/6 643/2/6
f 643/2/6 642/2/6 644/2/6
f 643/1/6 644/1/6 645/1/6
f 645/1/6 644/1/6 646/1/6
f 645/2/6 646/2/6 647/2/6
f 647/2/6 646/2/6 648/2/6
f 649/6/6 650/6/6 652/6/6
f 652/6/6 650/6/6 653/6/6
f 652/6/6 653/6/6 655/6/6
f 653/6/6 654/6/6 655/6/6
f 651/6/6 652/6/6 655/6/6
f 655/6/6 654/6/6 656/6/6
f 651/6/6 655/6/6 657/6/6
f 657/6/6 655/6/6 658/6/6
f 656/6/6 654/6/6 659/6/6
f 659/6/6 654/6/6 660/6/6
f 651/6/6 657/6/6 661/6/6
f 661/6/6 657/6/6 662/6/6
f 660/6/6 654/6/6 665/6/6
f 665/6/6 654/6/6 666/6/6
f 663/3/6 664/3/6 668/3/6
f 668/3/6 664/3/6 669/3/6
f 667/3/6 668/3/6 671/3/6
f 668/4/6 669/4/6 672/4/6
f 671/3/6 668/3/6 672/3/6
f 669/3/6 670/3/6 673/3/6
f 672/4/6 669/4/6 673/4/6
f 673/3/6 670/3/6 674/3/6
f 672/3/6 673/3/6 675/3/6
f 675/3/6 673/3/6 676/3/6
