# Blender 5.0.1
# www.blender.org
mtllib Normal.mtl
o Untitled
v -1.000000 0.000000 -1.000000
v -0.600000 0.000000 -1.000000
v 0.600000 -0.000000 -1.000000
v 1.000000 -0.000000 -1.000000
v -1.000000 0.200000 -1.000000
v -0.600000 0.200000 -1.000000
v 0.600000 0.200000 -1.000000
v 1.000000 0.200000 -1.000000
v -0.200000 0.600000 -1.000000
v 0.200000 0.600000 -1.000000
v -0.200000 1.000000 -1.000000
v 0.200000 1.000000 -1.000000
v -0.600000 0.000000 -0.800000
v -0.400000 0.000000 -0.800000
v 0.400000 -0.000000 -0.800000
v 0.600000 -0.000000 -0.800000
v -0.600000 0.200000 -0.800000
v -0.400000 0.200000 -0.800000
v 0.400000 0.200000 -0.800000
v 0.600000 0.200000 -0.800000
v -0.600000 0.400000 -0.800000
v 0.600000 0.400000 -0.800000
v -0.800000 0.600000 -0.800000
v -0.600000 0.600000 -0.800000
v -0.200000 0.600000 -0.800000
v 0.200000 0.600000 -0.800000
v 0.600000 0.600000 -0.800000
v 0.800000 0.600000 -0.800000
v -0.200000 1.000000 -0.800000
v 0.200000 1.000000 -0.800000
v -0.800000 1.600000 -0.800000
v -0.600000 1.600000 -0.800000
v 0.600000 1.600000 -0.800000
v 0.800000 1.600000 -0.800000
v -0.600000 1.800000 -0.800000
v 0.600000 1.800000 -0.800000
v -0.600000 0.200000 -0.600000
v -0.400000 0.200000 -0.600000
v -0.200000 0.200000 -0.600000
v 0.200000 0.200000 -0.600000
v 0.400000 0.200000 -0.600000
v 0.600000 0.200000 -0.600000
v -0.800000 0.400000 -0.600000
v -0.600000 0.400000 -0.600000
v -0.200000 0.400000 -0.600000
v 0.200000 0.400000 -0.600000
v 0.600000 0.400000 -0.600000
v 0.800000 0.400000 -0.600000
v -0.800000 0.600000 -0.600000
v -0.600000 0.600000 -0.600000
v 0.600000 0.600000 -0.600000
v 0.800000 0.600000 -0.600000
v -0.800000 1.600000 -0.600000
v -0.600000 1.600000 -0.600000
v 0.600000 1.600000 -0.600000
v 0.800000 1.600000 -0.600000
v -0.800000 1.800000 -0.600000
v -0.600000 1.800000 -0.600000
v 0.600000 1.800000 -0.600000
v 0.800000 1.800000 -0.600000
v -0.200000 1.800000 -0.400000
v 0.200000 1.800000 -0.400000
v -0.200000 2.000000 -0.400000
v 0.200000 2.000000 -0.400000
v -0.400000 1.800000 -0.200000
v -0.200000 1.800000 -0.200000
v 0.200000 1.800000 -0.200000
v 0.400000 1.800000 -0.200000
v -0.400000 2.000000 -0.200000
v -0.200000 2.000000 -0.200000
v 0.200000 2.000000 -0.200000
v 0.400000 2.000000 -0.200000
v -0.600000 0.200000 0.200000
v -0.200000 0.200000 0.200000
v 0.200000 0.200000 0.200000
v 0.600000 0.200000 0.200000
v -0.600000 0.400000 0.200000
v -0.200000 0.400000 0.200000
v 0.200000 0.400000 0.200000
v 0.600000 0.400000 0.200000
v -0.800000 0.000000 0.400000
v -0.400000 0.000000 0.400000
v 0.400000 -0.000000 0.400000
v 0.800000 -0.000000 0.400000
v -0.800000 0.200000 0.400000
v -0.600000 0.200000 0.400000
v -0.400000 0.200000 0.400000
v 0.400000 0.200000 0.400000
v 0.600000 0.200000 0.400000
v 0.800000 0.200000 0.400000
v -1.000000 0.000000 0.600000
v -0.800000 0.000000 0.600000
v 0.800000 -0.000000 0.600000
v 1.000000 -0.000000 0.600000
v -1.000000 0.200000 0.600000
v -0.800000 0.200000 0.600000
v 0.800000 0.200000 0.600000
v 1.000000 0.200000 0.600000
v -1.000000 0.000000 -0.600000
v -0.800000 0.000000 -0.600000
v 0.800000 -0.000000 -0.600000
v 1.000000 -0.000000 -0.600000
v -1.000000 0.200000 -0.600000
v -0.800000 0.200000 -0.600000
v 0.800000 0.200000 -0.600000
v 1.000000 0.200000 -0.600000
v -0.800000 0.000000 -0.400000
v -0.400000 0.000000 -0.400000
v 0.400000 -0.000000 -0.400000
v 0.800000 -0.000000 -0.400000
v -0.800000 0.200000 -0.400000
v -0.600000 0.200000 -0.400000
v -0.400000 0.200000 -0.400000
v 0.400000 0.200000 -0.400000
v 0.600000 0.200000 -0.400000
v 0.800000 0.200000 -0.400000
v -0.600000 0.200000 -0.200000
v -0.200000 0.200000 -0.200000
v 0.200000 0.200000 -0.200000
v 0.600000 0.200000 -0.200000
v -0.600000 0.400000 -0.200000
v -0.200000 0.400000 -0.200000
v 0.200000 0.400000 -0.200000
v 0.600000 0.400000 -0.200000
v -0.400000 1.800000 0.200000
v -0.200000 1.800000 0.200000
v 0.200000 1.800000 0.200000
v 0.400000 1.800000 0.200000
v -0.400000 2.000000 0.200000
v -0.200000 2.000000 0.200000
v 0.200000 2.000000 0.200000
v 0.400000 2.000000 0.200000
v -0.200000 1.800000 0.400000
v 0.200000 1.800000 0.400000
v -0.200000 2.000000 0.400000
v 0.200000 2.000000 0.400000
v -0.600000 0.200000 0.600000
v -0.400000 0.200000 0.600000
v -0.200000 0.200000 0.600000
v 0.200000 0.200000 0.600000
v 0.400000 0.200000 0.600000
v 0.600000 0.200000 0.600000
v -0.800000 0.400000 0.600000
v -0.600000 0.400000 0.600000
v -0.200000 0.400000 0.600000
v 0.200000 0.400000 0.600000
v 0.600000 0.400000 0.600000
v 0.800000 0.400000 0.600000
v -0.800000 0.600000 0.600000
v -0.600000 0.600000 0.600000
v 0.600000 0.600000 0.600000
v 0.800000 0.600000 0.600000
v -0.800000 1.600000 0.600000
v -0.600000 1.600000 0.600000
v 0.600000 1.600000 0.600000
v 0.800000 1.600000 0.600000
v -0.800000 1.800000 0.600000
v -0.600000 1.800000 0.600000
v 0.600000 1.800000 0.600000
v 0.800000 1.800000 0.600000
v -0.600000 0.000000 0.800000
v -0.400000 0.000000 0.800000
v 0.400000 -0.000000 0.800000
v 0.600000 -0.000000 0.800000
v -0.600000 0.200000 0.800000
v -0.400000 0.200000 0.800000
v 0.400000 0.200000 0.800000
v 0.600000 0.200000 0.800000
v -0.600000 0.400000 0.800000
v 0.600000 0.400000 0.800000
v -0.800000 0.600000 0.800000
v -0.600000 0.600000 0.800000
v 0.600000 0.600000 0.800000
v 0.800000 0.600000 0.800000
v -0.400000 1.000000 0.800000
v -0.200000 1.000000 0.800000
v 0.200000 1.000000 0.800000
v 0.400000 1.000000 0.800000
v -0.400000 1.400000 0.800000
v -0.200000 1.400000 0.800000
v 0.200000 1.400000 0.800000
v 0.400000 1.400000 0.800000
v -0.800000 1.600000 0.800000
v -0.600000 1.600000 0.800000
v 0.600000 1.600000 0.800000
v 0.800000 1.600000 0.800000
v -0.600000 1.800000 0.800000
v 0.600000 1.800000 0.800000
v -1.000000 0.000000 1.000000
v -0.600000 0.000000 1.000000
v 0.600000 -0.000000 1.000000
v 1.000000 -0.000000 1.000000
v -1.000000 0.200000 1.000000
v -0.600000 0.200000 1.000000
v 0.600000 0.200000 1.000000
v 1.000000 0.200000 1.000000
v -1.000000 0.000000 -1.000000
v -1.000000 0.200000 -1.000000
v -1.000000 0.000000 -0.600000
v -1.000000 0.200000 -0.600000
v -1.000000 0.000000 0.600000
v -1.000000 0.200000 0.600000
v -1.000000 0.000000 1.000000
v -1.000000 0.200000 1.000000
v -0.800000 0.600000 -0.800000
v -0.800000 1.600000 -0.800000
v -0.800000 0.000000 -0.600000
v -0.800000 0.200000 -0.600000
v -0.800000 0.400000 -0.600000
v -0.800000 0.600000 -0.600000
v -0.800000 1.600000 -0.600000
v -0.800000 1.800000 -0.600000
v -0.800000 0.000000 -0.400000
v -0.800000 0.200000 -0.400000
v -0.800000 0.000000 0.400000
v -0.800000 0.200000 0.400000
v -0.800000 0.000000 0.600000
v -0.800000 0.200000 0.600000
v -0.800000 0.400000 0.600000
v -0.800000 0.600000 0.600000
v -0.800000 1.600000 0.600000
v -0.800000 1.800000 0.600000
v -0.800000 0.600000 0.800000
v -0.800000 1.600000 0.800000
v -0.600000 0.400000 -0.800000
v -0.600000 0.600000 -0.800000
v -0.600000 1.600000 -0.800000
v -0.600000 1.800000 -0.800000
v -0.600000 0.200000 -0.600000
v -0.600000 0.400000 -0.600000
v -0.600000 0.600000 -0.600000
v -0.600000 1.600000 -0.600000
v -0.600000 1.800000 -0.600000
v -0.600000 0.200000 -0.400000
v -0.600000 0.200000 -0.200000
v -0.600000 0.400000 -0.200000
v -0.600000 0.200000 0.200000
v -0.600000 0.400000 0.200000
v -0.600000 0.200000 0.400000
v -0.600000 0.200000 0.600000
v -0.600000 0.400000 0.600000
v -0.600000 0.600000 0.600000
v -0.600000 1.600000 0.600000
v -0.600000 1.800000 0.600000
v -0.600000 0.400000 0.800000
v -0.600000 0.600000 0.800000
v -0.600000 1.600000 0.800000
v -0.600000 1.800000 0.800000
v -0.400000 1.800000 -0.200000
v -0.400000 2.000000 -0.200000
v -0.400000 1.800000 0.200000
v -0.400000 2.000000 0.200000
v -0.200000 0.600000 -1.000000
v -0.200000 1.000000 -1.000000
v -0.200000 0.600000 -0.800000
v -0.200000 1.000000 -0.800000
v -0.200000 1.800000 -0.400000
v -0.200000 2.000000 -0.400000
v -0.200000 1.800000 -0.200000
v -0.200000 2.000000 -0.200000
v -0.200000 1.800000 0.200000
v -0.200000 2.000000 0.200000
v -0.200000 1.800000 0.400000
v -0.200000 2.000000 0.400000
v 0.200000 0.200000 -0.600000
v 0.200000 0.400000 -0.600000
v 0.200000 0.200000 -0.200000
v 0.200000 0.400000 -0.200000
v 0.200000 0.200000 0.200000
v 0.200000 0.400000 0.200000
v 0.200000 0.200000 0.600000
v 0.200000 0.400000 0.600000
v 0.400000 -0.000000 -0.800000
v 0.400000 0.200000 -0.800000
v 0.400000 0.200000 -0.600000
v 0.400000 -0.000000 -0.400000
v 0.400000 0.200000 -0.400000
v 0.400000 -0.000000 0.400000
v 0.400000 0.200000 0.400000
v 0.400000 0.200000 0.600000
v 0.400000 -0.000000 0.800000
v 0.400000 0.200000 0.800000
v 0.600000 -0.000000 -1.000000
v 0.600000 0.200000 -1.000000
v 0.600000 -0.000000 -0.800000
v 0.600000 0.200000 -0.800000
v 0.600000 -0.000000 0.800000
v 0.600000 0.200000 0.800000
v 0.600000 -0.000000 1.000000
v 0.600000 0.200000 1.000000
v -0.600000 0.000000 -1.000000
v -0.600000 0.200000 -1.000000
v -0.600000 0.000000 -0.800000
v -0.600000 0.200000 -0.800000
v -0.600000 0.000000 0.800000
v -0.600000 0.200000 0.800000
v -0.600000 0.000000 1.000000
v -0.600000 0.200000 1.000000
v -0.400000 0.000000 -0.800000
v -0.400000 0.200000 -0.800000
v -0.400000 0.200000 -0.600000
v -0.400000 0.000000 -0.400000
v -0.400000 0.200000 -0.400000
v -0.400000 0.000000 0.400000
v -0.400000 0.200000 0.400000
v -0.400000 0.200000 0.600000
v -0.400000 0.000000 0.800000
v -0.400000 0.200000 0.800000
v -0.200000 0.200000 -0.600000
v -0.200000 0.400000 -0.600000
v -0.200000 0.200000 -0.200000
v -0.200000 0.400000 -0.200000
v -0.200000 0.200000 0.200000
v -0.200000 0.400000 0.200000
v -0.200000 0.200000 0.600000
v -0.200000 0.400000 0.600000
v 0.200000 0.600000 -1.000000
v 0.200000 1.000000 -1.000000
v 0.200000 0.600000 -0.800000
v 0.200000 1.000000 -0.800000
v 0.200000 1.800000 -0.400000
v 0.200000 2.000000 -0.400000
v 0.200000 1.800000 -0.200000
v 0.200000 2.000000 -0.200000
v 0.200000 1.800000 0.200000
v 0.200000 2.000000 0.200000
v 0.200000 1.800000 0.400000
v 0.200000 2.000000 0.400000
v 0.400000 1.800000 -0.200000
v 0.400000 2.000000 -0.200000
v 0.400000 1.800000 0.200000
v 0.400000 2.000000 0.200000
v 0.600000 0.400000 -0.800000
v 0.600000 0.600000 -0.800000
v 0.600000 1.600000 -0.800000
v 0.600000 1.800000 -0.800000
v 0.600000 0.200000 -0.600000
v 0.600000 0.400000 -0.600000
v 0.600000 0.600000 -0.600000
v 0.600000 1.600000 -0.600000
v 0.600000 1.800000 -0.600000
v 0.600000 0.200000 -0.400000
v 0.600000 0.200000 -0.200000
v 0.600000 0.400000 -0.200000
v 0.600000 0.200000 0.200000
v 0.600000 0.400000 0.200000
v 0.600000 0.200000 0.400000
v 0.600000 0.200000 0.600000
v 0.600000 0.400000 0.600000
v 0.600000 0.600000 0.600000
v 0.600000 1.600000 0.600000
v 0.600000 1.800000 0.600000
v 0.600000 0.400000 0.800000
v 0.600000 0.600000 0.800000
v 0.600000 1.600000 0.800000
v 0.600000 1.800000 0.800000
v 0.800000 0.600000 -0.800000
v 0.800000 1.600000 -0.800000
v 0.800000 -0.000000 -0.600000
v 0.800000 0.200000 -0.600000
v 0.800000 0.400000 -0.600000
v 0.800000 0.600000 -0.600000
v 0.800000 1.600000 -0.600000
v 0.800000 1.800000 -0.600000
v 0.800000 -0.000000 -0.400000
v 0.800000 0.200000 -0.400000
v 0.800000 -0.000000 0.400000
v 0.800000 0.200000 0.400000
v 0.800000 -0.000000 0.600000
v 0.800000 0.200000 0.600000
v 0.800000 0.400000 0.600000
v 0.800000 0.600000 0.600000
v 0.800000 1.600000 0.600000
v 0.800000 1.800000 0.600000
v 0.800000 0.600000 0.800000
v 0.800000 1.600000 0.800000
v 1.000000 -0.000000 -1.000000
v 1.000000 0.200000 -1.000000
v 1.000000 -0.000000 -0.600000
v 1.000000 0.200000 -0.600000
v 1.000000 -0.000000 0.600000
v 1.000000 0.200000 0.600000
v 1.000000 -0.000000 1.000000
v 1.000000 0.200000 1.000000
v -1.000000 0.000000 -1.000000
v -1.000000 0.000000 -0.600000
v -1.000000 0.000000 0.600000
v -1.000000 0.000000 1.000000
v -0.800000 0.000000 -0.600000
v -0.800000 0.000000 -0.400000
v -0.800000 0.000000 0.400000
v -0.800000 0.000000 0.600000
v -0.600000 0.000000 -1.000000
v -0.600000 0.000000 -0.800000
v -0.600000 0.000000 0.800000
v -0.600000 0.000000 1.000000
v -0.400000 0.000000 -0.800000
v -0.400000 0.000000 -0.400000
v -0.400000 0.000000 0.400000
v -0.400000 0.000000 0.800000
v 0.400000 -0.000000 -0.800000
v 0.400000 -0.000000 -0.400000
v 0.400000 -0.000000 0.400000
v 0.400000 -0.000000 0.800000
v 0.600000 -0.000000 -1.000000
v 0.600000 -0.000000 -0.800000
v 0.600000 -0.000000 0.800000
v 0.600000 -0.000000 1.000000
v 0.800000 -0.000000 -0.600000
v 0.800000 -0.000000 -0.400000
v 0.800000 -0.000000 0.400000
v 0.800000 -0.000000 0.600000
v 1.000000 -0.000000 -1.000000
v 1.000000 -0.000000 -0.600000
v 1.000000 -0.000000 0.600000
v 1.000000 -0.000000 1.000000
v -0.600000 0.200000 -0.400000
v -0.600000 0.200000 -0.200000
v -0.600000 0.200000 0.200000
v -0.600000 0.200000 0.400000
v -0.400000 0.200000 -0.600000
v -0.400000 0.200000 -0.400000
v -0.400000 0.200000 0.400000
v -0.400000 0.200000 0.600000
v -0.200000 0.200000 -0.600000
v -0.200000 0.200000 -0.200000
v -0.200000 0.200000 0.200000
v -0.200000 0.200000 0.600000
v 0.200000 0.200000 -0.600000
v 0.200000 0.200000 -0.200000
v 0.200000 0.200000 0.200000
v 0.200000 0.200000 0.600000
v 0.400000 0.200000 -0.600000
v 0.400000 0.200000 -0.400000
v 0.400000 0.200000 0.400000
v 0.400000 0.200000 0.600000
v 0.600000 0.200000 -0.400000
v 0.600000 0.200000 -0.200000
v 0.600000 0.200000 0.200000
v 0.600000 0.200000 0.400000
v -0.800000 0.400000 -0.600000
v -0.800000 0.400000 0.600000
v -0.600000 0.400000 -0.800000
v -0.600000 0.400000 -0.600000
v -0.600000 0.400000 -0.200000
v -0.600000 0.400000 0.200000
v -0.600000 0.400000 0.600000
v -0.600000 0.400000 0.800000
v -0.200000 0.400000 -0.600000
v -0.200000 0.400000 -0.200000
v -0.200000 0.400000 0.200000
v -0.200000 0.400000 0.600000
v 0.200000 0.400000 -0.600000
v 0.200000 0.400000 -0.200000
v 0.200000 0.400000 0.200000
v 0.200000 0.400000 0.600000
v 0.600000 0.400000 -0.800000
v 0.600000 0.400000 -0.600000
v 0.600000 0.400000 -0.200000
v 0.600000 0.400000 0.200000
v 0.600000 0.400000 0.600000
v 0.600000 0.400000 0.800000
v 0.800000 0.400000 -0.600000
v 0.800000 0.400000 0.600000
v -0.800000 0.600000 -0.800000
v -0.800000 0.600000 -0.600000
v -0.800000 0.600000 0.600000
v -0.800000 0.600000 0.800000
v -0.600000 0.600000 -0.800000
v -0.600000 0.600000 -0.600000
v -0.600000 0.600000 0.600000
v -0.600000 0.600000 0.800000
v -0.200000 0.600000 -1.000000
v -0.200000 0.600000 -0.800000
v 0.200000 0.600000 -1.000000
v 0.200000 0.600000 -0.800000
v 0.600000 0.600000 -0.800000
v 0.600000 0.600000 -0.600000
v 0.600000 0.600000 0.600000
v 0.600000 0.600000 0.800000
v 0.800000 0.600000 -0.800000
v 0.800000 0.600000 -0.600000
v 0.800000 0.600000 0.600000
v 0.800000 0.600000 0.800000
v -1.000000 0.200000 -1.000000
v -1.000000 0.200000 -0.600000
v -1.000000 0.200000 0.600000
v -1.000000 0.200000 1.000000
v -0.800000 0.200000 -0.600000
v -0.800000 0.200000 -0.400000
v -0.800000 0.200000 0.400000
v -0.800000 0.200000 0.600000
v -0.600000 0.200000 -1.000000
v -0.600000 0.200000 -0.800000
v -0.600000 0.200000 -0.600000
v -0.600000 0.200000 -0.400000
v -0.600000 0.200000 0.400000
v -0.600000 0.200000 0.600000
v -0.600000 0.200000 0.800000
v -0.600000 0.200000 1.000000
v -0.400000 0.200000 -0.800000
v -0.400000 0.200000 -0.600000
v -0.400000 0.200000 0.600000
v -0.400000 0.200000 0.800000
v 0.400000 0.200000 -0.800000
v 0.400000 0.200000 -0.600000
v 0.400000 0.200000 0.600000
v 0.400000 0.200000 0.800000
v 0.600000 0.200000 -1.000000
v 0.600000 0.200000 -0.800000
v 0.600000 0.200000 -0.600000
v 0.600000 0.200000 -0.400000
v 0.600000 0.200000 0.400000
v 0.600000 0.200000 0.600000
v 0.600000 0.200000 0.800000
v 0.600000 0.200000 1.000000
v 0.800000 0.200000 -0.600000
v 0.800000 0.200000 -0.400000
v 0.800000 0.200000 0.400000
v 0.800000 0.200000 0.600000
v 1.000000 0.200000 -1.000000
v 1.000000 0.200000 -0.600000
v 1.000000 0.200000 0.600000
v 1.000000 0.200000 1.000000
v -0.200000 1.000000 -1.000000
v -0.200000 1.000000 -0.800000
v 0.200000 1.000000 -1.000000
v 0.200000 1.000000 -0.800000
v -0.800000 1.600000 -0.800000
v -0.800000 1.600000 -0.600000
v -0.800000 1.600000 0.600000
v -0.800000 1.600000 0.800000
v -0.600000 1.600000 -0.800000
v -0.600000 1.600000 -0.600000
v -0.600000 1.600000 0.600000
v -0.600000 1.600000 0.800000
v 0.600000 1.600000 -0.800000
v 0.600000 1.600000 -0.600000
v 0.600000 1.600000 0.600000
v 0.600000 1.600000 0.800000
v 0.800000 1.600000 -0.800000
v 0.800000 1.600000 -0.600000
v 0.800000 1.600000 0.600000
v 0.800000 1.600000 0.800000
v -0.800000 1.800000 -0.600000
v -0.800000 1.800000 0.600000
v -0.600000 1.800000 -0.800000
v -0.600000 1.800000 -0.600000
v -0.600000 1.800000 0.600000
v -0.600000 1.800000 0.800000
v -0.400000 1.800000 -0.200000
v -0.400000 1.800000 0.200000
v -0.200000 1.800000 -0.400000
v -0.200000 1.800000 -0.200000
v -0.200000 1.800000 0.200000
v -0.200000 1.800000 0.400000
v 0.200000 1.800000 -0.400000
v 0.200000 1.800000 -0.200000
v 0.200000 1.800000 0.200000
v 0.200000 1.800000 0.400000
v 0.400000 1.800000 -0.200000
v 0.400000 1.800000 0.200000
v 0.600000 1.800000 -0.800000
v 0.600000 1.800000 -0.600000
v 0.600000 1.800000 0.600000
v 0.600000 1.800000 0.800000
v 0.800000 1.800000 -0.600000
v 0.800000 1.800000 0.600000
v -0.400000 2.000000 -0.200000
v -0.400000 2.000000 0.200000
v -0.200000 2.000000 -0.400000
v -0.200000 2.000000 -0.200000
v -0.200000 2.000000 0.200000
v -0.200000 2.000000 0.400000
v 0.200000 2.000000 -0.400000
v 0.200000 2.000000 -0.200000
v 0.200000 2.000000 0.200000
v 0.200000 2.000000 0.400000
v 0.400000 2.000000 -0.200000
v 0.400000 2.000000 0.200000
vn -0.0000 -0.0000 -1.0000
vn -0.0000 -0.0000 1.0000
vn -1.0000 -0.0000 -0.0000
vn 1.0000 -0.0000 -0.0000
vn -0.0000 -1.0000 -0.0000
vn -0.0000 1.0000 -0.0000
vt 0.966797 0.500000
vt 0.923828 0.500000
vt 0.990234 0.500000
s 1
usemtl palette
f 5/1/1 2/1/1 1/1/1
f 6/1/1 2/1/1 5/1/1
f 7/1/1 4/1/1 3/1/1
f 8/1/1 4/1/1 7/1/1
f 11/1/1 10/1/1 9/1/1
f 12/1/1 10/1/1 11/1/1
f 17/1/1 14/1/1 13/1/1
f 18/1/1 14/1/1 17/1/1
f 19/1/1 16/1/1 15/1/1
f 20/1/1 16/1/1 19/1/1
f 24/2/1 22/2/1 21/2/1
f 25/2/1 22/2/1 24/2/1
f 26/2/1 22/2/1 25/2/1
f 27/2/1 22/2/1 26/2/1
f 29/1/1 25/1/1 24/1/1
f 30/1/1 27/1/1 26/1/1
f 31/2/1 24/2/1 23/2/1
f 32/1/1 29/1/1 24/1/1
f 32/2/1 24/2/1 31/2/1
f 32/1/1 30/1/1 29/1/1
f 33/1/1 27/1/1 30/1/1
f 33/1/1 30/1/1 32/1/1
f 33/2/1 28/2/1 27/2/1
f 34/2/1 28/2/1 33/2/1
f 35/2/1 33/2/1 32/2/1
f 36/2/1 33/2/1 35/2/1
f 44/1/1 38/1/1 37/1/1
f 44/1/1 39/1/1 38/1/1
f 45/1/1 39/1/1 44/1/1
f 46/1/1 42/1/1 41/1/1
f 46/1/1 41/1/1 40/1/1
f 47/1/1 42/1/1 46/1/1
f 49/2/1 44/2/1 43/2/1
f 50/2/1 44/2/1 49/2/1
f 51/2/1 48/2/1 47/2/1
f 52/2/1 48/2/1 51/2/1
f 57/2/1 54/2/1 53/2/1
f 58/2/1 54/2/1 57/2/1
f 59/2/1 56/2/1 55/2/1
f 60/2/1 56/2/1 59/2/1
f 63/1/1 62/1/1 61/1/1
f 64/1/1 62/1/1 63/1/1
f 69/1/1 66/1/1 65/1/1
f 70/1/1 66/1/1 69/1/1
f 71/1/1 68/1/1 67/1/1
f 72/1/1 68/1/1 71/1/1
f 77/1/1 74/1/1 73/1/1
f 78/1/1 74/1/1 77/1/1
f 79/1/1 76/1/1 75/1/1
f 80/1/1 76/1/1 79/1/1
f 85/1/1 82/1/1 81/1/1
f 86/1/1 82/1/1 85/1/1
f 87/1/1 82/1/1 86/1/1
f 88/1/1 84/1/1 83/1/1
f 89/1/1 84/1/1 88/1/1
f 90/1/1 84/1/1 89/1/1
f 95/1/1 92/1/1 91/1/1
f 96/1/1 92/1/1 95/1/1
f 97/1/1 94/1/1 93/1/1
f 98/1/1 94/1/1 97/1/1
f 99/1/2 100/1/2 103/1/2
f 103/1/2 100/1/2 104/1/2
f 101/1/2 102/1/2 105/1/2
f 105/1/2 102/1/2 106/1/2
f 107/1/2 108/1/2 111/1/2
f 111/1/2 108/1/2 112/1/2
f 112/1/2 108/1/2 113/1/2
f 109/1/2 110/1/2 114/1/2
f 114/1/2 110/1/2 115/1/2
f 115/1/2 110/1/2 116/1/2
f 117/1/2 118/1/2 121/1/2
f 121/1/2 118/1/2 122/1/2
f 119/1/2 120/1/2 123/1/2
f 123/1/2 120/1/2 124/1/2
f 125/1/2 126/1/2 129/1/2
f 129/1/2 126/1/2 130/1/2
f 127/1/2 128/1/2 131/1/2
f 131/1/2 128/1/2 132/1/2
f 133/1/2 134/1/2 135/1/2
f 135/1/2 134/1/2 136/1/2
f 137/1/2 138/1/2 144/1/2
f 138/1/2 139/1/2 144/1/2
f 144/1/2 139/1/2 145/1/2
f 141/1/2 142/1/2 146/1/2
f 140/1/2 141/1/2 146/1/2
f 146/1/2 142/1/2 147/1/2
f 143/2/2 144/2/2 149/2/2
f 149/2/2 144/2/2 150/2/2
f 147/2/2 148/2/2 151/2/2
f 151/2/2 148/2/2 152/2/2
f 153/2/2 154/2/2 157/2/2
f 157/2/2 154/2/2 158/2/2
f 155/2/2 156/2/2 159/2/2
f 159/2/2 156/2/2 160/2/2
f 161/1/2 162/1/2 165/1/2
f 165/1/2 162/1/2 166/1/2
f 163/1/2 164/1/2 167/1/2
f 167/1/2 164/1/2 168/1/2
f 169/2/2 170/2/2 172/2/2
f 172/2/2 170/2/2 173/2/2
f 172/1/2 173/1/2 175/1/2
f 175/1/2 173/1/2 176/1/2
f 176/1/2 173/1/2 177/1/2
f 177/1/2 173/1/2 178/1/2
f 172/1/2 175/1/2 179/1/2
f 175/3/2 176/3/2 179/3/2
f 176/1/2 177/1/2 180/1/2
f 179/3/2 176/3/2 180/3/2
f 177/3/2 178/3/2 181/3/2
f 180/1/2 177/1/2 181/1/2
f 178/1/2 173/1/2 182/1/2
f 181/3/2 178/3/2 182/3/2
f 171/2/2 172/2/2 183/2/2
f 180/1/2 181/1/2 184/1/2
f 183/2/2 172/2/2 184/2/2
f 179/1/2 180/1/2 184/1/2
f 181/1/2 182/1/2 184/1/2
f 172/1/2 179/1/2 184/1/2
f 173/2/2 174/2/2 185/2/2
f 184/1/2 182/1/2 185/1/2
f 182/1/2 173/1/2 185/1/2
f 185/2/2 174/2/2 186/2/2
f 184/2/2 185/2/2 187/2/2
f 187/2/2 185/2/2 188/2/2
f 189/1/2 190/1/2 193/1/2
f 193/1/2 190/1/2 194/1/2
f 191/1/2 192/1/2 195/1/2
f 195/1/2 192/1/2 196/1/2
f 199/1/3 198/1/3 197/1/3
f 200/1/3 198/1/3 199/1/3
f 203/1/3 202/1/3 201/1/3
f 204/1/3 202/1/3 203/1/3
f 210/2/3 206/2/3 205/2/3
f 211/2/3 206/2/3 210/2/3
f 213/1/3 208/1/3 207/1/3
f 214/1/3 208/1/3 213/1/3
f 217/1/3 216/1/3 215/1/3
f 218/1/3 216/1/3 217/1/3
f 219/2/3 210/2/3 209/2/3
f 220/1/3 211/1/3 210/1/3
f 220/2/3 210/2/3 219/2/3
f 221/2/3 212/2/3 211/2/3
f 221/1/3 211/1/3 220/1/3
f 222/2/3 212/2/3 221/2/3
f 223/2/3 221/2/3 220/2/3
f 224/2/3 221/2/3 223/2/3
f 230/2/3 226/2/3 225/2/3
f 231/2/3 226/2/3 230/2/3
f 232/2/3 228/2/3 227/2/3
f 233/2/3 228/2/3 232/2/3
f 234/1/3 230/1/3 229/1/3
f 235/1/3 230/1/3 234/1/3
f 236/1/3 230/1/3 235/1/3
f 239/1/3 238/1/3 237/1/3
f 240/1/3 238/1/3 239/1/3
f 241/1/3 238/1/3 240/1/3
f 245/2/3 242/2/3 241/2/3
f 246/2/3 242/2/3 245/2/3
f 247/2/3 244/2/3 243/2/3
f 248/2/3 244/2/3 247/2/3
f 251/1/3 250/1/3 249/1/3
f 252/1/3 250/1/3 251/1/3
f 255/1/3 254/1/3 253/1/3
f 256/1/3 254/1/3 255/1/3
f 259/1/3 258/1/3 257/1/3
f 260/1/3 258/1/3 259/1/3
f 263/1/3 262/1/3 261/1/3
f 264/1/3 262/1/3 263/1/3
f 267/1/3 266/1/3 265/1/3
f 268/1/3 266/1/3 267/1/3
f 271/1/3 270/1/3 269/1/3
f 272/1/3 270/1/3 271/1/3
f 275/1/3 274/1/3 273/1/3
f 276/1/3 275/1/3 273/1/3
f 277/1/3 275/1/3 276/1/3
f 280/1/3 279/1/3 278/1/3
f 281/1/3 280/1/3 278/1/3
f 282/1/3 280/1/3 281/1/3
f 285/1/3 284/1/3 283/1/3
f 286/1/3 284/1/3 285/1/3
f 289/1/3 288/1/3 287/1/3
f 290/1/3 288/1/3 289/1/3
f 291/1/4 292/1/4 293/1/4
f 293/1/4 292/1/4 294/1/4
f 295/1/4 296/1/4 297/1/4
f 297/1/4 296/1/4 298/1/4
f 299/1/4 300/1/4 301/1/4
f 299/1/4 301/1/4 302/1/4
f 302/1/4 301/1/4 303/1/4
f 304/1/4 305/1/4 306/1/4
f 304/1/4 306/1/4 307/1/4
f 307/1/4 306/1/4 308/1/4
f 309/1/4 310/1/4 311/1/4
f 311/1/4 310/1/4 312/1/4
f 313/1/4 314/1/4 315/1/4
f 315/1/4 314/1/4 316/1/4
f 317/1/4 318/1/4 319/1/4
f 319/1/4 318/1/4 320/1/4
f 321/1/4 322/1/4 323/1/4
f 323/1/4 322/1/4 324/1/4
f 325/1/4 326/1/4 327/1/4
f 327/1/4 326/1/4 328/1/4
f 329/1/4 330/1/4 331/1/4
f 331/1/4 330/1/4 332/1/4
f 333/2/4 334/2/4 338/2/4
f 338/2/4 334/2/4 339/2/4
f 335/2/4 336/2/4 340/2/4
f 340/2/4 336/2/4 341/2/4
f 337/1/4 338/1/4 342/1/4
f 342/1/4 338/1/4 343/1/4
f 343/1/4 338/1/4 344/1/4
f 345/1/4 346/1/4 347/1/4
f 347/1/4 346/1/4 348/1/4
f 348/1/4 346/1/4 349/1/4
f 349/2/4 350/2/4 353/2/4
f 353/2/4 350/2/4 354/2/4
f 351/2/4 352/2/4 355/2/4
f 355/2/4 352/2/4 356/2/4
f 357/2/4 358/2/4 362/2/4
f 362/2/4 358/2/4 363/2/4
f 359/1/4 360/1/4 365/1/4
f 365/1/4 360/1/4 366/1/4
f 367/1/4 368/1/4 369/1/4
f 369/1/4 368/1/4 370/1/4
f 361/2/4 362/2/4 371/2/4
f 362/1/4 363/1/4 372/1/4
f 371/2/4 362/2/4 372/2/4
f 363/2/4 364/2/4 373/2/4
f 372/1/4 363/1/4 373/1/4
f 373/2/4 364/2/4 374/2/4
f 372/2/4 373/2/4 375/2/4
f 375/2/4 373/2/4 376/2/4
f 377/1/4 378/1/4 379/1/4
f 379/1/4 378/1/4 380/1/4
f 381/1/4 382/1/4 383/1/4
f 383/1/4 382/1/4 384/1/4
f 389/1/5 386/1/5 385/1/5
f 392/1/5 388/1/5 387/1/5
f 393/1/5 390/1/5 389/1/5
f 393/1/5 389/1/5 385/1/5
f 394/1/5 390/1/5 393/1/5
f 395/1/5 392/1/5 391/1/5
f 395/1/5 388/1/5 392/1/5
f 396/1/5 388/1/5 395/1/5
f 397/1/5 390/1/5 394/1/5
f 398/1/5 390/1/5 397/1/5
f 399/1/5 395/1/5 391/1/5
f 400/1/5 395/1/5 399/1/5
f 406/1/5 402/1/5 401/1/5
f 407/1/5 404/1/5 403/1/5
f 409/1/5 406/1/5 405/1/5
f 409/1/5 402/1/5 406/1/5
f 410/1/5 402/1/5 409/1/5
f 411/1/5 407/1/5 403/1/5
f 411/1/5 408/1/5 407/1/5
f 412/1/5 408/1/5 411/1/5
f 413/1/5 409/1/5 405/1/5
f 414/1/5 409/1/5 413/1/5
f 415/1/5 408/1/5 412/1/5
f 416/1/5 408/1/5 415/1/5
f 422/1/5 418/1/5 417/1/5
f 423/1/5 420/1/5 419/1/5
f 425/1/5 422/1/5 421/1/5
f 426/1/5 418/1/5 422/1/5
f 426/1/5 422/1/5 425/1/5
f 427/1/5 424/1/5 423/1/5
f 427/1/5 423/1/5 419/1/5
f 428/1/5 424/1/5 427/1/5
f 433/1/5 430/1/5 429/1/5
f 434/1/5 430/1/5 433/1/5
f 435/1/5 432/1/5 431/1/5
f 436/1/5 432/1/5 435/1/5
f 437/1/5 430/1/5 434/1/5
f 438/1/5 430/1/5 437/1/5
f 439/1/5 435/1/5 431/1/5
f 440/1/5 435/1/5 439/1/5
f 444/2/5 442/2/5 441/2/5
f 445/2/5 442/2/5 444/2/5
f 446/2/5 442/2/5 445/2/5
f 447/2/5 442/2/5 446/2/5
f 449/2/5 444/2/5 443/2/5
f 450/1/5 446/1/5 445/1/5
f 451/1/5 446/1/5 450/1/5
f 452/2/5 448/2/5 447/2/5
f 453/1/5 451/1/5 450/1/5
f 453/1/5 452/1/5 451/1/5
f 453/2/5 449/2/5 443/2/5
f 453/1/5 450/1/5 449/1/5
f 454/1/5 452/1/5 453/1/5
f 455/1/5 452/1/5 454/1/5
f 456/2/5 448/2/5 452/2/5
f 456/1/5 452/1/5 455/1/5
f 457/2/5 453/2/5 443/2/5
f 458/2/5 453/2/5 457/2/5
f 459/1/5 455/1/5 454/1/5
f 460/1/5 455/1/5 459/1/5
f 461/2/5 448/2/5 456/2/5
f 462/2/5 448/2/5 461/2/5
f 463/2/5 460/2/5 459/2/5
f 463/2/5 461/2/5 460/2/5
f 463/2/5 459/2/5 458/2/5
f 464/2/5 461/2/5 463/2/5
f 469/2/5 466/2/5 465/2/5
f 470/2/5 466/2/5 469/2/5
f 471/2/5 468/2/5 467/2/5
f 472/2/5 468/2/5 471/2/5
f 475/1/5 474/1/5 473/1/5
f 476/1/5 474/1/5 475/1/5
f 481/2/5 478/2/5 477/2/5
f 482/2/5 478/2/5 481/2/5
f 483/2/5 480/2/5 479/2/5
f 484/2/5 480/2/5 483/2/5
f 485/1/6 486/1/6 489/1/6
f 487/1/6 488/1/6 492/1/6
f 489/1/6 490/1/6 493/1/6
f 485/1/6 489/1/6 493/1/6
f 493/1/6 490/1/6 494/1/6
f 494/1/6 490/1/6 495/1/6
f 495/1/6 490/1/6 496/1/6
f 491/1/6 492/1/6 497/1/6
f 492/1/6 488/1/6 498/1/6
f 497/1/6 492/1/6 498/1/6
f 498/1/6 488/1/6 499/1/6
f 499/1/6 488/1/6 500/1/6
f 494/1/6 495/1/6 501/1/6
f 501/1/6 495/1/6 502/1/6
f 498/1/6 499/1/6 503/1/6
f 503/1/6 499/1/6 504/1/6
f 505/1/6 506/1/6 510/1/6
f 510/1/6 506/1/6 511/1/6
f 507/1/6 508/1/6 514/1/6
f 514/1/6 508/1/6 515/1/6
f 511/1/6 512/1/6 517/1/6
f 509/1/6 510/1/6 517/1/6
f 510/1/6 511/1/6 517/1/6
f 517/1/6 512/1/6 518/1/6
f 514/1/6 515/1/6 519/1/6
f 515/1/6 516/1/6 519/1/6
f 513/1/6 514/1/6 519/1/6
f 519/1/6 516/1/6 520/1/6
f 509/1/6 517/1/6 521/1/6
f 521/1/6 517/1/6 522/1/6
f 520/1/6 516/1/6 523/1/6
f 523/1/6 516/1/6 524/1/6
f 525/1/6 526/1/6 527/1/6
f 527/1/6 526/1/6 528/1/6
f 529/2/6 530/2/6 533/2/6
f 533/2/6 530/2/6 534/2/6
f 531/2/6 532/2/6 535/2/6
f 535/2/6 532/2/6 536/2/6
f 537/2/6 538/2/6 541/2/6
f 541/2/6 538/2/6 542/2/6
f 539/2/6 540/2/6 543/2/6
f 543/2/6 540/2/6 544/2/6
f 545/2/6 546/2/6 548/2/6
f 548/2/6 546/2/6 549/2/6
f 548/1/6 549/1/6 551/1/6
f 551/1/6 549/1/6 552/1/6
f 548/1/6 551/1/6 553/1/6
f 553/1/6 551/1/6 554/1/6
f 552/1/6 549/1/6 555/1/6
f 555/1/6 549/1/6 556/1/6
f 548/1/6 553/1/6 557/1/6
f 556/1/6 549/1/6 560/1/6
f 557/1/6 558/1/6 561/1/6
f 559/1/6 560/1/6 562/1/6
f 547/2/6 548/2/6 563/2/6
f 561/1/6 562/1/6 564/1/6
f 563/2/6 548/2/6 564/2/6
f 557/1/6 561/1/6 564/1/6
f 548/1/6 557/1/6 564/1/6
f 549/2/6 550/2/6 565/2/6
f 564/1/6 562/1/6 565/1/6
f 562/1/6 560/1/6 565/1/6
f 560/1/6 549/1/6 565/1/6
f 565/2/6 550/2/6 566/2/6
f 564/2/6 565/2/6 567/2/6
f 567/2/6 565/2/6 568/2/6
f 569/1/6 570/1/6 572/1/6
f 572/1/6 570/1/6 573/1/6
f 571/1/6 572/1/6 575/1/6
f 573/1/6 574/1/6 575/1/6
f 572/1/6 573/1/6 575/1/6
f 575/1/6 574/1/6 576/1/6
f 576/1/6 574/1/6 577/1/6
f 577/1/6 574/1/6 578/1/6
f 576/1/6 577/1/6 579/1/6
f 579/1/6 577/1/6 580/1/6
