# Blender 5.0.1
# www.blender.org
mtllib Grape.mtl
o Untitled.001
v -0.846000 0.424000 -0.000000
v -0.846000 0.424000 -0.282000
v -0.846000 0.847000 -0.000000
v -0.846000 0.847000 -0.282000
v -0.705000 0.283000 -0.000000
v -0.705000 0.283000 -0.282000
v -0.705000 0.424000 0.141000
v -0.705000 0.424000 -0.000000
v -0.705000 0.424000 -0.282000
v -0.705000 0.424000 -0.423000
v -0.705000 0.424000 -0.846000
v -0.705000 0.424000 -0.987000
v -0.705000 0.706000 -0.846000
v -0.705000 0.706000 -0.987000
v -0.705000 0.847000 0.141000
v -0.705000 0.847000 -0.000000
v -0.705000 0.847000 -0.282000
v -0.705000 0.847000 -0.423000
v -0.705000 0.988000 -0.000000
v -0.705000 0.988000 -0.282000
v -0.564000 0.283000 -0.846000
v -0.564000 0.283000 -0.987000
v -0.564000 0.424000 0.564000
v -0.564000 0.424000 0.282000
v -0.564000 0.424000 -0.705000
v -0.564000 0.424000 -0.846000
v -0.564000 0.424000 -0.987000
v -0.564000 0.706000 -0.705000
v -0.564000 0.706000 -0.846000
v -0.564000 0.706000 -0.987000
v -0.564000 0.847000 0.564000
v -0.564000 0.847000 0.282000
v -0.564000 0.847000 -0.846000
v -0.564000 0.847000 -0.987000
v -0.423000 0.283000 0.564000
v -0.423000 0.283000 0.282000
v -0.423000 0.424000 0.705000
v -0.423000 0.424000 0.564000
v -0.423000 0.424000 0.282000
v -0.423000 0.424000 0.141000
v -0.423000 0.847000 0.705000
v -0.423000 0.847000 0.564000
v -0.423000 0.847000 0.282000
v -0.423000 0.847000 0.141000
v -0.423000 0.988000 0.564000
v -0.423000 0.988000 0.282000
v -0.282000 0.283000 -0.705000
v -0.282000 0.283000 -0.846000
v -0.282000 0.424000 1.128000
v -0.282000 0.424000 0.846000
v -0.282000 0.424000 -0.564000
v -0.282000 0.424000 -0.705000
v -0.282000 0.424000 -0.846000
v -0.282000 0.424000 -0.987000
v -0.282000 0.424000 -1.128000
v -0.282000 0.706000 -0.564000
v -0.282000 0.706000 -0.705000
v -0.282000 0.706000 -0.846000
v -0.282000 0.706000 -0.987000
v -0.282000 0.706000 -1.128000
v -0.282000 0.847000 1.128000
v -0.282000 0.847000 0.846000
v -0.282000 0.847000 -0.705000
v -0.282000 0.847000 -0.846000
v -0.141000 0.283000 1.128000
v -0.141000 0.283000 0.846000
v -0.141000 0.283000 -0.000000
v -0.141000 0.283000 -0.282000
v -0.141000 0.283000 -0.564000
v -0.141000 0.283000 -0.705000
v -0.141000 0.283000 -0.987000
v -0.141000 0.283000 -1.128000
v -0.141000 0.424000 1.269000
v -0.141000 0.424000 1.128000
v -0.141000 0.424000 0.846000
v -0.141000 0.424000 0.705000
v -0.141000 0.424000 -0.000000
v -0.141000 0.424000 -0.282000
v -0.141000 0.424000 -0.423000
v -0.141000 0.424000 -0.564000
v -0.141000 0.424000 -0.705000
v -0.141000 0.424000 -0.987000
v -0.141000 0.424000 -1.128000
v -0.141000 0.424000 -1.269000
v -0.141000 0.706000 0.141000
v -0.141000 0.706000 -0.000000
v -0.141000 0.706000 -0.282000
v -0.141000 0.706000 -0.423000
v -0.141000 0.706000 -0.564000
v -0.141000 0.706000 -0.705000
v -0.141000 0.706000 -0.987000
v -0.141000 0.706000 -1.128000
v -0.141000 0.706000 -1.269000
v -0.141000 0.847000 1.269000
v -0.141000 0.847000 1.128000
v -0.141000 0.847000 0.846000
v -0.141000 0.847000 0.705000
v -0.141000 0.847000 0.141000
v -0.141000 0.847000 -0.000000
v -0.141000 0.847000 -0.282000
v -0.141000 0.847000 -0.423000
v -0.141000 0.847000 -0.564000
v -0.141000 0.847000 -0.705000
v -0.141000 0.847000 -0.987000
v -0.141000 0.847000 -1.128000
v -0.141000 0.988000 1.128000
v -0.141000 0.988000 0.846000
v -0.141000 0.988000 -0.000000
v -0.141000 0.988000 -0.282000
v 0.141000 0.283000 0.564000
v 0.141000 0.283000 0.282000
v 0.141000 0.424000 0.564000
v 0.141000 0.424000 0.282000
v 0.141000 0.706000 0.705000
v 0.141000 0.706000 0.564000
v 0.141000 0.706000 0.282000
v 0.141000 0.706000 0.141000
v 0.141000 0.847000 0.705000
v 0.141000 0.847000 0.564000
v 0.141000 0.847000 0.282000
v 0.141000 0.847000 0.141000
v 0.141000 0.988000 0.564000
v 0.141000 0.988000 0.282000
v 0.423000 0.283000 -0.000000
v 0.423000 0.283000 -0.282000
v 0.423000 0.424000 -0.000000
v 0.423000 0.424000 -0.282000
v 0.423000 0.424000 -0.423000
v 0.423000 0.706000 0.141000
v 0.423000 0.706000 -0.000000
v 0.423000 0.847000 0.141000
v 0.423000 0.847000 -0.000000
v 0.423000 0.847000 -0.282000
v 0.423000 0.847000 -0.423000
v 0.423000 0.988000 -0.000000
v 0.423000 0.988000 -0.282000
v -0.423000 0.283000 -0.000000
v -0.423000 0.283000 -0.282000
v -0.423000 0.424000 -0.000000
v -0.423000 0.424000 -0.282000
v -0.423000 0.424000 -0.423000
v -0.423000 0.706000 0.141000
v -0.423000 0.706000 -0.000000
v -0.423000 0.847000 0.141000
v -0.423000 0.847000 -0.000000
v -0.423000 0.847000 -0.282000
v -0.423000 0.847000 -0.423000
v -0.423000 0.988000 -0.000000
v -0.423000 0.988000 -0.282000
v -0.141000 0.283000 0.564000
v -0.141000 0.283000 0.282000
v -0.141000 0.424000 0.564000
v -0.141000 0.424000 0.282000
v -0.141000 0.706000 0.705000
v -0.141000 0.706000 0.564000
v -0.141000 0.706000 0.282000
v -0.141000 0.706000 0.141000
v -0.141000 0.847000 0.705000
v -0.141000 0.847000 0.564000
v -0.141000 0.847000 0.282000
v -0.141000 0.847000 0.141000
v -0.141000 0.988000 0.564000
v -0.141000 0.988000 0.282000
v 0.141000 0.283000 1.128000
v 0.141000 0.283000 0.846000
v 0.141000 0.283000 -0.000000
v 0.141000 0.283000 -0.282000
v 0.141000 0.283000 -0.564000
v 0.141000 0.283000 -0.705000
v 0.141000 0.283000 -0.987000
v 0.141000 0.283000 -1.128000
v 0.141000 0.424000 1.269000
v 0.141000 0.424000 1.128000
v 0.141000 0.424000 0.846000
v 0.141000 0.424000 0.705000
v 0.141000 0.424000 -0.000000
v 0.141000 0.424000 -0.282000
v 0.141000 0.424000 -0.423000
v 0.141000 0.424000 -0.564000
v 0.141000 0.424000 -0.705000
v 0.141000 0.424000 -0.987000
v 0.141000 0.424000 -1.128000
v 0.141000 0.424000 -1.269000
v 0.141000 0.706000 0.141000
v 0.141000 0.706000 -0.000000
v 0.141000 0.706000 -0.282000
v 0.141000 0.706000 -0.423000
v 0.141000 0.706000 -0.564000
v 0.141000 0.706000 -0.705000
v 0.141000 0.706000 -0.987000
v 0.141000 0.706000 -1.128000
v 0.141000 0.706000 -1.269000
v 0.141000 0.847000 1.269000
v 0.141000 0.847000 1.128000
v 0.141000 0.847000 0.846000
v 0.141000 0.847000 0.705000
v 0.141000 0.847000 0.141000
v 0.141000 0.847000 -0.000000
v 0.141000 0.847000 -0.282000
v 0.141000 0.847000 -0.423000
v 0.141000 0.847000 -0.564000
v 0.141000 0.847000 -0.705000
v 0.141000 0.847000 -0.987000
v 0.141000 0.847000 -1.128000
v 0.141000 0.988000 1.128000
v 0.141000 0.988000 0.846000
v 0.141000 0.988000 -0.000000
v 0.141000 0.988000 -0.282000
v 0.282000 0.283000 -0.705000
v 0.282000 0.283000 -0.846000
v 0.282000 0.424000 1.128000
v 0.282000 0.424000 0.846000
v 0.282000 0.424000 -0.564000
v 0.282000 0.424000 -0.705000
v 0.282000 0.424000 -0.846000
v 0.282000 0.424000 -0.987000
v 0.282000 0.424000 -1.128000
v 0.282000 0.706000 -0.564000
v 0.282000 0.706000 -0.705000
v 0.282000 0.706000 -0.846000
v 0.282000 0.706000 -0.987000
v 0.282000 0.706000 -1.128000
v 0.282000 0.847000 1.128000
v 0.282000 0.847000 0.846000
v 0.282000 0.847000 -0.705000
v 0.282000 0.847000 -0.846000
v 0.423000 0.283000 0.564000
v 0.423000 0.283000 0.282000
v 0.423000 0.424000 0.705000
v 0.423000 0.424000 0.564000
v 0.423000 0.424000 0.282000
v 0.423000 0.424000 0.141000
v 0.423000 0.847000 0.705000
v 0.423000 0.847000 0.564000
v 0.423000 0.847000 0.282000
v 0.423000 0.847000 0.141000
v 0.423000 0.988000 0.564000
v 0.423000 0.988000 0.282000
v 0.564000 0.283000 -0.846000
v 0.564000 0.283000 -0.987000
v 0.564000 0.424000 0.564000
v 0.564000 0.424000 0.282000
v 0.564000 0.424000 -0.705000
v 0.564000 0.424000 -0.846000
v 0.564000 0.424000 -0.987000
v 0.564000 0.706000 -0.705000
v 0.564000 0.706000 -0.846000
v 0.564000 0.706000 -0.987000
v 0.564000 0.847000 0.564000
v 0.564000 0.847000 0.282000
v 0.564000 0.847000 -0.846000
v 0.564000 0.847000 -0.987000
v 0.705000 0.283000 -0.000000
v 0.705000 0.283000 -0.282000
v 0.705000 0.424000 0.141000
v 0.705000 0.424000 -0.000000
v 0.705000 0.424000 -0.282000
v 0.705000 0.424000 -0.423000
v 0.705000 0.424000 -0.846000
v 0.705000 0.424000 -0.987000
v 0.705000 0.706000 -0.846000
v 0.705000 0.706000 -0.987000
v 0.705000 0.847000 0.141000
v 0.705000 0.847000 -0.000000
v 0.705000 0.847000 -0.282000
v 0.705000 0.847000 -0.423000
v 0.705000 0.988000 -0.000000
v 0.705000 0.988000 -0.282000
v 0.846000 0.424000 -0.000000
v 0.846000 0.424000 -0.282000
v 0.846000 0.847000 -0.000000
v 0.846000 0.847000 -0.282000
v -0.141000 0.424000 1.269000
v -0.141000 0.847000 1.269000
v 0.141000 0.424000 1.269000
v 0.141000 0.847000 1.269000
v -0.282000 0.424000 1.128000
v -0.282000 0.847000 1.128000
v -0.141000 0.283000 1.128000
v -0.141000 0.424000 1.128000
v -0.141000 0.847000 1.128000
v -0.141000 0.988000 1.128000
v 0.141000 0.283000 1.128000
v 0.141000 0.424000 1.128000
v 0.141000 0.847000 1.128000
v 0.141000 0.988000 1.128000
v 0.282000 0.424000 1.128000
v 0.282000 0.847000 1.128000
v -0.423000 0.424000 0.705000
v -0.423000 0.847000 0.705000
v -0.141000 0.424000 0.705000
v -0.141000 0.847000 0.705000
v 0.141000 0.424000 0.705000
v 0.141000 0.847000 0.705000
v 0.423000 0.424000 0.705000
v 0.423000 0.847000 0.705000
v -0.564000 0.424000 0.564000
v -0.564000 0.847000 0.564000
v -0.423000 0.283000 0.564000
v -0.423000 0.424000 0.564000
v -0.423000 0.847000 0.564000
v -0.423000 0.988000 0.564000
v -0.141000 0.283000 0.564000
v -0.141000 0.424000 0.564000
v -0.141000 0.706000 0.564000
v -0.141000 0.847000 0.564000
v -0.141000 0.988000 0.564000
v 0.141000 0.283000 0.564000
v 0.141000 0.424000 0.564000
v 0.141000 0.706000 0.564000
v 0.141000 0.847000 0.564000
v 0.141000 0.988000 0.564000
v 0.423000 0.283000 0.564000
v 0.423000 0.424000 0.564000
v 0.423000 0.847000 0.564000
v 0.423000 0.988000 0.564000
v 0.564000 0.424000 0.564000
v 0.564000 0.847000 0.564000
v -0.705000 0.424000 0.141000
v -0.705000 0.847000 0.141000
v -0.423000 0.424000 0.141000
v -0.423000 0.847000 0.141000
v -0.141000 0.706000 0.141000
v -0.141000 0.847000 0.141000
v 0.141000 0.706000 0.141000
v 0.141000 0.847000 0.141000
v 0.423000 0.424000 0.141000
v 0.423000 0.847000 0.141000
v 0.705000 0.424000 0.141000
v 0.705000 0.847000 0.141000
v -0.846000 0.424000 -0.000000
v -0.846000 0.847000 -0.000000
v -0.705000 0.283000 -0.000000
v -0.705000 0.424000 -0.000000
v -0.705000 0.847000 -0.000000
v -0.705000 0.988000 -0.000000
v -0.423000 0.283000 -0.000000
v -0.423000 0.424000 -0.000000
v -0.423000 0.706000 -0.000000
v -0.423000 0.847000 -0.000000
v -0.423000 0.988000 -0.000000
v -0.141000 0.283000 -0.000000
v -0.141000 0.424000 -0.000000
v -0.141000 0.706000 -0.000000
v -0.141000 0.847000 -0.000000
v -0.141000 0.988000 -0.000000
v 0.141000 0.283000 -0.000000
v 0.141000 0.424000 -0.000000
v 0.141000 0.706000 -0.000000
v 0.141000 0.847000 -0.000000
v 0.141000 0.988000 -0.000000
v 0.423000 0.283000 -0.000000
v 0.423000 0.424000 -0.000000
v 0.423000 0.706000 -0.000000
v 0.423000 0.847000 -0.000000
v 0.423000 0.988000 -0.000000
v 0.705000 0.283000 -0.000000
v 0.705000 0.424000 -0.000000
v 0.705000 0.847000 -0.000000
v 0.705000 0.988000 -0.000000
v 0.846000 0.424000 -0.000000
v 0.846000 0.847000 -0.000000
v -0.282000 0.424000 -0.564000
v -0.282000 0.706000 -0.564000
v -0.141000 0.283000 -0.564000
v -0.141000 0.424000 -0.564000
v -0.141000 0.706000 -0.564000
v -0.141000 0.847000 -0.564000
v 0.141000 0.283000 -0.564000
v 0.141000 0.424000 -0.564000
v 0.141000 0.706000 -0.564000
v 0.141000 0.847000 -0.564000
v 0.282000 0.424000 -0.564000
v 0.282000 0.706000 -0.564000
v -0.564000 0.424000 -0.705000
v -0.564000 0.706000 -0.705000
v -0.282000 0.283000 -0.705000
v -0.282000 0.424000 -0.705000
v -0.282000 0.706000 -0.705000
v -0.282000 0.847000 -0.705000
v -0.141000 0.283000 -0.705000
v -0.141000 0.424000 -0.705000
v -0.141000 0.706000 -0.705000
v -0.141000 0.847000 -0.705000
v 0.141000 0.283000 -0.705000
v 0.141000 0.424000 -0.705000
v 0.141000 0.706000 -0.705000
v 0.141000 0.847000 -0.705000
v 0.282000 0.283000 -0.705000
v 0.282000 0.424000 -0.705000
v 0.282000 0.706000 -0.705000
v 0.282000 0.847000 -0.705000
v 0.564000 0.424000 -0.705000
v 0.564000 0.706000 -0.705000
v -0.705000 0.424000 -0.846000
v -0.705000 0.706000 -0.846000
v -0.564000 0.283000 -0.846000
v -0.564000 0.424000 -0.846000
v -0.564000 0.706000 -0.846000
v -0.564000 0.847000 -0.846000
v -0.282000 0.283000 -0.846000
v -0.282000 0.424000 -0.846000
v -0.282000 0.706000 -0.846000
v -0.282000 0.847000 -0.846000
v 0.282000 0.283000 -0.846000
v 0.282000 0.424000 -0.846000
v 0.282000 0.706000 -0.846000
v 0.282000 0.847000 -0.846000
v 0.564000 0.283000 -0.846000
v 0.564000 0.424000 -0.846000
v 0.564000 0.706000 -0.846000
v 0.564000 0.847000 -0.846000
v 0.705000 0.424000 -0.846000
v 0.705000 0.706000 -0.846000
v -0.282000 0.424000 0.846000
v -0.282000 0.847000 0.846000
v -0.141000 0.283000 0.846000
v -0.141000 0.424000 0.846000
v -0.141000 0.847000 0.846000
v -0.141000 0.988000 0.846000
v 0.141000 0.283000 0.846000
v 0.141000 0.424000 0.846000
v 0.141000 0.847000 0.846000
v 0.141000 0.988000 0.846000
v 0.282000 0.424000 0.846000
v 0.282000 0.847000 0.846000
v -0.141000 0.706000 0.705000
v -0.141000 0.847000 0.705000
v 0.141000 0.706000 0.705000
v 0.141000 0.847000 0.705000
v -0.564000 0.424000 0.282000
v -0.564000 0.847000 0.282000
v -0.423000 0.283000 0.282000
v -0.423000 0.424000 0.282000
v -0.423000 0.847000 0.282000
v -0.423000 0.988000 0.282000
v -0.141000 0.283000 0.282000
v -0.141000 0.424000 0.282000
v -0.141000 0.706000 0.282000
v -0.141000 0.847000 0.282000
v -0.141000 0.988000 0.282000
v 0.141000 0.283000 0.282000
v 0.141000 0.424000 0.282000
v 0.141000 0.706000 0.282000
v 0.141000 0.847000 0.282000
v 0.141000 0.988000 0.282000
v 0.423000 0.283000 0.282000
v 0.423000 0.424000 0.282000
v 0.423000 0.847000 0.282000
v 0.423000 0.988000 0.282000
v 0.564000 0.424000 0.282000
v 0.564000 0.847000 0.282000
v -0.423000 0.706000 0.141000
v -0.423000 0.847000 0.141000
v -0.141000 0.706000 0.141000
v -0.141000 0.847000 0.141000
v 0.141000 0.706000 0.141000
v 0.141000 0.847000 0.141000
v 0.423000 0.706000 0.141000
v 0.423000 0.847000 0.141000
v -0.846000 0.424000 -0.282000
v -0.846000 0.847000 -0.282000
v -0.705000 0.283000 -0.282000
v -0.705000 0.424000 -0.282000
v -0.705000 0.847000 -0.282000
v -0.705000 0.988000 -0.282000
v -0.423000 0.283000 -0.282000
v -0.423000 0.424000 -0.282000
v -0.423000 0.847000 -0.282000
v -0.423000 0.988000 -0.282000
v -0.141000 0.283000 -0.282000
v -0.141000 0.424000 -0.282000
v -0.141000 0.706000 -0.282000
v -0.141000 0.847000 -0.282000
v -0.141000 0.988000 -0.282000
v 0.141000 0.283000 -0.282000
v 0.141000 0.424000 -0.282000
v 0.141000 0.706000 -0.282000
v 0.141000 0.847000 -0.282000
v 0.141000 0.988000 -0.282000
v 0.423000 0.283000 -0.282000
v 0.423000 0.424000 -0.282000
v 0.423000 0.847000 -0.282000
v 0.423000 0.988000 -0.282000
v 0.705000 0.283000 -0.282000
v 0.705000 0.424000 -0.282000
v 0.705000 0.847000 -0.282000
v 0.705000 0.988000 -0.282000
v 0.846000 0.424000 -0.282000
v 0.846000 0.847000 -0.282000
v -0.705000 0.424000 -0.423000
v -0.705000 0.847000 -0.423000
v -0.423000 0.424000 -0.423000
v -0.423000 0.847000 -0.423000
v -0.141000 0.706000 -0.423000
v -0.141000 0.847000 -0.423000
v 0.141000 0.706000 -0.423000
v 0.141000 0.847000 -0.423000
v 0.423000 0.424000 -0.423000
v 0.423000 0.847000 -0.423000
v 0.705000 0.424000 -0.423000
v 0.705000 0.847000 -0.423000
v -0.705000 0.424000 -0.987000
v -0.705000 0.706000 -0.987000
v -0.564000 0.283000 -0.987000
v -0.564000 0.424000 -0.987000
v -0.564000 0.706000 -0.987000
v -0.564000 0.847000 -0.987000
v -0.282000 0.424000 -0.987000
v -0.282000 0.706000 -0.987000
v -0.141000 0.283000 -0.987000
v -0.141000 0.424000 -0.987000
v -0.141000 0.706000 -0.987000
v -0.141000 0.847000 -0.987000
v 0.141000 0.283000 -0.987000
v 0.141000 0.424000 -0.987000
v 0.141000 0.706000 -0.987000
v 0.141000 0.847000 -0.987000
v 0.282000 0.424000 -0.987000
v 0.282000 0.706000 -0.987000
v 0.564000 0.283000 -0.987000
v 0.564000 0.424000 -0.987000
v 0.564000 0.706000 -0.987000
v 0.564000 0.847000 -0.987000
v 0.705000 0.424000 -0.987000
v 0.705000 0.706000 -0.987000
v -0.282000 0.424000 -1.128000
v -0.282000 0.706000 -1.128000
v -0.141000 0.283000 -1.128000
v -0.141000 0.424000 -1.128000
v -0.141000 0.706000 -1.128000
v -0.141000 0.847000 -1.128000
v 0.141000 0.283000 -1.128000
v 0.141000 0.424000 -1.128000
v 0.141000 0.706000 -1.128000
v 0.141000 0.847000 -1.128000
v 0.282000 0.424000 -1.128000
v 0.282000 0.706000 -1.128000
v -0.141000 0.424000 -1.269000
v -0.141000 0.706000 -1.269000
v 0.141000 0.424000 -1.269000
v 0.141000 0.706000 -1.269000
v -0.141000 0.283000 1.128000
v 0.141000 0.283000 1.128000
v -0.141000 0.283000 0.846000
v 0.141000 0.283000 0.846000
v -0.423000 0.283000 0.564000
v -0.141000 0.283000 0.564000
v 0.141000 0.283000 0.564000
v 0.423000 0.283000 0.564000
v -0.423000 0.283000 0.282000
v -0.141000 0.283000 0.282000
v 0.141000 0.283000 0.282000
v 0.423000 0.283000 0.282000
v -0.705000 0.283000 -0.000000
v -0.423000 0.283000 -0.000000
v -0.141000 0.283000 -0.000000
v 0.141000 0.283000 -0.000000
v 0.423000 0.283000 -0.000000
v 0.705000 0.283000 -0.000000
v -0.705000 0.283000 -0.282000
v -0.423000 0.283000 -0.282000
v -0.141000 0.283000 -0.282000
v 0.141000 0.283000 -0.282000
v 0.423000 0.283000 -0.282000
v 0.705000 0.283000 -0.282000
v -0.141000 0.283000 -0.564000
v 0.141000 0.283000 -0.564000
v -0.282000 0.283000 -0.705000
v -0.141000 0.283000 -0.705000
v 0.141000 0.283000 -0.705000
v 0.282000 0.283000 -0.705000
v -0.564000 0.283000 -0.846000
v -0.282000 0.283000 -0.846000
v 0.282000 0.283000 -0.846000
v 0.564000 0.283000 -0.846000
v -0.564000 0.283000 -0.987000
v -0.141000 0.283000 -0.987000
v 0.141000 0.283000 -0.987000
v 0.564000 0.283000 -0.987000
v -0.141000 0.283000 -1.128000
v 0.141000 0.283000 -1.128000
v -0.141000 0.424000 1.269000
v 0.141000 0.424000 1.269000
v -0.282000 0.424000 1.128000
v -0.141000 0.424000 1.128000
v 0.141000 0.424000 1.128000
v 0.282000 0.424000 1.128000
v -0.282000 0.424000 0.846000
v -0.141000 0.424000 0.846000
v 0.141000 0.424000 0.846000
v 0.282000 0.424000 0.846000
v -0.423000 0.424000 0.705000
v -0.141000 0.424000 0.705000
v 0.141000 0.424000 0.705000
v 0.423000 0.424000 0.705000
v -0.564000 0.424000 0.564000
v -0.423000 0.424000 0.564000
v -0.141000 0.424000 0.564000
v 0.141000 0.424000 0.564000
v 0.423000 0.424000 0.564000
v 0.564000 0.424000 0.564000
v -0.564000 0.424000 0.282000
v -0.423000 0.424000 0.282000
v -0.141000 0.424000 0.282000
v 0.141000 0.424000 0.282000
v 0.423000 0.424000 0.282000
v 0.564000 0.424000 0.282000
v -0.705000 0.424000 0.141000
v -0.423000 0.424000 0.141000
v -0.141000 0.424000 0.141000
v 0.141000 0.424000 0.141000
v 0.423000 0.424000 0.141000
v 0.705000 0.424000 0.141000
v -0.846000 0.424000 -0.000000
v -0.705000 0.424000 -0.000000
v -0.423000 0.424000 -0.000000
v -0.141000 0.424000 -0.000000
v 0.141000 0.424000 -0.000000
v 0.423000 0.424000 -0.000000
v 0.705000 0.424000 -0.000000
v 0.846000 0.424000 -0.000000
v -0.846000 0.424000 -0.282000
v -0.705000 0.424000 -0.282000
v -0.423000 0.424000 -0.282000
v -0.141000 0.424000 -0.282000
v 0.141000 0.424000 -0.282000
v 0.423000 0.424000 -0.282000
v 0.705000 0.424000 -0.282000
v 0.846000 0.424000 -0.282000
v -0.705000 0.424000 -0.423000
v -0.423000 0.424000 -0.423000
v -0.141000 0.424000 -0.423000
v 0.141000 0.424000 -0.423000
v 0.423000 0.424000 -0.423000
v 0.705000 0.424000 -0.423000
v -0.282000 0.424000 -0.564000
v -0.141000 0.424000 -0.564000
v 0.141000 0.424000 -0.564000
v 0.282000 0.424000 -0.564000
v -0.564000 0.424000 -0.705000
v -0.282000 0.424000 -0.705000
v -0.141000 0.424000 -0.705000
v 0.141000 0.424000 -0.705000
v 0.282000 0.424000 -0.705000
v 0.564000 0.424000 -0.705000
v -0.705000 0.424000 -0.846000
v -0.564000 0.424000 -0.846000
v -0.282000 0.424000 -0.846000
v 0.282000 0.424000 -0.846000
v 0.564000 0.424000 -0.846000
v 0.705000 0.424000 -0.846000
v -0.705000 0.424000 -0.987000
v -0.564000 0.424000 -0.987000
v -0.282000 0.424000 -0.987000
v -0.141000 0.424000 -0.987000
v 0.141000 0.424000 -0.987000
v 0.282000 0.424000 -0.987000
v 0.564000 0.424000 -0.987000
v 0.705000 0.424000 -0.987000
v -0.282000 0.424000 -1.128000
v -0.141000 0.424000 -1.128000
v 0.141000 0.424000 -1.128000
v 0.282000 0.424000 -1.128000
v -0.141000 0.424000 -1.269000
v 0.141000 0.424000 -1.269000
v -0.141000 0.706000 0.705000
v 0.141000 0.706000 0.705000
v -0.141000 0.706000 0.564000
v 0.141000 0.706000 0.564000
v -0.141000 0.706000 0.282000
v 0.141000 0.706000 0.282000
v -0.423000 0.706000 0.141000
v -0.141000 0.706000 0.141000
v 0.141000 0.706000 0.141000
v 0.423000 0.706000 0.141000
v -0.423000 0.706000 -0.000000
v -0.141000 0.706000 -0.000000
v 0.141000 0.706000 -0.000000
v 0.423000 0.706000 -0.000000
v -0.141000 0.706000 -0.423000
v 0.141000 0.706000 -0.423000
v -0.282000 0.706000 -0.564000
v -0.141000 0.706000 -0.564000
v 0.141000 0.706000 -0.564000
v 0.282000 0.706000 -0.564000
v -0.564000 0.706000 -0.705000
v -0.282000 0.706000 -0.705000
v -0.141000 0.706000 -0.705000
v 0.141000 0.706000 -0.705000
v 0.282000 0.706000 -0.705000
v 0.564000 0.706000 -0.705000
v -0.705000 0.706000 -0.846000
v -0.564000 0.706000 -0.846000
v -0.282000 0.706000 -0.846000
v 0.282000 0.706000 -0.846000
v 0.564000 0.706000 -0.846000
v 0.705000 0.706000 -0.846000
v -0.705000 0.706000 -0.987000
v -0.564000 0.706000 -0.987000
v -0.282000 0.706000 -0.987000
v -0.141000 0.706000 -0.987000
v 0.141000 0.706000 -0.987000
v 0.282000 0.706000 -0.987000
v 0.564000 0.706000 -0.987000
v 0.705000 0.706000 -0.987000
v -0.282000 0.706000 -1.128000
v -0.141000 0.706000 -1.128000
v 0.141000 0.706000 -1.128000
v 0.282000 0.706000 -1.128000
v -0.141000 0.706000 -1.269000
v 0.141000 0.706000 -1.269000
v -0.141000 0.847000 1.269000
v 0.141000 0.847000 1.269000
v -0.282000 0.847000 1.128000
v -0.141000 0.847000 1.128000
v 0.141000 0.847000 1.128000
v 0.282000 0.847000 1.128000
v -0.282000 0.847000 0.846000
v -0.141000 0.847000 0.846000
v 0.141000 0.847000 0.846000
v 0.282000 0.847000 0.846000
v -0.423000 0.847000 0.705000
v -0.141000 0.847000 0.705000
v 0.141000 0.847000 0.705000
v 0.423000 0.847000 0.705000
v -0.564000 0.847000 0.564000
v -0.423000 0.847000 0.564000
v -0.141000 0.847000 0.564000
v 0.141000 0.847000 0.564000
v 0.423000 0.847000 0.564000
v 0.564000 0.847000 0.564000
v -0.564000 0.847000 0.282000
v -0.423000 0.847000 0.282000
v -0.141000 0.847000 0.282000
v 0.141000 0.847000 0.282000
v 0.423000 0.847000 0.282000
v 0.564000 0.847000 0.282000
v -0.705000 0.847000 0.141000
v -0.423000 0.847000 0.141000
v -0.141000 0.847000 0.141000
v 0.141000 0.847000 0.141000
v 0.423000 0.847000 0.141000
v 0.705000 0.847000 0.141000
v -0.846000 0.847000 -0.000000
v -0.705000 0.847000 -0.000000
v -0.423000 0.847000 -0.000000
v -0.141000 0.847000 -0.000000
v 0.141000 0.847000 -0.000000
v 0.423000 0.847000 -0.000000
v 0.705000 0.847000 -0.000000
v 0.846000 0.847000 -0.000000
v -0.846000 0.847000 -0.282000
v -0.705000 0.847000 -0.282000
v -0.423000 0.847000 -0.282000
v -0.141000 0.847000 -0.282000
v 0.141000 0.847000 -0.282000
v 0.423000 0.847000 -0.282000
v 0.705000 0.847000 -0.282000
v 0.846000 0.847000 -0.282000
v -0.705000 0.847000 -0.423000
v -0.423000 0.847000 -0.423000
v -0.141000 0.847000 -0.423000
v 0.141000 0.847000 -0.423000
v 0.423000 0.847000 -0.423000
v 0.705000 0.847000 -0.423000
v -0.141000 0.847000 -0.564000
v 0.141000 0.847000 -0.564000
v -0.282000 0.847000 -0.705000
v -0.141000 0.847000 -0.705000
v 0.141000 0.847000 -0.705000
v 0.282000 0.847000 -0.705000
v -0.564000 0.847000 -0.846000
v -0.282000 0.847000 -0.846000
v 0.282000 0.847000 -0.846000
v 0.564000 0.847000 -0.846000
v -0.564000 0.847000 -0.987000
v -0.141000 0.847000 -0.987000
v 0.141000 0.847000 -0.987000
v 0.564000 0.847000 -0.987000
v -0.141000 0.847000 -1.128000
v 0.141000 0.847000 -1.128000
v -0.141000 0.988000 1.128000
v 0.141000 0.988000 1.128000
v -0.141000 0.988000 0.846000
v 0.141000 0.988000 0.846000
v -0.423000 0.988000 0.564000
v -0.141000 0.988000 0.564000
v 0.141000 0.988000 0.564000
v 0.423000 0.988000 0.564000
v -0.423000 0.988000 0.282000
v -0.141000 0.988000 0.282000
v 0.141000 0.988000 0.282000
v 0.423000 0.988000 0.282000
v -0.705000 0.988000 -0.000000
v -0.423000 0.988000 -0.000000
v -0.141000 0.988000 -0.000000
v 0.141000 0.988000 -0.000000
v 0.423000 0.988000 -0.000000
v 0.705000 0.988000 -0.000000
v -0.705000 0.988000 -0.282000
v -0.423000 0.988000 -0.282000
v -0.141000 0.988000 -0.282000
v 0.141000 0.988000 -0.282000
v 0.423000 0.988000 -0.282000
v 0.705000 0.988000 -0.282000
vn -1.0000 -0.0000 -0.0000
vn 1.0000 -0.0000 -0.0000
vn -0.0000 -0.0000 1.0000
vn -0.0000 -0.0000 -1.0000
vn -0.0000 -1.0000 -0.0000
vn -0.0000 1.0000 -0.0000
vt 0.857422 0.500000
vt 0.310547 0.500000
vt 0.279297 0.500000
vt 0.853516 0.500000
s 1
usemtl palette.036
f 3/1/1 2/1/1 1/1/1
f 4/1/1 2/1/1 3/1/1
f 8/1/1 6/1/1 5/1/1
f 9/1/1 6/1/1 8/1/1
f 13/2/1 12/2/1 11/2/1
f 14/2/1 12/2/1 13/2/1
f 15/1/1 8/1/1 7/1/1
f 16/1/1 8/1/1 15/1/1
f 17/1/1 10/1/1 9/1/1
f 18/1/1 10/1/1 17/1/1
f 19/1/1 17/1/1 16/1/1
f 20/1/1 17/1/1 19/1/1
f 26/3/1 22/3/1 21/3/1
f 27/3/1 22/3/1 26/3/1
f 28/2/1 26/2/1 25/2/1
f 29/2/1 26/2/1 28/2/1
f 31/1/1 24/1/1 23/1/1
f 32/1/1 24/1/1 31/1/1
f 33/3/1 30/3/1 29/3/1
f 34/3/1 30/3/1 33/3/1
f 38/1/1 36/1/1 35/1/1
f 39/1/1 36/1/1 38/1/1
f 41/1/1 38/1/1 37/1/1
f 42/1/1 38/1/1 41/1/1
f 43/1/1 40/1/1 39/1/1
f 44/1/1 40/1/1 43/1/1
f 45/1/1 43/1/1 42/1/1
f 46/1/1 43/1/1 45/1/1
f 52/3/1 48/3/1 47/3/1
f 53/3/1 48/3/1 52/3/1
f 56/2/1 52/2/1 51/2/1
f 57/2/1 52/2/1 56/2/1
f 59/2/1 55/2/1 54/2/1
f 60/2/1 55/2/1 59/2/1
f 61/1/1 50/1/1 49/1/1
f 62/1/1 50/1/1 61/1/1
f 63/3/1 58/3/1 57/3/1
f 64/3/1 58/3/1 63/3/1
f 74/1/1 66/1/1 65/1/1
f 75/1/1 66/1/1 74/1/1
f 77/1/1 68/1/1 67/1/1
f 78/1/1 68/1/1 77/1/1
f 80/3/1 70/3/1 69/3/1
f 81/3/1 70/3/1 80/3/1
f 82/3/1 72/3/1 71/3/1
f 83/3/1 72/3/1 82/3/1
f 87/3/1 79/3/1 78/3/1
f 88/2/1 80/2/1 79/2/1
f 88/3/1 79/3/1 87/3/1
f 89/2/1 80/2/1 88/2/1
f 92/3/1 84/3/1 83/3/1
f 93/3/1 84/3/1 92/3/1
f 94/1/1 74/1/1 73/1/1
f 95/1/1 74/1/1 94/1/1
f 96/1/1 76/1/1 75/1/1
f 97/1/1 76/1/1 96/1/1
f 98/1/1 86/1/1 85/1/1
f 99/1/1 86/1/1 98/1/1
f 100/1/1 88/1/1 87/1/1
f 101/1/1 88/1/1 100/1/1
f 102/3/1 90/3/1 89/3/1
f 103/3/1 90/3/1 102/3/1
f 104/3/1 92/3/1 91/3/1
f 105/3/1 92/3/1 104/3/1
f 106/1/1 96/1/1 95/1/1
f 107/1/1 96/1/1 106/1/1
f 108/1/1 100/1/1 99/1/1
f 109/1/1 100/1/1 108/1/1
f 112/1/1 111/1/1 110/1/1
f 113/1/1 111/1/1 112/1/1
f 118/1/1 115/1/1 114/1/1
f 119/1/1 115/1/1 118/1/1
f 120/1/1 117/1/1 116/1/1
f 121/1/1 117/1/1 120/1/1
f 122/1/1 120/1/1 119/1/1
f 123/1/1 120/1/1 122/1/1
f 126/1/1 125/1/1 124/1/1
f 127/1/1 125/1/1 126/1/1
f 131/1/1 130/1/1 129/1/1
f 132/1/1 130/1/1 131/1/1
f 133/1/1 128/1/1 127/1/1
f 134/1/1 128/1/1 133/1/1
f 135/1/1 133/1/1 132/1/1
f 136/1/1 133/1/1 135/1/1
f 137/1/2 138/1/2 139/1/2
f 139/1/2 138/1/2 140/1/2
f 142/1/2 143/1/2 144/1/2
f 144/1/2 143/1/2 145/1/2
f 140/1/2 141/1/2 146/1/2
f 146/1/2 141/1/2 147/1/2
f 145/1/2 146/1/2 148/1/2
f 148/1/2 146/1/2 149/1/2
f 150/1/2 151/1/2 152/1/2
f 152/1/2 151/1/2 153/1/2
f 154/1/2 155/1/2 158/1/2
f 158/1/2 155/1/2 159/1/2
f 156/1/2 157/1/2 160/1/2
f 160/1/2 157/1/2 161/1/2
f 159/1/2 160/1/2 162/1/2
f 162/1/2 160/1/2 163/1/2
f 164/1/2 165/1/2 173/1/2
f 173/1/2 165/1/2 174/1/2
f 166/1/2 167/1/2 176/1/2
f 176/1/2 167/1/2 177/1/2
f 168/3/2 169/3/2 179/3/2
f 179/3/2 169/3/2 180/3/2
f 170/3/2 171/3/2 181/3/2
f 181/3/2 171/3/2 182/3/2
f 177/3/2 178/3/2 186/3/2
f 178/2/2 179/2/2 187/2/2
f 186/3/2 178/3/2 187/3/2
f 187/2/2 179/2/2 188/2/2
f 182/3/2 183/3/2 191/3/2
f 191/3/2 183/3/2 192/3/2
f 172/1/2 173/1/2 193/1/2
f 193/1/2 173/1/2 194/1/2
f 174/1/2 175/1/2 195/1/2
f 195/1/2 175/1/2 196/1/2
f 184/1/2 185/1/2 197/1/2
f 197/1/2 185/1/2 198/1/2
f 186/1/2 187/1/2 199/1/2
f 199/1/2 187/1/2 200/1/2
f 188/3/2 189/3/2 201/3/2
f 201/3/2 189/3/2 202/3/2
f 190/3/2 191/3/2 203/3/2
f 203/3/2 191/3/2 204/3/2
f 194/1/2 195/1/2 205/1/2
f 205/1/2 195/1/2 206/1/2
f 198/1/2 199/1/2 207/1/2
f 207/1/2 199/1/2 208/1/2
f 209/3/2 210/3/2 214/3/2
f 214/3/2 210/3/2 215/3/2
f 213/2/2 214/2/2 218/2/2
f 218/2/2 214/2/2 219/2/2
f 216/2/2 217/2/2 221/2/2
f 221/2/2 217/2/2 222/2/2
f 211/1/2 212/1/2 223/1/2
f 223/1/2 212/1/2 224/1/2
f 219/3/2 220/3/2 225/3/2
f 225/3/2 220/3/2 226/3/2
f 227/1/2 228/1/2 230/1/2
f 230/1/2 228/1/2 231/1/2
f 229/1/2 230/1/2 233/1/2
f 233/1/2 230/1/2 234/1/2
f 231/1/2 232/1/2 235/1/2
f 235/1/2 232/1/2 236/1/2
f 234/1/2 235/1/2 237/1/2
f 237/1/2 235/1/2 238/1/2
f 239/3/2 240/3/2 244/3/2
f 244/3/2 240/3/2 245/3/2
f 243/2/2 244/2/2 246/2/2
f 246/2/2 244/2/2 247/2/2
f 241/1/2 242/1/2 249/1/2
f 249/1/2 242/1/2 250/1/2
f 247/3/2 248/3/2 251/3/2
f 251/3/2 248/3/2 252/3/2
f 253/1/2 254/1/2 256/1/2
f 256/1/2 254/1/2 257/1/2
f 259/2/2 260/2/2 261/2/2
f 261/2/2 260/2/2 262/2/2
f 255/1/2 256/1/2 263/1/2
f 263/1/2 256/1/2 264/1/2
f 257/1/2 258/1/2 265/1/2
f 265/1/2 258/1/2 266/1/2
f 264/1/2 265/1/2 267/1/2
f 267/1/2 265/1/2 268/1/2
f 269/1/2 270/1/2 271/1/2
f 271/1/2 270/1/2 272/1/2
f 275/1/3 274/1/3 273/1/3
f 276/1/3 274/1/3 275/1/3
f 280/1/3 278/1/3 277/1/3
f 281/1/3 278/1/3 280/1/3
f 283/1/3 280/1/3 279/1/3
f 284/1/3 280/1/3 283/1/3
f 285/1/3 282/1/3 281/1/3
f 286/1/3 282/1/3 285/1/3
f 287/1/3 285/1/3 284/1/3
f 288/1/3 285/1/3 287/1/3
f 291/1/3 290/1/3 289/1/3
f 292/1/3 290/1/3 291/1/3
f 295/1/3 294/1/3 293/1/3
f 296/1/3 294/1/3 295/1/3
f 300/1/3 298/1/3 297/1/3
f 301/1/3 298/1/3 300/1/3
f 303/1/3 300/1/3 299/1/3
f 304/1/3 300/1/3 303/1/3
f 306/1/3 302/1/3 301/1/3
f 307/1/3 302/1/3 306/1/3
f 310/1/3 306/1/3 305/1/3
f 311/1/3 306/1/3 310/1/3
f 313/1/3 309/1/3 308/1/3
f 314/1/3 309/1/3 313/1/3
f 315/1/3 312/1/3 311/1/3
f 316/1/3 312/1/3 315/1/3
f 317/1/3 315/1/3 314/1/3
f 318/1/3 315/1/3 317/1/3
f 321/1/3 320/1/3 319/1/3
f 322/1/3 320/1/3 321/1/3
f 325/1/3 324/1/3 323/1/3
f 326/1/3 324/1/3 325/1/3
f 329/1/3 328/1/3 327/1/3
f 330/1/3 328/1/3 329/1/3
f 334/1/3 332/1/3 331/1/3
f 335/1/3 332/1/3 334/1/3
f 337/1/3 334/1/3 333/1/3
f 338/1/3 334/1/3 337/1/3
f 340/1/3 336/1/3 335/1/3
f 341/1/3 336/1/3 340/1/3
f 344/1/3 340/1/3 339/1/3
f 345/1/3 340/1/3 344/1/3
f 347/1/3 343/1/3 342/1/3
f 348/1/3 343/1/3 347/1/3
f 350/1/3 346/1/3 345/1/3
f 351/1/3 346/1/3 350/1/3
f 354/1/3 350/1/3 349/1/3
f 355/1/3 350/1/3 354/1/3
f 357/1/3 353/1/3 352/1/3
f 358/1/3 353/1/3 357/1/3
f 359/1/3 356/1/3 355/1/3
f 360/1/3 356/1/3 359/1/3
f 361/1/3 359/1/3 358/1/3
f 362/1/3 359/1/3 361/1/3
f 366/2/3 364/2/3 363/2/3
f 367/2/3 364/2/3 366/2/3
f 369/3/3 366/3/3 365/3/3
f 370/3/3 366/3/3 369/3/3
f 371/3/3 368/3/3 367/3/3
f 372/3/3 368/3/3 371/3/3
f 373/2/3 371/2/3 370/2/3
f 374/2/3 371/2/3 373/2/3
f 378/2/3 376/2/3 375/2/3
f 379/2/3 376/2/3 378/2/3
f 381/3/3 378/3/3 377/3/3
f 382/3/3 378/3/3 381/3/3
f 383/3/3 380/3/3 379/3/3
f 384/3/3 380/3/3 383/3/3
f 389/3/3 386/3/3 385/3/3
f 390/3/3 386/3/3 389/3/3
f 391/3/3 388/3/3 387/3/3
f 392/3/3 388/3/3 391/3/3
f 393/2/3 391/2/3 390/2/3
f 394/2/3 391/2/3 393/2/3
f 398/2/3 396/2/3 395/2/3
f 399/2/3 396/2/3 398/2/3
f 401/3/3 398/3/3 397/3/3
f 402/3/3 398/3/3 401/3/3
f 403/3/3 400/3/3 399/3/3
f 404/3/3 400/3/3 403/3/3
f 409/3/3 406/3/3 405/3/3
f 410/3/3 406/3/3 409/3/3
f 411/3/3 408/3/3 407/3/3
f 412/3/3 408/3/3 411/3/3
f 413/2/3 411/2/3 410/2/3
f 414/2/3 411/2/3 413/2/3
f 415/1/4 416/1/4 418/1/4
f 418/1/4 416/1/4 419/1/4
f 417/1/4 418/1/4 421/1/4
f 421/1/4 418/1/4 422/1/4
f 419/1/4 420/1/4 423/1/4
f 423/1/4 420/1/4 424/1/4
f 422/1/4 423/1/4 425/1/4
f 425/1/4 423/1/4 426/1/4
f 427/1/4 428/1/4 429/1/4
f 429/1/4 428/1/4 430/1/4
f 431/1/4 432/1/4 434/1/4
f 434/1/4 432/1/4 435/1/4
f 433/1/4 434/1/4 437/1/4
f 437/1/4 434/1/4 438/1/4
f 435/1/4 436/1/4 440/1/4
f 440/1/4 436/1/4 441/1/4
f 439/1/4 440/1/4 444/1/4
f 444/1/4 440/1/4 445/1/4
f 442/1/4 443/1/4 447/1/4
f 447/1/4 443/1/4 448/1/4
f 445/1/4 446/1/4 449/1/4
f 449/1/4 446/1/4 450/1/4
f 448/1/4 449/1/4 451/1/4
f 451/1/4 449/1/4 452/1/4
f 453/1/4 454/1/4 455/1/4
f 455/1/4 454/1/4 456/1/4
f 457/1/4 458/1/4 459/1/4
f 459/1/4 458/1/4 460/1/4
f 461/1/4 462/1/4 464/1/4
f 464/1/4 462/1/4 465/1/4
f 463/1/4 464/1/4 467/1/4
f 467/1/4 464/1/4 468/1/4
f 465/1/4 466/1/4 469/1/4
f 469/1/4 466/1/4 470/1/4
f 468/1/4 469/1/4 472/1/4
f 472/1/4 469/1/4 473/1/4
f 473/1/4 469/1/4 474/1/4
f 471/1/4 472/1/4 476/1/4
f 476/1/4 472/1/4 477/1/4
f 474/1/4 475/1/4 479/1/4
f 479/1/4 475/1/4 480/1/4
f 477/1/4 478/1/4 482/1/4
f 478/1/4 479/1/4 482/1/4
f 482/1/4 479/1/4 483/1/4
f 481/1/4 482/1/4 485/1/4
f 485/1/4 482/1/4 486/1/4
f 483/1/4 484/1/4 487/1/4
f 487/1/4 484/1/4 488/1/4
f 486/1/4 487/1/4 489/1/4
f 489/1/4 487/1/4 490/1/4
f 491/1/4 492/1/4 493/1/4
f 493/1/4 492/1/4 494/1/4
f 495/1/4 496/1/4 497/1/4
f 497/1/4 496/1/4 498/1/4
f 499/1/4 500/1/4 501/1/4
f 501/1/4 500/1/4 502/1/4
f 503/2/4 504/2/4 506/2/4
f 506/2/4 504/2/4 507/2/4
f 505/3/4 506/3/4 509/3/4
f 507/3/4 508/3/4 509/3/4
f 506/3/4 507/3/4 509/3/4
f 509/3/4 508/3/4 510/3/4
f 505/3/4 509/3/4 511/3/4
f 511/3/4 509/3/4 512/3/4
f 510/3/4 508/3/4 513/3/4
f 513/3/4 508/3/4 514/3/4
f 515/3/4 516/3/4 519/3/4
f 517/3/4 518/3/4 520/3/4
f 515/3/4 519/3/4 521/3/4
f 519/3/4 520/3/4 521/3/4
f 521/3/4 520/3/4 522/3/4
f 520/3/4 518/3/4 523/3/4
f 522/3/4 520/3/4 523/3/4
f 523/3/4 518/3/4 524/3/4
f 522/2/4 523/2/4 525/2/4
f 525/2/4 523/2/4 526/2/4
f 527/2/4 528/2/4 530/2/4
f 530/2/4 528/2/4 531/2/4
f 529/3/4 530/3/4 533/3/4
f 533/3/4 530/3/4 534/3/4
f 531/3/4 532/3/4 535/3/4
f 535/3/4 532/3/4 536/3/4
f 534/2/4 535/2/4 537/2/4
f 537/2/4 535/2/4 538/2/4
f 539/3/4 540/3/4 541/3/4
f 541/3/4 540/3/4 542/3/4
f 545/1/5 544/1/5 543/1/5
f 546/1/5 544/1/5 545/1/5
f 551/1/5 548/1/5 547/1/5
f 552/1/5 548/1/5 551/1/5
f 553/1/5 550/1/5 549/1/5
f 554/1/5 550/1/5 553/1/5
f 561/1/5 556/1/5 555/1/5
f 562/1/5 556/1/5 561/1/5
f 563/1/5 558/1/5 557/1/5
f 564/1/5 558/1/5 563/1/5
f 565/1/5 560/1/5 559/1/5
f 566/1/5 560/1/5 565/1/5
f 570/3/5 568/3/5 567/3/5
f 571/3/5 568/3/5 570/3/5
f 574/3/5 570/3/5 569/3/5
f 574/3/5 572/3/5 571/3/5
f 574/3/5 571/3/5 570/3/5
f 575/3/5 572/3/5 574/3/5
f 577/3/5 574/3/5 573/3/5
f 577/3/5 576/3/5 575/3/5
f 577/3/5 575/3/5 574/3/5
f 578/3/5 576/3/5 577/3/5
f 579/3/5 576/3/5 578/3/5
f 580/3/5 576/3/5 579/3/5
f 581/3/5 579/3/5 578/3/5
f 582/3/5 579/3/5 581/3/5
f 586/1/5 584/1/5 583/1/5
f 587/1/5 584/1/5 586/1/5
f 589/1/5 586/1/5 585/1/5
f 590/1/5 586/1/5 589/1/5
f 591/1/5 588/1/5 587/1/5
f 592/1/5 588/1/5 591/1/5
f 594/1/5 591/1/5 590/1/5
f 595/1/5 591/1/5 594/1/5
f 598/1/5 594/1/5 593/1/5
f 599/4/5 595/4/5 594/4/5
f 599/1/5 594/1/5 598/1/5
f 600/1/5 596/1/5 595/1/5
f 600/4/5 595/4/5 599/4/5
f 601/1/5 596/1/5 600/1/5
f 603/1/5 598/1/5 597/1/5
f 604/1/5 598/1/5 603/1/5
f 605/1/5 600/1/5 599/1/5
f 606/1/5 600/1/5 605/1/5
f 607/1/5 602/1/5 601/1/5
f 608/1/5 602/1/5 607/1/5
f 610/1/5 605/1/5 604/1/5
f 611/4/5 606/4/5 605/4/5
f 611/1/5 605/1/5 610/1/5
f 612/1/5 607/1/5 606/1/5
f 612/4/5 606/4/5 611/4/5
f 613/1/5 607/1/5 612/1/5
f 616/1/5 610/1/5 609/1/5
f 617/4/5 611/4/5 610/4/5
f 617/1/5 610/1/5 616/1/5
f 618/1/5 612/1/5 611/1/5
f 618/4/5 611/4/5 617/4/5
f 619/4/5 613/4/5 612/4/5
f 619/1/5 612/1/5 618/1/5
f 620/1/5 614/1/5 613/1/5
f 620/4/5 613/4/5 619/4/5
f 621/1/5 614/1/5 620/1/5
f 623/1/5 616/1/5 615/1/5
f 624/1/5 616/1/5 623/1/5
f 625/1/5 618/1/5 617/1/5
f 626/1/5 618/1/5 625/1/5
f 627/1/5 620/1/5 619/1/5
f 628/1/5 620/1/5 627/1/5
f 629/1/5 622/1/5 621/1/5
f 630/1/5 622/1/5 629/1/5
f 631/1/5 625/1/5 624/1/5
f 632/1/5 625/1/5 631/1/5
f 633/3/5 627/3/5 626/3/5
f 634/3/5 627/3/5 633/3/5
f 635/1/5 629/1/5 628/1/5
f 636/1/5 629/1/5 635/1/5
f 638/2/5 634/2/5 633/2/5
f 639/2/5 634/2/5 638/2/5
f 642/2/5 638/2/5 637/2/5
f 643/2/5 638/2/5 642/2/5
f 644/2/5 640/2/5 639/2/5
f 645/2/5 640/2/5 644/2/5
f 648/2/5 642/2/5 641/2/5
f 649/2/5 642/2/5 648/2/5
f 650/2/5 646/2/5 645/2/5
f 651/2/5 646/2/5 650/2/5
f 653/2/5 648/2/5 647/2/5
f 654/2/5 648/2/5 653/2/5
f 659/2/5 652/2/5 651/2/5
f 660/2/5 652/2/5 659/2/5
f 661/2/5 656/2/5 655/2/5
f 662/2/5 656/2/5 661/2/5
f 663/2/5 658/2/5 657/2/5
f 664/2/5 658/2/5 663/2/5
f 665/3/5 663/3/5 662/3/5
f 666/3/5 663/3/5 665/3/5
f 667/4/6 668/4/6 669/4/6
f 669/4/6 668/4/6 670/4/6
f 671/4/6 672/4/6 674/4/6
f 674/4/6 672/4/6 675/4/6
f 673/4/6 674/4/6 677/4/6
f 677/4/6 674/4/6 678/4/6
f 675/4/6 676/4/6 679/4/6
f 679/4/6 676/4/6 680/4/6
f 681/2/6 682/2/6 684/2/6
f 684/2/6 682/2/6 685/2/6
f 683/2/6 684/2/6 688/2/6
f 688/2/6 684/2/6 689/2/6
f 685/2/6 686/2/6 690/2/6
f 690/2/6 686/2/6 691/2/6
f 687/2/6 688/2/6 694/2/6
f 694/2/6 688/2/6 695/2/6
f 691/2/6 692/2/6 696/2/6
f 696/2/6 692/2/6 697/2/6
f 693/2/6 694/2/6 699/2/6
f 699/2/6 694/2/6 700/2/6
f 697/2/6 698/2/6 705/2/6
f 705/2/6 698/2/6 706/2/6
f 701/2/6 702/2/6 707/2/6
f 707/2/6 702/2/6 708/2/6
f 703/2/6 704/2/6 709/2/6
f 709/2/6 704/2/6 710/2/6
f 708/3/6 709/3/6 711/3/6
f 711/3/6 709/3/6 712/3/6
f 713/1/6 714/1/6 716/1/6
f 716/1/6 714/1/6 717/1/6
f 715/1/6 716/1/6 719/1/6
f 719/1/6 716/1/6 720/1/6
f 717/1/6 718/1/6 721/1/6
f 721/1/6 718/1/6 722/1/6
f 720/1/6 721/1/6 724/1/6
f 724/1/6 721/1/6 725/1/6
f 723/1/6 724/1/6 728/1/6
f 728/1/6 724/1/6 729/1/6
f 725/1/6 726/1/6 730/1/6
f 730/1/6 726/1/6 731/1/6
f 727/1/6 728/1/6 733/1/6
f 733/1/6 728/1/6 734/1/6
f 729/1/6 730/1/6 735/1/6
f 735/1/6 730/1/6 736/1/6
f 731/1/6 732/1/6 737/1/6
f 737/1/6 732/1/6 738/1/6
f 734/1/6 735/1/6 740/1/6
f 740/1/6 735/1/6 741/1/6
f 736/1/6 737/1/6 742/1/6
f 742/1/6 737/1/6 743/1/6
f 739/1/6 740/1/6 746/1/6
f 746/1/6 740/1/6 747/1/6
f 741/1/6 742/1/6 748/1/6
f 748/1/6 742/1/6 749/1/6
f 743/1/6 744/1/6 750/1/6
f 750/1/6 744/1/6 751/1/6
f 745/1/6 746/1/6 753/1/6
f 753/1/6 746/1/6 754/1/6
f 747/1/6 748/1/6 755/1/6
f 755/1/6 748/1/6 756/1/6
f 749/1/6 750/1/6 757/1/6
f 757/1/6 750/1/6 758/1/6
f 751/1/6 752/1/6 759/1/6
f 759/1/6 752/1/6 760/1/6
f 754/1/6 755/1/6 761/1/6
f 761/1/6 755/1/6 762/1/6
f 756/1/6 757/1/6 763/1/6
f 763/1/6 757/1/6 764/1/6
f 758/1/6 759/1/6 765/1/6
f 765/1/6 759/1/6 766/1/6
f 767/3/6 768/3/6 770/3/6
f 770/3/6 768/3/6 771/3/6
f 769/3/6 770/3/6 774/3/6
f 771/3/6 772/3/6 774/3/6
f 770/3/6 771/3/6 774/3/6
f 774/3/6 772/3/6 775/3/6
f 773/3/6 774/3/6 777/3/6
f 775/3/6 776/3/6 777/3/6
f 774/3/6 775/3/6 777/3/6
f 777/3/6 776/3/6 778/3/6
f 778/3/6 776/3/6 779/3/6
f 779/3/6 776/3/6 780/3/6
f 778/3/6 779/3/6 781/3/6
f 781/3/6 779/3/6 782/3/6
f 783/1/6 784/1/6 785/1/6
f 785/1/6 784/1/6 786/1/6
f 787/1/6 788/1/6 791/1/6
f 791/1/6 788/1/6 792/1/6
f 789/1/6 790/1/6 793/1/6
f 793/1/6 790/1/6 794/1/6
f 795/1/6 796/1/6 801/1/6
f 801/1/6 796/1/6 802/1/6
f 797/1/6 798/1/6 803/1/6
f 803/1/6 798/1/6 804/1/6
f 799/1/6 800/1/6 805/1/6
f 805/1/6 800/1/6 806/1/6
