# Blender 5.1.2
# www.blender.org
mtllib Door.mtl
o Cube
v -4.741992 0.170504 -0.170504
v -4.741992 -0.170504 -0.170504
v 4.741992 0.170504 -0.170504
v 4.741992 -0.170504 -0.170504
v -4.741992 0.170504 0.170504
v -4.741992 -0.170504 0.170504
v 4.741992 0.170504 0.170504
v 4.741992 -0.170504 0.170504
v -4.741992 0.852521 -0.170504
v -4.741992 0.511513 -0.170504
v 4.741992 0.852521 -0.170504
v 4.741992 0.511513 -0.170504
v -4.741992 0.852521 0.170504
v -4.741992 0.511513 0.170504
v 4.741992 0.852521 0.170504
v 4.741992 0.511513 0.170504
v -4.741992 1.534538 -0.170504
v -4.741992 1.193529 -0.170504
v 4.741992 1.534538 -0.170504
v 4.741992 1.193529 -0.170504
v -4.741992 1.534538 0.170504
v -4.741992 1.193529 0.170504
v 4.741992 1.534538 0.170504
v 4.741992 1.193529 0.170504
v -4.741992 2.216555 -0.170504
v -4.741992 1.875546 -0.170504
v 4.741992 2.216555 -0.170504
v 4.741992 1.875546 -0.170504
v -4.741992 2.216555 0.170504
v -4.741992 1.875546 0.170504
v 4.741992 2.216555 0.170504
v 4.741992 1.875546 0.170504
v -4.741992 2.898571 -0.170504
v -4.741992 2.557563 -0.170504
v 4.741992 2.898571 -0.170504
v 4.741992 2.557563 -0.170504
v -4.741992 2.898571 0.170504
v -4.741992 2.557563 0.170504
v 4.741992 2.898571 0.170504
v 4.741992 2.557563 0.170504
v -4.741992 3.580588 -0.170504
v -4.741992 3.239580 -0.170504
v 4.741992 3.580588 -0.170504
v 4.741992 3.239580 -0.170504
v -4.741992 3.580588 0.170504
v -4.741992 3.239580 0.170504
v 4.741992 3.580588 0.170504
v 4.741992 3.239580 0.170504
v -4.741992 4.262605 -0.170504
v -4.741992 3.921597 -0.170504
v 4.741992 4.262605 -0.170504
v 4.741992 3.921597 -0.170504
v -4.741992 4.262605 0.170504
v -4.741992 3.921597 0.170504
v 4.741992 4.262605 0.170504
v 4.741992 3.921597 0.170504
v -4.741992 4.944622 -0.170504
v -4.741992 4.603614 -0.170504
v 4.741992 4.944622 -0.170504
v 4.741992 4.603614 -0.170504
v -4.741992 4.944622 0.170504
v -4.741992 4.603614 0.170504
v 4.741992 4.944622 0.170504
v 4.741992 4.603614 0.170504
v -3.808895 5.168372 -0.247119
v -4.169310 5.168372 -0.247119
v -3.808895 -0.585214 -0.247119
v -4.169311 -0.585214 -0.247119
v -3.808895 5.168372 0.247119
v -4.169310 5.168372 0.247119
v -3.808895 -0.585214 0.247119
v -4.169311 -0.585214 0.247119
v -3.088064 5.168372 -0.247119
v -3.448479 5.168372 -0.247119
v -3.088065 -0.585214 -0.247119
v -3.448480 -0.585214 -0.247119
v -3.088064 5.168372 0.247119
v -3.448479 5.168372 0.247119
v -3.088065 -0.585214 0.247119
v -3.448480 -0.585214 0.247119
v -2.367234 5.168372 -0.247119
v -2.727649 5.168372 -0.247119
v -2.367234 -0.585214 -0.247119
v -2.727649 -0.585214 -0.247119
v -2.367234 5.168372 0.247119
v -2.727649 5.168372 0.247119
v -2.367234 -0.585214 0.247119
v -2.727649 -0.585214 0.247119
v -1.646403 5.168372 -0.247119
v -2.006819 5.168372 -0.247119
v -1.646404 -0.585214 -0.247119
v -2.006819 -0.585214 -0.247119
v -1.646403 5.168372 0.247119
v -2.006819 5.168372 0.247119
v -1.646404 -0.585214 0.247119
v -2.006819 -0.585214 0.247119
v -0.925573 5.168372 -0.247119
v -1.285988 5.168372 -0.247119
v -0.925573 -0.585214 -0.247119
v -1.285988 -0.585214 -0.247119
v -0.925573 5.168372 0.247119
v -1.285988 5.168372 0.247119
v -0.925573 -0.585214 0.247119
v -1.285988 -0.585214 0.247119
v -0.204743 5.168371 -0.247119
v -0.565158 5.168372 -0.247119
v -0.204743 -0.585214 -0.247119
v -0.565158 -0.585214 -0.247119
v -0.204742 5.168371 0.247119
v -0.565158 5.168372 0.247119
v -0.204742 -0.585214 0.247119
v -0.565158 -0.585214 0.247119
v 0.516088 5.168371 -0.247119
v 0.155673 5.168371 -0.247119
v 0.516088 -0.585214 -0.247119
v 0.155673 -0.585214 -0.247119
v 0.516088 5.168371 0.247119
v 0.155673 5.168371 0.247119
v 0.516088 -0.585214 0.247119
v 0.155673 -0.585214 0.247119
v 1.236919 5.168371 -0.247119
v 0.876503 5.168371 -0.247119
v 1.236919 -0.585214 -0.247119
v 0.876503 -0.585214 -0.247119
v 1.236919 5.168371 0.247119
v 0.876503 5.168371 0.247119
v 1.236919 -0.585214 0.247119
v 0.876503 -0.585214 0.247119
v 1.957749 5.168371 -0.247119
v 1.597334 5.168371 -0.247119
v 1.957749 -0.585214 -0.247119
v 1.597334 -0.585214 -0.247119
v 1.957749 5.168371 0.247119
v 1.597334 5.168371 0.247119
v 1.957749 -0.585214 0.247119
v 1.597334 -0.585214 0.247119
v 2.678579 5.168371 -0.247119
v 2.318164 5.168371 -0.247119
v 2.678579 -0.585214 -0.247119
v 2.318164 -0.585214 -0.247119
v 2.678579 5.168371 0.247119
v 2.318164 5.168371 0.247119
v 2.678579 -0.585214 0.247119
v 2.318164 -0.585214 0.247119
v 3.399410 5.168371 -0.247119
v 3.038994 5.168371 -0.247119
v 3.399410 -0.585214 -0.247119
v 3.038994 -0.585214 -0.247119
v 3.399410 5.168371 0.247119
v 3.038994 5.168371 0.247119
v 3.399410 -0.585214 0.247119
v 3.038994 -0.585214 0.247119
v 4.120240 5.168371 -0.247119
v 3.759825 5.168371 -0.247119
v 4.120240 -0.585214 -0.247119
v 3.759825 -0.585214 -0.247119
v 4.120240 5.168371 0.247119
v 3.759825 5.168371 0.247119
v 4.120240 -0.585214 0.247119
v 3.759825 -0.585214 0.247119
vn -0.0000 1.0000 -0.0000
vn 1.0000 -0.0000 -0.0000
vn -0.0000 -0.0000 1.0000
vn -0.0000 -1.0000 -0.0000
vn -0.0000 -0.0000 -1.0000
vn -1.0000 -0.0000 -0.0000
vt 0.924264 0.500000
vt 0.924264 0.500000
vt 0.924264 0.500000
vt 0.924264 0.500000
vt 0.924264 0.500000
vt 0.924264 0.500000
vt 0.924264 0.500000
vt 0.924264 0.500000
vt 0.924264 0.500000
vt 0.924264 0.500000
vt 0.924264 0.500000
vt 0.924264 0.500000
s 0
usemtl Material
f 1/1/1 5/2/1 7/3/1 3/4/1
f 4/5/2 3/4/2 7/6/2 8/7/2
f 8/8/3 7/9/3 5/10/3 6/11/3
f 6/12/4 2/12/4 4/5/4 8/5/4
f 2/12/5 1/1/5 3/4/5 4/5/5
f 6/11/6 5/10/6 1/1/6 2/12/6
f 9/1/1 13/2/1 15/3/1 11/4/1
f 12/5/2 11/4/2 15/6/2 16/7/2
f 16/8/3 15/9/3 13/10/3 14/11/3
f 14/12/4 10/12/4 12/5/4 16/5/4
f 10/12/5 9/1/5 11/4/5 12/5/5
f 14/11/6 13/10/6 9/1/6 10/12/6
f 17/1/1 21/2/1 23/3/1 19/4/1
f 20/5/2 19/4/2 23/6/2 24/7/2
f 24/8/3 23/9/3 21/10/3 22/11/3
f 22/12/4 18/12/4 20/5/4 24/5/4
f 18/12/5 17/1/5 19/4/5 20/5/5
f 22/11/6 21/10/6 17/1/6 18/12/6
f 25/1/1 29/2/1 31/3/1 27/4/1
f 28/5/2 27/4/2 31/6/2 32/7/2
f 32/8/3 31/9/3 29/10/3 30/11/3
f 30/12/4 26/12/4 28/5/4 32/5/4
f 26/12/5 25/1/5 27/4/5 28/5/5
f 30/11/6 29/10/6 25/1/6 26/12/6
f 33/1/1 37/2/1 39/3/1 35/4/1
f 36/5/2 35/4/2 39/6/2 40/7/2
f 40/8/3 39/9/3 37/10/3 38/11/3
f 38/12/4 34/12/4 36/5/4 40/5/4
f 34/12/5 33/1/5 35/4/5 36/5/5
f 38/11/6 37/10/6 33/1/6 34/12/6
f 41/1/1 45/2/1 47/3/1 43/4/1
f 44/5/2 43/4/2 47/6/2 48/7/2
f 48/8/3 47/9/3 45/10/3 46/11/3
f 46/12/4 42/12/4 44/5/4 48/5/4
f 42/12/5 41/1/5 43/4/5 44/5/5
f 46/11/6 45/10/6 41/1/6 42/12/6
f 49/1/1 53/2/1 55/3/1 51/4/1
f 52/5/2 51/4/2 55/6/2 56/7/2
f 56/8/3 55/9/3 53/10/3 54/11/3
f 54/12/4 50/12/4 52/5/4 56/5/4
f 50/12/5 49/1/5 51/4/5 52/5/5
f 54/11/6 53/10/6 49/1/6 50/12/6
f 57/1/1 61/2/1 63/3/1 59/4/1
f 60/5/2 59/4/2 63/6/2 64/7/2
f 64/8/3 63/9/3 61/10/3 62/11/3
f 62/12/4 58/12/4 60/5/4 64/5/4
f 58/12/5 57/1/5 59/4/5 60/5/5
f 62/11/6 61/10/6 57/1/6 58/12/6
f 65/1/2 69/2/2 71/3/2 67/4/2
f 68/5/4 67/4/4 71/6/4 72/7/4
f 72/8/3 71/9/3 69/10/3 70/11/3
f 70/12/6 66/12/6 68/5/6 72/5/6
f 66/12/5 65/1/5 67/4/5 68/5/5
f 70/11/1 69/10/1 65/1/1 66/12/1
f 73/1/2 77/2/2 79/3/2 75/4/2
f 76/5/4 75/4/4 79/6/4 80/7/4
f 80/8/3 79/9/3 77/10/3 78/11/3
f 78/12/6 74/12/6 76/5/6 80/5/6
f 74/12/5 73/1/5 75/4/5 76/5/5
f 78/11/1 77/10/1 73/1/1 74/12/1
f 81/1/2 85/2/2 87/3/2 83/4/2
f 84/5/4 83/4/4 87/6/4 88/7/4
f 88/8/3 87/9/3 85/10/3 86/11/3
f 86/12/6 82/12/6 84/5/6 88/5/6
f 82/12/5 81/1/5 83/4/5 84/5/5
f 86/11/1 85/10/1 81/1/1 82/12/1
f 89/1/2 93/2/2 95/3/2 91/4/2
f 92/5/4 91/4/4 95/6/4 96/7/4
f 96/8/3 95/9/3 93/10/3 94/11/3
f 94/12/6 90/12/6 92/5/6 96/5/6
f 90/12/5 89/1/5 91/4/5 92/5/5
f 94/11/1 93/10/1 89/1/1 90/12/1
f 97/1/2 101/2/2 103/3/2 99/4/2
f 100/5/4 99/4/4 103/6/4 104/7/4
f 104/8/3 103/9/3 101/10/3 102/11/3
f 102/12/6 98/12/6 100/5/6 104/5/6
f 98/12/5 97/1/5 99/4/5 100/5/5
f 102/11/1 101/10/1 97/1/1 98/12/1
f 105/1/2 109/2/2 111/3/2 107/4/2
f 108/5/4 107/4/4 111/6/4 112/7/4
f 112/8/3 111/9/3 109/10/3 110/11/3
f 110/12/6 106/12/6 108/5/6 112/5/6
f 106/12/5 105/1/5 107/4/5 108/5/5
f 110/11/1 109/10/1 105/1/1 106/12/1
f 113/1/2 117/2/2 119/3/2 115/4/2
f 116/5/4 115/4/4 119/6/4 120/7/4
f 120/8/3 119/9/3 117/10/3 118/11/3
f 118/12/6 114/12/6 116/5/6 120/5/6
f 114/12/5 113/1/5 115/4/5 116/5/5
f 118/11/1 117/10/1 113/1/1 114/12/1
f 121/1/2 125/2/2 127/3/2 123/4/2
f 124/5/4 123/4/4 127/6/4 128/7/4
f 128/8/3 127/9/3 125/10/3 126/11/3
f 126/12/6 122/12/6 124/5/6 128/5/6
f 122/12/5 121/1/5 123/4/5 124/5/5
f 126/11/1 125/10/1 121/1/1 122/12/1
f 129/1/2 133/2/2 135/3/2 131/4/2
f 132/5/4 131/4/4 135/6/4 136/7/4
f 136/8/3 135/9/3 133/10/3 134/11/3
f 134/12/6 130/12/6 132/5/6 136/5/6
f 130/12/5 129/1/5 131/4/5 132/5/5
f 134/11/1 133/10/1 129/1/1 130/12/1
f 137/1/2 141/2/2 143/3/2 139/4/2
f 140/5/4 139/4/4 143/6/4 144/7/4
f 144/8/3 143/9/3 141/10/3 142/11/3
f 142/12/6 138/12/6 140/5/6 144/5/6
f 138/12/5 137/1/5 139/4/5 140/5/5
f 142/11/1 141/10/1 137/1/1 138/12/1
f 145/1/2 149/2/2 151/3/2 147/4/2
f 148/5/4 147/4/4 151/6/4 152/7/4
f 152/8/3 151/9/3 149/10/3 150/11/3
f 150/12/6 146/12/6 148/5/6 152/5/6
f 146/12/5 145/1/5 147/4/5 148/5/5
f 150/11/1 149/10/1 145/1/1 146/12/1
f 153/1/2 157/2/2 159/3/2 155/4/2
f 156/5/4 155/4/4 159/6/4 160/7/4
f 160/8/3 159/9/3 157/10/3 158/11/3
f 158/12/6 154/12/6 156/5/6 160/5/6
f 154/12/5 153/1/5 155/4/5 156/5/5
f 158/11/1 157/10/1 153/1/1 154/12/1
