# Blender 5.1.2
# www.blender.org
mtllib splash.mtl
o 立方体.003
v 28.000000 0.088517 17.004511
v 28.000000 1.088516 17.004511
v 28.000000 0.088517 4.995490
v 28.000000 1.088516 4.995490
v 34.000000 0.088517 17.004511
v 34.000000 1.088516 17.004511
v 34.000000 0.088517 4.995490
v 34.000000 1.088516 4.995490
v 29.053574 0.088517 5.961765
v 33.305424 0.088517 5.961765
v 29.053574 0.088517 16.267990
v 33.305424 0.088517 16.267990
v 33.305424 1.088516 5.961765
v 29.053574 1.088516 5.961765
v 29.053574 1.088516 16.267990
v 33.305424 1.088516 16.267990
v 5.000002 0.088517 -2.630007
v 5.000002 1.088516 -2.630007
v 5.000002 0.088517 -8.630007
v 5.000002 1.088516 -8.630007
v 26.000002 0.088517 -2.630007
v 26.000002 1.088516 -2.630007
v 26.000002 0.088517 -8.630007
v 26.000002 1.088516 -8.630007
v 24.945152 0.088517 -3.199996
v 24.945152 0.088517 -7.907803
v 5.946068 0.088517 -3.199996
v 5.946068 0.088517 -7.907803
v 5.946068 1.088516 -3.199996
v 5.946068 1.088516 -7.907803
v 24.945152 1.088516 -3.199996
v 24.945152 1.088516 -7.907803
v 13.512524 1.088516 -2.630007
v 16.542212 1.088516 -2.630007
v 13.512524 0.088517 -2.630007
v 16.542212 0.088517 -2.630007
v 13.512524 0.088517 -7.907803
v 13.512524 0.088517 -7.946239
v 16.542212 0.088517 -7.946239
v 16.542212 0.088517 -7.907803
v 13.512524 0.088517 -3.199996
v 16.542212 0.088517 -3.199996
v 16.542212 1.088516 -3.199996
v 13.512524 1.088516 -3.199996
v 13.512524 1.088516 -7.946239
v 13.512524 1.088516 -7.907803
v 16.542212 1.088516 -7.946239
v 16.542212 1.088516 -7.907803
v 12.884510 0.088517 4.400313
v 12.884510 1.088516 4.400313
v 12.884510 0.088517 -2.743925
v 12.884510 1.088516 -2.743925
v 17.084509 0.088517 4.400313
v 17.084509 1.088516 4.400313
v 17.084509 0.088517 -2.743925
v 17.084509 1.088516 -2.743925
v 16.542210 1.088516 -2.743925
v 13.512522 1.088516 -2.743925
v 13.512522 0.088517 -2.743925
v 16.542210 0.088517 -2.743925
v 13.512522 0.088517 3.833632
v 16.542210 0.088517 3.833632
v 13.512522 1.088516 3.833632
v 16.542210 1.088516 3.833632
v -3.500000 0.088517 17.004509
v -3.500000 1.088516 17.004509
v -3.500000 0.088517 4.995489
v -3.500000 1.088516 4.995489
v 2.500000 0.088517 17.004509
v 2.500000 1.088516 17.004509
v 2.500000 0.088517 4.995489
v 2.500000 1.088516 4.995489
v -2.706821 0.088517 5.961764
v 1.545029 0.088517 5.961764
v -2.706821 0.088517 16.267988
v 1.545029 0.088517 16.267988
v 1.545029 1.088516 5.961764
v -2.706821 1.088516 5.961764
v -2.706821 1.088516 16.267988
v 1.545029 1.088516 16.267988
vn -1.0000 -0.0000 -0.0000
vn -0.0000 -0.0000 -1.0000
vn 1.0000 -0.0000 -0.0000
vn -0.0000 -0.0000 1.0000
vn -0.0000 -1.0000 -0.0000
vn -0.0000 1.0000 -0.0000
vt 3.615546 0.128612
vt 3.615546 0.983119
vt -2.541535 0.983119
vt -2.541535 0.128612
vt -1.413408 1.068748
vt -1.413408 0.042982
vt 2.279352 0.042982
vt 2.279352 1.068748
vt 3.361970 0.153532
vt 3.361970 0.958198
vt -2.435982 0.958198
vt -2.435982 0.153532
vt 2.370638 0.054863
vt 2.370638 1.056868
vt -1.236583 1.056868
vt -1.236583 0.054863
vt 0.375000 0.500000
vt 0.375000 0.750000
vt 0.346059 0.734667
vt 0.346059 0.520116
vt 0.125000 0.750000
vt 0.125000 0.500000
vt 0.168899 0.520116
vt 0.168899 0.734667
vt 1.632413 4.318781
vt 1.953391 5.063006
vt -0.819335 5.063006
vt -0.819335 -4.186358
vt 1.953391 -4.186358
vt 1.632413 -3.619087
vt -0.332458 -3.619087
vt -0.332458 4.318781
vt 0.534411 0.500010
vt 0.534412 0.500010
vt 0.534412 0.500005
vt 0.534411 0.500005
vt 0.534412 0.500000
vt 0.534411 0.500000
vt 0.534412 0.499995
vt 0.534411 0.499995
vt 0.534412 0.499990
vt 0.534411 0.499990
vt 0.000000 0.000000
vt 1.543271 0.196795
vt 1.543271 0.854084
vt -0.822974 0.854084
vt -0.822974 0.196795
vt 6.508584 0.045063
vt 6.508584 1.005815
vt -5.596888 1.005815
vt -5.596888 0.045063
vt 2.660784 -0.035929
vt 2.660784 1.086809
vt -1.381080 1.086809
vt -1.381080 -0.035929
vt -2.182816 1.035753
vt -2.182816 0.015125
vt 3.030055 0.015125
vt 3.030055 1.035753
vt -1.641985 0.930316
vt -1.641985 0.120562
vt 2.953106 0.120562
vt 2.953106 0.930316
vt 0.136263 0.726250
vt 0.136263 0.530092
vt 0.226340 0.530092
vt 0.262407 0.750000
vt 0.262407 0.726250
vt 0.352484 0.726250
vt 0.352484 0.530092
vt 0.262407 0.530092
vt 0.262407 0.528490
vt 0.226340 0.528490
vt 0.226340 0.726250
vt 0.226340 0.750000
vt 7.531353 2.482474
vt 8.202865 2.918168
vt 2.160707 2.918168
vt 2.160703 2.482473
vt 7.187318 -2.510892
vt 7.187318 3.861432
vt -6.194560 3.861432
vt -5.591696 3.094412
vt -0.770106 3.094412
vt -0.770106 3.135231
vt 1.160508 3.135231
vt 1.160508 3.094412
vt 6.515132 3.094412
vt 6.515132 -1.905533
vt 1.160508 -1.905533
vt 1.160508 -2.510892
vt 8.202865 -1.668168
vt 7.531350 -1.116123
vt 0.604692 0.147058
vt 0.604574 0.147058
vt 0.603730 0.145723
vt 0.605536 0.145723
vt 0.604574 0.148394
vt 0.604692 0.148394
vt 0.604692 0.148116
vt 0.604574 0.148116
vt 0.603730 0.150008
vt 0.605536 0.150008
vt 0.604574 0.149062
vt 0.604692 0.149062
vt 0.604574 0.149730
vt 0.604692 0.149730
vt 0.604692 0.149452
vt 0.604574 0.149452
vt 0.604692 0.149341
vt 0.604574 0.149341
vt 0.543900 0.157230
vt 0.543901 0.146088
vt 0.500000 0.146088
vt 0.500000 0.157230
vt 0.500000 0.249249
vt 0.604574 0.147726
vt 0.604692 0.147726
vt 0.543900 0.249249
vt 0.500000 0.592770
vt 0.500000 0.603912
vt 0.543901 0.603912
vt 0.543901 0.592771
vt 0.543901 0.500751
vt 0.500000 0.500751
vt 0.411443 0.019686
vt 6.863884 1.688749
vt 6.863884 2.901623
vt -1.064947 2.901623
vt -1.064945 1.688749
vt 0.745246 10.909845
vt 0.129754 -0.269365
vt 0.368170 -0.269365
vt 0.368169 4.859737
vt 1.976231 1.956757
vt 1.976231 2.633615
vt 1.700133 4.859738
vt 1.700133 -0.269365
vt 3.950016 -0.142860
vt 3.950016 1.230777
vt -2.931152 1.230777
vt -2.931152 -0.142860
vt 1.828919 0.341918
vt 1.828919 1.349711
vt -0.710721 1.349711
vt -0.710721 0.341918
vt 0.129754 -0.931631
vt -1.716723 -0.269365
vt -1.716723 -5.398468
vt 0.129754 -5.398468
vt 0.129754 -4.631529
vt -1.570260 -4.631529
vt -1.570260 -0.931631
vt -2.332216 10.909845
vt -2.332216 3.938732
vt 0.745246 3.938731
vt 0.347886 10.909845
vt 0.347886 4.491682
vt -1.872053 4.491680
vt -1.872051 10.909845
vt 0.129787 0.488162
vt 0.129787 0.488174
vt 0.129801 0.488174
vt 0.129801 0.488162
vt 0.129745 0.488162
vt 0.129730 0.488162
vt 0.129730 0.488174
vt 0.129745 0.488174
vt 0.129707 0.488162
vt 0.129707 0.488174
vt 0.407141 0.032886
vt -2.176135 0.895802
vt -2.176135 0.128737
vt 3.350886 0.128737
vt 3.350886 0.895802
vt -1.253431 1.082979
vt -1.253431 -0.071107
vt 2.901277 -0.071107
vt 2.901277 1.082979
vt 3.614203 0.074926
vt 3.614203 0.941569
vt -2.630298 0.941569
vt -2.630298 0.074926
vt 1.468832 0.197482
vt 1.468832 0.837850
vt -0.836499 0.837850
vt -0.836499 0.197482
vt 0.158049 0.520116
vt 0.158049 0.734667
vt 0.335210 0.734667
vt 0.335210 0.520116
vt -0.727817 4.024311
vt -0.727817 -3.315563
vt -0.436944 -2.865405
vt -0.436944 3.433727
vt 1.472491 -3.315563
vt 1.472491 4.024311
vt 1.122285 3.433727
vt 1.122285 -2.865405
vt 0.534411 0.499998
vt 0.534411 0.499998
vt 0.534411 0.499999
vt 0.534411 0.499999
vt 0.534411 0.500000
vt 0.534411 0.500000
vt 0.534411 0.500001
vt 0.534411 0.500001
vt 0.534411 0.500002
vt 0.534411 0.500002
s 0
usemtl Material.001
f 1/1/1 2/2/1 4/3/1 3/4/1
f 3/5/2 4/6/2 8/7/2 7/8/2
f 7/9/3 8/10/3 6/11/3 5/12/3
f 5/13/4 6/14/4 2/15/4 1/16/4
f 7/17/5 5/18/5 12/19/5 10/20/5
f 5/18/5 1/21/5 3/22/5 7/17/5 10/20/5 9/23/5 11/24/5 12/19/5
f 13/25/6 8/26/6 4/27/6 2/28/6 6/29/6 16/30/6 15/31/6 14/32/6
f 16/30/6 6/29/6 8/26/6 13/25/6
f 15/33/3 11/34/3 9/35/3 14/36/3
f 14/36/4 9/35/4 10/37/4 13/38/4
f 10/37/1 12/39/1 16/40/1 13/38/1
f 12/39/2 11/41/2 15/42/2 16/40/2
f 10/43/6 9/43/6 11/43/6 12/43/6
f 17/44/1 18/45/1 20/46/1 19/47/1
f 19/48/2 20/49/2 24/50/2 23/51/2
f 23/52/3 24/53/3 22/54/3 21/55/3
f 18/56/4 17/57/4 35/58/4 33/59/4
f 21/60/4 22/61/4 34/62/4 36/63/4
f 27/64/5 17/21/5 19/22/5 28/65/5
f 37/66/5 28/65/5 19/22/5 23/17/5 21/18/5 36/67/5 42/68/5 25/69/5 26/70/5 40/71/5 39/72/5 38/73/5
f 27/64/5 41/74/5 35/75/5 17/21/5
f 29/76/6 18/77/6 33/78/6 44/79/6
f 22/80/6 24/81/6 20/82/6 30/83/6 46/84/6 45/85/6 47/86/6 48/87/6 32/88/6 31/89/6 43/90/6 34/91/6
f 20/92/6 18/77/6 29/76/6 30/93/6
f 29/94/3 27/95/3 28/96/3 30/97/3
f 26/98/4 32/99/4 48/100/4 40/101/4
f 30/97/4 28/96/4 37/102/4 46/103/4
f 26/98/1 25/104/1 31/105/1 32/99/1
f 27/106/2 29/107/2 44/108/2 41/109/2
f 43/110/2 31/105/2 25/104/2 42/111/2
f 44/112/3 33/113/3 35/114/3 41/115/3
f 37/116/3 38/117/3 45/118/3 46/119/3
f 45/118/4 38/117/4 39/98/4 47/99/4
f 42/120/1 36/121/1 34/122/1 43/123/1
f 48/124/1 47/99/1 39/98/1 40/125/1
f 27/126/6 41/126/6 35/126/6 36/126/6 42/126/6 25/126/6 26/126/6 40/126/6 37/126/6 28/126/6
f 49/127/1 50/128/1 52/129/1 51/130/1
f 56/131/2 55/132/2 60/133/2 57/134/2
f 51/135/2 52/136/2 58/137/2 59/138/2
f 55/139/3 56/140/3 54/141/3 53/142/3
f 53/143/4 54/144/4 50/145/4 49/146/4
f 60/147/5 55/132/5 53/148/5 49/149/5 51/150/5 59/151/5 61/152/5 62/153/5
f 52/154/6 50/155/6 54/156/6 56/131/6 57/157/6 64/158/6 63/159/6 58/160/6
f 59/161/3 58/162/3 63/163/3 61/164/3
f 60/165/1 62/166/1 64/167/1 57/168/1
f 62/166/2 61/169/2 63/170/2 64/167/2
f 55/171/6 51/171/6 59/171/6 61/171/6 62/171/6 60/171/6
f 65/172/1 66/173/1 68/174/1 67/175/1
f 67/176/2 68/177/2 72/178/2 71/179/2
f 71/180/3 72/181/3 70/182/3 69/183/3
f 69/184/4 70/185/4 66/186/4 65/187/4
f 73/188/5 67/22/5 71/17/5 69/18/5 65/21/5 75/189/5 76/190/5 74/191/5
f 75/189/5 65/21/5 67/22/5 73/188/5
f 68/192/6 66/193/6 79/194/6 78/195/6
f 79/194/6 66/193/6 70/196/6 72/197/6 68/192/6 78/195/6 77/198/6 80/199/6
f 79/200/3 75/201/3 73/202/3 78/203/3
f 78/203/4 73/202/4 74/204/4 77/205/4
f 74/204/1 76/206/1 80/207/1 77/205/1
f 76/206/2 75/208/2 79/209/2 80/207/2
f 73/43/6 75/43/6 76/43/6 74/43/6
