# MagicaVoxel @ Ephtracy

# group
o 

# material
mtllib Pistol.mtl
usemtl palette

# normals
vn -1 0 0
vn 1 0 0
vn 0 0 1
vn 0 0 -1
vn 0 -1 0
vn 0 1 0

# texcoords
vt 0.951172 0.5
vt 0.982422 0.5
vt 0.986328 0.5
vt 0.990234 0.5

# verts
v -0.9 0.4 0.2
v -0.9 0.4 -1.2
v -0.9 0.6 0.2
v -0.9 0.6 -1.2
v -0.8 0.3 0.2
v -0.8 0.3 -1.2
v -0.8 0.4 1.3
v -0.8 0.4 0.2
v -0.8 0.4 -1.2
v -0.8 0.4 -1.4
v -0.8 0.6 1.3
v -0.8 0.6 0.2
v -0.8 0.6 -1.2
v -0.8 0.6 -1.4
v -0.8 0.7 0.2
v -0.8 0.7 -1.2
v -0.7 0.3 1.3
v -0.7 0.3 0.2
v -0.7 0.3 -1.2
v -0.7 0.3 -1.4
v -0.7 0.4 1.4
v -0.7 0.4 1.3
v -0.7 0.4 0.2
v -0.7 0.4 -1.2
v -0.7 0.4 -1.4
v -0.7 0.6 1.4
v -0.7 0.6 1.3
v -0.7 0.6 0.2
v -0.7 0.6 -1.2
v -0.7 0.6 -1.4
v -0.7 0.7 1.3
v -0.7 0.7 0.2
v -0.7 0.7 -1.2
v -0.7 0.7 -1.4
v -0.5 0.4 -1.3
v -0.5 0.4 -1.4
v -0.5 0.6 -1.3
v -0.5 0.6 -1.4
v 0 0.4 0.6
v 0 0.4 0.5
v 0 0.6 0.6
v 0 0.6 0.5
v 0.1 0.4 0.7
v 0.1 0.4 0.6
v 0.1 0.6 0.7
v 0.1 0.6 0.6
v 0.2 0.3 1.2
v 0.2 0.3 1.1
v 0.2 0.4 1.3
v 0.2 0.4 1.2
v 0.2 0.4 1.1
v 0.2 0.6 1.3
v 0.2 0.6 1.2
v 0.2 0.6 1.1
v 0.2 0.7 1.2
v 0.2 0.7 1.1
v 0.5 0.3 1.3
v 0.5 0.3 1.2
v 0.5 0.4 1.4
v 0.5 0.4 1.3
v 0.5 0.4 1.2
v 0.5 0.6 1.4
v 0.5 0.6 1.3
v 0.5 0.6 1.2
v 0.5 0.7 1.3
v 0.5 0.7 1.2
v -0.7 0.4 -1.3
v -0.7 0.4 -1.4
v -0.7 0.6 -1.3
v -0.7 0.6 -1.4
v -0.5 0.3 -1.2
v -0.5 0.3 -1.4
v -0.5 0.4 -1.2
v -0.5 0.4 -1.4
v -0.5 0.6 -1.2
v -0.5 0.6 -1.4
v -0.5 0.7 -1.2
v -0.5 0.7 -1.4
v -0.4 0.3 -0.8
v -0.4 0.3 -1.2
v -0.4 0.4 -0.8
v -0.4 0.4 -1.2
v -0.4 0.4 -1.4
v -0.4 0.6 -0.8
v -0.4 0.6 -1.2
v -0.4 0.6 -1.4
v -0.4 0.7 -0.8
v -0.4 0.7 -1.2
v -0.3 0.3 -0.3
v -0.3 0.3 -0.8
v -0.3 0.4 -0.3
v -0.3 0.4 -0.8
v -0.3 0.4 -1.2
v -0.3 0.6 -0.3
v -0.3 0.6 -0.8
v -0.3 0.6 -1.2
v -0.3 0.7 -0.3
v -0.3 0.7 -0.8
v -0.2 0.3 1.3
v -0.2 0.3 1.2
v -0.2 0.3 0.7
v -0.2 0.3 -0.3
v -0.2 0.4 1.4
v -0.2 0.4 1.3
v -0.2 0.4 1.2
v -0.2 0.4 0.7
v -0.2 0.4 -0.3
v -0.2 0.4 -0.8
v -0.2 0.6 1.4
v -0.2 0.6 1.3
v -0.2 0.6 1.2
v -0.2 0.6 0.7
v -0.2 0.6 -0.3
v -0.2 0.6 -0.8
v -0.2 0.7 1.3
v -0.2 0.7 1.2
v -0.2 0.7 0.7
v -0.2 0.7 -0.3
v -0.1 0.3 1.2
v -0.1 0.3 1.1
v -0.1 0.3 0.8
v -0.1 0.3 0.7
v -0.1 0.4 1.3
v -0.1 0.4 1.2
v -0.1 0.4 1.1
v -0.1 0.4 0.8
v -0.1 0.4 0.7
v -0.1 0.4 0.5
v -0.1 0.4 0.4
v -0.1 0.4 -0.3
v -0.1 0.6 1.3
v -0.1 0.6 1.2
v -0.1 0.6 1.1
v -0.1 0.6 0.8
v -0.1 0.6 0.7
v -0.1 0.6 0.5
v -0.1 0.6 0.4
v -0.1 0.6 -0.3
v -0.1 0.7 1.2
v -0.1 0.7 1.1
v -0.1 0.7 0.8
v -0.1 0.7 0.7
v 0 0.4 0.5
v 0 0.4 0.4
v 0 0.6 0.5
v 0 0.6 0.4
v 0.1 0.4 0.6
v 0.1 0.4 0.5
v 0.1 0.6 0.6
v 0.1 0.6 0.5
v 0.2 0.3 0.9
v 0.2 0.3 0.8
v 0.2 0.4 0.9
v 0.2 0.4 0.8
v 0.2 0.4 0.6
v 0.2 0.6 0.9
v 0.2 0.6 0.8
v 0.2 0.6 0.6
v 0.2 0.7 0.9
v 0.2 0.7 0.8
v 0.5 0.3 1
v 0.5 0.3 0.9
v 0.5 0.4 1
v 0.5 0.4 0.9
v 0.5 0.4 0.8
v 0.5 0.6 1
v 0.5 0.6 0.9
v 0.5 0.6 0.8
v 0.5 0.7 1
v 0.5 0.7 0.9
v 0.8 0.3 1.3
v 0.8 0.3 1.2
v 0.8 0.3 1.1
v 0.8 0.3 1
v 0.8 0.4 1.4
v 0.8 0.4 1.3
v 0.8 0.4 1.2
v 0.8 0.4 1.1
v 0.8 0.4 1
v 0.8 0.4 0.9
v 0.8 0.6 1.4
v 0.8 0.6 1.3
v 0.8 0.6 1.2
v 0.8 0.6 1.1
v 0.8 0.6 1
v 0.8 0.6 0.9
v 0.8 0.7 1.3
v 0.8 0.7 1.2
v 0.8 0.7 1.1
v 0.8 0.7 1
v 0.9 0.4 1.3
v 0.9 0.4 1
v 0.9 0.6 1.3
v 0.9 0.6 1
v -0.7 0.4 1.4
v -0.7 0.6 1.4
v -0.2 0.4 1.4
v -0.2 0.6 1.4
v 0.5 0.4 1.4
v 0.5 0.6 1.4
v 0.8 0.4 1.4
v 0.8 0.6 1.4
v -0.8 0.4 1.3
v -0.8 0.6 1.3
v -0.7 0.3 1.3
v -0.7 0.4 1.3
v -0.7 0.6 1.3
v -0.7 0.7 1.3
v -0.5 0.3 1.3
v -0.5 0.4 1.3
v -0.5 0.6 1.3
v -0.5 0.7 1.3
v -0.4 0.3 1.3
v -0.4 0.4 1.3
v -0.4 0.6 1.3
v -0.4 0.7 1.3
v -0.2 0.3 1.3
v -0.2 0.4 1.3
v -0.2 0.6 1.3
v -0.2 0.7 1.3
v -0.1 0.4 1.3
v -0.1 0.6 1.3
v 0.2 0.4 1.3
v 0.2 0.6 1.3
v 0.5 0.3 1.3
v 0.5 0.4 1.3
v 0.5 0.6 1.3
v 0.5 0.7 1.3
v 0.8 0.3 1.3
v 0.8 0.4 1.3
v 0.8 0.6 1.3
v 0.8 0.7 1.3
v 0.9 0.4 1.3
v 0.9 0.6 1.3
v -0.2 0.3 1.2
v -0.2 0.4 1.2
v -0.2 0.6 1.2
v -0.2 0.7 1.2
v -0.1 0.3 1.2
v -0.1 0.4 1.2
v -0.1 0.6 1.2
v -0.1 0.7 1.2
v 0.2 0.3 1.2
v 0.2 0.4 1.2
v 0.2 0.6 1.2
v 0.2 0.7 1.2
v 0.5 0.3 1.2
v 0.5 0.4 1.2
v 0.5 0.6 1.2
v 0.5 0.7 1.2
v -0.1 0.3 1.1
v -0.1 0.4 1.1
v -0.1 0.6 1.1
v -0.1 0.7 1.1
v 0.2 0.3 1.1
v 0.2 0.4 1.1
v 0.2 0.6 1.1
v 0.2 0.7 1.1
v 0 0.4 0.6
v 0 0.6 0.6
v 0.1 0.4 0.6
v 0.1 0.6 0.6
v -0.1 0.4 0.5
v -0.1 0.6 0.5
v 0 0.4 0.5
v 0 0.6 0.5
v -0.9 0.4 0.2
v -0.9 0.6 0.2
v -0.8 0.3 0.2
v -0.8 0.4 0.2
v -0.8 0.6 0.2
v -0.8 0.7 0.2
v -0.7 0.3 0.2
v -0.7 0.4 0.2
v -0.7 0.6 0.2
v -0.7 0.7 0.2
v 0.5 0.3 1
v 0.5 0.4 1
v 0.5 0.6 1
v 0.5 0.7 1
v 0.8 0.3 1
v 0.8 0.4 1
v 0.8 0.6 1
v 0.8 0.7 1
v 0.9 0.4 1
v 0.9 0.6 1
v 0.2 0.3 0.9
v 0.2 0.4 0.9
v 0.2 0.6 0.9
v 0.2 0.7 0.9
v 0.5 0.3 0.9
v 0.5 0.4 0.9
v 0.5 0.6 0.9
v 0.5 0.7 0.9
v 0.8 0.4 0.9
v 0.8 0.6 0.9
v -0.1 0.3 0.8
v -0.1 0.4 0.8
v -0.1 0.6 0.8
v -0.1 0.7 0.8
v 0.2 0.3 0.8
v 0.2 0.4 0.8
v 0.2 0.6 0.8
v 0.2 0.7 0.8
v 0.5 0.4 0.8
v 0.5 0.6 0.8
v -0.2 0.3 0.7
v -0.2 0.4 0.7
v -0.2 0.6 0.7
v -0.2 0.7 0.7
v -0.1 0.3 0.7
v -0.1 0.4 0.7
v -0.1 0.6 0.7
v -0.1 0.7 0.7
v 0.1 0.4 0.7
v 0.1 0.6 0.7
v 0.1 0.4 0.6
v 0.1 0.6 0.6
v 0.2 0.4 0.6
v 0.2 0.6 0.6
v 0 0.4 0.5
v 0 0.6 0.5
v 0.1 0.4 0.5
v 0.1 0.6 0.5
v -0.1 0.4 0.4
v -0.1 0.6 0.4
v 0 0.4 0.4
v 0 0.6 0.4
v -0.3 0.3 -0.3
v -0.3 0.4 -0.3
v -0.3 0.6 -0.3
v -0.3 0.7 -0.3
v -0.2 0.3 -0.3
v -0.2 0.4 -0.3
v -0.2 0.6 -0.3
v -0.2 0.7 -0.3
v -0.1 0.4 -0.3
v -0.1 0.6 -0.3
v -0.4 0.3 -0.8
v -0.4 0.4 -0.8
v -0.4 0.6 -0.8
v -0.4 0.7 -0.8
v -0.3 0.3 -0.8
v -0.3 0.4 -0.8
v -0.3 0.6 -0.8
v -0.3 0.7 -0.8
v -0.2 0.4 -0.8
v -0.2 0.6 -0.8
v -0.9 0.4 -1.2
v -0.9 0.6 -1.2
v -0.8 0.3 -1.2
v -0.8 0.4 -1.2
v -0.8 0.6 -1.2
v -0.8 0.7 -1.2
v -0.7 0.3 -1.2
v -0.7 0.4 -1.2
v -0.7 0.6 -1.2
v -0.7 0.7 -1.2
v -0.5 0.3 -1.2
v -0.5 0.4 -1.2
v -0.5 0.6 -1.2
v -0.5 0.7 -1.2
v -0.4 0.3 -1.2
v -0.4 0.4 -1.2
v -0.4 0.6 -1.2
v -0.4 0.7 -1.2
v -0.3 0.4 -1.2
v -0.3 0.6 -1.2
v -0.7 0.4 -1.3
v -0.7 0.6 -1.3
v -0.5 0.4 -1.3
v -0.5 0.6 -1.3
v -0.8 0.4 -1.4
v -0.8 0.6 -1.4
v -0.7 0.3 -1.4
v -0.7 0.4 -1.4
v -0.7 0.6 -1.4
v -0.7 0.7 -1.4
v -0.5 0.3 -1.4
v -0.5 0.4 -1.4
v -0.5 0.6 -1.4
v -0.5 0.7 -1.4
v -0.4 0.4 -1.4
v -0.4 0.6 -1.4
v -0.7 0.3 1.3
v -0.5 0.3 1.3
v -0.4 0.3 1.3
v -0.2 0.3 1.3
v 0.5 0.3 1.3
v 0.8 0.3 1.3
v -0.2 0.3 1.2
v -0.1 0.3 1.2
v 0.2 0.3 1.2
v 0.5 0.3 1.2
v 0.8 0.3 1.2
v -0.1 0.3 1.1
v 0.2 0.3 1.1
v 0.5 0.3 1.1
v 0.8 0.3 1.1
v -0.1 0.3 1
v 0.2 0.3 1
v 0.5 0.3 1
v 0.8 0.3 1
v -0.4 0.3 0.9
v -0.1 0.3 0.9
v 0.2 0.3 0.9
v 0.5 0.3 0.9
v -0.4 0.3 0.8
v -0.1 0.3 0.8
v 0.2 0.3 0.8
v -0.2 0.3 0.7
v -0.1 0.3 0.7
v -0.8 0.3 0.2
v -0.7 0.3 0.2
v -0.6 0.3 0.2
v -0.5 0.3 0.2
v -0.4 0.3 0.2
v -0.7 0.3 -0.3
v -0.6 0.3 -0.3
v -0.5 0.3 -0.3
v -0.3 0.3 -0.3
v -0.2 0.3 -0.3
v -0.4 0.3 -0.8
v -0.3 0.3 -0.8
v -0.8 0.3 -1.2
v -0.7 0.3 -1.2
v -0.6 0.3 -1.2
v -0.5 0.3 -1.2
v -0.4 0.3 -1.2
v -0.7 0.3 -1.4
v -0.5 0.3 -1.4
v -0.7 0.4 1.4
v -0.2 0.4 1.4
v 0.5 0.4 1.4
v 0.8 0.4 1.4
v -0.8 0.4 1.3
v -0.7 0.4 1.3
v -0.5 0.4 1.3
v -0.4 0.4 1.3
v -0.2 0.4 1.3
v -0.1 0.4 1.3
v 0.2 0.4 1.3
v 0.5 0.4 1.3
v 0.8 0.4 1.3
v 0.9 0.4 1.3
v -0.2 0.4 1.2
v -0.1 0.4 1.2
v 0.2 0.4 1.2
v 0.5 0.4 1.2
v 0.8 0.4 1.2
v -0.1 0.4 1.1
v 0.2 0.4 1.1
v 0.8 0.4 1.1
v 0.5 0.4 1
v 0.8 0.4 1
v 0.9 0.4 1
v 0.2 0.4 0.9
v 0.5 0.4 0.9
v 0.8 0.4 0.9
v -0.1 0.4 0.8
v 0.2 0.4 0.8
v 0.5 0.4 0.8
v -0.2 0.4 0.7
v -0.1 0.4 0.7
v 0.1 0.4 0.7
v 0 0.4 0.6
v 0.1 0.4 0.6
v 0.2 0.4 0.6
v -0.1 0.4 0.5
v 0 0.4 0.5
v 0.1 0.4 0.5
v -0.1 0.4 0.4
v 0 0.4 0.4
v -0.9 0.4 0.2
v -0.8 0.4 0.2
v -0.7 0.4 0.2
v -0.3 0.4 -0.3
v -0.2 0.4 -0.3
v -0.1 0.4 -0.3
v -0.4 0.4 -0.8
v -0.3 0.4 -0.8
v -0.2 0.4 -0.8
v -0.9 0.4 -1.2
v -0.8 0.4 -1.2
v -0.7 0.4 -1.2
v -0.5 0.4 -1.2
v -0.4 0.4 -1.2
v -0.3 0.4 -1.2
v -0.8 0.4 -1.4
v -0.7 0.4 -1.4
v -0.5 0.4 -1.4
v -0.4 0.4 -1.4
v -0.7 0.6 -1.3
v -0.5 0.6 -1.3
v -0.7 0.6 -1.4
v -0.5 0.6 -1.4
v -0.7 0.4 -1.3
v -0.5 0.4 -1.3
v -0.7 0.4 -1.4
v -0.5 0.4 -1.4
v -0.7 0.6 1.4
v -0.2 0.6 1.4
v 0.5 0.6 1.4
v 0.8 0.6 1.4
v -0.8 0.6 1.3
v -0.7 0.6 1.3
v -0.5 0.6 1.3
v -0.4 0.6 1.3
v -0.2 0.6 1.3
v -0.1 0.6 1.3
v 0.2 0.6 1.3
v 0.5 0.6 1.3
v 0.8 0.6 1.3
v 0.9 0.6 1.3
v -0.2 0.6 1.2
v -0.1 0.6 1.2
v 0.2 0.6 1.2
v 0.5 0.6 1.2
v 0.8 0.6 1.2
v -0.1 0.6 1.1
v 0.2 0.6 1.1
v 0.8 0.6 1.1
v 0.5 0.6 1
v 0.8 0.6 1
v 0.9 0.6 1
v 0.2 0.6 0.9
v 0.5 0.6 0.9
v 0.8 0.6 0.9
v -0.1 0.6 0.8
v 0.2 0.6 0.8
v 0.5 0.6 0.8
v -0.2 0.6 0.7
v -0.1 0.6 0.7
v 0.1 0.6 0.7
v 0 0.6 0.6
v 0.1 0.6 0.6
v 0.2 0.6 0.6
v -0.1 0.6 0.5
v 0 0.6 0.5
v 0.1 0.6 0.5
v -0.1 0.6 0.4
v 0 0.6 0.4
v -0.9 0.6 0.2
v -0.8 0.6 0.2
v -0.7 0.6 0.2
v -0.3 0.6 -0.3
v -0.2 0.6 -0.3
v -0.1 0.6 -0.3
v -0.4 0.6 -0.8
v -0.3 0.6 -0.8
v -0.2 0.6 -0.8
v -0.9 0.6 -1.2
v -0.8 0.6 -1.2
v -0.7 0.6 -1.2
v -0.5 0.6 -1.2
v -0.4 0.6 -1.2
v -0.3 0.6 -1.2
v -0.8 0.6 -1.4
v -0.7 0.6 -1.4
v -0.5 0.6 -1.4
v -0.4 0.6 -1.4
v -0.7 0.7 1.3
v -0.5 0.7 1.3
v -0.4 0.7 1.3
v -0.2 0.7 1.3
v 0.5 0.7 1.3
v 0.8 0.7 1.3
v -0.2 0.7 1.2
v -0.1 0.7 1.2
v 0.2 0.7 1.2
v 0.5 0.7 1.2
v 0.8 0.7 1.2
v -0.1 0.7 1.1
v 0.2 0.7 1.1
v 0.3 0.7 1.1
v 0.5 0.7 1.1
v 0.8 0.7 1.1
v -0.1 0.7 1
v 0.2 0.7 1
v 0.3 0.7 1
v 0.5 0.7 1
v 0.8 0.7 1
v -0.4 0.7 0.9
v -0.1 0.7 0.9
v 0.2 0.7 0.9
v 0.5 0.7 0.9
v -0.4 0.7 0.8
v -0.1 0.7 0.8
v 0.2 0.7 0.8
v -0.2 0.7 0.7
v -0.1 0.7 0.7
v -0.8 0.7 0.2
v -0.7 0.7 0.2
v -0.6 0.7 0.2
v -0.5 0.7 0.2
v -0.4 0.7 0.2
v -0.7 0.7 -0.3
v -0.6 0.7 -0.3
v -0.5 0.7 -0.3
v -0.3 0.7 -0.3
v -0.2 0.7 -0.3
v -0.4 0.7 -0.8
v -0.3 0.7 -0.8
v -0.8 0.7 -1.2
v -0.7 0.7 -1.2
v -0.6 0.7 -1.2
v -0.5 0.7 -1.2
v -0.4 0.7 -1.2
v -0.7 0.7 -1.4
v -0.5 0.7 -1.4

# faces
f 3/4/1 2/4/1 1/4/1
f 4/4/1 2/4/1 3/4/1
f 8/3/1 6/3/1 5/3/1
f 9/3/1 6/3/1 8/3/1
f 11/4/1 8/4/1 7/4/1
f 12/4/1 8/4/1 11/4/1
f 13/4/1 10/4/1 9/4/1
f 14/4/1 10/4/1 13/4/1
f 15/3/1 13/3/1 12/3/1
f 16/3/1 13/3/1 15/3/1
f 22/3/1 18/3/1 17/3/1
f 23/3/1 18/3/1 22/3/1
f 24/4/1 20/4/1 19/4/1
f 25/4/1 20/4/1 24/4/1
f 26/4/1 22/4/1 21/4/1
f 27/4/1 22/4/1 26/4/1
f 31/3/1 28/3/1 27/3/1
f 32/3/1 28/3/1 31/3/1
f 33/4/1 30/4/1 29/4/1
f 34/4/1 30/4/1 33/4/1
f 37/4/1 36/4/1 35/4/1
f 38/4/1 36/4/1 37/4/1
f 41/4/1 40/4/1 39/4/1
f 42/4/1 40/4/1 41/4/1
f 45/4/1 44/4/1 43/4/1
f 46/4/1 44/4/1 45/4/1
f 50/3/1 48/3/1 47/3/1
f 51/3/1 48/3/1 50/3/1
f 52/4/1 50/4/1 49/4/1
f 53/4/1 50/4/1 52/4/1
f 55/3/1 54/3/1 53/3/1
f 56/3/1 54/3/1 55/3/1
f 60/3/1 58/3/1 57/3/1
f 61/3/1 58/3/1 60/3/1
f 62/4/1 60/4/1 59/4/1
f 63/4/1 60/4/1 62/4/1
f 65/3/1 64/3/1 63/3/1
f 66/3/1 64/3/1 65/3/1
f 67/4/2 68/4/2 69/4/2
f 69/4/2 68/4/2 70/4/2
f 71/4/2 72/4/2 73/4/2
f 73/4/2 72/4/2 74/4/2
f 75/4/2 76/4/2 77/4/2
f 77/4/2 76/4/2 78/4/2
f 79/3/2 80/3/2 81/3/2
f 81/3/2 80/3/2 82/3/2
f 82/4/2 83/4/2 85/4/2
f 85/4/2 83/4/2 86/4/2
f 84/3/2 85/3/2 87/3/2
f 87/3/2 85/3/2 88/3/2
f 89/3/2 90/3/2 91/3/2
f 91/3/2 90/3/2 92/3/2
f 92/4/2 93/4/2 95/4/2
f 95/4/2 93/4/2 96/4/2
f 94/3/2 95/3/2 97/3/2
f 97/3/2 95/3/2 98/3/2
f 99/3/2 100/3/2 104/3/2
f 104/3/2 100/3/2 105/3/2
f 101/3/2 102/3/2 106/3/2
f 106/3/2 102/3/2 107/3/2
f 103/4/2 104/4/2 109/4/2
f 109/4/2 104/4/2 110/4/2
f 107/4/2 108/4/2 113/4/2
f 113/4/2 108/4/2 114/4/2
f 110/3/2 111/3/2 115/3/2
f 115/3/2 111/3/2 116/3/2
f 112/3/2 113/3/2 117/3/2
f 117/3/2 113/3/2 118/3/2
f 119/3/2 120/3/2 124/3/2
f 124/3/2 120/3/2 125/3/2
f 121/3/2 122/3/2 126/3/2
f 126/3/2 122/3/2 127/3/2
f 123/4/2 124/4/2 131/4/2
f 131/4/2 124/4/2 132/4/2
f 127/4/2 128/4/2 135/4/2
f 135/4/2 128/4/2 136/4/2
f 129/4/2 130/4/2 137/4/2
f 137/4/2 130/4/2 138/4/2
f 132/3/2 133/3/2 139/3/2
f 139/3/2 133/3/2 140/3/2
f 134/3/2 135/3/2 141/3/2
f 141/3/2 135/3/2 142/3/2
f 143/4/2 144/4/2 145/4/2
f 145/4/2 144/4/2 146/4/2
f 147/4/2 148/4/2 149/4/2
f 149/4/2 148/4/2 150/4/2
f 151/3/2 152/3/2 153/3/2
f 153/3/2 152/3/2 154/3/2
f 154/4/2 155/4/2 157/4/2
f 157/4/2 155/4/2 158/4/2
f 156/3/2 157/3/2 159/3/2
f 159/3/2 157/3/2 160/3/2
f 161/3/2 162/3/2 163/3/2
f 163/3/2 162/3/2 164/3/2
f 164/4/2 165/4/2 167/4/2
f 167/4/2 165/4/2 168/4/2
f 166/3/2 167/3/2 169/3/2
f 169/3/2 167/3/2 170/3/2
f 171/3/2 172/3/2 176/3/2
f 172/2/2 173/2/2 177/2/2
f 176/3/2 172/3/2 177/3/2
f 173/3/2 174/3/2 178/3/2
f 177/2/2 173/2/2 178/2/2
f 178/3/2 174/3/2 179/3/2
f 175/4/2 176/4/2 181/4/2
f 181/4/2 176/4/2 182/4/2
f 179/4/2 180/4/2 185/4/2
f 185/4/2 180/4/2 186/4/2
f 182/3/2 183/3/2 187/3/2
f 183/2/2 184/2/2 188/2/2
f 187/3/2 183/3/2 188/3/2
f 184/3/2 185/3/2 189/3/2
f 188/2/2 184/2/2 189/2/2
f 189/3/2 185/3/2 190/3/2
f 191/4/2 192/4/2 193/4/2
f 193/4/2 192/4/2 194/4/2
f 197/4/3 196/4/3 195/4/3
f 198/4/3 196/4/3 197/4/3
f 201/4/3 200/4/3 199/4/3
f 202/4/3 200/4/3 201/4/3
f 206/4/3 204/4/3 203/4/3
f 207/4/3 204/4/3 206/4/3
f 209/3/3 206/3/3 205/3/3
f 210/3/3 206/3/3 209/3/3
f 211/3/3 208/3/3 207/3/3
f 212/3/3 208/3/3 211/3/3
f 213/2/3 210/2/3 209/2/3
f 214/2/3 210/2/3 213/2/3
f 215/2/3 212/2/3 211/2/3
f 216/2/3 212/2/3 215/2/3
f 217/3/3 214/3/3 213/3/3
f 218/3/3 214/3/3 217/3/3
f 219/3/3 216/3/3 215/3/3
f 220/3/3 216/3/3 219/3/3
f 221/4/3 219/4/3 218/4/3
f 222/4/3 219/4/3 221/4/3
f 226/4/3 224/4/3 223/4/3
f 227/4/3 224/4/3 226/4/3
f 229/3/3 226/3/3 225/3/3
f 230/3/3 226/3/3 229/3/3
f 231/3/3 228/3/3 227/3/3
f 232/3/3 228/3/3 231/3/3
f 233/4/3 231/4/3 230/4/3
f 234/4/3 231/4/3 233/4/3
f 239/3/3 236/3/3 235/3/3
f 240/3/3 236/3/3 239/3/3
f 241/3/3 238/3/3 237/3/3
f 242/3/3 238/3/3 241/3/3
f 244/4/3 241/4/3 240/4/3
f 245/4/3 241/4/3 244/4/3
f 247/3/3 244/3/3 243/3/3
f 248/3/3 244/3/3 247/3/3
f 249/3/3 246/3/3 245/3/3
f 250/3/3 246/3/3 249/3/3
f 255/3/3 252/3/3 251/3/3
f 256/3/3 252/3/3 255/3/3
f 257/3/3 254/3/3 253/3/3
f 258/3/3 254/3/3 257/3/3
f 261/4/3 260/4/3 259/4/3
f 262/4/3 260/4/3 261/4/3
f 265/4/3 264/4/3 263/4/3
f 266/4/3 264/4/3 265/4/3
f 270/4/3 268/4/3 267/4/3
f 271/4/3 268/4/3 270/4/3
f 273/3/3 270/3/3 269/3/3
f 274/3/3 270/3/3 273/3/3
f 275/3/3 272/3/3 271/3/3
f 276/3/3 272/3/3 275/3/3
f 277/3/4 278/3/4 281/3/4
f 281/3/4 278/3/4 282/3/4
f 279/3/4 280/3/4 283/3/4
f 283/3/4 280/3/4 284/3/4
f 282/4/4 283/4/4 285/4/4
f 285/4/4 283/4/4 286/4/4
f 287/3/4 288/3/4 291/3/4
f 291/3/4 288/3/4 292/3/4
f 289/3/4 290/3/4 293/3/4
f 293/3/4 290/3/4 294/3/4
f 292/4/4 293/4/4 295/4/4
f 295/4/4 293/4/4 296/4/4
f 297/3/4 298/3/4 301/3/4
f 301/3/4 298/3/4 302/3/4
f 299/3/4 300/3/4 303/3/4
f 303/3/4 300/3/4 304/3/4
f 302/4/4 303/4/4 305/4/4
f 305/4/4 303/4/4 306/4/4
f 307/3/4 308/3/4 311/3/4
f 311/3/4 308/3/4 312/3/4
f 309/3/4 310/3/4 313/3/4
f 313/3/4 310/3/4 314/3/4
f 312/4/4 313/4/4 315/4/4
f 315/4/4 313/4/4 316/4/4
f 317/4/4 318/4/4 319/4/4
f 319/4/4 318/4/4 320/4/4
f 321/4/4 322/4/4 323/4/4
f 323/4/4 322/4/4 324/4/4
f 325/4/4 326/4/4 327/4/4
f 327/4/4 326/4/4 328/4/4
f 329/3/4 330/3/4 333/3/4
f 333/3/4 330/3/4 334/3/4
f 331/3/4 332/3/4 335/3/4
f 335/3/4 332/3/4 336/3/4
f 334/4/4 335/4/4 337/4/4
f 337/4/4 335/4/4 338/4/4
f 339/3/4 340/3/4 343/3/4
f 343/3/4 340/3/4 344/3/4
f 341/3/4 342/3/4 345/3/4
f 345/3/4 342/3/4 346/3/4
f 344/4/4 345/4/4 347/4/4
f 347/4/4 345/4/4 348/4/4
f 349/4/4 350/4/4 352/4/4
f 352/4/4 350/4/4 353/4/4
f 351/3/4 352/3/4 355/3/4
f 355/3/4 352/3/4 356/3/4
f 353/3/4 354/3/4 357/3/4
f 357/3/4 354/3/4 358/3/4
f 359/3/4 360/3/4 363/3/4
f 363/3/4 360/3/4 364/3/4
f 361/3/4 362/3/4 365/3/4
f 365/3/4 362/3/4 366/3/4
f 364/4/4 365/4/4 367/4/4
f 367/4/4 365/4/4 368/4/4
f 369/4/4 370/4/4 371/4/4
f 371/4/4 370/4/4 372/4/4
f 373/4/4 374/4/4 376/4/4
f 376/4/4 374/4/4 377/4/4
f 375/4/4 376/4/4 379/4/4
f 379/4/4 376/4/4 380/4/4
f 377/4/4 378/4/4 381/4/4
f 381/4/4 378/4/4 382/4/4
f 380/4/4 381/4/4 383/4/4
f 383/4/4 381/4/4 384/4/4
f 391/3/5 388/3/5 387/3/5
f 394/3/5 390/3/5 389/3/5
f 395/3/5 390/3/5 394/3/5
f 396/3/5 392/3/5 391/3/5
f 397/3/5 394/3/5 393/3/5
f 398/2/5 395/2/5 394/2/5
f 398/3/5 394/3/5 397/3/5
f 399/2/5 395/2/5 398/2/5
f 400/3/5 396/3/5 391/3/5
f 400/3/5 397/3/5 396/3/5
f 401/2/5 398/2/5 397/2/5
f 401/3/5 397/3/5 400/3/5
f 402/3/5 399/3/5 398/3/5
f 402/2/5 398/2/5 401/2/5
f 403/3/5 399/3/5 402/3/5
f 404/2/5 387/2/5 386/2/5
f 404/3/5 391/3/5 387/3/5
f 404/3/5 400/3/5 391/3/5
f 405/2/5 401/2/5 400/2/5
f 405/3/5 400/3/5 404/3/5
f 406/3/5 402/3/5 401/3/5
f 406/2/5 401/2/5 405/2/5
f 407/3/5 402/3/5 406/3/5
f 408/2/5 405/2/5 404/2/5
f 408/2/5 404/2/5 386/2/5
f 409/3/5 406/3/5 405/3/5
f 409/2/5 405/2/5 408/2/5
f 410/3/5 406/3/5 409/3/5
f 411/3/5 409/3/5 408/3/5
f 412/3/5 409/3/5 411/3/5
f 414/3/5 386/3/5 385/3/5
f 415/3/5 386/3/5 414/3/5
f 416/2/5 408/2/5 386/2/5
f 416/3/5 386/3/5 415/3/5
f 417/3/5 411/3/5 408/3/5
f 417/2/5 408/2/5 416/2/5
f 418/3/5 415/3/5 414/3/5
f 418/3/5 414/3/5 413/3/5
f 419/2/5 416/2/5 415/2/5
f 419/3/5 415/3/5 418/3/5
f 420/3/5 417/3/5 416/3/5
f 420/2/5 416/2/5 419/2/5
f 421/3/5 411/3/5 417/3/5
f 421/3/5 417/3/5 420/3/5
f 422/3/5 411/3/5 421/3/5
f 423/3/5 420/3/5 419/3/5
f 423/3/5 421/3/5 420/3/5
f 424/3/5 421/3/5 423/3/5
f 425/3/5 418/3/5 413/3/5
f 426/2/5 419/2/5 418/2/5
f 426/3/5 418/3/5 425/3/5
f 427/3/5 423/3/5 419/3/5
f 427/2/5 419/2/5 426/2/5
f 428/3/5 423/3/5 427/3/5
f 429/3/5 423/3/5 428/3/5
f 430/4/5 427/4/5 426/4/5
f 430/4/5 428/4/5 427/4/5
f 431/4/5 428/4/5 430/4/5
f 437/4/5 433/4/5 432/4/5
f 438/4/5 433/4/5 437/4/5
f 439/4/5 433/4/5 438/4/5
f 440/4/5 433/4/5 439/4/5
f 443/4/5 435/4/5 434/4/5
f 444/4/5 435/4/5 443/4/5
f 446/4/5 441/4/5 440/4/5
f 447/4/5 441/4/5 446/4/5
f 448/4/5 443/4/5 442/4/5
f 449/4/5 443/4/5 448/4/5
f 450/4/5 445/4/5 444/4/5
f 451/4/5 448/4/5 447/4/5
f 452/4/5 448/4/5 451/4/5
f 453/4/5 445/4/5 450/4/5
f 455/4/5 445/4/5 453/4/5
f 456/4/5 445/4/5 455/4/5
f 458/4/5 455/4/5 454/4/5
f 459/4/5 455/4/5 458/4/5
f 461/4/5 458/4/5 457/4/5
f 462/4/5 458/4/5 461/4/5
f 464/4/5 461/4/5 460/4/5
f 465/4/5 461/4/5 464/4/5
f 467/4/5 461/4/5 465/4/5
f 468/4/5 461/4/5 467/4/5
f 469/4/5 464/4/5 463/4/5
f 470/4/5 467/4/5 466/4/5
f 471/4/5 467/4/5 470/4/5
f 472/4/5 469/4/5 463/4/5
f 472/4/5 470/4/5 469/4/5
f 473/4/5 470/4/5 472/4/5
f 475/4/5 437/4/5 436/4/5
f 476/4/5 437/4/5 475/4/5
f 478/4/5 472/4/5 463/4/5
f 479/4/5 472/4/5 478/4/5
f 481/4/5 478/4/5 477/4/5
f 482/4/5 478/4/5 481/4/5
f 483/4/5 475/4/5 474/4/5
f 484/4/5 475/4/5 483/4/5
f 487/4/5 481/4/5 480/4/5
f 488/4/5 481/4/5 487/4/5
f 489/4/5 485/4/5 484/4/5
f 490/4/5 485/4/5 489/4/5
f 491/4/5 487/4/5 486/4/5
f 492/4/5 487/4/5 491/4/5
f 495/4/5 494/4/5 493/4/5
f 496/4/5 494/4/5 495/4/5
f 497/4/6 498/4/6 499/4/6
f 499/4/6 498/4/6 500/4/6
f 501/4/6 502/4/6 506/4/6
f 506/4/6 502/4/6 507/4/6
f 507/4/6 502/4/6 508/4/6
f 508/4/6 502/4/6 509/4/6
f 503/4/6 504/4/6 512/4/6
f 512/4/6 504/4/6 513/4/6
f 509/4/6 510/4/6 515/4/6
f 515/4/6 510/4/6 516/4/6
f 511/4/6 512/4/6 517/4/6
f 517/4/6 512/4/6 518/4/6
f 513/4/6 514/4/6 519/4/6
f 516/4/6 517/4/6 520/4/6
f 520/4/6 517/4/6 521/4/6
f 519/4/6 514/4/6 522/4/6
f 522/4/6 514/4/6 524/4/6
f 524/4/6 514/4/6 525/4/6
f 523/4/6 524/4/6 527/4/6
f 527/4/6 524/4/6 528/4/6
f 526/4/6 527/4/6 530/4/6
f 530/4/6 527/4/6 531/4/6
f 529/4/6 530/4/6 533/4/6
f 533/4/6 530/4/6 534/4/6
f 534/4/6 530/4/6 536/4/6
f 536/4/6 530/4/6 537/4/6
f 532/4/6 533/4/6 538/4/6
f 535/4/6 536/4/6 539/4/6
f 539/4/6 536/4/6 540/4/6
f 532/4/6 538/4/6 541/4/6
f 538/4/6 539/4/6 541/4/6
f 541/4/6 539/4/6 542/4/6
f 505/4/6 506/4/6 544/4/6
f 544/4/6 506/4/6 545/4/6
f 532/4/6 541/4/6 547/4/6
f 547/4/6 541/4/6 548/4/6
f 546/4/6 547/4/6 550/4/6
f 550/4/6 547/4/6 551/4/6
f 543/4/6 544/4/6 552/4/6
f 552/4/6 544/4/6 553/4/6
f 549/4/6 550/4/6 556/4/6
f 556/4/6 550/4/6 557/4/6
f 553/4/6 554/4/6 558/4/6
f 558/4/6 554/4/6 559/4/6
f 555/4/6 556/4/6 560/4/6
f 560/4/6 556/4/6 561/4/6
f 564/3/6 565/3/6 568/3/6
f 566/3/6 567/3/6 571/3/6
f 571/3/6 567/3/6 572/3/6
f 568/3/6 569/3/6 573/3/6
f 570/3/6 571/3/6 574/3/6
f 574/3/6 571/3/6 575/3/6
f 571/2/6 572/2/6 576/2/6
f 575/3/6 571/3/6 576/3/6
f 576/2/6 572/2/6 577/2/6
f 568/3/6 573/3/6 578/3/6
f 573/3/6 574/3/6 578/3/6
f 574/1/6 575/1/6 579/1/6
f 578/3/6 574/3/6 579/3/6
f 575/2/6 576/2/6 580/2/6
f 579/1/6 575/1/6 580/1/6
f 576/3/6 577/3/6 581/3/6
f 580/2/6 576/2/6 581/2/6
f 581/3/6 577/3/6 582/3/6
f 563/2/6 564/2/6 583/2/6
f 564/3/6 568/3/6 583/3/6
f 568/3/6 578/3/6 583/3/6
f 578/2/6 579/2/6 584/2/6
f 583/3/6 578/3/6 584/3/6
f 580/3/6 581/3/6 585/3/6
f 584/2/6 579/2/6 585/2/6
f 579/3/6 580/3/6 585/3/6
f 585/3/6 581/3/6 586/3/6
f 583/2/6 584/2/6 587/2/6
f 563/2/6 583/2/6 587/2/6
f 584/3/6 585/3/6 588/3/6
f 587/2/6 584/2/6 588/2/6
f 588/3/6 585/3/6 589/3/6
f 587/3/6 588/3/6 590/3/6
f 590/3/6 588/3/6 591/3/6
f 562/3/6 563/3/6 593/3/6
f 593/3/6 563/3/6 594/3/6
f 563/2/6 587/2/6 595/2/6
f 594/3/6 563/3/6 595/3/6
f 587/3/6 590/3/6 596/3/6
f 595/2/6 587/2/6 596/2/6
f 593/3/6 594/3/6 597/3/6
f 592/3/6 593/3/6 597/3/6
f 594/2/6 595/2/6 598/2/6
f 597/3/6 594/3/6 598/3/6
f 595/3/6 596/3/6 599/3/6
f 598/2/6 595/2/6 599/2/6
f 596/3/6 590/3/6 600/3/6
f 599/3/6 596/3/6 600/3/6
f 600/3/6 590/3/6 601/3/6
f 598/3/6 599/3/6 602/3/6
f 599/3/6 600/3/6 602/3/6
f 602/3/6 600/3/6 603/3/6
f 592/3/6 597/3/6 604/3/6
f 597/2/6 598/2/6 605/2/6
f 604/3/6 597/3/6 605/3/6
f 598/3/6 602/3/6 606/3/6
f 605/2/6 598/2/6 606/2/6
f 606/3/6 602/3/6 607/3/6
f 607/3/6 602/3/6 608/3/6
f 605/4/6 606/4/6 609/4/6
f 606/4/6 607/4/6 609/4/6
f 609/4/6 607/4/6 610/4/6
