# MagicaVoxel @ Ephtracy

# group
o 

# material
mtllib trolley.mtl
usemtl palette

# normals
vn -1 0 0
vn 1 0 0
vn 0 0 1
vn 0 0 -1
vn 0 -1 0
vn 0 1 0

# texcoords
vt 0.369141 0.5
vt 0.994141 0.5

# verts
v -0.6 0.1 0.0999999
v -0.6 0.1 -0.7
v -0.6 0.3 0.0999999
v -0.6 0.3 -0.7
v -0.6 0.4 -7.45058e-08
v -0.6 0.4 -0.6
v -0.6 0.5 -7.45058e-08
v -0.6 0.5 -0.6
v -0.6 0.7 0.0999999
v -0.6 0.7 -0.7
v -0.4 0 -7.45058e-08
v -0.4 0 -0.1
v -0.4 0 -0.5
v -0.4 0 -0.6
v -0.4 0.2 -7.45058e-08
v -0.4 0.2 -0.1
v -0.4 0.2 -0.5
v -0.4 0.2 -0.6
v 5.96046e-08 0 -7.45058e-08
v 5.96046e-08 0 -0.1
v 5.96046e-08 0 -0.5
v 5.96046e-08 0 -0.6
v 5.96046e-08 0.2 -7.45058e-08
v 5.96046e-08 0.2 -0.1
v 5.96046e-08 0.2 -0.5
v 5.96046e-08 0.2 -0.6
v 0.3 0.1 0.0999999
v 0.3 0.1 -0.7
v 0.3 0.2 0.0999999
v 0.3 0.2 -0.7
v 0.3 0.3 -7.45058e-08
v 0.3 0.3 -0.6
v 0.3 0.4 0.0999999
v 0.3 0.4 -7.45058e-08
v 0.3 0.4 -0.6
v 0.3 0.4 -0.7
v 0.3 0.5 0.0999999
v 0.3 0.5 -7.45058e-08
v 0.3 0.5 -0.6
v 0.3 0.5 -0.7
v 0.3 0.7 -7.45058e-08
v 0.3 0.7 -0.6
v -0.5 0.1 0.0999999
v -0.5 0.1 -0.7
v -0.5 0.2 0.0999999
v -0.5 0.2 -0.7
v -0.5 0.3 -7.45058e-08
v -0.5 0.3 -0.6
v -0.5 0.4 0.0999999
v -0.5 0.4 -7.45058e-08
v -0.5 0.4 -0.6
v -0.5 0.4 -0.7
v -0.5 0.5 0.0999999
v -0.5 0.5 -7.45058e-08
v -0.5 0.5 -0.6
v -0.5 0.5 -0.7
v -0.5 0.7 -7.45058e-08
v -0.5 0.7 -0.6
v -0.2 0 -7.45058e-08
v -0.2 0 -0.1
v -0.2 0 -0.5
v -0.2 0 -0.6
v -0.2 0.2 -7.45058e-08
v -0.2 0.2 -0.1
v -0.2 0.2 -0.5
v -0.2 0.2 -0.6
v 0.2 0 -7.45058e-08
v 0.2 0 -0.1
v 0.2 0 -0.5
v 0.2 0 -0.6
v 0.2 0.2 -7.45058e-08
v 0.2 0.2 -0.1
v 0.2 0.2 -0.5
v 0.2 0.2 -0.6
v 0.4 0.1 0.0999999
v 0.4 0.1 -0.7
v 0.4 0.3 0.0999999
v 0.4 0.3 -0.7
v 0.4 0.4 -7.45058e-08
v 0.4 0.4 -0.6
v 0.4 0.5 -7.45058e-08
v 0.4 0.5 -0.6
v 0.4 0.7 0.0999999
v 0.4 0.7 -0.7
v -0.6 0.1 0.0999999
v -0.6 0.3 0.0999999
v -0.6 0.7 0.0999999
v -0.5 0.1 0.0999999
v -0.5 0.2 0.0999999
v -0.5 0.4 0.0999999
v -0.5 0.5 0.0999999
v 0.3 0.1 0.0999999
v 0.3 0.2 0.0999999
v 0.3 0.4 0.0999999
v 0.3 0.5 0.0999999
v 0.4 0.1 0.0999999
v 0.4 0.3 0.0999999
v 0.4 0.7 0.0999999
v -0.4 0 -7.45058e-08
v -0.4 0.2 -7.45058e-08
v -0.2 0 -7.45058e-08
v -0.2 0.2 -7.45058e-08
v 5.96046e-08 0 -7.45058e-08
v 5.96046e-08 0.2 -7.45058e-08
v 0.2 0 -7.45058e-08
v 0.2 0.2 -7.45058e-08
v -0.4 0 -0.5
v -0.4 0.2 -0.5
v -0.2 0 -0.5
v -0.2 0.2 -0.5
v 5.96046e-08 0 -0.5
v 5.96046e-08 0.2 -0.5
v 0.2 0 -0.5
v 0.2 0.2 -0.5
v -0.6 0.4 -0.6
v -0.6 0.5 -0.6
v -0.5 0.3 -0.6
v -0.5 0.4 -0.6
v -0.5 0.5 -0.6
v -0.5 0.7 -0.6
v 0.3 0.3 -0.6
v 0.3 0.4 -0.6
v 0.3 0.5 -0.6
v 0.3 0.7 -0.6
v 0.4 0.4 -0.6
v 0.4 0.5 -0.6
v -0.6 0.4 -7.45058e-08
v -0.6 0.5 -7.45058e-08
v -0.5 0.3 -7.45058e-08
v -0.5 0.4 -7.45058e-08
v -0.5 0.5 -7.45058e-08
v -0.5 0.7 -7.45058e-08
v 0.3 0.3 -7.45058e-08
v 0.3 0.4 -7.45058e-08
v 0.3 0.5 -7.45058e-08
v 0.3 0.7 -7.45058e-08
v 0.4 0.4 -7.45058e-08
v 0.4 0.5 -7.45058e-08
v -0.4 0 -0.1
v -0.4 0.2 -0.1
v -0.2 0 -0.1
v -0.2 0.2 -0.1
v 5.96046e-08 0 -0.1
v 5.96046e-08 0.2 -0.1
v 0.2 0 -0.1
v 0.2 0.2 -0.1
v -0.4 0 -0.6
v -0.4 0.2 -0.6
v -0.2 0 -0.6
v -0.2 0.2 -0.6
v 5.96046e-08 0 -0.6
v 5.96046e-08 0.2 -0.6
v 0.2 0 -0.6
v 0.2 0.2 -0.6
v -0.6 0.1 -0.7
v -0.6 0.3 -0.7
v -0.6 0.7 -0.7
v -0.5 0.1 -0.7
v -0.5 0.2 -0.7
v -0.5 0.4 -0.7
v -0.5 0.5 -0.7
v 0.3 0.1 -0.7
v 0.3 0.2 -0.7
v 0.3 0.4 -0.7
v 0.3 0.5 -0.7
v 0.4 0.1 -0.7
v 0.4 0.3 -0.7
v 0.4 0.7 -0.7
v -0.4 0 -7.45058e-08
v -0.2 0 -7.45058e-08
v 5.96046e-08 0 -7.45058e-08
v 0.2 0 -7.45058e-08
v -0.4 0 -0.1
v -0.2 0 -0.1
v 5.96046e-08 0 -0.1
v 0.2 0 -0.1
v -0.4 0 -0.5
v -0.2 0 -0.5
v 5.96046e-08 0 -0.5
v 0.2 0 -0.5
v -0.4 0 -0.6
v -0.2 0 -0.6
v 5.96046e-08 0 -0.6
v 0.2 0 -0.6
v -0.6 0.1 0.0999999
v -0.5 0.1 0.0999999
v 0.3 0.1 0.0999999
v 0.4 0.1 0.0999999
v -0.6 0.1 -0.7
v -0.5 0.1 -0.7
v 0.3 0.1 -0.7
v 0.4 0.1 -0.7
v -0.5 0.2 0.0999999
v 0.3 0.2 0.0999999
v -0.4 0.2 -7.45058e-08
v -0.2 0.2 -7.45058e-08
v 5.96046e-08 0.2 -7.45058e-08
v 0.2 0.2 -7.45058e-08
v -0.4 0.2 -0.1
v -0.2 0.2 -0.1
v 5.96046e-08 0.2 -0.1
v 0.2 0.2 -0.1
v -0.4 0.2 -0.5
v -0.2 0.2 -0.5
v 5.96046e-08 0.2 -0.5
v 0.2 0.2 -0.5
v -0.4 0.2 -0.6
v -0.2 0.2 -0.6
v 5.96046e-08 0.2 -0.6
v 0.2 0.2 -0.6
v -0.5 0.2 -0.7
v 0.3 0.2 -0.7
v -0.5 0.5 0.0999999
v 0.3 0.5 0.0999999
v -0.6 0.5 -7.45058e-08
v -0.5 0.5 -7.45058e-08
v 0.3 0.5 -7.45058e-08
v 0.4 0.5 -7.45058e-08
v -0.6 0.5 -0.6
v -0.5 0.5 -0.6
v 0.3 0.5 -0.6
v 0.4 0.5 -0.6
v -0.5 0.5 -0.7
v 0.3 0.5 -0.7
v -0.5 0.3 -7.45058e-08
v 0.3 0.3 -7.45058e-08
v -0.5 0.3 -0.6
v 0.3 0.3 -0.6
v -0.5 0.4 0.0999999
v 0.3 0.4 0.0999999
v -0.6 0.4 -7.45058e-08
v -0.5 0.4 -7.45058e-08
v 0.3 0.4 -7.45058e-08
v 0.4 0.4 -7.45058e-08
v -0.6 0.4 -0.6
v -0.5 0.4 -0.6
v 0.3 0.4 -0.6
v 0.4 0.4 -0.6
v -0.5 0.4 -0.7
v 0.3 0.4 -0.7
v -0.6 0.7 0.0999999
v 0.4 0.7 0.0999999
v -0.5 0.7 -7.45058e-08
v 0.3 0.7 -7.45058e-08
v -0.5 0.7 -0.6
v 0.3 0.7 -0.6
v -0.6 0.7 -0.7
v 0.4 0.7 -0.7

# faces
f 3/2/1 2/2/1 1/2/1
f 4/2/1 2/2/1 3/2/1
f 5/1/1 4/1/1 3/1/1
f 6/1/1 4/1/1 5/1/1
f 7/1/1 5/1/1 3/1/1
f 8/1/1 4/1/1 6/1/1
f 9/1/1 7/1/1 3/1/1
f 9/1/1 8/1/1 7/1/1
f 10/1/1 4/1/1 8/1/1
f 10/1/1 8/1/1 9/1/1
f 15/2/1 12/2/1 11/2/1
f 16/2/1 12/2/1 15/2/1
f 17/2/1 14/2/1 13/2/1
f 18/2/1 14/2/1 17/2/1
f 23/2/1 20/2/1 19/2/1
f 24/2/1 20/2/1 23/2/1
f 25/2/1 22/2/1 21/2/1
f 26/2/1 22/2/1 25/2/1
f 29/2/1 28/2/1 27/2/1
f 30/2/1 28/2/1 29/2/1
f 34/1/1 32/1/1 31/1/1
f 35/1/1 32/1/1 34/1/1
f 37/1/1 34/1/1 33/1/1
f 38/1/1 34/1/1 37/1/1
f 39/1/1 36/1/1 35/1/1
f 40/1/1 36/1/1 39/1/1
f 41/1/1 39/1/1 38/1/1
f 42/1/1 39/1/1 41/1/1
f 43/2/2 44/2/2 45/2/2
f 45/2/2 44/2/2 46/2/2
f 47/1/2 48/1/2 50/1/2
f 50/1/2 48/1/2 51/1/2
f 49/1/2 50/1/2 53/1/2
f 53/1/2 50/1/2 54/1/2
f 51/1/2 52/1/2 55/1/2
f 55/1/2 52/1/2 56/1/2
f 54/1/2 55/1/2 57/1/2
f 57/1/2 55/1/2 58/1/2
f 59/2/2 60/2/2 63/2/2
f 63/2/2 60/2/2 64/2/2
f 61/2/2 62/2/2 65/2/2
f 65/2/2 62/2/2 66/2/2
f 67/2/2 68/2/2 71/2/2
f 71/2/2 68/2/2 72/2/2
f 69/2/2 70/2/2 73/2/2
f 73/2/2 70/2/2 74/2/2
f 75/2/2 76/2/2 77/2/2
f 77/2/2 76/2/2 78/2/2
f 77/1/2 78/1/2 79/1/2
f 79/1/2 78/1/2 80/1/2
f 77/1/2 79/1/2 81/1/2
f 80/1/2 78/1/2 82/1/2
f 77/1/2 81/1/2 83/1/2
f 81/1/2 82/1/2 83/1/2
f 82/1/2 78/1/2 84/1/2
f 83/1/2 82/1/2 84/1/2
f 88/2/3 86/2/3 85/2/3
f 89/2/3 86/2/3 88/2/3
f 90/1/3 87/1/3 86/1/3
f 91/1/3 87/1/3 90/1/3
f 93/2/3 86/2/3 89/2/3
f 94/1/3 90/1/3 86/1/3
f 95/1/3 87/1/3 91/1/3
f 96/2/3 93/2/3 92/2/3
f 97/1/3 95/1/3 94/1/3
f 97/2/3 93/2/3 96/2/3
f 97/1/3 94/1/3 86/1/3
f 97/2/3 86/2/3 93/2/3
f 98/1/3 87/1/3 95/1/3
f 98/1/3 95/1/3 97/1/3
f 101/2/3 100/2/3 99/2/3
f 102/2/3 100/2/3 101/2/3
f 105/2/3 104/2/3 103/2/3
f 106/2/3 104/2/3 105/2/3
f 109/2/3 108/2/3 107/2/3
f 110/2/3 108/2/3 109/2/3
f 113/2/3 112/2/3 111/2/3
f 114/2/3 112/2/3 113/2/3
f 118/1/3 116/1/3 115/1/3
f 119/1/3 116/1/3 118/1/3
f 121/1/3 118/1/3 117/1/3
f 122/1/3 118/1/3 121/1/3
f 123/1/3 120/1/3 119/1/3
f 124/1/3 120/1/3 123/1/3
f 125/1/3 123/1/3 122/1/3
f 126/1/3 123/1/3 125/1/3
f 127/1/4 128/1/4 130/1/4
f 130/1/4 128/1/4 131/1/4
f 129/1/4 130/1/4 133/1/4
f 133/1/4 130/1/4 134/1/4
f 131/1/4 132/1/4 135/1/4
f 135/1/4 132/1/4 136/1/4
f 134/1/4 135/1/4 137/1/4
f 137/1/4 135/1/4 138/1/4
f 139/2/4 140/2/4 141/2/4
f 141/2/4 140/2/4 142/2/4
f 143/2/4 144/2/4 145/2/4
f 145/2/4 144/2/4 146/2/4
f 147/2/4 148/2/4 149/2/4
f 149/2/4 148/2/4 150/2/4
f 151/2/4 152/2/4 153/2/4
f 153/2/4 152/2/4 154/2/4
f 155/2/4 156/2/4 158/2/4
f 158/2/4 156/2/4 159/2/4
f 156/1/4 157/1/4 160/1/4
f 160/1/4 157/1/4 161/1/4
f 159/2/4 156/2/4 163/2/4
f 156/1/4 160/1/4 164/1/4
f 161/1/4 157/1/4 165/1/4
f 162/2/4 163/2/4 166/2/4
f 164/1/4 165/1/4 167/1/4
f 166/2/4 163/2/4 167/2/4
f 156/1/4 164/1/4 167/1/4
f 163/2/4 156/2/4 167/2/4
f 165/1/4 157/1/4 168/1/4
f 167/1/4 165/1/4 168/1/4
f 173/2/5 170/2/5 169/2/5
f 174/2/5 170/2/5 173/2/5
f 175/2/5 172/2/5 171/2/5
f 176/2/5 172/2/5 175/2/5
f 181/2/5 178/2/5 177/2/5
f 182/2/5 178/2/5 181/2/5
f 183/2/5 180/2/5 179/2/5
f 184/2/5 180/2/5 183/2/5
f 189/2/5 186/2/5 185/2/5
f 190/2/5 186/2/5 189/2/5
f 191/2/5 188/2/5 187/2/5
f 192/2/5 188/2/5 191/2/5
f 195/2/5 194/2/5 193/2/5
f 196/2/5 194/2/5 195/2/5
f 197/2/5 194/2/5 196/2/5
f 198/2/5 194/2/5 197/2/5
f 199/2/5 195/2/5 193/2/5
f 200/2/5 197/2/5 196/2/5
f 201/2/5 197/2/5 200/2/5
f 202/2/5 194/2/5 198/2/5
f 203/2/5 201/2/5 200/2/5
f 203/2/5 202/2/5 201/2/5
f 203/2/5 199/2/5 193/2/5
f 203/2/5 200/2/5 199/2/5
f 204/2/5 202/2/5 203/2/5
f 205/2/5 202/2/5 204/2/5
f 206/2/5 194/2/5 202/2/5
f 206/2/5 202/2/5 205/2/5
f 207/2/5 203/2/5 193/2/5
f 208/2/5 205/2/5 204/2/5
f 209/2/5 205/2/5 208/2/5
f 210/2/5 194/2/5 206/2/5
f 211/2/5 207/2/5 193/2/5
f 211/2/5 210/2/5 209/2/5
f 211/2/5 209/2/5 208/2/5
f 211/2/5 208/2/5 207/2/5
f 212/2/5 194/2/5 210/2/5
f 212/2/5 210/2/5 211/2/5
f 216/1/5 214/1/5 213/1/5
f 217/1/5 214/1/5 216/1/5
f 219/1/5 216/1/5 215/1/5
f 220/1/5 216/1/5 219/1/5
f 221/1/5 218/1/5 217/1/5
f 222/1/5 218/1/5 221/1/5
f 223/1/5 221/1/5 220/1/5
f 224/1/5 221/1/5 223/1/5
f 225/2/6 226/2/6 227/2/6
f 227/2/6 226/2/6 228/2/6
f 229/1/6 230/1/6 232/1/6
f 232/1/6 230/1/6 233/1/6
f 231/1/6 232/1/6 235/1/6
f 235/1/6 232/1/6 236/1/6
f 233/1/6 234/1/6 237/1/6
f 237/1/6 234/1/6 238/1/6
f 236/1/6 237/1/6 239/1/6
f 239/1/6 237/1/6 240/1/6
f 241/1/6 242/1/6 243/1/6
f 243/1/6 242/1/6 244/1/6
f 241/1/6 243/1/6 245/1/6
f 244/1/6 242/1/6 246/1/6
f 241/1/6 245/1/6 247/1/6
f 245/1/6 246/1/6 247/1/6
f 246/1/6 242/1/6 248/1/6
f 247/1/6 246/1/6 248/1/6
