# Blender 4.4.1
# www.blender.org
mtllib trolley.mtl
o Untitled
v -0.500000 0.100000 0.400000
v -0.500000 0.100000 -0.400000
v -0.500000 0.300000 0.400000
v -0.500000 0.300000 -0.400000
v -0.500000 0.400000 0.300000
v -0.500000 0.400000 -0.300000
v -0.500000 0.500000 0.300000
v -0.500000 0.500000 -0.300000
v -0.500000 0.700000 0.400000
v -0.500000 0.700000 -0.400000
v -0.300000 0.000000 0.300000
v -0.300000 0.000000 0.200000
v -0.300000 -0.000000 -0.200000
v -0.300000 -0.000000 -0.300000
v -0.300000 0.200000 0.300000
v -0.300000 0.200000 0.200000
v -0.300000 0.200000 -0.200000
v -0.300000 0.200000 -0.300000
v 0.100000 0.000000 0.300000
v 0.100000 0.000000 0.200000
v 0.100000 -0.000000 -0.200000
v 0.100000 -0.000000 -0.300000
v 0.100000 0.200000 0.300000
v 0.100000 0.200000 0.200000
v 0.100000 0.200000 -0.200000
v 0.100000 0.200000 -0.300000
v 0.400000 0.100000 0.400000
v 0.400000 0.100000 -0.400000
v 0.400000 0.200000 0.400000
v 0.400000 0.200000 -0.400000
v 0.400000 0.300000 0.300000
v 0.400000 0.300000 -0.300000
v 0.400000 0.400000 0.400000
v 0.400000 0.400000 0.300000
v 0.400000 0.400000 -0.300000
v 0.400000 0.400000 -0.400000
v 0.400000 0.500000 0.400000
v 0.400000 0.500000 0.300000
v 0.400000 0.500000 -0.300000
v 0.400000 0.500000 -0.400000
v 0.400000 0.700000 0.300000
v 0.400000 0.700000 -0.300000
v -0.400000 0.100000 0.400000
v -0.400000 0.100000 -0.400000
v -0.400000 0.200000 0.400000
v -0.400000 0.200000 -0.400000
v -0.400000 0.300000 0.300000
v -0.400000 0.300000 -0.300000
v -0.400000 0.400000 0.400000
v -0.400000 0.400000 0.300000
v -0.400000 0.400000 -0.300000
v -0.400000 0.400000 -0.400000
v -0.400000 0.500000 0.400000
v -0.400000 0.500000 0.300000
v -0.400000 0.500000 -0.300000
v -0.400000 0.500000 -0.400000
v -0.400000 0.700000 0.300000
v -0.400000 0.700000 -0.300000
v -0.100000 0.000000 0.300000
v -0.100000 0.000000 0.200000
v -0.100000 -0.000000 -0.200000
v -0.100000 -0.000000 -0.300000
v -0.100000 0.200000 0.300000
v -0.100000 0.200000 0.200000
v -0.100000 0.200000 -0.200000
v -0.100000 0.200000 -0.300000
v 0.300000 0.000000 0.300000
v 0.300000 0.000000 0.200000
v 0.300000 -0.000000 -0.200000
v 0.300000 -0.000000 -0.300000
v 0.300000 0.200000 0.300000
v 0.300000 0.200000 0.200000
v 0.300000 0.200000 -0.200000
v 0.300000 0.200000 -0.300000
v 0.500000 0.100000 0.400000
v 0.500000 0.100000 -0.400000
v 0.500000 0.300000 0.400000
v 0.500000 0.300000 -0.400000
v 0.500000 0.400000 0.300000
v 0.500000 0.400000 -0.300000
v 0.500000 0.500000 0.300000
v 0.500000 0.500000 -0.300000
v 0.500000 0.700000 0.400000
v 0.500000 0.700000 -0.400000
v -0.500000 0.100000 0.400000
v -0.500000 0.300000 0.400000
v -0.500000 0.700000 0.400000
v -0.400000 0.100000 0.400000
v -0.400000 0.200000 0.400000
v -0.400000 0.400000 0.400000
v -0.400000 0.500000 0.400000
v 0.400000 0.100000 0.400000
v 0.400000 0.200000 0.400000
v 0.400000 0.400000 0.400000
v 0.400000 0.500000 0.400000
v 0.500000 0.100000 0.400000
v 0.500000 0.300000 0.400000
v 0.500000 0.700000 0.400000
v -0.300000 0.000000 0.300000
v -0.300000 0.200000 0.300000
v -0.100000 0.000000 0.300000
v -0.100000 0.200000 0.300000
v 0.100000 0.000000 0.300000
v 0.100000 0.200000 0.300000
v 0.300000 0.000000 0.300000
v 0.300000 0.200000 0.300000
v -0.300000 -0.000000 -0.200000
v -0.300000 0.200000 -0.200000
v -0.100000 -0.000000 -0.200000
v -0.100000 0.200000 -0.200000
v 0.100000 -0.000000 -0.200000
v 0.100000 0.200000 -0.200000
v 0.300000 -0.000000 -0.200000
v 0.300000 0.200000 -0.200000
v -0.500000 0.400000 -0.300000
v -0.500000 0.500000 -0.300000
v -0.400000 0.300000 -0.300000
v -0.400000 0.400000 -0.300000
v -0.400000 0.500000 -0.300000
v -0.400000 0.700000 -0.300000
v 0.400000 0.300000 -0.300000
v 0.400000 0.400000 -0.300000
v 0.400000 0.500000 -0.300000
v 0.400000 0.700000 -0.300000
v 0.500000 0.400000 -0.300000
v 0.500000 0.500000 -0.300000
v -0.500000 0.400000 0.300000
v -0.500000 0.500000 0.300000
v -0.400000 0.300000 0.300000
v -0.400000 0.400000 0.300000
v -0.400000 0.500000 0.300000
v -0.400000 0.700000 0.300000
v 0.400000 0.300000 0.300000
v 0.400000 0.400000 0.300000
v 0.400000 0.500000 0.300000
v 0.400000 0.700000 0.300000
v 0.500000 0.400000 0.300000
v 0.500000 0.500000 0.300000
v -0.300000 0.000000 0.200000
v -0.300000 0.200000 0.200000
v -0.100000 0.000000 0.200000
v -0.100000 0.200000 0.200000
v 0.100000 0.000000 0.200000
v 0.100000 0.200000 0.200000
v 0.300000 0.000000 0.200000
v 0.300000 0.200000 0.200000
v -0.300000 -0.000000 -0.300000
v -0.300000 0.200000 -0.300000
v -0.100000 -0.000000 -0.300000
v -0.100000 0.200000 -0.300000
v 0.100000 -0.000000 -0.300000
v 0.100000 0.200000 -0.300000
v 0.300000 -0.000000 -0.300000
v 0.300000 0.200000 -0.300000
v -0.500000 0.100000 -0.400000
v -0.500000 0.300000 -0.400000
v -0.500000 0.700000 -0.400000
v -0.400000 0.100000 -0.400000
v -0.400000 0.200000 -0.400000
v -0.400000 0.400000 -0.400000
v -0.400000 0.500000 -0.400000
v 0.400000 0.100000 -0.400000
v 0.400000 0.200000 -0.400000
v 0.400000 0.400000 -0.400000
v 0.400000 0.500000 -0.400000
v 0.500000 0.100000 -0.400000
v 0.500000 0.300000 -0.400000
v 0.500000 0.700000 -0.400000
v -0.300000 0.000000 0.300000
v -0.100000 0.000000 0.300000
v 0.100000 0.000000 0.300000
v 0.300000 0.000000 0.300000
v -0.300000 0.000000 0.200000
v -0.100000 0.000000 0.200000
v 0.100000 0.000000 0.200000
v 0.300000 0.000000 0.200000
v -0.300000 -0.000000 -0.200000
v -0.100000 -0.000000 -0.200000
v 0.100000 -0.000000 -0.200000
v 0.300000 -0.000000 -0.200000
v -0.300000 -0.000000 -0.300000
v -0.100000 -0.000000 -0.300000
v 0.100000 -0.000000 -0.300000
v 0.300000 -0.000000 -0.300000
v -0.500000 0.100000 0.400000
v -0.400000 0.100000 0.400000
v 0.400000 0.100000 0.400000
v 0.500000 0.100000 0.400000
v -0.500000 0.100000 -0.400000
v -0.400000 0.100000 -0.400000
v 0.400000 0.100000 -0.400000
v 0.500000 0.100000 -0.400000
v -0.400000 0.200000 0.400000
v 0.400000 0.200000 0.400000
v -0.300000 0.200000 0.300000
v -0.100000 0.200000 0.300000
v 0.100000 0.200000 0.300000
v 0.300000 0.200000 0.300000
v -0.300000 0.200000 0.200000
v -0.100000 0.200000 0.200000
v 0.100000 0.200000 0.200000
v 0.300000 0.200000 0.200000
v -0.300000 0.200000 -0.200000
v -0.100000 0.200000 -0.200000
v 0.100000 0.200000 -0.200000
v 0.300000 0.200000 -0.200000
v -0.300000 0.200000 -0.300000
v -0.100000 0.200000 -0.300000
v 0.100000 0.200000 -0.300000
v 0.300000 0.200000 -0.300000
v -0.400000 0.200000 -0.400000
v 0.400000 0.200000 -0.400000
v -0.400000 0.500000 0.400000
v 0.400000 0.500000 0.400000
v -0.500000 0.500000 0.300000
v -0.400000 0.500000 0.300000
v 0.400000 0.500000 0.300000
v 0.500000 0.500000 0.300000
v -0.500000 0.500000 -0.300000
v -0.400000 0.500000 -0.300000
v 0.400000 0.500000 -0.300000
v 0.500000 0.500000 -0.300000
v -0.400000 0.500000 -0.400000
v 0.400000 0.500000 -0.400000
v -0.400000 0.300000 0.300000
v 0.400000 0.300000 0.300000
v -0.400000 0.300000 -0.300000
v 0.400000 0.300000 -0.300000
v -0.400000 0.400000 0.400000
v 0.400000 0.400000 0.400000
v -0.500000 0.400000 0.300000
v -0.400000 0.400000 0.300000
v 0.400000 0.400000 0.300000
v 0.500000 0.400000 0.300000
v -0.500000 0.400000 -0.300000
v -0.400000 0.400000 -0.300000
v 0.400000 0.400000 -0.300000
v 0.500000 0.400000 -0.300000
v -0.400000 0.400000 -0.400000
v 0.400000 0.400000 -0.400000
v -0.500000 0.700000 0.400000
v 0.500000 0.700000 0.400000
v -0.400000 0.700000 0.300000
v 0.400000 0.700000 0.300000
v -0.400000 0.700000 -0.300000
v 0.400000 0.700000 -0.300000
v -0.500000 0.700000 -0.400000
v 0.500000 0.700000 -0.400000
vn -1.0000 -0.0000 -0.0000
vn 1.0000 -0.0000 -0.0000
vn -0.0000 -0.0000 1.0000
vn -0.0000 -0.0000 -1.0000
vn -0.0000 -1.0000 -0.0000
vn -0.0000 1.0000 -0.0000
vt 0.994141 0.500000
vt 0.369141 0.500000
s 1
usemtl palette.001
f 3/1/1 2/1/1 1/1/1
f 4/1/1 2/1/1 3/1/1
f 5/2/1 4/2/1 3/2/1
f 6/2/1 4/2/1 5/2/1
f 7/2/1 5/2/1 3/2/1
f 8/2/1 4/2/1 6/2/1
f 9/2/1 7/2/1 3/2/1
f 9/2/1 8/2/1 7/2/1
f 10/2/1 4/2/1 8/2/1
f 10/2/1 8/2/1 9/2/1
f 15/1/1 12/1/1 11/1/1
f 16/1/1 12/1/1 15/1/1
f 17/1/1 14/1/1 13/1/1
f 18/1/1 14/1/1 17/1/1
f 23/1/1 20/1/1 19/1/1
f 24/1/1 20/1/1 23/1/1
f 25/1/1 22/1/1 21/1/1
f 26/1/1 22/1/1 25/1/1
f 29/1/1 28/1/1 27/1/1
f 30/1/1 28/1/1 29/1/1
f 34/2/1 32/2/1 31/2/1
f 35/2/1 32/2/1 34/2/1
f 37/2/1 34/2/1 33/2/1
f 38/2/1 34/2/1 37/2/1
f 39/2/1 36/2/1 35/2/1
f 40/2/1 36/2/1 39/2/1
f 41/2/1 39/2/1 38/2/1
f 42/2/1 39/2/1 41/2/1
f 43/1/2 44/1/2 45/1/2
f 45/1/2 44/1/2 46/1/2
f 47/2/2 48/2/2 50/2/2
f 50/2/2 48/2/2 51/2/2
f 49/2/2 50/2/2 53/2/2
f 53/2/2 50/2/2 54/2/2
f 51/2/2 52/2/2 55/2/2
f 55/2/2 52/2/2 56/2/2
f 54/2/2 55/2/2 57/2/2
f 57/2/2 55/2/2 58/2/2
f 59/1/2 60/1/2 63/1/2
f 63/1/2 60/1/2 64/1/2
f 61/1/2 62/1/2 65/1/2
f 65/1/2 62/1/2 66/1/2
f 67/1/2 68/1/2 71/1/2
f 71/1/2 68/1/2 72/1/2
f 69/1/2 70/1/2 73/1/2
f 73/1/2 70/1/2 74/1/2
f 75/1/2 76/1/2 77/1/2
f 77/1/2 76/1/2 78/1/2
f 77/2/2 78/2/2 79/2/2
f 79/2/2 78/2/2 80/2/2
f 77/2/2 79/2/2 81/2/2
f 80/2/2 78/2/2 82/2/2
f 77/2/2 81/2/2 83/2/2
f 81/2/2 82/2/2 83/2/2
f 82/2/2 78/2/2 84/2/2
f 83/2/2 82/2/2 84/2/2
f 88/1/3 86/1/3 85/1/3
f 89/1/3 86/1/3 88/1/3
f 90/2/3 87/2/3 86/2/3
f 91/2/3 87/2/3 90/2/3
f 93/1/3 86/1/3 89/1/3
f 94/2/3 90/2/3 86/2/3
f 95/2/3 87/2/3 91/2/3
f 96/1/3 93/1/3 92/1/3
f 97/2/3 95/2/3 94/2/3
f 97/1/3 93/1/3 96/1/3
f 97/2/3 94/2/3 86/2/3
f 97/1/3 86/1/3 93/1/3
f 98/2/3 87/2/3 95/2/3
f 98/2/3 95/2/3 97/2/3
f 101/1/3 100/1/3 99/1/3
f 102/1/3 100/1/3 101/1/3
f 105/1/3 104/1/3 103/1/3
f 106/1/3 104/1/3 105/1/3
f 109/1/3 108/1/3 107/1/3
f 110/1/3 108/1/3 109/1/3
f 113/1/3 112/1/3 111/1/3
f 114/1/3 112/1/3 113/1/3
f 118/2/3 116/2/3 115/2/3
f 119/2/3 116/2/3 118/2/3
f 121/2/3 118/2/3 117/2/3
f 122/2/3 118/2/3 121/2/3
f 123/2/3 120/2/3 119/2/3
f 124/2/3 120/2/3 123/2/3
f 125/2/3 123/2/3 122/2/3
f 126/2/3 123/2/3 125/2/3
f 127/2/4 128/2/4 130/2/4
f 130/2/4 128/2/4 131/2/4
f 129/2/4 130/2/4 133/2/4
f 133/2/4 130/2/4 134/2/4
f 131/2/4 132/2/4 135/2/4
f 135/2/4 132/2/4 136/2/4
f 134/2/4 135/2/4 137/2/4
f 137/2/4 135/2/4 138/2/4
f 139/1/4 140/1/4 141/1/4
f 141/1/4 140/1/4 142/1/4
f 143/1/4 144/1/4 145/1/4
f 145/1/4 144/1/4 146/1/4
f 147/1/4 148/1/4 149/1/4
f 149/1/4 148/1/4 150/1/4
f 151/1/4 152/1/4 153/1/4
f 153/1/4 152/1/4 154/1/4
f 155/1/4 156/1/4 158/1/4
f 158/1/4 156/1/4 159/1/4
f 156/2/4 157/2/4 160/2/4
f 160/2/4 157/2/4 161/2/4
f 159/1/4 156/1/4 163/1/4
f 156/2/4 160/2/4 164/2/4
f 161/2/4 157/2/4 165/2/4
f 162/1/4 163/1/4 166/1/4
f 164/2/4 165/2/4 167/2/4
f 166/1/4 163/1/4 167/1/4
f 156/2/4 164/2/4 167/2/4
f 163/1/4 156/1/4 167/1/4
f 165/2/4 157/2/4 168/2/4
f 167/2/4 165/2/4 168/2/4
f 173/1/5 170/1/5 169/1/5
f 174/1/5 170/1/5 173/1/5
f 175/1/5 172/1/5 171/1/5
f 176/1/5 172/1/5 175/1/5
f 181/1/5 178/1/5 177/1/5
f 182/1/5 178/1/5 181/1/5
f 183/1/5 180/1/5 179/1/5
f 184/1/5 180/1/5 183/1/5
f 189/1/5 186/1/5 185/1/5
f 190/1/5 186/1/5 189/1/5
f 191/1/5 188/1/5 187/1/5
f 192/1/5 188/1/5 191/1/5
f 195/1/5 194/1/5 193/1/5
f 196/1/5 194/1/5 195/1/5
f 197/1/5 194/1/5 196/1/5
f 198/1/5 194/1/5 197/1/5
f 199/1/5 195/1/5 193/1/5
f 200/1/5 197/1/5 196/1/5
f 201/1/5 197/1/5 200/1/5
f 202/1/5 194/1/5 198/1/5
f 203/1/5 201/1/5 200/1/5
f 203/1/5 202/1/5 201/1/5
f 203/1/5 199/1/5 193/1/5
f 203/1/5 200/1/5 199/1/5
f 204/1/5 202/1/5 203/1/5
f 205/1/5 202/1/5 204/1/5
f 206/1/5 194/1/5 202/1/5
f 206/1/5 202/1/5 205/1/5
f 207/1/5 203/1/5 193/1/5
f 208/1/5 205/1/5 204/1/5
f 209/1/5 205/1/5 208/1/5
f 210/1/5 194/1/5 206/1/5
f 211/1/5 207/1/5 193/1/5
f 211/1/5 210/1/5 209/1/5
f 211/1/5 209/1/5 208/1/5
f 211/1/5 208/1/5 207/1/5
f 212/1/5 194/1/5 210/1/5
f 212/1/5 210/1/5 211/1/5
f 216/2/5 214/2/5 213/2/5
f 217/2/5 214/2/5 216/2/5
f 219/2/5 216/2/5 215/2/5
f 220/2/5 216/2/5 219/2/5
f 221/2/5 218/2/5 217/2/5
f 222/2/5 218/2/5 221/2/5
f 223/2/5 221/2/5 220/2/5
f 224/2/5 221/2/5 223/2/5
f 225/1/6 226/1/6 227/1/6
f 227/1/6 226/1/6 228/1/6
f 229/2/6 230/2/6 232/2/6
f 232/2/6 230/2/6 233/2/6
f 231/2/6 232/2/6 235/2/6
f 235/2/6 232/2/6 236/2/6
f 233/2/6 234/2/6 237/2/6
f 237/2/6 234/2/6 238/2/6
f 236/2/6 237/2/6 239/2/6
f 239/2/6 237/2/6 240/2/6
f 241/2/6 242/2/6 243/2/6
f 243/2/6 242/2/6 244/2/6
f 241/2/6 243/2/6 245/2/6
f 244/2/6 242/2/6 246/2/6
f 241/2/6 245/2/6 247/2/6
f 245/2/6 246/2/6 247/2/6
f 246/2/6 242/2/6 248/2/6
f 247/2/6 246/2/6 248/2/6
