# Blender 5.1.1
# www.blender.org
mtllib Logo.mtl
o Text
v 1.458333 -0.116667 0.300000
v 1.458333 0.008333 0.300000
v 1.541667 0.008333 0.300000
v 1.541667 -0.200000 0.300000
v 1.250000 -0.200000 0.300000
v 1.250000 0.050000 0.300000
v 1.291667 0.050000 0.300000
v 1.291667 0.091667 0.300000
v 1.333333 0.091667 0.300000
v 1.333333 0.133333 0.300000
v 1.375000 0.133333 0.300000
v 1.375000 0.175000 0.300000
v 1.458333 0.175000 0.300000
v 1.458333 0.091667 0.300000
v 1.416667 0.091667 0.300000
v 1.416667 0.050000 0.300000
v 1.375000 0.050000 0.300000
v 1.375000 0.008333 0.300000
v 1.333333 0.008333 0.300000
v 1.333333 -0.116667 0.300000
v 0.916667 0.175000 0.300000
v 1.208333 0.175000 0.300000
v 1.208333 -0.033333 0.300000
v 1.166667 -0.033333 0.300000
v 1.166667 -0.075000 0.300000
v 1.083333 -0.075000 0.300000
v 1.083333 -0.158333 0.300000
v 1.041667 -0.158333 0.300000
v 1.041667 -0.200000 0.300000
v 0.916667 -0.200000 0.300000
v 0.916667 -0.116667 0.300000
v 1.000000 -0.116667 0.300000
v 1.000000 0.050000 0.300000
v 1.083333 0.050000 0.300000
v 1.083333 0.008333 0.300000
v 1.125000 0.008333 0.300000
v 1.125000 0.091667 0.300000
v 0.916667 0.091667 0.300000
v 0.875000 0.175000 0.300000
v 0.875000 -0.116667 0.300000
v 0.833333 -0.116667 0.300000
v 0.833333 -0.158333 0.300000
v 0.791667 -0.158333 0.300000
v 0.791667 -0.200000 0.300000
v 0.583333 -0.200000 0.300000
v 0.583333 -0.116667 0.300000
v 0.750000 -0.116667 0.300000
v 0.750000 -0.075000 0.300000
v 0.791667 -0.075000 0.300000
v 0.791667 0.175000 0.300000
v 0.750000 0.175000 0.300000
v 0.750000 0.091667 0.300000
v 0.583333 0.091667 0.300000
v 0.583333 0.175000 0.300000
v 0.750000 0.050000 0.300000
v 0.750000 -0.033333 0.300000
v 0.583333 -0.033333 0.300000
v 0.583333 0.050000 0.300000
v 0.291667 0.258333 0.300000
v 0.333333 0.258333 0.300000
v 0.333333 0.175000 0.300000
v 0.291667 0.175000 0.300000
v 0.291667 0.133333 0.300000
v 0.250000 0.133333 0.300000
v 0.250000 0.091667 0.300000
v 0.166667 0.091667 0.300000
v 0.166667 0.133333 0.300000
v 0.208333 0.133333 0.300000
v 0.208333 0.175000 0.300000
v 0.166667 0.175000 0.300000
v 0.166667 0.258333 0.300000
v 0.250000 0.258333 0.300000
v 0.250000 0.216667 0.300000
v 0.291667 0.216667 0.300000
v 0.291667 0.091667 0.300000
v 0.333333 0.091667 0.300000
v 0.333333 0.133333 0.300000
v 0.166667 0.008333 0.300000
v 0.208333 0.008333 0.300000
v 0.208333 0.050000 0.300000
v 0.291667 0.050000 0.300000
v 0.291667 0.008333 0.300000
v 0.333333 0.008333 0.300000
v 0.333333 -0.033333 0.300000
v 0.291667 -0.033333 0.300000
v 0.291667 -0.075000 0.300000
v 0.333333 -0.075000 0.300000
v 0.333333 -0.116667 0.300000
v 0.375000 -0.116667 0.300000
v 0.375000 -0.075000 0.300000
v 0.458333 -0.075000 0.300000
v 0.458333 -0.033333 0.300000
v 0.375000 -0.033333 0.300000
v 0.375000 0.050000 0.300000
v 0.541667 0.050000 0.300000
v 0.541667 -0.075000 0.300000
v 0.500000 -0.075000 0.300000
v 0.500000 -0.116667 0.300000
v 0.541667 -0.116667 0.300000
v 0.541667 -0.200000 0.300000
v 0.458333 -0.200000 0.300000
v 0.458333 -0.158333 0.300000
v 0.416667 -0.158333 0.300000
v 0.416667 -0.200000 0.300000
v 0.333333 -0.200000 0.300000
v 0.333333 -0.158333 0.300000
v 0.291667 -0.158333 0.300000
v 0.291667 -0.200000 0.300000
v 0.208333 -0.200000 0.300000
v 0.208333 -0.158333 0.300000
v 0.166667 -0.158333 0.300000
v 0.166667 -0.075000 0.300000
v 0.208333 -0.075000 0.300000
v 0.208333 -0.033333 0.300000
v 0.166667 -0.033333 0.300000
v 0.375000 0.258333 0.300000
v 0.500000 0.258333 0.300000
v 0.500000 0.175000 0.300000
v 0.541667 0.175000 0.300000
v 0.541667 0.091667 0.300000
v 0.458333 0.091667 0.300000
v 0.458333 0.175000 0.300000
v 0.416667 0.175000 0.300000
v 0.416667 0.091667 0.300000
v 0.375000 0.091667 0.300000
v -0.083333 -0.116667 0.300000
v 0.041667 -0.116667 0.300000
v 0.041667 -0.075000 0.300000
v -0.125000 -0.075000 0.300000
v -0.125000 0.050000 0.300000
v -0.166667 0.050000 0.300000
v -0.166667 0.133333 0.300000
v -0.083333 0.133333 0.300000
v -0.083333 0.216667 0.300000
v 0.000000 0.216667 0.300000
v 0.000000 0.133333 0.300000
v 0.125000 0.133333 0.300000
v 0.125000 0.050000 0.300000
v -0.041667 0.050000 0.300000
v -0.041667 0.008333 0.300000
v 0.083333 0.008333 0.300000
v 0.083333 -0.033333 0.300000
v 0.125000 -0.033333 0.300000
v 0.125000 -0.158333 0.300000
v 0.083333 -0.158333 0.300000
v 0.083333 -0.200000 0.300000
v -0.083333 -0.200000 0.300000
v -0.458333 0.175000 0.300000
v -0.208333 0.175000 0.300000
v -0.208333 0.091667 0.300000
v -0.250000 0.091667 0.300000
v -0.250000 0.050000 0.300000
v -0.291667 0.050000 0.300000
v -0.291667 -0.158333 0.300000
v -0.333333 -0.158333 0.300000
v -0.333333 -0.200000 0.300000
v -0.416667 -0.200000 0.300000
v -0.416667 -0.116667 0.300000
v -0.375000 -0.116667 0.300000
v -0.375000 0.050000 0.300000
v -0.333333 0.050000 0.300000
v -0.333333 0.091667 0.300000
v -0.458333 0.091667 0.300000
v -0.500000 0.008333 0.300000
v -0.416667 0.008333 0.300000
v -0.500000 -0.116667 0.300000
v -0.250000 0.008333 0.300000
v -0.208333 0.008333 0.300000
v -0.208333 -0.116667 0.300000
v -0.250000 -0.116667 0.300000
v -0.208333 0.258333 0.300000
v -0.208333 0.216667 0.300000
v -0.291667 0.216667 0.300000
v -0.291667 0.258333 0.300000
v -0.333333 0.258333 0.300000
v -0.333333 0.216667 0.300000
v -0.416667 0.216667 0.300000
v -0.416667 0.258333 0.300000
v -0.791667 0.175000 0.300000
v -0.708333 0.175000 0.300000
v -0.708333 -0.158333 0.300000
v -0.750000 -0.158333 0.300000
v -0.750000 -0.200000 0.300000
v -0.833333 -0.200000 0.300000
v -0.833333 -0.116667 0.300000
v -0.791667 -0.116667 0.300000
v -0.666667 0.175000 0.300000
v -0.583333 0.175000 0.300000
v -0.583333 -0.075000 0.300000
v -0.541667 -0.075000 0.300000
v -0.541667 -0.158333 0.300000
v -0.583333 -0.158333 0.300000
v -0.583333 -0.200000 0.300000
v -0.666667 -0.200000 0.300000
v -1.083333 0.175000 0.300000
v -1.083333 0.050000 0.300000
v -0.875000 0.050000 0.300000
v -0.875000 -0.033333 0.300000
v -1.083333 -0.033333 0.300000
v -1.083333 -0.200000 0.300000
v -1.166667 -0.200000 0.300000
v -1.166667 0.175000 0.300000
v -1.500000 -0.075000 0.300000
v -1.458333 -0.075000 0.300000
v -1.458333 0.175000 0.300000
v -1.375000 0.175000 0.300000
v -1.375000 -0.116667 0.300000
v -1.416667 -0.116667 0.300000
v -1.416667 -0.200000 0.300000
v -1.500000 -0.200000 0.300000
v -1.333333 0.175000 0.300000
v -1.250000 0.175000 0.300000
v -1.250000 0.091667 0.300000
v -1.208333 0.091667 0.300000
v -1.208333 -0.200000 0.300000
v -1.291667 -0.200000 0.300000
v -1.291667 0.050000 0.300000
v -1.333333 0.050000 0.300000
v -1.208333 0.258333 0.300000
v -1.208333 0.216667 0.300000
v -1.291667 0.216667 0.300000
v -1.291667 0.258333 0.300000
v -1.333333 0.258333 0.300000
v -1.333333 0.216667 0.300000
v -1.416667 0.216667 0.300000
v -1.416667 0.258333 0.300000
v 1.458333 -0.116667 0.100000
v 1.458333 0.008333 0.100000
v 1.541667 0.008333 0.100000
v 1.541667 -0.200000 0.100000
v 1.250000 -0.200000 0.100000
v 1.250000 0.050000 0.100000
v 1.291667 0.050000 0.100000
v 1.291667 0.091667 0.100000
v 1.333333 0.091667 0.100000
v 1.333333 0.133333 0.100000
v 1.375000 0.133333 0.100000
v 1.375000 0.175000 0.100000
v 1.458333 0.175000 0.100000
v 1.458333 0.091667 0.100000
v 1.416667 0.091667 0.100000
v 1.416667 0.050000 0.100000
v 1.375000 0.050000 0.100000
v 1.375000 0.008333 0.100000
v 1.333333 0.008333 0.100000
v 1.333333 -0.116667 0.100000
v 0.916667 0.175000 0.100000
v 1.208333 0.175000 0.100000
v 1.208333 -0.033333 0.100000
v 1.166667 -0.033333 0.100000
v 1.166667 -0.075000 0.100000
v 1.083333 -0.075000 0.100000
v 1.083333 -0.158333 0.100000
v 1.041667 -0.158333 0.100000
v 1.041667 -0.200000 0.100000
v 0.916667 -0.200000 0.100000
v 0.916667 -0.116667 0.100000
v 1.000000 -0.116667 0.100000
v 1.000000 0.050000 0.100000
v 1.083333 0.050000 0.100000
v 1.083333 0.008333 0.100000
v 1.125000 0.008333 0.100000
v 1.125000 0.091667 0.100000
v 0.916667 0.091667 0.100000
v 0.875000 0.175000 0.100000
v 0.875000 -0.116667 0.100000
v 0.833333 -0.116667 0.100000
v 0.833333 -0.158333 0.100000
v 0.791667 -0.158333 0.100000
v 0.791667 -0.200000 0.100000
v 0.583333 -0.200000 0.100000
v 0.583333 -0.116667 0.100000
v 0.750000 -0.116667 0.100000
v 0.750000 -0.075000 0.100000
v 0.791667 -0.075000 0.100000
v 0.791667 0.175000 0.100000
v 0.750000 0.175000 0.100000
v 0.750000 0.091667 0.100000
v 0.583333 0.091667 0.100000
v 0.583333 0.175000 0.100000
v 0.750000 0.050000 0.100000
v 0.750000 -0.033333 0.100000
v 0.583333 -0.033333 0.100000
v 0.583333 0.050000 0.100000
v 0.291667 0.258333 0.100000
v 0.333333 0.258333 0.100000
v 0.333333 0.175000 0.100000
v 0.291667 0.175000 0.100000
v 0.291667 0.133333 0.100000
v 0.250000 0.133333 0.100000
v 0.250000 0.091667 0.100000
v 0.166667 0.091667 0.100000
v 0.166667 0.133333 0.100000
v 0.208333 0.133333 0.100000
v 0.208333 0.175000 0.100000
v 0.166667 0.175000 0.100000
v 0.166667 0.258333 0.100000
v 0.250000 0.258333 0.100000
v 0.250000 0.216667 0.100000
v 0.291667 0.216667 0.100000
v 0.291667 0.091667 0.100000
v 0.333333 0.091667 0.100000
v 0.333333 0.133333 0.100000
v 0.166667 0.008333 0.100000
v 0.208333 0.008333 0.100000
v 0.208333 0.050000 0.100000
v 0.291667 0.050000 0.100000
v 0.291667 0.008333 0.100000
v 0.333333 0.008333 0.100000
v 0.333333 -0.033333 0.100000
v 0.291667 -0.033333 0.100000
v 0.291667 -0.075000 0.100000
v 0.333333 -0.075000 0.100000
v 0.333333 -0.116667 0.100000
v 0.375000 -0.116667 0.100000
v 0.375000 -0.075000 0.100000
v 0.458333 -0.075000 0.100000
v 0.458333 -0.033333 0.100000
v 0.375000 -0.033333 0.100000
v 0.375000 0.050000 0.100000
v 0.541667 0.050000 0.100000
v 0.541667 -0.075000 0.100000
v 0.500000 -0.075000 0.100000
v 0.500000 -0.116667 0.100000
v 0.541667 -0.116667 0.100000
v 0.541667 -0.200000 0.100000
v 0.458333 -0.200000 0.100000
v 0.458333 -0.158333 0.100000
v 0.416667 -0.158333 0.100000
v 0.416667 -0.200000 0.100000
v 0.333333 -0.200000 0.100000
v 0.333333 -0.158333 0.100000
v 0.291667 -0.158333 0.100000
v 0.291667 -0.200000 0.100000
v 0.208333 -0.200000 0.100000
v 0.208333 -0.158333 0.100000
v 0.166667 -0.158333 0.100000
v 0.166667 -0.075000 0.100000
v 0.208333 -0.075000 0.100000
v 0.208333 -0.033333 0.100000
v 0.166667 -0.033333 0.100000
v 0.375000 0.258333 0.100000
v 0.500000 0.258333 0.100000
v 0.500000 0.175000 0.100000
v 0.541667 0.175000 0.100000
v 0.541667 0.091667 0.100000
v 0.458333 0.091667 0.100000
v 0.458333 0.175000 0.100000
v 0.416667 0.175000 0.100000
v 0.416667 0.091667 0.100000
v 0.375000 0.091667 0.100000
v -0.083333 -0.116667 0.100000
v 0.041667 -0.116667 0.100000
v 0.041667 -0.075000 0.100000
v -0.125000 -0.075000 0.100000
v -0.125000 0.050000 0.100000
v -0.166667 0.050000 0.100000
v -0.166667 0.133333 0.100000
v -0.083333 0.133333 0.100000
v -0.083333 0.216667 0.100000
v 0.000000 0.216667 0.100000
v 0.000000 0.133333 0.100000
v 0.125000 0.133333 0.100000
v 0.125000 0.050000 0.100000
v -0.041667 0.050000 0.100000
v -0.041667 0.008333 0.100000
v 0.083333 0.008333 0.100000
v 0.083333 -0.033333 0.100000
v 0.125000 -0.033333 0.100000
v 0.125000 -0.158333 0.100000
v 0.083333 -0.158333 0.100000
v 0.083333 -0.200000 0.100000
v -0.083333 -0.200000 0.100000
v -0.458333 0.175000 0.100000
v -0.208333 0.175000 0.100000
v -0.208333 0.091667 0.100000
v -0.250000 0.091667 0.100000
v -0.250000 0.050000 0.100000
v -0.291667 0.050000 0.100000
v -0.291667 -0.158333 0.100000
v -0.333333 -0.158333 0.100000
v -0.333333 -0.200000 0.100000
v -0.416667 -0.200000 0.100000
v -0.416667 -0.116667 0.100000
v -0.375000 -0.116667 0.100000
v -0.375000 0.050000 0.100000
v -0.333333 0.050000 0.100000
v -0.333333 0.091667 0.100000
v -0.458333 0.091667 0.100000
v -0.500000 0.008333 0.100000
v -0.416667 0.008333 0.100000
v -0.500000 -0.116667 0.100000
v -0.250000 0.008333 0.100000
v -0.208333 0.008333 0.100000
v -0.208333 -0.116667 0.100000
v -0.250000 -0.116667 0.100000
v -0.208333 0.258333 0.100000
v -0.208333 0.216667 0.100000
v -0.291667 0.216667 0.100000
v -0.291667 0.258333 0.100000
v -0.333333 0.258333 0.100000
v -0.333333 0.216667 0.100000
v -0.416667 0.216667 0.100000
v -0.416667 0.258333 0.100000
v -0.791667 0.175000 0.100000
v -0.708333 0.175000 0.100000
v -0.708333 -0.158333 0.100000
v -0.750000 -0.158333 0.100000
v -0.750000 -0.200000 0.100000
v -0.833333 -0.200000 0.100000
v -0.833333 -0.116667 0.100000
v -0.791667 -0.116667 0.100000
v -0.666667 0.175000 0.100000
v -0.583333 0.175000 0.100000
v -0.583333 -0.075000 0.100000
v -0.541667 -0.075000 0.100000
v -0.541667 -0.158333 0.100000
v -0.583333 -0.158333 0.100000
v -0.583333 -0.200000 0.100000
v -0.666667 -0.200000 0.100000
v -1.083333 0.175000 0.100000
v -1.083333 0.050000 0.100000
v -0.875000 0.050000 0.100000
v -0.875000 -0.033333 0.100000
v -1.083333 -0.033333 0.100000
v -1.083333 -0.200000 0.100000
v -1.166667 -0.200000 0.100000
v -1.166667 0.175000 0.100000
v -1.500000 -0.075000 0.100000
v -1.458333 -0.075000 0.100000
v -1.458333 0.175000 0.100000
v -1.375000 0.175000 0.100000
v -1.375000 -0.116667 0.100000
v -1.416667 -0.116667 0.100000
v -1.416667 -0.200000 0.100000
v -1.500000 -0.200000 0.100000
v -1.333333 0.175000 0.100000
v -1.250000 0.175000 0.100000
v -1.250000 0.091667 0.100000
v -1.208333 0.091667 0.100000
v -1.208333 -0.200000 0.100000
v -1.291667 -0.200000 0.100000
v -1.291667 0.050000 0.100000
v -1.333333 0.050000 0.100000
v -1.208333 0.258333 0.100000
v -1.208333 0.216667 0.100000
v -1.291667 0.216667 0.100000
v -1.291667 0.258333 0.100000
v -1.333333 0.258333 0.100000
v -1.333333 0.216667 0.100000
v -1.416667 0.216667 0.100000
v -1.416667 0.258333 0.100000
v -1.500000 -0.075000 0.100000
v -1.500000 -0.075000 0.300000
v -1.458333 -0.075000 0.100000
v -1.458333 -0.075000 0.300000
v -1.458333 0.175000 0.100000
v -1.458333 0.175000 0.300000
v -1.375000 0.175000 0.100000
v -1.375000 0.175000 0.300000
v -1.375000 -0.116667 0.100000
v -1.375000 -0.116667 0.300000
v -1.416667 -0.116667 0.100000
v -1.416667 -0.116667 0.300000
v -1.416667 -0.200000 0.100000
v -1.416667 -0.200000 0.300000
v -1.500000 -0.200000 0.100000
v -1.500000 -0.200000 0.300000
v -1.333333 0.175000 0.100000
v -1.333333 0.175000 0.300000
v -1.250000 0.175000 0.100000
v -1.250000 0.175000 0.300000
v -1.250000 0.091667 0.100000
v -1.250000 0.091667 0.300000
v -1.208333 0.091667 0.100000
v -1.208333 0.091667 0.300000
v -1.208333 -0.200000 0.100000
v -1.208333 -0.200000 0.300000
v -1.291667 -0.200000 0.100000
v -1.291667 -0.200000 0.300000
v -1.291667 0.050000 0.100000
v -1.291667 0.050000 0.300000
v -1.333333 0.050000 0.100000
v -1.333333 0.050000 0.300000
v -1.208333 0.258333 0.100000
v -1.208333 0.258333 0.300000
v -1.208333 0.216667 0.100000
v -1.208333 0.216667 0.300000
v -1.291667 0.216667 0.100000
v -1.291667 0.216667 0.300000
v -1.291667 0.258333 0.100000
v -1.291667 0.258333 0.300000
v -1.333333 0.258333 0.100000
v -1.333333 0.258333 0.300000
v -1.333333 0.216667 0.100000
v -1.333333 0.216667 0.300000
v -1.416667 0.216667 0.100000
v -1.416667 0.216667 0.300000
v -1.416667 0.258333 0.100000
v -1.416667 0.258333 0.300000
v -1.083333 0.175000 0.100000
v -1.083333 0.175000 0.300000
v -1.083333 0.050000 0.100000
v -1.083333 0.050000 0.300000
v -0.875000 0.050000 0.100000
v -0.875000 0.050000 0.300000
v -0.875000 -0.033333 0.100000
v -0.875000 -0.033333 0.300000
v -1.083333 -0.033333 0.100000
v -1.083333 -0.033333 0.300000
v -1.083333 -0.200000 0.100000
v -1.083333 -0.200000 0.300000
v -1.166667 -0.200000 0.100000
v -1.166667 -0.200000 0.300000
v -1.166667 0.175000 0.100000
v -1.166667 0.175000 0.300000
v -0.791667 0.175000 0.100000
v -0.791667 0.175000 0.300000
v -0.708333 0.175000 0.100000
v -0.708333 0.175000 0.300000
v -0.708333 -0.158333 0.100000
v -0.708333 -0.158333 0.300000
v -0.750000 -0.158333 0.100000
v -0.750000 -0.158333 0.300000
v -0.750000 -0.200000 0.100000
v -0.750000 -0.200000 0.300000
v -0.833333 -0.200000 0.100000
v -0.833333 -0.200000 0.300000
v -0.833333 -0.116667 0.100000
v -0.833333 -0.116667 0.300000
v -0.791667 -0.116667 0.100000
v -0.791667 -0.116667 0.300000
v -0.666667 0.175000 0.100000
v -0.666667 0.175000 0.300000
v -0.583333 0.175000 0.100000
v -0.583333 0.175000 0.300000
v -0.583333 -0.075000 0.100000
v -0.583333 -0.075000 0.300000
v -0.541667 -0.075000 0.100000
v -0.541667 -0.075000 0.300000
v -0.541667 -0.158333 0.100000
v -0.541667 -0.158333 0.300000
v -0.583333 -0.158333 0.100000
v -0.583333 -0.158333 0.300000
v -0.583333 -0.200000 0.100000
v -0.583333 -0.200000 0.300000
v -0.666667 -0.200000 0.100000
v -0.666667 -0.200000 0.300000
v -0.458333 0.175000 0.100000
v -0.458333 0.175000 0.300000
v -0.208333 0.175000 0.100000
v -0.208333 0.175000 0.300000
v -0.208333 0.091667 0.100000
v -0.208333 0.091667 0.300000
v -0.250000 0.091667 0.100000
v -0.250000 0.091667 0.300000
v -0.250000 0.050000 0.100000
v -0.250000 0.050000 0.300000
v -0.291667 0.050000 0.100000
v -0.291667 0.050000 0.300000
v -0.291667 -0.158333 0.100000
v -0.291667 -0.158333 0.300000
v -0.333333 -0.158333 0.100000
v -0.333333 -0.158333 0.300000
v -0.333333 -0.200000 0.100000
v -0.333333 -0.200000 0.300000
v -0.416667 -0.200000 0.100000
v -0.416667 -0.200000 0.300000
v -0.416667 -0.116667 0.100000
v -0.416667 -0.116667 0.300000
v -0.375000 -0.116667 0.100000
v -0.375000 -0.116667 0.300000
v -0.375000 0.050000 0.100000
v -0.375000 0.050000 0.300000
v -0.333333 0.050000 0.100000
v -0.333333 0.050000 0.300000
v -0.333333 0.091667 0.100000
v -0.333333 0.091667 0.300000
v -0.458333 0.091667 0.100000
v -0.458333 0.091667 0.300000
v -0.500000 0.008333 0.100000
v -0.500000 0.008333 0.300000
v -0.416667 0.008333 0.100000
v -0.416667 0.008333 0.300000
v -0.416667 -0.116667 0.100000
v -0.416667 -0.116667 0.300000
v -0.500000 -0.116667 0.100000
v -0.500000 -0.116667 0.300000
v -0.250000 0.008333 0.100000
v -0.250000 0.008333 0.300000
v -0.208333 0.008333 0.100000
v -0.208333 0.008333 0.300000
v -0.208333 -0.116667 0.100000
v -0.208333 -0.116667 0.300000
v -0.250000 -0.116667 0.100000
v -0.250000 -0.116667 0.300000
v -0.208333 0.258333 0.100000
v -0.208333 0.258333 0.300000
v -0.208333 0.216667 0.100000
v -0.208333 0.216667 0.300000
v -0.291667 0.216667 0.100000
v -0.291667 0.216667 0.300000
v -0.291667 0.258333 0.100000
v -0.291667 0.258333 0.300000
v -0.333333 0.258333 0.100000
v -0.333333 0.258333 0.300000
v -0.333333 0.216667 0.100000
v -0.333333 0.216667 0.300000
v -0.416667 0.216667 0.100000
v -0.416667 0.216667 0.300000
v -0.416667 0.258333 0.100000
v -0.416667 0.258333 0.300000
v -0.083333 -0.116667 0.100000
v -0.083333 -0.116667 0.300000
v 0.041667 -0.116667 0.100000
v 0.041667 -0.116667 0.300000
v 0.041667 -0.075000 0.100000
v 0.041667 -0.075000 0.300000
v -0.125000 -0.075000 0.100000
v -0.125000 -0.075000 0.300000
v -0.125000 0.050000 0.100000
v -0.125000 0.050000 0.300000
v -0.166667 0.050000 0.100000
v -0.166667 0.050000 0.300000
v -0.166667 0.133333 0.100000
v -0.166667 0.133333 0.300000
v -0.083333 0.133333 0.100000
v -0.083333 0.133333 0.300000
v -0.083333 0.216667 0.100000
v -0.083333 0.216667 0.300000
v 0.000000 0.216667 0.100000
v 0.000000 0.216667 0.300000
v 0.000000 0.133333 0.100000
v 0.000000 0.133333 0.300000
v 0.125000 0.133333 0.100000
v 0.125000 0.133333 0.300000
v 0.125000 0.050000 0.100000
v 0.125000 0.050000 0.300000
v -0.041667 0.050000 0.100000
v -0.041667 0.050000 0.300000
v -0.041667 0.008333 0.100000
v -0.041667 0.008333 0.300000
v 0.083333 0.008333 0.100000
v 0.083333 0.008333 0.300000
v 0.083333 -0.033333 0.100000
v 0.083333 -0.033333 0.300000
v 0.125000 -0.033333 0.100000
v 0.125000 -0.033333 0.300000
v 0.125000 -0.158333 0.100000
v 0.125000 -0.158333 0.300000
v 0.083333 -0.158333 0.100000
v 0.083333 -0.158333 0.300000
v 0.083333 -0.200000 0.100000
v 0.083333 -0.200000 0.300000
v -0.083333 -0.200000 0.100000
v -0.083333 -0.200000 0.300000
v 0.291667 0.258333 0.100000
v 0.291667 0.258333 0.300000
v 0.333333 0.258333 0.100000
v 0.333333 0.258333 0.300000
v 0.333333 0.175000 0.100000
v 0.333333 0.175000 0.300000
v 0.291667 0.175000 0.100000
v 0.291667 0.175000 0.300000
v 0.291667 0.133333 0.100000
v 0.291667 0.133333 0.300000
v 0.250000 0.133333 0.100000
v 0.250000 0.133333 0.300000
v 0.250000 0.091667 0.100000
v 0.250000 0.091667 0.300000
v 0.166667 0.091667 0.100000
v 0.166667 0.091667 0.300000
v 0.166667 0.133333 0.100000
v 0.166667 0.133333 0.300000
v 0.208333 0.133333 0.100000
v 0.208333 0.133333 0.300000
v 0.208333 0.175000 0.100000
v 0.208333 0.175000 0.300000
v 0.166667 0.175000 0.100000
v 0.166667 0.175000 0.300000
v 0.166667 0.258333 0.100000
v 0.166667 0.258333 0.300000
v 0.250000 0.258333 0.100000
v 0.250000 0.258333 0.300000
v 0.250000 0.216667 0.100000
v 0.250000 0.216667 0.300000
v 0.291667 0.216667 0.100000
v 0.291667 0.216667 0.300000
v 0.291667 0.091667 0.100000
v 0.291667 0.091667 0.300000
v 0.333333 0.091667 0.100000
v 0.333333 0.091667 0.300000
v 0.333333 0.133333 0.100000
v 0.333333 0.133333 0.300000
v 0.291667 0.133333 0.100000
v 0.291667 0.133333 0.300000
v 0.166667 0.008333 0.100000
v 0.166667 0.008333 0.300000
v 0.208333 0.008333 0.100000
v 0.208333 0.008333 0.300000
v 0.208333 0.050000 0.100000
v 0.208333 0.050000 0.300000
v 0.291667 0.050000 0.100000
v 0.291667 0.050000 0.300000
v 0.291667 0.008333 0.100000
v 0.291667 0.008333 0.300000
v 0.333333 0.008333 0.100000
v 0.333333 0.008333 0.300000
v 0.333333 -0.033333 0.100000
v 0.333333 -0.033333 0.300000
v 0.291667 -0.033333 0.100000
v 0.291667 -0.033333 0.300000
v 0.291667 -0.075000 0.100000
v 0.291667 -0.075000 0.300000
v 0.333333 -0.075000 0.100000
v 0.333333 -0.075000 0.300000
v 0.333333 -0.116667 0.100000
v 0.333333 -0.116667 0.300000
v 0.375000 -0.116667 0.100000
v 0.375000 -0.116667 0.300000
v 0.375000 -0.075000 0.100000
v 0.375000 -0.075000 0.300000
v 0.458333 -0.075000 0.100000
v 0.458333 -0.075000 0.300000
v 0.458333 -0.033333 0.100000
v 0.458333 -0.033333 0.300000
v 0.375000 -0.033333 0.100000
v 0.375000 -0.033333 0.300000
v 0.375000 0.050000 0.100000
v 0.375000 0.050000 0.300000
v 0.541667 0.050000 0.100000
v 0.541667 0.050000 0.300000
v 0.541667 -0.075000 0.100000
v 0.541667 -0.075000 0.300000
v 0.500000 -0.075000 0.100000
v 0.500000 -0.075000 0.300000
v 0.500000 -0.116667 0.100000
v 0.500000 -0.116667 0.300000
v 0.541667 -0.116667 0.100000
v 0.541667 -0.116667 0.300000
v 0.541667 -0.200000 0.100000
v 0.541667 -0.200000 0.300000
v 0.458333 -0.200000 0.100000
v 0.458333 -0.200000 0.300000
v 0.458333 -0.158333 0.100000
v 0.458333 -0.158333 0.300000
v 0.416667 -0.158333 0.100000
v 0.416667 -0.158333 0.300000
v 0.416667 -0.200000 0.100000
v 0.416667 -0.200000 0.300000
v 0.333333 -0.200000 0.100000
v 0.333333 -0.200000 0.300000
v 0.333333 -0.158333 0.100000
v 0.333333 -0.158333 0.300000
v 0.291667 -0.158333 0.100000
v 0.291667 -0.158333 0.300000
v 0.291667 -0.200000 0.100000
v 0.291667 -0.200000 0.300000
v 0.208333 -0.200000 0.100000
v 0.208333 -0.200000 0.300000
v 0.208333 -0.158333 0.100000
v 0.208333 -0.158333 0.300000
v 0.166667 -0.158333 0.100000
v 0.166667 -0.158333 0.300000
v 0.166667 -0.075000 0.100000
v 0.166667 -0.075000 0.300000
v 0.208333 -0.075000 0.100000
v 0.208333 -0.075000 0.300000
v 0.208333 -0.033333 0.100000
v 0.208333 -0.033333 0.300000
v 0.166667 -0.033333 0.100000
v 0.166667 -0.033333 0.300000
v 0.375000 0.258333 0.100000
v 0.375000 0.258333 0.300000
v 0.500000 0.258333 0.100000
v 0.500000 0.258333 0.300000
v 0.500000 0.175000 0.100000
v 0.500000 0.175000 0.300000
v 0.541667 0.175000 0.100000
v 0.541667 0.175000 0.300000
v 0.541667 0.091667 0.100000
v 0.541667 0.091667 0.300000
v 0.458333 0.091667 0.100000
v 0.458333 0.091667 0.300000
v 0.458333 0.175000 0.100000
v 0.458333 0.175000 0.300000
v 0.416667 0.175000 0.100000
v 0.416667 0.175000 0.300000
v 0.416667 0.091667 0.100000
v 0.416667 0.091667 0.300000
v 0.375000 0.091667 0.100000
v 0.375000 0.091667 0.300000
v 0.875000 0.175000 0.100000
v 0.875000 0.175000 0.300000
v 0.875000 -0.116667 0.100000
v 0.875000 -0.116667 0.300000
v 0.833333 -0.116667 0.100000
v 0.833333 -0.116667 0.300000
v 0.833333 -0.158333 0.100000
v 0.833333 -0.158333 0.300000
v 0.791667 -0.158333 0.100000
v 0.791667 -0.158333 0.300000
v 0.791667 -0.200000 0.100000
v 0.791667 -0.200000 0.300000
v 0.583333 -0.200000 0.100000
v 0.583333 -0.200000 0.300000
v 0.583333 -0.116667 0.100000
v 0.583333 -0.116667 0.300000
v 0.750000 -0.116667 0.100000
v 0.750000 -0.116667 0.300000
v 0.750000 -0.075000 0.100000
v 0.750000 -0.075000 0.300000
v 0.791667 -0.075000 0.100000
v 0.791667 -0.075000 0.300000
v 0.791667 0.175000 0.100000
v 0.791667 0.175000 0.300000
v 0.750000 0.175000 0.100000
v 0.750000 0.175000 0.300000
v 0.750000 0.091667 0.100000
v 0.750000 0.091667 0.300000
v 0.583333 0.091667 0.100000
v 0.583333 0.091667 0.300000
v 0.583333 0.175000 0.100000
v 0.583333 0.175000 0.300000
v 0.750000 0.050000 0.100000
v 0.750000 0.050000 0.300000
v 0.750000 -0.033333 0.100000
v 0.750000 -0.033333 0.300000
v 0.583333 -0.033333 0.100000
v 0.583333 -0.033333 0.300000
v 0.583333 0.050000 0.100000
v 0.583333 0.050000 0.300000
v 0.916667 0.175000 0.100000
v 0.916667 0.175000 0.300000
v 1.208333 0.175000 0.100000
v 1.208333 0.175000 0.300000
v 1.208333 -0.033333 0.100000
v 1.208333 -0.033333 0.300000
v 1.166667 -0.033333 0.100000
v 1.166667 -0.033333 0.300000
v 1.166667 -0.075000 0.100000
v 1.166667 -0.075000 0.300000
v 1.083333 -0.075000 0.100000
v 1.083333 -0.075000 0.300000
v 1.083333 -0.158333 0.100000
v 1.083333 -0.158333 0.300000
v 1.041667 -0.158333 0.100000
v 1.041667 -0.158333 0.300000
v 1.041667 -0.200000 0.100000
v 1.041667 -0.200000 0.300000
v 0.916667 -0.200000 0.100000
v 0.916667 -0.200000 0.300000
v 0.916667 -0.116667 0.100000
v 0.916667 -0.116667 0.300000
v 1.000000 -0.116667 0.100000
v 1.000000 -0.116667 0.300000
v 1.000000 0.050000 0.100000
v 1.000000 0.050000 0.300000
v 1.083333 0.050000 0.100000
v 1.083333 0.050000 0.300000
v 1.083333 0.008333 0.100000
v 1.083333 0.008333 0.300000
v 1.125000 0.008333 0.100000
v 1.125000 0.008333 0.300000
v 1.125000 0.091667 0.100000
v 1.125000 0.091667 0.300000
v 0.916667 0.091667 0.100000
v 0.916667 0.091667 0.300000
v 1.458333 -0.116667 0.100000
v 1.458333 -0.116667 0.300000
v 1.458333 0.008333 0.100000
v 1.458333 0.008333 0.300000
v 1.541667 0.008333 0.100000
v 1.541667 0.008333 0.300000
v 1.541667 -0.200000 0.100000
v 1.541667 -0.200000 0.300000
v 1.250000 -0.200000 0.100000
v 1.250000 -0.200000 0.300000
v 1.250000 0.050000 0.100000
v 1.250000 0.050000 0.300000
v 1.291667 0.050000 0.100000
v 1.291667 0.050000 0.300000
v 1.291667 0.091667 0.100000
v 1.291667 0.091667 0.300000
v 1.333333 0.091667 0.100000
v 1.333333 0.091667 0.300000
v 1.333333 0.133333 0.100000
v 1.333333 0.133333 0.300000
v 1.375000 0.133333 0.100000
v 1.375000 0.133333 0.300000
v 1.375000 0.175000 0.100000
v 1.375000 0.175000 0.300000
v 1.458333 0.175000 0.100000
v 1.458333 0.175000 0.300000
v 1.458333 0.091667 0.100000
v 1.458333 0.091667 0.300000
v 1.416667 0.091667 0.100000
v 1.416667 0.091667 0.300000
v 1.416667 0.050000 0.100000
v 1.416667 0.050000 0.300000
v 1.375000 0.050000 0.100000
v 1.375000 0.050000 0.300000
v 1.375000 0.008333 0.100000
v 1.375000 0.008333 0.300000
v 1.333333 0.008333 0.100000
v 1.333333 0.008333 0.300000
v 1.333333 -0.116667 0.100000
v 1.333333 -0.116667 0.300000
vn -0.0000 -0.0000 1.0000
vn -0.0000 -0.0000 -1.0000
vn -0.7071 0.7071 -0.0000
vn 0.7071 0.7071 -0.0000
vn 0.7071 -0.7071 -0.0000
vn -0.7071 -0.7071 -0.0000
vt 0.263158 0.000000
vt 0.210526 0.000000
vt 1.000000 0.000000
vt 0.894737 0.000000
vt 0.842105 0.000000
vt 0.947368 0.000000
vt 0.315789 0.000000
vt 0.421053 0.000000
vt 0.368421 0.000000
vt 0.157895 0.000000
vt 0.105263 0.000000
vt 0.000000 0.000000
vt 0.052632 0.000000
vt 0.684211 0.000000
vt 0.631579 0.000000
vt 0.736842 0.000000
vt 0.526316 0.000000
vt 0.578947 0.000000
vt 0.789474 0.000000
vt 0.473684 0.000000
vt 0.470588 0.000000
vt 0.411765 0.000000
vt 0.647059 0.000000
vt 0.529412 0.000000
vt 0.588235 0.000000
vt 0.823529 0.000000
vt 0.294118 0.000000
vt 0.882353 0.000000
vt 0.117647 0.000000
vt 0.058824 0.000000
vt 0.941176 0.000000
vt 0.235294 0.000000
vt 0.176471 0.000000
vt 0.352941 0.000000
vt 0.705882 0.000000
vt 0.764706 0.000000
vt 0.803030 0.000000
vt 0.787879 0.000000
vt 0.772727 0.000000
vt 0.818182 0.000000
vt 0.287879 0.000000
vt 0.848485 0.000000
vt 0.833333 0.000000
vt 0.303030 0.000000
vt 0.121212 0.000000
vt 0.106061 0.000000
vt 0.136364 0.000000
vt 0.181818 0.000000
vt 0.166667 0.000000
vt 0.151515 0.000000
vt 0.060606 0.000000
vt 0.045455 0.000000
vt 0.075758 0.000000
vt 0.212121 0.000000
vt 0.227273 0.000000
vt 0.757576 0.000000
vt 0.742424 0.000000
vt 0.727273 0.000000
vt 0.409091 0.000000
vt 0.393939 0.000000
vt 0.348485 0.000000
vt 0.318182 0.000000
vt 0.333333 0.000000
vt 0.090909 0.000000
vt 0.196970 0.000000
vt 0.484848 0.000000
vt 0.651515 0.000000
vt 0.590909 0.000000
vt 0.924242 0.000000
vt 0.909091 0.000000
vt 0.893939 0.000000
vt 0.636364 0.000000
vt 0.621212 0.000000
vt 0.606061 0.000000
vt 0.575758 0.000000
vt 0.500000 0.000000
vt 0.560606 0.000000
vt 0.545455 0.000000
vt 0.939394 0.000000
vt 0.954545 0.000000
vt 0.878788 0.000000
vt 0.969697 0.000000
vt 0.666667 0.000000
vt 0.454545 0.000000
vt 0.469697 0.000000
vt 0.530303 0.000000
vt 0.515152 0.000000
vt 0.984848 0.000000
vt 0.863636 0.000000
vt 0.712121 0.000000
vt 0.696970 0.000000
vt 0.681818 0.000000
vt 0.439394 0.000000
vt 0.424242 0.000000
vt 0.378788 0.000000
vt 0.363636 0.000000
vt 0.242424 0.000000
vt 0.257576 0.000000
vt 0.272727 0.000000
vt 0.030303 0.000000
vt 0.015152 0.000000
vt 0.285714 0.000000
vt 0.238095 0.000000
vt 0.190476 0.000000
vt 0.619048 0.000000
vt 0.476190 0.000000
vt 0.380952 0.000000
vt 0.142857 0.000000
vt 0.952381 0.000000
vt 0.904762 0.000000
vt 0.047619 0.000000
vt 0.857143 0.000000
vt 0.095238 0.000000
vt 0.809524 0.000000
vt 0.761905 0.000000
vt 0.714286 0.000000
vt 0.571429 0.000000
vt 0.523810 0.000000
vt 0.428571 0.000000
vt 0.533333 0.000000
vt 0.600000 0.000000
vt 0.566667 0.000000
vt 0.266667 0.000000
vt 0.233333 0.000000
vt 0.300000 0.000000
vt 0.366667 0.000000
vt 0.433333 0.000000
vt 0.400000 0.000000
vt 0.466667 0.000000
vt 0.100000 0.000000
vt 0.033333 0.000000
vt 0.066667 0.000000
vt 0.633333 0.000000
vt 0.733333 0.000000
vt 0.700000 0.000000
vt 0.133333 0.000000
vt 0.866667 0.000000
vt 0.800000 0.000000
vt 0.766667 0.000000
vt 0.200000 0.000000
vt 0.966667 0.000000
vt 0.933333 0.000000
vt 0.900000 0.000000
vt 0.304348 0.000000
vt 0.043478 0.000000
vt 0.260870 0.000000
vt 0.217391 0.000000
vt 0.173913 0.000000
vt 0.086957 0.000000
vt 0.130435 0.000000
vt 0.608696 0.000000
vt 0.565217 0.000000
vt 0.521739 0.000000
vt 0.478261 0.000000
vt 0.434783 0.000000
vt 0.826087 0.000000
vt 0.782609 0.000000
vt 0.739130 0.000000
vt 0.695652 0.000000
vt 0.652174 0.000000
vt 0.347826 0.000000
vt 0.391304 0.000000
vt 0.956522 0.000000
vt 0.913043 0.000000
vt 0.869565 0.000000
vt 0.125000 1.000000
vt 0.000000 1.000000
vt 0.250000 1.000000
vt 0.125000 0.000000
vt 0.375000 1.000000
vt 0.250000 0.000000
vt 0.500000 1.000000
vt 0.375000 0.000000
vt 0.625000 1.000000
vt 0.750000 1.000000
vt 0.625000 0.000000
vt 0.875000 1.000000
vt 0.750000 0.000000
vt 1.000000 1.000000
vt 0.875000 0.000000
vt 0.062500 1.000000
vt 0.062500 0.000000
vt 0.187500 1.000000
vt 0.187500 0.000000
vt 0.312500 1.000000
vt 0.312500 0.000000
vt 0.437500 1.000000
vt 0.437500 0.000000
vt 0.562500 1.000000
vt 0.562500 0.000000
vt 0.687500 1.000000
vt 0.687500 0.000000
vt 0.812500 1.000000
vt 0.812500 0.000000
vt 0.937500 1.000000
vt 0.937500 0.000000
vt 0.045455 1.000000
vt 0.090909 1.000000
vt 0.136364 1.000000
vt 0.181818 1.000000
vt 0.227273 1.000000
vt 0.272727 1.000000
vt 0.318182 1.000000
vt 0.363636 1.000000
vt 0.409091 1.000000
vt 0.454545 1.000000
vt 0.545455 1.000000
vt 0.590909 1.000000
vt 0.636364 1.000000
vt 0.681818 1.000000
vt 0.727273 1.000000
vt 0.772727 1.000000
vt 0.818182 1.000000
vt 0.863636 1.000000
vt 0.909091 1.000000
vt 0.954545 1.000000
vt 0.026316 1.000000
vt 0.052632 1.000000
vt 0.026316 0.000000
vt 0.078947 1.000000
vt 0.105263 1.000000
vt 0.078947 0.000000
vt 0.131579 1.000000
vt 0.157895 1.000000
vt 0.131579 0.000000
vt 0.184211 1.000000
vt 0.210526 1.000000
vt 0.184211 0.000000
vt 0.236842 1.000000
vt 0.263158 1.000000
vt 0.236842 0.000000
vt 0.289474 1.000000
vt 0.315789 1.000000
vt 0.289474 0.000000
vt 0.342105 1.000000
vt 0.368421 1.000000
vt 0.342105 0.000000
vt 0.394737 1.000000
vt 0.421053 1.000000
vt 0.394737 0.000000
vt 0.447368 1.000000
vt 0.473684 1.000000
vt 0.447368 0.000000
vt 0.526316 1.000000
vt 0.552632 1.000000
vt 0.578947 1.000000
vt 0.552632 0.000000
vt 0.605263 1.000000
vt 0.631579 1.000000
vt 0.605263 0.000000
vt 0.657895 1.000000
vt 0.684211 1.000000
vt 0.657895 0.000000
vt 0.710526 1.000000
vt 0.736842 1.000000
vt 0.710526 0.000000
vt 0.763158 1.000000
vt 0.789474 1.000000
vt 0.763158 0.000000
vt 0.815789 1.000000
vt 0.842105 1.000000
vt 0.815789 0.000000
vt 0.868421 1.000000
vt 0.894737 1.000000
vt 0.868421 0.000000
vt 0.921053 1.000000
vt 0.947368 1.000000
vt 0.921053 0.000000
vt 0.973684 1.000000
vt 0.973684 0.000000
vt 0.100000 1.000000
vt 0.200000 1.000000
vt 0.300000 1.000000
vt 0.400000 1.000000
vt 0.600000 1.000000
vt 0.700000 1.000000
vt 0.800000 1.000000
vt 0.900000 1.000000
vt 0.083333 1.000000
vt 0.166667 1.000000
vt 0.083333 0.000000
vt 0.333333 1.000000
vt 0.416667 1.000000
vt 0.416667 0.000000
vt 0.583333 1.000000
vt 0.666667 1.000000
vt 0.583333 0.000000
vt 0.833333 1.000000
vt 0.916667 1.000000
vt 0.916667 0.000000
vt 0.055556 1.000000
vt 0.111111 1.000000
vt 0.055556 0.000000
vt 0.111111 0.000000
vt 0.222222 1.000000
vt 0.277778 1.000000
vt 0.222222 0.000000
vt 0.277778 0.000000
vt 0.388889 1.000000
vt 0.444444 1.000000
vt 0.388889 0.000000
vt 0.444444 0.000000
vt 0.555556 1.000000
vt 0.611111 1.000000
vt 0.555556 0.000000
vt 0.611111 0.000000
vt 0.722222 1.000000
vt 0.777778 1.000000
vt 0.722222 0.000000
vt 0.777778 0.000000
vt 0.888889 1.000000
vt 0.944444 1.000000
vt 0.888889 0.000000
vt 0.944444 0.000000
vt 0.050000 1.000000
vt 0.050000 0.000000
vt 0.150000 1.000000
vt 0.150000 0.000000
vt 0.350000 1.000000
vt 0.350000 0.000000
vt 0.450000 1.000000
vt 0.450000 0.000000
vt 0.550000 1.000000
vt 0.550000 0.000000
vt 0.650000 1.000000
vt 0.650000 0.000000
vt 0.850000 1.000000
vt 0.850000 0.000000
vt 0.950000 1.000000
vt 0.950000 0.000000
s 0
f 6/1/1 5/2/1 20/3/1
f 18/4/1 17/5/1 19/6/1
f 6/1/1 20/3/1 19/6/1
f 7/7/1 6/1/1 19/6/1
f 19/6/1 17/5/1 7/7/1
f 17/5/1 9/8/1 7/7/1
f 8/9/1 7/7/1 9/8/1
f 4/10/1 3/11/1 1/12/1
f 3/11/1 2/13/1 1/12/1
f 14/14/1 13/15/1 15/16/1
f 11/17/1 15/16/1 13/15/1
f 12/18/1 11/17/1 13/15/1
f 4/10/1 1/12/1 5/2/1
f 20/3/1 5/2/1 1/12/1
f 16/19/1 15/16/1 17/5/1
f 15/16/1 11/17/1 17/5/1
f 9/8/1 17/5/1 11/17/1
f 10/20/1 9/8/1 11/17/1
f 29/21/1 28/22/1 32/23/1
f 29/21/1 32/23/1 30/24/1
f 31/25/1 30/24/1 32/23/1
f 35/26/1 26/27/1 36/28/1
f 23/29/1 22/30/1 37/31/1
f 25/32/1 24/33/1 26/27/1
f 36/28/1 26/27/1 24/33/1
f 24/33/1 23/29/1 36/28/1
f 23/29/1 37/31/1 36/28/1
f 28/22/1 27/34/1 26/27/1
f 32/23/1 28/22/1 26/27/1
f 33/35/1 32/23/1 26/27/1
f 26/27/1 35/26/1 33/35/1
f 35/26/1 34/36/1 33/35/1
f 21/12/1 38/3/1 37/31/1
f 37/31/1 22/30/1 21/12/1
f 46/9/1 45/7/1 47/8/1
f 58/3/1 57/6/1 56/4/1
f 56/4/1 55/5/1 58/3/1
f 42/10/1 41/11/1 43/2/1
f 41/11/1 40/13/1 49/17/1
f 47/8/1 45/7/1 44/1/1
f 44/1/1 43/2/1 47/8/1
f 43/2/1 41/11/1 47/8/1
f 41/11/1 49/17/1 47/8/1
f 48/20/1 47/8/1 49/17/1
f 40/13/1 39/12/1 49/17/1
f 54/19/1 53/16/1 52/14/1
f 52/14/1 51/15/1 54/19/1
f 39/12/1 50/18/1 49/17/1
f 112/37/1 111/38/1 110/39/1
f 110/39/1 113/40/1 112/37/1
f 78/41/1 115/42/1 114/43/1
f 114/43/1 79/44/1 78/41/1
f 67/45/1 66/46/1 68/47/1
f 71/48/1 70/49/1 69/50/1
f 63/51/1 62/52/1 64/53/1
f 73/54/1 64/53/1 62/52/1
f 62/52/1 74/55/1 73/54/1
f 110/39/1 109/56/1 108/57/1
f 108/57/1 107/58/1 110/39/1
f 113/40/1 110/39/1 107/58/1
f 107/58/1 86/59/1 113/40/1
f 114/43/1 113/40/1 86/59/1
f 86/59/1 85/60/1 114/43/1
f 79/44/1 114/43/1 85/60/1
f 85/60/1 82/61/1 79/44/1
f 80/62/1 79/44/1 82/61/1
f 82/61/1 81/63/1 80/62/1
f 68/47/1 66/46/1 65/64/1
f 65/64/1 64/53/1 68/47/1
f 69/50/1 68/47/1 64/53/1
f 64/53/1 73/54/1 69/50/1
f 71/48/1 69/50/1 73/54/1
f 73/54/1 72/65/1 71/48/1
f 91/66/1 102/67/1 98/68/1
f 120/69/1 119/70/1 118/71/1
f 102/67/1 101/72/1 100/73/1
f 98/68/1 102/67/1 100/73/1
f 100/73/1 99/74/1 98/68/1
f 91/66/1 98/68/1 97/75/1
f 92/76/1 91/66/1 97/75/1
f 97/75/1 96/77/1 92/76/1
f 96/77/1 95/78/1 92/76/1
f 120/69/1 118/71/1 121/79/1
f 122/80/1 121/79/1 118/71/1
f 118/71/1 117/81/1 122/80/1
f 123/82/1 122/80/1 117/81/1
f 102/67/1 91/66/1 103/83/1
f 89/84/1 103/83/1 91/66/1
f 90/85/1 89/84/1 91/66/1
f 94/86/1 93/87/1 92/76/1
f 92/76/1 95/78/1 94/86/1
f 125/3/1 124/88/1 123/82/1
f 125/3/1 123/82/1 116/89/1
f 123/82/1 117/81/1 116/89/1
f 106/90/1 105/91/1 104/92/1
f 104/92/1 103/83/1 106/90/1
f 103/83/1 89/84/1 106/90/1
f 89/84/1 88/93/1 106/90/1
f 107/58/1 106/90/1 88/93/1
f 86/59/1 107/58/1 88/93/1
f 88/93/1 87/94/1 86/59/1
f 82/61/1 85/60/1 84/95/1
f 84/95/1 83/96/1 82/61/1
f 63/51/1 75/97/1 76/98/1
f 76/98/1 77/99/1 63/51/1
f 74/55/1 62/52/1 61/100/1
f 61/100/1 60/101/1 74/55/1
f 59/12/1 74/55/1 60/101/1
f 132/102/1 131/103/1 130/104/1
f 139/105/1 136/106/1 133/63/1
f 134/107/1 133/63/1 136/106/1
f 130/104/1 129/108/1 140/83/1
f 140/83/1 139/105/1 130/104/1
f 139/105/1 133/63/1 130/104/1
f 132/102/1 130/104/1 133/63/1
f 146/109/1 145/110/1 127/111/1
f 127/111/1 145/110/1 144/112/1
f 128/113/1 127/111/1 144/112/1
f 144/112/1 143/114/1 128/113/1
f 143/114/1 142/115/1 128/113/1
f 146/109/1 127/111/1 147/3/1
f 126/12/1 147/3/1 127/111/1
f 140/83/1 129/108/1 128/113/1
f 128/113/1 142/115/1 140/83/1
f 142/115/1 141/116/1 140/83/1
f 136/106/1 139/105/1 138/117/1
f 138/117/1 137/118/1 136/106/1
f 134/107/1 136/106/1 135/119/1
f 164/120/1 166/121/1 158/63/1
f 158/63/1 165/122/1 164/120/1
f 156/123/1 155/124/1 157/125/1
f 155/124/1 159/126/1 157/125/1
f 158/63/1 157/125/1 159/126/1
f 159/126/1 161/127/1 160/128/1
f 148/12/1 163/76/1 162/129/1
f 151/130/1 149/131/1 162/129/1
f 150/132/1 149/131/1 151/130/1
f 167/133/1 170/134/1 169/135/1
f 169/135/1 168/83/1 167/133/1
f 152/136/1 151/130/1 153/49/1
f 174/137/1 173/43/1 172/138/1
f 172/138/1 171/139/1 174/137/1
f 159/126/1 155/124/1 154/140/1
f 161/127/1 159/126/1 153/49/1
f 162/129/1 161/127/1 153/49/1
f 153/49/1 151/130/1 162/129/1
f 178/3/1 177/141/1 176/142/1
f 176/142/1 175/143/1 178/3/1
f 148/12/1 162/129/1 149/131/1
f 159/126/1 154/140/1 153/49/1
f 185/128/1 184/63/1 186/129/1
f 183/123/1 182/140/1 184/63/1
f 186/129/1 184/63/1 182/140/1
f 182/140/1 181/136/1 186/129/1
f 179/12/1 186/129/1 180/132/1
f 193/142/1 192/137/1 194/3/1
f 191/138/1 190/134/1 189/83/1
f 191/138/1 189/83/1 192/137/1
f 189/83/1 188/121/1 187/120/1
f 194/3/1 192/137/1 189/83/1
f 186/129/1 181/136/1 180/132/1
f 189/83/1 187/120/1 194/3/1
f 200/116/1 199/117/1 201/112/1
f 202/3/1 201/112/1 199/117/1
f 198/119/1 197/102/1 196/108/1
f 198/119/1 196/108/1 199/117/1
f 202/3/1 199/117/1 196/108/1
f 196/108/1 195/12/1 202/3/1
f 203/12/1 210/144/1 204/145/1
f 209/146/1 208/147/1 210/144/1
f 204/145/1 210/144/1 208/147/1
f 204/145/1 208/147/1 207/148/1
f 205/149/1 204/145/1 206/150/1
f 217/151/1 216/152/1 215/153/1
f 215/153/1 214/154/1 217/151/1
f 214/154/1 213/155/1 217/151/1
f 222/156/1 221/157/1 220/158/1
f 220/158/1 219/159/1 222/156/1
f 217/151/1 213/155/1 218/160/1
f 211/161/1 218/160/1 213/155/1
f 213/155/1 212/162/1 211/161/1
f 226/3/1 225/163/1 224/164/1
f 224/164/1 223/165/1 226/3/1
f 204/145/1 207/148/1 206/150/1
f 232/1/2 246/3/2 231/2/2
f 244/4/2 245/6/2 243/5/2
f 232/1/2 245/6/2 246/3/2
f 233/7/2 245/6/2 232/1/2
f 245/6/2 233/7/2 243/5/2
f 243/5/2 233/7/2 235/8/2
f 234/9/2 235/8/2 233/7/2
f 230/10/2 227/12/2 229/11/2
f 229/11/2 227/12/2 228/13/2
f 240/14/2 241/16/2 239/15/2
f 237/17/2 239/15/2 241/16/2
f 238/18/2 239/15/2 237/17/2
f 230/10/2 231/2/2 227/12/2
f 246/3/2 227/12/2 231/2/2
f 242/19/2 243/5/2 241/16/2
f 241/16/2 243/5/2 237/17/2
f 235/8/2 237/17/2 243/5/2
f 236/20/2 237/17/2 235/8/2
f 255/21/2 258/23/2 254/22/2
f 255/21/2 256/24/2 258/23/2
f 257/25/2 258/23/2 256/24/2
f 261/26/2 262/28/2 252/27/2
f 249/29/2 263/31/2 248/30/2
f 251/32/2 252/27/2 250/33/2
f 262/28/2 250/33/2 252/27/2
f 250/33/2 262/28/2 249/29/2
f 249/29/2 262/28/2 263/31/2
f 254/22/2 252/27/2 253/34/2
f 258/23/2 252/27/2 254/22/2
f 259/35/2 252/27/2 258/23/2
f 252/27/2 259/35/2 261/26/2
f 261/26/2 259/35/2 260/36/2
f 247/12/2 263/31/2 264/3/2
f 263/31/2 247/12/2 248/30/2
f 272/9/2 273/8/2 271/7/2
f 284/3/2 282/4/2 283/6/2
f 282/4/2 284/3/2 281/5/2
f 268/10/2 269/2/2 267/11/2
f 267/11/2 275/17/2 266/13/2
f 273/8/2 270/1/2 271/7/2
f 270/1/2 273/8/2 269/2/2
f 269/2/2 273/8/2 267/11/2
f 267/11/2 273/8/2 275/17/2
f 274/20/2 275/17/2 273/8/2
f 266/13/2 275/17/2 265/12/2
f 280/19/2 278/14/2 279/16/2
f 278/14/2 280/19/2 277/15/2
f 265/12/2 275/17/2 276/18/2
f 338/37/2 336/39/2 337/38/2
f 336/39/2 338/37/2 339/40/2
f 304/41/2 340/43/2 341/42/2
f 340/43/2 304/41/2 305/44/2
f 293/45/2 294/47/2 292/46/2
f 297/48/2 295/50/2 296/49/2
f 289/51/2 290/53/2 288/52/2
f 299/54/2 288/52/2 290/53/2
f 288/52/2 299/54/2 300/55/2
f 336/39/2 334/57/2 335/56/2
f 334/57/2 336/39/2 333/58/2
f 339/40/2 333/58/2 336/39/2
f 333/58/2 339/40/2 312/59/2
f 340/43/2 312/59/2 339/40/2
f 312/59/2 340/43/2 311/60/2
f 305/44/2 311/60/2 340/43/2
f 311/60/2 305/44/2 308/61/2
f 306/62/2 308/61/2 305/44/2
f 308/61/2 306/62/2 307/63/2
f 294/47/2 291/64/2 292/46/2
f 291/64/2 294/47/2 290/53/2
f 295/50/2 290/53/2 294/47/2
f 290/53/2 295/50/2 299/54/2
f 297/48/2 299/54/2 295/50/2
f 299/54/2 297/48/2 298/65/2
f 317/66/2 324/68/2 328/67/2
f 346/69/2 344/71/2 345/70/2
f 328/67/2 326/73/2 327/72/2
f 324/68/2 326/73/2 328/67/2
f 326/73/2 324/68/2 325/74/2
f 317/66/2 323/75/2 324/68/2
f 318/76/2 323/75/2 317/66/2
f 323/75/2 318/76/2 322/77/2
f 322/77/2 318/76/2 321/78/2
f 346/69/2 347/79/2 344/71/2
f 348/80/2 344/71/2 347/79/2
f 344/71/2 348/80/2 343/81/2
f 349/82/2 343/81/2 348/80/2
f 328/67/2 329/83/2 317/66/2
f 315/84/2 317/66/2 329/83/2
f 316/85/2 317/66/2 315/84/2
f 320/86/2 318/76/2 319/87/2
f 318/76/2 320/86/2 321/78/2
f 351/3/2 349/82/2 350/88/2
f 351/3/2 342/89/2 349/82/2
f 349/82/2 342/89/2 343/81/2
f 332/90/2 330/92/2 331/91/2
f 330/92/2 332/90/2 329/83/2
f 329/83/2 332/90/2 315/84/2
f 315/84/2 332/90/2 314/93/2
f 333/58/2 314/93/2 332/90/2
f 312/59/2 314/93/2 333/58/2
f 314/93/2 312/59/2 313/94/2
f 308/61/2 310/95/2 311/60/2
f 310/95/2 308/61/2 309/96/2
f 289/51/2 302/98/2 301/97/2
f 302/98/2 289/51/2 303/99/2
f 300/55/2 287/100/2 288/52/2
f 287/100/2 300/55/2 286/101/2
f 285/12/2 286/101/2 300/55/2
f 358/102/2 356/104/2 357/103/2
f 365/105/2 359/63/2 362/106/2
f 360/107/2 362/106/2 359/63/2
f 356/104/2 366/83/2 355/108/2
f 366/83/2 356/104/2 365/105/2
f 365/105/2 356/104/2 359/63/2
f 358/102/2 359/63/2 356/104/2
f 372/109/2 353/111/2 371/110/2
f 353/111/2 370/112/2 371/110/2
f 354/113/2 370/112/2 353/111/2
f 370/112/2 354/113/2 369/114/2
f 369/114/2 354/113/2 368/115/2
f 372/109/2 373/3/2 353/111/2
f 352/12/2 353/111/2 373/3/2
f 366/83/2 354/113/2 355/108/2
f 354/113/2 366/83/2 368/115/2
f 368/115/2 366/83/2 367/116/2
f 362/106/2 364/117/2 365/105/2
f 364/117/2 362/106/2 363/118/2
f 360/107/2 361/119/2 362/106/2
f 390/120/2 384/63/2 392/121/2
f 384/63/2 390/120/2 391/122/2
f 382/123/2 383/125/2 381/124/2
f 381/124/2 383/125/2 385/126/2
f 384/63/2 385/126/2 383/125/2
f 385/126/2 386/128/2 387/127/2
f 374/12/2 388/129/2 389/76/2
f 377/130/2 388/129/2 375/131/2
f 376/132/2 377/130/2 375/131/2
f 393/133/2 395/135/2 396/134/2
f 395/135/2 393/133/2 394/83/2
f 378/136/2 379/49/2 377/130/2
f 400/137/2 398/138/2 399/43/2
f 398/138/2 400/137/2 397/139/2
f 385/126/2 380/140/2 381/124/2
f 387/127/2 379/49/2 385/126/2
f 388/129/2 379/49/2 387/127/2
f 379/49/2 388/129/2 377/130/2
f 404/3/2 402/142/2 403/141/2
f 402/142/2 404/3/2 401/143/2
f 374/12/2 375/131/2 388/129/2
f 385/126/2 379/49/2 380/140/2
f 411/128/2 412/129/2 410/63/2
f 409/123/2 410/63/2 408/140/2
f 412/129/2 408/140/2 410/63/2
f 408/140/2 412/129/2 407/136/2
f 405/12/2 406/132/2 412/129/2
f 419/142/2 420/3/2 418/137/2
f 417/138/2 415/83/2 416/134/2
f 417/138/2 418/137/2 415/83/2
f 415/83/2 413/120/2 414/121/2
f 420/3/2 415/83/2 418/137/2
f 412/129/2 406/132/2 407/136/2
f 415/83/2 420/3/2 413/120/2
f 426/116/2 427/112/2 425/117/2
f 428/3/2 425/117/2 427/112/2
f 424/119/2 422/108/2 423/102/2
f 424/119/2 425/117/2 422/108/2
f 428/3/2 422/108/2 425/117/2
f 422/108/2 428/3/2 421/12/2
f 429/12/2 430/145/2 436/144/2
f 435/146/2 436/144/2 434/147/2
f 430/145/2 434/147/2 436/144/2
f 430/145/2 433/148/2 434/147/2
f 431/149/2 432/150/2 430/145/2
f 443/151/2 441/153/2 442/152/2
f 441/153/2 443/151/2 440/154/2
f 440/154/2 443/151/2 439/155/2
f 448/156/2 446/158/2 447/157/2
f 446/158/2 448/156/2 445/159/2
f 443/151/2 444/160/2 439/155/2
f 437/161/2 439/155/2 444/160/2
f 439/155/2 437/161/2 438/162/2
f 452/3/2 450/164/2 451/163/2
f 450/164/2 452/3/2 449/165/2
f 430/145/2 432/150/2 433/148/2
s 1
f 456/166/3 453/12/3 454/167/3
f 458/168/3 455/169/3 456/166/3
f 460/170/4 457/171/3 458/168/3
f 462/172/5 459/173/4 460/170/4
f 464/174/5 461/76/5 462/172/5
f 466/175/5 463/176/5 464/174/5
f 468/177/6 465/178/5 466/175/5
f 454/179/3 467/180/6 468/177/6
f 472/166/4 469/12/3 470/167/3
f 474/168/4 471/169/4 472/166/4
f 476/170/4 473/171/4 474/168/4
f 478/172/5 475/173/4 476/170/4
f 480/174/6 477/76/5 478/172/5
f 482/175/6 479/176/6 480/174/6
f 484/177/6 481/178/6 482/175/6
f 470/179/3 483/180/6 484/177/6
f 488/168/5 485/12/4 486/167/4
f 490/172/6 487/171/5 488/168/5
f 492/175/3 489/76/6 490/172/6
f 486/179/4 491/178/3 492/175/3
f 496/168/5 493/12/4 494/167/4
f 498/172/6 495/171/5 496/168/5
f 500/175/3 497/76/6 498/172/6
f 494/179/4 499/178/3 500/175/3
f 504/166/4 501/12/4 502/167/4
f 506/168/4 503/169/4 504/166/4
f 508/170/5 505/171/4 506/168/4
f 510/172/5 507/173/5 508/170/5
f 512/174/5 509/76/5 510/172/5
f 514/175/6 511/176/5 512/174/5
f 516/177/3 513/178/6 514/175/6
f 502/179/4 515/180/3 516/177/3
f 520/166/4 517/12/3 518/167/3
f 522/168/5 519/169/4 520/166/4
f 524/170/5 521/171/5 522/168/5
f 526/172/5 523/173/5 524/170/5
f 528/174/6 525/76/5 526/172/5
f 530/175/3 527/176/6 528/174/6
f 532/177/3 529/178/3 530/175/3
f 518/179/3 531/180/3 532/177/3
f 536/166/4 533/12/3 534/167/3
f 538/168/4 535/169/4 536/166/4
f 540/170/4 537/171/4 538/168/4
f 542/172/5 539/173/4 540/170/4
f 544/174/5 541/76/5 542/172/5
f 546/175/5 543/176/5 544/174/5
f 548/177/6 545/178/5 546/175/5
f 534/179/3 547/180/6 548/177/6
f 552/181/4 549/12/3 550/167/3
f 554/166/5 551/182/4 552/181/4
f 556/183/5 553/169/5 554/166/5
f 558/168/5 555/184/5 556/183/5
f 560/185/5 557/171/5 558/168/5
f 562/170/5 559/186/5 560/185/5
f 564/187/5 561/173/5 562/170/5
f 566/172/5 563/188/5 564/187/5
f 568/189/6 565/76/5 566/172/5
f 570/174/3 567/190/6 568/189/6
f 572/191/3 569/176/3 570/174/3
f 574/175/3 571/192/3 572/191/3
f 576/193/3 573/178/3 574/175/3
f 578/177/6 575/194/3 576/193/3
f 580/195/6 577/180/6 578/177/6
f 550/179/3 579/196/6 580/195/6
f 584/168/4 581/12/3 582/167/3
f 586/172/5 583/171/4 584/168/4
f 588/175/6 585/76/5 586/172/5
f 582/179/3 587/178/6 588/175/6
f 592/168/4 589/12/3 590/167/3
f 594/172/5 591/171/4 592/168/4
f 596/175/6 593/76/5 594/172/5
f 590/179/3 595/178/6 596/175/6
f 600/168/5 597/12/4 598/167/4
f 602/172/6 599/171/5 600/168/5
f 604/175/3 601/76/6 602/172/6
f 598/179/4 603/178/3 604/175/3
f 608/168/5 605/12/4 606/167/4
f 610/172/6 607/171/5 608/168/5
f 612/175/3 609/76/6 610/172/6
f 606/179/4 611/178/3 612/175/3
f 616/197/3 613/12/3 614/167/3
f 618/198/6 615/52/3 616/197/3
f 620/199/6 617/64/6 618/198/6
f 622/200/6 619/47/6 620/199/6
f 624/201/6 621/48/6 622/200/6
f 626/202/3 623/55/6 624/201/6
f 628/203/3 625/99/3 626/202/3
f 630/204/3 627/62/3 628/203/3
f 632/205/4 629/96/3 630/204/3
f 634/206/4 631/59/4 632/205/4
f 636/172/4 633/84/4 634/206/4
f 638/207/5 635/76/4 636/172/4
f 640/208/5 637/78/5 638/207/5
f 642/209/4 639/68/5 640/208/5
f 644/210/4 641/72/4 642/209/4
f 646/211/4 643/92/4 644/210/4
f 648/212/4 645/58/4 646/211/4
f 650/213/5 647/39/4 648/212/4
f 652/214/5 649/40/5 650/213/5
f 654/215/5 651/89/5 652/214/5
f 656/216/6 653/70/5 654/215/5
f 614/179/3 655/80/6 656/216/6
f 660/181/4 657/12/3 658/167/3
f 662/166/5 659/182/4 660/181/4
f 664/183/5 661/169/5 662/166/5
f 666/168/5 663/184/5 664/183/5
f 668/185/5 665/171/5 666/168/5
f 670/170/5 667/186/5 668/185/5
f 672/187/6 669/173/5 670/170/5
f 674/172/3 671/188/6 672/187/6
f 676/189/3 673/76/3 674/172/3
f 678/174/6 675/190/3 676/189/3
f 680/191/6 677/176/6 678/174/6
f 682/175/3 679/192/6 680/191/6
f 684/193/4 681/178/3 682/175/3
f 686/177/4 683/194/4 684/193/4
f 688/195/3 685/180/4 686/177/4
f 658/179/3 687/196/3 688/195/3
f 692/168/3 689/12/4 690/167/4
f 694/172/6 691/171/3 692/168/3
f 696/175/5 693/76/6 694/172/6
f 690/179/4 695/178/5 696/175/5
f 700/217/3 697/12/3 698/167/3
f 702/218/3 699/219/3 700/217/3
f 704/220/4 701/13/3 702/218/3
f 706/221/4 703/222/4 704/220/4
f 708/223/4 705/11/4 706/221/4
f 710/224/5 707/225/4 708/223/4
f 712/226/5 709/10/5 710/224/5
f 714/227/4 711/228/5 712/226/5
f 716/229/4 713/2/4 714/227/4
f 718/230/4 715/231/4 716/229/4
f 720/232/3 717/1/4 718/230/4
f 722/233/3 719/234/3 720/232/3
f 724/235/3 721/7/3 722/233/3
f 726/236/6 723/237/3 724/235/3
f 728/238/6 725/9/6 726/236/6
f 730/239/3 727/240/6 728/238/6
f 732/241/4 729/8/3 730/239/3
f 734/242/5 731/243/4 732/241/4
f 736/172/5 733/20/5 734/242/5
f 738/244/4 735/76/5 736/172/5
f 740/245/4 737/17/4 738/244/4
f 742/246/5 739/247/4 740/245/4
f 744/248/6 741/18/5 742/246/5
f 746/249/6 743/250/6 744/248/6
f 748/251/5 745/15/6 746/249/6
f 750/252/5 747/253/5 748/251/5
f 752/254/6 749/14/5 750/252/5
f 754/255/6 751/256/6 752/254/6
f 756/257/5 753/16/6 754/255/6
f 758/258/5 755/259/5 756/257/5
f 760/260/6 757/19/5 758/258/5
f 762/261/6 759/262/6 760/260/6
f 764/263/6 761/5/6 762/261/6
f 766/264/3 763/265/6 764/263/6
f 768/266/3 765/4/3 766/264/3
f 770/267/6 767/268/3 768/266/3
f 772/269/6 769/6/6 770/267/6
f 698/179/3 771/270/6 772/269/6
f 776/271/4 773/12/3 774/167/3
f 778/272/4 775/130/4 776/271/4
f 780/273/4 777/140/4 778/272/4
f 782/274/5 779/125/4 780/273/4
f 784/172/6 781/128/5 782/274/5
f 786/275/6 783/76/6 784/172/6
f 788/276/5 785/121/6 786/275/6
f 790/277/5 787/135/5 788/276/5
f 792/278/6 789/138/5 790/277/5
f 774/179/3 791/143/6 792/278/6
f 796/279/5 793/12/4 794/167/4
f 798/280/5 795/281/5 796/279/5
f 800/168/5 797/49/5 798/280/5
f 802/282/5 799/171/5 800/168/5
f 804/283/5 801/63/5 802/282/5
f 806/172/6 803/284/5 804/283/5
f 808/285/3 805/76/6 806/172/6
f 810/286/3 807/287/3 808/285/3
f 812/175/3 809/83/3 810/286/3
f 814/288/3 811/178/3 812/175/3
f 816/289/3 813/43/3 814/288/3
f 794/179/4 815/290/3 816/289/3
f 820/168/5 817/12/4 818/167/4
f 822/172/6 819/171/5 820/168/5
f 824/175/3 821/76/6 822/172/6
f 818/179/4 823/178/3 824/175/3
f 828/168/5 825/12/4 826/167/4
f 830/172/6 827/171/5 828/168/5
f 832/175/3 829/76/6 830/172/6
f 826/179/4 831/178/3 832/175/3
f 836/291/4 833/12/3 834/167/3
f 838/292/5 835/293/4 836/291/4
f 840/280/5 837/294/5 838/292/5
f 842/295/5 839/49/5 840/280/5
f 844/296/5 841/297/5 842/295/5
f 846/282/5 843/298/5 844/296/5
f 848/299/5 845/63/5 846/282/5
f 850/300/5 847/301/5 848/299/5
f 852/172/6 849/302/5 850/300/5
f 854/303/3 851/76/6 852/172/6
f 856/304/3 853/305/3 854/303/3
f 858/286/3 855/306/3 856/304/3
f 860/307/4 857/83/3 858/286/3
f 862/308/4 859/309/4 860/307/4
f 864/288/3 861/310/4 862/308/4
f 866/311/6 863/43/3 864/288/3
f 868/312/6 865/313/6 866/311/6
f 834/179/3 867/314/6 868/312/6
f 872/315/3 869/12/3 870/167/3
f 874/271/4 871/316/3 872/315/3
f 876/317/5 873/130/4 874/271/4
f 878/272/6 875/318/5 876/317/5
f 880/168/3 877/140/6 878/272/6
f 882/273/3 879/171/3 880/168/3
f 884/319/3 881/125/3 882/273/3
f 886/274/3 883/320/3 884/319/3
f 888/321/3 885/128/3 886/274/3
f 890/172/3 887/322/3 888/321/3
f 892/323/3 889/76/3 890/172/3
f 894/275/4 891/324/3 892/323/3
f 896/325/5 893/121/4 894/275/4
f 898/276/5 895/326/5 896/325/5
f 900/175/5 897/135/5 898/276/5
f 902/277/5 899/178/5 900/175/5
f 904/327/5 901/138/5 902/277/5
f 906/278/5 903/328/5 904/327/5
f 908/329/4 905/143/5 906/278/5
f 870/179/3 907/330/4 908/329/4
f 456/166/3 455/169/3 453/12/3
f 458/168/3 457/171/3 455/169/3
f 460/170/4 459/173/4 457/171/3
f 462/172/5 461/76/5 459/173/4
f 464/174/5 463/176/5 461/76/5
f 466/175/5 465/178/5 463/176/5
f 468/177/6 467/180/6 465/178/5
f 454/179/3 453/3/3 467/180/6
f 472/166/4 471/169/4 469/12/3
f 474/168/4 473/171/4 471/169/4
f 476/170/4 475/173/4 473/171/4
f 478/172/5 477/76/5 475/173/4
f 480/174/6 479/176/6 477/76/5
f 482/175/6 481/178/6 479/176/6
f 484/177/6 483/180/6 481/178/6
f 470/179/3 469/3/3 483/180/6
f 488/168/5 487/171/5 485/12/4
f 490/172/6 489/76/6 487/171/5
f 492/175/3 491/178/3 489/76/6
f 486/179/4 485/3/4 491/178/3
f 496/168/5 495/171/5 493/12/4
f 498/172/6 497/76/6 495/171/5
f 500/175/3 499/178/3 497/76/6
f 494/179/4 493/3/4 499/178/3
f 504/166/4 503/169/4 501/12/4
f 506/168/4 505/171/4 503/169/4
f 508/170/5 507/173/5 505/171/4
f 510/172/5 509/76/5 507/173/5
f 512/174/5 511/176/5 509/76/5
f 514/175/6 513/178/6 511/176/5
f 516/177/3 515/180/3 513/178/6
f 502/179/4 501/3/4 515/180/3
f 520/166/4 519/169/4 517/12/3
f 522/168/5 521/171/5 519/169/4
f 524/170/5 523/173/5 521/171/5
f 526/172/5 525/76/5 523/173/5
f 528/174/6 527/176/6 525/76/5
f 530/175/3 529/178/3 527/176/6
f 532/177/3 531/180/3 529/178/3
f 518/179/3 517/3/3 531/180/3
f 536/166/4 535/169/4 533/12/3
f 538/168/4 537/171/4 535/169/4
f 540/170/4 539/173/4 537/171/4
f 542/172/5 541/76/5 539/173/4
f 544/174/5 543/176/5 541/76/5
f 546/175/5 545/178/5 543/176/5
f 548/177/6 547/180/6 545/178/5
f 534/179/3 533/3/3 547/180/6
f 552/181/4 551/182/4 549/12/3
f 554/166/5 553/169/5 551/182/4
f 556/183/5 555/184/5 553/169/5
f 558/168/5 557/171/5 555/184/5
f 560/185/5 559/186/5 557/171/5
f 562/170/5 561/173/5 559/186/5
f 564/187/5 563/188/5 561/173/5
f 566/172/5 565/76/5 563/188/5
f 568/189/6 567/190/6 565/76/5
f 570/174/3 569/176/3 567/190/6
f 572/191/3 571/192/3 569/176/3
f 574/175/3 573/178/3 571/192/3
f 576/193/3 575/194/3 573/178/3
f 578/177/6 577/180/6 575/194/3
f 580/195/6 579/196/6 577/180/6
f 550/179/3 549/3/3 579/196/6
f 584/168/4 583/171/4 581/12/3
f 586/172/5 585/76/5 583/171/4
f 588/175/6 587/178/6 585/76/5
f 582/179/3 581/3/3 587/178/6
f 592/168/4 591/171/4 589/12/3
f 594/172/5 593/76/5 591/171/4
f 596/175/6 595/178/6 593/76/5
f 590/179/3 589/3/3 595/178/6
f 600/168/5 599/171/5 597/12/4
f 602/172/6 601/76/6 599/171/5
f 604/175/3 603/178/3 601/76/6
f 598/179/4 597/3/4 603/178/3
f 608/168/5 607/171/5 605/12/4
f 610/172/6 609/76/6 607/171/5
f 612/175/3 611/178/3 609/76/6
f 606/179/4 605/3/4 611/178/3
f 616/197/3 615/52/3 613/12/3
f 618/198/6 617/64/6 615/52/3
f 620/199/6 619/47/6 617/64/6
f 622/200/6 621/48/6 619/47/6
f 624/201/6 623/55/6 621/48/6
f 626/202/3 625/99/3 623/55/6
f 628/203/3 627/62/3 625/99/3
f 630/204/3 629/96/3 627/62/3
f 632/205/4 631/59/4 629/96/3
f 634/206/4 633/84/4 631/59/4
f 636/172/4 635/76/4 633/84/4
f 638/207/5 637/78/5 635/76/4
f 640/208/5 639/68/5 637/78/5
f 642/209/4 641/72/4 639/68/5
f 644/210/4 643/92/4 641/72/4
f 646/211/4 645/58/4 643/92/4
f 648/212/4 647/39/4 645/58/4
f 650/213/5 649/40/5 647/39/4
f 652/214/5 651/89/5 649/40/5
f 654/215/5 653/70/5 651/89/5
f 656/216/6 655/80/6 653/70/5
f 614/179/3 613/3/3 655/80/6
f 660/181/4 659/182/4 657/12/3
f 662/166/5 661/169/5 659/182/4
f 664/183/5 663/184/5 661/169/5
f 666/168/5 665/171/5 663/184/5
f 668/185/5 667/186/5 665/171/5
f 670/170/5 669/173/5 667/186/5
f 672/187/6 671/188/6 669/173/5
f 674/172/3 673/76/3 671/188/6
f 676/189/3 675/190/3 673/76/3
f 678/174/6 677/176/6 675/190/3
f 680/191/6 679/192/6 677/176/6
f 682/175/3 681/178/3 679/192/6
f 684/193/4 683/194/4 681/178/3
f 686/177/4 685/180/4 683/194/4
f 688/195/3 687/196/3 685/180/4
f 658/179/3 657/3/3 687/196/3
f 692/168/3 691/171/3 689/12/4
f 694/172/6 693/76/6 691/171/3
f 696/175/5 695/178/5 693/76/6
f 690/179/4 689/3/4 695/178/5
f 700/217/3 699/219/3 697/12/3
f 702/218/3 701/13/3 699/219/3
f 704/220/4 703/222/4 701/13/3
f 706/221/4 705/11/4 703/222/4
f 708/223/4 707/225/4 705/11/4
f 710/224/5 709/10/5 707/225/4
f 712/226/5 711/228/5 709/10/5
f 714/227/4 713/2/4 711/228/5
f 716/229/4 715/231/4 713/2/4
f 718/230/4 717/1/4 715/231/4
f 720/232/3 719/234/3 717/1/4
f 722/233/3 721/7/3 719/234/3
f 724/235/3 723/237/3 721/7/3
f 726/236/6 725/9/6 723/237/3
f 728/238/6 727/240/6 725/9/6
f 730/239/3 729/8/3 727/240/6
f 732/241/4 731/243/4 729/8/3
f 734/242/5 733/20/5 731/243/4
f 736/172/5 735/76/5 733/20/5
f 738/244/4 737/17/4 735/76/5
f 740/245/4 739/247/4 737/17/4
f 742/246/5 741/18/5 739/247/4
f 744/248/6 743/250/6 741/18/5
f 746/249/6 745/15/6 743/250/6
f 748/251/5 747/253/5 745/15/6
f 750/252/5 749/14/5 747/253/5
f 752/254/6 751/256/6 749/14/5
f 754/255/6 753/16/6 751/256/6
f 756/257/5 755/259/5 753/16/6
f 758/258/5 757/19/5 755/259/5
f 760/260/6 759/262/6 757/19/5
f 762/261/6 761/5/6 759/262/6
f 764/263/6 763/265/6 761/5/6
f 766/264/3 765/4/3 763/265/6
f 768/266/3 767/268/3 765/4/3
f 770/267/6 769/6/6 767/268/3
f 772/269/6 771/270/6 769/6/6
f 698/179/3 697/3/3 771/270/6
f 776/271/4 775/130/4 773/12/3
f 778/272/4 777/140/4 775/130/4
f 780/273/4 779/125/4 777/140/4
f 782/274/5 781/128/5 779/125/4
f 784/172/6 783/76/6 781/128/5
f 786/275/6 785/121/6 783/76/6
f 788/276/5 787/135/5 785/121/6
f 790/277/5 789/138/5 787/135/5
f 792/278/6 791/143/6 789/138/5
f 774/179/3 773/3/3 791/143/6
f 796/279/5 795/281/5 793/12/4
f 798/280/5 797/49/5 795/281/5
f 800/168/5 799/171/5 797/49/5
f 802/282/5 801/63/5 799/171/5
f 804/283/5 803/284/5 801/63/5
f 806/172/6 805/76/6 803/284/5
f 808/285/3 807/287/3 805/76/6
f 810/286/3 809/83/3 807/287/3
f 812/175/3 811/178/3 809/83/3
f 814/288/3 813/43/3 811/178/3
f 816/289/3 815/290/3 813/43/3
f 794/179/4 793/3/4 815/290/3
f 820/168/5 819/171/5 817/12/4
f 822/172/6 821/76/6 819/171/5
f 824/175/3 823/178/3 821/76/6
f 818/179/4 817/3/4 823/178/3
f 828/168/5 827/171/5 825/12/4
f 830/172/6 829/76/6 827/171/5
f 832/175/3 831/178/3 829/76/6
f 826/179/4 825/3/4 831/178/3
f 836/291/4 835/293/4 833/12/3
f 838/292/5 837/294/5 835/293/4
f 840/280/5 839/49/5 837/294/5
f 842/295/5 841/297/5 839/49/5
f 844/296/5 843/298/5 841/297/5
f 846/282/5 845/63/5 843/298/5
f 848/299/5 847/301/5 845/63/5
f 850/300/5 849/302/5 847/301/5
f 852/172/6 851/76/6 849/302/5
f 854/303/3 853/305/3 851/76/6
f 856/304/3 855/306/3 853/305/3
f 858/286/3 857/83/3 855/306/3
f 860/307/4 859/309/4 857/83/3
f 862/308/4 861/310/4 859/309/4
f 864/288/3 863/43/3 861/310/4
f 866/311/6 865/313/6 863/43/3
f 868/312/6 867/314/6 865/313/6
f 834/179/3 833/3/3 867/314/6
f 872/315/3 871/316/3 869/12/3
f 874/271/4 873/130/4 871/316/3
f 876/317/5 875/318/5 873/130/4
f 878/272/6 877/140/6 875/318/5
f 880/168/3 879/171/3 877/140/6
f 882/273/3 881/125/3 879/171/3
f 884/319/3 883/320/3 881/125/3
f 886/274/3 885/128/3 883/320/3
f 888/321/3 887/322/3 885/128/3
f 890/172/3 889/76/3 887/322/3
f 892/323/3 891/324/3 889/76/3
f 894/275/4 893/121/4 891/324/3
f 896/325/5 895/326/5 893/121/4
f 898/276/5 897/135/5 895/326/5
f 900/175/5 899/178/5 897/135/5
f 902/277/5 901/138/5 899/178/5
f 904/327/5 903/328/5 901/138/5
f 906/278/5 905/143/5 903/328/5
f 908/329/4 907/330/4 905/143/5
f 870/179/3 869/3/3 907/330/4
