# Blender 5.0.1
# www.blender.org
mtllib Logo.mtl
o テキスト
v 0.526667 0.205000 0.100000
v 0.610000 0.205000 0.100000
v 0.610000 -0.045000 0.100000
v 0.651667 -0.045000 0.100000
v 0.651667 -0.128333 0.100000
v 0.610000 -0.128333 0.100000
v 0.610000 -0.170000 0.100000
v 0.526667 -0.170000 0.100000
v 0.401667 0.205000 0.100000
v 0.485000 0.205000 0.100000
v 0.485000 -0.128333 0.100000
v 0.443333 -0.128333 0.100000
v 0.443333 -0.170000 0.100000
v 0.360000 -0.170000 0.100000
v 0.360000 -0.086667 0.100000
v 0.401667 -0.086667 0.100000
v 0.110000 0.205000 0.100000
v 0.110000 0.080000 0.100000
v 0.318333 0.080000 0.100000
v 0.318333 -0.003333 0.100000
v 0.110000 -0.003333 0.100000
v 0.110000 -0.170000 0.100000
v 0.026667 -0.170000 0.100000
v 0.026667 0.205000 0.100000
v -0.015000 0.205000 0.100000
v -0.015000 0.121667 0.100000
v -0.098333 0.121667 0.100000
v -0.098333 -0.170000 0.100000
v -0.181667 -0.170000 0.100000
v -0.181667 -0.003333 0.100000
v -0.306667 -0.003333 0.100000
v -0.306667 0.080000 0.100000
v -0.223333 0.080000 0.100000
v -0.223333 0.121667 0.100000
v -0.181667 0.121667 0.100000
v -0.181667 0.163333 0.100000
v -0.140000 0.163333 0.100000
v -0.140000 0.205000 0.100000
v -0.348333 0.205000 0.100000
v -0.348333 -0.086667 0.100000
v -0.390000 -0.086667 0.100000
v -0.390000 -0.128333 0.100000
v -0.431667 -0.128333 0.100000
v -0.431667 -0.170000 0.100000
v -0.556667 -0.170000 0.100000
v -0.556667 -0.086667 0.100000
v -0.473333 -0.086667 0.100000
v -0.473333 -0.045000 0.100000
v -0.431667 -0.045000 0.100000
v -0.431667 -0.003333 0.100000
v -0.556667 -0.003333 0.100000
v -0.556667 -0.045000 0.100000
v -0.640000 -0.045000 0.100000
v -0.640000 0.038333 0.100000
v -0.598333 0.038333 0.100000
v -0.598333 0.205000 0.100000
v -0.431667 0.080000 0.100000
v -0.431667 0.121667 0.100000
v -0.515000 0.121667 0.100000
v -0.515000 0.080000 0.100000
v 0.526667 0.205000 -0.100000
v 0.610000 0.205000 -0.100000
v 0.610000 -0.045000 -0.100000
v 0.651667 -0.045000 -0.100000
v 0.651667 -0.128333 -0.100000
v 0.610000 -0.128333 -0.100000
v 0.610000 -0.170000 -0.100000
v 0.526667 -0.170000 -0.100000
v 0.401667 0.205000 -0.100000
v 0.485000 0.205000 -0.100000
v 0.485000 -0.128333 -0.100000
v 0.443333 -0.128333 -0.100000
v 0.443333 -0.170000 -0.100000
v 0.360000 -0.170000 -0.100000
v 0.360000 -0.086667 -0.100000
v 0.401667 -0.086667 -0.100000
v 0.110000 0.205000 -0.100000
v 0.110000 0.080000 -0.100000
v 0.318333 0.080000 -0.100000
v 0.318333 -0.003333 -0.100000
v 0.110000 -0.003333 -0.100000
v 0.110000 -0.170000 -0.100000
v 0.026667 -0.170000 -0.100000
v 0.026667 0.205000 -0.100000
v -0.015000 0.205000 -0.100000
v -0.015000 0.121667 -0.100000
v -0.098333 0.121667 -0.100000
v -0.098333 -0.170000 -0.100000
v -0.181667 -0.170000 -0.100000
v -0.181667 -0.003333 -0.100000
v -0.306667 -0.003333 -0.100000
v -0.306667 0.080000 -0.100000
v -0.223333 0.080000 -0.100000
v -0.223333 0.121667 -0.100000
v -0.181667 0.121667 -0.100000
v -0.181667 0.163333 -0.100000
v -0.140000 0.163333 -0.100000
v -0.140000 0.205000 -0.100000
v -0.348333 0.205000 -0.100000
v -0.348333 -0.086667 -0.100000
v -0.390000 -0.086667 -0.100000
v -0.390000 -0.128333 -0.100000
v -0.431667 -0.128333 -0.100000
v -0.431667 -0.170000 -0.100000
v -0.556667 -0.170000 -0.100000
v -0.556667 -0.086667 -0.100000
v -0.473333 -0.086667 -0.100000
v -0.473333 -0.045000 -0.100000
v -0.431667 -0.045000 -0.100000
v -0.431667 -0.003333 -0.100000
v -0.556667 -0.003333 -0.100000
v -0.556667 -0.045000 -0.100000
v -0.640000 -0.045000 -0.100000
v -0.640000 0.038333 -0.100000
v -0.598333 0.038333 -0.100000
v -0.598333 0.205000 -0.100000
v -0.431667 0.080000 -0.100000
v -0.431667 0.121667 -0.100000
v -0.515000 0.121667 -0.100000
v -0.515000 0.080000 -0.100000
v -0.348333 0.205000 -0.100000
v -0.348333 0.205000 0.100000
v -0.348333 -0.086667 -0.100000
v -0.348333 -0.086667 0.100000
v -0.390000 -0.086667 -0.100000
v -0.390000 -0.086667 0.100000
v -0.390000 -0.128333 -0.100000
v -0.390000 -0.128333 0.100000
v -0.431667 -0.128333 -0.100000
v -0.431667 -0.128333 0.100000
v -0.431667 -0.170000 -0.100000
v -0.431667 -0.170000 0.100000
v -0.556667 -0.170000 -0.100000
v -0.556667 -0.170000 0.100000
v -0.556667 -0.086667 -0.100000
v -0.556667 -0.086667 0.100000
v -0.473333 -0.086667 -0.100000
v -0.473333 -0.086667 0.100000
v -0.473333 -0.045000 -0.100000
v -0.473333 -0.045000 0.100000
v -0.431667 -0.045000 -0.100000
v -0.431667 -0.045000 0.100000
v -0.431667 -0.003333 -0.100000
v -0.431667 -0.003333 0.100000
v -0.556667 -0.003333 -0.100000
v -0.556667 -0.003333 0.100000
v -0.556667 -0.045000 -0.100000
v -0.556667 -0.045000 0.100000
v -0.640000 -0.045000 -0.100000
v -0.640000 -0.045000 0.100000
v -0.640000 0.038333 -0.100000
v -0.640000 0.038333 0.100000
v -0.598333 0.038333 -0.100000
v -0.598333 0.038333 0.100000
v -0.598333 0.205000 -0.100000
v -0.598333 0.205000 0.100000
v -0.431667 0.080000 -0.100000
v -0.431667 0.080000 0.100000
v -0.431667 0.121667 -0.100000
v -0.431667 0.121667 0.100000
v -0.515000 0.121667 -0.100000
v -0.515000 0.121667 0.100000
v -0.515000 0.080000 -0.100000
v -0.515000 0.080000 0.100000
v -0.015000 0.205000 -0.100000
v -0.015000 0.205000 0.100000
v -0.015000 0.121667 -0.100000
v -0.015000 0.121667 0.100000
v -0.098333 0.121667 -0.100000
v -0.098333 0.121667 0.100000
v -0.098333 -0.170000 -0.100000
v -0.098333 -0.170000 0.100000
v -0.181667 -0.170000 -0.100000
v -0.181667 -0.170000 0.100000
v -0.181667 -0.003333 -0.100000
v -0.181667 -0.003333 0.100000
v -0.306667 -0.003333 -0.100000
v -0.306667 -0.003333 0.100000
v -0.306667 0.080000 -0.100000
v -0.306667 0.080000 0.100000
v -0.223333 0.080000 -0.100000
v -0.223333 0.080000 0.100000
v -0.223333 0.121667 -0.100000
v -0.223333 0.121667 0.100000
v -0.181667 0.121667 -0.100000
v -0.181667 0.121667 0.100000
v -0.181667 0.163333 -0.100000
v -0.181667 0.163333 0.100000
v -0.140000 0.163333 -0.100000
v -0.140000 0.163333 0.100000
v -0.140000 0.205000 -0.100000
v -0.140000 0.205000 0.100000
v 0.110000 0.205000 -0.100000
v 0.110000 0.205000 0.100000
v 0.110000 0.080000 -0.100000
v 0.110000 0.080000 0.100000
v 0.318333 0.080000 -0.100000
v 0.318333 0.080000 0.100000
v 0.318333 -0.003333 -0.100000
v 0.318333 -0.003333 0.100000
v 0.110000 -0.003333 -0.100000
v 0.110000 -0.003333 0.100000
v 0.110000 -0.170000 -0.100000
v 0.110000 -0.170000 0.100000
v 0.026667 -0.170000 -0.100000
v 0.026667 -0.170000 0.100000
v 0.026667 0.205000 -0.100000
v 0.026667 0.205000 0.100000
v 0.401667 0.205000 -0.100000
v 0.401667 0.205000 0.100000
v 0.485000 0.205000 -0.100000
v 0.485000 0.205000 0.100000
v 0.485000 -0.128333 -0.100000
v 0.485000 -0.128333 0.100000
v 0.443333 -0.128333 -0.100000
v 0.443333 -0.128333 0.100000
v 0.443333 -0.170000 -0.100000
v 0.443333 -0.170000 0.100000
v 0.360000 -0.170000 -0.100000
v 0.360000 -0.170000 0.100000
v 0.360000 -0.086667 -0.100000
v 0.360000 -0.086667 0.100000
v 0.401667 -0.086667 -0.100000
v 0.401667 -0.086667 0.100000
v 0.526667 0.205000 -0.100000
v 0.526667 0.205000 0.100000
v 0.610000 0.205000 -0.100000
v 0.610000 0.205000 0.100000
v 0.610000 -0.045000 -0.100000
v 0.610000 -0.045000 0.100000
v 0.651667 -0.045000 -0.100000
v 0.651667 -0.045000 0.100000
v 0.651667 -0.128333 -0.100000
v 0.651667 -0.128333 0.100000
v 0.610000 -0.128333 -0.100000
v 0.610000 -0.128333 0.100000
v 0.610000 -0.170000 -0.100000
v 0.610000 -0.170000 0.100000
v 0.526667 -0.170000 -0.100000
v 0.526667 -0.170000 0.100000
vn -0.0000 -0.0000 1.0000
vn -0.0000 -0.0000 -1.0000
vn 0.7071 -0.7071 -0.0000
vn 0.7071 0.7071 -0.0000
vn -0.7071 -0.7071 -0.0000
vn -0.7071 0.7071 -0.0000
vt 1.000000 0.000000
vt 0.600000 0.000000
vt 0.533333 0.000000
vt 0.666667 0.000000
vt 0.866667 0.000000
vt 0.933333 0.000000
vt 0.733333 0.000000
vt 0.800000 0.000000
vt 0.466667 0.000000
vt 0.066667 0.000000
vt 0.000000 0.000000
vt 0.133333 0.000000
vt 0.200000 0.000000
vt 0.333333 0.000000
vt 0.266667 0.000000
vt 0.400000 0.000000
vt 0.857143 0.000000
vt 0.142857 0.000000
vt 0.571429 0.000000
vt 0.285714 0.000000
vt 0.428571 0.000000
vt 0.714286 0.000000
vt 0.923077 0.000000
vt 0.076923 0.000000
vt 0.769231 0.000000
vt 0.846154 0.000000
vt 0.615385 0.000000
vt 0.692308 0.000000
vt 0.153846 0.000000
vt 0.230769 0.000000
vt 0.461538 0.000000
vt 0.538462 0.000000
vt 0.384615 0.000000
vt 0.307692 0.000000
vt 0.761905 0.000000
vt 0.952381 0.000000
vt 0.809524 0.000000
vt 0.904762 0.000000
vt 0.047619 0.000000
vt 0.523810 0.000000
vt 0.619048 0.000000
vt 0.476190 0.000000
vt 0.380952 0.000000
vt 0.095238 0.000000
vt 0.190476 0.000000
vt 0.238095 0.000000
vt 0.055556 1.000000
vt 0.000000 1.000000
vt 0.111111 1.000000
vt 0.055556 0.000000
vt 0.166667 1.000000
vt 0.111111 0.000000
vt 0.222222 1.000000
vt 0.166667 0.000000
vt 0.277778 1.000000
vt 0.222222 0.000000
vt 0.333333 1.000000
vt 0.277778 0.000000
vt 0.388889 1.000000
vt 0.444444 1.000000
vt 0.388889 0.000000
vt 0.500000 1.000000
vt 0.444444 0.000000
vt 0.555556 1.000000
vt 0.500000 0.000000
vt 0.611111 1.000000
vt 0.555556 0.000000
vt 0.666667 1.000000
vt 0.611111 0.000000
vt 0.722222 1.000000
vt 0.777778 1.000000
vt 0.722222 0.000000
vt 0.833333 1.000000
vt 0.777778 0.000000
vt 0.888889 1.000000
vt 0.833333 0.000000
vt 0.944444 1.000000
vt 0.888889 0.000000
vt 1.000000 1.000000
vt 0.944444 0.000000
vt 0.250000 1.000000
vt 0.250000 0.000000
vt 0.750000 1.000000
vt 0.750000 0.000000
vt 0.071429 1.000000
vt 0.142857 1.000000
vt 0.071429 0.000000
vt 0.214286 1.000000
vt 0.285714 1.000000
vt 0.214286 0.000000
vt 0.357143 1.000000
vt 0.428571 1.000000
vt 0.357143 0.000000
vt 0.571429 1.000000
vt 0.642857 1.000000
vt 0.714286 1.000000
vt 0.642857 0.000000
vt 0.785714 1.000000
vt 0.857143 1.000000
vt 0.785714 0.000000
vt 0.928571 1.000000
vt 0.928571 0.000000
vt 0.125000 1.000000
vt 0.125000 0.000000
vt 0.375000 1.000000
vt 0.375000 0.000000
vt 0.625000 1.000000
vt 0.625000 0.000000
vt 0.875000 1.000000
vt 0.875000 0.000000
s 0
f 16/1/1 10/2/1 9/3/1
f 16/1/1 11/4/1 10/2/1
f 14/5/1 16/1/1 15/6/1
f 14/5/1 12/7/1 16/1/1
f 12/7/1 11/4/1 16/1/1
f 14/5/1 13/8/1 12/7/1
f 8/9/1 2/10/1 1/11/1
f 8/9/1 3/12/1 2/10/1
f 8/9/1 4/13/1 3/12/1
f 8/9/1 6/14/1 4/13/1
f 6/14/1 5/15/1 4/13/1
f 8/9/1 7/16/1 6/14/1
f 23/17/1 17/11/1 24/1/1
f 23/17/1 18/18/1 17/11/1
f 23/17/1 21/19/1 18/18/1
f 21/19/1 19/20/1 18/18/1
f 21/19/1 20/21/1 19/20/1
f 23/17/1 22/22/1 21/19/1
f 37/23/1 25/11/1 38/1/1
f 37/23/1 26/24/1 25/11/1
f 35/25/1 37/23/1 36/26/1
f 35/25/1 26/24/1 37/23/1
f 33/27/1 35/25/1 34/28/1
f 33/27/1 27/29/1 35/25/1
f 27/29/1 26/24/1 35/25/1
f 33/27/1 28/30/1 27/29/1
f 31/31/1 33/27/1 32/32/1
f 31/31/1 30/33/1 33/27/1
f 30/33/1 28/30/1 33/27/1
f 29/34/1 28/30/1 30/33/1
f 55/35/1 59/36/1 56/37/1
f 59/36/1 39/11/1 56/37/1
f 59/36/1 58/38/1 39/11/1
f 58/38/1 40/39/1 39/11/1
f 55/35/1 60/1/1 59/36/1
f 57/17/1 40/39/1 58/38/1
f 55/35/1 57/17/1 60/1/1
f 55/35/1 50/40/1 57/17/1
f 50/40/1 40/39/1 57/17/1
f 53/4/1 55/35/1 54/22/1
f 53/4/1 51/19/1 55/35/1
f 51/19/1 50/40/1 55/35/1
f 53/4/1 52/41/1 51/19/1
f 49/42/1 40/39/1 50/40/1
f 47/43/1 49/42/1 48/21/1
f 47/43/1 40/39/1 49/42/1
f 45/20/1 47/43/1 46/14/1
f 45/20/1 41/44/1 47/43/1
f 41/44/1 40/39/1 47/43/1
f 45/20/1 43/45/1 41/44/1
f 43/45/1 42/18/1 41/44/1
f 45/20/1 44/46/1 43/45/1
f 76/1/2 69/3/2 70/2/2
f 76/1/2 70/2/2 71/4/2
f 74/5/2 75/6/2 76/1/2
f 74/5/2 76/1/2 72/7/2
f 72/7/2 76/1/2 71/4/2
f 74/5/2 72/7/2 73/8/2
f 68/9/2 61/11/2 62/10/2
f 68/9/2 62/10/2 63/12/2
f 68/9/2 63/12/2 64/13/2
f 68/9/2 64/13/2 66/14/2
f 66/14/2 64/13/2 65/15/2
f 68/9/2 66/14/2 67/16/2
f 83/17/2 84/1/2 77/11/2
f 83/17/2 77/11/2 78/18/2
f 83/17/2 78/18/2 81/19/2
f 81/19/2 78/18/2 79/20/2
f 81/19/2 79/20/2 80/21/2
f 83/17/2 81/19/2 82/22/2
f 97/23/2 98/1/2 85/11/2
f 97/23/2 85/11/2 86/24/2
f 95/25/2 96/26/2 97/23/2
f 95/25/2 97/23/2 86/24/2
f 93/27/2 94/28/2 95/25/2
f 93/27/2 95/25/2 87/29/2
f 87/29/1 95/25/1 86/24/1
f 93/27/2 87/29/2 88/30/2
f 91/31/2 92/32/2 93/27/2
f 91/31/2 93/27/2 90/33/2
f 90/33/1 93/27/1 88/30/1
f 89/34/2 90/33/2 88/30/2
f 115/35/2 116/37/2 119/36/2
f 119/36/2 116/37/2 99/11/2
f 119/36/2 99/11/2 118/38/2
f 118/38/2 99/11/2 100/39/2
f 115/35/2 119/36/2 120/1/2
f 117/17/2 118/38/2 100/39/2
f 115/35/2 120/1/2 117/17/2
f 115/35/2 117/17/2 110/40/2
f 110/40/2 117/17/2 100/39/2
f 113/4/2 114/22/2 115/35/2
f 113/4/2 115/35/2 111/19/2
f 111/19/2 115/35/2 110/40/2
f 113/4/2 111/19/2 112/41/2
f 109/42/2 110/40/2 100/39/2
f 107/43/2 108/21/2 109/42/2
f 107/43/2 109/42/2 100/39/2
f 105/20/2 106/14/2 107/43/2
f 105/20/2 107/43/2 101/44/2
f 101/44/1 107/43/1 100/39/1
f 105/20/2 101/44/2 103/45/2
f 103/45/2 101/44/2 102/18/2
f 105/20/2 103/45/2 104/46/2
s 1
f 124/47/3 121/11/4 122/48/4
f 126/49/3 123/50/3 124/47/3
f 128/51/3 125/52/3 126/49/3
f 130/53/3 127/54/3 128/51/3
f 132/55/3 129/56/3 130/53/3
f 134/57/5 131/58/3 132/55/3
f 136/59/6 133/14/5 134/57/5
f 138/60/6 135/61/6 136/59/6
f 140/62/6 137/63/6 138/60/6
f 142/64/6 139/65/6 140/62/6
f 144/66/5 141/67/6 142/64/6
f 146/68/3 143/69/5 144/66/5
f 148/70/3 145/4/3 146/68/3
f 150/71/5 147/72/3 148/70/3
f 152/73/6 149/74/5 150/71/5
f 154/75/6 151/76/6 152/73/6
f 156/77/6 153/78/6 154/75/6
f 122/79/4 155/80/6 156/77/6
f 160/81/5 157/11/6 158/48/6
f 162/62/3 159/82/5 160/81/5
f 164/83/4 161/65/3 162/62/3
f 158/79/6 163/84/4 164/83/4
f 168/85/3 165/11/4 166/48/4
f 170/86/3 167/87/3 168/85/3
f 172/88/3 169/18/3 170/86/3
f 174/89/5 171/90/3 172/88/3
f 176/91/5 173/20/5 174/89/5
f 178/92/5 175/93/5 176/91/5
f 180/62/6 177/21/5 178/92/5
f 182/94/6 179/65/6 180/62/6
f 184/95/6 181/19/6 182/94/6
f 186/96/6 183/97/6 184/95/6
f 188/98/6 185/22/6 186/96/6
f 190/99/6 187/100/6 188/98/6
f 192/101/6 189/17/6 190/99/6
f 166/79/4 191/102/6 192/101/6
f 196/103/4 193/11/4 194/48/4
f 198/81/4 195/104/4 196/103/4
f 200/105/3 197/82/4 198/81/4
f 202/62/3 199/106/3 200/105/3
f 204/107/3 201/65/3 202/62/3
f 206/83/5 203/108/3 204/107/3
f 208/109/6 205/84/5 206/83/5
f 194/79/4 207/110/6 208/109/6
f 212/103/4 209/11/6 210/48/6
f 214/81/3 211/104/4 212/103/4
f 216/105/3 213/82/3 214/81/3
f 218/62/3 215/106/3 216/105/3
f 220/107/5 217/65/3 218/62/3
f 222/83/6 219/108/5 220/107/5
f 224/109/6 221/84/6 222/83/6
f 210/79/6 223/110/6 224/109/6
f 228/103/4 225/11/6 226/48/6
f 230/81/4 227/104/4 228/103/4
f 232/105/4 229/82/4 230/81/4
f 234/62/3 231/106/4 232/105/4
f 236/107/3 233/65/3 234/62/3
f 238/83/3 235/108/3 236/107/3
f 240/109/5 237/84/3 238/83/3
f 226/79/6 239/110/5 240/109/5
f 124/47/3 123/50/3 121/11/4
f 126/49/3 125/52/3 123/50/3
f 128/51/3 127/54/3 125/52/3
f 130/53/3 129/56/3 127/54/3
f 132/55/3 131/58/3 129/56/3
f 134/57/5 133/14/5 131/58/3
f 136/59/6 135/61/6 133/14/5
f 138/60/6 137/63/6 135/61/6
f 140/62/6 139/65/6 137/63/6
f 142/64/6 141/67/6 139/65/6
f 144/66/5 143/69/5 141/67/6
f 146/68/3 145/4/3 143/69/5
f 148/70/3 147/72/3 145/4/3
f 150/71/5 149/74/5 147/72/3
f 152/73/6 151/76/6 149/74/5
f 154/75/6 153/78/6 151/76/6
f 156/77/6 155/80/6 153/78/6
f 122/79/4 121/1/4 155/80/6
f 160/81/5 159/82/5 157/11/6
f 162/62/3 161/65/3 159/82/5
f 164/83/4 163/84/4 161/65/3
f 158/79/6 157/1/6 163/84/4
f 168/85/3 167/87/3 165/11/4
f 170/86/3 169/18/3 167/87/3
f 172/88/3 171/90/3 169/18/3
f 174/89/5 173/20/5 171/90/3
f 176/91/5 175/93/5 173/20/5
f 178/92/5 177/21/5 175/93/5
f 180/62/6 179/65/6 177/21/5
f 182/94/6 181/19/6 179/65/6
f 184/95/6 183/97/6 181/19/6
f 186/96/6 185/22/6 183/97/6
f 188/98/6 187/100/6 185/22/6
f 190/99/6 189/17/6 187/100/6
f 192/101/6 191/102/6 189/17/6
f 166/79/4 165/1/4 191/102/6
f 196/103/4 195/104/4 193/11/4
f 198/81/4 197/82/4 195/104/4
f 200/105/3 199/106/3 197/82/4
f 202/62/3 201/65/3 199/106/3
f 204/107/3 203/108/3 201/65/3
f 206/83/5 205/84/5 203/108/3
f 208/109/6 207/110/6 205/84/5
f 194/79/4 193/1/4 207/110/6
f 212/103/4 211/104/4 209/11/6
f 214/81/3 213/82/3 211/104/4
f 216/105/3 215/106/3 213/82/3
f 218/62/3 217/65/3 215/106/3
f 220/107/5 219/108/5 217/65/3
f 222/83/6 221/84/6 219/108/5
f 224/109/6 223/110/6 221/84/6
f 210/79/6 209/1/6 223/110/6
f 228/103/4 227/104/4 225/11/6
f 230/81/4 229/82/4 227/104/4
f 232/105/4 231/106/4 229/82/4
f 234/62/3 233/65/3 231/106/4
f 236/107/3 235/108/3 233/65/3
f 238/83/3 237/84/3 235/108/3
f 240/109/5 239/110/5 237/84/3
f 226/79/6 225/1/6 239/110/5
