{
	"asset":{
		"generator":"Khronos glTF Blender I/O v5.1.20",
		"version":"2.0"
	},
	"scene":0,
	"scenes":[
		{
			"name":"Scene",
			"nodes":[
				0
			]
		}
	],
	"nodes":[
		{
			"mesh":0,
			"name":"\u7acb\u65b9\u4f53.006",
			"rotation":[
				0.7071068286895752,
				0,
				0,
				0.7071068286895752
			]
		}
	],
	"materials":[
		{
			"doubleSided":true,
			"name":"Material.002",
			"pbrMetallicRoughness":{
				"baseColorTexture":{
					"index":0
				},
				"metallicFactor":0,
				"roughnessFactor":0.5
			}
		},
		{
			"doubleSided":true,
			"name":"Brick.001",
			"pbrMetallicRoughness":{
				"baseColorTexture":{
					"index":1
				},
				"metallicFactor":0,
				"roughnessFactor":0.5
			}
		}
	],
	"meshes":[
		{
			"name":"\u7acb\u65b9\u4f53.014",
			"primitives":[
				{
					"attributes":{
						"POSITION":0,
						"NORMAL":1,
						"TEXCOORD_0":2
					},
					"indices":3,
					"material":0
				},
				{
					"attributes":{
						"POSITION":4,
						"NORMAL":5,
						"TEXCOORD_0":6
					},
					"indices":7,
					"material":1
				}
			]
		}
	],
	"textures":[
		{
			"sampler":0,
			"source":0
		},
		{
			"sampler":0,
			"source":1
		}
	],
	"images":[
		{
			"mimeType":"image/png",
			"name":"ColorMap",
			"uri":"ColorMap.png"
		},
		{
			"mimeType":"image/png",
			"name":"brick",
			"uri":"brick.png"
		}
	],
	"accessors":[
		{
			"bufferView":0,
			"componentType":5126,
			"count":5156,
			"max":[
				21.142410278320312,
				6.7589898109436035,
				17.555625915527344
			],
			"min":[
				-21.142410278320312,
				-3.056488037109375,
				-31.035663604736328
			],
			"type":"VEC3"
		},
		{
			"bufferView":1,
			"componentType":5126,
			"count":5156,
			"type":"VEC3"
		},
		{
			"bufferView":2,
			"componentType":5126,
			"count":5156,
			"type":"VEC2"
		},
		{
			"bufferView":3,
			"componentType":5123,
			"count":10026,
			"type":"SCALAR"
		},
		{
			"bufferView":4,
			"componentType":5126,
			"count":72,
			"max":[
				13.485750198364258,
				14.945976257324219,
				1.5274840593338013
			],
			"min":[
				-13.485750198364258,
				-0.498104989528656,
				-8.638938903808594
			],
			"type":"VEC3"
		},
		{
			"bufferView":5,
			"componentType":5126,
			"count":72,
			"type":"VEC3"
		},
		{
			"bufferView":6,
			"componentType":5126,
			"count":72,
			"type":"VEC2"
		},
		{
			"bufferView":7,
			"componentType":5123,
			"count":108,
			"type":"SCALAR"
		}
	],
	"bufferViews":[
		{
			"buffer":0,
			"byteLength":61872,
			"byteOffset":0,
			"target":34962
		},
		{
			"buffer":0,
			"byteLength":61872,
			"byteOffset":61872,
			"target":34962
		},
		{
			"buffer":0,
			"byteLength":41248,
			"byteOffset":123744,
			"target":34962
		},
		{
			"buffer":0,
			"byteLength":20052,
			"byteOffset":164992,
			"target":34963
		},
		{
			"buffer":0,
			"byteLength":864,
			"byteOffset":185044,
			"target":34962
		},
		{
			"buffer":0,
			"byteLength":864,
			"byteOffset":185908,
			"target":34962
		},
		{
			"buffer":0,
			"byteLength":576,
			"byteOffset":186772,
			"target":34962
		},
		{
			"buffer":0,
			"byteLength":216,
			"byteOffset":187348,
			"target":34963
		}
	],
	"samplers":[
		{
			"magFilter":9729,
			"minFilter":9987
		}
	],
	"buffers":[
		{
			"byteLength":187564,
			"uri":"Gate.bin"
		}
	]
}
