# Blender 4.4.1
# www.blender.org
mtllib Meter.mtl
o 立方体.002
v -0.496397 -1.803821 0.154517
v -0.496397 -1.651821 0.154517
v -0.496397 -1.803821 -0.154517
v -0.496397 -1.651821 -0.154517
v 0.496397 -1.803821 0.154517
v 0.496397 -1.651821 0.154517
v 0.496397 -1.803821 -0.154517
v 0.496397 -1.651821 -0.154517
v 0.366313 -1.764115 -0.082095
v 0.366313 1.764115 -0.082095
v 0.366313 -1.764115 0.082095
v 0.366313 1.764115 0.082095
v -0.366313 -1.764115 -0.082095
v -0.366313 1.764115 -0.082095
v -0.366313 -1.764115 0.082095
v -0.366313 1.764115 0.082095
v -0.504969 1.644583 0.157185
v -0.504969 1.799208 0.157185
v -0.504969 1.644583 -0.157185
v -0.504969 1.799208 -0.157185
v 0.504969 1.644583 0.157185
v 0.504969 1.799208 0.157185
v 0.504969 1.644583 -0.157185
v 0.504969 1.799208 -0.157185
vn -1.0000 -0.0000 -0.0000
vn -0.0000 -0.0000 -1.0000
vn 1.0000 -0.0000 -0.0000
vn -0.0000 -0.0000 1.0000
vn -0.0000 -1.0000 -0.0000
vn -0.0000 1.0000 -0.0000
vt 0.499998 0.499991
vt 0.500002 0.499991
vt 0.500002 0.499995
vt 0.499998 0.499995
vt 0.500002 0.500000
vt 0.499998 0.500000
vt 0.500002 0.500005
vt 0.499998 0.500005
vt 0.500002 0.500009
vt 0.499998 0.500009
vt 0.499993 0.500000
vt 0.499993 0.500005
vt 0.500007 0.500000
vt 0.500007 0.500005
vt 0.500000 0.498047
vt 0.500000 0.498047
vt 0.500000 0.498047
vt 0.500000 0.498047
vt 0.997104 0.000000
vt 1.000000 1.000000
vt 0.000000 1.000000
vt 0.002895 0.000000
vt 0.500000 0.498047
vt 0.500000 0.498047
vt 0.500000 0.498047
vt 0.500000 0.498047
vt 0.500000 0.498047
vt 0.500000 0.498047
vt 0.500000 0.498047
vt 0.500000 0.498047
vt 0.499984 0.499938
vt 0.500016 0.499938
vt 0.500016 0.499969
vt 0.499984 0.499969
vt 0.500016 0.500000
vt 0.499984 0.500000
vt 0.500016 0.500031
vt 0.499984 0.500031
vt 0.500016 0.500062
vt 0.499984 0.500062
vt 0.499953 0.500000
vt 0.499953 0.500031
vt 0.500047 0.500000
vt 0.500047 0.500031
s 0
usemtl Material
f 1/1/1 2/2/1 4/3/1 3/4/1
f 3/4/2 4/3/2 8/5/2 7/6/2
f 7/6/3 8/5/3 6/7/3 5/8/3
f 5/8/4 6/7/4 2/9/4 1/10/4
f 3/11/5 7/6/5 5/8/5 1/12/5
f 8/5/6 4/13/6 2/14/6 6/7/6
f 9/15/3 10/16/3 12/17/3 11/18/3
f 11/19/4 12/20/4 16/21/4 15/22/4
f 15/23/1 16/24/1 14/25/1 13/26/1
f 13/26/2 14/25/2 10/25/2 9/26/2
f 11/27/5 15/23/5 13/26/5 9/28/5
f 16/24/6 12/29/6 10/30/6 14/25/6
f 17/31/1 18/32/1 20/33/1 19/34/1
f 19/34/2 20/33/2 24/35/2 23/36/2
f 23/36/3 24/35/3 22/37/3 21/38/3
f 21/38/4 22/37/4 18/39/4 17/40/4
f 19/41/5 23/36/5 21/38/5 17/42/5
f 24/35/6 20/43/6 18/44/6 22/37/6
