# Blender 4.4.1
# www.blender.org
mtllib Meterobj.mtl
o 立方体.002
v -0.496397 -1.803821 0.154517
v -0.496397 -1.651821 0.154517
v -0.496397 -1.803821 -0.154517
v -0.496397 -1.651821 -0.154517
v 0.496397 -1.803821 0.154517
v 0.496397 -1.651821 0.154517
v 0.496397 -1.803821 -0.154517
v 0.496397 -1.651821 -0.154517
v 0.366313 -1.764115 -0.082095
v 0.366313 1.764115 -0.082095
v 0.366313 -1.764115 0.082095
v 0.366313 1.764115 0.082095
v -0.366313 -1.764115 -0.082095
v -0.366313 1.764115 -0.082095
v -0.366313 -1.764115 0.082095
v -0.366313 1.764115 0.082095
v -0.504969 1.644583 0.157185
v -0.504969 1.799208 0.157185
v -0.504969 1.644583 -0.157185
v -0.504969 1.799208 -0.157185
v 0.504969 1.644583 0.157185
v 0.504969 1.799208 0.157185
v 0.504969 1.644583 -0.157185
v 0.504969 1.799208 -0.157185
vn -1.0000 -0.0000 -0.0000
vn -0.0000 -0.0000 -1.0000
vn 1.0000 -0.0000 -0.0000
vn -0.0000 -0.0000 1.0000
vn -0.0000 -1.0000 -0.0000
vn -0.0000 1.0000 -0.0000
vt 0.884418 0.239659
vt 0.927499 0.196578
vt 0.927499 0.239659
vt 0.884418 0.067335
vt 0.927499 0.024254
vt 0.927499 0.067335
vt 0.884418 0.282740
vt 0.927499 0.282740
vt 0.884418 0.110416
vt 0.927499 0.110416
vt 0.927499 0.342977
vt 0.884418 0.299896
vt 0.927499 0.299896
vt 0.884418 0.153497
vt 0.927499 0.153497
vt 0.418075 0.000000
vt 0.440964 1.000000
vt 0.418075 1.000000
vt 0.062386 0.000000
vt 0.254561 1.000000
vt 0.062386 1.000000
vt 0.443893 0.000000
vt 0.466783 1.000000
vt 0.443893 1.000000
vt 0.386283 0.000000
vt 0.386283 1.000000
vt 0.672791 0.553227
vt 0.695680 0.521436
vt 0.695680 0.553227
vt 0.695680 0.585019
vt 0.884418 0.903223
vt 0.928243 0.859398
vt 0.928243 0.903223
vt 0.884418 0.815573
vt 0.928243 0.771748
vt 0.928243 0.815573
vt 0.884418 0.947048
vt 0.928243 0.947048
vt 0.884418 0.859398
vt 0.928243 0.727923
vt 0.884418 0.684098
vt 0.928243 0.684098
vt 0.884418 0.727923
vt 0.884418 0.196578
vt 0.884418 0.024254
vt 0.884418 0.342977
vt 0.440964 0.000000
vt 0.254561 0.000000
vt 0.466783 0.000000
vt 0.672791 0.521436
vt 0.672791 0.585019
vt 0.884418 0.771748
s 1
usemtl Material.001
f 2/1/1 3/2/1 1/3/1
f 4/4/2 7/5/2 3/6/2
f 8/7/3 5/3/3 7/8/3
f 6/9/4 1/6/4 5/10/4
f 7/11/5 1/12/5 3/13/5
f 4/2/6 6/14/6 8/15/6
f 10/16/3 11/17/3 9/18/3
f 12/19/4 15/20/4 11/21/4
f 16/22/1 13/23/1 15/24/1
f 14/25/2 9/18/2 13/26/2
f 11/27/5 13/28/5 9/29/5
f 12/30/6 14/27/6 16/29/6
f 18/31/1 19/32/1 17/33/1
f 20/34/2 23/35/2 19/36/2
f 24/37/3 21/33/3 23/38/3
f 22/39/4 17/36/4 21/32/4
f 23/40/5 17/41/5 19/42/5
f 20/35/6 22/43/6 24/40/6
f 2/1/1 4/44/1 3/2/1
f 4/4/2 8/45/2 7/5/2
f 8/7/3 6/1/3 5/3/3
f 6/9/4 2/4/4 1/6/4
f 7/11/5 5/46/5 1/12/5
f 4/2/6 2/44/6 6/14/6
f 10/16/3 12/47/3 11/17/3
f 12/19/4 16/48/4 15/20/4
f 16/22/1 14/49/1 13/23/1
f 14/25/2 10/16/2 9/18/2
f 11/27/5 15/50/5 13/28/5
f 12/30/6 10/51/6 14/27/6
f 18/31/1 20/39/1 19/32/1
f 20/34/2 24/52/2 23/35/2
f 24/37/3 22/31/3 21/33/3
f 22/39/4 18/34/4 17/36/4
f 23/40/5 21/43/5 17/41/5
f 20/35/6 18/52/6 22/43/6
