# MagicaVoxel @ Ephtracy

# group
o 

# material
mtllib Arrow.mtl
usemtl palette

# normals
vn -1 0 0
vn 1 0 0
vn 0 0 1
vn 0 0 -1
vn 0 -1 0
vn 0 1 0

# texcoords
vt 0.302734 0.5
vt 0.373047 0.5
vt 0.978516 0.5

# verts
v -0.3 0.3 -0.7
v -0.3 0.3 -0.9
v -0.3 0.7 -0.7
v -0.3 0.7 -0.9
v -0.2 0.3 -0.6
v -0.2 0.3 -0.7
v -0.2 0.3 -0.9
v -0.2 0.3 -1
v -0.2 0.4 0
v -0.2 0.4 -0.6
v -0.2 0.6 0
v -0.2 0.6 -0.6
v -0.2 0.7 -0.6
v -0.2 0.7 -0.7
v -0.2 0.7 -0.9
v -0.2 0.7 -1
v -0.1 0.3 -0.1
v -0.1 0.3 -0.4
v -0.1 0.4 0.9
v -0.1 0.4 0
v -0.1 0.4 -0.1
v -0.1 0.4 -0.4
v -0.1 0.6 0.9
v -0.1 0.6 0
v -0.1 0.6 -0.1
v -0.1 0.6 -0.4
v -0.1 0.7 -0.1
v -0.1 0.7 -0.4
v 0.1 0.3 -0.6
v 0.1 0.3 -0.7
v 0.1 0.4 -0.6
v 0.1 0.6 -0.6
v 0.1 0.7 -0.6
v 0.1 0.7 -0.7
v 0.2 0.3 -0.7
v 0.2 0.3 -0.9
v 0.2 0.7 -0.7
v 0.2 0.7 -0.9
v -0.2 0.3 -0.7
v -0.2 0.3 -0.9
v -0.2 0.7 -0.7
v -0.2 0.7 -0.9
v -0.1 0.3 -0.6
v -0.1 0.3 -0.7
v -0.1 0.4 -0.6
v -0.1 0.6 -0.6
v -0.1 0.7 -0.6
v -0.1 0.7 -0.7
v 0.1 0.3 -0.1
v 0.1 0.3 -0.4
v 0.1 0.4 0.9
v 0.1 0.4 0
v 0.1 0.4 -0.1
v 0.1 0.4 -0.4
v 0.1 0.6 0.9
v 0.1 0.6 0
v 0.1 0.6 -0.1
v 0.1 0.6 -0.4
v 0.1 0.7 -0.1
v 0.1 0.7 -0.4
v 0.2 0.3 -0.6
v 0.2 0.3 -0.7
v 0.2 0.3 -0.9
v 0.2 0.3 -1
v 0.2 0.4 0
v 0.2 0.4 -0.6
v 0.2 0.6 0
v 0.2 0.6 -0.6
v 0.2 0.7 -0.6
v 0.2 0.7 -0.7
v 0.2 0.7 -0.9
v 0.2 0.7 -1
v 0.3 0.3 -0.7
v 0.3 0.3 -0.9
v 0.3 0.7 -0.7
v 0.3 0.7 -0.9
v -0.1 0.4 0.9
v -0.1 0.6 0.9
v 0.1 0.4 0.9
v 0.1 0.6 0.9
v -0.2 0.4 0
v -0.2 0.6 0
v -0.1 0.4 0
v -0.1 0.6 0
v 0.1 0.4 0
v 0.1 0.6 0
v 0.2 0.4 0
v 0.2 0.6 0
v -0.1 0.3 -0.1
v -0.1 0.4 -0.1
v -0.1 0.6 -0.1
v -0.1 0.7 -0.1
v 0.1 0.3 -0.1
v 0.1 0.4 -0.1
v 0.1 0.6 -0.1
v 0.1 0.7 -0.1
v -0.2 0.3 -0.6
v -0.2 0.4 -0.6
v -0.2 0.6 -0.6
v -0.2 0.7 -0.6
v -0.1 0.3 -0.6
v -0.1 0.4 -0.6
v -0.1 0.6 -0.6
v -0.1 0.7 -0.6
v 0.1 0.3 -0.6
v 0.1 0.4 -0.6
v 0.1 0.6 -0.6
v 0.1 0.7 -0.6
v 0.2 0.3 -0.6
v 0.2 0.4 -0.6
v 0.2 0.6 -0.6
v 0.2 0.7 -0.6
v -0.3 0.3 -0.7
v -0.3 0.7 -0.7
v -0.2 0.3 -0.7
v -0.2 0.7 -0.7
v 0.2 0.3 -0.7
v 0.2 0.7 -0.7
v 0.3 0.3 -0.7
v 0.3 0.7 -0.7
v -0.2 0.3 -0.9
v -0.2 0.7 -0.9
v 0.2 0.3 -0.9
v 0.2 0.7 -0.9
v -0.1 0.3 -0.4
v -0.1 0.4 -0.4
v -0.1 0.6 -0.4
v -0.1 0.7 -0.4
v 0.1 0.3 -0.4
v 0.1 0.4 -0.4
v 0.1 0.6 -0.4
v 0.1 0.7 -0.4
v -0.1 0.4 -0.6
v -0.1 0.6 -0.6
v 0.1 0.4 -0.6
v 0.1 0.6 -0.6
v -0.2 0.3 -0.7
v -0.2 0.7 -0.7
v -0.1 0.3 -0.7
v -0.1 0.7 -0.7
v 0.1 0.3 -0.7
v 0.1 0.7 -0.7
v 0.2 0.3 -0.7
v 0.2 0.7 -0.7
v -0.3 0.3 -0.9
v -0.3 0.7 -0.9
v -0.2 0.3 -0.9
v -0.2 0.7 -0.9
v 0.2 0.3 -0.9
v 0.2 0.7 -0.9
v 0.3 0.3 -0.9
v 0.3 0.7 -0.9
v -0.2 0.3 -1
v -0.2 0.7 -1
v 0.2 0.3 -1
v 0.2 0.7 -1
v -0.1 0.3 -0.1
v 0.1 0.3 -0.1
v -0.1 0.3 -0.4
v 0.1 0.3 -0.4
v -0.2 0.3 -0.6
v -0.1 0.3 -0.6
v 0.1 0.3 -0.6
v 0.2 0.3 -0.6
v -0.3 0.3 -0.7
v -0.2 0.3 -0.7
v -0.1 0.3 -0.7
v 0.1 0.3 -0.7
v 0.2 0.3 -0.7
v 0.3 0.3 -0.7
v -0.3 0.3 -0.9
v -0.2 0.3 -0.9
v 0.2 0.3 -0.9
v 0.3 0.3 -0.9
v -0.2 0.3 -1
v 0.2 0.3 -1
v -0.1 0.4 0.9
v 0.1 0.4 0.9
v -0.2 0.4 0
v -0.1 0.4 0
v 0.1 0.4 0
v 0.2 0.4 0
v -0.1 0.4 -0.1
v 0.1 0.4 -0.1
v -0.1 0.4 -0.4
v 0.1 0.4 -0.4
v -0.1 0.4 -0.5
v 0.1 0.4 -0.5
v -0.2 0.4 -0.6
v -0.1 0.4 -0.6
v 0.1 0.4 -0.6
v 0.2 0.4 -0.6
v -0.1 0.6 0.9
v 0.1 0.6 0.9
v -0.2 0.6 0
v -0.1 0.6 0
v 0.1 0.6 0
v 0.2 0.6 0
v -0.1 0.6 -0.1
v 0.1 0.6 -0.1
v -0.1 0.6 -0.4
v 0.1 0.6 -0.4
v -0.1 0.6 -0.5
v 0.1 0.6 -0.5
v -0.2 0.6 -0.6
v -0.1 0.6 -0.6
v 0.1 0.6 -0.6
v 0.2 0.6 -0.6
v -0.1 0.7 -0.1
v 0.1 0.7 -0.1
v -0.1 0.7 -0.4
v 0.1 0.7 -0.4
v -0.2 0.7 -0.6
v -0.1 0.7 -0.6
v 0.1 0.7 -0.6
v 0.2 0.7 -0.6
v -0.3 0.7 -0.7
v -0.2 0.7 -0.7
v -0.1 0.7 -0.7
v 0.1 0.7 -0.7
v 0.2 0.7 -0.7
v 0.3 0.7 -0.7
v -0.3 0.7 -0.9
v -0.2 0.7 -0.9
v 0.2 0.7 -0.9
v 0.3 0.7 -0.9
v -0.2 0.7 -1
v 0.2 0.7 -1

# faces
f 3/3/1 2/3/1 1/3/1
f 4/3/1 2/3/1 3/3/1
f 10/3/1 6/3/1 5/3/1
f 11/1/1 10/1/1 9/1/1
f 12/3/1 6/3/1 10/3/1
f 12/1/1 10/1/1 11/1/1
f 13/3/1 6/3/1 12/3/1
f 14/3/1 6/3/1 13/3/1
f 15/3/1 8/3/1 7/3/1
f 16/3/1 8/3/1 15/3/1
f 21/1/1 18/1/1 17/1/1
f 22/1/1 18/1/1 21/1/1
f 23/1/1 20/1/1 19/1/1
f 24/1/1 20/1/1 23/1/1
f 27/1/1 26/1/1 25/1/1
f 28/1/1 26/1/1 27/1/1
f 31/3/1 30/3/1 29/3/1
f 32/3/1 30/3/1 31/3/1
f 33/3/1 30/3/1 32/3/1
f 34/3/1 30/3/1 33/3/1
f 37/3/1 36/3/1 35/3/1
f 38/3/1 36/3/1 37/3/1
f 39/3/2 40/3/2 41/3/2
f 41/3/2 40/3/2 42/3/2
f 43/3/2 44/3/2 45/3/2
f 45/3/2 44/3/2 46/3/2
f 46/3/2 44/3/2 47/3/2
f 47/3/2 44/3/2 48/3/2
f 49/1/2 50/1/2 53/1/2
f 53/1/2 50/1/2 54/1/2
f 51/1/2 52/1/2 55/1/2
f 55/1/2 52/1/2 56/1/2
f 57/1/2 58/1/2 59/1/2
f 59/1/2 58/1/2 60/1/2
f 61/3/2 62/3/2 66/3/2
f 65/1/2 66/1/2 67/1/2
f 66/3/2 62/3/2 68/3/2
f 67/1/2 66/1/2 68/1/2
f 68/3/2 62/3/2 69/3/2
f 69/3/2 62/3/2 70/3/2
f 63/3/2 64/3/2 71/3/2
f 71/3/2 64/3/2 72/3/2
f 73/3/2 74/3/2 75/3/2
f 75/3/2 74/3/2 76/3/2
f 79/1/3 78/1/3 77/1/3
f 80/1/3 78/1/3 79/1/3
f 83/1/3 82/1/3 81/1/3
f 84/1/3 82/1/3 83/1/3
f 87/1/3 86/1/3 85/1/3
f 88/1/3 86/1/3 87/1/3
f 93/1/3 90/1/3 89/1/3
f 94/1/3 90/1/3 93/1/3
f 95/1/3 92/1/3 91/1/3
f 96/1/3 92/1/3 95/1/3
f 101/3/3 98/3/3 97/3/3
f 102/3/3 98/3/3 101/3/3
f 103/3/3 100/3/3 99/3/3
f 104/3/3 100/3/3 103/3/3
f 109/3/3 106/3/3 105/3/3
f 110/3/3 106/3/3 109/3/3
f 111/3/3 108/3/3 107/3/3
f 112/3/3 108/3/3 111/3/3
f 115/3/3 114/3/3 113/3/3
f 116/3/3 114/3/3 115/3/3
f 119/3/3 118/3/3 117/3/3
f 120/3/3 118/3/3 119/3/3
f 123/3/3 122/3/3 121/3/3
f 124/3/3 122/3/3 123/3/3
f 125/1/4 126/1/4 129/1/4
f 129/1/4 126/1/4 130/1/4
f 127/1/4 128/1/4 131/1/4
f 131/1/4 128/1/4 132/1/4
f 133/3/4 134/3/4 135/3/4
f 135/3/4 134/3/4 136/3/4
f 137/3/4 138/3/4 139/3/4
f 139/3/4 138/3/4 140/3/4
f 141/3/4 142/3/4 143/3/4
f 143/3/4 142/3/4 144/3/4
f 145/3/4 146/3/4 147/3/4
f 147/3/4 146/3/4 148/3/4
f 149/3/4 150/3/4 151/3/4
f 151/3/4 150/3/4 152/3/4
f 153/3/4 154/3/4 155/3/4
f 155/3/4 154/3/4 156/3/4
f 159/1/5 158/1/5 157/1/5
f 160/1/5 158/1/5 159/1/5
f 166/3/5 162/3/5 161/3/5
f 167/3/5 162/3/5 166/3/5
f 168/3/5 164/3/5 163/3/5
f 169/3/5 164/3/5 168/3/5
f 171/3/5 166/3/5 165/3/5
f 172/3/5 166/3/5 171/3/5
f 173/3/5 170/3/5 169/3/5
f 174/3/5 170/3/5 173/3/5
f 175/3/5 173/3/5 172/3/5
f 176/3/5 173/3/5 175/3/5
f 180/1/5 178/1/5 177/1/5
f 181/1/5 178/1/5 180/1/5
f 183/1/5 180/1/5 179/1/5
f 183/1/5 182/1/5 181/1/5
f 183/1/5 181/1/5 180/1/5
f 184/1/5 182/1/5 183/1/5
f 185/1/5 183/1/5 179/1/5
f 186/1/5 182/1/5 184/1/5
f 187/1/5 185/1/5 179/1/5
f 187/1/5 186/1/5 185/1/5
f 188/1/5 182/1/5 186/1/5
f 188/1/5 186/1/5 187/1/5
f 189/1/5 187/1/5 179/1/5
f 190/3/5 188/3/5 187/3/5
f 190/1/5 187/1/5 189/1/5
f 191/1/5 182/1/5 188/1/5
f 191/3/5 188/3/5 190/3/5
f 192/1/5 182/1/5 191/1/5
f 193/1/6 194/1/6 196/1/6
f 196/1/6 194/1/6 197/1/6
f 195/1/6 196/1/6 199/1/6
f 197/1/6 198/1/6 199/1/6
f 196/1/6 197/1/6 199/1/6
f 199/1/6 198/1/6 200/1/6
f 195/1/6 199/1/6 201/1/6
f 200/1/6 198/1/6 202/1/6
f 195/1/6 201/1/6 203/1/6
f 201/1/6 202/1/6 203/1/6
f 202/1/6 198/1/6 204/1/6
f 203/1/6 202/1/6 204/1/6
f 195/1/6 203/1/6 205/1/6
f 203/3/6 204/3/6 206/3/6
f 205/1/6 203/1/6 206/1/6
f 204/1/6 198/1/6 207/1/6
f 206/3/6 204/3/6 207/3/6
f 207/1/6 198/1/6 208/1/6
f 209/1/6 210/1/6 211/1/6
f 211/1/6 210/1/6 212/1/6
f 213/3/6 214/3/6 218/3/6
f 218/3/6 214/3/6 219/3/6
f 215/3/6 216/3/6 220/3/6
f 220/3/6 216/3/6 221/3/6
f 217/3/6 218/3/6 223/3/6
f 223/3/6 218/3/6 224/3/6
f 221/3/6 222/3/6 225/3/6
f 225/3/6 222/3/6 226/3/6
f 224/3/6 225/3/6 227/3/6
f 227/3/6 225/3/6 228/3/6
