# Blender 5.1.0
# www.blender.org
mtllib player-1.mtl
o Untitled.002
v -0.200000 0.039130 0.236956
v -0.200000 0.039130 -0.163044
v -0.200000 0.139130 0.236956
v -0.200000 0.139130 -0.163044
v -0.100000 -0.360870 0.136957
v -0.100000 -0.360870 -0.163043
v -0.100000 -0.260870 0.136957
v -0.100000 -0.260870 -0.163043
v -0.100000 0.039130 0.136956
v -0.100000 0.039130 -0.163044
v -0.100000 0.139130 0.136956
v -0.100000 0.139130 -0.163044
v -0.100000 0.639130 0.136956
v -0.100000 0.639130 -0.163044
v 0.000000 -0.460870 0.136957
v 0.000000 -0.460870 -0.163043
v 0.000000 -0.360870 0.136957
v 0.000000 -0.360870 -0.163043
v 0.100000 -0.460870 0.136957
v 0.100000 -0.460870 -0.163043
v 0.100000 -0.260870 0.136957
v 0.100000 -0.260870 -0.163043
v 0.100000 0.039130 0.136956
v 0.100000 0.039130 -0.163044
v 0.100000 0.139130 0.136956
v 0.100000 0.139130 -0.163044
v 0.100000 0.639130 0.136956
v 0.100000 0.639130 -0.163044
v 0.200000 0.039130 0.236956
v 0.200000 0.039130 -0.163044
v 0.200000 0.139130 0.236956
v 0.200000 0.139130 -0.163044
v -0.200000 0.039130 0.236956
v -0.200000 0.139130 0.236956
v 0.200000 0.039130 0.236956
v 0.200000 0.139130 0.236956
v -0.100000 -0.360870 0.136957
v -0.100000 -0.260870 0.136957
v -0.100000 0.039130 0.136956
v -0.100000 0.139130 0.136956
v -0.100000 0.639130 0.136956
v 0.000000 -0.460870 0.136957
v 0.000000 -0.360870 0.136957
v 0.100000 -0.460870 0.136957
v 0.100000 -0.260870 0.136957
v 0.100000 0.039130 0.136956
v 0.100000 0.139130 0.136956
v 0.100000 0.639130 0.136956
v -0.200000 0.039130 -0.163044
v -0.200000 0.139130 -0.163044
v -0.100000 -0.360870 -0.163043
v -0.100000 -0.260870 -0.163043
v -0.100000 0.039130 -0.163044
v -0.100000 0.139130 -0.163044
v -0.100000 0.639130 -0.163044
v 0.000000 -0.460870 -0.163043
v 0.000000 -0.360870 -0.163043
v 0.100000 -0.460870 -0.163043
v 0.100000 -0.260870 -0.163043
v 0.100000 0.039130 -0.163044
v 0.100000 0.139130 -0.163044
v 0.100000 0.639130 -0.163044
v 0.200000 0.039130 -0.163044
v 0.200000 0.139130 -0.163044
v 0.000000 -0.460870 0.136957
v 0.100000 -0.460870 0.136957
v 0.000000 -0.460870 -0.163043
v 0.100000 -0.460870 -0.163043
v -0.100000 -0.360870 0.136957
v 0.000000 -0.360870 0.136957
v -0.100000 -0.360870 -0.163043
v 0.000000 -0.360870 -0.163043
v -0.200000 0.039130 0.236956
v 0.200000 0.039130 0.236956
v -0.100000 0.039130 0.136956
v 0.100000 0.039130 0.136956
v -0.200000 0.039130 -0.163044
v -0.100000 0.039130 -0.163044
v 0.100000 0.039130 -0.163044
v 0.200000 0.039130 -0.163044
v -0.200000 0.139130 0.236956
v 0.200000 0.139130 0.236956
v -0.100000 0.139130 0.136956
v 0.100000 0.139130 0.136956
v -0.200000 0.139130 -0.163044
v -0.100000 0.139130 -0.163044
v 0.100000 0.139130 -0.163044
v 0.200000 0.139130 -0.163044
v -0.100000 0.639130 0.136956
v 0.100000 0.639130 0.136956
v -0.100000 0.639130 -0.163044
v 0.100000 0.639130 -0.163044
vn -1.0000 -0.0000 -0.0000
vn 1.0000 -0.0000 -0.0000
vn -0.0000 -0.0000 1.0000
vn -0.0000 -0.0000 -1.0000
vn -0.0000 -1.0000 -0.0000
vn -0.0000 1.0000 -0.0000
vt 0.919922 0.500000
vt 0.236328 0.500000
vt 0.982422 0.500000
s 1
usemtl palette.002
f 3/1/1 2/1/1 1/1/1
f 4/1/1 2/1/1 3/1/1
f 7/2/1 6/2/1 5/2/1
f 8/2/1 6/2/1 7/2/1
f 9/3/1 8/3/1 7/3/1
f 10/3/1 8/3/1 9/3/1
f 13/3/1 12/3/1 11/3/1
f 14/3/1 12/3/1 13/3/1
f 17/2/1 16/2/1 15/2/1
f 18/2/1 16/2/1 17/2/1
f 19/2/2 20/2/2 21/2/2
f 21/2/2 20/2/2 22/2/2
f 21/3/2 22/3/2 23/3/2
f 23/3/2 22/3/2 24/3/2
f 25/3/2 26/3/2 27/3/2
f 27/3/2 26/3/2 28/3/2
f 29/1/2 30/1/2 31/1/2
f 31/1/2 30/1/2 32/1/2
f 35/1/3 34/1/3 33/1/3
f 36/1/3 34/1/3 35/1/3
f 43/2/3 38/2/3 37/2/3
f 44/2/3 43/2/3 42/2/3
f 45/3/3 39/3/3 38/3/3
f 45/2/3 43/2/3 44/2/3
f 45/2/3 38/2/3 43/2/3
f 46/3/3 39/3/3 45/3/3
f 47/3/3 41/3/3 40/3/3
f 48/3/3 41/3/3 47/3/3
f 49/1/4 50/1/4 53/1/4
f 53/1/4 50/1/4 54/1/4
f 51/2/4 52/2/4 57/2/4
f 56/2/4 57/2/4 58/2/4
f 52/3/4 53/3/4 59/3/4
f 58/2/4 57/2/4 59/2/4
f 57/2/4 52/2/4 59/2/4
f 53/1/4 54/1/4 60/1/4
f 59/3/4 53/3/4 60/3/4
f 54/3/4 55/3/4 61/3/4
f 60/1/4 54/1/4 61/1/4
f 61/3/4 55/3/4 62/3/4
f 60/1/4 61/1/4 63/1/4
f 63/1/4 61/1/4 64/1/4
f 67/2/5 66/2/5 65/2/5
f 68/2/5 66/2/5 67/2/5
f 71/2/5 70/2/5 69/2/5
f 72/2/5 70/2/5 71/2/5
f 75/1/5 74/1/5 73/1/5
f 76/1/5 74/1/5 75/1/5
f 77/1/5 75/1/5 73/1/5
f 78/1/5 75/1/5 77/1/5
f 79/1/5 74/1/5 76/1/5
f 80/1/5 74/1/5 79/1/5
f 81/1/6 82/1/6 83/1/6
f 83/1/6 82/1/6 84/1/6
f 81/1/6 83/1/6 85/1/6
f 85/1/6 83/1/6 86/1/6
f 84/1/6 82/1/6 87/1/6
f 87/1/6 82/1/6 88/1/6
f 89/3/6 90/3/6 91/3/6
f 91/3/6 90/3/6 92/3/6
