# Blender 5.0.1
# www.blender.org
mtllib Axe.mtl
o Untitled.001
v -1.800000 0.800000 -1.600000
v -1.800000 0.800000 -2.400000
v -1.800000 1.200000 -1.600000
v -1.800000 1.200000 -2.400000
v -1.600000 0.800000 -1.000000
v -1.600000 0.800000 -1.600000
v -1.600000 0.800000 -2.400000
v -1.600000 0.800000 -3.000000
v -1.600000 1.200000 -1.000000
v -1.600000 1.200000 -1.600000
v -1.600000 1.200000 -2.400000
v -1.600000 1.200000 -3.000000
v -1.400000 0.800000 -0.800000
v -1.400000 0.800000 -1.000000
v -1.400000 0.800000 -3.000000
v -1.400000 0.800000 -3.200000
v -1.400000 1.200000 -0.800000
v -1.400000 1.200000 -1.000000
v -1.400000 1.200000 -3.000000
v -1.400000 1.200000 -3.200000
v -1.200000 0.600000 -1.600000
v -1.200000 0.600000 -2.400000
v -1.200000 0.800000 -0.600000
v -1.200000 0.800000 -0.800000
v -1.200000 0.800000 -1.600000
v -1.200000 0.800000 -2.400000
v -1.200000 1.200000 -0.600000
v -1.200000 1.200000 -0.800000
v -1.200000 1.200000 -1.600000
v -1.200000 1.200000 -2.400000
v -1.200000 1.400000 -1.600000
v -1.200000 1.400000 -2.400000
v -1.000000 0.600000 -1.000000
v -1.000000 0.600000 -1.600000
v -1.000000 0.600000 -2.400000
v -1.000000 0.600000 -3.000000
v -1.000000 0.800000 -0.400000
v -1.000000 0.800000 -0.600000
v -1.000000 0.800000 -1.000000
v -1.000000 0.800000 -1.600000
v -1.000000 0.800000 -2.400000
v -1.000000 0.800000 -3.000000
v -1.000000 0.800000 -3.200000
v -1.000000 0.800000 -3.400000
v -1.000000 1.200000 -0.400000
v -1.000000 1.200000 -0.600000
v -1.000000 1.200000 -1.000000
v -1.000000 1.200000 -1.600000
v -1.000000 1.200000 -2.400000
v -1.000000 1.200000 -3.000000
v -1.000000 1.200000 -3.200000
v -1.000000 1.200000 -3.400000
v -1.000000 1.400000 -1.000000
v -1.000000 1.400000 -1.600000
v -1.000000 1.400000 -2.400000
v -1.000000 1.400000 -3.000000
v -0.800000 0.600000 -0.800000
v -0.800000 0.600000 -1.000000
v -0.800000 0.600000 -3.000000
v -0.800000 0.600000 -3.200000
v -0.800000 0.800000 -0.800000
v -0.800000 0.800000 -1.000000
v -0.800000 0.800000 -3.000000
v -0.800000 0.800000 -3.200000
v -0.800000 1.200000 -0.800000
v -0.800000 1.200000 -1.000000
v -0.800000 1.200000 -3.000000
v -0.800000 1.200000 -3.200000
v -0.800000 1.400000 -0.800000
v -0.800000 1.400000 -1.000000
v -0.800000 1.400000 -3.000000
v -0.800000 1.400000 -3.200000
v -0.600000 0.600000 -0.600000
v -0.600000 0.600000 -0.800000
v -0.600000 0.800000 -0.600000
v -0.600000 0.800000 -0.800000
v -0.600000 1.200000 -0.600000
v -0.600000 1.200000 -0.800000
v -0.600000 1.400000 -0.600000
v -0.600000 1.400000 -0.800000
v 0.600000 0.600000 3.200000
v 0.600000 0.600000 2.400000
v 0.600000 0.600000 0.600000
v 0.600000 0.600000 -0.200000
v 0.600000 0.600000 -1.000000
v 0.600000 0.600000 -1.800000
v 0.600000 0.600000 -2.000000
v 0.600000 0.600000 -3.000000
v 0.600000 0.600000 -3.200000
v 0.600000 0.800000 3.400000
v 0.600000 0.800000 3.200000
v 0.600000 0.800000 2.400000
v 0.600000 0.800000 0.600000
v 0.600000 0.800000 -0.200000
v 0.600000 0.800000 -1.000000
v 0.600000 0.800000 -1.800000
v 0.600000 0.800000 -2.000000
v 0.600000 0.800000 -3.000000
v 0.600000 0.800000 -3.200000
v 0.600000 0.800000 -3.400000
v 0.600000 1.200000 3.400000
v 0.600000 1.200000 3.200000
v 0.600000 1.200000 2.400000
v 0.600000 1.200000 0.600000
v 0.600000 1.200000 -0.200000
v 0.600000 1.200000 -1.000000
v 0.600000 1.200000 -1.800000
v 0.600000 1.200000 -2.000000
v 0.600000 1.200000 -3.000000
v 0.600000 1.200000 -3.200000
v 0.600000 1.200000 -3.400000
v 0.600000 1.400000 3.200000
v 0.600000 1.400000 2.400000
v 0.600000 1.400000 0.600000
v 0.600000 1.400000 -0.200000
v 0.600000 1.400000 -1.000000
v 0.600000 1.400000 -1.800000
v 0.600000 1.400000 -2.000000
v 0.600000 1.400000 -3.000000
v 0.600000 1.400000 -3.200000
v 0.800000 0.600000 3.400000
v 0.800000 0.600000 3.200000
v 0.800000 0.600000 -1.800000
v 0.800000 0.600000 -2.000000
v 0.800000 0.600000 -3.200000
v 0.800000 0.600000 -3.400000
v 0.800000 0.800000 3.600000
v 0.800000 0.800000 3.400000
v 0.800000 0.800000 3.200000
v 0.800000 0.800000 -1.800000
v 0.800000 0.800000 -2.000000
v 0.800000 0.800000 -3.200000
v 0.800000 0.800000 -3.400000
v 0.800000 0.800000 -3.600000
v 0.800000 1.200000 3.600000
v 0.800000 1.200000 3.400000
v 0.800000 1.200000 3.200000
v 0.800000 1.200000 -1.800000
v 0.800000 1.200000 -2.000000
v 0.800000 1.200000 -3.200000
v 0.800000 1.200000 -3.400000
v 0.800000 1.200000 -3.600000
v 0.800000 1.400000 3.400000
v 0.800000 1.400000 3.200000
v 0.800000 1.400000 -1.800000
v 0.800000 1.400000 -2.000000
v 0.800000 1.400000 -3.200000
v 0.800000 1.400000 -3.400000
v -0.200000 0.600000 -0.600000
v -0.200000 0.600000 -0.800000
v -0.200000 0.800000 -0.400000
v -0.200000 0.800000 -0.600000
v -0.200000 0.800000 -0.800000
v -0.200000 0.800000 -3.200000
v -0.200000 0.800000 -3.400000
v -0.200000 1.200000 -0.400000
v -0.200000 1.200000 -0.600000
v -0.200000 1.200000 -0.800000
v -0.200000 1.200000 -3.200000
v -0.200000 1.200000 -3.400000
v -0.200000 1.400000 -0.600000
v -0.200000 1.400000 -0.800000
v 0.000000 0.600000 -0.800000
v 0.000000 0.600000 -1.000000
v 0.000000 0.800000 -0.600000
v 0.000000 0.800000 -0.800000
v 0.000000 0.800000 -1.000000
v 0.000000 1.200000 -0.600000
v 0.000000 1.200000 -0.800000
v 0.000000 1.200000 -1.000000
v 0.000000 1.400000 -0.800000
v 0.000000 1.400000 -1.000000
v 0.200000 0.600000 -1.000000
v 0.200000 0.600000 -1.400000
v 0.200000 0.600000 -3.000000
v 0.200000 0.600000 -3.200000
v 0.200000 0.800000 -0.800000
v 0.200000 0.800000 -1.000000
v 0.200000 0.800000 -1.200000
v 0.200000 0.800000 -1.400000
v 0.200000 0.800000 -3.000000
v 0.200000 0.800000 -3.200000
v 0.200000 1.200000 -0.800000
v 0.200000 1.200000 -1.000000
v 0.200000 1.200000 -1.200000
v 0.200000 1.200000 -1.400000
v 0.200000 1.200000 -3.000000
v 0.200000 1.200000 -3.200000
v 0.200000 1.400000 -1.000000
v 0.200000 1.400000 -1.400000
v 0.200000 1.400000 -3.000000
v 0.200000 1.400000 -3.200000
v 0.400000 0.600000 -1.400000
v 0.400000 0.600000 -3.000000
v 0.400000 0.800000 -1.200000
v 0.400000 0.800000 -1.400000
v 0.400000 0.800000 -2.000000
v 0.400000 0.800000 -3.000000
v 0.400000 0.800000 -3.200000
v 0.400000 1.200000 -1.200000
v 0.400000 1.200000 -1.400000
v 0.400000 1.200000 -2.000000
v 0.400000 1.200000 -3.000000
v 0.400000 1.200000 -3.200000
v 0.400000 1.400000 -1.400000
v 0.400000 1.400000 -3.000000
v 1.200000 0.600000 3.400000
v 1.200000 0.600000 3.200000
v 1.200000 0.600000 -1.800000
v 1.200000 0.600000 -2.000000
v 1.200000 0.600000 -3.200000
v 1.200000 0.600000 -3.400000
v 1.200000 0.800000 3.600000
v 1.200000 0.800000 3.400000
v 1.200000 0.800000 3.200000
v 1.200000 0.800000 -1.800000
v 1.200000 0.800000 -2.000000
v 1.200000 0.800000 -3.200000
v 1.200000 0.800000 -3.400000
v 1.200000 0.800000 -3.600000
v 1.200000 1.000000 3.600000
v 1.200000 1.000000 3.400000
v 1.200000 1.000000 -3.400000
v 1.200000 1.200000 3.600000
v 1.200000 1.200000 3.400000
v 1.200000 1.200000 3.200000
v 1.200000 1.200000 -1.800000
v 1.200000 1.200000 -2.000000
v 1.200000 1.200000 -3.200000
v 1.200000 1.200000 -3.400000
v 1.200000 1.200000 -3.600000
v 1.200000 1.400000 3.400000
v 1.200000 1.400000 3.200000
v 1.200000 1.400000 -1.800000
v 1.200000 1.400000 -2.000000
v 1.200000 1.400000 -3.200000
v 1.200000 1.400000 -3.400000
v 1.400000 0.600000 3.200000
v 1.400000 0.600000 2.600000
v 1.400000 0.600000 2.200000
v 1.400000 0.600000 1.800000
v 1.400000 0.600000 -0.400000
v 1.400000 0.600000 -1.800000
v 1.400000 0.600000 -2.000000
v 1.400000 0.600000 -2.200000
v 1.400000 0.600000 -2.800000
v 1.400000 0.600000 -3.000000
v 1.400000 0.600000 -3.200000
v 1.400000 0.800000 3.400000
v 1.400000 0.800000 3.200000
v 1.400000 0.800000 2.600000
v 1.400000 0.800000 2.200000
v 1.400000 0.800000 1.800000
v 1.400000 0.800000 -0.400000
v 1.400000 0.800000 -1.800000
v 1.400000 0.800000 -2.000000
v 1.400000 0.800000 -2.200000
v 1.400000 0.800000 -2.800000
v 1.400000 0.800000 -3.000000
v 1.400000 0.800000 -3.200000
v 1.400000 0.800000 -3.400000
v 1.400000 1.000000 -3.200000
v 1.400000 1.000000 -3.400000
v 1.400000 1.200000 3.400000
v 1.400000 1.200000 3.200000
v 1.400000 1.200000 2.600000
v 1.400000 1.200000 2.200000
v 1.400000 1.200000 1.800000
v 1.400000 1.200000 -0.400000
v 1.400000 1.200000 -1.200000
v 1.400000 1.200000 -1.600000
v 1.400000 1.200000 -1.800000
v 1.400000 1.200000 -2.000000
v 1.400000 1.200000 -2.200000
v 1.400000 1.200000 -2.800000
v 1.400000 1.200000 -3.000000
v 1.400000 1.200000 -3.200000
v 1.400000 1.200000 -3.400000
v 1.400000 1.400000 3.200000
v 1.400000 1.400000 2.600000
v 1.400000 1.400000 2.200000
v 1.400000 1.400000 1.800000
v 1.400000 1.400000 -0.400000
v 1.400000 1.400000 -1.200000
v 1.400000 1.400000 -1.600000
v 1.400000 1.400000 -1.800000
v 1.400000 1.400000 -2.000000
v 1.400000 1.400000 -2.200000
v 1.400000 1.400000 -2.800000
v 1.400000 1.400000 -3.000000
v 1.400000 1.400000 -3.200000
v 1.600000 0.600000 -2.200000
v 1.600000 0.600000 -2.800000
v 1.600000 0.800000 -2.000000
v 1.600000 0.800000 -2.200000
v 1.600000 0.800000 -2.800000
v 1.600000 0.800000 -3.000000
v 1.600000 1.200000 -2.000000
v 1.600000 1.200000 -2.200000
v 1.600000 1.200000 -2.800000
v 1.600000 1.200000 -3.000000
v 1.600000 1.400000 -2.200000
v 1.600000 1.400000 -2.800000
v 0.800000 0.800000 3.600000
v 0.800000 1.200000 3.600000
v 1.000000 1.000000 3.600000
v 1.000000 1.200000 3.600000
v 1.200000 0.800000 3.600000
v 1.200000 1.000000 3.600000
v 1.200000 1.200000 3.600000
v 0.600000 0.800000 3.400000
v 0.600000 1.200000 3.400000
v 0.800000 0.600000 3.400000
v 0.800000 0.800000 3.400000
v 0.800000 1.200000 3.400000
v 0.800000 1.400000 3.400000
v 1.000000 1.200000 3.400000
v 1.200000 0.600000 3.400000
v 1.200000 0.800000 3.400000
v 1.200000 1.000000 3.400000
v 1.200000 1.200000 3.400000
v 1.200000 1.400000 3.400000
v 1.400000 0.800000 3.400000
v 1.400000 1.200000 3.400000
v 0.600000 0.600000 3.200000
v 0.600000 0.800000 3.200000
v 0.600000 1.200000 3.200000
v 0.600000 1.400000 3.200000
v 0.800000 0.600000 3.200000
v 0.800000 0.800000 3.200000
v 0.800000 1.200000 3.200000
v 0.800000 1.400000 3.200000
v 1.200000 0.600000 3.200000
v 1.200000 0.800000 3.200000
v 1.200000 1.200000 3.200000
v 1.200000 1.400000 3.200000
v 1.400000 0.600000 3.200000
v 1.400000 0.800000 3.200000
v 1.400000 1.200000 3.200000
v 1.400000 1.400000 3.200000
v -1.000000 0.800000 -0.400000
v -1.000000 1.200000 -0.400000
v -0.600000 0.800000 -0.400000
v -0.600000 1.200000 -0.400000
v -0.200000 0.800000 -0.400000
v -0.200000 1.200000 -0.400000
v -1.200000 0.800000 -0.600000
v -1.200000 1.200000 -0.600000
v -1.000000 0.800000 -0.600000
v -1.000000 1.200000 -0.600000
v -0.600000 0.600000 -0.600000
v -0.600000 0.800000 -0.600000
v -0.600000 1.200000 -0.600000
v -0.600000 1.400000 -0.600000
v -0.200000 0.600000 -0.600000
v -0.200000 0.800000 -0.600000
v -0.200000 1.200000 -0.600000
v -0.200000 1.400000 -0.600000
v 0.000000 0.800000 -0.600000
v 0.000000 1.200000 -0.600000
v -1.400000 0.800000 -0.800000
v -1.400000 1.200000 -0.800000
v -1.200000 0.800000 -0.800000
v -1.200000 1.200000 -0.800000
v -0.800000 0.600000 -0.800000
v -0.800000 0.800000 -0.800000
v -0.800000 1.200000 -0.800000
v -0.800000 1.400000 -0.800000
v -0.600000 0.600000 -0.800000
v -0.600000 0.800000 -0.800000
v -0.600000 1.200000 -0.800000
v -0.600000 1.400000 -0.800000
v -0.200000 0.600000 -0.800000
v -0.200000 0.800000 -0.800000
v -0.200000 1.200000 -0.800000
v -0.200000 1.400000 -0.800000
v 0.000000 0.600000 -0.800000
v 0.000000 0.800000 -0.800000
v 0.000000 1.200000 -0.800000
v 0.000000 1.400000 -0.800000
v 0.200000 0.800000 -0.800000
v 0.200000 1.200000 -0.800000
v -1.600000 0.800000 -1.000000
v -1.600000 1.200000 -1.000000
v -1.400000 0.800000 -1.000000
v -1.400000 1.200000 -1.000000
v -1.000000 0.600000 -1.000000
v -1.000000 0.800000 -1.000000
v -1.000000 1.200000 -1.000000
v -1.000000 1.400000 -1.000000
v -0.800000 0.600000 -1.000000
v -0.800000 0.800000 -1.000000
v -0.800000 1.200000 -1.000000
v -0.800000 1.400000 -1.000000
v 0.000000 0.600000 -1.000000
v 0.000000 0.800000 -1.000000
v 0.000000 1.200000 -1.000000
v 0.000000 1.400000 -1.000000
v 0.200000 0.600000 -1.000000
v 0.200000 0.800000 -1.000000
v 0.200000 1.200000 -1.000000
v 0.200000 1.400000 -1.000000
v 0.200000 0.800000 -1.200000
v 0.200000 1.200000 -1.200000
v 0.400000 0.800000 -1.200000
v 0.400000 1.200000 -1.200000
v 0.200000 0.600000 -1.400000
v 0.200000 0.800000 -1.400000
v 0.200000 1.200000 -1.400000
v 0.200000 1.400000 -1.400000
v 0.400000 0.600000 -1.400000
v 0.400000 0.800000 -1.400000
v 0.400000 1.200000 -1.400000
v 0.400000 1.400000 -1.400000
v -1.800000 0.800000 -1.600000
v -1.800000 1.200000 -1.600000
v -1.600000 0.800000 -1.600000
v -1.600000 1.200000 -1.600000
v -1.200000 0.600000 -1.600000
v -1.200000 0.800000 -1.600000
v -1.200000 1.200000 -1.600000
v -1.200000 1.400000 -1.600000
v -1.000000 0.600000 -1.600000
v -1.000000 0.800000 -1.600000
v -1.000000 1.200000 -1.600000
v -1.000000 1.400000 -1.600000
v 0.400000 0.800000 -2.000000
v 0.400000 1.200000 -2.000000
v 0.600000 0.600000 -2.000000
v 0.600000 0.800000 -2.000000
v 0.600000 1.200000 -2.000000
v 0.600000 1.400000 -2.000000
v 0.800000 0.600000 -2.000000
v 0.800000 0.800000 -2.000000
v 0.800000 1.200000 -2.000000
v 0.800000 1.400000 -2.000000
v 1.200000 0.600000 -2.000000
v 1.200000 0.800000 -2.000000
v 1.200000 1.200000 -2.000000
v 1.200000 1.400000 -2.000000
v 1.400000 0.600000 -2.000000
v 1.400000 0.800000 -2.000000
v 1.400000 1.200000 -2.000000
v 1.400000 1.400000 -2.000000
v 1.600000 0.800000 -2.000000
v 1.600000 1.200000 -2.000000
v 1.400000 0.600000 -2.200000
v 1.400000 0.800000 -2.200000
v 1.400000 1.200000 -2.200000
v 1.400000 1.400000 -2.200000
v 1.600000 0.600000 -2.200000
v 1.600000 0.800000 -2.200000
v 1.600000 1.200000 -2.200000
v 1.600000 1.400000 -2.200000
v 0.600000 0.600000 -1.800000
v 0.600000 0.800000 -1.800000
v 0.600000 1.200000 -1.800000
v 0.600000 1.400000 -1.800000
v 0.800000 0.600000 -1.800000
v 0.800000 0.800000 -1.800000
v 0.800000 1.200000 -1.800000
v 0.800000 1.400000 -1.800000
v 1.200000 0.600000 -1.800000
v 1.200000 0.800000 -1.800000
v 1.200000 1.200000 -1.800000
v 1.200000 1.400000 -1.800000
v 1.400000 0.600000 -1.800000
v 1.400000 0.800000 -1.800000
v 1.400000 1.200000 -1.800000
v 1.400000 1.400000 -1.800000
v -1.800000 0.800000 -2.400000
v -1.800000 1.200000 -2.400000
v -1.600000 0.800000 -2.400000
v -1.600000 1.200000 -2.400000
v -1.200000 0.600000 -2.400000
v -1.200000 0.800000 -2.400000
v -1.200000 1.200000 -2.400000
v -1.200000 1.400000 -2.400000
v -1.000000 0.600000 -2.400000
v -1.000000 0.800000 -2.400000
v -1.000000 1.200000 -2.400000
v -1.000000 1.400000 -2.400000
v 1.400000 0.600000 -2.800000
v 1.400000 0.800000 -2.800000
v 1.400000 1.200000 -2.800000
v 1.400000 1.400000 -2.800000
v 1.600000 0.600000 -2.800000
v 1.600000 0.800000 -2.800000
v 1.600000 1.200000 -2.800000
v 1.600000 1.400000 -2.800000
v -1.600000 0.800000 -3.000000
v -1.600000 1.200000 -3.000000
v -1.400000 0.800000 -3.000000
v -1.400000 1.200000 -3.000000
v -1.000000 0.600000 -3.000000
v -1.000000 0.800000 -3.000000
v -1.000000 1.200000 -3.000000
v -1.000000 1.400000 -3.000000
v -0.800000 0.600000 -3.000000
v -0.800000 0.800000 -3.000000
v -0.800000 1.200000 -3.000000
v -0.800000 1.400000 -3.000000
v 0.200000 0.600000 -3.000000
v 0.200000 0.800000 -3.000000
v 0.200000 1.200000 -3.000000
v 0.200000 1.400000 -3.000000
v 0.400000 0.600000 -3.000000
v 0.400000 0.800000 -3.000000
v 0.400000 1.200000 -3.000000
v 0.400000 1.400000 -3.000000
v 0.600000 0.800000 -3.000000
v 0.600000 1.200000 -3.000000
v 1.400000 0.800000 -3.000000
v 1.400000 1.200000 -3.000000
v 1.600000 0.800000 -3.000000
v 1.600000 1.200000 -3.000000
v -1.400000 0.800000 -3.200000
v -1.400000 1.200000 -3.200000
v -1.000000 0.800000 -3.200000
v -1.000000 1.200000 -3.200000
v -0.800000 0.600000 -3.200000
v -0.800000 0.800000 -3.200000
v -0.800000 1.200000 -3.200000
v -0.800000 1.400000 -3.200000
v -0.600000 0.800000 -3.200000
v -0.600000 1.200000 -3.200000
v -0.200000 0.800000 -3.200000
v -0.200000 1.200000 -3.200000
v 0.200000 0.600000 -3.200000
v 0.200000 0.800000 -3.200000
v 0.200000 1.200000 -3.200000
v 0.200000 1.400000 -3.200000
v 0.400000 0.800000 -3.200000
v 0.400000 1.200000 -3.200000
v 0.600000 0.600000 -3.200000
v 0.600000 0.800000 -3.200000
v 0.600000 1.200000 -3.200000
v 0.600000 1.400000 -3.200000
v 0.800000 0.600000 -3.200000
v 0.800000 0.800000 -3.200000
v 0.800000 1.200000 -3.200000
v 0.800000 1.400000 -3.200000
v 1.200000 0.600000 -3.200000
v 1.200000 0.800000 -3.200000
v 1.200000 1.200000 -3.200000
v 1.200000 1.400000 -3.200000
v 1.400000 0.600000 -3.200000
v 1.400000 0.800000 -3.200000
v 1.400000 1.200000 -3.200000
v 1.400000 1.400000 -3.200000
v -1.000000 0.800000 -3.400000
v -1.000000 1.200000 -3.400000
v -0.600000 0.800000 -3.400000
v -0.600000 1.200000 -3.400000
v -0.200000 0.800000 -3.400000
v -0.200000 1.200000 -3.400000
v 0.600000 0.800000 -3.400000
v 0.600000 1.200000 -3.400000
v 0.800000 0.600000 -3.400000
v 0.800000 0.800000 -3.400000
v 0.800000 1.200000 -3.400000
v 0.800000 1.400000 -3.400000
v 1.000000 1.200000 -3.400000
v 1.000000 1.400000 -3.400000
v 1.200000 0.600000 -3.400000
v 1.200000 0.800000 -3.400000
v 1.200000 1.000000 -3.400000
v 1.200000 1.200000 -3.400000
v 1.200000 1.400000 -3.400000
v 1.400000 0.800000 -3.400000
v 1.400000 1.000000 -3.400000
v 1.400000 1.200000 -3.400000
v 0.800000 0.800000 -3.600000
v 0.800000 1.200000 -3.600000
v 1.200000 0.800000 -3.600000
v 1.200000 1.200000 -3.600000
v 0.800000 0.600000 3.400000
v 1.200000 0.600000 3.400000
v 0.600000 0.600000 3.200000
v 0.800000 0.600000 3.200000
v 1.200000 0.600000 3.200000
v 1.400000 0.600000 3.200000
v 1.200000 0.600000 2.600000
v 1.400000 0.600000 2.600000
v 0.600000 0.600000 2.400000
v 0.800000 0.600000 2.400000
v 1.200000 0.600000 2.200000
v 1.400000 0.600000 2.200000
v 1.200000 0.600000 1.800000
v 1.400000 0.600000 1.800000
v 0.600000 0.600000 0.600000
v 0.800000 0.600000 0.600000
v 0.600000 0.600000 -0.200000
v 0.800000 0.600000 -0.200000
v 1.200000 0.600000 -0.400000
v 1.400000 0.600000 -0.400000
v -0.600000 0.600000 -0.600000
v -0.200000 0.600000 -0.600000
v -0.800000 0.600000 -0.800000
v -0.600000 0.600000 -0.800000
v -0.200000 0.600000 -0.800000
v 0.000000 0.600000 -0.800000
v -1.000000 0.600000 -1.000000
v -0.800000 0.600000 -1.000000
v 0.000000 0.600000 -1.000000
v 0.200000 0.600000 -1.000000
v 0.600000 0.600000 -1.000000
v 0.800000 0.600000 -1.000000
v 0.200000 0.600000 -1.400000
v 0.400000 0.600000 -1.400000
v -1.200000 0.600000 -1.600000
v -1.000000 0.600000 -1.600000
v 0.600000 0.600000 -1.800000
v 0.800000 0.600000 -1.800000
v 1.200000 0.600000 -1.800000
v 1.400000 0.600000 -1.800000
v 0.600000 0.600000 -2.000000
v 0.800000 0.600000 -2.000000
v 1.200000 0.600000 -2.000000
v 1.400000 0.600000 -2.000000
v 1.400000 0.600000 -2.200000
v 1.600000 0.600000 -2.200000
v -1.200000 0.600000 -2.400000
v -1.000000 0.600000 -2.400000
v 1.400000 0.600000 -2.800000
v 1.600000 0.600000 -2.800000
v -1.000000 0.600000 -3.000000
v -0.800000 0.600000 -3.000000
v 0.200000 0.600000 -3.000000
v 0.400000 0.600000 -3.000000
v 0.600000 0.600000 -3.000000
v 0.800000 0.600000 -3.000000
v 1.200000 0.600000 -3.000000
v 1.400000 0.600000 -3.000000
v -0.800000 0.600000 -3.200000
v 0.200000 0.600000 -3.200000
v 0.600000 0.600000 -3.200000
v 0.800000 0.600000 -3.200000
v 1.200000 0.600000 -3.200000
v 1.400000 0.600000 -3.200000
v 0.800000 0.600000 -3.400000
v 1.200000 0.600000 -3.400000
v 0.800000 0.800000 3.600000
v 1.200000 0.800000 3.600000
v 0.600000 0.800000 3.400000
v 0.800000 0.800000 3.400000
v 1.200000 0.800000 3.400000
v 1.400000 0.800000 3.400000
v 0.600000 0.800000 3.200000
v 0.800000 0.800000 3.200000
v 1.200000 0.800000 3.200000
v 1.400000 0.800000 3.200000
v -1.000000 0.800000 -0.400000
v -0.600000 0.800000 -0.400000
v -0.200000 0.800000 -0.400000
v -1.200000 0.800000 -0.600000
v -1.000000 0.800000 -0.600000
v -0.600000 0.800000 -0.600000
v -0.200000 0.800000 -0.600000
v 0.000000 0.800000 -0.600000
v -1.400000 0.800000 -0.800000
v -1.200000 0.800000 -0.800000
v -0.800000 0.800000 -0.800000
v -0.600000 0.800000 -0.800000
v -0.200000 0.800000 -0.800000
v 0.000000 0.800000 -0.800000
v 0.200000 0.800000 -0.800000
v -1.600000 0.800000 -1.000000
v -1.400000 0.800000 -1.000000
v -1.000000 0.800000 -1.000000
v -0.800000 0.800000 -1.000000
v 0.000000 0.800000 -1.000000
v 0.200000 0.800000 -1.000000
v 0.200000 0.800000 -1.200000
v 0.400000 0.800000 -1.200000
v 0.200000 0.800000 -1.400000
v 0.400000 0.800000 -1.400000
v -1.800000 0.800000 -1.600000
v -1.600000 0.800000 -1.600000
v -1.200000 0.800000 -1.600000
v -1.000000 0.800000 -1.600000
v 0.600000 0.800000 -1.800000
v 0.800000 0.800000 -1.800000
v 1.200000 0.800000 -1.800000
v 1.400000 0.800000 -1.800000
v 0.400000 0.800000 -2.000000
v 0.600000 0.800000 -2.000000
v 0.800000 0.800000 -2.000000
v 1.200000 0.800000 -2.000000
v 1.400000 0.800000 -2.000000
v 1.600000 0.800000 -2.000000
v 1.400000 0.800000 -2.200000
v 1.600000 0.800000 -2.200000
v -1.800000 0.800000 -2.400000
v -1.600000 0.800000 -2.400000
v -1.200000 0.800000 -2.400000
v -1.000000 0.800000 -2.400000
v 1.400000 0.800000 -2.800000
v 1.600000 0.800000 -2.800000
v -1.600000 0.800000 -3.000000
v -1.400000 0.800000 -3.000000
v -1.000000 0.800000 -3.000000
v -0.800000 0.800000 -3.000000
v 0.200000 0.800000 -3.000000
v 0.400000 0.800000 -3.000000
v 0.600000 0.800000 -3.000000
v 1.400000 0.800000 -3.000000
v 1.600000 0.800000 -3.000000
v -1.400000 0.800000 -3.200000
v -1.000000 0.800000 -3.200000
v -0.800000 0.800000 -3.200000
v -0.600000 0.800000 -3.200000
v -0.200000 0.800000 -3.200000
v 0.200000 0.800000 -3.200000
v 0.400000 0.800000 -3.200000
v 0.600000 0.800000 -3.200000
v 0.800000 0.800000 -3.200000
v 1.200000 0.800000 -3.200000
v 1.400000 0.800000 -3.200000
v -1.000000 0.800000 -3.400000
v -0.600000 0.800000 -3.400000
v -0.200000 0.800000 -3.400000
v 0.600000 0.800000 -3.400000
v 0.800000 0.800000 -3.400000
v 1.200000 0.800000 -3.400000
v 1.400000 0.800000 -3.400000
v 0.800000 0.800000 -3.600000
v 1.200000 0.800000 -3.600000
v 0.800000 1.200000 3.600000
v 1.000000 1.200000 3.600000
v 1.200000 1.200000 3.600000
v 0.600000 1.200000 3.400000
v 0.800000 1.200000 3.400000
v 1.000000 1.200000 3.400000
v 1.200000 1.200000 3.400000
v 1.400000 1.200000 3.400000
v 0.600000 1.200000 3.200000
v 0.800000 1.200000 3.200000
v 1.200000 1.200000 3.200000
v 1.400000 1.200000 3.200000
v -1.000000 1.200000 -0.400000
v -0.600000 1.200000 -0.400000
v -0.200000 1.200000 -0.400000
v -1.200000 1.200000 -0.600000
v -1.000000 1.200000 -0.600000
v -0.600000 1.200000 -0.600000
v -0.200000 1.200000 -0.600000
v 0.000000 1.200000 -0.600000
v -1.400000 1.200000 -0.800000
v -1.200000 1.200000 -0.800000
v -0.800000 1.200000 -0.800000
v -0.600000 1.200000 -0.800000
v -0.200000 1.200000 -0.800000
v 0.000000 1.200000 -0.800000
v 0.200000 1.200000 -0.800000
v -1.600000 1.200000 -1.000000
v -1.400000 1.200000 -1.000000
v -1.000000 1.200000 -1.000000
v -0.800000 1.200000 -1.000000
v 0.000000 1.200000 -1.000000
v 0.200000 1.200000 -1.000000
v 0.200000 1.200000 -1.200000
v 0.400000 1.200000 -1.200000
v 0.200000 1.200000 -1.400000
v 0.400000 1.200000 -1.400000
v -1.800000 1.200000 -1.600000
v -1.600000 1.200000 -1.600000
v -1.200000 1.200000 -1.600000
v -1.000000 1.200000 -1.600000
v 0.600000 1.200000 -1.800000
v 0.800000 1.200000 -1.800000
v 1.200000 1.200000 -1.800000
v 1.400000 1.200000 -1.800000
v 0.400000 1.200000 -2.000000
v 0.600000 1.200000 -2.000000
v 0.800000 1.200000 -2.000000
v 1.200000 1.200000 -2.000000
v 1.400000 1.200000 -2.000000
v 1.600000 1.200000 -2.000000
v 1.400000 1.200000 -2.200000
v 1.600000 1.200000 -2.200000
v -1.800000 1.200000 -2.400000
v -1.600000 1.200000 -2.400000
v -1.200000 1.200000 -2.400000
v -1.000000 1.200000 -2.400000
v 1.400000 1.200000 -2.800000
v 1.600000 1.200000 -2.800000
v -1.600000 1.200000 -3.000000
v -1.400000 1.200000 -3.000000
v -1.000000 1.200000 -3.000000
v -0.800000 1.200000 -3.000000
v 0.200000 1.200000 -3.000000
v 0.400000 1.200000 -3.000000
v 0.600000 1.200000 -3.000000
v 1.400000 1.200000 -3.000000
v 1.600000 1.200000 -3.000000
v -1.400000 1.200000 -3.200000
v -1.000000 1.200000 -3.200000
v -0.800000 1.200000 -3.200000
v -0.600000 1.200000 -3.200000
v -0.200000 1.200000 -3.200000
v 0.200000 1.200000 -3.200000
v 0.400000 1.200000 -3.200000
v 0.600000 1.200000 -3.200000
v 0.800000 1.200000 -3.200000
v 1.200000 1.200000 -3.200000
v 1.400000 1.200000 -3.200000
v -1.000000 1.200000 -3.400000
v -0.600000 1.200000 -3.400000
v -0.200000 1.200000 -3.400000
v 0.600000 1.200000 -3.400000
v 0.800000 1.200000 -3.400000
v 1.000000 1.200000 -3.400000
v 1.200000 1.200000 -3.400000
v 1.400000 1.200000 -3.400000
v 0.800000 1.200000 -3.600000
v 1.200000 1.200000 -3.600000
v 0.800000 1.400000 3.400000
v 1.200000 1.400000 3.400000
v 0.600000 1.400000 3.200000
v 0.800000 1.400000 3.200000
v 1.200000 1.400000 3.200000
v 1.400000 1.400000 3.200000
v 1.200000 1.400000 2.600000
v 1.400000 1.400000 2.600000
v 0.600000 1.400000 2.400000
v 0.800000 1.400000 2.400000
v 1.200000 1.400000 2.200000
v 1.400000 1.400000 2.200000
v 1.200000 1.400000 1.800000
v 1.400000 1.400000 1.800000
v 0.600000 1.400000 0.600000
v 0.800000 1.400000 0.600000
v 0.600000 1.400000 -0.200000
v 0.800000 1.400000 -0.200000
v 1.200000 1.400000 -0.400000
v 1.400000 1.400000 -0.400000
v -0.600000 1.400000 -0.600000
v -0.200000 1.400000 -0.600000
v -0.800000 1.400000 -0.800000
v -0.600000 1.400000 -0.800000
v -0.200000 1.400000 -0.800000
v 0.000000 1.400000 -0.800000
v -1.000000 1.400000 -1.000000
v -0.800000 1.400000 -1.000000
v 0.000000 1.400000 -1.000000
v 0.200000 1.400000 -1.000000
v 0.600000 1.400000 -1.000000
v 0.800000 1.400000 -1.000000
v 1.000000 1.400000 -1.200000
v 1.400000 1.400000 -1.200000
v 0.200000 1.400000 -1.400000
v 0.400000 1.400000 -1.400000
v -1.200000 1.400000 -1.600000
v -1.000000 1.400000 -1.600000
v 1.000000 1.400000 -1.600000
v 1.400000 1.400000 -1.600000
v 0.600000 1.400000 -1.800000
v 0.800000 1.400000 -1.800000
v 1.200000 1.400000 -1.800000
v 1.400000 1.400000 -1.800000
v 0.600000 1.400000 -2.000000
v 0.800000 1.400000 -2.000000
v 1.200000 1.400000 -2.000000
v 1.400000 1.400000 -2.000000
v 1.400000 1.400000 -2.200000
v 1.600000 1.400000 -2.200000
v -1.200000 1.400000 -2.400000
v -1.000000 1.400000 -2.400000
v 1.400000 1.400000 -2.800000
v 1.600000 1.400000 -2.800000
v -1.000000 1.400000 -3.000000
v -0.800000 1.400000 -3.000000
v 0.200000 1.400000 -3.000000
v 0.400000 1.400000 -3.000000
v 0.600000 1.400000 -3.000000
v 0.800000 1.400000 -3.000000
v 1.200000 1.400000 -3.000000
v 1.400000 1.400000 -3.000000
v -0.800000 1.400000 -3.200000
v 0.200000 1.400000 -3.200000
v 0.600000 1.400000 -3.200000
v 0.800000 1.400000 -3.200000
v 1.000000 1.400000 -3.200000
v 1.200000 1.400000 -3.200000
v 1.400000 1.400000 -3.200000
v 0.800000 1.400000 -3.400000
v 1.000000 1.400000 -3.400000
v 1.200000 1.400000 -3.400000
vn -1.0000 -0.0000 -0.0000
vn 1.0000 -0.0000 -0.0000
vn -0.0000 -0.0000 1.0000
vn -0.0000 -0.0000 -1.0000
vn -0.0000 -1.0000 -0.0000
vn -0.0000 1.0000 -0.0000
vt 0.978516 0.500000
vt 0.982422 0.500000
vt 0.306641 0.500000
vt 0.333984 0.500000
vt 0.990234 0.500000
s 1
usemtl palette.025
f 3/1/1 2/1/1 1/1/1
f 4/1/1 2/1/1 3/1/1
f 9/1/1 6/1/1 5/1/1
f 10/1/1 6/1/1 9/1/1
f 11/1/1 8/1/1 7/1/1
f 12/1/1 8/1/1 11/1/1
f 17/1/1 14/1/1 13/1/1
f 18/1/1 14/1/1 17/1/1
f 19/1/1 16/1/1 15/1/1
f 20/1/1 16/1/1 19/1/1
f 25/2/1 22/2/1 21/2/1
f 26/2/1 22/2/1 25/2/1
f 27/1/1 24/1/1 23/1/1
f 28/1/1 24/1/1 27/1/1
f 31/2/1 30/2/1 29/2/1
f 32/2/1 30/2/1 31/2/1
f 39/2/1 34/2/1 33/2/1
f 40/2/1 34/2/1 39/2/1
f 41/2/1 36/2/1 35/2/1
f 42/2/1 36/2/1 41/2/1
f 45/1/1 38/1/1 37/1/1
f 46/1/1 38/1/1 45/1/1
f 51/1/1 44/1/1 43/1/1
f 52/1/1 44/1/1 51/1/1
f 53/2/1 48/2/1 47/2/1
f 54/2/1 48/2/1 53/2/1
f 55/2/1 50/2/1 49/2/1
f 56/2/1 50/2/1 55/2/1
f 61/2/1 58/2/1 57/2/1
f 62/2/1 58/2/1 61/2/1
f 63/2/1 60/2/1 59/2/1
f 64/2/1 60/2/1 63/2/1
f 69/2/1 66/2/1 65/2/1
f 70/2/1 66/2/1 69/2/1
f 71/2/1 68/2/1 67/2/1
f 72/2/1 68/2/1 71/2/1
f 75/2/1 74/2/1 73/2/1
f 76/2/1 74/2/1 75/2/1
f 79/2/1 78/2/1 77/2/1
f 80/2/1 78/2/1 79/2/1
f 91/3/1 82/3/1 81/3/1
f 92/4/1 83/4/1 82/4/1
f 92/3/1 82/3/1 91/3/1
f 93/3/1 84/3/1 83/3/1
f 93/4/1 83/4/1 92/4/1
f 94/4/1 85/4/1 84/4/1
f 94/3/1 84/3/1 93/3/1
f 95/3/1 86/3/1 85/3/1
f 95/4/1 85/4/1 94/4/1
f 96/3/1 86/3/1 95/3/1
f 97/5/1 88/5/1 87/5/1
f 98/3/1 89/3/1 88/3/1
f 98/5/1 88/5/1 97/5/1
f 99/3/1 89/3/1 98/3/1
f 101/3/1 91/3/1 90/3/1
f 101/3/1 92/3/1 91/3/1
f 101/3/1 93/3/1 92/3/1
f 101/3/1 94/3/1 93/3/1
f 101/3/1 95/3/1 94/3/1
f 101/3/1 96/3/1 95/3/1
f 102/3/1 96/3/1 101/3/1
f 103/3/1 96/3/1 102/3/1
f 104/3/1 96/3/1 103/3/1
f 105/3/1 96/3/1 104/3/1
f 106/3/1 96/3/1 105/3/1
f 107/2/1 97/2/1 96/2/1
f 107/3/1 96/3/1 106/3/1
f 108/2/1 97/2/1 107/2/1
f 109/3/1 100/3/1 99/3/1
f 109/3/1 99/3/1 98/3/1
f 110/3/1 100/3/1 109/3/1
f 111/3/1 100/3/1 110/3/1
f 112/3/1 103/3/1 102/3/1
f 113/4/1 104/4/1 103/4/1
f 113/3/1 103/3/1 112/3/1
f 114/3/1 105/3/1 104/3/1
f 114/4/1 104/4/1 113/4/1
f 115/4/1 106/4/1 105/4/1
f 115/3/1 105/3/1 114/3/1
f 116/3/1 107/3/1 106/3/1
f 116/4/1 106/4/1 115/4/1
f 117/3/1 107/3/1 116/3/1
f 118/5/1 109/5/1 108/5/1
f 119/4/1 110/4/1 109/4/1
f 119/5/1 109/5/1 118/5/1
f 120/4/1 110/4/1 119/4/1
f 128/3/1 122/3/1 121/3/1
f 129/3/1 122/3/1 128/3/1
f 130/3/1 124/3/1 123/3/1
f 131/3/1 124/3/1 130/3/1
f 132/3/1 126/3/1 125/3/1
f 133/3/1 126/3/1 132/3/1
f 135/3/1 128/3/1 127/3/1
f 136/3/1 128/3/1 135/3/1
f 141/3/1 134/3/1 133/3/1
f 142/3/1 134/3/1 141/3/1
f 143/3/1 137/3/1 136/3/1
f 144/3/1 137/3/1 143/3/1
f 145/3/1 139/3/1 138/3/1
f 146/3/1 139/3/1 145/3/1
f 147/4/1 141/4/1 140/4/1
f 148/4/1 141/4/1 147/4/1
f 149/2/2 150/2/2 152/2/2
f 152/2/2 150/2/2 153/2/2
f 151/2/2 152/2/2 156/2/2
f 156/2/2 152/2/2 157/2/2
f 154/2/2 155/2/2 159/2/2
f 159/2/2 155/2/2 160/2/2
f 157/2/2 158/2/2 161/2/2
f 161/2/2 158/2/2 162/2/2
f 163/2/2 164/2/2 166/2/2
f 166/2/2 164/2/2 167/2/2
f 165/2/2 166/2/2 168/2/2
f 168/2/2 166/2/2 169/2/2
f 169/2/2 170/2/2 171/2/2
f 171/2/2 170/2/2 172/2/2
f 173/2/2 174/2/2 178/2/2
f 178/2/2 174/2/2 179/2/2
f 179/2/2 174/2/2 180/2/2
f 175/2/2 176/2/2 181/2/2
f 181/2/2 176/2/2 182/2/2
f 177/2/2 178/2/2 183/2/2
f 178/2/2 179/2/2 183/2/2
f 183/2/2 179/2/2 184/2/2
f 184/2/2 179/2/2 185/2/2
f 184/2/2 185/2/2 189/2/2
f 185/2/2 186/2/2 189/2/2
f 189/2/2 186/2/2 190/2/2
f 187/2/2 188/2/2 191/2/2
f 191/2/2 188/2/2 192/2/2
f 193/2/2 194/2/2 196/2/2
f 196/2/2 194/2/2 197/2/2
f 197/2/2 194/2/2 198/2/2
f 195/2/2 196/2/2 200/2/2
f 196/2/2 197/2/2 200/2/2
f 200/2/2 197/2/2 201/2/2
f 201/2/2 197/2/2 202/2/2
f 198/2/2 199/2/2 203/2/2
f 203/2/2 199/2/2 204/2/2
f 201/2/2 202/2/2 205/2/2
f 202/2/2 203/2/2 205/2/2
f 205/2/2 203/2/2 206/2/2
f 207/3/2 208/3/2 214/3/2
f 214/3/2 208/3/2 215/3/2
f 209/3/2 210/3/2 216/3/2
f 216/3/2 210/3/2 217/3/2
f 211/3/2 212/3/2 218/3/2
f 218/3/2 212/3/2 219/3/2
f 213/3/2 214/3/2 221/3/2
f 221/3/2 214/3/2 222/3/2
f 219/3/2 220/3/2 223/3/2
f 221/4/2 222/4/2 224/4/2
f 224/4/2 222/4/2 225/4/2
f 223/3/2 220/3/2 230/3/2
f 230/3/2 220/3/2 231/3/2
f 225/3/2 226/3/2 232/3/2
f 232/3/2 226/3/2 233/3/2
f 227/3/2 228/3/2 234/3/2
f 234/3/2 228/3/2 235/3/2
f 229/3/2 230/3/2 236/3/2
f 236/3/2 230/3/2 237/3/2
f 238/3/2 239/3/2 250/3/2
f 239/4/2 240/4/2 251/4/2
f 250/3/2 239/3/2 251/3/2
f 240/3/2 241/3/2 252/3/2
f 251/4/2 240/4/2 252/4/2
f 241/4/2 242/4/2 253/4/2
f 252/3/2 241/3/2 253/3/2
f 242/3/2 243/3/2 254/3/2
f 253/4/2 242/4/2 254/4/2
f 254/3/2 243/3/2 255/3/2
f 244/5/2 245/5/2 256/5/2
f 256/5/2 245/5/2 257/5/2
f 246/5/2 247/5/2 258/5/2
f 247/3/2 248/3/2 259/3/2
f 258/5/2 247/5/2 259/5/2
f 259/3/2 248/3/2 260/3/2
f 260/3/2 261/3/2 262/3/2
f 259/3/2 260/3/2 262/3/2
f 262/3/2 261/3/2 263/3/2
f 249/3/2 250/3/2 264/3/2
f 250/3/2 251/3/2 264/3/2
f 251/3/2 252/3/2 264/3/2
f 252/3/2 253/3/2 264/3/2
f 254/3/2 255/3/2 264/3/2
f 253/3/2 254/3/2 264/3/2
f 264/3/2 255/3/2 265/3/2
f 265/3/2 255/3/2 266/3/2
f 266/3/2 255/3/2 267/3/2
f 267/3/2 255/3/2 268/3/2
f 268/3/2 255/3/2 269/3/2
f 269/3/2 255/3/2 270/3/2
f 270/3/2 255/3/2 271/3/2
f 255/2/2 256/2/2 272/2/2
f 271/3/2 255/3/2 272/3/2
f 272/2/2 256/2/2 273/2/2
f 259/3/2 262/3/2 276/3/2
f 262/4/2 263/4/2 277/4/2
f 276/3/2 262/3/2 277/3/2
f 277/4/2 263/4/2 278/4/2
f 265/3/2 266/3/2 279/3/2
f 266/4/2 267/4/2 280/4/2
f 279/3/2 266/3/2 280/3/2
f 267/3/2 268/3/2 281/3/2
f 280/4/2 267/4/2 281/4/2
f 268/4/2 269/4/2 282/4/2
f 281/3/2 268/3/2 282/3/2
f 269/3/2 270/3/2 283/3/2
f 282/4/2 269/4/2 283/4/2
f 270/4/2 271/4/2 284/4/2
f 283/3/2 270/3/2 284/3/2
f 271/3/2 272/3/2 285/3/2
f 284/4/2 271/4/2 285/4/2
f 285/3/2 272/3/2 286/3/2
f 273/5/2 274/5/2 287/5/2
f 287/5/2 274/5/2 288/5/2
f 275/5/2 276/5/2 289/5/2
f 276/3/2 277/3/2 290/3/2
f 289/5/2 276/5/2 290/5/2
f 290/3/2 277/3/2 291/3/2
f 292/5/2 293/5/2 295/5/2
f 295/5/2 293/5/2 296/5/2
f 294/5/2 295/5/2 298/5/2
f 296/5/2 297/5/2 298/5/2
f 295/5/2 296/5/2 298/5/2
f 298/5/2 297/5/2 299/5/2
f 299/5/2 297/5/2 300/5/2
f 300/5/2 297/5/2 301/5/2
f 299/5/2 300/5/2 302/5/2
f 302/5/2 300/5/2 303/5/2
f 306/3/3 305/3/3 304/3/3
f 307/3/3 305/3/3 306/3/3
f 308/3/3 306/3/3 304/3/3
f 309/4/3 307/4/3 306/4/3
f 309/3/3 306/3/3 308/3/3
f 310/4/3 307/4/3 309/4/3
f 314/3/3 312/3/3 311/3/3
f 315/3/3 312/3/3 314/3/3
f 317/3/3 316/3/3 315/3/3
f 318/3/3 314/3/3 313/3/3
f 319/3/3 314/3/3 318/3/3
f 321/3/3 316/3/3 317/3/3
f 322/3/3 316/3/3 321/3/3
f 323/3/3 320/3/3 319/3/3
f 323/3/3 321/3/3 320/3/3
f 324/3/3 321/3/3 323/3/3
f 329/3/3 326/3/3 325/3/3
f 330/3/3 326/3/3 329/3/3
f 331/3/3 328/3/3 327/3/3
f 332/3/3 328/3/3 331/3/3
f 337/3/3 334/3/3 333/3/3
f 338/3/3 334/3/3 337/3/3
f 339/3/3 336/3/3 335/3/3
f 340/3/3 336/3/3 339/3/3
f 343/1/3 342/1/3 341/1/3
f 344/1/3 342/1/3 343/1/3
f 345/2/3 344/2/3 343/2/3
f 346/2/3 344/2/3 345/2/3
f 349/1/3 348/1/3 347/1/3
f 350/1/3 348/1/3 349/1/3
f 355/2/3 352/2/3 351/2/3
f 356/2/3 352/2/3 355/2/3
f 357/2/3 354/2/3 353/2/3
f 358/2/3 354/2/3 357/2/3
f 359/2/3 357/2/3 356/2/3
f 360/2/3 357/2/3 359/2/3
f 363/1/3 362/1/3 361/1/3
f 364/1/3 362/1/3 363/1/3
f 369/2/3 366/2/3 365/2/3
f 370/2/3 366/2/3 369/2/3
f 371/2/3 368/2/3 367/2/3
f 372/2/3 368/2/3 371/2/3
f 377/2/3 374/2/3 373/2/3
f 378/2/3 374/2/3 377/2/3
f 379/2/3 376/2/3 375/2/3
f 380/2/3 376/2/3 379/2/3
f 381/2/3 379/2/3 378/2/3
f 382/2/3 379/2/3 381/2/3
f 385/1/3 384/1/3 383/1/3
f 386/1/3 384/1/3 385/1/3
f 391/2/3 388/2/3 387/2/3
f 392/2/3 388/2/3 391/2/3
f 393/2/3 390/2/3 389/2/3
f 394/2/3 390/2/3 393/2/3
f 399/2/3 396/2/3 395/2/3
f 400/2/3 396/2/3 399/2/3
f 401/2/3 398/2/3 397/2/3
f 402/2/3 398/2/3 401/2/3
f 405/2/3 404/2/3 403/2/3
f 406/2/3 404/2/3 405/2/3
f 411/2/3 408/2/3 407/2/3
f 412/2/3 408/2/3 411/2/3
f 413/2/3 410/2/3 409/2/3
f 414/2/3 410/2/3 413/2/3
f 417/1/3 416/1/3 415/1/3
f 418/1/3 416/1/3 417/1/3
f 423/2/3 420/2/3 419/2/3
f 424/2/3 420/2/3 423/2/3
f 425/2/3 422/2/3 421/2/3
f 426/2/3 422/2/3 425/2/3
f 430/5/3 428/5/3 427/5/3
f 431/5/3 428/5/3 430/5/3
f 433/5/3 430/5/3 429/5/3
f 434/5/3 430/5/3 433/5/3
f 435/5/3 432/5/3 431/5/3
f 436/5/3 432/5/3 435/5/3
f 441/5/3 438/5/3 437/5/3
f 442/5/3 438/5/3 441/5/3
f 443/5/3 440/5/3 439/5/3
f 444/5/3 440/5/3 443/5/3
f 445/5/3 443/5/3 442/5/3
f 446/5/3 443/5/3 445/5/3
f 451/5/3 448/5/3 447/5/3
f 452/5/3 448/5/3 451/5/3
f 453/5/3 450/5/3 449/5/3
f 454/5/3 450/5/3 453/5/3
f 455/3/4 456/3/4 459/3/4
f 459/3/4 456/3/4 460/3/4
f 457/3/4 458/3/4 461/3/4
f 461/3/4 458/3/4 462/3/4
f 463/3/4 464/3/4 467/3/4
f 467/3/4 464/3/4 468/3/4
f 465/3/4 466/3/4 469/3/4
f 469/3/4 466/3/4 470/3/4
f 471/1/4 472/1/4 473/1/4
f 473/1/4 472/1/4 474/1/4
f 475/2/4 476/2/4 479/2/4
f 479/2/4 476/2/4 480/2/4
f 477/2/4 478/2/4 481/2/4
f 481/2/4 478/2/4 482/2/4
f 483/5/4 484/5/4 487/5/4
f 487/5/4 484/5/4 488/5/4
f 485/5/4 486/5/4 489/5/4
f 489/5/4 486/5/4 490/5/4
f 491/1/4 492/1/4 493/1/4
f 493/1/4 492/1/4 494/1/4
f 495/2/4 496/2/4 499/2/4
f 499/2/4 496/2/4 500/2/4
f 497/2/4 498/2/4 501/2/4
f 501/2/4 498/2/4 502/2/4
f 503/2/4 504/2/4 507/2/4
f 507/2/4 504/2/4 508/2/4
f 505/2/4 506/2/4 509/2/4
f 509/2/4 506/2/4 510/2/4
f 508/5/4 509/5/4 511/5/4
f 511/5/4 509/5/4 512/5/4
f 513/5/4 514/5/4 515/5/4
f 515/5/4 514/5/4 516/5/4
f 517/1/4 518/1/4 519/1/4
f 519/1/4 518/1/4 520/1/4
f 521/2/4 522/2/4 525/2/4
f 523/2/4 524/2/4 526/2/4
f 521/2/4 525/2/4 527/2/4
f 526/2/4 524/2/4 528/2/4
f 521/2/4 527/2/4 529/2/4
f 527/2/4 528/2/4 529/2/4
f 529/2/4 528/2/4 530/2/4
f 528/2/4 524/2/4 531/2/4
f 530/2/4 528/2/4 531/2/4
f 531/2/4 524/2/4 532/2/4
f 530/2/4 531/2/4 533/2/4
f 533/2/4 531/2/4 534/2/4
f 535/3/4 536/3/4 539/3/4
f 539/3/4 536/3/4 540/3/4
f 537/4/4 538/4/4 541/4/4
f 541/4/4 538/4/4 542/4/4
f 543/3/4 544/3/4 547/3/4
f 547/3/4 544/3/4 548/3/4
f 545/3/4 546/3/4 549/3/4
f 549/3/4 546/3/4 550/3/4
f 551/1/4 552/1/4 553/1/4
f 553/1/4 552/1/4 554/1/4
f 553/2/4 554/2/4 555/2/4
f 555/2/4 554/2/4 556/2/4
f 557/3/4 558/3/4 560/3/4
f 560/3/4 558/3/4 561/3/4
f 561/4/4 562/4/4 563/4/4
f 563/4/4 562/4/4 564/4/4
f 559/3/4 560/3/4 565/3/4
f 565/3/4 560/3/4 566/3/4
f 563/3/4 564/3/4 568/3/4
f 568/3/4 564/3/4 569/3/4
f 566/3/4 567/3/4 570/3/4
f 567/4/4 568/4/4 571/4/4
f 570/3/4 567/3/4 571/3/4
f 571/4/4 568/4/4 572/4/4
f 573/3/4 574/3/4 575/3/4
f 575/3/4 574/3/4 576/3/4
f 580/3/5 578/3/5 577/3/5
f 581/3/5 578/3/5 580/3/5
f 583/3/5 580/3/5 579/3/5
f 583/3/5 582/3/5 581/3/5
f 583/3/5 581/3/5 580/3/5
f 584/3/5 582/3/5 583/3/5
f 585/3/5 583/3/5 579/3/5
f 586/3/5 583/3/5 585/3/5
f 587/4/5 584/4/5 583/4/5
f 587/3/5 583/3/5 586/3/5
f 588/4/5 584/4/5 587/4/5
f 589/3/5 587/3/5 586/3/5
f 589/3/5 588/3/5 587/3/5
f 590/3/5 588/3/5 589/3/5
f 591/4/5 586/4/5 585/4/5
f 592/3/5 589/3/5 586/3/5
f 592/4/5 586/4/5 591/4/5
f 593/3/5 592/3/5 591/3/5
f 594/3/5 589/3/5 592/3/5
f 594/3/5 592/3/5 593/3/5
f 595/4/5 590/4/5 589/4/5
f 595/3/5 589/3/5 594/3/5
f 596/4/5 590/4/5 595/4/5
f 600/2/5 598/2/5 597/2/5
f 601/2/5 598/2/5 600/2/5
f 604/2/5 600/2/5 599/2/5
f 604/2/5 602/2/5 601/2/5
f 604/2/5 601/2/5 600/2/5
f 605/2/5 602/2/5 604/2/5
f 607/4/5 594/4/5 593/4/5
f 608/3/5 595/3/5 594/3/5
f 608/4/5 594/4/5 607/4/5
f 608/3/5 596/3/5 595/3/5
f 609/2/5 606/2/5 605/2/5
f 609/2/5 605/2/5 604/2/5
f 609/2/5 604/2/5 603/2/5
f 612/2/5 609/2/5 603/2/5
f 612/2/5 610/2/5 609/2/5
f 613/3/5 608/3/5 607/3/5
f 614/3/5 596/3/5 608/3/5
f 614/3/5 608/3/5 613/3/5
f 615/3/5 596/3/5 614/3/5
f 616/3/5 596/3/5 615/3/5
f 618/3/5 615/3/5 614/3/5
f 619/3/5 615/3/5 618/3/5
f 621/5/5 618/5/5 617/5/5
f 621/5/5 620/5/5 619/5/5
f 621/5/5 619/5/5 618/5/5
f 623/2/5 612/2/5 611/2/5
f 624/2/5 610/2/5 612/2/5
f 624/2/5 612/2/5 623/2/5
f 625/5/5 621/5/5 617/5/5
f 625/5/5 622/5/5 621/5/5
f 626/5/5 622/5/5 625/5/5
f 627/2/5 610/2/5 624/2/5
f 628/2/5 610/2/5 627/2/5
f 629/2/5 610/2/5 628/2/5
f 630/2/5 610/2/5 629/2/5
f 631/5/5 625/5/5 617/5/5
f 632/5/5 625/5/5 631/5/5
f 633/5/5 625/5/5 632/5/5
f 634/5/5 625/5/5 633/5/5
f 635/2/5 629/2/5 628/2/5
f 636/2/5 629/2/5 635/2/5
f 637/3/5 632/3/5 631/3/5
f 638/5/5 633/5/5 632/5/5
f 638/3/5 632/3/5 637/3/5
f 639/3/5 634/3/5 633/3/5
f 639/5/5 633/5/5 638/5/5
f 640/3/5 634/3/5 639/3/5
f 641/3/5 639/3/5 638/3/5
f 642/3/5 639/3/5 641/3/5
f 646/3/5 644/3/5 643/3/5
f 647/3/5 644/3/5 646/3/5
f 649/3/5 646/3/5 645/3/5
f 650/3/5 646/3/5 649/3/5
f 651/3/5 648/3/5 647/3/5
f 652/3/5 648/3/5 651/3/5
f 657/1/5 654/1/5 653/1/5
f 658/2/5 655/2/5 654/2/5
f 658/1/5 654/1/5 657/1/5
f 659/2/5 655/2/5 658/2/5
f 662/1/5 657/1/5 656/1/5
f 662/1/5 658/1/5 657/1/5
f 663/1/5 658/1/5 662/1/5
f 664/1/5 658/1/5 663/1/5
f 665/2/5 660/2/5 659/2/5
f 666/2/5 660/2/5 665/2/5
f 669/1/5 662/1/5 661/1/5
f 669/1/5 663/1/5 662/1/5
f 670/1/5 663/1/5 669/1/5
f 671/1/5 663/1/5 670/1/5
f 672/2/5 667/2/5 666/2/5
f 673/2/5 667/2/5 672/2/5
f 676/2/5 675/2/5 674/2/5
f 677/2/5 675/2/5 676/2/5
f 679/1/5 669/1/5 668/1/5
f 679/1/5 670/1/5 669/1/5
f 680/1/5 670/1/5 679/1/5
f 681/1/5 670/1/5 680/1/5
f 687/2/5 683/2/5 682/2/5
f 688/2/5 683/2/5 687/2/5
f 689/2/5 685/2/5 684/2/5
f 690/2/5 685/2/5 689/2/5
f 692/5/5 691/5/5 690/5/5
f 693/5/5 691/5/5 692/5/5
f 694/1/5 680/1/5 679/1/5
f 694/1/5 679/1/5 678/1/5
f 695/1/5 680/1/5 694/1/5
f 696/1/5 680/1/5 695/1/5
f 700/1/5 697/1/5 696/1/5
f 700/1/5 696/1/5 695/1/5
f 701/1/5 697/1/5 700/1/5
f 702/1/5 697/1/5 701/1/5
f 705/5/5 687/5/5 686/5/5
f 706/5/5 687/5/5 705/5/5
f 707/5/5 699/5/5 698/5/5
f 708/5/5 699/5/5 707/5/5
f 709/1/5 703/1/5 702/1/5
f 709/1/5 702/1/5 701/1/5
f 710/1/5 703/1/5 709/1/5
f 711/1/5 703/1/5 710/1/5
f 714/2/5 705/2/5 704/2/5
f 715/2/5 705/2/5 714/2/5
f 720/1/5 711/1/5 710/1/5
f 720/1/5 712/1/5 711/1/5
f 721/2/5 713/2/5 712/2/5
f 721/1/5 712/1/5 720/1/5
f 722/2/5 713/2/5 721/2/5
f 723/3/5 717/3/5 716/3/5
f 724/3/5 717/3/5 723/3/5
f 725/3/5 719/3/5 718/3/5
f 726/3/5 719/3/5 725/3/5
f 727/3/5 725/3/5 724/3/5
f 728/3/5 725/3/5 727/3/5
f 729/3/6 730/3/6 733/3/6
f 730/4/6 731/4/6 734/4/6
f 733/3/6 730/3/6 734/3/6
f 734/4/6 731/4/6 735/4/6
f 732/3/6 733/3/6 737/3/6
f 737/3/6 733/3/6 738/3/6
f 735/3/6 736/3/6 739/3/6
f 739/3/6 736/3/6 740/3/6
f 741/1/6 742/1/6 745/1/6
f 742/2/6 743/2/6 746/2/6
f 745/1/6 742/1/6 746/1/6
f 746/2/6 743/2/6 747/2/6
f 744/1/6 745/1/6 750/1/6
f 745/1/6 746/1/6 750/1/6
f 750/1/6 746/1/6 751/1/6
f 751/1/6 746/1/6 752/1/6
f 747/2/6 748/2/6 753/2/6
f 753/2/6 748/2/6 754/2/6
f 749/1/6 750/1/6 757/1/6
f 750/1/6 751/1/6 757/1/6
f 757/1/6 751/1/6 758/1/6
f 758/1/6 751/1/6 759/1/6
f 754/2/6 755/2/6 760/2/6
f 760/2/6 755/2/6 761/2/6
f 762/2/6 763/2/6 764/2/6
f 764/2/6 763/2/6 765/2/6
f 756/1/6 757/1/6 767/1/6
f 757/1/6 758/1/6 767/1/6
f 767/1/6 758/1/6 768/1/6
f 768/1/6 758/1/6 769/1/6
f 770/2/6 771/2/6 775/2/6
f 775/2/6 771/2/6 776/2/6
f 772/2/6 773/2/6 777/2/6
f 777/2/6 773/2/6 778/2/6
f 778/5/6 779/5/6 780/5/6
f 780/5/6 779/5/6 781/5/6
f 767/1/6 768/1/6 782/1/6
f 766/1/6 767/1/6 782/1/6
f 782/1/6 768/1/6 783/1/6
f 783/1/6 768/1/6 784/1/6
f 784/1/6 785/1/6 788/1/6
f 783/1/6 784/1/6 788/1/6
f 788/1/6 785/1/6 789/1/6
f 789/1/6 785/1/6 790/1/6
f 774/5/6 775/5/6 793/5/6
f 793/5/6 775/5/6 794/5/6
f 786/5/6 787/5/6 795/5/6
f 795/5/6 787/5/6 796/5/6
f 790/1/6 791/1/6 797/1/6
f 789/1/6 790/1/6 797/1/6
f 797/1/6 791/1/6 798/1/6
f 798/1/6 791/1/6 799/1/6
f 792/2/6 793/2/6 802/2/6
f 802/2/6 793/2/6 803/2/6
f 798/1/6 799/1/6 808/1/6
f 799/1/6 800/1/6 808/1/6
f 800/2/6 801/2/6 809/2/6
f 808/1/6 800/1/6 809/1/6
f 809/2/6 801/2/6 810/2/6
f 804/3/6 805/3/6 811/3/6
f 811/3/6 805/3/6 812/3/6
f 806/4/6 807/4/6 814/4/6
f 814/4/6 807/4/6 815/4/6
f 812/3/6 813/3/6 816/3/6
f 813/3/6 814/3/6 816/3/6
f 816/3/6 814/3/6 817/3/6
f 818/3/6 819/3/6 821/3/6
f 821/3/6 819/3/6 822/3/6
f 820/3/6 821/3/6 824/3/6
f 822/3/6 823/3/6 824/3/6
f 821/3/6 822/3/6 824/3/6
f 824/3/6 823/3/6 825/3/6
f 820/3/6 824/3/6 826/3/6
f 826/3/6 824/3/6 827/3/6
f 824/4/6 825/4/6 828/4/6
f 827/3/6 824/3/6 828/3/6
f 828/4/6 825/4/6 829/4/6
f 827/3/6 828/3/6 830/3/6
f 828/3/6 829/3/6 830/3/6
f 830/3/6 829/3/6 831/3/6
f 826/4/6 827/4/6 832/4/6
f 827/3/6 830/3/6 833/3/6
f 832/4/6 827/4/6 833/4/6
f 832/3/6 833/3/6 834/3/6
f 833/3/6 830/3/6 835/3/6
f 834/3/6 833/3/6 835/3/6
f 830/4/6 831/4/6 836/4/6
f 835/3/6 830/3/6 836/3/6
f 836/4/6 831/4/6 837/4/6
f 838/2/6 839/2/6 841/2/6
f 841/2/6 839/2/6 842/2/6
f 840/2/6 841/2/6 845/2/6
f 842/2/6 843/2/6 845/2/6
f 841/2/6 842/2/6 845/2/6
f 845/2/6 843/2/6 846/2/6
f 834/4/6 835/4/6 848/4/6
f 835/3/6 836/3/6 849/3/6
f 848/4/6 835/4/6 849/4/6
f 836/3/6 837/3/6 849/3/6
f 848/3/6 849/3/6 850/3/6
f 849/3/6 837/3/6 850/3/6
f 850/3/6 837/3/6 851/3/6
f 846/2/6 847/2/6 852/2/6
f 845/2/6 846/2/6 852/2/6
f 844/2/6 845/2/6 852/2/6
f 844/2/6 852/2/6 855/2/6
f 852/2/6 853/2/6 855/2/6
f 850/4/6 851/4/6 856/4/6
f 848/3/6 850/3/6 856/3/6
f 856/4/6 851/4/6 857/4/6
f 848/3/6 856/3/6 858/3/6
f 856/3/6 857/3/6 858/3/6
f 858/3/6 857/3/6 859/3/6
f 859/3/6 857/3/6 860/3/6
f 860/3/6 857/3/6 861/3/6
f 859/3/6 860/3/6 863/3/6
f 863/3/6 860/3/6 864/3/6
f 862/5/6 863/5/6 866/5/6
f 864/5/6 865/5/6 866/5/6
f 863/5/6 864/5/6 866/5/6
f 854/2/6 855/2/6 868/2/6
f 855/2/6 853/2/6 869/2/6
f 868/2/6 855/2/6 869/2/6
f 862/5/6 866/5/6 870/5/6
f 866/5/6 867/5/6 870/5/6
f 870/5/6 867/5/6 871/5/6
f 869/2/6 853/2/6 872/2/6
f 872/2/6 853/2/6 873/2/6
f 873/2/6 853/2/6 874/2/6
f 874/2/6 853/2/6 875/2/6
f 862/5/6 870/5/6 876/5/6
f 876/5/6 870/5/6 877/5/6
f 877/5/6 870/5/6 878/5/6
f 878/5/6 870/5/6 879/5/6
f 873/2/6 874/2/6 880/2/6
f 880/2/6 874/2/6 881/2/6
f 876/4/6 877/4/6 882/4/6
f 877/5/6 878/5/6 883/5/6
f 882/4/6 877/4/6 883/4/6
f 883/5/6 878/5/6 884/5/6
f 878/3/6 879/3/6 885/3/6
f 884/5/6 878/5/6 885/5/6
f 885/3/6 879/3/6 886/3/6
f 883/4/6 884/4/6 887/4/6
f 884/3/6 885/3/6 888/3/6
f 887/4/6 884/4/6 888/4/6
f 888/3/6 885/3/6 889/3/6
