# Blender 4.4.1
# www.blender.org
mtllib player.mtl
o Untitled
v 0.464320 0.420921 -0.399110
v 0.464320 0.420921 0.400890
v 0.464320 0.620921 -0.399110
v 0.464320 0.620921 -0.299110
v 0.464320 0.820921 -0.299110
v 0.464320 0.820921 0.400890
v 0.364320 0.020921 -0.399110
v 0.364320 0.020921 0.400890
v 0.364320 0.420921 -0.599110
v 0.364320 0.420921 -0.399110
v 0.364320 0.420921 0.400890
v 0.364320 0.420921 0.500890
v 0.364320 0.520921 -0.599110
v 0.364320 0.520921 -0.499110
v 0.364320 0.620921 -0.499110
v 0.364320 0.620921 -0.399110
v 0.364320 0.620921 -0.299110
v 0.364320 0.820921 -0.399110
v 0.364320 0.820921 -0.299110
v 0.364320 0.820921 -0.199110
v 0.364320 0.820921 0.400890
v 0.364320 0.820921 0.500890
v 0.364320 0.920921 -0.199110
v 0.364320 0.920921 0.400890
v 0.264320 0.120921 -0.499110
v 0.264320 0.120921 -0.399110
v 0.264320 0.320921 -0.499110
v 0.264320 0.320921 -0.399110
v 0.264320 0.820921 -0.299110
v 0.264320 0.820921 -0.199110
v 0.264320 0.820921 0.400890
v 0.264320 0.820921 0.500890
v 0.264320 0.920921 -0.299110
v 0.264320 0.920921 -0.199110
v 0.264320 0.920921 0.400890
v 0.264320 0.920921 0.500890
v 0.164320 0.620921 -0.599110
v 0.164320 0.620921 -0.499110
v 0.164320 0.620921 -0.399110
v 0.164320 0.720921 -0.599110
v 0.164320 0.720921 -0.399110
v 0.064320 0.520921 -0.599110
v 0.064320 0.520921 -0.499110
v 0.064320 0.620921 -0.599110
v 0.064320 0.620921 -0.499110
v 0.064320 0.720921 -0.599110
v 0.064320 0.720921 -0.399110
v 0.064320 0.820921 -0.599110
v 0.064320 0.820921 -0.399110
v -0.035680 0.620921 -0.599110
v -0.035680 0.620921 -0.499110
v -0.035680 0.620921 -0.399110
v -0.035680 0.620921 -0.199110
v -0.035680 0.720921 -0.599110
v -0.035680 0.720921 -0.499110
v -0.035680 0.720921 -0.399110
v -0.035680 0.720921 -0.199110
v -0.135680 0.120921 -0.499110
v -0.135680 0.120921 -0.399110
v -0.135680 0.320921 -0.499110
v -0.135680 0.320921 -0.399110
v 0.164320 0.120921 -0.499110
v 0.164320 0.120921 -0.399110
v 0.164320 0.320921 -0.499110
v 0.164320 0.320921 -0.399110
v 0.064320 0.620921 -0.599110
v 0.064320 0.620921 -0.499110
v 0.064320 0.620921 -0.399110
v 0.064320 0.620921 -0.199110
v 0.064320 0.720921 -0.599110
v 0.064320 0.720921 -0.499110
v 0.064320 0.720921 -0.399110
v 0.064320 0.720921 -0.199110
v -0.035680 0.520921 -0.599110
v -0.035680 0.520921 -0.499110
v -0.035680 0.620921 -0.599110
v -0.035680 0.620921 -0.499110
v -0.035680 0.720921 -0.599110
v -0.035680 0.720921 -0.399110
v -0.035680 0.820921 -0.599110
v -0.035680 0.820921 -0.399110
v -0.135680 0.620921 -0.599110
v -0.135680 0.620921 -0.499110
v -0.135680 0.620921 -0.399110
v -0.135680 0.720921 -0.599110
v -0.135680 0.720921 -0.399110
v -0.235680 0.120921 -0.499110
v -0.235680 0.120921 -0.399110
v -0.235680 0.320921 -0.499110
v -0.235680 0.320921 -0.399110
v -0.235680 0.820921 -0.299110
v -0.235680 0.820921 -0.199110
v -0.235680 0.820921 0.400890
v -0.235680 0.820921 0.500890
v -0.235680 0.920921 -0.299110
v -0.235680 0.920921 -0.199110
v -0.235680 0.920921 0.400890
v -0.235680 0.920921 0.500890
v -0.335680 0.020921 -0.399110
v -0.335680 0.020921 0.400890
v -0.335680 0.420921 -0.599110
v -0.335680 0.420921 -0.399110
v -0.335680 0.420921 0.400890
v -0.335680 0.420921 0.500890
v -0.335680 0.520921 -0.599110
v -0.335680 0.520921 -0.499110
v -0.335680 0.620921 -0.499110
v -0.335680 0.620921 -0.399110
v -0.335680 0.620921 -0.299110
v -0.335680 0.820921 -0.399110
v -0.335680 0.820921 -0.299110
v -0.335680 0.820921 -0.199110
v -0.335680 0.820921 0.400890
v -0.335680 0.820921 0.500890
v -0.335680 0.920921 -0.199110
v -0.335680 0.920921 0.400890
v -0.435680 0.420921 -0.399110
v -0.435680 0.420921 0.400890
v -0.435680 0.620921 -0.399110
v -0.435680 0.620921 -0.299110
v -0.435680 0.820921 -0.299110
v -0.435680 0.820921 0.400890
v 0.364320 0.420921 -0.599110
v 0.364320 0.520921 -0.599110
v 0.164320 0.620921 -0.599110
v 0.164320 0.720921 -0.599110
v 0.064320 0.520921 -0.599110
v 0.064320 0.620921 -0.599110
v 0.064320 0.720921 -0.599110
v 0.064320 0.820921 -0.599110
v -0.035680 0.520921 -0.599110
v -0.035680 0.620921 -0.599110
v -0.035680 0.720921 -0.599110
v -0.035680 0.820921 -0.599110
v -0.135680 0.620921 -0.599110
v -0.135680 0.720921 -0.599110
v -0.335680 0.420921 -0.599110
v -0.335680 0.520921 -0.599110
v 0.364320 0.520921 -0.499110
v 0.364320 0.620921 -0.499110
v 0.264320 0.120921 -0.499110
v 0.264320 0.320921 -0.499110
v 0.164320 0.120921 -0.499110
v 0.164320 0.320921 -0.499110
v 0.164320 0.620921 -0.499110
v 0.064320 0.520921 -0.499110
v 0.064320 0.620921 -0.499110
v 0.064320 0.720921 -0.499110
v -0.035680 0.520921 -0.499110
v -0.035680 0.620921 -0.499110
v -0.035680 0.720921 -0.499110
v -0.135680 0.120921 -0.499110
v -0.135680 0.320921 -0.499110
v -0.135680 0.620921 -0.499110
v -0.235680 0.120921 -0.499110
v -0.235680 0.320921 -0.499110
v -0.335680 0.520921 -0.499110
v -0.335680 0.620921 -0.499110
v 0.464320 0.420921 -0.399110
v 0.464320 0.620921 -0.399110
v 0.364320 0.020921 -0.399110
v 0.364320 0.420921 -0.399110
v 0.364320 0.620921 -0.399110
v 0.364320 0.820921 -0.399110
v 0.264320 0.120921 -0.399110
v 0.264320 0.320921 -0.399110
v 0.164320 0.120921 -0.399110
v 0.164320 0.320921 -0.399110
v 0.164320 0.620921 -0.399110
v 0.164320 0.720921 -0.399110
v 0.064320 0.720921 -0.399110
v 0.064320 0.820921 -0.399110
v -0.035680 0.720921 -0.399110
v -0.035680 0.820921 -0.399110
v -0.135680 0.120921 -0.399110
v -0.135680 0.320921 -0.399110
v -0.135680 0.620921 -0.399110
v -0.135680 0.720921 -0.399110
v -0.235680 0.120921 -0.399110
v -0.235680 0.320921 -0.399110
v -0.335680 0.020921 -0.399110
v -0.335680 0.420921 -0.399110
v -0.335680 0.620921 -0.399110
v -0.335680 0.820921 -0.399110
v -0.435680 0.420921 -0.399110
v -0.435680 0.620921 -0.399110
v 0.464320 0.620921 -0.299110
v 0.464320 0.820921 -0.299110
v 0.364320 0.620921 -0.299110
v 0.364320 0.820921 -0.299110
v 0.264320 0.820921 -0.299110
v 0.264320 0.920921 -0.299110
v -0.235680 0.820921 -0.299110
v -0.235680 0.920921 -0.299110
v -0.335680 0.620921 -0.299110
v -0.335680 0.820921 -0.299110
v -0.435680 0.620921 -0.299110
v -0.435680 0.820921 -0.299110
v 0.364320 0.820921 -0.199110
v 0.364320 0.920921 -0.199110
v 0.264320 0.820921 -0.199110
v 0.264320 0.920921 -0.199110
v 0.064320 0.620921 -0.199110
v 0.064320 0.720921 -0.199110
v -0.035680 0.620921 -0.199110
v -0.035680 0.720921 -0.199110
v -0.235680 0.820921 -0.199110
v -0.235680 0.920921 -0.199110
v -0.335680 0.820921 -0.199110
v -0.335680 0.920921 -0.199110
v 0.064320 0.620921 -0.399110
v 0.064320 0.720921 -0.399110
v -0.035680 0.620921 -0.399110
v -0.035680 0.720921 -0.399110
v 0.464320 0.420921 0.400890
v 0.464320 0.820921 0.400890
v 0.364320 0.020921 0.400890
v 0.364320 0.420921 0.400890
v 0.364320 0.820921 0.400890
v 0.364320 0.920921 0.400890
v 0.264320 0.820921 0.400890
v 0.264320 0.920921 0.400890
v -0.235680 0.820921 0.400890
v -0.235680 0.920921 0.400890
v -0.335680 0.020921 0.400890
v -0.335680 0.420921 0.400890
v -0.335680 0.820921 0.400890
v -0.335680 0.920921 0.400890
v -0.435680 0.420921 0.400890
v -0.435680 0.820921 0.400890
v 0.364320 0.420921 0.500890
v 0.364320 0.820921 0.500890
v 0.264320 0.820921 0.500890
v 0.264320 0.920921 0.500890
v -0.235680 0.820921 0.500890
v -0.235680 0.920921 0.500890
v -0.335680 0.420921 0.500890
v -0.335680 0.820921 0.500890
v 0.364320 0.020921 -0.399110
v -0.335680 0.020921 -0.399110
v 0.364320 0.020921 0.400890
v -0.335680 0.020921 0.400890
v 0.264320 0.120921 -0.499110
v 0.164320 0.120921 -0.499110
v -0.135680 0.120921 -0.499110
v -0.235680 0.120921 -0.499110
v 0.264320 0.120921 -0.399110
v 0.164320 0.120921 -0.399110
v -0.135680 0.120921 -0.399110
v -0.235680 0.120921 -0.399110
v 0.364320 0.420921 -0.599110
v -0.335680 0.420921 -0.599110
v 0.464320 0.420921 -0.399110
v 0.364320 0.420921 -0.399110
v -0.335680 0.420921 -0.399110
v -0.435680 0.420921 -0.399110
v 0.464320 0.420921 0.400890
v 0.364320 0.420921 0.400890
v -0.335680 0.420921 0.400890
v -0.435680 0.420921 0.400890
v 0.364320 0.420921 0.500890
v -0.335680 0.420921 0.500890
v 0.164320 0.620921 -0.599110
v 0.064320 0.620921 -0.599110
v -0.035680 0.620921 -0.599110
v -0.135680 0.620921 -0.599110
v 0.164320 0.620921 -0.499110
v 0.064320 0.620921 -0.499110
v -0.035680 0.620921 -0.499110
v -0.135680 0.620921 -0.499110
v 0.064320 0.720921 -0.599110
v -0.035680 0.720921 -0.599110
v 0.064320 0.720921 -0.499110
v -0.035680 0.720921 -0.499110
v 0.064320 0.720921 -0.399110
v -0.035680 0.720921 -0.399110
v 0.064320 0.720921 -0.199110
v -0.035680 0.720921 -0.199110
v 0.264320 0.320921 -0.499110
v 0.164320 0.320921 -0.499110
v -0.135680 0.320921 -0.499110
v -0.235680 0.320921 -0.499110
v 0.264320 0.320921 -0.399110
v 0.164320 0.320921 -0.399110
v -0.135680 0.320921 -0.399110
v -0.235680 0.320921 -0.399110
v 0.364320 0.520921 -0.599110
v 0.064320 0.520921 -0.599110
v -0.035680 0.520921 -0.599110
v -0.335680 0.520921 -0.599110
v 0.364320 0.520921 -0.499110
v 0.064320 0.520921 -0.499110
v -0.035680 0.520921 -0.499110
v -0.335680 0.520921 -0.499110
v 0.064320 0.620921 -0.599110
v -0.035680 0.620921 -0.599110
v 0.364320 0.620921 -0.499110
v 0.164320 0.620921 -0.499110
v 0.064320 0.620921 -0.499110
v -0.035680 0.620921 -0.499110
v -0.135680 0.620921 -0.499110
v -0.335680 0.620921 -0.499110
v 0.464320 0.620921 -0.399110
v 0.364320 0.620921 -0.399110
v 0.164320 0.620921 -0.399110
v 0.064320 0.620921 -0.399110
v -0.035680 0.620921 -0.399110
v -0.135680 0.620921 -0.399110
v -0.335680 0.620921 -0.399110
v -0.435680 0.620921 -0.399110
v 0.464320 0.620921 -0.299110
v 0.364320 0.620921 -0.299110
v -0.335680 0.620921 -0.299110
v -0.435680 0.620921 -0.299110
v 0.064320 0.620921 -0.199110
v -0.035680 0.620921 -0.199110
v 0.164320 0.720921 -0.599110
v 0.064320 0.720921 -0.599110
v -0.035680 0.720921 -0.599110
v -0.135680 0.720921 -0.599110
v 0.164320 0.720921 -0.399110
v 0.064320 0.720921 -0.399110
v -0.035680 0.720921 -0.399110
v -0.135680 0.720921 -0.399110
v 0.064320 0.820921 -0.599110
v -0.035680 0.820921 -0.599110
v 0.364320 0.820921 -0.399110
v 0.064320 0.820921 -0.399110
v -0.035680 0.820921 -0.399110
v -0.335680 0.820921 -0.399110
v 0.464320 0.820921 -0.299110
v 0.364320 0.820921 -0.299110
v 0.264320 0.820921 -0.299110
v -0.235680 0.820921 -0.299110
v -0.335680 0.820921 -0.299110
v -0.435680 0.820921 -0.299110
v 0.364320 0.820921 -0.199110
v 0.264320 0.820921 -0.199110
v -0.235680 0.820921 -0.199110
v -0.335680 0.820921 -0.199110
v 0.464320 0.820921 0.400890
v 0.364320 0.820921 0.400890
v 0.264320 0.820921 0.400890
v -0.235680 0.820921 0.400890
v -0.335680 0.820921 0.400890
v -0.435680 0.820921 0.400890
v 0.364320 0.820921 0.500890
v 0.264320 0.820921 0.500890
v -0.235680 0.820921 0.500890
v -0.335680 0.820921 0.500890
v 0.264320 0.920921 -0.299110
v -0.235680 0.920921 -0.299110
v 0.364320 0.920921 -0.199110
v 0.264320 0.920921 -0.199110
v -0.235680 0.920921 -0.199110
v -0.335680 0.920921 -0.199110
v 0.364320 0.920921 0.400890
v 0.264320 0.920921 0.400890
v -0.235680 0.920921 0.400890
v -0.335680 0.920921 0.400890
v 0.264320 0.920921 0.500890
v -0.235680 0.920921 0.500890
vn 1.0000 -0.0000 -0.0000
vn -1.0000 -0.0000 -0.0000
vn -0.0000 -0.0000 -1.0000
vn -0.0000 -0.0000 1.0000
vn -0.0000 -1.0000 -0.0000
vn -0.0000 1.0000 -0.0000
vt 0.021484 0.500000
vt 0.958984 0.500000
vt 0.990234 0.500000
vt 0.966797 0.500000
s 1
usemtl palette
f 3/1/1 2/1/1 1/1/1
f 4/1/1 2/1/1 3/1/1
f 5/1/1 2/1/1 4/1/1
f 6/1/1 2/1/1 5/1/1
f 10/2/1 8/2/1 7/2/1
f 11/2/1 8/2/1 10/2/1
f 13/1/1 10/1/1 9/1/1
f 14/1/1 10/1/1 13/1/1
f 15/1/1 10/1/1 14/1/1
f 16/1/1 10/1/1 15/1/1
f 18/1/1 17/1/1 16/1/1
f 19/1/1 17/1/1 18/1/1
f 21/1/1 12/1/1 11/1/1
f 22/1/1 12/1/1 21/1/1
f 23/1/1 21/1/1 20/1/1
f 24/1/1 21/1/1 23/1/1
f 27/3/1 26/3/1 25/3/1
f 28/3/1 26/3/1 27/3/1
f 33/1/1 30/1/1 29/1/1
f 34/1/1 30/1/1 33/1/1
f 35/1/1 32/1/1 31/1/1
f 36/1/1 32/1/1 35/1/1
f 40/3/1 38/3/1 37/3/1
f 40/3/1 39/3/1 38/3/1
f 41/3/1 39/3/1 40/3/1
f 44/3/1 43/3/1 42/3/1
f 45/3/1 43/3/1 44/3/1
f 48/3/1 47/3/1 46/3/1
f 49/3/1 47/3/1 48/3/1
f 54/3/1 51/3/1 50/3/1
f 55/3/1 51/3/1 54/3/1
f 56/1/1 53/1/1 52/1/1
f 57/1/1 53/1/1 56/1/1
f 60/3/1 59/3/1 58/3/1
f 61/3/1 59/3/1 60/3/1
f 62/3/2 63/3/2 64/3/2
f 64/3/2 63/3/2 65/3/2
f 66/3/2 67/3/2 70/3/2
f 70/3/2 67/3/2 71/3/2
f 68/1/2 69/1/2 72/1/2
f 72/1/2 69/1/2 73/1/2
f 74/3/2 75/3/2 76/3/2
f 76/3/2 75/3/2 77/3/2
f 78/3/2 79/3/2 80/3/2
f 80/3/2 79/3/2 81/3/2
f 82/3/2 83/3/2 85/3/2
f 83/3/2 84/3/2 85/3/2
f 85/3/2 84/3/2 86/3/2
f 87/3/2 88/3/2 89/3/2
f 89/3/2 88/3/2 90/3/2
f 91/1/2 92/1/2 95/1/2
f 95/1/2 92/1/2 96/1/2
f 93/1/2 94/1/2 97/1/2
f 97/1/2 94/1/2 98/1/2
f 99/2/2 100/2/2 102/2/2
f 102/2/2 100/2/2 103/2/2
f 101/1/2 102/1/2 105/1/2
f 105/1/2 102/1/2 106/1/2
f 106/1/2 102/1/2 107/1/2
f 107/1/2 102/1/2 108/1/2
f 108/1/2 109/1/2 110/1/2
f 110/1/2 109/1/2 111/1/2
f 103/1/2 104/1/2 113/1/2
f 113/1/2 104/1/2 114/1/2
f 112/1/2 113/1/2 115/1/2
f 115/1/2 113/1/2 116/1/2
f 117/1/2 118/1/2 119/1/2
f 119/1/2 118/1/2 120/1/2
f 120/1/2 118/1/2 121/1/2
f 121/1/2 118/1/2 122/1/2
f 127/1/3 124/1/3 123/1/3
f 128/3/3 126/3/3 125/3/3
f 129/3/3 126/3/3 128/3/3
f 131/1/3 127/1/3 123/1/3
f 131/3/3 128/3/3 127/3/3
f 132/3/3 128/3/3 131/3/3
f 133/3/3 130/3/3 129/3/3
f 134/3/3 130/3/3 133/3/3
f 135/3/3 133/3/3 132/3/3
f 136/3/3 133/3/3 135/3/3
f 137/1/3 131/1/3 123/1/3
f 138/1/3 131/1/3 137/1/3
f 143/3/3 142/3/3 141/3/3
f 144/3/3 142/3/3 143/3/3
f 145/1/3 140/1/3 139/1/3
f 146/1/3 145/1/3 139/1/3
f 147/1/3 145/1/3 146/1/3
f 150/4/3 148/4/3 147/4/3
f 151/4/3 148/4/3 150/4/3
f 154/1/3 150/1/3 149/1/3
f 155/3/3 153/3/3 152/3/3
f 156/3/3 153/3/3 155/3/3
f 157/1/3 154/1/3 149/1/3
f 158/1/3 154/1/3 157/1/3
f 162/1/3 160/1/3 159/1/3
f 163/1/3 160/1/3 162/1/3
f 165/2/3 162/2/3 161/2/3
f 166/2/3 162/2/3 165/2/3
f 167/2/3 165/2/3 161/2/3
f 168/2/3 162/2/3 166/2/3
f 169/1/3 164/1/3 163/1/3
f 170/1/3 164/1/3 169/1/3
f 171/1/3 164/1/3 170/1/3
f 172/1/3 164/1/3 171/1/3
f 175/2/3 168/2/3 167/2/3
f 175/2/3 167/2/3 161/2/3
f 176/2/3 162/2/3 168/2/3
f 176/2/3 168/2/3 175/2/3
f 178/1/3 174/1/3 173/1/3
f 179/2/3 175/2/3 161/2/3
f 180/2/3 162/2/3 176/2/3
f 181/2/3 179/2/3 161/2/3
f 181/2/3 180/2/3 179/2/3
f 182/2/3 162/2/3 180/2/3
f 182/2/3 180/2/3 181/2/3
f 183/1/3 178/1/3 177/1/3
f 184/1/3 174/1/3 178/1/3
f 184/1/3 178/1/3 183/1/3
f 185/1/3 183/1/3 182/1/3
f 186/1/3 183/1/3 185/1/3
f 189/1/3 188/1/3 187/1/3
f 190/1/3 188/1/3 189/1/3
f 193/1/3 192/1/3 191/1/3
f 194/1/3 192/1/3 193/1/3
f 197/1/3 196/1/3 195/1/3
f 198/1/3 196/1/3 197/1/3
f 201/1/3 200/1/3 199/1/3
f 202/1/3 200/1/3 201/1/3
f 205/1/3 204/1/3 203/1/3
f 206/1/3 204/1/3 205/1/3
f 209/1/3 208/1/3 207/1/3
f 210/1/3 208/1/3 209/1/3
f 211/4/4 212/4/4 213/4/4
f 213/4/4 212/4/4 214/4/4
f 215/1/4 216/1/4 218/1/4
f 218/1/4 216/1/4 219/1/4
f 219/1/4 220/1/4 221/1/4
f 221/1/4 220/1/4 222/1/4
f 217/2/4 218/2/4 225/2/4
f 225/2/4 218/2/4 226/2/4
f 223/1/4 224/1/4 227/1/4
f 227/1/4 224/1/4 228/1/4
f 226/1/4 227/1/4 229/1/4
f 229/1/4 227/1/4 230/1/4
f 231/1/4 232/1/4 233/1/4
f 231/1/4 233/1/4 235/1/4
f 233/1/4 234/1/4 235/1/4
f 235/1/4 234/1/4 236/1/4
f 231/1/4 235/1/4 237/1/4
f 237/1/4 235/1/4 238/1/4
f 241/2/5 240/2/5 239/2/5
f 242/2/5 240/2/5 241/2/5
f 247/3/5 244/3/5 243/3/5
f 248/3/5 244/3/5 247/3/5
f 249/3/5 246/3/5 245/3/5
f 250/3/5 246/3/5 249/3/5
f 254/1/5 252/1/5 251/1/5
f 255/1/5 252/1/5 254/1/5
f 257/1/5 254/1/5 253/1/5
f 258/1/5 254/1/5 257/1/5
f 259/1/5 256/1/5 255/1/5
f 260/1/5 256/1/5 259/1/5
f 261/1/5 259/1/5 258/1/5
f 262/1/5 259/1/5 261/1/5
f 267/3/5 264/3/5 263/3/5
f 268/3/5 264/3/5 267/3/5
f 269/3/5 266/3/5 265/3/5
f 270/3/5 266/3/5 269/3/5
f 273/3/5 272/3/5 271/3/5
f 274/3/5 272/3/5 273/3/5
f 277/1/5 276/1/5 275/1/5
f 278/1/5 276/1/5 277/1/5
f 279/3/6 280/3/6 283/3/6
f 283/3/6 280/3/6 284/3/6
f 281/3/6 282/3/6 285/3/6
f 285/3/6 282/3/6 286/3/6
f 287/1/6 288/1/6 291/1/6
f 291/1/6 288/1/6 292/1/6
f 289/1/6 290/1/6 293/1/6
f 293/1/6 290/1/6 294/1/6
f 295/3/6 296/3/6 299/3/6
f 299/3/6 296/3/6 300/3/6
f 297/1/6 298/1/6 304/1/6
f 304/1/6 298/1/6 305/1/6
f 301/1/6 302/1/6 308/1/6
f 308/1/6 302/1/6 309/1/6
f 303/1/6 304/1/6 311/1/6
f 311/1/6 304/1/6 312/1/6
f 309/1/6 310/1/6 313/1/6
f 313/1/6 310/1/6 314/1/6
f 306/1/6 307/1/6 315/1/6
f 315/1/6 307/1/6 316/1/6
f 317/3/6 318/3/6 321/3/6
f 321/3/6 318/3/6 322/3/6
f 319/3/6 320/3/6 323/3/6
f 323/3/6 320/3/6 324/3/6
f 325/3/6 326/3/6 328/3/6
f 328/3/6 326/3/6 329/3/6
f 327/1/6 328/1/6 332/1/6
f 329/1/6 330/1/6 332/1/6
f 328/1/6 329/1/6 332/1/6
f 332/1/6 330/1/6 333/1/6
f 333/1/6 330/1/6 334/1/6
f 334/1/6 330/1/6 335/1/6
f 331/1/6 332/1/6 337/1/6
f 332/1/6 333/1/6 337/1/6
f 337/1/6 333/1/6 338/1/6
f 335/1/6 336/1/6 339/1/6
f 334/1/6 335/1/6 339/1/6
f 339/1/6 336/1/6 340/1/6
f 331/1/6 337/1/6 341/1/6
f 341/1/6 337/1/6 342/1/6
f 340/1/6 336/1/6 345/1/6
f 345/1/6 336/1/6 346/1/6
f 342/1/6 343/1/6 347/1/6
f 347/1/6 343/1/6 348/1/6
f 344/1/6 345/1/6 349/1/6
f 349/1/6 345/1/6 350/1/6
f 351/1/6 352/1/6 354/1/6
f 354/1/6 352/1/6 355/1/6
f 353/1/6 354/1/6 357/1/6
f 355/1/6 356/1/6 357/1/6
f 354/1/6 355/1/6 357/1/6
f 357/1/6 356/1/6 358/1/6
f 358/1/6 356/1/6 359/1/6
f 359/1/6 356/1/6 360/1/6
f 358/1/6 359/1/6 361/1/6
f 361/1/6 359/1/6 362/1/6
