# Blender 5.0.1
# www.blender.org
mtllib Bow.mtl
o Untitled.001
v -2.800000 0.800000 0.400000
v -2.800000 0.800000 -0.000000
v -2.800000 1.200000 0.400000
v -2.800000 1.200000 -0.000000
v -2.600000 0.600000 0.400000
v -2.600000 0.600000 -0.000000
v -2.600000 0.800000 0.600000
v -2.600000 0.800000 0.400000
v -2.600000 0.800000 -0.000000
v -2.600000 1.200000 0.600000
v -2.600000 1.200000 0.400000
v -2.600000 1.200000 -0.000000
v -2.600000 1.400000 0.400000
v -2.600000 1.400000 -0.000000
v -2.400000 0.600000 -0.000000
v -2.400000 0.600000 -0.200000
v -2.400000 0.800000 -0.200000
v -2.400000 0.800000 -0.400000
v -2.400000 1.200000 -0.200000
v -2.400000 1.200000 -0.400000
v -2.400000 1.400000 -0.000000
v -2.400000 1.400000 -0.200000
v -2.200000 0.600000 -0.200000
v -2.200000 0.600000 -0.400000
v -2.200000 0.800000 -0.200000
v -2.200000 0.800000 -0.400000
v -2.200000 1.200000 -0.200000
v -2.200000 1.200000 -0.400000
v -2.200000 1.400000 -0.200000
v -2.200000 1.400000 -0.400000
v -1.600000 0.600000 -0.400000
v -1.600000 0.600000 -0.600000
v -1.600000 0.800000 -0.600000
v -1.600000 0.800000 -0.800000
v -1.600000 1.200000 -0.600000
v -1.600000 1.200000 -0.800000
v -1.600000 1.400000 -0.400000
v -1.600000 1.400000 -0.600000
v -1.400000 0.600000 -0.600000
v -1.400000 0.600000 -0.800000
v -1.400000 0.800000 -0.600000
v -1.400000 0.800000 -0.800000
v -1.400000 1.200000 -0.600000
v -1.400000 1.200000 -0.800000
v -1.400000 1.400000 -0.600000
v -1.400000 1.400000 -0.800000
v -0.800000 0.600000 -0.800000
v -0.800000 0.600000 -1.000000
v -0.800000 0.800000 -1.000000
v -0.800000 0.800000 -1.200000
v -0.800000 1.200000 -1.000000
v -0.800000 1.200000 -1.200000
v -0.800000 1.400000 -0.800000
v -0.800000 1.400000 -1.000000
v -0.600000 0.600000 -1.000000
v -0.600000 0.600000 -1.200000
v -0.600000 0.600000 -1.400000
v -0.600000 0.600000 -1.800000
v -0.600000 0.800000 -1.000000
v -0.600000 0.800000 -1.200000
v -0.600000 1.200000 -1.000000
v -0.600000 1.200000 -1.200000
v -0.600000 1.400000 -1.000000
v -0.600000 1.400000 -1.200000
v -0.600000 1.400000 -1.400000
v -0.600000 1.400000 -1.800000
v -0.400000 0.600000 -1.200000
v -0.400000 0.600000 -1.400000
v -0.400000 0.600000 -1.800000
v -0.400000 0.600000 -2.000000
v -0.400000 0.800000 -0.000000
v -0.400000 0.800000 -0.800000
v -0.400000 1.200000 -0.000000
v -0.400000 1.200000 -0.800000
v -0.400000 1.400000 -1.200000
v -0.400000 1.400000 -1.400000
v -0.400000 1.400000 -1.800000
v -0.400000 1.400000 -2.000000
v -0.200000 0.600000 -0.200000
v -0.200000 0.600000 -0.800000
v -0.200000 0.800000 1.800000
v -0.200000 0.800000 0.400000
v -0.200000 0.800000 0.200000
v -0.200000 0.800000 -0.000000
v -0.200000 0.800000 -0.200000
v -0.200000 0.800000 -0.800000
v -0.200000 1.200000 1.800000
v -0.200000 1.200000 0.400000
v -0.200000 1.200000 0.200000
v -0.200000 1.200000 -0.000000
v -0.200000 1.200000 -0.200000
v -0.200000 1.200000 -0.800000
v -0.200000 1.400000 -0.200000
v -0.200000 1.400000 -0.800000
v 0.200000 0.600000 -1.000000
v 0.200000 0.600000 -1.200000
v 0.200000 0.600000 -1.400000
v 0.200000 0.800000 -1.000000
v 0.200000 0.800000 -1.200000
v 0.200000 1.200000 -1.000000
v 0.200000 1.200000 -1.200000
v 0.200000 1.400000 -1.000000
v 0.200000 1.400000 -1.200000
v 0.200000 1.400000 -1.400000
v 0.400000 0.600000 -1.400000
v 0.400000 0.600000 -1.800000
v 0.400000 1.400000 -1.400000
v 0.400000 1.400000 -1.800000
v 0.600000 0.600000 -0.600000
v 0.600000 0.600000 -0.800000
v 0.600000 0.800000 -0.400000
v 0.600000 0.800000 -0.600000
v 0.600000 1.200000 -0.400000
v 0.600000 1.200000 -0.600000
v 0.600000 1.400000 -0.600000
v 0.600000 1.400000 -0.800000
v 0.800000 0.600000 -0.400000
v 0.800000 0.600000 -0.600000
v 0.800000 0.800000 -0.400000
v 0.800000 0.800000 -0.600000
v 0.800000 1.200000 -0.400000
v 0.800000 1.200000 -0.600000
v 0.800000 1.400000 -0.400000
v 0.800000 1.400000 -0.600000
v 1.400000 0.600000 -0.200000
v 1.400000 0.600000 -0.400000
v 1.400000 0.800000 -0.000000
v 1.400000 0.800000 -0.200000
v 1.400000 1.200000 -0.000000
v 1.400000 1.200000 -0.200000
v 1.400000 1.400000 -0.200000
v 1.400000 1.400000 -0.400000
v 1.600000 0.600000 -0.000000
v 1.600000 0.600000 -0.200000
v 1.600000 0.800000 -0.000000
v 1.600000 0.800000 -0.200000
v 1.600000 1.200000 -0.000000
v 1.600000 1.200000 -0.200000
v 1.600000 1.400000 -0.000000
v 1.600000 1.400000 -0.200000
v 2.200000 0.600000 0.400000
v 2.200000 0.600000 -0.000000
v 2.200000 0.800000 0.600000
v 2.200000 0.800000 0.400000
v 2.200000 0.800000 0.200000
v 2.200000 1.200000 0.600000
v 2.200000 1.200000 0.400000
v 2.200000 1.200000 0.200000
v 2.200000 1.400000 0.400000
v 2.200000 1.400000 -0.000000
v -2.200000 0.600000 0.400000
v -2.200000 0.600000 -0.000000
v -2.200000 0.800000 0.600000
v -2.200000 0.800000 0.400000
v -2.200000 0.800000 0.200000
v -2.200000 1.200000 0.600000
v -2.200000 1.200000 0.400000
v -2.200000 1.200000 0.200000
v -2.200000 1.400000 0.400000
v -2.200000 1.400000 -0.000000
v -1.600000 0.600000 -0.000000
v -1.600000 0.600000 -0.200000
v -1.600000 0.800000 -0.000000
v -1.600000 0.800000 -0.200000
v -1.600000 1.200000 -0.000000
v -1.600000 1.200000 -0.200000
v -1.600000 1.400000 -0.000000
v -1.600000 1.400000 -0.200000
v -1.400000 0.600000 -0.200000
v -1.400000 0.600000 -0.400000
v -1.400000 0.800000 -0.000000
v -1.400000 0.800000 -0.200000
v -1.400000 1.200000 -0.000000
v -1.400000 1.200000 -0.200000
v -1.400000 1.400000 -0.200000
v -1.400000 1.400000 -0.400000
v -0.800000 0.600000 -0.400000
v -0.800000 0.600000 -0.600000
v -0.800000 0.800000 -0.400000
v -0.800000 0.800000 -0.600000
v -0.800000 1.200000 -0.400000
v -0.800000 1.200000 -0.600000
v -0.800000 1.400000 -0.400000
v -0.800000 1.400000 -0.600000
v -0.600000 0.600000 -0.600000
v -0.600000 0.600000 -0.800000
v -0.600000 0.800000 -0.400000
v -0.600000 0.800000 -0.600000
v -0.600000 1.200000 -0.400000
v -0.600000 1.200000 -0.600000
v -0.600000 1.400000 -0.600000
v -0.600000 1.400000 -0.800000
v -0.400000 0.600000 -1.400000
v -0.400000 0.600000 -1.800000
v -0.400000 1.400000 -1.400000
v -0.400000 1.400000 -1.800000
v -0.200000 0.600000 -1.000000
v -0.200000 0.600000 -1.200000
v -0.200000 0.600000 -1.400000
v -0.200000 0.800000 -1.000000
v -0.200000 0.800000 -1.200000
v -0.200000 1.200000 -1.000000
v -0.200000 1.200000 -1.200000
v -0.200000 1.400000 -1.000000
v -0.200000 1.400000 -1.200000
v -0.200000 1.400000 -1.400000
v 0.200000 0.600000 -0.200000
v 0.200000 0.600000 -0.800000
v 0.200000 0.800000 1.800000
v 0.200000 0.800000 0.400000
v 0.200000 0.800000 0.200000
v 0.200000 0.800000 -0.000000
v 0.200000 0.800000 -0.200000
v 0.200000 0.800000 -0.800000
v 0.200000 1.200000 1.800000
v 0.200000 1.200000 0.400000
v 0.200000 1.200000 0.200000
v 0.200000 1.200000 -0.000000
v 0.200000 1.200000 -0.200000
v 0.200000 1.200000 -0.800000
v 0.200000 1.400000 -0.200000
v 0.200000 1.400000 -0.800000
v 0.400000 0.600000 -1.200000
v 0.400000 0.600000 -1.400000
v 0.400000 0.600000 -1.800000
v 0.400000 0.600000 -2.000000
v 0.400000 0.800000 -0.000000
v 0.400000 0.800000 -0.800000
v 0.400000 1.200000 -0.000000
v 0.400000 1.200000 -0.800000
v 0.400000 1.400000 -1.200000
v 0.400000 1.400000 -1.400000
v 0.400000 1.400000 -1.800000
v 0.400000 1.400000 -2.000000
v 0.600000 0.600000 -1.000000
v 0.600000 0.600000 -1.200000
v 0.600000 0.600000 -1.400000
v 0.600000 0.600000 -1.800000
v 0.600000 0.800000 -1.000000
v 0.600000 0.800000 -1.200000
v 0.600000 1.200000 -1.000000
v 0.600000 1.200000 -1.200000
v 0.600000 1.400000 -1.000000
v 0.600000 1.400000 -1.200000
v 0.600000 1.400000 -1.400000
v 0.600000 1.400000 -1.800000
v 0.800000 0.600000 -0.800000
v 0.800000 0.600000 -1.000000
v 0.800000 0.800000 -1.000000
v 0.800000 0.800000 -1.200000
v 0.800000 1.200000 -1.000000
v 0.800000 1.200000 -1.200000
v 0.800000 1.400000 -0.800000
v 0.800000 1.400000 -1.000000
v 1.400000 0.600000 -0.600000
v 1.400000 0.600000 -0.800000
v 1.400000 0.800000 -0.600000
v 1.400000 0.800000 -0.800000
v 1.400000 1.200000 -0.600000
v 1.400000 1.200000 -0.800000
v 1.400000 1.400000 -0.600000
v 1.400000 1.400000 -0.800000
v 1.600000 0.600000 -0.400000
v 1.600000 0.600000 -0.600000
v 1.600000 0.800000 -0.600000
v 1.600000 0.800000 -0.800000
v 1.600000 1.200000 -0.600000
v 1.600000 1.200000 -0.800000
v 1.600000 1.400000 -0.400000
v 1.600000 1.400000 -0.600000
v 2.200000 0.600000 -0.200000
v 2.200000 0.600000 -0.400000
v 2.200000 0.800000 -0.200000
v 2.200000 0.800000 -0.400000
v 2.200000 1.200000 -0.200000
v 2.200000 1.200000 -0.400000
v 2.200000 1.400000 -0.200000
v 2.200000 1.400000 -0.400000
v 2.400000 0.600000 -0.000000
v 2.400000 0.600000 -0.200000
v 2.400000 0.800000 -0.200000
v 2.400000 0.800000 -0.400000
v 2.400000 1.200000 -0.200000
v 2.400000 1.200000 -0.400000
v 2.400000 1.400000 -0.000000
v 2.400000 1.400000 -0.200000
v 2.600000 0.600000 0.400000
v 2.600000 0.600000 -0.000000
v 2.600000 0.800000 0.600000
v 2.600000 0.800000 0.400000
v 2.600000 0.800000 -0.000000
v 2.600000 1.200000 0.600000
v 2.600000 1.200000 0.400000
v 2.600000 1.200000 -0.000000
v 2.600000 1.400000 0.400000
v 2.600000 1.400000 -0.000000
v 2.800000 0.800000 0.400000
v 2.800000 0.800000 -0.000000
v 2.800000 1.200000 0.400000
v 2.800000 1.200000 -0.000000
v -0.200000 0.800000 1.800000
v -0.200000 1.200000 1.800000
v 0.200000 0.800000 1.800000
v 0.200000 1.200000 1.800000
v -2.600000 0.800000 0.600000
v -2.600000 1.200000 0.600000
v -2.200000 0.800000 0.600000
v -2.200000 1.200000 0.600000
v 2.200000 0.800000 0.600000
v 2.200000 1.200000 0.600000
v 2.600000 0.800000 0.600000
v 2.600000 1.200000 0.600000
v -2.800000 0.800000 0.400000
v -2.800000 1.200000 0.400000
v -2.600000 0.600000 0.400000
v -2.600000 0.800000 0.400000
v -2.600000 1.200000 0.400000
v -2.600000 1.400000 0.400000
v -2.200000 0.600000 0.400000
v -2.200000 0.800000 0.400000
v -2.200000 1.200000 0.400000
v -2.200000 1.400000 0.400000
v -0.200000 0.800000 0.400000
v -0.200000 1.200000 0.400000
v 0.200000 0.800000 0.400000
v 0.200000 1.200000 0.400000
v 2.200000 0.600000 0.400000
v 2.200000 0.800000 0.400000
v 2.200000 1.200000 0.400000
v 2.200000 1.400000 0.400000
v 2.600000 0.600000 0.400000
v 2.600000 0.800000 0.400000
v 2.600000 1.200000 0.400000
v 2.600000 1.400000 0.400000
v 2.800000 0.800000 0.400000
v 2.800000 1.200000 0.400000
v -2.200000 0.600000 -0.000000
v -2.200000 1.400000 -0.000000
v -1.600000 0.600000 -0.000000
v -1.600000 0.800000 -0.000000
v -1.600000 1.200000 -0.000000
v -1.600000 1.400000 -0.000000
v -1.400000 0.800000 -0.000000
v -1.400000 1.200000 -0.000000
v -0.400000 0.800000 -0.000000
v -0.400000 1.200000 -0.000000
v -0.200000 0.800000 -0.000000
v -0.200000 1.200000 -0.000000
v 0.200000 0.800000 -0.000000
v 0.200000 1.200000 -0.000000
v 0.400000 0.800000 -0.000000
v 0.400000 1.200000 -0.000000
v 1.400000 0.800000 -0.000000
v 1.400000 1.200000 -0.000000
v 1.600000 0.600000 -0.000000
v 1.600000 0.800000 -0.000000
v 1.600000 1.200000 -0.000000
v 1.600000 1.400000 -0.000000
v 2.200000 0.600000 -0.000000
v 2.200000 1.400000 -0.000000
v -1.600000 0.600000 -0.200000
v -1.600000 0.800000 -0.200000
v -1.600000 1.200000 -0.200000
v -1.600000 1.400000 -0.200000
v -1.400000 0.600000 -0.200000
v -1.400000 0.800000 -0.200000
v -1.400000 1.200000 -0.200000
v -1.400000 1.400000 -0.200000
v -0.200000 0.600000 -0.200000
v -0.200000 0.800000 -0.200000
v -0.200000 1.200000 -0.200000
v -0.200000 1.400000 -0.200000
v 0.200000 0.600000 -0.200000
v 0.200000 0.800000 -0.200000
v 0.200000 1.200000 -0.200000
v 0.200000 1.400000 -0.200000
v 1.400000 0.600000 -0.200000
v 1.400000 0.800000 -0.200000
v 1.400000 1.200000 -0.200000
v 1.400000 1.400000 -0.200000
v 1.600000 0.600000 -0.200000
v 1.600000 0.800000 -0.200000
v 1.600000 1.200000 -0.200000
v 1.600000 1.400000 -0.200000
v -1.400000 0.600000 -0.400000
v -1.400000 1.400000 -0.400000
v -0.800000 0.600000 -0.400000
v -0.800000 0.800000 -0.400000
v -0.800000 1.200000 -0.400000
v -0.800000 1.400000 -0.400000
v -0.600000 0.800000 -0.400000
v -0.600000 1.200000 -0.400000
v 0.600000 0.800000 -0.400000
v 0.600000 1.200000 -0.400000
v 0.800000 0.600000 -0.400000
v 0.800000 0.800000 -0.400000
v 0.800000 1.200000 -0.400000
v 0.800000 1.400000 -0.400000
v 1.400000 0.600000 -0.400000
v 1.400000 1.400000 -0.400000
v -0.800000 0.600000 -0.600000
v -0.800000 0.800000 -0.600000
v -0.800000 1.200000 -0.600000
v -0.800000 1.400000 -0.600000
v -0.600000 0.600000 -0.600000
v -0.600000 0.800000 -0.600000
v -0.600000 1.200000 -0.600000
v -0.600000 1.400000 -0.600000
v 0.600000 0.600000 -0.600000
v 0.600000 0.800000 -0.600000
v 0.600000 1.200000 -0.600000
v 0.600000 1.400000 -0.600000
v 0.800000 0.600000 -0.600000
v 0.800000 0.800000 -0.600000
v 0.800000 1.200000 -0.600000
v 0.800000 1.400000 -0.600000
v -0.600000 0.600000 -0.800000
v -0.600000 1.400000 -0.800000
v -0.400000 0.800000 -0.800000
v -0.400000 1.200000 -0.800000
v -0.200000 0.600000 -0.800000
v -0.200000 0.800000 -0.800000
v -0.200000 1.200000 -0.800000
v -0.200000 1.400000 -0.800000
v 0.200000 0.600000 -0.800000
v 0.200000 0.800000 -0.800000
v 0.200000 1.200000 -0.800000
v 0.200000 1.400000 -0.800000
v 0.400000 0.800000 -0.800000
v 0.400000 1.200000 -0.800000
v 0.600000 0.600000 -0.800000
v 0.600000 1.400000 -0.800000
v -0.600000 0.600000 -1.400000
v -0.600000 1.400000 -1.400000
v -0.400000 0.600000 -1.400000
v -0.400000 1.400000 -1.400000
v 0.400000 0.600000 -1.400000
v 0.400000 1.400000 -1.400000
v 0.600000 0.600000 -1.400000
v 0.600000 1.400000 -1.400000
v -0.400000 0.600000 -1.800000
v -0.400000 1.400000 -1.800000
v 0.400000 0.600000 -1.800000
v 0.400000 1.400000 -1.800000
v -2.200000 0.800000 0.200000
v -2.200000 1.200000 0.200000
v -0.200000 0.800000 0.200000
v -0.200000 1.200000 0.200000
v 0.200000 0.800000 0.200000
v 0.200000 1.200000 0.200000
v 2.200000 0.800000 0.200000
v 2.200000 1.200000 0.200000
v -2.800000 0.800000 -0.000000
v -2.800000 1.200000 -0.000000
v -2.600000 0.600000 -0.000000
v -2.600000 0.800000 -0.000000
v -2.600000 1.200000 -0.000000
v -2.600000 1.400000 -0.000000
v -2.400000 0.600000 -0.000000
v -2.400000 1.400000 -0.000000
v 2.400000 0.600000 -0.000000
v 2.400000 1.400000 -0.000000
v 2.600000 0.600000 -0.000000
v 2.600000 0.800000 -0.000000
v 2.600000 1.200000 -0.000000
v 2.600000 1.400000 -0.000000
v 2.800000 0.800000 -0.000000
v 2.800000 1.200000 -0.000000
v -2.400000 0.600000 -0.200000
v -2.400000 0.800000 -0.200000
v -2.400000 1.200000 -0.200000
v -2.400000 1.400000 -0.200000
v -2.200000 0.600000 -0.200000
v -2.200000 0.800000 -0.200000
v -2.200000 1.200000 -0.200000
v -2.200000 1.400000 -0.200000
v 2.200000 0.600000 -0.200000
v 2.200000 0.800000 -0.200000
v 2.200000 1.200000 -0.200000
v 2.200000 1.400000 -0.200000
v 2.400000 0.600000 -0.200000
v 2.400000 0.800000 -0.200000
v 2.400000 1.200000 -0.200000
v 2.400000 1.400000 -0.200000
v -2.400000 0.800000 -0.400000
v -2.400000 1.200000 -0.400000
v -2.200000 0.600000 -0.400000
v -2.200000 0.800000 -0.400000
v -2.200000 1.200000 -0.400000
v -2.200000 1.400000 -0.400000
v -1.600000 0.600000 -0.400000
v -1.600000 1.400000 -0.400000
v 1.600000 0.600000 -0.400000
v 1.600000 1.400000 -0.400000
v 2.200000 0.600000 -0.400000
v 2.200000 0.800000 -0.400000
v 2.200000 1.200000 -0.400000
v 2.200000 1.400000 -0.400000
v 2.400000 0.800000 -0.400000
v 2.400000 1.200000 -0.400000
v -1.600000 0.600000 -0.600000
v -1.600000 0.800000 -0.600000
v -1.600000 1.200000 -0.600000
v -1.600000 1.400000 -0.600000
v -1.400000 0.600000 -0.600000
v -1.400000 0.800000 -0.600000
v -1.400000 1.200000 -0.600000
v -1.400000 1.400000 -0.600000
v 1.400000 0.600000 -0.600000
v 1.400000 0.800000 -0.600000
v 1.400000 1.200000 -0.600000
v 1.400000 1.400000 -0.600000
v 1.600000 0.600000 -0.600000
v 1.600000 0.800000 -0.600000
v 1.600000 1.200000 -0.600000
v 1.600000 1.400000 -0.600000
v -1.600000 0.800000 -0.800000
v -1.600000 1.200000 -0.800000
v -1.400000 0.600000 -0.800000
v -1.400000 0.800000 -0.800000
v -1.400000 1.200000 -0.800000
v -1.400000 1.400000 -0.800000
v -0.800000 0.600000 -0.800000
v -0.800000 1.400000 -0.800000
v 0.800000 0.600000 -0.800000
v 0.800000 1.400000 -0.800000
v 1.400000 0.600000 -0.800000
v 1.400000 0.800000 -0.800000
v 1.400000 1.200000 -0.800000
v 1.400000 1.400000 -0.800000
v 1.600000 0.800000 -0.800000
v 1.600000 1.200000 -0.800000
v -0.800000 0.600000 -1.000000
v -0.800000 0.800000 -1.000000
v -0.800000 1.200000 -1.000000
v -0.800000 1.400000 -1.000000
v -0.600000 0.600000 -1.000000
v -0.600000 0.800000 -1.000000
v -0.600000 1.200000 -1.000000
v -0.600000 1.400000 -1.000000
v -0.200000 0.600000 -1.000000
v -0.200000 0.800000 -1.000000
v -0.200000 1.200000 -1.000000
v -0.200000 1.400000 -1.000000
v 0.200000 0.600000 -1.000000
v 0.200000 0.800000 -1.000000
v 0.200000 1.200000 -1.000000
v 0.200000 1.400000 -1.000000
v 0.600000 0.600000 -1.000000
v 0.600000 0.800000 -1.000000
v 0.600000 1.200000 -1.000000
v 0.600000 1.400000 -1.000000
v 0.800000 0.600000 -1.000000
v 0.800000 0.800000 -1.000000
v 0.800000 1.200000 -1.000000
v 0.800000 1.400000 -1.000000
v -0.800000 0.800000 -1.200000
v -0.800000 1.200000 -1.200000
v -0.600000 0.600000 -1.200000
v -0.600000 0.800000 -1.200000
v -0.600000 1.200000 -1.200000
v -0.600000 1.400000 -1.200000
v -0.400000 0.600000 -1.200000
v -0.400000 1.400000 -1.200000
v -0.200000 0.800000 -1.200000
v -0.200000 1.200000 -1.200000
v 0.200000 0.800000 -1.200000
v 0.200000 1.200000 -1.200000
v 0.400000 0.600000 -1.200000
v 0.400000 1.400000 -1.200000
v 0.600000 0.600000 -1.200000
v 0.600000 0.800000 -1.200000
v 0.600000 1.200000 -1.200000
v 0.600000 1.400000 -1.200000
v 0.800000 0.800000 -1.200000
v 0.800000 1.200000 -1.200000
v -0.400000 0.600000 -1.400000
v -0.400000 1.400000 -1.400000
v -0.200000 0.600000 -1.400000
v -0.200000 1.400000 -1.400000
v 0.200000 0.600000 -1.400000
v 0.200000 1.400000 -1.400000
v 0.400000 0.600000 -1.400000
v 0.400000 1.400000 -1.400000
v -0.600000 0.600000 -1.800000
v -0.600000 1.400000 -1.800000
v -0.400000 0.600000 -1.800000
v -0.400000 1.400000 -1.800000
v 0.400000 0.600000 -1.800000
v 0.400000 1.400000 -1.800000
v 0.600000 0.600000 -1.800000
v 0.600000 1.400000 -1.800000
v -0.400000 0.600000 -2.000000
v -0.400000 1.400000 -2.000000
v 0.400000 0.600000 -2.000000
v 0.400000 1.400000 -2.000000
v -2.600000 0.600000 0.400000
v -2.200000 0.600000 0.400000
v 2.200000 0.600000 0.400000
v 2.600000 0.600000 0.400000
v -2.600000 0.600000 -0.000000
v -2.400000 0.600000 -0.000000
v -2.200000 0.600000 -0.000000
v -1.600000 0.600000 -0.000000
v 1.600000 0.600000 -0.000000
v 2.200000 0.600000 -0.000000
v 2.400000 0.600000 -0.000000
v 2.600000 0.600000 -0.000000
v -2.400000 0.600000 -0.200000
v -2.200000 0.600000 -0.200000
v -1.600000 0.600000 -0.200000
v -1.400000 0.600000 -0.200000
v -0.200000 0.600000 -0.200000
v 0.200000 0.600000 -0.200000
v 1.400000 0.600000 -0.200000
v 1.600000 0.600000 -0.200000
v 2.200000 0.600000 -0.200000
v 2.400000 0.600000 -0.200000
v -2.200000 0.600000 -0.400000
v -1.600000 0.600000 -0.400000
v -1.400000 0.600000 -0.400000
v -0.800000 0.600000 -0.400000
v 0.800000 0.600000 -0.400000
v 1.400000 0.600000 -0.400000
v 1.600000 0.600000 -0.400000
v 2.200000 0.600000 -0.400000
v -1.600000 0.600000 -0.600000
v -1.400000 0.600000 -0.600000
v -0.800000 0.600000 -0.600000
v -0.600000 0.600000 -0.600000
v 0.600000 0.600000 -0.600000
v 0.800000 0.600000 -0.600000
v 1.400000 0.600000 -0.600000
v 1.600000 0.600000 -0.600000
v -1.400000 0.600000 -0.800000
v -0.800000 0.600000 -0.800000
v -0.600000 0.600000 -0.800000
v -0.200000 0.600000 -0.800000
v 0.200000 0.600000 -0.800000
v 0.600000 0.600000 -0.800000
v 0.800000 0.600000 -0.800000
v 1.400000 0.600000 -0.800000
v -0.800000 0.600000 -1.000000
v -0.600000 0.600000 -1.000000
v -0.200000 0.600000 -1.000000
v 0.200000 0.600000 -1.000000
v 0.600000 0.600000 -1.000000
v 0.800000 0.600000 -1.000000
v -0.600000 0.600000 -1.200000
v -0.400000 0.600000 -1.200000
v -0.200000 0.600000 -1.200000
v 0.200000 0.600000 -1.200000
v 0.400000 0.600000 -1.200000
v 0.600000 0.600000 -1.200000
v -0.600000 0.600000 -1.400000
v -0.400000 0.600000 -1.400000
v -0.200000 0.600000 -1.400000
v 0.200000 0.600000 -1.400000
v 0.400000 0.600000 -1.400000
v 0.600000 0.600000 -1.400000
v -0.600000 0.600000 -1.800000
v -0.400000 0.600000 -1.800000
v 0.400000 0.600000 -1.800000
v 0.600000 0.600000 -1.800000
v -0.400000 0.600000 -2.000000
v 0.400000 0.600000 -2.000000
v -0.200000 0.800000 1.800000
v 0.200000 0.800000 1.800000
v -2.600000 0.800000 0.600000
v -2.200000 0.800000 0.600000
v 2.200000 0.800000 0.600000
v 2.600000 0.800000 0.600000
v -2.800000 0.800000 0.400000
v -2.600000 0.800000 0.400000
v -2.200000 0.800000 0.400000
v -0.200000 0.800000 0.400000
v 0.200000 0.800000 0.400000
v 2.200000 0.800000 0.400000
v 2.600000 0.800000 0.400000
v 2.800000 0.800000 0.400000
v -2.200000 0.800000 0.200000
v -0.200000 0.800000 0.200000
v 0.200000 0.800000 0.200000
v 2.200000 0.800000 0.200000
v -2.800000 0.800000 -0.000000
v -2.600000 0.800000 -0.000000
v -1.600000 0.800000 -0.000000
v -1.400000 0.800000 -0.000000
v -0.400000 0.800000 -0.000000
v -0.200000 0.800000 -0.000000
v 0.200000 0.800000 -0.000000
v 0.400000 0.800000 -0.000000
v 1.400000 0.800000 -0.000000
v 1.600000 0.800000 -0.000000
v 2.600000 0.800000 -0.000000
v 2.800000 0.800000 -0.000000
v -2.400000 0.800000 -0.200000
v -2.200000 0.800000 -0.200000
v -1.600000 0.800000 -0.200000
v -1.400000 0.800000 -0.200000
v -0.200000 0.800000 -0.200000
v 0.200000 0.800000 -0.200000
v 1.400000 0.800000 -0.200000
v 1.600000 0.800000 -0.200000
v 2.200000 0.800000 -0.200000
v 2.400000 0.800000 -0.200000
v -2.400000 0.800000 -0.400000
v -2.200000 0.800000 -0.400000
v -0.800000 0.800000 -0.400000
v -0.600000 0.800000 -0.400000
v 0.600000 0.800000 -0.400000
v 0.800000 0.800000 -0.400000
v 2.200000 0.800000 -0.400000
v 2.400000 0.800000 -0.400000
v -1.600000 0.800000 -0.600000
v -1.400000 0.800000 -0.600000
v -0.800000 0.800000 -0.600000
v -0.600000 0.800000 -0.600000
v 0.600000 0.800000 -0.600000
v 0.800000 0.800000 -0.600000
v 1.400000 0.800000 -0.600000
v 1.600000 0.800000 -0.600000
v -1.600000 0.800000 -0.800000
v -1.400000 0.800000 -0.800000
v -0.400000 0.800000 -0.800000
v -0.200000 0.800000 -0.800000
v 0.200000 0.800000 -0.800000
v 0.400000 0.800000 -0.800000
v 1.400000 0.800000 -0.800000
v 1.600000 0.800000 -0.800000
v -0.800000 0.800000 -1.000000
v -0.600000 0.800000 -1.000000
v -0.200000 0.800000 -1.000000
v 0.200000 0.800000 -1.000000
v 0.600000 0.800000 -1.000000
v 0.800000 0.800000 -1.000000
v -0.800000 0.800000 -1.200000
v -0.600000 0.800000 -1.200000
v -0.200000 0.800000 -1.200000
v 0.200000 0.800000 -1.200000
v 0.600000 0.800000 -1.200000
v 0.800000 0.800000 -1.200000
v -0.200000 1.200000 1.800000
v 0.200000 1.200000 1.800000
v -2.600000 1.200000 0.600000
v -2.200000 1.200000 0.600000
v 2.200000 1.200000 0.600000
v 2.600000 1.200000 0.600000
v -2.800000 1.200000 0.400000
v -2.600000 1.200000 0.400000
v -2.200000 1.200000 0.400000
v -0.200000 1.200000 0.400000
v 0.200000 1.200000 0.400000
v 2.200000 1.200000 0.400000
v 2.600000 1.200000 0.400000
v 2.800000 1.200000 0.400000
v -2.200000 1.200000 0.200000
v -0.200000 1.200000 0.200000
v 0.200000 1.200000 0.200000
v 2.200000 1.200000 0.200000
v -2.800000 1.200000 -0.000000
v -2.600000 1.200000 -0.000000
v -1.600000 1.200000 -0.000000
v -1.400000 1.200000 -0.000000
v -0.400000 1.200000 -0.000000
v -0.200000 1.200000 -0.000000
v 0.200000 1.200000 -0.000000
v 0.400000 1.200000 -0.000000
v 1.400000 1.200000 -0.000000
v 1.600000 1.200000 -0.000000
v 2.600000 1.200000 -0.000000
v 2.800000 1.200000 -0.000000
v -2.400000 1.200000 -0.200000
v -2.200000 1.200000 -0.200000
v -1.600000 1.200000 -0.200000
v -1.400000 1.200000 -0.200000
v -0.200000 1.200000 -0.200000
v 0.200000 1.200000 -0.200000
v 1.400000 1.200000 -0.200000
v 1.600000 1.200000 -0.200000
v 2.200000 1.200000 -0.200000
v 2.400000 1.200000 -0.200000
v -2.400000 1.200000 -0.400000
v -2.200000 1.200000 -0.400000
v -0.800000 1.200000 -0.400000
v -0.600000 1.200000 -0.400000
v 0.600000 1.200000 -0.400000
v 0.800000 1.200000 -0.400000
v 2.200000 1.200000 -0.400000
v 2.400000 1.200000 -0.400000
v -1.600000 1.200000 -0.600000
v -1.400000 1.200000 -0.600000
v -0.800000 1.200000 -0.600000
v -0.600000 1.200000 -0.600000
v 0.600000 1.200000 -0.600000
v 0.800000 1.200000 -0.600000
v 1.400000 1.200000 -0.600000
v 1.600000 1.200000 -0.600000
v -1.600000 1.200000 -0.800000
v -1.400000 1.200000 -0.800000
v -0.400000 1.200000 -0.800000
v -0.200000 1.200000 -0.800000
v 0.200000 1.200000 -0.800000
v 0.400000 1.200000 -0.800000
v 1.400000 1.200000 -0.800000
v 1.600000 1.200000 -0.800000
v -0.800000 1.200000 -1.000000
v -0.600000 1.200000 -1.000000
v -0.200000 1.200000 -1.000000
v 0.200000 1.200000 -1.000000
v 0.600000 1.200000 -1.000000
v 0.800000 1.200000 -1.000000
v -0.800000 1.200000 -1.200000
v -0.600000 1.200000 -1.200000
v -0.200000 1.200000 -1.200000
v 0.200000 1.200000 -1.200000
v 0.600000 1.200000 -1.200000
v 0.800000 1.200000 -1.200000
v -2.600000 1.400000 0.400000
v -2.200000 1.400000 0.400000
v 2.200000 1.400000 0.400000
v 2.600000 1.400000 0.400000
v -2.600000 1.400000 -0.000000
v -2.400000 1.400000 -0.000000
v -2.200000 1.400000 -0.000000
v -1.600000 1.400000 -0.000000
v 1.600000 1.400000 -0.000000
v 2.200000 1.400000 -0.000000
v 2.400000 1.400000 -0.000000
v 2.600000 1.400000 -0.000000
v -2.400000 1.400000 -0.200000
v -2.200000 1.400000 -0.200000
v -1.600000 1.400000 -0.200000
v -1.400000 1.400000 -0.200000
v -0.200000 1.400000 -0.200000
v 0.200000 1.400000 -0.200000
v 1.400000 1.400000 -0.200000
v 1.600000 1.400000 -0.200000
v 2.200000 1.400000 -0.200000
v 2.400000 1.400000 -0.200000
v -2.200000 1.400000 -0.400000
v -1.600000 1.400000 -0.400000
v -1.400000 1.400000 -0.400000
v -0.800000 1.400000 -0.400000
v 0.800000 1.400000 -0.400000
v 1.400000 1.400000 -0.400000
v 1.600000 1.400000 -0.400000
v 2.200000 1.400000 -0.400000
v -1.600000 1.400000 -0.600000
v -1.400000 1.400000 -0.600000
v -0.800000 1.400000 -0.600000
v -0.600000 1.400000 -0.600000
v 0.600000 1.400000 -0.600000
v 0.800000 1.400000 -0.600000
v 1.400000 1.400000 -0.600000
v 1.600000 1.400000 -0.600000
v -1.400000 1.400000 -0.800000
v -0.800000 1.400000 -0.800000
v -0.600000 1.400000 -0.800000
v -0.200000 1.400000 -0.800000
v 0.200000 1.400000 -0.800000
v 0.600000 1.400000 -0.800000
v 0.800000 1.400000 -0.800000
v 1.400000 1.400000 -0.800000
v -0.800000 1.400000 -1.000000
v -0.600000 1.400000 -1.000000
v -0.200000 1.400000 -1.000000
v 0.200000 1.400000 -1.000000
v 0.600000 1.400000 -1.000000
v 0.800000 1.400000 -1.000000
v -0.600000 1.400000 -1.200000
v -0.400000 1.400000 -1.200000
v -0.200000 1.400000 -1.200000
v 0.200000 1.400000 -1.200000
v 0.400000 1.400000 -1.200000
v 0.600000 1.400000 -1.200000
v -0.600000 1.400000 -1.400000
v -0.400000 1.400000 -1.400000
v -0.200000 1.400000 -1.400000
v 0.200000 1.400000 -1.400000
v 0.400000 1.400000 -1.400000
v 0.600000 1.400000 -1.400000
v -0.600000 1.400000 -1.800000
v -0.400000 1.400000 -1.800000
v 0.400000 1.400000 -1.800000
v 0.600000 1.400000 -1.800000
v -0.400000 1.400000 -2.000000
v 0.400000 1.400000 -2.000000
vn -1.0000 -0.0000 -0.0000
vn 1.0000 -0.0000 -0.0000
vn -0.0000 -0.0000 1.0000
vn -0.0000 -0.0000 -1.0000
vn -0.0000 -1.0000 -0.0000
vn -0.0000 1.0000 -0.0000
vt 0.306641 0.500000
vt 0.978516 0.500000
vt 0.302734 0.500000
vt 0.958984 0.500000
s 1
usemtl palette.026
f 3/1/1 2/1/1 1/1/1
f 4/1/1 2/1/1 3/1/1
f 8/1/1 6/1/1 5/1/1
f 9/1/1 6/1/1 8/1/1
f 10/1/1 8/1/1 7/1/1
f 11/1/1 8/1/1 10/1/1
f 13/1/1 12/1/1 11/1/1
f 14/1/1 12/1/1 13/1/1
f 17/1/1 16/1/1 15/1/1
f 19/1/1 17/1/1 15/1/1
f 19/1/1 18/1/1 17/1/1
f 20/1/1 18/1/1 19/1/1
f 21/1/1 19/1/1 15/1/1
f 22/1/1 19/1/1 21/1/1
f 25/1/1 24/1/1 23/1/1
f 26/1/1 24/1/1 25/1/1
f 29/1/1 28/1/1 27/1/1
f 30/1/1 28/1/1 29/1/1
f 33/1/1 32/1/1 31/1/1
f 35/1/1 33/1/1 31/1/1
f 35/1/1 34/1/1 33/1/1
f 36/1/1 34/1/1 35/1/1
f 37/1/1 35/1/1 31/1/1
f 38/1/1 35/1/1 37/1/1
f 41/1/1 40/1/1 39/1/1
f 42/1/1 40/1/1 41/1/1
f 45/1/1 44/1/1 43/1/1
f 46/1/1 44/1/1 45/1/1
f 49/1/1 48/1/1 47/1/1
f 51/1/1 49/1/1 47/1/1
f 51/1/1 50/1/1 49/1/1
f 52/1/1 50/1/1 51/1/1
f 53/1/1 51/1/1 47/1/1
f 54/1/1 51/1/1 53/1/1
f 59/1/1 56/1/1 55/1/1
f 60/1/1 56/1/1 59/1/1
f 63/1/1 62/1/1 61/1/1
f 64/1/1 62/1/1 63/1/1
f 65/2/1 58/2/1 57/2/1
f 66/2/1 58/2/1 65/2/1
f 73/3/1 72/3/1 71/3/1
f 74/3/1 72/3/1 73/3/1
f 75/2/1 68/2/1 67/2/1
f 76/2/1 68/2/1 75/2/1
f 77/2/1 70/2/1 69/2/1
f 78/2/1 70/2/1 77/2/1
f 85/3/1 80/3/1 79/3/1
f 86/3/1 80/3/1 85/3/1
f 87/3/1 82/3/1 81/3/1
f 88/3/1 82/3/1 87/3/1
f 89/3/1 84/3/1 83/3/1
f 90/3/1 84/3/1 89/3/1
f 93/3/1 92/3/1 91/3/1
f 94/3/1 92/3/1 93/3/1
f 98/1/1 96/1/1 95/1/1
f 99/2/1 97/2/1 96/2/1
f 99/1/1 96/1/1 98/1/1
f 101/2/1 97/2/1 99/2/1
f 102/1/1 101/1/1 100/1/1
f 103/2/1 97/2/1 101/2/1
f 103/1/1 101/1/1 102/1/1
f 104/2/1 97/2/1 103/2/1
f 107/2/1 106/2/1 105/2/1
f 108/2/1 106/2/1 107/2/1
f 112/1/1 110/1/1 109/1/1
f 113/1/1 112/1/1 111/1/1
f 114/1/1 110/1/1 112/1/1
f 114/1/1 112/1/1 113/1/1
f 115/1/1 110/1/1 114/1/1
f 116/1/1 110/1/1 115/1/1
f 119/1/1 118/1/1 117/1/1
f 120/1/1 118/1/1 119/1/1
f 123/1/1 122/1/1 121/1/1
f 124/1/1 122/1/1 123/1/1
f 128/1/1 126/1/1 125/1/1
f 129/1/1 128/1/1 127/1/1
f 130/1/1 126/1/1 128/1/1
f 130/1/1 128/1/1 129/1/1
f 131/1/1 126/1/1 130/1/1
f 132/1/1 126/1/1 131/1/1
f 135/1/1 134/1/1 133/1/1
f 136/1/1 134/1/1 135/1/1
f 139/1/1 138/1/1 137/1/1
f 140/1/1 138/1/1 139/1/1
f 144/1/1 142/1/1 141/1/1
f 145/1/1 142/1/1 144/1/1
f 146/1/1 144/1/1 143/1/1
f 147/1/1 144/1/1 146/1/1
f 148/1/1 142/1/1 145/1/1
f 149/1/1 148/1/1 147/1/1
f 150/1/1 142/1/1 148/1/1
f 150/1/1 148/1/1 149/1/1
f 151/1/2 152/1/2 154/1/2
f 154/1/2 152/1/2 155/1/2
f 153/1/2 154/1/2 156/1/2
f 156/1/2 154/1/2 157/1/2
f 155/1/2 152/1/2 158/1/2
f 157/1/2 158/1/2 159/1/2
f 158/1/2 152/1/2 160/1/2
f 159/1/2 158/1/2 160/1/2
f 161/1/2 162/1/2 163/1/2
f 163/1/2 162/1/2 164/1/2
f 165/1/2 166/1/2 167/1/2
f 167/1/2 166/1/2 168/1/2
f 169/1/2 170/1/2 172/1/2
f 171/1/2 172/1/2 173/1/2
f 172/1/2 170/1/2 174/1/2
f 173/1/2 172/1/2 174/1/2
f 174/1/2 170/1/2 175/1/2
f 175/1/2 170/1/2 176/1/2
f 177/1/2 178/1/2 179/1/2
f 179/1/2 178/1/2 180/1/2
f 181/1/2 182/1/2 183/1/2
f 183/1/2 182/1/2 184/1/2
f 185/1/2 186/1/2 188/1/2
f 187/1/2 188/1/2 189/1/2
f 188/1/2 186/1/2 190/1/2
f 189/1/2 188/1/2 190/1/2
f 190/1/2 186/1/2 191/1/2
f 191/1/2 186/1/2 192/1/2
f 193/2/2 194/2/2 195/2/2
f 195/2/2 194/2/2 196/2/2
f 197/1/2 198/1/2 200/1/2
f 198/2/2 199/2/2 201/2/2
f 200/1/2 198/1/2 201/1/2
f 201/2/2 199/2/2 203/2/2
f 202/1/2 203/1/2 204/1/2
f 203/2/2 199/2/2 205/2/2
f 204/1/2 203/1/2 205/1/2
f 205/2/2 199/2/2 206/2/2
f 207/3/2 208/3/2 213/3/2
f 213/3/2 208/3/2 214/3/2
f 209/3/2 210/3/2 215/3/2
f 215/3/2 210/3/2 216/3/2
f 211/3/2 212/3/2 217/3/2
f 217/3/2 212/3/2 218/3/2
f 219/3/2 220/3/2 221/3/2
f 221/3/2 220/3/2 222/3/2
f 227/3/2 228/3/2 229/3/2
f 229/3/2 228/3/2 230/3/2
f 223/2/2 224/2/2 231/2/2
f 231/2/2 224/2/2 232/2/2
f 225/2/2 226/2/2 233/2/2
f 233/2/2 226/2/2 234/2/2
f 235/1/2 236/1/2 239/1/2
f 239/1/2 236/1/2 240/1/2
f 241/1/2 242/1/2 243/1/2
f 243/1/2 242/1/2 244/1/2
f 237/2/2 238/2/2 245/2/2
f 245/2/2 238/2/2 246/2/2
f 247/1/2 248/1/2 249/1/2
f 247/1/2 249/1/2 251/1/2
f 249/1/2 250/1/2 251/1/2
f 251/1/2 250/1/2 252/1/2
f 247/1/2 251/1/2 253/1/2
f 253/1/2 251/1/2 254/1/2
f 255/1/2 256/1/2 257/1/2
f 257/1/2 256/1/2 258/1/2
f 259/1/2 260/1/2 261/1/2
f 261/1/2 260/1/2 262/1/2
f 263/1/2 264/1/2 265/1/2
f 263/1/2 265/1/2 267/1/2
f 265/1/2 266/1/2 267/1/2
f 267/1/2 266/1/2 268/1/2
f 263/1/2 267/1/2 269/1/2
f 269/1/2 267/1/2 270/1/2
f 271/1/2 272/1/2 273/1/2
f 273/1/2 272/1/2 274/1/2
f 275/1/2 276/1/2 277/1/2
f 277/1/2 276/1/2 278/1/2
f 279/1/2 280/1/2 281/1/2
f 279/1/2 281/1/2 283/1/2
f 281/1/2 282/1/2 283/1/2
f 283/1/2 282/1/2 284/1/2
f 279/1/2 283/1/2 285/1/2
f 285/1/2 283/1/2 286/1/2
f 287/1/2 288/1/2 290/1/2
f 290/1/2 288/1/2 291/1/2
f 289/1/2 290/1/2 292/1/2
f 292/1/2 290/1/2 293/1/2
f 293/1/2 294/1/2 295/1/2
f 295/1/2 294/1/2 296/1/2
f 297/1/2 298/1/2 299/1/2
f 299/1/2 298/1/2 300/1/2
f 303/3/3 302/3/3 301/3/3
f 304/3/3 302/3/3 303/3/3
f 307/1/3 306/1/3 305/1/3
f 308/1/3 306/1/3 307/1/3
f 311/1/3 310/1/3 309/1/3
f 312/1/3 310/1/3 311/1/3
f 316/1/3 314/1/3 313/1/3
f 317/1/3 314/1/3 316/1/3
f 319/1/3 316/1/3 315/1/3
f 320/1/3 316/1/3 319/1/3
f 321/1/3 318/1/3 317/1/3
f 322/1/3 318/1/3 321/1/3
f 323/4/3 321/4/3 320/4/3
f 324/4/3 321/4/3 323/4/3
f 328/4/3 326/4/3 325/4/3
f 329/4/3 326/4/3 328/4/3
f 331/1/3 328/1/3 327/1/3
f 332/1/3 328/1/3 331/1/3
f 333/1/3 330/1/3 329/1/3
f 334/1/3 330/1/3 333/1/3
f 335/1/3 333/1/3 332/1/3
f 336/1/3 333/1/3 335/1/3
f 339/1/3 338/1/3 337/1/3
f 340/1/3 338/1/3 339/1/3
f 341/1/3 338/1/3 340/1/3
f 342/1/3 338/1/3 341/1/3
f 343/1/3 341/1/3 340/1/3
f 344/1/3 341/1/3 343/1/3
f 347/3/3 346/3/3 345/3/3
f 348/3/3 346/3/3 347/3/3
f 351/3/3 350/3/3 349/3/3
f 352/3/3 350/3/3 351/3/3
f 356/1/3 354/1/3 353/1/3
f 357/1/3 354/1/3 356/1/3
f 359/1/3 357/1/3 356/1/3
f 359/1/3 358/1/3 357/1/3
f 359/1/3 356/1/3 355/1/3
f 360/1/3 358/1/3 359/1/3
f 365/1/3 362/1/3 361/1/3
f 366/1/3 362/1/3 365/1/3
f 367/1/3 364/1/3 363/1/3
f 368/1/3 364/1/3 367/1/3
f 373/3/3 370/3/3 369/3/3
f 374/3/3 370/3/3 373/3/3
f 375/3/3 372/3/3 371/3/3
f 376/3/3 372/3/3 375/3/3
f 381/1/3 378/1/3 377/1/3
f 382/1/3 378/1/3 381/1/3
f 383/1/3 380/1/3 379/1/3
f 384/1/3 380/1/3 383/1/3
f 387/1/3 386/1/3 385/1/3
f 388/1/3 386/1/3 387/1/3
f 389/1/3 386/1/3 388/1/3
f 390/1/3 386/1/3 389/1/3
f 391/1/3 389/1/3 388/1/3
f 392/1/3 389/1/3 391/1/3
f 396/1/3 394/1/3 393/1/3
f 397/1/3 394/1/3 396/1/3
f 399/1/3 397/1/3 396/1/3
f 399/1/3 398/1/3 397/1/3
f 399/1/3 396/1/3 395/1/3
f 400/1/3 398/1/3 399/1/3
f 405/1/3 402/1/3 401/1/3
f 406/1/3 402/1/3 405/1/3
f 407/1/3 404/1/3 403/1/3
f 408/1/3 404/1/3 407/1/3
f 413/1/3 410/1/3 409/1/3
f 414/1/3 410/1/3 413/1/3
f 415/1/3 412/1/3 411/1/3
f 416/1/3 412/1/3 415/1/3
f 419/1/3 418/1/3 417/1/3
f 420/1/3 418/1/3 419/1/3
f 421/1/3 419/1/3 417/1/3
f 422/1/3 419/1/3 421/1/3
f 423/1/3 418/1/3 420/1/3
f 424/1/3 418/1/3 423/1/3
f 429/1/3 426/1/3 425/1/3
f 430/1/3 428/1/3 427/1/3
f 431/1/3 429/1/3 425/1/3
f 431/1/3 430/1/3 429/1/3
f 432/1/3 428/1/3 430/1/3
f 432/1/3 430/1/3 431/1/3
f 435/2/3 434/2/3 433/2/3
f 436/2/3 434/2/3 435/2/3
f 439/2/3 438/2/3 437/2/3
f 440/2/3 438/2/3 439/2/3
f 443/2/3 442/2/3 441/2/3
f 444/2/3 442/2/3 443/2/3
f 445/4/4 446/4/4 447/4/4
f 447/4/4 446/4/4 448/4/4
f 449/4/4 450/4/4 451/4/4
f 451/4/4 450/4/4 452/4/4
f 453/1/4 454/1/4 456/1/4
f 456/1/4 454/1/4 457/1/4
f 455/1/4 456/1/4 459/1/4
f 457/1/4 458/1/4 459/1/4
f 456/1/4 457/1/4 459/1/4
f 459/1/4 458/1/4 460/1/4
f 461/1/4 462/1/4 463/1/4
f 463/1/4 462/1/4 464/1/4
f 464/1/4 462/1/4 465/1/4
f 465/1/4 462/1/4 466/1/4
f 464/1/4 465/1/4 467/1/4
f 467/1/4 465/1/4 468/1/4
f 469/1/4 470/1/4 473/1/4
f 473/1/4 470/1/4 474/1/4
f 471/1/4 472/1/4 475/1/4
f 475/1/4 472/1/4 476/1/4
f 477/1/4 478/1/4 481/1/4
f 481/1/4 478/1/4 482/1/4
f 479/1/4 480/1/4 483/1/4
f 483/1/4 480/1/4 484/1/4
f 485/1/4 486/1/4 488/1/4
f 488/1/4 486/1/4 489/1/4
f 487/1/4 488/1/4 491/1/4
f 489/1/4 490/1/4 491/1/4
f 488/1/4 489/1/4 491/1/4
f 491/1/4 490/1/4 492/1/4
f 493/1/4 494/1/4 495/1/4
f 495/1/4 494/1/4 496/1/4
f 496/1/4 494/1/4 497/1/4
f 497/1/4 494/1/4 498/1/4
f 496/1/4 497/1/4 499/1/4
f 499/1/4 497/1/4 500/1/4
f 501/1/4 502/1/4 505/1/4
f 505/1/4 502/1/4 506/1/4
f 503/1/4 504/1/4 507/1/4
f 507/1/4 504/1/4 508/1/4
f 509/1/4 510/1/4 513/1/4
f 513/1/4 510/1/4 514/1/4
f 511/1/4 512/1/4 515/1/4
f 515/1/4 512/1/4 516/1/4
f 517/1/4 518/1/4 520/1/4
f 520/1/4 518/1/4 521/1/4
f 519/1/4 520/1/4 523/1/4
f 521/1/4 522/1/4 523/1/4
f 520/1/4 521/1/4 523/1/4
f 523/1/4 522/1/4 524/1/4
f 525/1/4 526/1/4 527/1/4
f 527/1/4 526/1/4 528/1/4
f 528/1/4 526/1/4 529/1/4
f 529/1/4 526/1/4 530/1/4
f 528/1/4 529/1/4 531/1/4
f 531/1/4 529/1/4 532/1/4
f 533/1/4 534/1/4 537/1/4
f 537/1/4 534/1/4 538/1/4
f 535/1/4 536/1/4 539/1/4
f 539/1/4 536/1/4 540/1/4
f 541/1/4 542/1/4 545/1/4
f 545/1/4 542/1/4 546/1/4
f 543/1/4 544/1/4 547/1/4
f 547/1/4 544/1/4 548/1/4
f 549/1/4 550/1/4 553/1/4
f 553/1/4 550/1/4 554/1/4
f 551/1/4 552/1/4 555/1/4
f 555/1/4 552/1/4 556/1/4
f 557/1/4 558/1/4 560/1/4
f 560/1/4 558/1/4 561/1/4
f 559/1/4 560/1/4 563/1/4
f 561/1/4 562/1/4 563/1/4
f 560/1/4 561/1/4 563/1/4
f 563/1/4 562/1/4 564/1/4
f 565/2/4 566/2/4 567/2/4
f 567/2/4 566/2/4 568/2/4
f 569/1/4 570/1/4 571/1/4
f 571/1/4 570/1/4 572/1/4
f 572/1/4 570/1/4 573/1/4
f 573/1/4 570/1/4 574/1/4
f 572/1/4 573/1/4 575/1/4
f 575/1/4 573/1/4 576/1/4
f 577/2/4 578/2/4 579/2/4
f 579/2/4 578/2/4 580/2/4
f 581/2/4 582/2/4 583/2/4
f 583/2/4 582/2/4 584/2/4
f 585/2/4 586/2/4 587/2/4
f 587/2/4 586/2/4 588/2/4
f 589/2/4 590/2/4 591/2/4
f 591/2/4 590/2/4 592/2/4
f 593/2/4 594/2/4 595/2/4
f 595/2/4 594/2/4 596/2/4
f 601/1/5 598/1/5 597/1/5
f 602/1/5 598/1/5 601/1/5
f 603/1/5 598/1/5 602/1/5
f 606/1/5 600/1/5 599/1/5
f 607/1/5 600/1/5 606/1/5
f 608/1/5 600/1/5 607/1/5
f 609/1/5 604/1/5 603/1/5
f 609/1/5 603/1/5 602/1/5
f 610/1/5 604/1/5 609/1/5
f 611/1/5 604/1/5 610/1/5
f 616/1/5 607/1/5 606/1/5
f 616/1/5 606/1/5 605/1/5
f 617/1/5 607/1/5 616/1/5
f 618/1/5 607/1/5 617/1/5
f 619/1/5 612/1/5 611/1/5
f 619/1/5 611/1/5 610/1/5
f 620/1/5 612/1/5 619/1/5
f 621/1/5 612/1/5 620/1/5
f 624/1/5 617/1/5 616/1/5
f 624/1/5 616/1/5 615/1/5
f 625/1/5 617/1/5 624/1/5
f 626/1/5 617/1/5 625/1/5
f 627/1/5 622/1/5 621/1/5
f 627/1/5 621/1/5 620/1/5
f 628/1/5 622/1/5 627/1/5
f 629/1/5 622/1/5 628/1/5
f 632/1/5 625/1/5 624/1/5
f 632/1/5 624/1/5 623/1/5
f 633/1/5 625/1/5 632/1/5
f 634/1/5 625/1/5 633/1/5
f 635/1/5 630/1/5 629/1/5
f 635/1/5 629/1/5 628/1/5
f 636/1/5 630/1/5 635/1/5
f 637/1/5 630/1/5 636/1/5
f 638/3/5 614/3/5 613/3/5
f 639/3/5 614/3/5 638/3/5
f 640/1/5 633/1/5 632/1/5
f 640/1/5 632/1/5 631/1/5
f 641/1/5 633/1/5 640/1/5
f 642/1/5 633/1/5 641/1/5
f 643/1/5 637/1/5 636/1/5
f 643/1/5 639/1/5 638/1/5
f 643/1/5 641/1/5 640/1/5
f 643/1/5 640/1/5 639/1/5
f 643/1/5 638/1/5 637/1/5
f 644/1/5 641/1/5 643/1/5
f 645/1/5 641/1/5 644/1/5
f 646/1/5 641/1/5 645/1/5
f 647/1/5 641/1/5 646/1/5
f 648/1/5 641/1/5 647/1/5
f 649/1/5 645/1/5 644/1/5
f 650/1/5 645/1/5 649/1/5
f 651/1/5 645/1/5 650/1/5
f 652/1/5 647/1/5 646/1/5
f 653/1/5 647/1/5 652/1/5
f 654/1/5 647/1/5 653/1/5
f 656/2/5 651/2/5 650/2/5
f 657/2/5 651/2/5 656/2/5
f 658/2/5 653/2/5 652/2/5
f 659/2/5 653/2/5 658/2/5
f 661/2/5 656/2/5 655/2/5
f 662/2/5 656/2/5 661/2/5
f 663/2/5 660/2/5 659/2/5
f 664/2/5 660/2/5 663/2/5
f 665/2/5 663/2/5 662/2/5
f 666/2/5 663/2/5 665/2/5
f 674/1/5 670/1/5 669/1/5
f 675/1/5 670/1/5 674/1/5
f 676/3/5 668/3/5 667/3/5
f 677/3/5 668/3/5 676/3/5
f 678/1/5 672/1/5 671/1/5
f 679/1/5 672/1/5 678/1/5
f 681/4/5 677/4/5 676/4/5
f 681/4/5 678/4/5 677/4/5
f 681/4/5 676/4/5 675/4/5
f 682/4/5 678/4/5 681/4/5
f 683/4/5 678/4/5 682/4/5
f 684/4/5 678/4/5 683/4/5
f 685/1/5 674/1/5 673/1/5
f 686/1/5 674/1/5 685/1/5
f 690/3/5 683/3/5 682/3/5
f 691/3/5 683/3/5 690/3/5
f 695/1/5 680/1/5 679/1/5
f 696/1/5 680/1/5 695/1/5
f 699/1/5 688/1/5 687/1/5
f 700/1/5 688/1/5 699/1/5
f 701/3/5 692/3/5 691/3/5
f 701/3/5 690/3/5 689/3/5
f 701/3/5 691/3/5 690/3/5
f 702/3/5 692/3/5 701/3/5
f 703/1/5 694/1/5 693/1/5
f 704/1/5 694/1/5 703/1/5
f 707/1/5 698/1/5 697/1/5
f 708/1/5 698/1/5 707/1/5
f 713/1/5 706/1/5 705/1/5
f 714/1/5 706/1/5 713/1/5
f 717/1/5 710/1/5 709/1/5
f 718/1/5 710/1/5 717/1/5
f 719/1/5 712/1/5 711/1/5
f 720/1/5 712/1/5 719/1/5
f 723/1/5 716/1/5 715/1/5
f 724/1/5 716/1/5 723/1/5
f 725/3/5 701/3/5 689/3/5
f 726/3/5 701/3/5 725/3/5
f 727/3/5 692/3/5 702/3/5
f 728/3/5 692/3/5 727/3/5
f 729/1/5 722/1/5 721/1/5
f 730/1/5 722/1/5 729/1/5
f 737/1/5 732/1/5 731/1/5
f 738/1/5 732/1/5 737/1/5
f 739/2/5 734/2/5 733/2/5
f 740/2/5 734/2/5 739/2/5
f 741/1/5 736/1/5 735/1/5
f 742/1/5 736/1/5 741/1/5
f 745/1/6 746/1/6 750/1/6
f 750/1/6 746/1/6 751/1/6
f 743/3/6 744/3/6 752/3/6
f 752/3/6 744/3/6 753/3/6
f 747/1/6 748/1/6 754/1/6
f 754/1/6 748/1/6 755/1/6
f 752/4/6 753/4/6 757/4/6
f 753/4/6 754/4/6 757/4/6
f 751/4/6 752/4/6 757/4/6
f 757/4/6 754/4/6 758/4/6
f 758/4/6 754/4/6 759/4/6
f 759/4/6 754/4/6 760/4/6
f 749/1/6 750/1/6 761/1/6
f 761/1/6 750/1/6 762/1/6
f 758/3/6 759/3/6 766/3/6
f 766/3/6 759/3/6 767/3/6
f 755/1/6 756/1/6 771/1/6
f 771/1/6 756/1/6 772/1/6
f 763/1/6 764/1/6 775/1/6
f 775/1/6 764/1/6 776/1/6
f 767/3/6 768/3/6 777/3/6
f 765/3/6 766/3/6 777/3/6
f 766/3/6 767/3/6 777/3/6
f 777/3/6 768/3/6 778/3/6
f 769/1/6 770/1/6 779/1/6
f 779/1/6 770/1/6 780/1/6
f 773/1/6 774/1/6 783/1/6
f 783/1/6 774/1/6 784/1/6
f 781/1/6 782/1/6 789/1/6
f 789/1/6 782/1/6 790/1/6
f 785/1/6 786/1/6 793/1/6
f 793/1/6 786/1/6 794/1/6
f 787/1/6 788/1/6 795/1/6
f 795/1/6 788/1/6 796/1/6
f 791/1/6 792/1/6 799/1/6
f 799/1/6 792/1/6 800/1/6
f 765/3/6 777/3/6 801/3/6
f 801/3/6 777/3/6 802/3/6
f 778/3/6 768/3/6 803/3/6
f 803/3/6 768/3/6 804/3/6
f 797/1/6 798/1/6 805/1/6
f 805/1/6 798/1/6 806/1/6
f 807/1/6 808/1/6 813/1/6
f 813/1/6 808/1/6 814/1/6
f 809/2/6 810/2/6 815/2/6
f 815/2/6 810/2/6 816/2/6
f 811/1/6 812/1/6 817/1/6
f 817/1/6 812/1/6 818/1/6
f 819/1/6 820/1/6 823/1/6
f 823/1/6 820/1/6 824/1/6
f 824/1/6 820/1/6 825/1/6
f 821/1/6 822/1/6 828/1/6
f 828/1/6 822/1/6 829/1/6
f 829/1/6 822/1/6 830/1/6
f 825/1/6 826/1/6 831/1/6
f 824/1/6 825/1/6 831/1/6
f 831/1/6 826/1/6 832/1/6
f 832/1/6 826/1/6 833/1/6
f 828/1/6 829/1/6 838/1/6
f 827/1/6 828/1/6 838/1/6
f 838/1/6 829/1/6 839/1/6
f 839/1/6 829/1/6 840/1/6
f 833/1/6 834/1/6 841/1/6
f 832/1/6 833/1/6 841/1/6
f 841/1/6 834/1/6 842/1/6
f 842/1/6 834/1/6 843/1/6
f 838/1/6 839/1/6 846/1/6
f 837/1/6 838/1/6 846/1/6
f 846/1/6 839/1/6 847/1/6
f 847/1/6 839/1/6 848/1/6
f 843/1/6 844/1/6 849/1/6
f 842/1/6 843/1/6 849/1/6
f 849/1/6 844/1/6 850/1/6
f 850/1/6 844/1/6 851/1/6
f 846/1/6 847/1/6 854/1/6
f 845/1/6 846/1/6 854/1/6
f 854/1/6 847/1/6 855/1/6
f 855/1/6 847/1/6 856/1/6
f 851/1/6 852/1/6 857/1/6
f 850/1/6 851/1/6 857/1/6
f 857/1/6 852/1/6 858/1/6
f 858/1/6 852/1/6 859/1/6
f 835/3/6 836/3/6 860/3/6
f 860/3/6 836/3/6 861/3/6
f 854/1/6 855/1/6 862/1/6
f 853/1/6 854/1/6 862/1/6
f 862/1/6 855/1/6 863/1/6
f 863/1/6 855/1/6 864/1/6
f 858/1/6 859/1/6 865/1/6
f 860/1/6 861/1/6 865/1/6
f 862/1/6 863/1/6 865/1/6
f 861/1/6 862/1/6 865/1/6
f 859/1/6 860/1/6 865/1/6
f 865/1/6 863/1/6 866/1/6
f 866/1/6 863/1/6 867/1/6
f 867/1/6 863/1/6 868/1/6
f 868/1/6 863/1/6 869/1/6
f 869/1/6 863/1/6 870/1/6
f 866/1/6 867/1/6 871/1/6
f 871/1/6 867/1/6 872/1/6
f 872/1/6 867/1/6 873/1/6
f 868/1/6 869/1/6 874/1/6
f 874/1/6 869/1/6 875/1/6
f 875/1/6 869/1/6 876/1/6
f 872/2/6 873/2/6 878/2/6
f 878/2/6 873/2/6 879/2/6
f 874/2/6 875/2/6 880/2/6
f 880/2/6 875/2/6 881/2/6
f 877/2/6 878/2/6 883/2/6
f 883/2/6 878/2/6 884/2/6
f 881/2/6 882/2/6 885/2/6
f 885/2/6 882/2/6 886/2/6
f 884/2/6 885/2/6 887/2/6
f 887/2/6 885/2/6 888/2/6
