# Blender 4.4.1
# www.blender.org
mtllib Needle.mtl
o 円
v 0.730950 1.535250 0.143271
v 0.135652 1.191555 0.143270
v 0.730950 0.847859 0.143270
v 0.135652 1.191555 0.191710
v 0.730950 1.535250 0.191710
v 0.730950 0.847859 0.191710
vn -0.0000 -0.0000 -1.0000
vn -0.0000 -0.0000 1.0000
vn 1.0000 -0.0000 -0.0000
vn -0.5000 -0.8660 -0.0000
vn -0.5000 0.8660 -0.0000
vt 0.000000 0.000000
s 0
usemtl マテリアル
f 2/1/1 1/1/1 3/1/1
f 4/1/2 6/1/2 5/1/2
f 3/1/3 1/1/3 5/1/3 6/1/3
f 2/1/4 3/1/4 6/1/4 4/1/4
f 1/1/5 2/1/5 4/1/5 5/1/5
