# Blender 5.0.1
# www.blender.org
mtllib VanillaDonut.mtl
o Untitled.002
v -1.900000 0.320000 0.570000
v -1.900000 0.320000 -0.570000
v -1.900000 0.510000 -0.000000
v -1.900000 0.510000 -0.190000
v -1.900000 0.700000 -0.190000
v -1.900000 0.700000 -0.380000
v -1.900000 0.890000 0.190000
v -1.900000 0.890000 -0.000000
v -1.900000 0.890000 -0.190000
v -1.900000 0.890000 -0.380000
v -1.900000 0.890000 -0.570000
v -1.900000 1.080000 0.570000
v -1.900000 1.080000 0.190000
v -1.900000 1.080000 -0.000000
v -1.900000 1.080000 -0.190000
v -1.900000 1.080000 -0.570000
v -1.710000 0.130000 0.570000
v -1.710000 0.130000 -0.570000
v -1.710000 0.320000 0.950000
v -1.710000 0.320000 0.570000
v -1.710000 0.320000 -0.570000
v -1.710000 0.320000 -0.950000
v -1.710000 0.890000 -0.570000
v -1.710000 0.890000 -0.760000
v -1.710000 1.080000 0.950000
v -1.710000 1.080000 0.570000
v -1.710000 1.080000 0.190000
v -1.710000 1.080000 -0.000000
v -1.710000 1.080000 -0.190000
v -1.710000 1.080000 -0.570000
v -1.710000 1.080000 -0.760000
v -1.710000 1.080000 -0.950000
v -1.710000 1.270000 0.570000
v -1.710000 1.270000 -0.000000
v -1.710000 1.270000 -0.570000
v -1.520000 0.130000 0.950000
v -1.520000 0.130000 0.570000
v -1.520000 0.130000 -0.570000
v -1.520000 0.130000 -0.950000
v -1.520000 0.320000 1.330000
v -1.520000 0.320000 0.950000
v -1.520000 0.320000 0.570000
v -1.520000 0.320000 -0.570000
v -1.520000 0.320000 -0.950000
v -1.520000 0.320000 -1.330000
v -1.520000 0.890000 1.140000
v -1.520000 0.890000 0.950000
v -1.520000 1.080000 1.330000
v -1.520000 1.080000 1.140000
v -1.520000 1.080000 0.950000
v -1.520000 1.080000 0.570000
v -1.520000 1.080000 -0.570000
v -1.520000 1.080000 -0.760000
v -1.520000 1.080000 -0.950000
v -1.520000 1.080000 -1.330000
v -1.520000 1.270000 0.950000
v -1.520000 1.270000 0.570000
v -1.520000 1.270000 -0.570000
v -1.520000 1.270000 -0.950000
v -1.330000 0.130000 1.330000
v -1.330000 0.130000 0.950000
v -1.330000 0.130000 -0.950000
v -1.330000 0.130000 -1.330000
v -1.330000 0.320000 1.520000
v -1.330000 0.320000 1.330000
v -1.330000 0.320000 0.950000
v -1.330000 0.320000 -0.950000
v -1.330000 0.320000 -1.330000
v -1.330000 0.320000 -1.520000
v -1.330000 0.890000 1.520000
v -1.330000 0.890000 1.330000
v -1.330000 1.080000 1.520000
v -1.330000 1.080000 1.330000
v -1.330000 1.080000 1.140000
v -1.330000 1.080000 0.950000
v -1.330000 1.080000 -0.950000
v -1.330000 1.080000 -1.330000
v -1.330000 1.080000 -1.520000
v -1.330000 1.270000 1.330000
v -1.330000 1.270000 1.140000
v -1.330000 1.270000 0.950000
v -1.330000 1.270000 -0.950000
v -1.330000 1.270000 -1.330000
v -0.950000 0.130000 1.520000
v -0.950000 0.130000 1.330000
v -0.950000 0.130000 -1.330000
v -0.950000 0.130000 -1.520000
v -0.950000 0.320000 1.710000
v -0.950000 0.320000 1.520000
v -0.950000 0.320000 1.330000
v -0.950000 0.320000 -1.330000
v -0.950000 0.320000 -1.520000
v -0.950000 0.320000 -1.710000
v -0.950000 0.890000 -1.520000
v -0.950000 0.890000 -1.710000
v -0.950000 1.080000 1.710000
v -0.950000 1.080000 1.520000
v -0.950000 1.080000 1.330000
v -0.950000 1.080000 -1.330000
v -0.950000 1.080000 -1.520000
v -0.950000 1.080000 -1.710000
v -0.950000 1.270000 1.520000
v -0.950000 1.270000 1.330000
v -0.950000 1.270000 -1.330000
v -0.950000 1.270000 -1.520000
v -0.570000 0.130000 1.710000
v -0.570000 0.130000 1.520000
v -0.570000 0.130000 -1.520000
v -0.570000 0.130000 -1.710000
v -0.570000 0.320000 1.900000
v -0.570000 0.320000 1.710000
v -0.570000 0.320000 1.520000
v -0.570000 0.320000 -1.520000
v -0.570000 0.320000 -1.710000
v -0.570000 0.320000 -1.900000
v -0.570000 0.700000 -1.710000
v -0.570000 0.700000 -1.900000
v -0.570000 0.890000 -1.710000
v -0.570000 1.080000 1.900000
v -0.570000 1.080000 1.710000
v -0.570000 1.080000 1.520000
v -0.570000 1.080000 -1.520000
v -0.570000 1.080000 -1.710000
v -0.570000 1.080000 -1.900000
v -0.570000 1.270000 1.710000
v -0.570000 1.270000 1.520000
v -0.570000 1.270000 -1.520000
v -0.570000 1.270000 -1.710000
v 0.380000 0.130000 0.760000
v 0.380000 0.130000 0.570000
v 0.380000 0.130000 -0.570000
v 0.380000 0.130000 -0.760000
v 0.380000 0.320000 0.760000
v 0.380000 0.320000 0.570000
v 0.380000 0.320000 0.380000
v 0.380000 0.320000 -0.380000
v 0.380000 0.320000 -0.570000
v 0.380000 0.320000 -0.760000
v 0.380000 0.700000 0.570000
v 0.380000 0.890000 0.570000
v 0.380000 1.080000 0.760000
v 0.380000 1.080000 0.570000
v 0.380000 1.080000 0.380000
v 0.380000 1.080000 -0.380000
v 0.380000 1.080000 -0.570000
v 0.380000 1.080000 -0.760000
v 0.380000 1.270000 0.760000
v 0.380000 1.270000 0.570000
v 0.380000 1.270000 -0.570000
v 0.380000 1.270000 -0.760000
v 0.570000 0.130000 0.570000
v 0.570000 0.130000 0.380000
v 0.570000 0.130000 -0.380000
v 0.570000 0.130000 -0.570000
v 0.570000 0.320000 0.570000
v 0.570000 0.320000 0.380000
v 0.570000 0.320000 -0.380000
v 0.570000 0.320000 -0.570000
v 0.570000 0.700000 0.380000
v 0.570000 0.700000 0.190000
v 0.570000 0.890000 0.190000
v 0.570000 0.890000 -0.000000
v 0.570000 0.890000 -0.380000
v 0.570000 1.080000 0.570000
v 0.570000 1.080000 0.380000
v 0.570000 1.080000 -0.000000
v 0.570000 1.080000 -0.380000
v 0.570000 1.080000 -0.570000
v 0.570000 1.270000 0.570000
v 0.570000 1.270000 0.380000
v 0.570000 1.270000 -0.380000
v 0.570000 1.270000 -0.570000
v 0.760000 0.130000 0.380000
v 0.760000 0.130000 -0.380000
v 0.760000 0.320000 0.380000
v 0.760000 0.320000 -0.380000
v 0.760000 1.080000 0.380000
v 0.760000 1.080000 0.190000
v 0.760000 1.080000 -0.000000
v 0.760000 1.080000 -0.190000
v 0.760000 1.080000 -0.380000
v 0.760000 1.270000 0.380000
v 0.760000 1.270000 0.190000
v 0.760000 1.270000 -0.190000
v 0.760000 1.270000 -0.380000
v -0.760000 0.130000 0.380000
v -0.760000 0.130000 -0.380000
v -0.760000 0.320000 0.380000
v -0.760000 0.320000 -0.000000
v -0.760000 0.320000 -0.190000
v -0.760000 0.320000 -0.380000
v -0.760000 1.080000 0.380000
v -0.760000 1.080000 0.190000
v -0.760000 1.080000 -0.000000
v -0.760000 1.080000 -0.190000
v -0.760000 1.080000 -0.380000
v -0.760000 1.270000 0.380000
v -0.760000 1.270000 0.190000
v -0.760000 1.270000 -0.190000
v -0.760000 1.270000 -0.380000
v -0.570000 0.130000 0.570000
v -0.570000 0.130000 0.380000
v -0.570000 0.130000 -0.380000
v -0.570000 0.130000 -0.570000
v -0.570000 0.320000 0.570000
v -0.570000 0.320000 0.380000
v -0.570000 0.320000 -0.000000
v -0.570000 0.320000 -0.190000
v -0.570000 0.320000 -0.380000
v -0.570000 0.320000 -0.570000
v -0.570000 0.510000 -0.380000
v -0.570000 0.700000 0.190000
v -0.570000 0.700000 -0.000000
v -0.570000 0.890000 0.380000
v -0.570000 0.890000 0.190000
v -0.570000 0.890000 -0.000000
v -0.570000 0.890000 -0.190000
v -0.570000 1.080000 0.570000
v -0.570000 1.080000 0.380000
v -0.570000 1.080000 -0.000000
v -0.570000 1.080000 -0.380000
v -0.570000 1.080000 -0.570000
v -0.570000 1.270000 0.570000
v -0.570000 1.270000 0.380000
v -0.570000 1.270000 -0.380000
v -0.570000 1.270000 -0.570000
v -0.380000 0.130000 0.760000
v -0.380000 0.130000 0.570000
v -0.380000 0.130000 -0.570000
v -0.380000 0.130000 -0.760000
v -0.380000 0.320000 0.760000
v -0.380000 0.320000 0.570000
v -0.380000 0.320000 0.380000
v -0.380000 0.320000 -0.380000
v -0.380000 0.320000 -0.570000
v -0.380000 0.320000 -0.760000
v -0.380000 0.510000 -0.380000
v -0.380000 0.510000 -0.570000
v -0.380000 1.080000 0.760000
v -0.380000 1.080000 0.570000
v -0.380000 1.080000 0.380000
v -0.380000 1.080000 -0.380000
v -0.380000 1.080000 -0.570000
v -0.380000 1.080000 -0.760000
v -0.380000 1.270000 0.760000
v -0.380000 1.270000 0.570000
v -0.380000 1.270000 -0.570000
v -0.380000 1.270000 -0.760000
v 0.570000 0.130000 1.710000
v 0.570000 0.130000 1.520000
v 0.570000 0.130000 -1.520000
v 0.570000 0.130000 -1.710000
v 0.570000 0.320000 1.900000
v 0.570000 0.320000 1.710000
v 0.570000 0.320000 1.520000
v 0.570000 0.320000 -1.520000
v 0.570000 0.320000 -1.710000
v 0.570000 0.320000 -1.900000
v 0.570000 1.080000 1.900000
v 0.570000 1.080000 1.710000
v 0.570000 1.080000 1.520000
v 0.570000 1.080000 -1.520000
v 0.570000 1.080000 -1.710000
v 0.570000 1.080000 -1.900000
v 0.570000 1.270000 1.710000
v 0.570000 1.270000 1.520000
v 0.570000 1.270000 -1.520000
v 0.570000 1.270000 -1.710000
v 0.950000 0.130000 1.520000
v 0.950000 0.130000 1.330000
v 0.950000 0.130000 -1.330000
v 0.950000 0.130000 -1.520000
v 0.950000 0.320000 1.710000
v 0.950000 0.320000 1.520000
v 0.950000 0.320000 1.330000
v 0.950000 0.320000 -1.330000
v 0.950000 0.320000 -1.520000
v 0.950000 0.320000 -1.710000
v 0.950000 1.080000 1.710000
v 0.950000 1.080000 1.520000
v 0.950000 1.080000 1.330000
v 0.950000 1.080000 -1.330000
v 0.950000 1.080000 -1.520000
v 0.950000 1.080000 -1.710000
v 0.950000 1.270000 1.520000
v 0.950000 1.270000 1.330000
v 0.950000 1.270000 -1.330000
v 0.950000 1.270000 -1.520000
v 1.330000 0.130000 1.330000
v 1.330000 0.130000 0.950000
v 1.330000 0.130000 -0.950000
v 1.330000 0.130000 -1.330000
v 1.330000 0.320000 1.520000
v 1.330000 0.320000 1.330000
v 1.330000 0.320000 0.950000
v 1.330000 0.320000 -0.950000
v 1.330000 0.320000 -1.330000
v 1.330000 0.320000 -1.520000
v 1.330000 0.700000 -1.330000
v 1.330000 0.700000 -1.520000
v 1.330000 0.890000 -1.330000
v 1.330000 1.080000 1.520000
v 1.330000 1.080000 1.330000
v 1.330000 1.080000 1.140000
v 1.330000 1.080000 0.950000
v 1.330000 1.080000 -0.950000
v 1.330000 1.080000 -1.140000
v 1.330000 1.080000 -1.330000
v 1.330000 1.080000 -1.520000
v 1.330000 1.270000 1.330000
v 1.330000 1.270000 0.950000
v 1.330000 1.270000 -0.950000
v 1.330000 1.270000 -1.140000
v 1.330000 1.270000 -1.330000
v 1.520000 0.130000 0.950000
v 1.520000 0.130000 0.570000
v 1.520000 0.130000 -0.570000
v 1.520000 0.130000 -0.950000
v 1.520000 0.320000 1.330000
v 1.520000 0.320000 0.950000
v 1.520000 0.320000 0.570000
v 1.520000 0.320000 -0.570000
v 1.520000 0.320000 -0.950000
v 1.520000 0.320000 -1.330000
v 1.520000 0.700000 0.950000
v 1.520000 0.890000 1.140000
v 1.520000 0.890000 0.950000
v 1.520000 0.890000 -1.140000
v 1.520000 0.890000 -1.330000
v 1.520000 1.080000 1.330000
v 1.520000 1.080000 1.140000
v 1.520000 1.080000 0.950000
v 1.520000 1.080000 0.760000
v 1.520000 1.080000 0.570000
v 1.520000 1.080000 -0.570000
v 1.520000 1.080000 -0.760000
v 1.520000 1.080000 -0.950000
v 1.520000 1.080000 -1.140000
v 1.520000 1.080000 -1.330000
v 1.520000 1.270000 0.950000
v 1.520000 1.270000 0.570000
v 1.520000 1.270000 -0.570000
v 1.520000 1.270000 -0.760000
v 1.520000 1.270000 -0.950000
v 1.710000 0.130000 0.570000
v 1.710000 0.130000 -0.570000
v 1.710000 0.320000 0.950000
v 1.710000 0.320000 0.570000
v 1.710000 0.320000 -0.570000
v 1.710000 0.320000 -0.950000
v 1.710000 0.700000 0.950000
v 1.710000 0.700000 0.760000
v 1.710000 1.080000 0.950000
v 1.710000 1.080000 0.760000
v 1.710000 1.080000 0.570000
v 1.710000 1.080000 0.380000
v 1.710000 1.080000 0.190000
v 1.710000 1.080000 -0.000000
v 1.710000 1.080000 -0.570000
v 1.710000 1.080000 -0.950000
v 1.710000 1.270000 0.570000
v 1.710000 1.270000 0.380000
v 1.710000 1.270000 0.190000
v 1.710000 1.270000 -0.000000
v 1.710000 1.270000 -0.570000
v 1.900000 0.320000 0.570000
v 1.900000 0.320000 -0.570000
v 1.900000 1.080000 0.570000
v 1.900000 1.080000 -0.570000
v -0.570000 0.320000 1.900000
v -0.570000 1.080000 1.900000
v -0.190000 0.890000 1.900000
v -0.190000 1.080000 1.900000
v 0.190000 0.890000 1.900000
v 0.190000 1.080000 1.900000
v 0.570000 0.320000 1.900000
v 0.570000 1.080000 1.900000
v -0.950000 0.320000 1.710000
v -0.950000 1.080000 1.710000
v -0.570000 0.130000 1.710000
v -0.570000 0.320000 1.710000
v -0.570000 1.080000 1.710000
v -0.570000 1.270000 1.710000
v -0.380000 1.080000 1.710000
v -0.380000 1.270000 1.710000
v -0.190000 1.080000 1.710000
v 0.000000 1.080000 1.710000
v 0.000000 1.270000 1.710000
v 0.190000 1.080000 1.710000
v 0.190000 1.270000 1.710000
v 0.570000 0.130000 1.710000
v 0.570000 0.320000 1.710000
v 0.570000 1.080000 1.710000
v 0.570000 1.270000 1.710000
v 0.950000 0.320000 1.710000
v 0.950000 1.080000 1.710000
v -1.330000 0.320000 1.520000
v -1.330000 0.890000 1.520000
v -1.330000 1.080000 1.520000
v -1.140000 0.890000 1.520000
v -1.140000 1.080000 1.520000
v -0.950000 0.130000 1.520000
v -0.950000 0.320000 1.520000
v -0.950000 1.080000 1.520000
v -0.950000 1.270000 1.520000
v -0.760000 1.080000 1.520000
v -0.760000 1.270000 1.520000
v -0.570000 0.130000 1.520000
v -0.570000 0.320000 1.520000
v -0.570000 1.080000 1.520000
v -0.570000 1.270000 1.520000
v 0.570000 0.130000 1.520000
v 0.570000 0.320000 1.520000
v 0.570000 1.080000 1.520000
v 0.570000 1.270000 1.520000
v 0.950000 0.130000 1.520000
v 0.950000 0.320000 1.520000
v 0.950000 1.080000 1.520000
v 0.950000 1.270000 1.520000
v 1.330000 0.320000 1.520000
v 1.330000 1.080000 1.520000
v -1.520000 0.320000 1.330000
v -1.520000 1.080000 1.330000
v -1.330000 0.130000 1.330000
v -1.330000 0.320000 1.330000
v -1.330000 0.890000 1.330000
v -1.330000 1.080000 1.330000
v -1.330000 1.270000 1.330000
v -1.140000 1.080000 1.330000
v -1.140000 1.270000 1.330000
v -0.950000 0.130000 1.330000
v -0.950000 0.320000 1.330000
v -0.950000 1.080000 1.330000
v -0.950000 1.270000 1.330000
v 0.950000 0.130000 1.330000
v 0.950000 0.320000 1.330000
v 0.950000 1.080000 1.330000
v 0.950000 1.270000 1.330000
v 1.330000 0.130000 1.330000
v 1.330000 0.320000 1.330000
v 1.330000 1.080000 1.330000
v 1.330000 1.270000 1.330000
v 1.520000 0.320000 1.330000
v 1.520000 1.080000 1.330000
v -1.710000 0.320000 0.950000
v -1.710000 1.080000 0.950000
v -1.520000 0.130000 0.950000
v -1.520000 0.320000 0.950000
v -1.520000 0.890000 0.950000
v -1.520000 1.080000 0.950000
v -1.520000 1.270000 0.950000
v -1.330000 0.130000 0.950000
v -1.330000 0.320000 0.950000
v -1.330000 1.080000 0.950000
v -1.330000 1.270000 0.950000
v 1.330000 0.130000 0.950000
v 1.330000 0.320000 0.950000
v 1.330000 1.080000 0.950000
v 1.330000 1.270000 0.950000
v 1.520000 0.130000 0.950000
v 1.520000 0.320000 0.950000
v 1.520000 0.700000 0.950000
v 1.520000 0.890000 0.950000
v 1.520000 1.080000 0.950000
v 1.520000 1.270000 0.950000
v 1.710000 0.320000 0.950000
v 1.710000 0.700000 0.950000
v 1.710000 1.080000 0.950000
v -1.900000 0.320000 0.570000
v -1.900000 1.080000 0.570000
v -1.710000 0.130000 0.570000
v -1.710000 0.320000 0.570000
v -1.710000 1.080000 0.570000
v -1.710000 1.270000 0.570000
v -1.520000 0.130000 0.570000
v -1.520000 0.320000 0.570000
v -1.520000 1.080000 0.570000
v -1.520000 1.270000 0.570000
v 1.520000 0.130000 0.570000
v 1.520000 0.320000 0.570000
v 1.520000 1.080000 0.570000
v 1.520000 1.270000 0.570000
v 1.710000 0.130000 0.570000
v 1.710000 0.320000 0.570000
v 1.710000 1.080000 0.570000
v 1.710000 1.270000 0.570000
v 1.900000 0.320000 0.570000
v 1.900000 1.080000 0.570000
v -0.760000 0.130000 -0.380000
v -0.760000 0.320000 -0.380000
v -0.760000 1.080000 -0.380000
v -0.760000 1.270000 -0.380000
v -0.570000 0.130000 -0.380000
v -0.570000 0.320000 -0.380000
v -0.570000 0.510000 -0.380000
v -0.570000 1.080000 -0.380000
v -0.570000 1.270000 -0.380000
v -0.380000 0.320000 -0.380000
v -0.380000 0.510000 -0.380000
v -0.380000 1.080000 -0.380000
v 0.380000 0.320000 -0.380000
v 0.380000 1.080000 -0.380000
v 0.570000 0.130000 -0.380000
v 0.570000 0.320000 -0.380000
v 0.570000 0.890000 -0.380000
v 0.570000 1.080000 -0.380000
v 0.570000 1.270000 -0.380000
v 0.760000 0.130000 -0.380000
v 0.760000 0.320000 -0.380000
v 0.760000 1.080000 -0.380000
v 0.760000 1.270000 -0.380000
v -0.570000 0.130000 -0.570000
v -0.570000 0.320000 -0.570000
v -0.570000 1.080000 -0.570000
v -0.570000 1.270000 -0.570000
v -0.380000 0.130000 -0.570000
v -0.380000 0.320000 -0.570000
v -0.380000 0.510000 -0.570000
v -0.380000 1.080000 -0.570000
v -0.380000 1.270000 -0.570000
v -0.190000 0.320000 -0.570000
v -0.190000 1.080000 -0.570000
v 0.000000 0.320000 -0.570000
v 0.000000 1.080000 -0.570000
v 0.380000 0.130000 -0.570000
v 0.380000 0.320000 -0.570000
v 0.380000 1.080000 -0.570000
v 0.380000 1.270000 -0.570000
v 0.570000 0.130000 -0.570000
v 0.570000 0.320000 -0.570000
v 0.570000 1.080000 -0.570000
v 0.570000 1.270000 -0.570000
v -0.380000 0.130000 -0.760000
v -0.380000 0.320000 -0.760000
v -0.380000 1.080000 -0.760000
v -0.380000 1.270000 -0.760000
v -0.190000 0.320000 -0.760000
v -0.190000 1.080000 -0.760000
v 0.000000 0.320000 -0.760000
v 0.000000 1.080000 -0.760000
v 0.190000 1.080000 -0.760000
v 0.190000 1.270000 -0.760000
v 0.380000 0.130000 -0.760000
v 0.380000 0.320000 -0.760000
v 0.380000 1.080000 -0.760000
v 0.380000 1.270000 -0.760000
v -0.380000 0.130000 0.760000
v -0.380000 0.320000 0.760000
v -0.380000 1.080000 0.760000
v -0.380000 1.270000 0.760000
v 0.000000 1.080000 0.760000
v 0.000000 1.270000 0.760000
v 0.190000 1.080000 0.760000
v 0.380000 0.130000 0.760000
v 0.380000 0.320000 0.760000
v 0.380000 1.080000 0.760000
v 0.380000 1.270000 0.760000
v -0.570000 0.130000 0.570000
v -0.570000 0.320000 0.570000
v -0.570000 1.080000 0.570000
v -0.570000 1.270000 0.570000
v -0.380000 0.130000 0.570000
v -0.380000 0.320000 0.570000
v -0.380000 1.080000 0.570000
v -0.380000 1.270000 0.570000
v 0.000000 0.890000 0.570000
v 0.000000 1.080000 0.570000
v 0.190000 0.700000 0.570000
v 0.190000 0.890000 0.570000
v 0.190000 1.080000 0.570000
v 0.380000 0.130000 0.570000
v 0.380000 0.320000 0.570000
v 0.380000 0.700000 0.570000
v 0.380000 0.890000 0.570000
v 0.380000 1.080000 0.570000
v 0.380000 1.270000 0.570000
v 0.570000 0.130000 0.570000
v 0.570000 0.320000 0.570000
v 0.570000 1.080000 0.570000
v 0.570000 1.270000 0.570000
v -0.760000 0.130000 0.380000
v -0.760000 0.320000 0.380000
v -0.760000 1.080000 0.380000
v -0.760000 1.270000 0.380000
v -0.570000 0.130000 0.380000
v -0.570000 0.320000 0.380000
v -0.570000 0.890000 0.380000
v -0.570000 1.080000 0.380000
v -0.570000 1.270000 0.380000
v -0.380000 0.320000 0.380000
v -0.380000 1.080000 0.380000
v 0.380000 0.320000 0.380000
v 0.380000 1.080000 0.380000
v 0.570000 0.130000 0.380000
v 0.570000 0.320000 0.380000
v 0.570000 0.700000 0.380000
v 0.570000 1.080000 0.380000
v 0.570000 1.270000 0.380000
v 0.760000 0.130000 0.380000
v 0.760000 0.320000 0.380000
v 0.760000 1.080000 0.380000
v 0.760000 1.270000 0.380000
v -1.900000 0.320000 -0.570000
v -1.900000 0.890000 -0.570000
v -1.900000 1.080000 -0.570000
v -1.710000 0.130000 -0.570000
v -1.710000 0.320000 -0.570000
v -1.710000 0.890000 -0.570000
v -1.710000 1.080000 -0.570000
v -1.710000 1.270000 -0.570000
v -1.520000 0.130000 -0.570000
v -1.520000 0.320000 -0.570000
v -1.520000 1.080000 -0.570000
v -1.520000 1.270000 -0.570000
v 1.520000 0.130000 -0.570000
v 1.520000 0.320000 -0.570000
v 1.520000 1.080000 -0.570000
v 1.520000 1.270000 -0.570000
v 1.710000 0.130000 -0.570000
v 1.710000 0.320000 -0.570000
v 1.710000 1.080000 -0.570000
v 1.710000 1.270000 -0.570000
v 1.900000 0.320000 -0.570000
v 1.900000 1.080000 -0.570000
v -1.710000 0.320000 -0.950000
v -1.710000 1.080000 -0.950000
v -1.520000 0.130000 -0.950000
v -1.520000 0.320000 -0.950000
v -1.520000 1.080000 -0.950000
v -1.520000 1.270000 -0.950000
v -1.330000 0.130000 -0.950000
v -1.330000 0.320000 -0.950000
v -1.330000 1.080000 -0.950000
v -1.330000 1.270000 -0.950000
v 1.330000 0.130000 -0.950000
v 1.330000 0.320000 -0.950000
v 1.330000 1.080000 -0.950000
v 1.330000 1.270000 -0.950000
v 1.520000 0.130000 -0.950000
v 1.520000 0.320000 -0.950000
v 1.520000 1.080000 -0.950000
v 1.520000 1.270000 -0.950000
v 1.710000 0.320000 -0.950000
v 1.710000 1.080000 -0.950000
v -1.520000 0.320000 -1.330000
v -1.520000 1.080000 -1.330000
v -1.330000 0.130000 -1.330000
v -1.330000 0.320000 -1.330000
v -1.330000 1.080000 -1.330000
v -1.330000 1.270000 -1.330000
v -1.140000 1.080000 -1.330000
v -1.140000 1.270000 -1.330000
v -0.950000 0.130000 -1.330000
v -0.950000 0.320000 -1.330000
v -0.950000 1.080000 -1.330000
v -0.950000 1.270000 -1.330000
v 0.950000 0.130000 -1.330000
v 0.950000 0.320000 -1.330000
v 0.950000 1.080000 -1.330000
v 0.950000 1.270000 -1.330000
v 1.140000 1.080000 -1.330000
v 1.330000 0.130000 -1.330000
v 1.330000 0.320000 -1.330000
v 1.330000 0.700000 -1.330000
v 1.330000 0.890000 -1.330000
v 1.330000 1.080000 -1.330000
v 1.330000 1.270000 -1.330000
v 1.520000 0.320000 -1.330000
v 1.520000 0.890000 -1.330000
v 1.520000 1.080000 -1.330000
v -1.330000 0.320000 -1.520000
v -1.330000 1.080000 -1.520000
v -1.140000 0.890000 -1.520000
v -1.140000 1.080000 -1.520000
v -0.950000 0.130000 -1.520000
v -0.950000 0.320000 -1.520000
v -0.950000 0.890000 -1.520000
v -0.950000 1.080000 -1.520000
v -0.950000 1.270000 -1.520000
v -0.570000 0.130000 -1.520000
v -0.570000 0.320000 -1.520000
v -0.570000 1.080000 -1.520000
v -0.570000 1.270000 -1.520000
v 0.570000 0.130000 -1.520000
v 0.570000 0.320000 -1.520000
v 0.570000 1.080000 -1.520000
v 0.570000 1.270000 -1.520000
v 0.950000 0.130000 -1.520000
v 0.950000 0.320000 -1.520000
v 0.950000 1.080000 -1.520000
v 0.950000 1.270000 -1.520000
v 1.140000 0.700000 -1.520000
v 1.140000 1.080000 -1.520000
v 1.330000 0.320000 -1.520000
v 1.330000 0.700000 -1.520000
v 1.330000 1.080000 -1.520000
v -0.950000 0.320000 -1.710000
v -0.950000 0.890000 -1.710000
v -0.950000 1.080000 -1.710000
v -0.570000 0.130000 -1.710000
v -0.570000 0.320000 -1.710000
v -0.570000 0.700000 -1.710000
v -0.570000 0.890000 -1.710000
v -0.570000 1.080000 -1.710000
v -0.570000 1.270000 -1.710000
v -0.380000 1.080000 -1.710000
v -0.380000 1.270000 -1.710000
v 0.190000 1.080000 -1.710000
v 0.190000 1.270000 -1.710000
v 0.570000 0.130000 -1.710000
v 0.570000 0.320000 -1.710000
v 0.570000 1.080000 -1.710000
v 0.570000 1.270000 -1.710000
v 0.950000 0.320000 -1.710000
v 0.950000 1.080000 -1.710000
v -0.570000 0.320000 -1.900000
v -0.570000 0.700000 -1.900000
v -0.570000 1.080000 -1.900000
v -0.380000 0.510000 -1.900000
v -0.380000 0.700000 -1.900000
v -0.190000 0.510000 -1.900000
v -0.190000 0.890000 -1.900000
v 0.190000 0.890000 -1.900000
v 0.190000 1.080000 -1.900000
v 0.570000 0.320000 -1.900000
v 0.570000 1.080000 -1.900000
v -0.570000 0.130000 1.710000
v 0.570000 0.130000 1.710000
v -0.950000 0.130000 1.520000
v -0.570000 0.130000 1.520000
v 0.570000 0.130000 1.520000
v 0.950000 0.130000 1.520000
v -1.330000 0.130000 1.330000
v -0.950000 0.130000 1.330000
v 0.950000 0.130000 1.330000
v 1.330000 0.130000 1.330000
v -1.520000 0.130000 0.950000
v -1.330000 0.130000 0.950000
v 1.330000 0.130000 0.950000
v 1.520000 0.130000 0.950000
v -0.380000 0.130000 0.760000
v 0.380000 0.130000 0.760000
v -1.710000 0.130000 0.570000
v -1.520000 0.130000 0.570000
v -0.570000 0.130000 0.570000
v -0.380000 0.130000 0.570000
v 0.380000 0.130000 0.570000
v 0.570000 0.130000 0.570000
v 1.520000 0.130000 0.570000
v 1.710000 0.130000 0.570000
v -0.760000 0.130000 0.380000
v -0.570000 0.130000 0.380000
v 0.570000 0.130000 0.380000
v 0.760000 0.130000 0.380000
v -0.760000 0.130000 -0.380000
v -0.570000 0.130000 -0.380000
v 0.570000 0.130000 -0.380000
v 0.760000 0.130000 -0.380000
v -1.710000 0.130000 -0.570000
v -1.520000 0.130000 -0.570000
v -0.570000 0.130000 -0.570000
v -0.380000 0.130000 -0.570000
v 0.380000 0.130000 -0.570000
v 0.570000 0.130000 -0.570000
v 1.520000 0.130000 -0.570000
v 1.710000 0.130000 -0.570000
v -0.380000 0.130000 -0.760000
v 0.380000 0.130000 -0.760000
v -1.520000 0.130000 -0.950000
v -1.330000 0.130000 -0.950000
v 1.330000 0.130000 -0.950000
v 1.520000 0.130000 -0.950000
v -1.330000 0.130000 -1.330000
v -0.950000 0.130000 -1.330000
v 0.950000 0.130000 -1.330000
v 1.330000 0.130000 -1.330000
v -0.950000 0.130000 -1.520000
v -0.570000 0.130000 -1.520000
v 0.570000 0.130000 -1.520000
v 0.950000 0.130000 -1.520000
v -0.570000 0.130000 -1.710000
v 0.570000 0.130000 -1.710000
v -0.570000 0.320000 1.900000
v 0.570000 0.320000 1.900000
v -0.950000 0.320000 1.710000
v -0.570000 0.320000 1.710000
v 0.570000 0.320000 1.710000
v 0.950000 0.320000 1.710000
v -1.330000 0.320000 1.520000
v -0.950000 0.320000 1.520000
v -0.570000 0.320000 1.520000
v 0.570000 0.320000 1.520000
v 0.950000 0.320000 1.520000
v 1.330000 0.320000 1.520000
v -1.520000 0.320000 1.330000
v -1.330000 0.320000 1.330000
v -0.950000 0.320000 1.330000
v 0.950000 0.320000 1.330000
v 1.330000 0.320000 1.330000
v 1.520000 0.320000 1.330000
v -1.710000 0.320000 0.950000
v -1.520000 0.320000 0.950000
v -1.330000 0.320000 0.950000
v 1.330000 0.320000 0.950000
v 1.520000 0.320000 0.950000
v 1.710000 0.320000 0.950000
v -0.380000 0.320000 0.760000
v 0.380000 0.320000 0.760000
v -1.900000 0.320000 0.570000
v -1.710000 0.320000 0.570000
v -1.520000 0.320000 0.570000
v -0.570000 0.320000 0.570000
v -0.380000 0.320000 0.570000
v 0.380000 0.320000 0.570000
v 0.570000 0.320000 0.570000
v 1.520000 0.320000 0.570000
v 1.710000 0.320000 0.570000
v 1.900000 0.320000 0.570000
v -0.760000 0.320000 0.380000
v -0.570000 0.320000 0.380000
v -0.380000 0.320000 0.380000
v 0.380000 0.320000 0.380000
v 0.570000 0.320000 0.380000
v 0.760000 0.320000 0.380000
v -0.760000 0.320000 -0.000000
v -0.570000 0.320000 -0.000000
v -0.760000 0.320000 -0.190000
v -0.570000 0.320000 -0.190000
v -0.760000 0.320000 -0.380000
v -0.570000 0.320000 -0.380000
v -0.380000 0.320000 -0.380000
v 0.380000 0.320000 -0.380000
v 0.570000 0.320000 -0.380000
v 0.760000 0.320000 -0.380000
v -1.900000 0.320000 -0.570000
v -1.710000 0.320000 -0.570000
v -1.520000 0.320000 -0.570000
v -0.570000 0.320000 -0.570000
v -0.380000 0.320000 -0.570000
v -0.190000 0.320000 -0.570000
v 0.000000 0.320000 -0.570000
v 0.380000 0.320000 -0.570000
v 0.570000 0.320000 -0.570000
v 1.520000 0.320000 -0.570000
v 1.710000 0.320000 -0.570000
v 1.900000 0.320000 -0.570000
v -0.380000 0.320000 -0.760000
v -0.190000 0.320000 -0.760000
v 0.000000 0.320000 -0.760000
v 0.380000 0.320000 -0.760000
v -1.710000 0.320000 -0.950000
v -1.520000 0.320000 -0.950000
v -1.330000 0.320000 -0.950000
v 1.330000 0.320000 -0.950000
v 1.520000 0.320000 -0.950000
v 1.710000 0.320000 -0.950000
v -1.520000 0.320000 -1.330000
v -1.330000 0.320000 -1.330000
v -0.950000 0.320000 -1.330000
v 0.950000 0.320000 -1.330000
v 1.330000 0.320000 -1.330000
v 1.520000 0.320000 -1.330000
v -1.330000 0.320000 -1.520000
v -0.950000 0.320000 -1.520000
v -0.570000 0.320000 -1.520000
v 0.570000 0.320000 -1.520000
v 0.950000 0.320000 -1.520000
v 1.330000 0.320000 -1.520000
v -0.950000 0.320000 -1.710000
v -0.570000 0.320000 -1.710000
v 0.570000 0.320000 -1.710000
v 0.950000 0.320000 -1.710000
v -0.570000 0.320000 -1.900000
v 0.570000 0.320000 -1.900000
v -0.570000 1.080000 1.900000
v -0.190000 1.080000 1.900000
v 0.190000 1.080000 1.900000
v 0.570000 1.080000 1.900000
v -0.950000 1.080000 1.710000
v -0.570000 1.080000 1.710000
v -0.380000 1.080000 1.710000
v -0.190000 1.080000 1.710000
v 0.000000 1.080000 1.710000
v 0.190000 1.080000 1.710000
v 0.570000 1.080000 1.710000
v 0.950000 1.080000 1.710000
v -1.330000 1.080000 1.520000
v -1.140000 1.080000 1.520000
v -0.950000 1.080000 1.520000
v -0.760000 1.080000 1.520000
v -0.570000 1.080000 1.520000
v 0.570000 1.080000 1.520000
v 0.950000 1.080000 1.520000
v 1.330000 1.080000 1.520000
v -1.520000 1.080000 1.330000
v -1.330000 1.080000 1.330000
v -1.140000 1.080000 1.330000
v -0.950000 1.080000 1.330000
v 0.950000 1.080000 1.330000
v 1.330000 1.080000 1.330000
v 1.520000 1.080000 1.330000
v -1.520000 1.080000 1.140000
v -1.330000 1.080000 1.140000
v 1.330000 1.080000 1.140000
v 1.520000 1.080000 1.140000
v -1.710000 1.080000 0.950000
v -1.520000 1.080000 0.950000
v -1.330000 1.080000 0.950000
v 1.330000 1.080000 0.950000
v 1.520000 1.080000 0.950000
v 1.710000 1.080000 0.950000
v -0.380000 1.080000 0.760000
v 0.000000 1.080000 0.760000
v 0.190000 1.080000 0.760000
v 0.380000 1.080000 0.760000
v 1.520000 1.080000 0.760000
v 1.710000 1.080000 0.760000
v -1.900000 1.080000 0.570000
v -1.710000 1.080000 0.570000
v -1.520000 1.080000 0.570000
v -0.570000 1.080000 0.570000
v -0.380000 1.080000 0.570000
v 0.000000 1.080000 0.570000
v 0.190000 1.080000 0.570000
v 0.380000 1.080000 0.570000
v 0.570000 1.080000 0.570000
v 1.520000 1.080000 0.570000
v 1.710000 1.080000 0.570000
v 1.900000 1.080000 0.570000
v -0.760000 1.080000 0.380000
v -0.570000 1.080000 0.380000
v -0.380000 1.080000 0.380000
v 0.380000 1.080000 0.380000
v 0.570000 1.080000 0.380000
v 0.760000 1.080000 0.380000
v 1.710000 1.080000 0.380000
v -1.900000 1.080000 0.190000
v -1.710000 1.080000 0.190000
v -0.760000 1.080000 0.190000
v 0.760000 1.080000 0.190000
v 1.710000 1.080000 0.190000
v -1.900000 1.080000 -0.000000
v -1.710000 1.080000 -0.000000
v -0.760000 1.080000 -0.000000
v -0.570000 1.080000 -0.000000
v 0.570000 1.080000 -0.000000
v 0.760000 1.080000 -0.000000
v 1.710000 1.080000 -0.000000
v -1.900000 1.080000 -0.190000
v -1.710000 1.080000 -0.190000
v -0.760000 1.080000 -0.190000
v 0.760000 1.080000 -0.190000
v -0.760000 1.080000 -0.380000
v -0.570000 1.080000 -0.380000
v -0.380000 1.080000 -0.380000
v 0.380000 1.080000 -0.380000
v 0.570000 1.080000 -0.380000
v 0.760000 1.080000 -0.380000
v -1.900000 1.080000 -0.570000
v -1.710000 1.080000 -0.570000
v -1.520000 1.080000 -0.570000
v -0.570000 1.080000 -0.570000
v -0.380000 1.080000 -0.570000
v -0.190000 1.080000 -0.570000
v 0.000000 1.080000 -0.570000
v 0.380000 1.080000 -0.570000
v 0.570000 1.080000 -0.570000
v 1.520000 1.080000 -0.570000
v 1.710000 1.080000 -0.570000
v 1.900000 1.080000 -0.570000
v -1.710000 1.080000 -0.760000
v -1.520000 1.080000 -0.760000
v -0.380000 1.080000 -0.760000
v -0.190000 1.080000 -0.760000
v 0.000000 1.080000 -0.760000
v 0.190000 1.080000 -0.760000
v 0.380000 1.080000 -0.760000
v 1.520000 1.080000 -0.760000
v -1.710000 1.080000 -0.950000
v -1.520000 1.080000 -0.950000
v -1.330000 1.080000 -0.950000
v 1.330000 1.080000 -0.950000
v 1.520000 1.080000 -0.950000
v 1.710000 1.080000 -0.950000
v 1.330000 1.080000 -1.140000
v 1.520000 1.080000 -1.140000
v -1.520000 1.080000 -1.330000
v -1.330000 1.080000 -1.330000
v -1.140000 1.080000 -1.330000
v -0.950000 1.080000 -1.330000
v 0.950000 1.080000 -1.330000
v 1.140000 1.080000 -1.330000
v 1.330000 1.080000 -1.330000
v 1.520000 1.080000 -1.330000
v -1.330000 1.080000 -1.520000
v -1.140000 1.080000 -1.520000
v -0.950000 1.080000 -1.520000
v -0.570000 1.080000 -1.520000
v 0.570000 1.080000 -1.520000
v 0.950000 1.080000 -1.520000
v 1.140000 1.080000 -1.520000
v 1.330000 1.080000 -1.520000
v -0.950000 1.080000 -1.710000
v -0.570000 1.080000 -1.710000
v -0.380000 1.080000 -1.710000
v 0.190000 1.080000 -1.710000
v 0.570000 1.080000 -1.710000
v 0.950000 1.080000 -1.710000
v -0.570000 1.080000 -1.900000
v 0.190000 1.080000 -1.900000
v 0.570000 1.080000 -1.900000
v -0.570000 1.270000 1.710000
v -0.380000 1.270000 1.710000
v 0.000000 1.270000 1.710000
v 0.190000 1.270000 1.710000
v 0.570000 1.270000 1.710000
v -0.950000 1.270000 1.520000
v -0.760000 1.270000 1.520000
v -0.570000 1.270000 1.520000
v -0.380000 1.270000 1.520000
v 0.000000 1.270000 1.520000
v 0.190000 1.270000 1.520000
v 0.380000 1.270000 1.520000
v 0.570000 1.270000 1.520000
v 0.950000 1.270000 1.520000
v -1.330000 1.270000 1.330000
v -1.140000 1.270000 1.330000
v -0.950000 1.270000 1.330000
v -0.760000 1.270000 1.330000
v -0.570000 1.270000 1.330000
v -0.380000 1.270000 1.330000
v -0.190000 1.270000 1.330000
v 0.000000 1.270000 1.330000
v 0.190000 1.270000 1.330000
v 0.380000 1.270000 1.330000
v 0.570000 1.270000 1.330000
v 0.950000 1.270000 1.330000
v 1.330000 1.270000 1.330000
v -1.330000 1.270000 1.140000
v -1.140000 1.270000 1.140000
v -0.950000 1.270000 1.140000
v -0.760000 1.270000 1.140000
v -0.570000 1.270000 1.140000
v -0.380000 1.270000 1.140000
v -0.190000 1.270000 1.140000
v 0.000000 1.270000 1.140000
v 0.190000 1.270000 1.140000
v 0.570000 1.270000 1.140000
v 0.950000 1.270000 1.140000
v -1.520000 1.270000 0.950000
v -1.330000 1.270000 0.950000
v -0.950000 1.270000 0.950000
v -0.760000 1.270000 0.950000
v -0.380000 1.270000 0.950000
v 0.000000 1.270000 0.950000
v 0.380000 1.270000 0.950000
v 0.570000 1.270000 0.950000
v 0.760000 1.270000 0.950000
v 0.950000 1.270000 0.950000
v 1.140000 1.270000 0.950000
v 1.330000 1.270000 0.950000
v 1.520000 1.270000 0.950000
v -0.950000 1.270000 0.760000
v -0.760000 1.270000 0.760000
v -0.380000 1.270000 0.760000
v 0.000000 1.270000 0.760000
v 0.380000 1.270000 0.760000
v 0.570000 1.270000 0.760000
v 0.760000 1.270000 0.760000
v 0.950000 1.270000 0.760000
v 1.140000 1.270000 0.760000
v 1.330000 1.270000 0.760000
v -1.710000 1.270000 0.570000
v -1.520000 1.270000 0.570000
v -1.330000 1.270000 0.570000
v -0.760000 1.270000 0.570000
v -0.570000 1.270000 0.570000
v -0.380000 1.270000 0.570000
v 0.380000 1.270000 0.570000
v 0.570000 1.270000 0.570000
v 0.950000 1.270000 0.570000
v 1.330000 1.270000 0.570000
v 1.520000 1.270000 0.570000
v 1.710000 1.270000 0.570000
v -1.330000 1.270000 0.380000
v -1.140000 1.270000 0.380000
v -0.760000 1.270000 0.380000
v -0.570000 1.270000 0.380000
v 0.570000 1.270000 0.380000
v 0.760000 1.270000 0.380000
v 0.950000 1.270000 0.380000
v 1.140000 1.270000 0.380000
v 1.330000 1.270000 0.380000
v 1.520000 1.270000 0.380000
v 1.710000 1.270000 0.380000
v -1.520000 1.270000 0.190000
v -1.140000 1.270000 0.190000
v -0.760000 1.270000 0.190000
v 0.760000 1.270000 0.190000
v 1.140000 1.270000 0.190000
v 1.520000 1.270000 0.190000
v 1.710000 1.270000 0.190000
v -1.710000 1.270000 -0.000000
v -1.520000 1.270000 -0.000000
v -1.140000 1.270000 -0.000000
v -0.950000 1.270000 -0.000000
v 1.140000 1.270000 -0.000000
v 1.330000 1.270000 -0.000000
v 1.520000 1.270000 -0.000000
v 1.710000 1.270000 -0.000000
v -1.520000 1.270000 -0.190000
v -1.330000 1.270000 -0.190000
v -0.950000 1.270000 -0.190000
v -0.760000 1.270000 -0.190000
v 0.760000 1.270000 -0.190000
v 0.950000 1.270000 -0.190000
v 1.330000 1.270000 -0.190000
v 1.520000 1.270000 -0.190000
v -1.520000 1.270000 -0.380000
v -1.330000 1.270000 -0.380000
v -1.140000 1.270000 -0.380000
v -0.760000 1.270000 -0.380000
v -0.570000 1.270000 -0.380000
v 0.570000 1.270000 -0.380000
v 0.760000 1.270000 -0.380000
v 0.950000 1.270000 -0.380000
v 1.330000 1.270000 -0.380000
v 1.520000 1.270000 -0.380000
v -1.710000 1.270000 -0.570000
v -1.520000 1.270000 -0.570000
v -1.330000 1.270000 -0.570000
v -1.140000 1.270000 -0.570000
v -0.760000 1.270000 -0.570000
v -0.570000 1.270000 -0.570000
v -0.380000 1.270000 -0.570000
v 0.380000 1.270000 -0.570000
v 0.570000 1.270000 -0.570000
v 0.950000 1.270000 -0.570000
v 1.140000 1.270000 -0.570000
v 1.330000 1.270000 -0.570000
v 1.520000 1.270000 -0.570000
v 1.710000 1.270000 -0.570000
v -1.140000 1.270000 -0.760000
v -0.760000 1.270000 -0.760000
v -0.570000 1.270000 -0.760000
v -0.380000 1.270000 -0.760000
v 0.190000 1.270000 -0.760000
v 0.380000 1.270000 -0.760000
v 0.570000 1.270000 -0.760000
v 1.140000 1.270000 -0.760000
v 1.330000 1.270000 -0.760000
v 1.520000 1.270000 -0.760000
v -1.520000 1.270000 -0.950000
v -1.330000 1.270000 -0.950000
v -0.760000 1.270000 -0.950000
v -0.570000 1.270000 -0.950000
v -0.190000 1.270000 -0.950000
v 0.190000 1.270000 -0.950000
v 0.570000 1.270000 -0.950000
v 0.760000 1.270000 -0.950000
v 1.140000 1.270000 -0.950000
v 1.330000 1.270000 -0.950000
v 1.520000 1.270000 -0.950000
v -1.140000 1.270000 -1.140000
v -0.760000 1.270000 -1.140000
v -0.570000 1.270000 -1.140000
v -0.380000 1.270000 -1.140000
v -0.190000 1.270000 -1.140000
v 0.000000 1.270000 -1.140000
v 1.140000 1.270000 -1.140000
v 1.330000 1.270000 -1.140000
v -1.330000 1.270000 -1.330000
v -1.140000 1.270000 -1.330000
v -0.950000 1.270000 -1.330000
v -0.760000 1.270000 -1.330000
v -0.570000 1.270000 -1.330000
v -0.380000 1.270000 -1.330000
v 0.000000 1.270000 -1.330000
v 0.380000 1.270000 -1.330000
v 0.760000 1.270000 -1.330000
v 0.950000 1.270000 -1.330000
v 1.330000 1.270000 -1.330000
v -0.950000 1.270000 -1.520000
v -0.570000 1.270000 -1.520000
v -0.380000 1.270000 -1.520000
v 0.000000 1.270000 -1.520000
v 0.190000 1.270000 -1.520000
v 0.380000 1.270000 -1.520000
v 0.570000 1.270000 -1.520000
v 0.950000 1.270000 -1.520000
v -0.570000 1.270000 -1.710000
v -0.380000 1.270000 -1.710000
v 0.190000 1.270000 -1.710000
v 0.570000 1.270000 -1.710000
vn -1.0000 -0.0000 -0.0000
vn 1.0000 -0.0000 -0.0000
vn -0.0000 -0.0000 1.0000
vn -0.0000 -0.0000 -1.0000
vn -0.0000 -1.0000 -0.0000
vn -0.0000 1.0000 -0.0000
vt 0.306641 0.500000
vt 0.912109 0.500000
vt 0.158203 0.500000
s 1
usemtl palette.030
f 3/1/1 2/1/1 1/1/1
f 4/1/1 2/1/1 3/1/1
f 5/2/1 4/2/1 3/2/1
f 5/1/1 2/1/1 4/1/1
f 6/1/1 2/1/1 5/1/1
f 7/1/1 3/1/1 1/1/1
f 8/2/1 5/2/1 3/2/1
f 8/1/1 3/1/1 7/1/1
f 8/2/1 6/2/1 5/2/1
f 9/2/1 6/2/1 8/2/1
f 10/1/1 2/1/1 6/1/1
f 10/2/1 6/2/1 9/2/1
f 11/1/1 2/1/1 10/1/1
f 12/1/1 7/1/1 1/1/1
f 13/2/1 8/2/1 7/2/1
f 13/1/1 7/1/1 12/1/1
f 14/3/1 9/3/1 8/3/1
f 14/2/1 8/2/1 13/2/1
f 15/2/1 10/2/1 9/2/1
f 15/3/1 9/3/1 14/3/1
f 15/2/1 11/2/1 10/2/1
f 16/2/1 11/2/1 15/2/1
f 20/1/1 18/1/1 17/1/1
f 21/1/1 18/1/1 20/1/1
f 23/1/1 22/1/1 21/1/1
f 24/1/1 22/1/1 23/1/1
f 25/1/1 20/1/1 19/1/1
f 26/1/1 20/1/1 25/1/1
f 30/2/1 24/2/1 23/2/1
f 31/1/1 22/1/1 24/1/1
f 31/2/1 24/2/1 30/2/1
f 32/1/1 22/1/1 31/1/1
f 33/2/1 27/2/1 26/2/1
f 33/2/1 28/2/1 27/2/1
f 34/3/1 30/3/1 29/3/1
f 34/2/1 28/2/1 33/2/1
f 34/3/1 29/3/1 28/3/1
f 35/3/1 30/3/1 34/3/1
f 41/1/1 37/1/1 36/1/1
f 42/1/1 37/1/1 41/1/1
f 43/1/1 39/1/1 38/1/1
f 44/1/1 39/1/1 43/1/1
f 46/1/1 41/1/1 40/1/1
f 47/1/1 41/1/1 46/1/1
f 48/1/1 46/1/1 40/1/1
f 49/2/1 47/2/1 46/2/1
f 49/1/1 46/1/1 48/1/1
f 50/2/1 47/2/1 49/2/1
f 54/1/1 45/1/1 44/1/1
f 55/1/1 45/1/1 54/1/1
f 56/2/1 51/2/1 50/2/1
f 57/2/1 51/2/1 56/2/1
f 58/2/1 53/2/1 52/2/1
f 58/2/1 54/2/1 53/2/1
f 59/2/1 54/2/1 58/2/1
f 65/1/1 61/1/1 60/1/1
f 66/1/1 61/1/1 65/1/1
f 67/1/1 63/1/1 62/1/1
f 68/1/1 63/1/1 67/1/1
f 70/1/1 65/1/1 64/1/1
f 71/1/1 65/1/1 70/1/1
f 72/2/1 71/2/1 70/2/1
f 73/2/1 71/2/1 72/2/1
f 77/1/1 69/1/1 68/1/1
f 78/1/1 69/1/1 77/1/1
f 79/2/1 74/2/1 73/2/1
f 80/3/1 75/3/1 74/3/1
f 80/2/1 74/2/1 79/2/1
f 81/3/1 75/3/1 80/3/1
f 82/2/1 77/2/1 76/2/1
f 83/2/1 77/2/1 82/2/1
f 89/1/1 85/1/1 84/1/1
f 90/1/1 85/1/1 89/1/1
f 91/1/1 87/1/1 86/1/1
f 92/1/1 87/1/1 91/1/1
f 94/1/1 93/1/1 92/1/1
f 95/1/1 93/1/1 94/1/1
f 96/1/1 89/1/1 88/1/1
f 97/1/1 89/1/1 96/1/1
f 100/2/1 95/2/1 94/2/1
f 101/2/1 95/2/1 100/2/1
f 102/1/1 98/1/1 97/1/1
f 103/1/1 98/1/1 102/1/1
f 104/3/1 100/3/1 99/3/1
f 105/3/1 100/3/1 104/3/1
f 111/1/1 107/1/1 106/1/1
f 112/1/1 107/1/1 111/1/1
f 113/1/1 109/1/1 108/1/1
f 114/1/1 109/1/1 113/1/1
f 116/1/1 115/1/1 114/1/1
f 117/1/1 115/1/1 116/1/1
f 118/2/1 117/2/1 116/2/1
f 119/1/1 111/1/1 110/1/1
f 120/1/1 111/1/1 119/1/1
f 123/2/1 117/2/1 118/2/1
f 124/2/1 117/2/1 123/2/1
f 125/1/1 121/1/1 120/1/1
f 126/1/1 121/1/1 125/1/1
f 127/3/1 123/3/1 122/3/1
f 128/3/1 123/3/1 127/3/1
f 133/1/1 130/1/1 129/1/1
f 134/1/1 130/1/1 133/1/1
f 137/1/1 132/1/1 131/1/1
f 138/1/1 132/1/1 137/1/1
f 139/1/1 135/1/1 134/1/1
f 140/1/1 135/1/1 139/1/1
f 142/1/1 135/1/1 140/1/1
f 143/1/1 135/1/1 142/1/1
f 144/1/1 137/1/1 136/1/1
f 145/1/1 137/1/1 144/1/1
f 147/3/1 142/3/1 141/3/1
f 148/3/1 142/3/1 147/3/1
f 149/2/1 146/2/1 145/2/1
f 150/2/1 146/2/1 149/2/1
f 155/1/1 152/1/1 151/1/1
f 156/1/1 152/1/1 155/1/1
f 157/1/1 154/1/1 153/1/1
f 158/1/1 154/1/1 157/1/1
f 159/1/1 157/1/1 156/1/1
f 160/1/1 157/1/1 159/1/1
f 161/2/1 160/2/1 159/2/1
f 161/1/1 157/1/1 160/1/1
f 162/1/1 157/1/1 161/1/1
f 163/1/1 157/1/1 162/1/1
f 165/2/1 161/2/1 159/2/1
f 165/2/1 162/2/1 161/2/1
f 166/3/1 163/3/1 162/3/1
f 166/2/1 162/2/1 165/2/1
f 167/3/1 163/3/1 166/3/1
f 169/3/1 165/3/1 164/3/1
f 170/3/1 165/3/1 169/3/1
f 171/2/1 168/2/1 167/2/1
f 172/2/1 168/2/1 171/2/1
f 175/1/1 174/1/1 173/1/1
f 176/1/1 174/1/1 175/1/1
f 182/3/1 178/3/1 177/3/1
f 183/2/1 179/2/1 178/2/1
f 183/3/1 178/3/1 182/3/1
f 183/2/1 180/2/1 179/2/1
f 184/3/1 181/3/1 180/3/1
f 184/2/1 180/2/1 183/2/1
f 185/3/1 181/3/1 184/3/1
f 186/1/2 187/1/2 188/1/2
f 188/1/2 187/1/2 189/1/2
f 189/1/2 187/1/2 190/1/2
f 190/1/2 187/1/2 191/1/2
f 192/2/2 193/2/2 197/2/2
f 193/3/2 194/3/2 198/3/2
f 197/2/2 193/2/2 198/2/2
f 194/3/2 195/3/2 198/3/2
f 195/2/2 196/2/2 199/2/2
f 198/3/2 195/3/2 199/3/2
f 199/2/2 196/2/2 200/2/2
f 201/1/2 202/1/2 205/1/2
f 205/1/2 202/1/2 206/1/2
f 203/1/2 204/1/2 209/1/2
f 209/1/2 204/1/2 210/1/2
f 208/1/2 209/1/2 211/1/2
f 206/1/2 207/1/2 212/1/2
f 207/2/2 208/2/2 213/2/2
f 212/1/2 207/1/2 213/1/2
f 206/1/2 212/1/2 214/1/2
f 212/2/2 213/2/2 215/2/2
f 214/1/2 212/1/2 215/1/2
f 213/2/2 208/2/2 216/2/2
f 215/2/2 213/2/2 216/2/2
f 208/1/2 211/1/2 217/1/2
f 216/2/2 208/2/2 217/2/2
f 214/2/2 215/2/2 219/2/2
f 215/2/2 216/2/2 219/2/2
f 216/1/2 217/1/2 220/1/2
f 219/2/2 216/2/2 220/2/2
f 217/1/2 211/1/2 221/1/2
f 220/1/2 217/1/2 221/1/2
f 218/2/2 219/2/2 223/2/2
f 223/2/2 219/2/2 224/2/2
f 221/2/2 222/2/2 225/2/2
f 225/2/2 222/2/2 226/2/2
f 227/1/2 228/1/2 231/1/2
f 231/1/2 228/1/2 232/1/2
f 229/1/2 230/1/2 235/1/2
f 235/1/2 230/1/2 236/1/2
f 234/3/2 235/3/2 237/3/2
f 237/3/2 235/3/2 238/3/2
f 232/1/2 233/1/2 240/1/2
f 240/1/2 233/1/2 241/1/2
f 237/1/2 238/1/2 242/1/2
f 242/1/2 238/1/2 243/1/2
f 239/3/2 240/3/2 245/3/2
f 245/3/2 240/3/2 246/3/2
f 243/2/2 244/2/2 247/2/2
f 247/2/2 244/2/2 248/2/2
f 249/1/2 250/1/2 254/1/2
f 254/1/2 250/1/2 255/1/2
f 251/1/2 252/1/2 256/1/2
f 256/1/2 252/1/2 257/1/2
f 253/1/2 254/1/2 259/1/2
f 259/1/2 254/1/2 260/1/2
f 257/1/2 258/1/2 263/1/2
f 263/1/2 258/1/2 264/1/2
f 260/1/2 261/1/2 265/1/2
f 265/1/2 261/1/2 266/1/2
f 262/3/2 263/3/2 267/3/2
f 267/3/2 263/3/2 268/3/2
f 269/1/2 270/1/2 274/1/2
f 274/1/2 270/1/2 275/1/2
f 271/1/2 272/1/2 276/1/2
f 276/1/2 272/1/2 277/1/2
f 273/1/2 274/1/2 279/1/2
f 279/1/2 274/1/2 280/1/2
f 277/1/2 278/1/2 283/1/2
f 283/1/2 278/1/2 284/1/2
f 280/2/2 281/2/2 285/2/2
f 285/2/2 281/2/2 286/2/2
f 282/3/2 283/3/2 287/3/2
f 287/3/2 283/3/2 288/3/2
f 289/1/2 290/1/2 294/1/2
f 294/1/2 290/1/2 295/1/2
f 291/1/2 292/1/2 296/1/2
f 296/1/2 292/1/2 297/1/2
f 297/1/2 298/1/2 299/1/2
f 299/1/2 298/1/2 300/1/2
f 299/2/2 300/2/2 301/2/2
f 293/1/2 294/1/2 302/1/2
f 302/1/2 294/1/2 303/1/2
f 301/2/2 300/2/2 308/2/2
f 308/2/2 300/2/2 309/2/2
f 303/2/2 304/2/2 310/2/2
f 304/2/2 305/2/2 310/2/2
f 310/2/2 305/2/2 311/2/2
f 306/1/2 307/1/2 312/1/2
f 307/2/2 308/2/2 313/2/2
f 312/1/2 307/1/2 313/1/2
f 313/2/2 308/2/2 314/2/2
f 315/1/2 316/1/2 320/1/2
f 320/1/2 316/1/2 321/1/2
f 317/1/2 318/1/2 322/1/2
f 322/1/2 318/1/2 323/1/2
f 319/1/2 320/1/2 325/1/2
f 319/1/2 325/1/2 326/1/2
f 326/1/2 325/1/2 327/1/2
f 323/1/2 324/1/2 328/1/2
f 328/1/2 324/1/2 329/1/2
f 319/1/2 326/1/2 330/1/2
f 326/2/2 327/2/2 331/2/2
f 330/1/2 326/1/2 331/1/2
f 331/2/2 327/2/2 332/2/2
f 323/1/2 328/1/2 337/1/2
f 328/2/2 329/2/2 338/2/2
f 337/1/2 328/1/2 338/1/2
f 338/2/2 329/2/2 339/2/2
f 332/2/2 333/2/2 340/2/2
f 333/2/2 334/2/2 340/2/2
f 340/2/2 334/2/2 341/2/2
f 335/3/2 336/3/2 342/3/2
f 336/1/2 337/1/2 343/1/2
f 342/3/2 336/3/2 343/3/2
f 343/1/2 337/1/2 344/1/2
f 345/1/2 346/1/2 348/1/2
f 348/1/2 346/1/2 349/1/2
f 347/1/2 348/1/2 351/1/2
f 351/1/2 348/1/2 352/1/2
f 351/2/2 352/2/2 353/2/2
f 352/1/2 348/1/2 354/1/2
f 353/2/2 352/2/2 354/2/2
f 354/1/2 348/1/2 355/1/2
f 349/1/2 350/1/2 359/1/2
f 359/1/2 350/1/2 360/1/2
f 355/1/2 356/1/2 361/1/2
f 356/3/2 357/3/2 362/3/2
f 361/1/2 356/1/2 362/1/2
f 357/2/2 358/2/2 363/2/2
f 362/3/2 357/3/2 363/3/2
f 358/3/2 359/3/2 364/3/2
f 363/2/2 358/2/2 364/2/2
f 364/3/2 359/3/2 365/3/2
f 366/1/2 367/1/2 368/1/2
f 368/1/2 367/1/2 369/1/2
f 372/1/3 371/1/3 370/1/3
f 373/1/3 371/1/3 372/1/3
f 374/1/3 372/1/3 370/1/3
f 374/2/3 373/2/3 372/2/3
f 375/2/3 373/2/3 374/2/3
f 376/1/3 374/1/3 370/1/3
f 376/1/3 375/1/3 374/1/3
f 377/1/3 375/1/3 376/1/3
f 381/1/3 379/1/3 378/1/3
f 382/1/3 379/1/3 381/1/3
f 384/1/3 383/1/3 382/1/3
f 385/1/3 383/1/3 384/1/3
f 386/3/3 385/3/3 384/3/3
f 387/3/3 385/3/3 386/3/3
f 388/3/3 385/3/3 387/3/3
f 389/2/3 388/2/3 387/2/3
f 390/2/3 388/2/3 389/2/3
f 391/1/3 381/1/3 380/1/3
f 392/1/3 381/1/3 391/1/3
f 393/1/3 390/1/3 389/1/3
f 394/1/3 390/1/3 393/1/3
f 395/1/3 393/1/3 392/1/3
f 396/1/3 393/1/3 395/1/3
f 400/1/3 398/1/3 397/1/3
f 400/2/3 399/2/3 398/2/3
f 401/2/3 399/2/3 400/2/3
f 403/1/3 400/1/3 397/1/3
f 403/1/3 401/1/3 400/1/3
f 404/1/3 401/1/3 403/1/3
f 406/1/3 405/1/3 404/1/3
f 407/1/3 405/1/3 406/1/3
f 408/1/3 403/1/3 402/1/3
f 409/1/3 403/1/3 408/1/3
f 410/3/3 407/3/3 406/3/3
f 411/3/3 407/3/3 410/3/3
f 416/1/3 413/1/3 412/1/3
f 417/1/3 413/1/3 416/1/3
f 418/2/3 415/2/3 414/2/3
f 419/2/3 415/2/3 418/2/3
f 420/1/3 418/1/3 417/1/3
f 421/1/3 418/1/3 420/1/3
f 425/1/3 423/1/3 422/1/3
f 426/1/3 423/1/3 425/1/3
f 427/1/3 423/1/3 426/1/3
f 429/2/3 428/2/3 427/2/3
f 430/2/3 428/2/3 429/2/3
f 431/1/3 425/1/3 424/1/3
f 432/1/3 425/1/3 431/1/3
f 433/1/3 430/1/3 429/1/3
f 434/1/3 430/1/3 433/1/3
f 439/1/3 436/1/3 435/1/3
f 440/1/3 436/1/3 439/1/3
f 441/2/3 438/2/3 437/2/3
f 442/2/3 438/2/3 441/2/3
f 443/1/3 441/1/3 440/1/3
f 444/1/3 441/1/3 443/1/3
f 448/1/3 446/1/3 445/1/3
f 449/1/3 446/1/3 448/1/3
f 450/1/3 446/1/3 449/1/3
f 452/1/3 448/1/3 447/1/3
f 453/1/3 448/1/3 452/1/3
f 454/2/3 451/2/3 450/2/3
f 455/2/3 451/2/3 454/2/3
f 460/1/3 457/1/3 456/1/3
f 461/1/3 457/1/3 460/1/3
f 464/2/3 459/2/3 458/2/3
f 465/2/3 459/2/3 464/2/3
f 466/1/3 462/1/3 461/1/3
f 467/2/3 463/2/3 462/2/3
f 467/1/3 462/1/3 466/1/3
f 467/2/3 464/2/3 463/2/3
f 468/2/3 464/2/3 467/2/3
f 472/1/3 470/1/3 469/1/3
f 473/1/3 470/1/3 472/1/3
f 475/1/3 472/1/3 471/1/3
f 476/1/3 472/1/3 475/1/3
f 477/2/3 474/2/3 473/2/3
f 478/2/3 474/2/3 477/2/3
f 483/1/3 480/1/3 479/1/3
f 484/1/3 480/1/3 483/1/3
f 485/1/3 482/1/3 481/1/3
f 486/1/3 482/1/3 485/1/3
f 487/1/3 485/1/3 484/1/3
f 488/1/3 485/1/3 487/1/3
f 493/1/3 490/1/3 489/1/3
f 494/1/3 490/1/3 493/1/3
f 496/2/3 492/2/3 491/2/3
f 497/2/3 492/2/3 496/2/3
f 498/3/3 495/3/3 494/3/3
f 499/1/3 496/1/3 495/1/3
f 499/3/3 495/3/3 498/3/3
f 500/1/3 496/1/3 499/1/3
f 504/1/3 502/1/3 501/1/3
f 505/1/3 502/1/3 504/1/3
f 506/1/3 502/1/3 505/1/3
f 508/1/3 504/1/3 503/1/3
f 509/1/3 504/1/3 508/1/3
f 510/2/3 507/2/3 506/2/3
f 511/2/3 507/2/3 510/2/3
f 516/1/3 513/1/3 512/1/3
f 517/1/3 513/1/3 516/1/3
f 519/2/3 515/2/3 514/2/3
f 520/2/3 515/2/3 519/2/3
f 521/1/3 518/1/3 517/1/3
f 521/1/3 519/1/3 518/1/3
f 522/1/3 519/1/3 521/1/3
f 523/2/3 522/2/3 521/2/3
f 524/2/3 522/2/3 523/2/3
f 526/1/3 524/1/3 523/1/3
f 527/1/3 524/1/3 526/1/3
f 529/1/3 526/1/3 525/1/3
f 530/1/3 526/1/3 529/1/3
f 531/2/3 528/2/3 527/2/3
f 532/2/3 528/2/3 531/2/3
f 537/1/3 534/1/3 533/1/3
f 538/2/3 536/2/3 535/2/3
f 539/1/3 537/1/3 533/1/3
f 540/2/3 536/2/3 538/2/3
f 541/2/3 536/2/3 540/2/3
f 542/2/3 536/2/3 541/2/3
f 543/1/3 539/1/3 533/1/3
f 544/1/3 539/1/3 543/1/3
f 545/3/3 542/3/3 541/3/3
f 546/3/3 542/3/3 545/3/3
f 549/2/4 550/2/4 551/2/4
f 551/2/4 550/2/4 552/2/4
f 551/3/4 552/3/4 553/3/4
f 547/1/4 548/1/4 554/1/4
f 554/1/4 548/1/4 555/1/4
f 553/3/4 552/3/4 556/3/4
f 556/3/4 552/3/4 557/3/4
f 558/1/4 559/1/4 562/1/4
f 562/1/4 559/1/4 563/1/4
f 560/3/4 561/3/4 564/3/4
f 564/3/4 561/3/4 565/3/4
f 563/1/4 564/1/4 566/1/4
f 566/1/4 564/1/4 567/1/4
f 563/1/4 566/1/4 568/1/4
f 566/2/4 567/2/4 569/2/4
f 568/1/4 566/1/4 569/1/4
f 569/2/4 567/2/4 570/2/4
f 563/1/4 568/1/4 572/1/4
f 568/2/4 569/2/4 573/2/4
f 572/1/4 568/1/4 573/1/4
f 569/3/4 570/3/4 574/3/4
f 573/2/4 569/2/4 574/2/4
f 574/3/4 570/3/4 575/3/4
f 571/1/4 572/1/4 577/1/4
f 577/1/4 572/1/4 578/1/4
f 575/3/4 576/3/4 579/3/4
f 579/3/4 576/3/4 580/3/4
f 581/1/4 582/1/4 585/1/4
f 585/1/4 582/1/4 586/1/4
f 583/2/4 584/2/4 588/2/4
f 588/2/4 584/2/4 589/2/4
f 586/1/4 587/1/4 590/1/4
f 587/1/4 588/1/4 590/1/4
f 590/1/4 588/1/4 591/1/4
f 592/1/4 593/1/4 595/1/4
f 595/1/4 593/1/4 596/1/4
f 596/1/4 593/1/4 597/1/4
f 594/1/4 595/1/4 599/1/4
f 599/1/4 595/1/4 600/1/4
f 597/3/4 598/3/4 601/3/4
f 601/3/4 598/3/4 602/3/4
f 603/1/4 604/1/4 607/1/4
f 604/2/4 605/2/4 608/2/4
f 607/1/4 604/1/4 608/1/4
f 608/2/4 605/2/4 609/2/4
f 606/1/4 607/1/4 611/1/4
f 611/1/4 607/1/4 612/1/4
f 609/3/4 610/3/4 613/3/4
f 613/3/4 610/3/4 614/3/4
f 615/1/4 616/1/4 619/1/4
f 619/1/4 616/1/4 620/1/4
f 617/3/4 618/3/4 621/3/4
f 621/3/4 618/3/4 622/3/4
f 620/1/4 621/1/4 623/1/4
f 623/1/4 621/1/4 624/1/4
f 625/1/4 626/1/4 628/1/4
f 628/1/4 626/1/4 629/1/4
f 627/1/4 628/1/4 631/1/4
f 631/1/4 628/1/4 632/1/4
f 629/2/4 630/2/4 633/2/4
f 633/2/4 630/2/4 634/2/4
f 635/1/4 636/1/4 639/1/4
f 639/1/4 636/1/4 640/1/4
f 637/1/4 638/1/4 641/1/4
f 641/1/4 638/1/4 642/1/4
f 640/1/4 641/1/4 643/1/4
f 643/1/4 641/1/4 644/1/4
f 645/1/4 646/1/4 648/1/4
f 648/1/4 646/1/4 649/1/4
f 649/2/4 650/2/4 651/2/4
f 651/2/4 650/2/4 652/2/4
f 647/1/4 648/1/4 653/1/4
f 653/1/4 648/1/4 654/1/4
f 651/3/4 652/3/4 655/3/4
f 655/3/4 652/3/4 656/3/4
f 659/2/4 660/2/4 661/2/4
f 657/1/4 658/1/4 662/1/4
f 662/1/4 658/1/4 663/1/4
f 661/2/4 660/2/4 666/2/4
f 666/2/4 660/2/4 667/2/4
f 664/1/4 665/1/4 668/1/4
f 663/1/4 664/1/4 668/1/4
f 665/2/4 666/2/4 669/2/4
f 668/1/4 665/1/4 669/1/4
f 669/2/4 666/2/4 670/2/4
f 671/1/4 672/1/4 673/1/4
f 673/1/4 672/1/4 674/1/4
f 671/1/4 673/1/4 676/1/4
f 673/2/4 674/2/4 677/2/4
f 676/1/4 673/1/4 677/1/4
f 677/2/4 674/2/4 678/2/4
f 675/1/4 676/1/4 680/1/4
f 680/1/4 676/1/4 681/1/4
f 678/3/4 679/3/4 682/3/4
f 682/3/4 679/3/4 683/3/4
f 684/1/4 685/1/4 688/1/4
f 688/1/4 685/1/4 689/1/4
f 686/3/4 687/3/4 690/3/4
f 690/3/4 687/3/4 691/3/4
f 689/1/4 690/1/4 692/1/4
f 692/1/4 690/1/4 693/1/4
f 689/1/4 692/1/4 694/1/4
f 692/2/4 693/2/4 695/2/4
f 694/1/4 692/1/4 695/1/4
f 695/2/4 693/2/4 696/2/4
f 697/1/4 698/1/4 701/1/4
f 701/1/4 698/1/4 702/1/4
f 698/2/4 699/2/4 703/2/4
f 702/1/4 698/1/4 703/1/4
f 703/2/4 699/2/4 704/2/4
f 704/3/4 705/3/4 706/3/4
f 706/3/4 705/3/4 707/3/4
f 706/2/4 707/2/4 708/2/4
f 708/2/4 707/2/4 709/2/4
f 700/1/4 701/1/4 710/1/4
f 710/1/4 701/1/4 711/1/4
f 708/3/4 709/3/4 712/3/4
f 712/3/4 709/3/4 713/3/4
f 711/1/4 712/1/4 714/1/4
f 714/1/4 712/1/4 715/1/4
f 716/1/4 717/1/4 719/1/4
f 717/2/4 718/2/4 720/2/4
f 719/1/4 717/1/4 720/1/4
f 716/1/4 719/1/4 721/1/4
f 719/2/4 720/2/4 721/2/4
f 720/2/4 718/2/4 722/2/4
f 721/2/4 720/2/4 722/2/4
f 721/1/4 722/1/4 723/1/4
f 722/2/4 718/2/4 723/2/4
f 723/2/4 718/2/4 724/2/4
f 716/1/4 721/1/4 725/1/4
f 721/1/4 723/1/4 725/1/4
f 723/1/4 724/1/4 725/1/4
f 725/1/4 724/1/4 726/1/4
f 730/1/5 728/1/5 727/1/5
f 731/1/5 728/1/5 730/1/5
f 734/1/5 730/1/5 729/1/5
f 734/1/5 732/1/5 731/1/5
f 734/1/5 731/1/5 730/1/5
f 735/1/5 732/1/5 734/1/5
f 738/1/5 734/1/5 733/1/5
f 738/1/5 736/1/5 735/1/5
f 738/1/5 735/1/5 734/1/5
f 739/1/5 736/1/5 738/1/5
f 741/1/5 738/1/5 737/1/5
f 741/1/5 740/1/5 739/1/5
f 741/1/5 739/1/5 738/1/5
f 742/1/5 740/1/5 741/1/5
f 744/1/5 741/1/5 737/1/5
f 745/1/5 741/1/5 744/1/5
f 746/1/5 741/1/5 745/1/5
f 747/1/5 740/1/5 742/1/5
f 748/1/5 740/1/5 747/1/5
f 749/1/5 740/1/5 748/1/5
f 751/1/5 744/1/5 743/1/5
f 751/1/5 745/1/5 744/1/5
f 752/1/5 745/1/5 751/1/5
f 753/1/5 750/1/5 749/1/5
f 753/1/5 749/1/5 748/1/5
f 754/1/5 750/1/5 753/1/5
f 755/1/5 751/1/5 743/1/5
f 758/1/5 750/1/5 754/1/5
f 759/1/5 756/1/5 755/1/5
f 759/1/5 755/1/5 743/1/5
f 760/1/5 756/1/5 759/1/5
f 761/1/5 756/1/5 760/1/5
f 764/1/5 758/1/5 757/1/5
f 765/1/5 750/1/5 758/1/5
f 765/1/5 758/1/5 764/1/5
f 766/1/5 750/1/5 765/1/5
f 767/1/5 762/1/5 761/1/5
f 767/1/5 761/1/5 760/1/5
f 768/1/5 764/1/5 763/1/5
f 768/1/5 765/1/5 764/1/5
f 769/1/5 767/1/5 760/1/5
f 769/1/5 768/1/5 767/1/5
f 770/1/5 768/1/5 769/1/5
f 771/1/5 765/1/5 768/1/5
f 771/1/5 768/1/5 770/1/5
f 772/1/5 765/1/5 771/1/5
f 773/1/5 771/1/5 770/1/5
f 774/1/5 771/1/5 773/1/5
f 775/1/5 771/1/5 774/1/5
f 776/1/5 771/1/5 775/1/5
f 777/1/5 775/1/5 774/1/5
f 778/1/5 775/1/5 777/1/5
f 779/1/5 775/1/5 778/1/5
f 780/1/5 775/1/5 779/1/5
f 781/1/5 779/1/5 778/1/5
f 782/1/5 779/1/5 781/1/5
f 786/1/5 784/1/5 783/1/5
f 787/1/5 784/1/5 786/1/5
f 790/1/5 786/1/5 785/1/5
f 791/1/5 786/1/5 790/1/5
f 792/1/5 788/1/5 787/1/5
f 793/1/5 788/1/5 792/1/5
f 796/1/5 790/1/5 789/1/5
f 797/1/5 790/1/5 796/1/5
f 798/1/5 794/1/5 793/1/5
f 799/1/5 794/1/5 798/1/5
f 802/1/5 796/1/5 795/1/5
f 803/1/5 796/1/5 802/1/5
f 804/1/5 800/1/5 799/1/5
f 805/1/5 800/1/5 804/1/5
f 810/1/5 802/1/5 801/1/5
f 811/1/5 802/1/5 810/1/5
f 813/1/5 808/1/5 807/1/5
f 814/1/5 808/1/5 813/1/5
f 816/1/5 806/1/5 805/1/5
f 817/1/5 806/1/5 816/1/5
f 820/1/5 813/1/5 812/1/5
f 821/1/5 813/1/5 820/1/5
f 822/1/5 815/1/5 814/1/5
f 823/1/5 815/1/5 822/1/5
f 825/1/5 820/1/5 819/1/5
f 826/1/5 820/1/5 825/1/5
f 827/2/5 826/2/5 825/2/5
f 828/2/5 826/2/5 827/2/5
f 829/1/5 828/1/5 827/1/5
f 830/1/5 828/1/5 829/1/5
f 833/1/5 824/1/5 823/1/5
f 834/1/5 824/1/5 833/1/5
f 835/1/5 810/1/5 809/1/5
f 836/1/5 810/1/5 835/1/5
f 838/3/5 831/3/5 830/3/5
f 839/3/5 831/3/5 838/3/5
f 842/1/5 833/1/5 832/1/5
f 843/1/5 833/1/5 842/1/5
f 845/1/5 818/1/5 817/1/5
f 846/1/5 818/1/5 845/1/5
f 847/1/5 840/1/5 839/1/5
f 848/2/5 841/2/5 840/2/5
f 848/1/5 840/1/5 847/1/5
f 849/1/5 842/1/5 841/1/5
f 849/2/5 841/2/5 848/2/5
f 850/1/5 842/1/5 849/1/5
f 851/1/5 837/1/5 836/1/5
f 852/1/5 837/1/5 851/1/5
f 855/1/5 845/1/5 844/1/5
f 856/1/5 845/1/5 855/1/5
f 857/1/5 853/1/5 852/1/5
f 858/1/5 853/1/5 857/1/5
f 861/1/5 855/1/5 854/1/5
f 862/1/5 855/1/5 861/1/5
f 863/1/5 859/1/5 858/1/5
f 864/1/5 859/1/5 863/1/5
f 867/1/5 861/1/5 860/1/5
f 868/1/5 861/1/5 867/1/5
f 869/1/5 865/1/5 864/1/5
f 870/1/5 865/1/5 869/1/5
f 871/1/5 867/1/5 866/1/5
f 872/1/5 867/1/5 871/1/5
f 873/1/5 871/1/5 870/1/5
f 874/1/5 871/1/5 873/1/5
f 875/1/6 876/1/6 880/1/6
f 880/1/6 876/1/6 881/1/6
f 876/2/6 877/2/6 882/2/6
f 881/1/6 876/1/6 882/1/6
f 882/2/6 877/2/6 883/2/6
f 877/1/6 878/1/6 884/1/6
f 883/2/6 877/2/6 884/2/6
f 884/1/6 878/1/6 885/1/6
f 879/1/6 880/1/6 889/1/6
f 889/1/6 880/1/6 890/1/6
f 890/1/6 880/1/6 891/1/6
f 885/1/6 886/1/6 892/1/6
f 892/1/6 886/1/6 893/1/6
f 887/2/6 888/2/6 896/2/6
f 888/1/6 889/1/6 897/1/6
f 896/2/6 888/2/6 897/2/6
f 897/1/6 889/1/6 898/1/6
f 893/1/6 894/1/6 899/1/6
f 899/1/6 894/1/6 900/1/6
f 895/1/6 896/1/6 902/1/6
f 902/1/6 896/1/6 903/1/6
f 900/1/6 901/1/6 904/1/6
f 904/1/6 901/1/6 905/1/6
f 902/2/6 903/2/6 907/2/6
f 907/2/6 903/2/6 908/2/6
f 904/2/6 905/2/6 909/2/6
f 909/2/6 905/2/6 910/2/6
f 910/2/6 911/2/6 916/2/6
f 916/2/6 911/2/6 917/2/6
f 906/1/6 907/1/6 919/1/6
f 919/1/6 907/1/6 920/1/6
f 912/1/6 913/1/6 922/1/6
f 913/2/6 914/2/6 923/2/6
f 922/1/6 913/1/6 923/1/6
f 914/3/6 915/3/6 924/3/6
f 923/2/6 914/2/6 924/2/6
f 924/3/6 915/3/6 925/3/6
f 916/1/6 917/1/6 927/1/6
f 927/1/6 917/1/6 928/1/6
f 921/1/6 922/1/6 931/1/6
f 931/1/6 922/1/6 932/1/6
f 925/1/6 926/1/6 933/1/6
f 933/1/6 926/1/6 934/1/6
f 928/1/6 929/1/6 936/1/6
f 918/1/6 919/1/6 937/1/6
f 937/1/6 919/1/6 938/1/6
f 930/2/6 931/2/6 939/2/6
f 934/2/6 935/2/6 940/2/6
f 936/1/6 929/1/6 941/1/6
f 937/2/6 938/2/6 942/2/6
f 942/2/6 938/2/6 943/2/6
f 939/2/6 931/2/6 944/2/6
f 944/2/6 931/2/6 945/2/6
f 934/2/6 940/2/6 946/2/6
f 946/2/6 940/2/6 947/2/6
f 941/1/6 929/1/6 948/1/6
f 942/3/6 943/3/6 949/3/6
f 949/3/6 943/3/6 950/3/6
f 944/1/6 945/1/6 951/1/6
f 946/3/6 947/3/6 952/3/6
f 951/1/6 945/1/6 953/1/6
f 953/1/6 945/1/6 954/1/6
f 946/3/6 952/3/6 957/3/6
f 957/3/6 952/3/6 958/3/6
f 949/2/6 950/2/6 959/2/6
f 959/2/6 950/2/6 960/2/6
f 954/1/6 955/1/6 962/1/6
f 962/1/6 955/1/6 963/1/6
f 956/1/6 957/1/6 966/1/6
f 966/1/6 957/1/6 967/1/6
f 948/1/6 929/1/6 969/1/6
f 969/1/6 929/1/6 970/1/6
f 960/2/6 961/2/6 971/2/6
f 971/2/6 961/2/6 972/2/6
f 963/1/6 964/1/6 973/1/6
f 964/2/6 965/2/6 974/2/6
f 973/1/6 964/1/6 974/1/6
f 965/1/6 966/1/6 975/1/6
f 974/2/6 965/2/6 975/2/6
f 975/1/6 966/1/6 976/1/6
f 976/1/6 966/1/6 977/1/6
f 968/1/6 969/1/6 978/1/6
f 971/1/6 972/1/6 979/1/6
f 979/1/6 972/1/6 980/1/6
f 978/1/6 969/1/6 983/1/6
f 983/1/6 969/1/6 984/1/6
f 982/1/6 983/1/6 985/1/6
f 985/1/6 983/1/6 986/1/6
f 980/1/6 981/1/6 987/1/6
f 987/1/6 981/1/6 988/1/6
f 985/2/6 986/2/6 993/2/6
f 993/2/6 986/2/6 994/2/6
f 988/1/6 989/1/6 995/1/6
f 989/2/6 990/2/6 996/2/6
f 995/1/6 989/1/6 996/1/6
f 996/2/6 990/2/6 997/2/6
f 991/1/6 992/1/6 1000/1/6
f 992/2/6 993/2/6 1001/2/6
f 1000/1/6 992/1/6 1001/1/6
f 1001/2/6 993/2/6 1002/2/6
f 997/2/6 998/2/6 1003/2/6
f 1003/2/6 998/2/6 1004/2/6
f 999/1/6 1000/1/6 1007/1/6
f 1007/1/6 1000/1/6 1008/1/6
f 1005/2/6 1006/2/6 1009/2/6
f 1004/2/6 1005/2/6 1009/2/6
f 1006/1/6 1007/1/6 1010/1/6
f 1009/2/6 1006/2/6 1010/2/6
f 1010/1/6 1007/1/6 1011/1/6
f 1012/1/6 1013/1/6 1019/1/6
f 1013/3/6 1014/3/6 1020/3/6
f 1019/1/6 1013/1/6 1020/1/6
f 1014/2/6 1015/2/6 1021/2/6
f 1020/3/6 1014/3/6 1021/3/6
f 1015/1/6 1016/1/6 1022/1/6
f 1021/2/6 1015/2/6 1022/2/6
f 1022/1/6 1016/1/6 1023/1/6
f 1023/1/6 1016/1/6 1024/1/6
f 1017/1/6 1018/1/6 1028/1/6
f 1018/3/6 1019/3/6 1029/3/6
f 1019/3/6 1020/3/6 1029/3/6
f 1028/1/6 1018/1/6 1029/1/6
f 1029/3/6 1020/3/6 1030/3/6
f 1020/2/6 1021/2/6 1031/2/6
f 1030/3/6 1020/3/6 1031/3/6
f 1031/2/6 1021/2/6 1032/2/6
f 1021/3/6 1022/3/6 1033/3/6
f 1032/2/6 1021/2/6 1033/2/6
f 1022/3/6 1023/3/6 1033/3/6
f 1033/3/6 1023/3/6 1034/3/6
f 1023/2/6 1024/2/6 1035/2/6
f 1034/3/6 1023/3/6 1035/3/6
f 1024/2/6 1025/2/6 1035/2/6
f 1035/2/6 1025/2/6 1036/2/6
f 1036/2/6 1025/2/6 1037/2/6
f 1026/2/6 1027/2/6 1039/2/6
f 1027/1/6 1028/1/6 1040/1/6
f 1039/2/6 1027/2/6 1040/2/6
f 1028/1/6 1029/1/6 1040/1/6
f 1040/1/6 1029/1/6 1041/1/6
f 1029/2/6 1030/2/6 1042/2/6
f 1041/1/6 1029/1/6 1042/1/6
f 1031/3/6 1032/3/6 1043/3/6
f 1042/2/6 1030/2/6 1043/2/6
f 1030/3/6 1031/3/6 1043/3/6
f 1043/3/6 1032/3/6 1044/3/6
f 1033/2/6 1034/2/6 1045/2/6
f 1044/3/6 1032/3/6 1045/3/6
f 1032/2/6 1033/2/6 1045/2/6
f 1045/2/6 1034/2/6 1046/2/6
f 1034/3/6 1035/3/6 1047/3/6
f 1046/2/6 1034/2/6 1047/2/6
f 1035/3/6 1036/3/6 1047/3/6
f 1037/2/6 1038/2/6 1048/2/6
f 1047/3/6 1036/3/6 1048/3/6
f 1036/2/6 1037/2/6 1048/2/6
f 1048/2/6 1038/2/6 1049/2/6
f 1040/3/6 1041/3/6 1051/3/6
f 1039/3/6 1040/3/6 1051/3/6
f 1041/2/6 1042/2/6 1052/2/6
f 1043/2/6 1044/2/6 1052/2/6
f 1051/3/6 1041/3/6 1052/3/6
f 1042/2/6 1043/2/6 1052/2/6
f 1052/2/6 1044/2/6 1053/2/6
f 1044/3/6 1045/3/6 1054/3/6
f 1053/2/6 1044/2/6 1054/2/6
f 1045/3/6 1046/3/6 1054/3/6
f 1046/2/6 1047/2/6 1055/2/6
f 1054/3/6 1046/3/6 1055/3/6
f 1047/2/6 1048/2/6 1055/2/6
f 1055/2/6 1048/2/6 1056/2/6
f 1048/3/6 1049/3/6 1057/3/6
f 1056/2/6 1048/2/6 1057/2/6
f 1057/3/6 1049/3/6 1058/3/6
f 1049/2/6 1038/2/6 1059/2/6
f 1058/3/6 1049/3/6 1059/3/6
f 1059/2/6 1038/2/6 1060/2/6
f 1060/2/6 1038/2/6 1061/2/6
f 1050/2/6 1051/2/6 1063/2/6
f 1051/2/6 1052/2/6 1063/2/6
f 1052/3/6 1053/3/6 1063/3/6
f 1053/2/6 1054/2/6 1064/2/6
f 1063/3/6 1053/3/6 1064/3/6
f 1054/2/6 1055/2/6 1064/2/6
f 1064/2/6 1055/2/6 1065/2/6
f 1055/3/6 1056/3/6 1066/3/6
f 1065/2/6 1055/2/6 1066/2/6
f 1057/2/6 1058/2/6 1067/2/6
f 1066/3/6 1056/3/6 1067/3/6
f 1056/2/6 1057/2/6 1067/2/6
f 1067/2/6 1058/2/6 1068/2/6
f 1059/3/6 1060/3/6 1069/3/6
f 1068/2/6 1058/2/6 1069/2/6
f 1058/3/6 1059/3/6 1069/3/6
f 1069/3/6 1060/3/6 1070/3/6
f 1061/2/6 1062/2/6 1071/2/6
f 1070/3/6 1060/3/6 1071/3/6
f 1060/2/6 1061/2/6 1071/2/6
f 1071/2/6 1062/2/6 1072/2/6
f 1050/2/6 1063/2/6 1074/2/6
f 1063/2/6 1064/2/6 1074/2/6
f 1074/2/6 1064/2/6 1075/2/6
f 1064/3/6 1065/3/6 1076/3/6
f 1075/2/6 1064/2/6 1076/2/6
f 1076/3/6 1065/3/6 1077/3/6
f 1077/3/6 1065/3/6 1078/3/6
f 1067/3/6 1068/3/6 1079/3/6
f 1069/2/6 1070/2/6 1080/2/6
f 1079/3/6 1068/3/6 1080/3/6
f 1068/2/6 1069/2/6 1080/2/6
f 1070/3/6 1071/3/6 1081/3/6
f 1080/2/6 1070/2/6 1081/2/6
f 1071/3/6 1072/3/6 1081/3/6
f 1072/2/6 1062/2/6 1082/2/6
f 1081/3/6 1072/3/6 1082/3/6
f 1082/2/6 1062/2/6 1083/2/6
f 1074/3/6 1075/3/6 1085/3/6
f 1076/2/6 1077/2/6 1085/2/6
f 1075/2/6 1076/2/6 1085/2/6
f 1085/2/6 1077/2/6 1086/2/6
f 1086/2/6 1077/2/6 1087/2/6
f 1087/2/6 1077/2/6 1088/2/6
f 1080/3/6 1081/3/6 1089/3/6
f 1089/3/6 1081/3/6 1090/3/6
f 1081/2/6 1082/2/6 1091/2/6
f 1090/3/6 1081/3/6 1091/3/6
f 1091/2/6 1082/2/6 1092/2/6
f 1082/3/6 1083/3/6 1093/3/6
f 1092/2/6 1082/2/6 1093/2/6
f 1083/1/6 1084/1/6 1094/1/6
f 1093/3/6 1083/3/6 1094/3/6
f 1094/1/6 1084/1/6 1095/1/6
f 1073/2/6 1074/2/6 1096/2/6
f 1074/3/6 1085/3/6 1096/3/6
f 1085/3/6 1086/3/6 1096/3/6
f 1086/2/6 1087/2/6 1097/2/6
f 1096/3/6 1086/3/6 1097/3/6
f 1097/2/6 1087/2/6 1098/2/6
f 1091/3/6 1092/3/6 1099/3/6
f 1090/3/6 1091/3/6 1099/3/6
f 1092/2/6 1093/2/6 1100/2/6
f 1099/3/6 1092/3/6 1100/3/6
f 1093/2/6 1094/2/6 1100/2/6
f 1094/3/6 1095/3/6 1101/3/6
f 1100/2/6 1094/2/6 1101/2/6
f 1101/3/6 1095/3/6 1102/3/6
f 1073/2/6 1096/2/6 1103/2/6
f 1096/2/6 1097/2/6 1103/2/6
f 1103/2/6 1097/2/6 1104/2/6
f 1097/3/6 1098/3/6 1105/3/6
f 1104/2/6 1097/2/6 1105/2/6
f 1105/3/6 1098/3/6 1106/3/6
f 1099/2/6 1100/2/6 1107/2/6
f 1100/3/6 1101/3/6 1107/3/6
f 1107/3/6 1101/3/6 1108/3/6
f 1101/2/6 1102/2/6 1109/2/6
f 1108/3/6 1101/3/6 1109/3/6
f 1109/2/6 1102/2/6 1110/2/6
f 1103/3/6 1104/3/6 1111/3/6
f 1105/2/6 1106/2/6 1111/2/6
f 1104/2/6 1105/2/6 1111/2/6
f 1111/2/6 1106/2/6 1112/2/6
f 1106/3/6 1098/3/6 1113/3/6
f 1112/2/6 1106/2/6 1113/2/6
f 1113/3/6 1098/3/6 1114/3/6
f 1107/2/6 1108/2/6 1115/2/6
f 1099/2/6 1107/2/6 1115/2/6
f 1115/2/6 1108/2/6 1116/2/6
f 1109/3/6 1110/3/6 1117/3/6
f 1116/2/6 1108/2/6 1117/2/6
f 1108/3/6 1109/3/6 1117/3/6
f 1117/3/6 1110/3/6 1118/3/6
f 1111/3/6 1112/3/6 1119/3/6
f 1103/3/6 1111/3/6 1119/3/6
f 1113/2/6 1114/2/6 1120/2/6
f 1119/3/6 1112/3/6 1120/3/6
f 1112/2/6 1113/2/6 1120/2/6
f 1120/2/6 1114/2/6 1121/2/6
f 1121/2/6 1114/2/6 1122/2/6
f 1115/3/6 1116/3/6 1125/3/6
f 1116/2/6 1117/2/6 1126/2/6
f 1117/2/6 1118/2/6 1126/2/6
f 1125/3/6 1116/3/6 1126/3/6
f 1126/2/6 1118/2/6 1127/2/6
f 1118/3/6 1110/3/6 1128/3/6
f 1127/2/6 1118/2/6 1128/2/6
f 1103/3/6 1119/3/6 1129/3/6
f 1119/2/6 1120/2/6 1130/2/6
f 1129/3/6 1119/3/6 1130/3/6
f 1120/3/6 1121/3/6 1131/3/6
f 1130/2/6 1120/2/6 1131/2/6
f 1122/2/6 1123/2/6 1132/2/6
f 1131/3/6 1121/3/6 1132/3/6
f 1121/2/6 1122/2/6 1132/2/6
f 1132/2/6 1123/2/6 1133/2/6
f 1133/2/6 1123/2/6 1134/2/6
f 1124/2/6 1125/2/6 1137/2/6
f 1125/2/6 1126/2/6 1137/2/6
f 1126/3/6 1127/3/6 1138/3/6
f 1137/2/6 1126/2/6 1138/2/6
f 1138/3/6 1127/3/6 1139/3/6
f 1127/1/6 1128/1/6 1140/1/6
f 1139/3/6 1127/3/6 1140/3/6
f 1128/3/6 1110/3/6 1141/3/6
f 1140/1/6 1128/1/6 1141/1/6
f 1141/3/6 1110/3/6 1142/3/6
f 1130/2/6 1131/2/6 1143/2/6
f 1131/2/6 1132/2/6 1143/2/6
f 1132/3/6 1133/3/6 1143/3/6
f 1134/2/6 1135/2/6 1144/2/6
f 1143/3/6 1133/3/6 1144/3/6
f 1133/2/6 1134/2/6 1144/2/6
f 1144/2/6 1135/2/6 1145/2/6
f 1145/2/6 1135/2/6 1146/2/6
f 1136/2/6 1137/2/6 1148/2/6
f 1138/2/6 1139/2/6 1148/2/6
f 1137/2/6 1138/2/6 1148/2/6
f 1148/2/6 1139/2/6 1149/2/6
f 1139/3/6 1140/3/6 1150/3/6
f 1149/2/6 1139/2/6 1150/2/6
f 1140/3/6 1141/3/6 1150/3/6
f 1150/3/6 1141/3/6 1151/3/6
f 1151/3/6 1141/3/6 1152/3/6
f 1130/2/6 1143/2/6 1153/2/6
f 1143/2/6 1144/2/6 1153/2/6
f 1153/2/6 1144/2/6 1154/2/6
f 1144/3/6 1145/3/6 1155/3/6
f 1154/2/6 1144/2/6 1155/2/6
f 1146/2/6 1147/2/6 1156/2/6
f 1155/3/6 1145/3/6 1156/3/6
f 1145/2/6 1146/2/6 1156/2/6
f 1156/2/6 1147/2/6 1157/2/6
f 1148/3/6 1149/3/6 1158/3/6
f 1157/2/6 1147/2/6 1158/2/6
f 1147/3/6 1148/3/6 1158/3/6
f 1149/2/6 1150/2/6 1159/2/6
f 1158/3/6 1149/3/6 1159/3/6
f 1150/2/6 1151/2/6 1159/2/6
f 1159/2/6 1151/2/6 1160/2/6
f 1160/2/6 1151/2/6 1161/2/6
f 1151/1/6 1152/1/6 1162/1/6
f 1161/2/6 1151/2/6 1162/2/6
f 1162/1/6 1152/1/6 1163/1/6
f 1154/2/6 1155/2/6 1164/2/6
f 1155/2/6 1156/2/6 1164/2/6
f 1164/2/6 1156/2/6 1165/2/6
f 1156/3/6 1157/3/6 1166/3/6
f 1165/2/6 1156/2/6 1166/2/6
f 1166/3/6 1157/3/6 1167/3/6
f 1157/2/6 1158/2/6 1168/2/6
f 1167/3/6 1157/3/6 1168/3/6
f 1158/2/6 1159/2/6 1168/2/6
f 1168/2/6 1159/2/6 1169/2/6
f 1161/1/6 1162/1/6 1170/1/6
f 1160/2/6 1161/2/6 1170/2/6
f 1170/1/6 1162/1/6 1171/1/6
f 1154/2/6 1164/2/6 1172/2/6
f 1164/3/6 1165/3/6 1173/3/6
f 1172/2/6 1164/2/6 1173/2/6
f 1173/3/6 1165/3/6 1174/3/6
f 1166/2/6 1167/2/6 1175/2/6
f 1174/3/6 1165/3/6 1175/3/6
f 1165/2/6 1166/2/6 1175/2/6
f 1175/2/6 1167/2/6 1176/2/6
f 1168/3/6 1169/3/6 1177/3/6
f 1176/2/6 1167/2/6 1177/2/6
f 1167/3/6 1168/3/6 1177/3/6
f 1169/2/6 1159/2/6 1178/2/6
f 1177/3/6 1169/3/6 1178/3/6
f 1178/2/6 1159/2/6 1179/2/6
f 1159/3/6 1160/3/6 1180/3/6
f 1160/2/6 1170/2/6 1180/2/6
f 1170/2/6 1171/2/6 1180/2/6
f 1180/2/6 1171/2/6 1181/2/6
f 1181/2/6 1171/2/6 1182/2/6
f 1175/3/6 1176/3/6 1183/3/6
f 1174/3/6 1175/3/6 1183/3/6
f 1176/2/6 1177/2/6 1184/2/6
f 1183/3/6 1176/3/6 1184/3/6
f 1177/2/6 1178/2/6 1184/2/6
f 1184/2/6 1178/2/6 1185/2/6
f 1178/3/6 1179/3/6 1186/3/6
f 1185/2/6 1178/2/6 1186/2/6
f 1186/3/6 1179/3/6 1187/3/6
f 1179/2/6 1159/2/6 1188/2/6
f 1187/3/6 1179/3/6 1188/3/6
f 1180/3/6 1181/3/6 1189/3/6
f 1188/2/6 1159/2/6 1189/2/6
f 1159/3/6 1180/3/6 1189/3/6
f 1189/3/6 1181/3/6 1190/3/6
f 1184/3/6 1185/3/6 1191/3/6
f 1186/2/6 1187/2/6 1192/2/6
f 1191/3/6 1185/3/6 1192/3/6
f 1185/2/6 1186/2/6 1192/2/6
f 1187/3/6 1188/3/6 1193/3/6
f 1192/2/6 1187/2/6 1193/2/6
f 1188/3/6 1189/3/6 1193/3/6
f 1193/3/6 1189/3/6 1194/3/6
